<svg xmlns="http://www.w3.org/2000/svg" xmlns:xlink="http://www.w3.org/1999/xlink" viewBox="0 0 512 512" width="512" height="512" style="width: 100%; height: 100%; transform: translate3d(0,0,0); content-visibility: visible;" preserveAspectRatio="xMidYMid meet"><defs><clipPath id="__lottie_element_2"><rect width="512" height="512" x="0" y="0"></rect></clipPath><clipPath id="__lottie_element_4"><path d="M0,0 L512,0 L512,512 L0,512z"></path></clipPath><clipPath id="__lottie_element_8"><path d="M0,0 L512,0 L512,512 L0,512z"></path></clipPath><clipPath id="__lottie_element_13"><path d="M0,0 L512,0 L512,512 L0,512z"></path></clipPath><clipPath id="__lottie_element_20"><path d="M0,0 L512,0 L512,512 L0,512z"></path></clipPath><clipPath id="__lottie_element_28"><path d="M0,0 L512,0 L512,512 L0,512z"></path></clipPath><clipPath id="__lottie_element_35"><path d="M0,0 L512,0 L512,512 L0,512z"></path></clipPath><clipPath id="__lottie_element_108"><path d="M0,0 L512,0 L512,512 L0,512z"></path></clipPath><radialGradient id="__lottie_element_216" spreadMethod="pad" gradientUnits="userSpaceOnUse" cx="0" cy="0" r="100" fx="0" fy="0"><stop offset="0%" stop-color="rgb(255,93,31)"></stop><stop offset="18%" stop-color="rgb(255,153,35)"></stop><stop offset="60%" stop-color="rgb(255,213,39)"></stop></radialGradient><radialGradient id="__lottie_element_217" spreadMethod="pad" gradientUnits="userSpaceOnUse" cx="0" cy="0" r="100" fx="0" fy="0"><stop offset="0%" stop-color="rgb(255,93,31)"></stop><stop offset="18%" stop-color="rgb(255,153,35)"></stop><stop offset="60%" stop-color="rgb(255,213,39)"></stop></radialGradient></defs><g clip-path="url(#__lottie_element_2)"><g clip-path="url(#__lottie_element_4)" style="display: block;" transform="matrix(1,0,0,1,0,0)" opacity="1"><g style="display: block;" transform="matrix(1.072571039199829,0,0,1.072571039199829,35.23899841308594,2.692352294921875)" opacity="1"><g opacity="1" transform="matrix(1,0,0,1,205.04299926757812,332.3080139160156)"><path fill="rgb(255,212,39)" fill-opacity="1" d=" M-1.0609999895095825,115.01399993896484 C-76.02999877929688,115.01399993896484 -134.45399475097656,97.80000305175781 -161.35299682617188,67.78500366210938 C-174.46200561523438,53.159000396728516 -180.04299926757812,36.03200149536133 -177.94000244140625,16.881000518798828 C-173.52999877929688,-23.291000366210938 -156.031005859375,-56.417999267578125 -127.33599853515625,-78.91899871826172 C-96.79199981689453,-102.87000274658203 -54.30699920654297,-115.01399993896484 -1.0609999895095825,-115.01399993896484 C60.130001068115234,-115.01399993896484 104.30699920654297,-105.31600189208984 133.99400329589844,-85.36699676513672 C164.55099487304688,-64.83300018310547 180.04400634765625,-32.720001220703125 180.04400634765625,10.07699966430664 C180.04400634765625,41.380001068115234 160.36399841308594,69.09700012207031 124.62799835205078,88.12100219726562 C92.05400085449219,105.46299743652344 47.41699981689453,115.01399993896484 -1.0609999895095825,115.01399993896484z"></path><g opacity="1" transform="matrix(1,0,0,1,0,0)"></g></g><g opacity="1" transform="matrix(1,0,0,1,205.04299926757812,332.3080139160156)"><path stroke-linecap="butt" stroke-linejoin="miter" fill-opacity="0" stroke-miterlimit="10" stroke="rgb(249,143,22)" stroke-opacity="1" stroke-width="10" d=" M-1.0609999895095825,115.01399993896484 C-76.02999877929688,115.01399993896484 -134.45399475097656,97.80000305175781 -161.35299682617188,67.78500366210938 C-174.46200561523438,53.159000396728516 -180.04299926757812,36.03200149536133 -177.94000244140625,16.881000518798828 C-173.52999877929688,-23.291000366210938 -156.031005859375,-56.417999267578125 -127.33599853515625,-78.91899871826172 C-96.79199981689453,-102.87000274658203 -54.30699920654297,-115.01399993896484 -1.0609999895095825,-115.01399993896484 C60.130001068115234,-115.01399993896484 104.30699920654297,-105.31600189208984 133.99400329589844,-85.36699676513672 C164.55099487304688,-64.83300018310547 180.04400634765625,-32.720001220703125 180.04400634765625,10.07699966430664 C180.04400634765625,41.380001068115234 160.36399841308594,69.09700012207031 124.62799835205078,88.12100219726562 C92.05400085449219,105.46299743652344 47.41699981689453,115.01399993896484 -1.0609999895095825,115.01399993896484z"></path></g><g opacity="1" transform="matrix(1,0,0,1,199.36000061035156,153.8489990234375)"><path fill="rgb(255,212,39)" fill-opacity="1" d=" M-126.35399627685547,128.84800720214844 C-160.96600341796875,109.87799835205078 -172.0850067138672,69.74400329589844 -172.0850067138672,35.21699905395508 C-172.0850067138672,-47.459999084472656 -95.04000091552734,-128.84800720214844 -0.0010000000474974513,-128.84800720214844 C95.03900146484375,-128.84800720214844 172.0850067138672,-47.459999084472656 172.0850067138672,35.21699905395508 C172.0850067138672,70.0979995727539 158.3719940185547,99.63600158691406 135.3800048828125,122.12999725341797"></path><g opacity="1" transform="matrix(1,0,0,1,0,0)"></g></g><g opacity="1" transform="matrix(1,0,0,1,199.36000061035156,153.8489990234375)"><path stroke-linecap="round" stroke-linejoin="miter" fill-opacity="0" stroke-miterlimit="10" stroke="rgb(249,143,22)" stroke-opacity="1" stroke-width="10" d=" M-126.35399627685547,128.84800720214844 C-160.96600341796875,109.87799835205078 -172.0850067138672,69.74400329589844 -172.0850067138672,35.21699905395508 C-172.0850067138672,-47.459999084472656 -95.04000091552734,-128.84800720214844 -0.0010000000474974513,-128.84800720214844 C95.03900146484375,-128.84800720214844 172.0850067138672,-47.459999084472656 172.0850067138672,35.21699905395508 C172.0850067138672,70.0979995727539 158.3719940185547,99.63600158691406 135.3800048828125,122.12999725341797"></path></g></g><g style="display: block;" transform="matrix(1.072571039199829,0,0,1.072571039199829,41.14993667602539,302.3515319824219)" opacity="1"><g opacity="1" transform="matrix(1,0,0,1,56.76100158691406,75.48799896240234)"><path fill="rgb(255,212,39)" fill-opacity="1" d=" M31.76099967956543,17.320999145507812 C18.729999542236328,44.599998474121094 2.0769999027252197,50.487998962402344 -12.020000457763672,47.10499954223633 C-26.117000579833984,43.72200012207031 -31.76099967956543,-14.098999977111816 16.80500030517578,-50.487998962402344"></path><g opacity="1" transform="matrix(1,0,0,1,0,0)"></g></g><g opacity="1" transform="matrix(1,0,0,1,56.76100158691406,75.48799896240234)"><path stroke-linecap="round" stroke-linejoin="round" fill-opacity="0" stroke="rgb(249,143,22)" stroke-opacity="1" stroke-width="10" d=" M31.76099967956543,17.320999145507812 C18.729999542236328,44.599998474121094 2.0769999027252197,50.487998962402344 -12.020000457763672,47.10499954223633 C-26.117000579833984,43.72200012207031 -31.76099967956543,-14.098999977111816 16.80500030517578,-50.487998962402344"></path></g></g><g style="display: block;" transform="matrix(1.072571039199829,0,0,1.072571039199829,62.86306381225586,318.064697265625)" opacity="1"><g opacity="1" transform="matrix(1,0,0,1,40.4379997253418,59.85499954223633)"><path stroke-linecap="round" stroke-linejoin="round" fill-opacity="0" stroke="rgb(255,255,255)" stroke-opacity="1" stroke-width="10" d=" M-11.697999954223633,31.104000091552734 C-14.15999984741211,16.297000885009766 -12.954000473022461,-4.682000160217285 15.383999824523926,-34.79800033569336"></path></g></g><g style="display: block;" transform="matrix(1.072571039199829,0,0,1.072571039199829,369.0992431640625,294.43487548828125)" opacity="1"><g opacity="1" transform="matrix(1,0,0,1,56.76100158691406,75.48799896240234)"><path fill="rgb(255,212,39)" fill-opacity="1" d=" M-31.76099967956543,17.320999145507812 C-18.729999542236328,44.599998474121094 -2.0769999027252197,50.487998962402344 12.020000457763672,47.10499954223633 C26.117000579833984,43.72200012207031 31.76099967956543,-14.098999977111816 -16.80500030517578,-50.487998962402344"></path><g opacity="1" transform="matrix(1,0,0,1,0,0)"></g></g><g opacity="1" transform="matrix(1,0,0,1,56.76100158691406,75.48799896240234)"><path stroke-linecap="round" stroke-linejoin="round" fill-opacity="0" stroke="rgb(249,143,22)" stroke-opacity="1" stroke-width="10" d=" M-31.76099967956543,17.320999145507812 C-18.729999542236328,44.599998474121094 -2.0769999027252197,50.487998962402344 12.020000457763672,47.10499954223633 C26.117000579833984,43.72200012207031 31.76099967956543,-14.098999977111816 -16.80500030517578,-50.487998962402344"></path></g></g><g style="display: block;" transform="matrix(1.072571039199829,0,0,1.072571039199829,384.8102722167969,311.23779296875)" opacity="1"><g opacity="1" transform="matrix(1,0,0,1,41.71099853515625,59.5369987487793)"><path stroke-linecap="round" stroke-linejoin="round" fill-opacity="0" stroke="rgb(251,237,32)" stroke-opacity="1" stroke-width="10" d=" M8.031999588012695,31.113000869750977 C11.104000091552734,22.18400001525879 12.133999824523926,2.0239999294281006 -16.663000106811523,-34.47600173950195"></path></g></g><g style="display: block;" transform="matrix(1.072571039199829,0,0,1.072571039199829,76.4729232788086,172.4063262939453)" opacity="1"><g opacity="1" transform="matrix(1,0,0,1,57.02899932861328,65.31400299072266)"><path fill="url(#__lottie_element_216)" fill-opacity="1" d=" M-51.76100158691406,-10.748000144958496 C-56.77899932861328,19.11199951171875 -37.672000885009766,47.21099853515625 -9.083999633789062,52.01499938964844 C19.50200080871582,56.81800079345703 46.74399948120117,36.50699996948242 51.76100158691406,6.6479997634887695 C56.77899932861328,-23.211000442504883 37.672000885009766,-51.31100082397461 9.085000038146973,-56.11399841308594 C6.263000011444092,-56.5880012512207 3.4579999446868896,-56.81800079345703 0.6830000281333923,-56.81700134277344 C-24.65999984741211,-56.816001892089844 -47.23899841308594,-37.659000396728516 -51.76100158691406,-10.748000144958496z"></path><g opacity="1" transform="matrix(1,0,0,1,0,0)"></g></g><g opacity="1" transform="matrix(1,0,0,1,271.1029968261719,57.06700134277344)"><path fill="url(#__lottie_element_217)" fill-opacity="1" d=" M-51.762001037597656,-10.748000144958496 C-56.77899932861328,19.111000061035156 -37.672000885009766,47.21099853515625 -9.085000038146973,52.013999938964844 C19.500999450683594,56.81700134277344 46.74399948120117,36.50699996948242 51.76100158691406,6.6479997634887695 C56.77799987792969,-23.211000442504883 37.672000885009766,-51.31100082397461 9.085000038146973,-56.1150016784668 C6.263999938964844,-56.5890007019043 3.4590001106262207,-56.81700134277344 0.6840000152587891,-56.81700134277344 C-24.659000396728516,-56.816001892089844 -47.2400016784668,-37.65999984741211 -51.762001037597656,-10.748000144958496z"></path><g opacity="1" transform="matrix(1,0,0,1,0,0)"></g></g></g><g style="display: block;" transform="matrix(1.072571039199829,0,0,1.072571039199829,67.38824462890625,25.275344848632812)" opacity="1"><g opacity="1" transform="matrix(1,0,0,1,96.85900115966797,71.4489974975586)"><path stroke-linecap="round" stroke-linejoin="round" fill-opacity="0" stroke="rgb(255,255,255)" stroke-opacity="1" stroke-width="10" d=" M-68.05400085449219,38.45199966430664 C-55,13.11299991607666 -33.834999084472656,-9.241999626159668 -7.591000080108643,-24.643999099731445 C15.571000099182129,-38.23699951171875 42.68899917602539,-46.415000915527344 71.6780014038086,-46.44900131225586"></path></g><g opacity="1" transform="matrix(1,0,0,1,298.2439880371094,153.64199829101562)"><path stroke-linecap="round" stroke-linejoin="round" fill-opacity="0" stroke="rgb(251,237,32)" stroke-opacity="1" stroke-width="10" d=" M-17.643999099731445,-81.8219985961914 C8.682000160217285,-55.582000732421875 24.839000701904297,-21.246999740600586 24.839000701904297,13.347999572753906 C24.839000701904297,43.46500015258789 12.595000267028809,68.97799682617188 -7.941999912261963,88.42900085449219"></path></g></g><g style="display: block;" transform="matrix(1.072571039199829,0,0,1.072571039199829,170.062255859375,182.8413848876953)" opacity="1"><g opacity="1" transform="matrix(1,0,0,1,74.89900207519531,52.06999969482422)"><path fill="rgb(255,93,31)" fill-opacity="1" d=" M49.98400115966797,11.793999671936035 C43.099998474121094,24.121000289916992 33.59400177001953,24.266000747680664 3.4230000972747803,28.41699981689453 C-23.134000778198242,32.07099914550781 -39.98899841308594,25.743000030517578 -44.867000579833984,18.55500030517578 C-47.861000061035156,14.145000457763672 -54.900001525878906,-2.747999906539917 -36.986000061035156,-10.434000015258789 C-9.652000427246094,-22.15999984741211 -15.987000465393066,-29.16699981689453 -0.44999998807907104,-30.500999450683594 C17.841999053955078,-32.06999969482422 17.159000396728516,-18.292999267578125 34.28499984741211,-16.58099937438965 C54.900001525878906,-14.519000053405762 52.590999603271484,7.125999927520752 49.98400115966797,11.793999671936035z"></path><g opacity="1" transform="matrix(1,0,0,1,0,0)"></g></g><g opacity="1" transform="matrix(1,0,0,1,74.89900207519531,52.06999969482422)"><path stroke-linecap="butt" stroke-linejoin="miter" fill-opacity="0" stroke-miterlimit="10" stroke="rgb(207,53,2)" stroke-opacity="1" stroke-width="8" d=" M49.98400115966797,11.793999671936035 C43.099998474121094,24.121000289916992 33.59400177001953,24.266000747680664 3.4230000972747803,28.41699981689453 C-23.134000778198242,32.07099914550781 -39.98899841308594,25.743000030517578 -44.867000579833984,18.55500030517578 C-47.861000061035156,14.145000457763672 -54.900001525878906,-2.747999906539917 -36.986000061035156,-10.434000015258789 C-9.652000427246094,-22.15999984741211 -15.987000465393066,-29.16699981689453 -0.44999998807907104,-30.500999450683594 C17.841999053955078,-32.06999969482422 17.159000396728516,-18.292999267578125 34.28499984741211,-16.58099937438965 C54.900001525878906,-14.519000053405762 52.590999603271484,7.125999927520752 49.98400115966797,11.793999671936035z"></path></g></g><g style="display: block;" transform="matrix(0.9103661179542542,0,0,0.9103661179542542,255.42604064941406,254.5073699951172)" opacity="1"><g opacity="1" transform="matrix(1,0,0,1,0,0)"><path stroke-linecap="round" stroke-linejoin="round" fill-opacity="0" stroke="rgb(255,180,132)" stroke-opacity="1" stroke-width="8" d=" M-50,-6.25 C-51.5,-16.25 -43.75,-19.5 -27.25,-26.25"></path></g></g><g style="display: block;" transform="matrix(1.072571039199829,0,0,1.072571039199829,75.43038177490234,91.0389633178711)" opacity="1"><g opacity="1" transform="matrix(1,0,0,1,166.45399475097656,146.89999389648438)"><path stroke-linecap="round" stroke-linejoin="round" fill-opacity="0" stroke="rgb(125,9,9)" stroke-opacity="1" stroke-width="10.008" d=" M-19.030208587646484,0.9822730422019958 C-6.807209491729736,0.339273065328598 8.683634757995605,-0.9942363500595093 18.97763442993164,-0.35123634338378906"></path></g></g><g style="display: block;" transform="matrix(1.072571039199829,0,0,1.072571039199829,75.43038177490234,91.0389633178711)" opacity="1"></g><g style="display: block;" transform="matrix(1.083296775817871,0,0,1.083296775817871,73.72126770019531,90.11180114746094)" opacity="1"><g opacity="1" transform="matrix(1,0,0,1,246.39300537109375,74.60299682617188)"><path fill="rgb(255,255,255)" fill-opacity="1" d=" M47.948001861572266,-7.493000030517578 C52.303001403808594,20.378000259399414 34.367000579833984,46.32600021362305 7.88700008392334,50.4640007019043 C-18.5939998626709,54.60200119018555 -43.590999603271484,35.36399841308594 -47.94599914550781,7.493000030517578 C-52.301998138427734,-20.37700080871582 -34.36600112915039,-46.32600021362305 -7.885000228881836,-50.4640007019043 C18.594999313354492,-54.60200119018555 43.59299850463867,-35.36399841308594 47.948001861572266,-7.493000030517578z"></path><path stroke-linecap="butt" stroke-linejoin="miter" fill-opacity="0" stroke-miterlimit="10" stroke="rgb(207,53,2)" stroke-opacity="1" stroke-width="8" d=" M47.948001861572266,-7.493000030517578 C52.303001403808594,20.378000259399414 34.367000579833984,46.32600021362305 7.88700008392334,50.4640007019043 C-18.5939998626709,54.60200119018555 -43.590999603271484,35.36399841308594 -47.94599914550781,7.493000030517578 C-52.301998138427734,-20.37700080871582 -34.36600112915039,-46.32600021362305 -7.885000228881836,-50.4640007019043 C18.594999313354492,-54.60200119018555 43.59299850463867,-35.36399841308594 47.948001861572266,-7.493000030517578z"></path></g></g><g style="display: block;" transform="matrix(1.0840041637420654,0,0,1.0840041637420654,328.2219543457031,149.0308380126953)" opacity="1"><g opacity="1" transform="matrix(1,0,0,1,20.451000213623047,20.45199966430664)"><path fill="rgb(0,0,0)" fill-opacity="1" d=" M18.01099967956543,3.9660000801086426 C15.821000099182129,13.913000106811523 5.980999946594238,20.20199966430664 -3.9660000801086426,18.011999130249023 C-13.913000106811523,15.821000099182129 -20.201000213623047,5.98199987411499 -18.01099967956543,-3.9649999141693115 C-15.819999694824219,-13.913000106811523 -5.980999946594238,-20.201000213623047 3.9660000801086426,-18.010000228881836 C13.913000106811523,-15.819999694824219 20.201000213623047,-5.980999946594238 18.01099967956543,3.9660000801086426z"></path><g opacity="1" transform="matrix(1,0,0,1,0,0)"></g></g></g><g style="display: block;" transform="matrix(0.3526915907859802,0,0,0.3526915907859802,338.1818542480469,156.49319458007812)" opacity="1"><g opacity="1" transform="matrix(1,0,0,1,20.451000213623047,20.45199966430664)"><path fill="rgb(255,255,255)" fill-opacity="1" d=" M18.01099967956543,3.9660000801086426 C15.821000099182129,13.913000106811523 5.980999946594238,20.20199966430664 -3.9660000801086426,18.011999130249023 C-13.913000106811523,15.821000099182129 -20.201000213623047,5.98199987411499 -18.01099967956543,-3.9649999141693115 C-15.819999694824219,-13.913000106811523 -5.980999946594238,-20.201000213623047 3.9660000801086426,-18.010000228881836 C13.913000106811523,-15.819999694824219 20.201000213623047,-5.980999946594238 18.01099967956543,3.9660000801086426z"></path><g opacity="1" transform="matrix(1,0,0,1,0,0)"></g></g></g><g style="display: block;" transform="matrix(1.083296775817871,0,0,1.083296775817871,63.708518981933594,93.78358459472656)" opacity="1"><path fill="rgb(255,255,255)" fill-opacity="1" d=" M130.83,88.99 C125.7,119.48 97.89,140.22 68.7,135.31 C39.51,130.41 20,101.72 25.12,71.23 C30.25,40.74 58.06,20 87.25,24.91 C116.44,29.81 135.95,58.5 130.83,88.99z"></path><g opacity="1" transform="matrix(1,0,0,1,77.9749984741211,80.10800170898438)"><path stroke-linecap="butt" stroke-linejoin="miter" fill-opacity="0" stroke-miterlimit="10" stroke="rgb(207,53,2)" stroke-opacity="1" stroke-width="8" d=" M52.85200119018555,8.880999565124512 C47.729000091552734,39.36899948120117 19.913000106811523,60.108001708984375 -9.276000022888184,55.20399856567383 C-38.46500015258789,50.29899978637695 -57.974998474121094,21.60700035095215 -52.85200119018555,-8.880999565124512 C-47.729000091552734,-39.36899948120117 -19.913000106811523,-60.108001708984375 9.276000022888184,-55.202999114990234 C38.46500015258789,-50.29899978637695 57.974998474121094,-21.60700035095215 52.85200119018555,8.880999565124512z"></path></g></g><g style="display: block;" transform="matrix(1.0840041637420654,0,0,1.0840041637420654,118.04521942138672,160.99093627929688)" opacity="1"><g opacity="1" transform="matrix(1,0,0,1,20.451000213623047,20.45199966430664)"><path fill="rgb(0,0,0)" fill-opacity="1" d=" M18.01099967956543,3.9660000801086426 C15.821000099182129,13.913000106811523 5.980999946594238,20.20199966430664 -3.9660000801086426,18.011999130249023 C-13.913000106811523,15.821000099182129 -20.201000213623047,5.98199987411499 -18.01099967956543,-3.9649999141693115 C-15.819999694824219,-13.913000106811523 -5.980999946594238,-20.201000213623047 3.9660000801086426,-18.010000228881836 C13.913000106811523,-15.819999694824219 20.201000213623047,-5.980999946594238 18.01099967956543,3.9660000801086426z"></path><g opacity="1" transform="matrix(1,0,0,1,0,0)"></g></g></g><g style="display: block;" transform="matrix(0.3526915907859802,0,0,0.3526915907859802,123.47940063476562,170.47496032714844)" opacity="1"><g opacity="1" transform="matrix(1,0,0,1,20.451000213623047,20.45199966430664)"><path fill="rgb(255,255,255)" fill-opacity="1" d=" M18.01099967956543,3.9660000801086426 C15.821000099182129,13.913000106811523 5.980999946594238,20.20199966430664 -3.9660000801086426,18.011999130249023 C-13.913000106811523,15.821000099182129 -20.201000213623047,5.98199987411499 -18.01099967956543,-3.9649999141693115 C-15.819999694824219,-13.913000106811523 -5.980999946594238,-20.201000213623047 3.9660000801086426,-18.010000228881836 C13.913000106811523,-15.819999694824219 20.201000213623047,-5.980999946594238 18.01099967956543,3.9660000801086426z"></path><g opacity="1" transform="matrix(1,0,0,1,0,0)"></g></g></g><g clip-path="url(#__lottie_element_8)" style="display: none;"><g clip-path="url(#__lottie_element_108)" style="display: none;"><g style="display: none;"><g><path></path></g></g><g style="display: none;"><g><path></path></g></g><g style="display: none;"><g><path></path></g></g><g style="display: none;"><g><path></path></g></g><g style="display: none;"><g><path></path></g></g><g style="display: none;"><g><path></path></g></g><g style="display: none;"><g><path></path></g></g><g style="display: none;"><g><path></path></g></g><g style="display: none;"><g><path></path></g></g><g style="display: none;"><g><path></path></g></g><g style="display: none;"><g><path></path></g></g><g style="display: none;"><g><path></path></g></g><g style="display: none;"><g><path></path></g></g><g style="display: none;"><g><path></path></g></g><g style="display: none;"><g><path></path></g></g><g style="display: none;"><g><path></path></g></g><g style="display: none;"><g><path></path></g></g><g style="display: none;"><g><path></path></g></g><g style="display: none;"><g><path></path></g></g><g style="display: none;"><g><path></path></g></g><g style="display: none;"><g><path></path></g></g><g style="display: none;"><g><path></path></g></g></g><g style="display: none;"><g><path stroke-linecap="round" stroke-linejoin="round" fill-opacity="0"></path></g><g><path stroke-linecap="round" stroke-linejoin="round" fill-opacity="0"></path></g><g><path stroke-linecap="round" stroke-linejoin="round" fill-opacity="0"></path></g><g><path stroke-linecap="round" stroke-linejoin="round" fill-opacity="0"></path></g><g><path stroke-linecap="round" stroke-linejoin="round" fill-opacity="0"></path></g><g><path stroke-linecap="round" stroke-linejoin="round" fill-opacity="0"></path></g><g><path stroke-linecap="round" stroke-linejoin="round" fill-opacity="0"></path></g><g><path stroke-linecap="round" stroke-linejoin="round" fill-opacity="0"></path></g><g><path stroke-linecap="round" stroke-linejoin="round" fill-opacity="0"></path></g><g><path stroke-linecap="round" stroke-linejoin="round" fill-opacity="0"></path></g><g><path stroke-linecap="round" stroke-linejoin="round" fill-opacity="0"></path></g><g><path stroke-linecap="round" stroke-linejoin="round" fill-opacity="0"></path></g><g><path stroke-linecap="round" stroke-linejoin="round" fill-opacity="0"></path></g><g><path stroke-linecap="round" stroke-linejoin="round" fill-opacity="0"></path></g><g><path stroke-linecap="round" stroke-linejoin="round" fill-opacity="0"></path></g><g><path stroke-linecap="round" stroke-linejoin="round" fill-opacity="0"></path></g><g><path stroke-linecap="round" stroke-linejoin="round" fill-opacity="0"></path></g><g><path stroke-linecap="round" stroke-linejoin="round" fill-opacity="0"></path></g><g><path stroke-linecap="round" stroke-linejoin="round" fill-opacity="0"></path></g><g><path stroke-linecap="round" stroke-linejoin="round" fill-opacity="0"></path></g><g><path stroke-linecap="round" stroke-linejoin="round" fill-opacity="0"></path></g><g><path stroke-linecap="round" stroke-linejoin="round" fill-opacity="0"></path></g></g><g style="display: none;"><g><path stroke-linecap="round" stroke-linejoin="round" fill-opacity="0"></path></g><g><path stroke-linecap="round" stroke-linejoin="round" fill-opacity="0"></path></g><g><path stroke-linecap="round" stroke-linejoin="round" fill-opacity="0"></path></g><g><path stroke-linecap="round" stroke-linejoin="round" fill-opacity="0"></path></g><g><path stroke-linecap="round" stroke-linejoin="round" fill-opacity="0"></path></g><g><path stroke-linecap="round" stroke-linejoin="round" fill-opacity="0"></path></g><g><path stroke-linecap="round" stroke-linejoin="round" fill-opacity="0"></path></g><g><path stroke-linecap="round" stroke-linejoin="round" fill-opacity="0"></path></g><g><path stroke-linecap="round" stroke-linejoin="round" fill-opacity="0"></path></g><g><path stroke-linecap="round" stroke-linejoin="round" fill-opacity="0"></path></g><g><path stroke-linecap="round" stroke-linejoin="round" fill-opacity="0"></path></g><g><path stroke-linecap="round" stroke-linejoin="round" fill-opacity="0"></path></g><g><path stroke-linecap="round" stroke-linejoin="round" fill-opacity="0"></path></g><g><path stroke-linecap="round" stroke-linejoin="round" fill-opacity="0"></path></g><g><path stroke-linecap="round" stroke-linejoin="round" fill-opacity="0"></path></g><g><path stroke-linecap="round" stroke-linejoin="round" fill-opacity="0"></path></g><g><path stroke-linecap="round" stroke-linejoin="round" fill-opacity="0"></path></g><g><path stroke-linecap="round" stroke-linejoin="round" fill-opacity="0"></path></g><g><path stroke-linecap="round" stroke-linejoin="round" fill-opacity="0"></path></g><g><path stroke-linecap="round" stroke-linejoin="round" fill-opacity="0"></path></g><g><path stroke-linecap="round" stroke-linejoin="round" fill-opacity="0"></path></g><g><path stroke-linecap="round" stroke-linejoin="round" fill-opacity="0"></path></g></g><g style="display: none;"><g><path stroke-linecap="round" stroke-linejoin="round" fill-opacity="0"></path></g><g><path stroke-linecap="round" stroke-linejoin="round" fill-opacity="0"></path></g></g><g style="display: none;"><g><path stroke-linecap="round" stroke-linejoin="round" fill-opacity="0"></path></g><g><path stroke-linecap="round" stroke-linejoin="round" fill-opacity="0"></path></g><g><path stroke-linecap="round" stroke-linejoin="round" fill-opacity="0"></path></g><g><path stroke-linecap="round" stroke-linejoin="round" fill-opacity="0"></path></g><g><path stroke-linecap="round" stroke-linejoin="round" fill-opacity="0"></path></g></g><g style="display: none;"><g><path stroke-linecap="round" stroke-linejoin="round" fill-opacity="0"></path></g></g><g style="display: none;"><g><path stroke-linecap="round" stroke-linejoin="round" fill-opacity="0"></path></g><g><path stroke-linecap="round" stroke-linejoin="round" fill-opacity="0"></path></g><g><path stroke-linecap="round" stroke-linejoin="round" fill-opacity="0"></path></g><g><path stroke-linecap="round" stroke-linejoin="round" fill-opacity="0"></path></g><g><path stroke-linecap="round" stroke-linejoin="round" fill-opacity="0"></path></g><g><path stroke-linecap="round" stroke-linejoin="round" fill-opacity="0"></path></g><g><path stroke-linecap="round" stroke-linejoin="round" fill-opacity="0"></path></g><g><path stroke-linecap="round" stroke-linejoin="round" fill-opacity="0"></path></g></g><g style="display: none;"><g><path stroke-linecap="round" stroke-linejoin="round" fill-opacity="0"></path></g><g><path stroke-linecap="round" stroke-linejoin="round" fill-opacity="0"></path></g><g><path stroke-linecap="round" stroke-linejoin="round" fill-opacity="0"></path></g><g><path stroke-linecap="round" stroke-linejoin="round" fill-opacity="0"></path></g><g><path stroke-linecap="round" stroke-linejoin="round" fill-opacity="0"></path></g><g><path stroke-linecap="round" stroke-linejoin="round" fill-opacity="0"></path></g></g><g style="display: none;"><g><path stroke-linecap="butt" stroke-linejoin="miter" fill-opacity="0" stroke-miterlimit="4"></path></g></g><g style="display: none;"><g><path stroke-linecap="butt" stroke-linejoin="miter" fill-opacity="0" stroke-miterlimit="4"></path></g></g><g style="display: none;"><g><path></path><path stroke-linecap="butt" stroke-linejoin="miter" fill-opacity="0" stroke-miterlimit="4"></path><g></g></g></g><g style="display: none;"><g><path></path><path stroke-linecap="butt" stroke-linejoin="miter" fill-opacity="0" stroke-miterlimit="4"></path><g></g></g></g><g style="display: none;"><g><path></path><path stroke-linecap="butt" stroke-linejoin="miter" fill-opacity="0" stroke-miterlimit="4"></path><g></g></g></g><g style="display: none;"><g><path stroke-linecap="butt" stroke-linejoin="miter" fill-opacity="0" stroke-miterlimit="4"></path></g></g><g style="display: none;"><g><path stroke-linecap="round" stroke-linejoin="round" fill-opacity="0"></path></g></g><g style="display: none;"><g><path stroke-linecap="round" stroke-linejoin="round" fill-opacity="0"></path></g></g><g style="display: none;"><g><path stroke-linecap="round" stroke-linejoin="round" fill-opacity="0"></path></g></g><g style="display: none;"><g><path stroke-linecap="round" stroke-linejoin="round" fill-opacity="0"></path></g></g><g style="display: none;"><g><path stroke-linecap="round" stroke-linejoin="round" fill-opacity="0"></path></g></g><g style="display: none;"><g><path stroke-linecap="round" stroke-linejoin="round" fill-opacity="0"></path></g></g><g style="display: none;"><g><path stroke-linecap="round" stroke-linejoin="round" fill-opacity="0"></path></g></g><g style="display: none;"><g><path stroke-linecap="round" stroke-linejoin="round" fill-opacity="0"></path></g></g><g style="display: none;"><g><path stroke-linecap="round" stroke-linejoin="round" fill-opacity="0"></path></g></g><g clip-path="url(#__lottie_element_28)" style="display: none;"><g style="display: none;"><g><path></path><g></g></g><g><path stroke-linecap="round" stroke-linejoin="round" fill-opacity="0"></path></g><g><path stroke-linecap="round" stroke-linejoin="round" fill-opacity="0"></path></g><g><path stroke-linecap="round" stroke-linejoin="round" fill-opacity="0"></path></g><g><path stroke-linecap="round" stroke-linejoin="round" fill-opacity="0"></path></g><g><path stroke-linecap="round" stroke-linejoin="round" fill-opacity="0"></path></g><g><path stroke-linecap="round" stroke-linejoin="round" fill-opacity="0"></path></g><g><path stroke-linecap="round" stroke-linejoin="round" fill-opacity="0"></path></g></g><g clip-path="url(#__lottie_element_35)" style="display: none;"><g style="display: none;"><g><path></path><path stroke-linecap="round" stroke-linejoin="round" fill-opacity="0"></path></g><g><path></path><path stroke-linecap="round" stroke-linejoin="round" fill-opacity="0"></path></g><g><path></path><path stroke-linecap="round" stroke-linejoin="round" fill-opacity="0"></path></g><g><path></path><path stroke-linecap="round" stroke-linejoin="round" fill-opacity="0"></path></g></g></g></g><g clip-path="url(#__lottie_element_13)" style="display: none;"><g style="display: none;"><g><path></path><g></g></g><g><path stroke-linecap="round" stroke-linejoin="round" fill-opacity="0"></path></g><g><path stroke-linecap="round" stroke-linejoin="round" fill-opacity="0"></path></g><g><path stroke-linecap="round" stroke-linejoin="round" fill-opacity="0"></path></g><g><path stroke-linecap="round" stroke-linejoin="round" fill-opacity="0"></path></g><g><path stroke-linecap="round" stroke-linejoin="round" fill-opacity="0"></path></g><g><path stroke-linecap="round" stroke-linejoin="round" fill-opacity="0"></path></g><g><path stroke-linecap="round" stroke-linejoin="round" fill-opacity="0"></path></g></g><g clip-path="url(#__lottie_element_20)" style="display: none;"><g style="display: none;"><g><path></path><path stroke-linecap="round" stroke-linejoin="round" fill-opacity="0"></path></g><g><path></path><path stroke-linecap="round" stroke-linejoin="round" fill-opacity="0"></path></g><g><path></path><path stroke-linecap="round" stroke-linejoin="round" fill-opacity="0"></path></g><g><path></path><path stroke-linecap="round" stroke-linejoin="round" fill-opacity="0"></path></g></g></g></g></g></g></g></svg>