<svg xmlns="http://www.w3.org/2000/svg" xmlns:xlink="http://www.w3.org/1999/xlink" viewBox="0 0 512 512" width="512" height="512" style="width: 100%; height: 100%; transform: translate3d(0,0,0); content-visibility: visible;" preserveAspectRatio="xMidYMid meet"><defs><clipPath id="__lottie_element_2"><rect width="512" height="512" x="0" y="0"></rect></clipPath><clipPath id="__lottie_element_4"><path d="M0,0 L512,0 L512,512 L0,512z"></path></clipPath><linearGradient id="__lottie_element_80" spreadMethod="pad" gradientUnits="userSpaceOnUse" x1="88.77999877929688" y1="-93.83899688720703" x2="109.73400115966797" y2="126.28600311279297"><stop offset="0%" stop-color="rgb(41,171,226)"></stop><stop offset="18%" stop-color="rgb(148,192,133)"></stop><stop offset="60%" stop-color="rgb(255,213,39)"></stop></linearGradient><linearGradient id="__lottie_element_84" spreadMethod="pad" gradientUnits="userSpaceOnUse" x1="88.77999877929688" y1="-93.83899688720703" x2="109.73400115966797" y2="126.28600311279297"><stop offset="0%" stop-color="rgb(22,109,159)"></stop><stop offset="18%" stop-color="rgb(136,126,91)"></stop><stop offset="60%" stop-color="rgb(250,144,22)"></stop></linearGradient><clipPath id="__lottie_element_92"><path d="M0,0 L512,0 L512,512 L0,512z"></path></clipPath><linearGradient id="__lottie_element_168" spreadMethod="pad" gradientUnits="userSpaceOnUse" x1="88.77999877929688" y1="-93.83899688720703" x2="109.73400115966797" y2="126.28600311279297"><stop offset="0%" stop-color="rgb(41,171,226)"></stop><stop offset="18%" stop-color="rgb(148,192,133)"></stop><stop offset="60%" stop-color="rgb(255,213,39)"></stop></linearGradient><linearGradient id="__lottie_element_172" spreadMethod="pad" gradientUnits="userSpaceOnUse" x1="88.77999877929688" y1="-93.83899688720703" x2="109.73400115966797" y2="126.28600311279297"><stop offset="0%" stop-color="rgb(22,109,159)"></stop><stop offset="18%" stop-color="rgb(136,126,91)"></stop><stop offset="60%" stop-color="rgb(250,144,22)"></stop></linearGradient></defs><g clip-path="url(#__lottie_element_2)"><g clip-path="url(#__lottie_element_92)" style="display: none;" transform="matrix(1,0,0,1,0,0)" opacity="1"><g style="display: block;" transform="matrix(1,0,0,1,45.64100646972656,48.957977294921875)" opacity="1"><g opacity="1" transform="matrix(1,0,0,1,205.04299926757812,332.3080139160156)"><path fill="rgb(255,213,39)" fill-opacity="1" d=" M-146.08099365234375,62.494998931884766 C-158.18299865722656,25.72599983215332 -158.13299560546875,-4.458000183105469 -151.78199768066406,-28.558000564575195 C-144.1739959716797,-57.426998138427734 -127.52100372314453,-77.56400299072266 -111.88200378417969,-89.8280029296875 C-81.33799743652344,-113.77899932861328 -54.30699920654297,-115.01399993896484 -1.0609999895095825,-115.01399993896484 C60.130001068115234,-115.01399993896484 104.30699920654297,-105.31600189208984 133.99400329589844,-85.36699676513672 C164.55099487304688,-64.83300018310547 176.83599853515625,19.542999267578125 156.4459991455078,66.26499938964844 C136.33099365234375,112.35900115966797 -130.1649932861328,110.85299682617188 -146.08099365234375,62.494998931884766z"></path></g></g><g style="display: block;" transform="matrix(1,0,0,1,45.64100646972656,48.957977294921875)" opacity="1"><g opacity="1" transform="matrix(1,0,0,1,205.04299926757812,332.3080139160156)"><path fill="rgb(255,213,39)" fill-opacity="1" d=" M-146.08099365234375,62.494998931884766 C-158.18299865722656,25.72599983215332 -158.13299560546875,-4.458000183105469 -151.78199768066406,-28.558000564575195 C-144.1739959716797,-57.426998138427734 -127.52100372314453,-77.56400299072266 -111.88200378417969,-89.8280029296875 C-81.33799743652344,-113.77899932861328 -54.30699920654297,-115.01399993896484 -1.0609999895095825,-115.01399993896484 C60.130001068115234,-115.01399993896484 104.30699920654297,-105.31600189208984 133.99400329589844,-85.36699676513672 C164.55099487304688,-64.83300018310547 176.83599853515625,19.542999267578125 156.4459991455078,66.26499938964844 C156.0070037841797,67.2699966430664 155.4510040283203,68.25299835205078 154.78399658203125,69.21299743652344"></path><path stroke-linecap="round" stroke-linejoin="round" fill-opacity="0" stroke="rgb(249,143,22)" stroke-opacity="1" stroke-width="10" d=" M-146.08099365234375,62.494998931884766 C-158.18299865722656,25.72599983215332 -158.13299560546875,-4.458000183105469 -151.78199768066406,-28.558000564575195 C-144.1739959716797,-57.426998138427734 -127.52100372314453,-77.56400299072266 -111.88200378417969,-89.8280029296875 C-81.33799743652344,-113.77899932861328 -54.30699920654297,-115.01399993896484 -1.0609999895095825,-115.01399993896484 C60.130001068115234,-115.01399993896484 104.30699920654297,-105.31600189208984 133.99400329589844,-85.36699676513672 C164.55099487304688,-64.83300018310547 176.83599853515625,19.542999267578125 156.4459991455078,66.26499938964844 C156.0070037841797,67.2699966430664 155.4510040283203,68.25299835205078 154.78399658203125,69.21299743652344"></path></g></g><g style="display: block;" transform="matrix(1.032688856124878,0,0,1.032688856124878,38.77055358886719,35.17034912109375)" opacity="1"><g opacity="1" transform="matrix(1,0,0,1,199.36000061035156,153.8489990234375)"><path fill="rgb(255,212,39)" fill-opacity="1" d=" M20.312000274658203,173.8489990234375 C-168.2169952392578,179.73300170898438 -172.0850067138672,69.74400329589844 -172.0850067138672,35.21699905395508 C-172.0850067138672,-47.459999084472656 -95.04000091552734,-128.84800720214844 -0.0010000000474974513,-128.84800720214844 C95.03900146484375,-128.84800720214844 172.0850067138672,-47.459999084472656 172.0850067138672,35.21699905395508 C172.0850067138672,70.0979995727539 169.2830047607422,156.3990020751953 22.878999710083008,172.96400451660156"></path><g opacity="1" transform="matrix(1,0,0,1,0,0)"></g></g></g><g style="display: block;" transform="matrix(1.0636694431304932,0,0,1.0636694431304932,32.55476379394531,29.51202392578125)" opacity="1"><g opacity="1" transform="matrix(1,0,0,1,199.36000061035156,153.8489990234375)"><path fill="rgb(250,144,22)" fill-opacity="1" d=" M20.312000274658203,173.8489990234375 C-168.2169952392578,179.73300170898438 -172.0850067138672,69.74400329589844 -172.0850067138672,35.21699905395508 C-172.0850067138672,-47.459999084472656 -95.04000091552734,-128.84800720214844 -0.0010000000474974513,-128.84800720214844 C95.03900146484375,-128.84800720214844 172.0850067138672,-47.459999084472656 172.0850067138672,35.21699905395508 C172.0850067138672,70.0979995727539 169.2830047607422,156.3990020751953 22.878999710083008,172.96400451660156"></path><g opacity="1" transform="matrix(1,0,0,1,0,0)"></g></g></g><g style="display: block;" transform="matrix(1.0636694431304932,0,0,1.0636694431304932,32.55476379394531,29.51202392578125)" opacity="0.0005851553055347835"><g opacity="1" transform="matrix(1,0,0,1,199.36000061035156,153.8489990234375)"><path fill="url(#__lottie_element_172)" fill-opacity="1" d=" M20.312000274658203,173.8489990234375 C-168.2169952392578,179.73300170898438 -172.0850067138672,69.74400329589844 -172.0850067138672,35.21699905395508 C-172.0850067138672,-47.459999084472656 -95.04000091552734,-128.84800720214844 -0.0010000000474974513,-128.84800720214844 C95.03900146484375,-128.84800720214844 172.0850067138672,-47.459999084472656 172.0850067138672,35.21699905395508 C172.0850067138672,70.0979995727539 169.2830047607422,156.3990020751953 22.878999710083008,172.96400451660156"></path><g opacity="1" transform="matrix(1,0,0,1,0,0)"></g></g></g><g style="display: block;" transform="matrix(1.0017082691192627,0,0,1.0017082691192627,44.922332763671875,40.831756591796875)" opacity="1"><g opacity="1" transform="matrix(1,0,0,1,199.36000061035156,153.8489990234375)"><path fill="rgb(255,213,39)" fill-opacity="1" d=" M20.68199920654297,197.98899841308594 C-36.39799880981445,199.77000427246094 -88.32499694824219,182.8209991455078 -112.40499877929688,160.4010009765625 C-107.5,162.39300537109375 -103.96700286865234,153.7449951171875 -109.64299774169922,150.29600524902344 C-170.29200744628906,117.21499633789062 -172.0850067138672,58.724998474121094 -172.0850067138672,35.21699905395508 C-172.0850067138672,-47.459999084472656 -95.04000091552734,-128.84800720214844 -0.0010000000474974513,-128.84800720214844 C95.03900146484375,-128.84800720214844 172.0850067138672,-47.459999084472656 172.0850067138672,35.21699905395508 C172.0850067138672,53.89099884033203 171.28199768066406,87.302001953125 148.072998046875,116.86000061035156 C142.8939971923828,123.45600128173828 134.71800231933594,131.59500122070312 128.94700622558594,135.86599731445312 C124.4990005493164,139.1580047607422 128.77999877929688,149.15199279785156 134.18299865722656,145.07899475097656 C112.0780029296875,161.625 72.08200073242188,191.57899475097656 23.25,197.10400390625"></path><g opacity="1" transform="matrix(1,0,0,1,0,0)"></g></g></g><g style="display: block;" transform="matrix(1.0017082691192627,0,0,1.0017082691192627,44.922332763671875,40.831756591796875)" opacity="0.0005851553055347835"><g opacity="1" transform="matrix(1,0,0,1,199.36000061035156,153.8489990234375)"><path fill="url(#__lottie_element_168)" fill-opacity="1" d=" M20.312000274658203,173.8489990234375 C-168.2169952392578,179.73300170898438 -172.0850067138672,69.74400329589844 -172.0850067138672,35.21699905395508 C-172.0850067138672,-47.459999084472656 -95.04000091552734,-128.84800720214844 -0.0010000000474974513,-128.84800720214844 C95.03900146484375,-128.84800720214844 172.0850067138672,-47.459999084472656 172.0850067138672,35.21699905395508 C172.0850067138672,70.0979995727539 169.2830047607422,156.3990020751953 22.878999710083008,172.96400451660156"></path><g opacity="1" transform="matrix(1,0,0,1,0,0)"></g></g></g><g style="display: block;" transform="matrix(1.0659396648406982,-0.026199927553534508,0.026199927553534508,1.0659396648406982,59.68098449707031,55.42205810546875)" opacity="1"><g opacity="1" transform="matrix(1,0,0,1,298.2439880371094,153.64199829101562)"><path fill-rule="evenodd" fill="rgb(252,238,33)" fill-opacity="1" d=" M15.432000160217285,13.628999710083008 C14.258999824523926,52.57400131225586 -2.7720000743865967,68.71900177001953 -8.498000144958496,76.03500366210938 C-12.720999717712402,81.43099975585938 -6.9730000495910645,87.25700378417969 -1.284000039100647,82.46700286865234 C4.40500020980835,77.677001953125 24.347999572753906,50.22800064086914 24.839000701904297,13.347999572753906 C23.628999710083008,3.9110000133514404 15.272000312805176,7.980999946594238 15.432000160217285,13.628999710083008z"></path></g></g><g style="display: block;" transform="matrix(1.032688856124878,0,0,1.032688856124878,69.724365234375,56.91363525390625)" opacity="1"><g opacity="1" transform="matrix(1,0,0,1,96.85900115966797,71.4489974975586)"><path stroke-linecap="round" stroke-linejoin="round" fill-opacity="0" stroke="rgb(255,255,255)" stroke-opacity="1" stroke-width="10" d=" M-71.85900115966797,46.44900131225586 C-59.34700012207031,17.836999893188477 -36.56399917602539,-7.640999794006348 -7.591000080108643,-24.643999099731445 C13.246000289916992,-36.87200164794922 37.284000396728516,-44.71799850463867 63.00600051879883,-46.19499969482422"></path></g></g><g style="display: block;" transform="matrix(1.0775854587554932,0.05949176102876663,-0.07386451959609985,1.3379218578338623,130.9197235107422,172.53326416015625)" opacity="1"><g opacity="1" transform="matrix(1,0,0,1,20.451000213623047,20.45199966430664)"><path fill="rgb(0,0,0)" fill-opacity="1" d=" M18.01099967956543,3.9660000801086426 C15.821000099182129,13.913000106811523 5.980999946594238,20.20199966430664 -3.9660000801086426,18.011999130249023 C-13.913000106811523,15.821000099182129 -20.201000213623047,5.98199987411499 -18.01099967956543,-3.9649999141693115 C-15.819999694824219,-13.913000106811523 -5.980999946594238,-20.201000213623047 3.9660000801086426,-18.010000228881836 C13.913000106811523,-15.819999694824219 20.201000213623047,-5.980999946594238 18.01099967956543,3.9660000801086426z"></path><g opacity="1" transform="matrix(1,0,0,1,0,0)"></g></g></g><g style="display: block;" transform="matrix(0.00039693491999059916,0.000027215672162128612,-0.00003475638368399814,0.0005441715475171804,149.0106201171875,199.2415313720703)" opacity="1"><g opacity="1" transform="matrix(1,0,0,1,20.451000213623047,20.45199966430664)"><path fill="rgb(255,255,255)" fill-opacity="1" d=" M18.01099967956543,3.9660000801086426 C16.159000396728516,12.37600040435791 8.83899974822998,18.17099952697754 0.609000027179718,18.437000274658203 C-0.8949999809265137,18.486000061035156 -2.428999900817871,18.350000381469727 -3.9660000801086426,18.011999130249023 C-13.913000106811523,15.821000099182129 -20.201000213623047,5.98199987411499 -18.01099967956543,-3.9649999141693115 C-15.819999694824219,-13.913000106811523 -5.980999946594238,-20.201000213623047 3.9660000801086426,-18.010000228881836 C13.913000106811523,-15.819999694824219 20.201000213623047,-5.980999946594238 18.01099967956543,3.9660000801086426z"></path><g opacity="1" transform="matrix(1,0,0,1,0,0)"></g></g></g><g style="display: block;" transform="matrix(0.3504636883735657,0.01934853568673134,-0.024022996425628662,0.4351330101490021,135.67564392089844,184.53738403320312)" opacity="1"><g opacity="1" transform="matrix(1,0,0,1,20.451000213623047,20.45199966430664)"><path fill="rgb(255,255,255)" fill-opacity="1" d=" M18.01099967956543,3.9660000801086426 C15.821000099182129,13.913000106811523 5.980999946594238,20.20199966430664 -3.9660000801086426,18.011999130249023 C-13.913000106811523,15.821000099182129 -20.201000213623047,5.98199987411499 -18.01099967956543,-3.9649999141693115 C-15.819999694824219,-13.913000106811523 -5.980999946594238,-20.201000213623047 3.9660000801086426,-18.010000228881836 C13.913000106811523,-15.819999694824219 20.201000213623047,-5.980999946594238 18.01099967956543,3.9660000801086426z"></path><g opacity="1" transform="matrix(1,0,0,1,0,0)"></g></g></g><g style="display: block;" transform="matrix(1.075274109840393,-0.09227803349494934,0.1145717054605484,1.335052251815796,302.5704345703125,163.4671173095703)" opacity="1"><g opacity="1" transform="matrix(1,0,0,1,20.451000213623047,20.45199966430664)"><path fill="rgb(0,0,0)" fill-opacity="1" d=" M18.01099967956543,3.9660000801086426 C15.821000099182129,13.913000106811523 5.980999946594238,20.20199966430664 -3.9660000801086426,18.011999130249023 C-13.913000106811523,15.821000099182129 -20.201000213623047,5.98199987411499 -18.01099967956543,-3.9649999141693115 C-15.819999694824219,-13.913000106811523 -5.980999946594238,-20.201000213623047 3.9660000801086426,-18.010000228881836 C13.913000106811523,-15.819999694824219 20.201000213623047,-5.980999946594238 18.01099967956543,3.9660000801086426z"></path><g opacity="1" transform="matrix(1,0,0,1,0,0)"></g></g></g><g style="display: block;" transform="matrix(0.0003968273231294006,-0.00002874205711123068,0.000040804567106533796,0.0005290392437018454,329.81024169921875,187.0088348388672)" opacity="1"><g opacity="1" transform="matrix(1,0,0,1,20.451000213623047,20.45199966430664)"><path fill="rgb(255,255,255)" fill-opacity="1" d=" M18.01099967956543,3.9660000801086426 C15.821000099182129,13.913000106811523 5.980999946594238,20.20199966430664 -3.9660000801086426,18.011999130249023 C-13.913000106811523,15.821000099182129 -20.201000213623047,5.98199987411499 -18.01099967956543,-3.9649999141693115 C-15.819999694824219,-13.913000106811523 -5.980999946594238,-20.201000213623047 3.9660000801086426,-18.010000228881836 C13.913000106811523,-15.819999694824219 20.201000213623047,-5.980999946594238 18.01099967956543,3.9660000801086426z"></path><g opacity="1" transform="matrix(1,0,0,1,0,0)"></g></g></g><g style="display: block;" transform="matrix(0.34971195459365845,-0.030011633411049843,0.037262212485075,0.4341996908187866,308.96343994140625,174.68527221679688)" opacity="1"><g opacity="1" transform="matrix(1,0,0,1,20.451000213623047,20.45199966430664)"><path fill="rgb(255,255,255)" fill-opacity="1" d=" M18.01099967956543,3.9660000801086426 C15.821000099182129,13.913000106811523 5.980999946594238,20.20199966430664 -3.9660000801086426,18.011999130249023 C-13.913000106811523,15.821000099182129 -20.201000213623047,5.98199987411499 -18.01099967956543,-3.9649999141693115 C-15.819999694824219,-13.913000106811523 -5.980999946594238,-20.201000213623047 3.9660000801086426,-18.010000228881836 C13.913000106811523,-15.819999694824219 20.201000213623047,-5.980999946594238 18.01099967956543,3.9660000801086426z"></path><g opacity="1" transform="matrix(1,0,0,1,0,0)"></g></g></g><g style="display: block;" transform="matrix(1.0679137706756592,0,0,1.0679137706756592,166.11782836914062,200.14637756347656)" opacity="1"><g opacity="1" transform="matrix(1,0,0,1,74.89900207519531,52.06999969482422)"><path fill="rgb(255,93,31)" fill-opacity="1" d=" M49.98612594604492,11.798788070678711 C43.10841369628906,24.14452362060547 33.613346099853516,24.319522857666016 3.4312448501586914,28.47298812866211 C-23.133642196655273,32.12883758544922 -39.9844970703125,25.77594757080078 -44.8676643371582,18.56218147277832 C-47.8607177734375,14.151748657226562 -54.900001525878906,-2.747999906539917 -36.986000061035156,-10.434000015258789 C-9.652000427246094,-22.15999984741211 -15.987000465393066,-29.16699981689453 -0.44999998807907104,-30.500999450683594 C17.841999053955078,-32.06999969482422 17.15810775756836,-18.29346466064453 34.2840690612793,-16.581132888793945 C54.8999137878418,-14.518614768981934 52.591331481933594,7.130402088165283 49.98612594604492,11.798788070678711z"></path><path stroke-linecap="butt" stroke-linejoin="miter" fill-opacity="0" stroke-miterlimit="10" stroke="rgb(207,53,2)" stroke-opacity="1" stroke-width="8" d=" M49.98612594604492,11.798788070678711 C43.10841369628906,24.14452362060547 33.613346099853516,24.319522857666016 3.4312448501586914,28.47298812866211 C-23.133642196655273,32.12883758544922 -39.9844970703125,25.77594757080078 -44.8676643371582,18.56218147277832 C-47.8607177734375,14.151748657226562 -54.900001525878906,-2.747999906539917 -36.986000061035156,-10.434000015258789 C-9.652000427246094,-22.15999984741211 -15.987000465393066,-29.16699981689453 -0.44999998807907104,-30.500999450683594 C17.841999053955078,-32.06999969482422 17.15810775756836,-18.29346466064453 34.2840690612793,-16.581132888793945 C54.8999137878418,-14.518614768981934 52.591331481933594,7.130402088165283 49.98612594604492,11.798788070678711z"></path></g></g><g style="display: block;" transform="matrix(0.6000148057937622,-0.018363554030656815,0.018363554030656815,0.6000148057937622,209.04226684570312,242.52365112304688)" opacity="1"><g opacity="1" transform="matrix(1,0,0,1,58.465999603271484,35.75299835205078)"><path fill="rgb(124,8,8)" fill-opacity="1" d=" M82.82380676269531,-10.650650978088379 C82.6725845336914,-15.47540283203125 35.092811584472656,-16.00701904296875 5.3121771812438965,-13.576498031616211 C-24.60327911376953,-11.134456634521484 -72.1644058227539,-6.8060784339904785 -71.74102020263672,-1.8860052824020386 C-70.97238159179688,8.892502784729004 -36.0837516784668,11.864873886108398 6.216999053955078,8.081933975219727 C57.3439826965332,3.5097219944000244 82.73442077636719,2.0041303634643555 82.82380676269531,-10.650650978088379z"></path><g opacity="1" transform="matrix(1,0,0,1,0,0)"></g></g></g><g style="display: block;" transform="matrix(0.030445747077465057,0.003430104348808527,-0.003430104348808527,0.030445747077465057,250.19764709472656,257.14410400390625)" opacity="1"><g opacity="1" transform="matrix(1,0,0,1,0,0)"><path fill="rgb(89,0,0)" fill-opacity="1" d=" M41.85200119018555,42.79100036621094 C38.60499954223633,24.968000411987305 15.875,23.023000717163086 14.909000396728516,38.14899826049805 C11.770999908447266,39.981998443603516 7.47599983215332,40.17499923706055 5.416999816894531,39.106998443603516 C0.035999998450279236,31.305999755859375 -16.68400001525879,32.358001708984375 -17.58799934387207,49.02199935913086 C-18.121999740600586,58.86899948120117 -12.836999893188477,76.8219985961914 14.121000289916992,70.83100128173828 C41.4109992980957,64.76599884033203 43.900001525878906,54.029998779296875 41.85200119018555,42.79100036621094z"></path></g></g><g style="display: block;" transform="matrix(0.030094340443611145,0.0014392173616215587,-0.0014392173616215587,0.030094340443611145,248.8370361328125,257.8427429199219)" opacity="1"><g opacity="1" transform="matrix(1,0,0,1,58.465999603271484,35.75299835205078)"><path fill="rgb(125,9,9)" fill-opacity="1" d=" M39.94599914550781,86.55799865722656 C52.89400100708008,16.41900062561035 32.354000091552734,-10.072999954223633 16.5310001373291,-6.9679999351501465 C-11.645000457763672,-1.4390000104904175 7.357999801635742,31.71500015258789 -6.952000141143799,73.33799743652344 C-19.55500030517578,109.99500274658203 -29.45400047302246,135.6320037841797 -12.57699966430664,138.8209991455078 C4.729000091552734,142.09100341796875 32.82899856567383,125.11100006103516 39.94599914550781,86.55799865722656z"></path><g opacity="1" transform="matrix(1,0,0,1,0,0)"></g></g></g><g style="display: block;" transform="matrix(0.6000148057937622,-0.018363554030656815,0.018363554030656815,0.6000148057937622,209.04226684570312,242.52365112304688)" opacity="1"><g opacity="1" transform="matrix(1,0,0,1,58.465999603271484,35.75299835205078)"><path fill="rgb(255,93,31)" fill-opacity="1" d=" M82.81902313232422,-10.690266609191895 C82.76480865478516,-12.579647064208984 75.2951431274414,-13.793694496154785 64.44525146484375,-14.44149398803711 C47.84322738647461,-15.433547973632812 23.323179244995117,-15.046353340148926 5.3121771812438965,-13.576498031616211 C-14.052777290344238,-11.99533748626709 -40.81306457519531,-9.624456405639648 -57.16429901123047,-6.8146867752075195 C-66.07213592529297,-5.2830891609191895 -71.89112854003906,-3.6442620754241943 -71.74179077148438,-1.9266712665557861 C-73.4620361328125,-25.757158279418945 -39.22330856323242,-22.096027374267578 3.077441930770874,-25.87896728515625 C54.20442581176758,-30.45117950439453 80.50130462646484,-30.639331817626953 82.81902313232422,-10.690266609191895z"></path><g opacity="1" transform="matrix(1,0,0,1,0,0)"></g></g></g><g style="display: block;" transform="matrix(0.9708297848701477,0,0,0.9708297848701477,251.6619873046875,272.98876953125)" opacity="1"><g opacity="1" transform="matrix(1,0,0,1,0,0)"><path stroke-linecap="round" stroke-linejoin="round" fill-opacity="0" stroke="rgb(255,180,132)" stroke-opacity="1" stroke-width="8" d=" M-45.877342224121094,-18.61914825439453 C-45.29573059082031,-19.260408401489258 -32.37551498413086,-22.558916091918945 -27.248828887939453,-26.251609802246094"></path></g></g><g style="display: block;" transform="matrix(1.0679137706756592,0,0,1.0679137706756592,71.89684295654297,108.7425537109375)" opacity="1"></g><g style="display: block;" transform="matrix(-1.0857954025268555,0.06262558698654175,-0.06262558698654175,-1.0857954025268555,281.01055908203125,411.0182800292969)" opacity="1"><g opacity="1" transform="matrix(1,0,0,1,56.76100158691406,75.48799896240234)"><path fill="rgb(255,213,39)" fill-opacity="1" d=" M80.32652282714844,-19.466665267944336 C28.11688804626465,8.873690605163574 36.17161178588867,51.68292999267578 21.79555892944336,53.51850891113281 C-4.068361282348633,56.82890701293945 -8.560271263122559,-32.35899353027344 19.144489288330078,-63.54473114013672"></path><path stroke-linecap="round" stroke-linejoin="round" fill-opacity="0" stroke="rgb(249,143,22)" stroke-opacity="1" stroke-width="10" d=" M80.32652282714844,-19.466665267944336 C28.11688804626465,8.873690605163574 36.17161178588867,51.68292999267578 21.79555892944336,53.51850891113281 C-4.068361282348633,56.82890701293945 -8.560271263122559,-32.35899353027344 19.144489288330078,-63.54473114013672"></path></g></g><g style="display: block;" transform="matrix(-1.0857954025268555,0.06262558698654175,-0.06262558698654175,-1.0857954025268555,258.11224365234375,396.3791809082031)" opacity="1"><g opacity="1" transform="matrix(1,0,0,1,40.4379997253418,59.85499954223633)"><path stroke-linecap="round" stroke-linejoin="round" fill-opacity="0" stroke="rgb(252,238,33)" stroke-opacity="1" stroke-width="10" d=" M10.170999526977539,27.55699920654297 C6.083000183105469,15.11299991607666 6.900000095367432,-14.711000442504883 18.636999130249023,-38.90599822998047"></path></g></g><g style="display: block;" transform="matrix(-1.0857954025268555,0.06262558698654175,-0.06262558698654175,-1.0857954025268555,243.28469848632812,396.6875)" opacity="1"><g opacity="1" transform="matrix(1,0,0,1,40.4379997253418,59.85499954223633)"><path stroke-linecap="round" stroke-linejoin="round" fill-opacity="0" stroke="rgb(255,255,255)" stroke-opacity="1" stroke-width="10" d=" M2.9679999351501465,37.74399948120117 C6.829999923706055,21.996000289916992 15.359999656677246,10.97700023651123 20.297000885009766,4.913000106811523"></path></g></g><g style="display: block;" transform="matrix(-1.028518795967102,-0.08530065417289734,0.08530065417289734,-1.028518795967102,369.97686767578125,408.3523254394531)" opacity="1"><g opacity="1" transform="matrix(1,0,0,1,56.76100158691406,75.48799896240234)"><path fill="rgb(255,213,39)" fill-opacity="1" d=" M-71.92041778564453,-21.328235626220703 C-30.721988677978516,2.5281054973602295 -14.842727661132812,57.80965042114258 6.300600528717041,60.810943603515625 C33.743221282958984,64.69810485839844 22.07131004333496,-31.968706130981445 -8.091056823730469,-66.28443145751953"></path><path stroke-linecap="round" stroke-linejoin="round" fill-opacity="0" stroke="rgb(249,143,22)" stroke-opacity="1" stroke-width="10" d=" M-71.92041778564453,-21.328235626220703 C-30.721988677978516,2.5281054973602295 -14.842727661132812,57.80965042114258 6.300600528717041,60.810943603515625 C33.743221282958984,64.69810485839844 22.07131004333496,-31.968706130981445 -8.091056823730469,-66.28443145751953"></path></g></g><g style="display: block;" transform="matrix(-1.028518795967102,-0.08530065417289734,0.08530065417289734,-1.028518795967102,356.2474365234375,390.99005126953125)" opacity="1"><g opacity="1" transform="matrix(1,0,0,1,41.71099853515625,59.5369987487793)"><path stroke-linecap="round" stroke-linejoin="round" fill-opacity="0" stroke="rgb(251,237,32)" stroke-opacity="1" stroke-width="10" d=" M3.5250000953674316,48.013999938964844 C-5.172999858856201,37.67499923706055 -22.860000610351562,5.258999824523926 -46.492000579833984,-16.263999938964844"></path></g></g></g><g clip-path="url(#__lottie_element_4)" style="display: block;" transform="matrix(1,0,0,1,0,0)" opacity="1"><g style="display: block;" transform="matrix(1,0,0,1,45.64100646972656,48.957977294921875)" opacity="1"><g opacity="1" transform="matrix(1,0,0,1,205.04299926757812,332.3080139160156)"><path fill="rgb(255,213,39)" fill-opacity="1" d=" M-146.08099365234375,62.494998931884766 C-155.7181854248047,24.385099411010742 -154.99481201171875,-12.079296112060547 -148.64381408691406,-36.17929458618164 C-141.0358123779297,-65.04829406738281 -124.38282012939453,-85.18529510498047 -108.74382019042969,-97.44929504394531 C-78.19982147216797,-121.40029907226562 -54.30699920654297,-115.01399993896484 -1.0609999895095825,-115.01399993896484 C60.130001068115234,-115.01399993896484 123.58439636230469,-105.49935913085938 153.27139282226562,-85.55036163330078 C183.82839965820312,-65.016357421875 181.98216247558594,16.042583465576172 156.4459991455078,66.26499938964844 C133.97242736816406,111.16065979003906 -133.56051635742188,111.68865203857422 -146.08099365234375,62.494998931884766z"></path></g></g><g style="display: block;" transform="matrix(1,0,0,1,45.64100646972656,48.957977294921875)" opacity="1"><g opacity="1" transform="matrix(1,0,0,1,205.04299926757812,332.3080139160156)"><path fill="rgb(255,213,39)" fill-opacity="1" d=" M-146.08099365234375,62.494998931884766 C-155.7181854248047,24.385099411010742 -154.99481201171875,-12.079296112060547 -148.64381408691406,-36.17929458618164 C-141.0358123779297,-65.04829406738281 -124.38282012939453,-85.18529510498047 -108.74382019042969,-97.44929504394531 C-78.19982147216797,-121.40029907226562 -54.30699920654297,-115.01399993896484 -1.0609999895095825,-115.01399993896484 C60.130001068115234,-115.01399993896484 123.58439636230469,-105.49935913085938 153.27139282226562,-85.55036163330078 C183.82839965820312,-65.016357421875 181.98216247558594,16.042583465576172 156.4459991455078,66.26499938964844 C155.81500244140625,67.5250015258789 154.99200439453125,68.75 153.98599243164062,69.93900299072266"></path><path stroke-linecap="round" stroke-linejoin="round" fill-opacity="0" stroke="rgb(249,143,22)" stroke-opacity="1" stroke-width="10" d=" M-146.08099365234375,62.494998931884766 C-155.7181854248047,24.385099411010742 -154.99481201171875,-12.079296112060547 -148.64381408691406,-36.17929458618164 C-141.0358123779297,-65.04829406738281 -124.38282012939453,-85.18529510498047 -108.74382019042969,-97.44929504394531 C-78.19982147216797,-121.40029907226562 -54.30699920654297,-115.01399993896484 -1.0609999895095825,-115.01399993896484 C60.130001068115234,-115.01399993896484 123.58439636230469,-105.49935913085938 153.27139282226562,-85.55036163330078 C183.82839965820312,-65.016357421875 181.98216247558594,16.042583465576172 156.4459991455078,66.26499938964844 C155.81500244140625,67.5250015258789 154.99200439453125,68.75 153.98599243164062,69.93900299072266"></path></g></g><g style="display: block;" transform="matrix(1.237148642539978,0.05697917565703392,-0.05697917565703392,1.237148642539978,18.43913459777832,-4.305828094482422)" opacity="1"><g opacity="1" transform="matrix(1,0,0,1,199.36000061035156,153.8489990234375)"><path fill="rgb(255,212,39)" fill-opacity="1" d=" M20.312000274658203,173.8489990234375 C-168.2169952392578,179.73300170898438 -172.0850067138672,69.74400329589844 -172.0850067138672,35.21699905395508 C-172.0850067138672,-47.459999084472656 -95.04000091552734,-128.84800720214844 -0.0010000000474974513,-128.84800720214844 C95.03900146484375,-128.84800720214844 172.0850067138672,-47.459999084472656 172.0850067138672,35.21699905395508 C172.0850067138672,70.0979995727539 169.2830047607422,156.3990020751953 22.878999710083008,172.96400451660156"></path><g opacity="1" transform="matrix(1,0,0,1,0,0)"></g></g></g><g style="display: block;" transform="matrix(1.2742630243301392,0.05868854746222496,-0.05868854746222496,1.2742630243301392,11.304901123046875,-11.427398681640625)" opacity="1"><g opacity="1" transform="matrix(1,0,0,1,199.36000061035156,153.8489990234375)"><path fill="rgb(250,144,22)" fill-opacity="1" d=" M20.312000274658203,173.8489990234375 C-168.2169952392578,179.73300170898438 -172.0850067138672,69.74400329589844 -172.0850067138672,35.21699905395508 C-172.0850067138672,-47.459999084472656 -95.04000091552734,-128.84800720214844 -0.0010000000474974513,-128.84800720214844 C95.03900146484375,-128.84800720214844 172.0850067138672,-47.459999084472656 172.0850067138672,35.21699905395508 C172.0850067138672,70.0979995727539 169.2830047607422,156.3990020751953 22.878999710083008,172.96400451660156"></path><g opacity="1" transform="matrix(1,0,0,1,0,0)"></g></g></g><g style="display: block;" transform="matrix(1.2742630243301392,0.05868854746222496,-0.05868854746222496,1.2742630243301392,11.304901123046875,-11.427398681640625)" opacity="1"><g opacity="1" transform="matrix(1,0,0,1,199.36000061035156,153.8489990234375)"><path fill="url(#__lottie_element_84)" fill-opacity="1" d=" M20.312000274658203,173.8489990234375 C-168.2169952392578,179.73300170898438 -172.0850067138672,69.74400329589844 -172.0850067138672,35.21699905395508 C-172.0850067138672,-47.459999084472656 -95.04000091552734,-128.84800720214844 -0.0010000000474974513,-128.84800720214844 C95.03900146484375,-128.84800720214844 172.0850067138672,-47.459999084472656 172.0850067138672,35.21699905395508 C172.0850067138672,70.0979995727539 169.2830047607422,156.3990020751953 22.878999710083008,172.96400451660156"></path><g opacity="1" transform="matrix(1,0,0,1,0,0)"></g></g></g><g style="display: block;" transform="matrix(1.200034260749817,0.05526980385184288,-0.05526980385184288,1.200034260749817,25.49651527404785,2.815898895263672)" opacity="1"><g opacity="1" transform="matrix(1,0,0,1,199.36000061035156,153.8489990234375)"><path fill="rgb(255,213,39)" fill-opacity="1" d=" M20.68199920654297,197.98899841308594 C-36.39799880981445,199.77000427246094 -88.32499694824219,182.8209991455078 -112.40499877929688,160.4010009765625 C-107.5,162.39300537109375 -103.96700286865234,153.7449951171875 -109.64299774169922,150.29600524902344 C-170.29200744628906,117.21499633789062 -172.0850067138672,58.724998474121094 -172.0850067138672,35.21699905395508 C-172.0850067138672,-47.459999084472656 -95.04000091552734,-128.84800720214844 -0.0010000000474974513,-128.84800720214844 C95.03900146484375,-128.84800720214844 172.0850067138672,-47.459999084472656 172.0850067138672,35.21699905395508 C172.0850067138672,53.89099884033203 171.28199768066406,87.302001953125 148.072998046875,116.86000061035156 C142.8939971923828,123.45600128173828 134.71800231933594,131.59500122070312 128.94700622558594,135.86599731445312 C124.4990005493164,139.1580047607422 128.77999877929688,149.15199279785156 134.18299865722656,145.07899475097656 C112.0780029296875,161.625 72.08200073242188,191.57899475097656 23.25,197.10400390625"></path><g opacity="1" transform="matrix(1,0,0,1,0,0)"></g></g></g><g style="display: block;" transform="matrix(1.200034260749817,0.05526980385184288,-0.05526980385184288,1.200034260749817,25.49651527404785,2.815898895263672)" opacity="1"><g opacity="1" transform="matrix(1,0,0,1,199.36000061035156,153.8489990234375)"><path fill="url(#__lottie_element_80)" fill-opacity="1" d=" M20.312000274658203,173.8489990234375 C-168.2169952392578,179.73300170898438 -172.0850067138672,69.74400329589844 -172.0850067138672,35.21699905395508 C-172.0850067138672,-47.459999084472656 -95.04000091552734,-128.84800720214844 -0.0010000000474974513,-128.84800720214844 C95.03900146484375,-128.84800720214844 172.0850067138672,-47.459999084472656 172.0850067138672,35.21699905395508 C172.0850067138672,70.0979995727539 169.2830047607422,156.3990020751953 22.878999710083008,172.96400451660156"></path><g opacity="1" transform="matrix(1,0,0,1,0,0)"></g></g></g><g style="display: block;" transform="matrix(1.278428316116333,0.027426615357398987,-0.027426615357398987,1.278428316116333,42.37217330932617,21.10924530029297)" opacity="1"><g opacity="1" transform="matrix(1,0,0,1,298.2439880371094,153.64199829101562)"><path fill-rule="evenodd" fill="rgb(252,238,33)" fill-opacity="1" d=" M15.432000160217285,13.628999710083008 C14.258999824523926,52.57400131225586 -2.7720000743865967,68.71900177001953 -8.498000144958496,76.03500366210938 C-12.720999717712402,81.43099975585938 -6.9730000495910645,87.25700378417969 -1.284000039100647,82.46700286865234 C4.40500020980835,77.677001953125 24.347999572753906,50.22800064086914 24.839000701904297,13.347999572753906 C23.628999710083008,3.9110000133514404 15.272000312805176,7.980999946594238 15.432000160217285,13.628999710083008z"></path></g></g><g style="display: block;" transform="matrix(1.237148642539978,0.05697917565703392,-0.05697917565703392,1.237148642539978,54.32172393798828,23.450227737426758)" opacity="1"><g opacity="1" transform="matrix(1,0,0,1,96.85900115966797,71.4489974975586)"><path stroke-linecap="round" stroke-linejoin="round" fill-opacity="0" stroke="rgb(255,255,255)" stroke-opacity="1" stroke-width="10" d=" M-69.49400329589844,41.32899856567383 C-56.5880012512207,14.807000160217285 -34.82400131225586,-8.661999702453613 -7.591000080108643,-24.643999099731445 C14.711999893188477,-37.733001708984375 40.68299865722656,-45.80099868774414 68.46099853515625,-46.4119987487793"></path></g></g><g style="display: block;" transform="matrix(2.5785701274871826,0.2617851793766022,-0.3401196002960205,3.3501596450805664,102.58323669433594,124.48127746582031)" opacity="1"><g opacity="1" transform="matrix(1,0,0,1,20.451000213623047,20.45199966430664)"><path fill="rgb(0,0,0)" fill-opacity="1" d=" M18.01099967956543,3.9660000801086426 C15.821000099182129,13.913000106811523 5.980999946594238,20.20199966430664 -3.9660000801086426,18.011999130249023 C-13.913000106811523,15.821000099182129 -20.201000213623047,5.98199987411499 -18.01099967956543,-3.9649999141693115 C-15.819999694824219,-13.913000106811523 -5.980999946594238,-20.201000213623047 3.9660000801086426,-18.010000228881836 C13.913000106811523,-15.819999694824219 20.201000213623047,-5.980999946594238 18.01099967956543,3.9660000801086426z"></path><g opacity="1" transform="matrix(1,0,0,1,0,0)"></g></g></g><g style="display: block;" transform="matrix(1.6221096515655518,0.18753263354301453,-0.2557394504547119,2.3277838230133057,114.8161849975586,141.9903564453125)" opacity="1"><g opacity="1" transform="matrix(1,0,0,1,20.451000213623047,20.45199966430664)"><path fill="rgb(255,255,255)" fill-opacity="1" d=" M18.01099967956543,3.9660000801086426 C16.159000396728516,12.37600040435791 8.83899974822998,18.17099952697754 0.609000027179718,18.437000274658203 C-0.8949999809265137,18.486000061035156 -2.428999900817871,18.350000381469727 -3.9660000801086426,18.011999130249023 C-13.913000106811523,15.821000099182129 -20.201000213623047,5.98199987411499 -18.01099967956543,-3.9649999141693115 C-15.819999694824219,-13.913000106811523 -5.980999946594238,-20.201000213623047 3.9660000801086426,-18.010000228881836 C13.913000106811523,-15.819999694824219 20.201000213623047,-5.980999946594238 18.01099967956543,3.9660000801086426z"></path><g opacity="1" transform="matrix(1,0,0,1,0,0)"></g></g></g><g style="display: block;" transform="matrix(0.2683775722980499,0.02724660187959671,-0.03539964556694031,0.3486846089363098,113.15740966796875,156.44166564941406)" opacity="1"><g opacity="1" transform="matrix(1,0,0,1,20.451000213623047,20.45199966430664)"><path fill="rgb(255,255,255)" fill-opacity="1" d=" M18.01099967956543,3.9660000801086426 C15.821000099182129,13.913000106811523 5.980999946594238,20.20199966430664 -3.9660000801086426,18.011999130249023 C-13.913000106811523,15.821000099182129 -20.201000213623047,5.98199987411499 -18.01099967956543,-3.9649999141693115 C-15.819999694824219,-13.913000106811523 -5.980999946594238,-20.201000213623047 3.9660000801086426,-18.010000228881836 C13.913000106811523,-15.819999694824219 20.201000213623047,-5.980999946594238 18.01099967956543,3.9660000801086426z"></path><g opacity="1" transform="matrix(1,0,0,1,0,0)"></g></g></g><g style="display: block;" transform="matrix(2.589794397354126,-0.10256817191839218,0.1332598328590393,3.3647427558898926,303.5428466796875,126.66557312011719)" opacity="1"><g opacity="1" transform="matrix(1,0,0,1,20.451000213623047,20.45199966430664)"><path fill="rgb(0,0,0)" fill-opacity="1" d=" M18.01099967956543,3.9660000801086426 C15.821000099182129,13.913000106811523 5.980999946594238,20.20199966430664 -3.9660000801086426,18.011999130249023 C-13.913000106811523,15.821000099182129 -20.201000213623047,5.98199987411499 -18.01099967956543,-3.9649999141693115 C-15.819999694824219,-13.913000106811523 -5.980999946594238,-20.201000213623047 3.9660000801086426,-18.010000228881836 C13.913000106811523,-15.819999694824219 20.201000213623047,-5.980999946594238 18.01099967956543,3.9660000801086426z"></path><g opacity="1" transform="matrix(1,0,0,1,0,0)"></g></g></g><g style="display: block;" transform="matrix(1.6323764324188232,-0.041898343712091446,0.07139584422111511,2.2776691913604736,331.58074951171875,143.32766723632812)" opacity="1"><g opacity="1" transform="matrix(1,0,0,1,20.451000213623047,20.45199966430664)"><path fill="rgb(255,255,255)" fill-opacity="1" d=" M18.01099967956543,3.9660000801086426 C15.821000099182129,13.913000106811523 5.980999946594238,20.20199966430664 -3.9660000801086426,18.011999130249023 C-13.913000106811523,15.821000099182129 -20.201000213623047,5.98199987411499 -18.01099967956543,-3.9649999141693115 C-15.819999694824219,-13.913000106811523 -5.980999946594238,-20.201000213623047 3.9660000801086426,-18.010000228881836 C13.913000106811523,-15.819999694824219 20.201000213623047,-5.980999946594238 18.01099967956543,3.9660000801086426z"></path><g opacity="1" transform="matrix(1,0,0,1,0,0)"></g></g></g><g style="display: block;" transform="matrix(0.2695458233356476,-0.010675294324755669,0.013869681395590305,0.35020241141319275,318.49639892578125,156.82635498046875)" opacity="1"><g opacity="1" transform="matrix(1,0,0,1,20.451000213623047,20.45199966430664)"><path fill="rgb(255,255,255)" fill-opacity="1" d=" M18.01099967956543,3.9660000801086426 C15.821000099182129,13.913000106811523 5.980999946594238,20.20199966430664 -3.9660000801086426,18.011999130249023 C-13.913000106811523,15.821000099182129 -20.201000213623047,5.98199987411499 -18.01099967956543,-3.9649999141693115 C-15.819999694824219,-13.913000106811523 -5.980999946594238,-20.201000213623047 3.9660000801086426,-18.010000228881836 C13.913000106811523,-15.819999694824219 20.201000213623047,-5.980999946594238 18.01099967956543,3.9660000801086426z"></path><g opacity="1" transform="matrix(1,0,0,1,0,0)"></g></g></g><g style="display: block;" transform="matrix(1.2793477773666382,0.05892273411154747,-0.05892273411154747,1.2793477773666382,171.2717742919922,193.45223999023438)" opacity="1"><g opacity="1" transform="matrix(1,0,0,1,74.89900207519531,52.06999969482422)"><path fill="rgb(255,93,31)" fill-opacity="1" d=" M53.619998931884766,19.97599983215332 C57.47800064086914,64.32099914550781 66.65599822998047,115.73400115966797 17.51300048828125,124.0979995727539 C-22.523000717163086,130.91200256347656 -32.29499816894531,82.04900360107422 -46.00299835205078,30.82699966430664 C-47.38100051879883,25.67799949645996 -54.900001525878906,-2.747999906539917 -36.986000061035156,-10.434000015258789 C-9.652000427246094,-22.15999984741211 -15.987000465393066,-29.16699981689453 -0.44999998807907104,-30.500999450683594 C17.841999053955078,-32.06999969482422 15.633999824523926,-19.08799934387207 32.694000244140625,-16.808000564575195 C54.750999450683594,-13.859999656677246 53.15700149536133,14.64900016784668 53.619998931884766,19.97599983215332z"></path><path stroke-linecap="butt" stroke-linejoin="miter" fill-opacity="0" stroke-miterlimit="10" stroke="rgb(207,53,2)" stroke-opacity="1" stroke-width="8" d=" M53.619998931884766,19.97599983215332 C57.47800064086914,64.32099914550781 66.65599822998047,115.73400115966797 17.51300048828125,124.0979995727539 C-22.523000717163086,130.91200256347656 -32.29499816894531,82.04900360107422 -46.00299835205078,30.82699966430664 C-47.38100051879883,25.67799949645996 -54.900001525878906,-2.747999906539917 -36.986000061035156,-10.434000015258789 C-9.652000427246094,-22.15999984741211 -15.987000465393066,-29.16699981689453 -0.44999998807907104,-30.500999450683594 C17.841999053955078,-32.06999969482422 15.633999824523926,-19.08799934387207 32.694000244140625,-16.808000564575195 C54.750999450683594,-13.859999656677246 53.15700149536133,14.64900016784668 53.619998931884766,19.97599983215332z"></path></g></g><g style="display: block;" transform="matrix(0.7198235988616943,0.011106831952929497,-0.011106831952929497,0.7198235988616943,220.81309509277344,246.6090850830078)" opacity="1"><g opacity="1" transform="matrix(1,0,0,1,58.465999603271484,35.75299835205078)"><path fill="rgb(124,8,8)" fill-opacity="1" d=" M80.78099822998047,42.891998291015625 C76.84300231933594,-21.288000106811523 80.88400268554688,-21.163999557495117 5.614999771118164,-11.01099967956543 C-76.31700134277344,0.04100000113248825 -71.14700317382812,3.308000087738037 -61.534000396728516,59.590999603271484 C-52.832000732421875,105.39700317382812 -25.410999298095703,168.77999877929688 21.586999893188477,165.1009979248047 C84.63899993896484,160.16600036621094 81.74400329589844,58.5890007019043 80.78099822998047,42.891998291015625z"></path><g opacity="1" transform="matrix(1,0,0,1,0,0)"></g></g></g><g style="display: block;" transform="matrix(1.1924560070037842,0.13434548676013947,-0.13434548676013947,1.1924560070037842,255.1629638671875,246.66387939453125)" opacity="1"><g opacity="1" transform="matrix(1,0,0,1,0,0)"><path fill="rgb(89,0,0)" fill-opacity="1" d=" M41.85200119018555,42.79100036621094 C38.60499954223633,24.968000411987305 15.875,23.023000717163086 14.909000396728516,38.14899826049805 C11.770999908447266,39.981998443603516 7.47599983215332,40.17499923706055 5.416999816894531,39.106998443603516 C0.035999998450279236,31.305999755859375 -16.68400001525879,32.358001708984375 -17.58799934387207,49.02199935913086 C-18.121999740600586,58.86899948120117 -12.836999893188477,76.8219985961914 14.121000289916992,70.83100128173828 C41.4109992980957,64.76599884033203 43.900001525878906,54.029998779296875 41.85200119018555,42.79100036621094z"></path></g></g><g style="display: block;" transform="matrix(0.23220305144786835,-0.09263768792152405,0.09263768792152405,0.23220305144786835,241.68190002441406,278.28387451171875)" opacity="1"><g opacity="1" transform="matrix(1,0,0,1,58.465999603271484,35.75299835205078)"><path fill="rgb(125,9,9)" fill-opacity="1" d=" M25.056528091430664,72.35181427001953 C10.87612247467041,12.155006408691406 31.235273361206055,-2.6238901615142822 10.04704761505127,-6.109758377075195 C-26.205949783325195,-12.06253433227539 -28.817419052124023,60.0884895324707 -21.506145477294922,90.53296661376953 C-12.261404037475586,127.9937744140625 -0.9978951811790466,137.37570190429688 18.3974552154541,135.88568115234375 C35.941585540771484,134.55343627929688 33.39468002319336,107.6156997680664 25.056528091430664,72.35181427001953z"></path><g opacity="1" transform="matrix(1,0,0,1,0,0)"></g></g></g><g style="display: block;" transform="matrix(0.7198235988616943,0.011106831952929497,-0.011106831952929497,0.7198235988616943,220.81309509277344,246.6090850830078)" opacity="1"><g opacity="1" transform="matrix(1,0,0,1,58.465999603271484,35.75299835205078)"><path fill="rgb(255,93,31)" fill-opacity="1" d=" M72.61599731445312,-24.80900001525879 C80.72799682617188,-20.516000747680664 78.94999694824219,3.808000087738037 75.11699676513672,-5.0370001792907715 C68.72599792480469,-19.785999298095703 52.66600036621094,-17.357999801635742 5.614999771118164,-11.01099967956543 C-46.124000549316406,-4.0320000648498535 -63.12900161743164,-0.15700000524520874 -66.21499633789062,15.923999786376953 C-68.01599884033203,25.308000564575195 -66.98999786376953,-0.6759999990463257 -62.847999572753906,-9.904999732971191 C-47.90599822998047,-19.19499969482422 -39.75,-27.267000198364258 7.248000144958496,-30.945999145507812 C70.30000305175781,-35.88100051879883 60.53099822998047,-31.204999923706055 72.61599731445312,-24.80900001525879z"></path><g opacity="1" transform="matrix(1,0,0,1,0,0)"></g></g></g><g style="display: block;" transform="matrix(1.1630421876907349,0.053566064685583115,-0.053566064685583115,1.1630421876907349,269.7335205078125,285.43646240234375)" opacity="1"><g opacity="1" transform="matrix(1,0,0,1,0,0)"><path stroke-linecap="round" stroke-linejoin="round" fill-opacity="0" stroke="rgb(255,180,132)" stroke-opacity="1" stroke-width="8" d=" M-49.875,-8.625 C-48.25,-18.25 -43.5,-19 -25.25,-29"></path></g></g><g style="display: block;" transform="matrix(1.2793477773666382,0.05892273411154747,-0.05892273411154747,1.2793477773666382,63.43946075439453,78.75289154052734)" opacity="1"></g><g style="display: block;" transform="matrix(-1.0875269174575806,0.012603904120624065,-0.012603904120624065,-1.0875269174575806,262.2608337402344,411.6933898925781)" opacity="1"><g opacity="1" transform="matrix(1,0,0,1,56.76100158691406,75.48799896240234)"><path fill="rgb(255,213,39)" fill-opacity="1" d=" M64.14099884033203,-70.13200378417969 C33.04999923706055,-39.47800064086914 47.4630012512207,37.902000427246094 41.5369987487793,42.43199920654297 C7.269999980926514,68.6259994506836 -31.226999282836914,-59.67599868774414 -5.638000011444092,-107.48999786376953"></path><path stroke-linecap="round" stroke-linejoin="round" fill-opacity="0" stroke="rgb(249,143,22)" stroke-opacity="1" stroke-width="10" d=" M64.14099884033203,-70.13200378417969 C33.04999923706055,-39.47800064086914 47.4630012512207,37.902000427246094 41.5369987487793,42.43199920654297 C7.269999980926514,68.6259994506836 -31.226999282836914,-59.67599868774414 -5.638000011444092,-107.48999786376953"></path></g></g><g style="display: block;" transform="matrix(-1.0875269174575806,0.012603904120624065,-0.012603904120624065,-1.0875269174575806,240.06028747558594,396.0162658691406)" opacity="1"><g opacity="1" transform="matrix(1,0,0,1,40.4379997253418,59.85499954223633)"><path stroke-linecap="round" stroke-linejoin="round" fill-opacity="0" stroke="rgb(252,238,33)" stroke-opacity="1" stroke-width="10" d=" M12.968999862670898,18.945999145507812 C4.120999813079834,1.6069999933242798 -6.2270002365112305,-37.73899841308594 -2.4519999027252197,-59.13800048828125"></path></g></g><g style="display: block;" transform="matrix(-1.0875269174575806,0.012603904120624065,-0.012603904120624065,-1.0875269174575806,225.23423767089844,395.6420593261719)" opacity="1"><g opacity="1" transform="matrix(1,0,0,1,40.4379997253418,59.85499954223633)"><path stroke-linecap="round" stroke-linejoin="round" fill-opacity="0" stroke="rgb(255,255,255)" stroke-opacity="1" stroke-width="10" d=" M13.036999702453613,30.864999771118164 C10.772000312805176,14.069999694824219 12.357999801635742,-1.1169999837875366 12.940999984741211,-9.730999946594238"></path></g></g><g style="display: block;" transform="matrix(-1.0235050916671753,-0.13253051042556763,0.13253051042556763,-1.0235050916671753,382.35418701171875,414.1034851074219)" opacity="1"><g opacity="1" transform="matrix(1,0,0,1,56.76100158691406,75.48799896240234)"><path fill="rgb(255,213,39)" fill-opacity="1" d=" M-82.88500213623047,-40.51900100708008 C-46.07500076293945,-14.371000289916992 -21.208999633789062,65.75399780273438 -13.168999671936035,62.42499923706055 C22.163000106811523,47.797000885009766 2.1050000190734863,-63.917999267578125 -33.80799865722656,-96.05899810791016"></path><path stroke-linecap="round" stroke-linejoin="round" fill-opacity="0" stroke="rgb(249,143,22)" stroke-opacity="1" stroke-width="10" d=" M-82.88500213623047,-40.51900100708008 C-46.07500076293945,-14.371000289916992 -21.208999633789062,65.75399780273438 -13.168999671936035,62.42499923706055 C22.163000106811523,47.797000885009766 2.1050000190734863,-63.917999267578125 -33.80799865722656,-96.05899810791016"></path></g></g><g style="display: block;" transform="matrix(-1.0235050916671753,-0.13253051042556763,0.13253051042556763,-1.0235050916671753,369.4381103515625,396.1279602050781)" opacity="1"><g opacity="1" transform="matrix(1,0,0,1,41.71099853515625,59.5369987487793)"><path stroke-linecap="round" stroke-linejoin="round" fill-opacity="0" stroke="rgb(251,237,32)" stroke-opacity="1" stroke-width="10" d=" M-14.82800006866455,41.73899841308594 C-23.10300064086914,18.165000915527344 -45.56999969482422,-24.009000778198242 -69.11499786376953,-44.972999572753906"></path></g></g></g></g></svg>