<svg xmlns="http://www.w3.org/2000/svg" xmlns:xlink="http://www.w3.org/1999/xlink" viewBox="0 0 512 512" width="512" height="512" style="width: 100%; height: 100%; transform: translate3d(0,0,0); content-visibility: visible;" preserveAspectRatio="xMidYMid meet"><defs><clipPath id="__lottie_element_2"><rect width="512" height="512" x="0" y="0"></rect></clipPath><clipPath id="__lottie_element_5"><path d="M0,0 L512,0 L512,512 L0,512z"></path></clipPath><clipPath id="__lottie_element_110"><path d="M0,0 L512,0 L512,512 L0,512z"></path></clipPath><clipPath id="__lottie_element_117"><path d="M0,0 L512,0 L512,512 L0,512z"></path></clipPath><clipPath id="__lottie_element_124"><path d="M0,0 L512,0 L512,512 L0,512z"></path></clipPath><clipPath id="__lottie_element_131"><path d="M0,0 L512,0 L512,512 L0,512z"></path></clipPath><clipPath id="__lottie_element_138"><path d="M0,0 L512,0 L512,512 L0,512z"></path></clipPath><clipPath id="__lottie_element_145"><path d="M0,0 L512,0 L512,512 L0,512z"></path></clipPath><clipPath id="__lottie_element_152"><path d="M0,0 L512,0 L512,512 L0,512z"></path></clipPath><clipPath id="__lottie_element_159"><path d="M0,0 L512,0 L512,512 L0,512z"></path></clipPath><clipPath id="__lottie_element_165"><path d="M0,0 L512,0 L512,512 L0,512z"></path></clipPath><clipPath id="__lottie_element_270"><path d="M0,0 L512,0 L512,512 L0,512z"></path></clipPath><clipPath id="__lottie_element_277"><path d="M0,0 L512,0 L512,512 L0,512z"></path></clipPath><clipPath id="__lottie_element_284"><path d="M0,0 L512,0 L512,512 L0,512z"></path></clipPath><clipPath id="__lottie_element_291"><path d="M0,0 L512,0 L512,512 L0,512z"></path></clipPath><clipPath id="__lottie_element_298"><path d="M0,0 L512,0 L512,512 L0,512z"></path></clipPath><clipPath id="__lottie_element_305"><path d="M0,0 L512,0 L512,512 L0,512z"></path></clipPath><clipPath id="__lottie_element_312"><path d="M0,0 L512,0 L512,512 L0,512z"></path></clipPath><clipPath id="__lottie_element_319"><path d="M0,0 L512,0 L512,512 L0,512z"></path></clipPath></defs><g clip-path="url(#__lottie_element_2)"><g clip-path="url(#__lottie_element_5)" style="display: block;" transform="matrix(-1,0,0,1,512,0)" opacity="1"><g style="display: block;" transform="matrix(0.965550422668457,-0.4299176335334778,0.43860283493995667,0.9464306235313416,342.5622253417969,282.8581848144531)" opacity="1"><g opacity="1" transform="matrix(1,0,0,1,59.35100173950195,70.60399627685547)"><path fill="rgb(255,93,31)" fill-opacity="1" d=" M-19.572999954223633,14.468000411987305 C-8.439000129699707,40.07600021362305 5.789000034332275,45.60300064086914 17.833999633789062,42.426998138427734 C29.878000259399414,39.250999450683594 34.35100173950195,16.611000061035156 27.825000762939453,-8.140999794006348 C22.52199935913086,-28.25200080871582 -5.765999794006348,-62.124000549316406 -42.75400161743164,-47.62900161743164"></path><path stroke-linecap="round" stroke-linejoin="miter" fill-opacity="0" stroke-miterlimit="10" stroke="rgb(207,53,2)" stroke-opacity="1" stroke-width="10" d=" M-19.572999954223633,14.468000411987305 C-8.439000129699707,40.07600021362305 5.789000034332275,45.60300064086914 17.833999633789062,42.426998138427734 C29.878000259399414,39.250999450683594 34.35100173950195,16.611000061035156 27.825000762939453,-8.140999794006348 C22.52199935913086,-28.25200080871582 -5.765999794006348,-62.124000549316406 -42.75400161743164,-47.62900161743164"></path></g></g><g clip-path="url(#__lottie_element_159)" style="display: none;"><g style="display: none;"><g><path stroke-linecap="round" stroke-linejoin="round" fill-opacity="0"></path></g></g></g><g clip-path="url(#__lottie_element_152)" style="display: block;" transform="matrix(1,0,0,1,0,21)" opacity="1"><g style="display: block;" transform="matrix(1.5022599697113037,0,0,1.5022599697113037,-7.507354736328125,334.35150146484375)" opacity="1"><g opacity="1" transform="matrix(1,0,0,1,176.4949951171875,64.81999969482422)"><path stroke-linecap="round" stroke-linejoin="round" fill-opacity="0" stroke="rgb(3,180,255)" stroke-opacity="1" stroke-width="0" d=" M151.4949951171875,0 C151.4949951171875,21.992000579833984 83.66899871826172,39.81999969482422 0.0010000000474974513,39.81999969482422 C-83.66699981689453,39.81999969482422 -151.49400329589844,21.992000579833984 -151.49400329589844,0 C-151.49400329589844,-21.992000579833984 -83.66699981689453,-39.81999969482422 0.0010000000474974513,-39.81999969482422 C83.66899871826172,-39.81999969482422 151.4949951171875,-21.992000579833984 151.4949951171875,0z"></path></g></g></g><g clip-path="url(#__lottie_element_145)" style="display: block;" transform="matrix(1,0,0,1,0,21)" opacity="1"><g style="display: block;" transform="matrix(1.5022599697113037,0,0,1.5022599697113037,-7.507354736328125,334.35150146484375)" opacity="1"><g opacity="1" transform="matrix(1,0,0,1,176.4949951171875,64.81999969482422)"><path stroke-linecap="round" stroke-linejoin="round" fill-opacity="0" stroke="rgb(3,180,255)" stroke-opacity="1" stroke-width="0" d=" M151.4949951171875,0 C151.4949951171875,21.992000579833984 83.66899871826172,39.81999969482422 0.0010000000474974513,39.81999969482422 C-83.66699981689453,39.81999969482422 -151.49400329589844,21.992000579833984 -151.49400329589844,0 C-151.49400329589844,-21.992000579833984 -83.66699981689453,-39.81999969482422 0.0010000000474974513,-39.81999969482422 C83.66899871826172,-39.81999969482422 151.4949951171875,-21.992000579833984 151.4949951171875,0z"></path></g></g></g><g clip-path="url(#__lottie_element_138)" style="display: block;" transform="matrix(1,0,0,1,0,21)" opacity="1"><g style="display: block;" transform="matrix(1.215645432472229,0,0,1.215645432472229,43.07867431640625,352.92987060546875)" opacity="1"><g opacity="1" transform="matrix(1,0,0,1,176.4949951171875,64.81999969482422)"><path stroke-linecap="round" stroke-linejoin="round" fill-opacity="0" stroke="rgb(3,180,255)" stroke-opacity="1" stroke-width="2.358952262966575" d=" M151.4949951171875,0 C151.4949951171875,21.992000579833984 83.66899871826172,39.81999969482422 0.0010000000474974513,39.81999969482422 C-83.66699981689453,39.81999969482422 -151.49400329589844,21.992000579833984 -151.49400329589844,0 C-151.49400329589844,-21.992000579833984 -83.66699981689453,-39.81999969482422 0.0010000000474974513,-39.81999969482422 C83.66899871826172,-39.81999969482422 151.4949951171875,-21.992000579833984 151.4949951171875,0z"></path></g></g></g><g clip-path="url(#__lottie_element_131)" style="display: block;" transform="matrix(1,0,0,1,0,21)" opacity="1"><g style="display: block;" transform="matrix(0.9170655012130737,0,0,0.9170655012130737,95.77653503417969,372.2838134765625)" opacity="1"><g opacity="1" transform="matrix(1,0,0,1,176.4949951171875,64.81999969482422)"><path stroke-linecap="round" stroke-linejoin="round" fill-opacity="0" stroke="rgb(3,180,255)" stroke-opacity="1" stroke-width="6.904628078571137" d=" M151.4949951171875,0 C151.4949951171875,21.992000579833984 83.66899871826172,39.81999969482422 0.0010000000474974513,39.81999969482422 C-83.66699981689453,39.81999969482422 -151.49400329589844,21.992000579833984 -151.49400329589844,0 C-151.49400329589844,-21.992000579833984 -83.66699981689453,-39.81999969482422 0.0010000000474974513,-39.81999969482422 C83.66899871826172,-39.81999969482422 151.4949951171875,-21.992000579833984 151.4949951171875,0z"></path></g></g></g><g clip-path="url(#__lottie_element_124)" style="display: none;"><g style="display: none;"><g><path stroke-linecap="round" stroke-linejoin="round" fill-opacity="0"></path></g></g></g><g clip-path="url(#__lottie_element_117)" style="display: none;"><g style="display: none;"><g><path stroke-linecap="round" stroke-linejoin="round" fill-opacity="0"></path></g></g></g><g clip-path="url(#__lottie_element_110)" style="display: none;"><g style="display: none;"><g><path stroke-linecap="round" stroke-linejoin="round" fill-opacity="0"></path></g></g></g><g style="display: block;" transform="matrix(1.060499906539917,0,0,1.0394999980926514,46.56787109375,237.0029296875)" opacity="1"><g opacity="1" transform="matrix(1,0,0,1,191.86199951171875,135.32400512695312)"><path fill="rgb(255,93,31)" fill-opacity="1" d=" M-97.69599914550781,87.5989990234375 C-128.39700317382812,72.14099884033203 -149.87600708007812,49.46500015258789 -159.80999755859375,22.020000457763672 C-162.9149932861328,13.442000389099121 -166.86199951171875,-20.172000885009766 -156.9949951171875,-34.237998962402344 C-153.5919952392578,-39.0880012512207 -148.68099975585938,-41.75899887084961 -143.16600036621094,-41.75899887084961 C-138.9969940185547,-41.75899887084961 -134.8260040283203,-40.28099822998047 -130.4499969482422,-37.20000076293945 C-106.00199890136719,-74.77999877929688 -53.78499984741211,-101.01499938964844 9.762999534606934,-106.79100036621094 C12.196000099182129,-107.01200103759766 15.02400016784668,-107.33499908447266 18.299999237060547,-107.70899963378906 C27.96299934387207,-108.81300354003906 41.196998596191406,-110.3239974975586 55.39699935913086,-110.3239974975586 C86.73400115966797,-110.3239974975586 110.91799926757812,-103.10299682617188 129.33099365234375,-88.24800109863281 C154.23500061035156,-68.15699768066406 166.86199951171875,-34.69599914550781 166.86199951171875,11.206000328063965 C166.86199951171875,40.65399932861328 149.89700317382812,66.79499816894531 119.09200286865234,84.81199645996094 C90.96600341796875,101.26300048828125 -68.16999816894531,102.46600341796875 -97.69599914550781,87.5989990234375z"></path><path stroke-linecap="butt" stroke-linejoin="miter" fill-opacity="0" stroke-miterlimit="10" stroke="rgb(207,53,2)" stroke-opacity="1" stroke-width="10" d=" M-97.69599914550781,87.5989990234375 C-128.39700317382812,72.14099884033203 -149.87600708007812,49.46500015258789 -159.80999755859375,22.020000457763672 C-162.9149932861328,13.442000389099121 -166.86199951171875,-20.172000885009766 -156.9949951171875,-34.237998962402344 C-153.5919952392578,-39.0880012512207 -148.68099975585938,-41.75899887084961 -143.16600036621094,-41.75899887084961 C-138.9969940185547,-41.75899887084961 -134.8260040283203,-40.28099822998047 -130.4499969482422,-37.20000076293945 C-106.00199890136719,-74.77999877929688 -53.78499984741211,-101.01499938964844 9.762999534606934,-106.79100036621094 C12.196000099182129,-107.01200103759766 15.02400016784668,-107.33499908447266 18.299999237060547,-107.70899963378906 C27.96299934387207,-108.81300354003906 41.196998596191406,-110.3239974975586 55.39699935913086,-110.3239974975586 C86.73400115966797,-110.3239974975586 110.91799926757812,-103.10299682617188 129.33099365234375,-88.24800109863281 C154.23500061035156,-68.15699768066406 166.86199951171875,-34.69599914550781 166.86199951171875,11.206000328063965 C166.86199951171875,40.65399932861328 149.89700317382812,66.79499816894531 119.09200286865234,84.81199645996094 C90.96600341796875,101.26300048828125 -68.16999816894531,102.46600341796875 -97.69599914550781,87.5989990234375z"></path></g></g><g style="display: block;" transform="matrix(1.060499906539917,0,0,1.0394999980926514,356.2550964355469,359.3031921386719)" opacity="1"><g opacity="1" transform="matrix(1,0,0,1,35.05500030517578,45.316001892089844)"><path stroke-linecap="round" stroke-linejoin="round" fill-opacity="0" stroke="rgb(255,138,55)" stroke-opacity="1" stroke-width="10" d=" M9.843999862670898,-15.633000373840332 C8.73799991607666,-3.4579999446868896 3.318000078201294,7.190999984741211 -5.307000160217285,15.949999809265137"></path></g></g><g style="display: block;" transform="matrix(0.965550422668457,-0.4299176335334778,0.43860283493995667,0.9464306235313416,382.0064697265625,296.6641845703125)" opacity="1"><g opacity="1" transform="matrix(1,0,0,1,35.20100021362305,42.45500183105469)"><path stroke-linecap="round" stroke-linejoin="round" fill-opacity="0" stroke="rgb(255,138,55)" stroke-opacity="1" stroke-width="10" d=" M-9.765999794006348,-32.749000549316406 C2.2809998989105225,-24.68400001525879 10.770999908447266,-14.154999732971191 12.395999908447266,5.306000232696533"></path></g></g><g style="display: block;" transform="matrix(1.0416218042373657,0.1952640265226364,-0.19920875132083893,1.0209957361221313,31.636823654174805,244.0902099609375)" opacity="1"><g opacity="1" transform="matrix(1,0,0,1,74.9219970703125,76.87799835205078)"><path fill="rgb(255,93,31)" fill-opacity="1" d=" M9.59000015258789,25.062999725341797 C-1.8730000257492065,47.95100021362305 -27.648000717163086,51.87799835205078 -38.78499984741211,46.29999923706055 C-49.922000885009766,40.72200012207031 -49.65800094604492,17.645999908447266 -38.19499969482422,-5.242000102996826 C-26.73200035095215,-28.1299991607666 5.906000137329102,-51.87799835205078 49.922000885009766,-19.26799964904785"></path><path stroke-linecap="round" stroke-linejoin="round" fill-opacity="0" stroke="rgb(207,53,2)" stroke-opacity="1" stroke-width="10" d=" M9.59000015258789,25.062999725341797 C-1.8730000257492065,47.95100021362305 -27.648000717163086,51.87799835205078 -38.78499984741211,46.29999923706055 C-49.922000885009766,40.72200012207031 -49.65800094604492,17.645999908447266 -38.19499969482422,-5.242000102996826 C-26.73200035095215,-28.1299991607666 5.906000137329102,-51.87799835205078 49.922000885009766,-19.26799964904785"></path></g></g><g style="display: block;" transform="matrix(1.0416218042373657,0.1952640265226364,-0.19920875132083893,1.0209957361221313,44.62810516357422,273.75665283203125)" opacity="1"><g opacity="1" transform="matrix(1,0,0,1,51.28499984741211,53.14099884033203)"><path stroke-linecap="round" stroke-linejoin="round" fill-opacity="0" stroke="rgb(255,255,255)" stroke-opacity="1" stroke-width="10" d=" M-24.062999725341797,20.128999710083008 C-21.47100067138672,2.180999994277954 -6.317999839782715,-19.91200065612793 15.347999572753906,-20.878999710083008"></path></g></g><g style="display: block;" transform="matrix(1.1135247945785522,0,0,1.0914748907089233,69.90641021728516,32.56748962402344)" opacity="1"><g opacity="1" transform="matrix(1,0,0,1,182.197998046875,148.13099670410156)"><path fill="rgb(255,93,31)" fill-opacity="1" d=" M-106.72100067138672,134.6999969482422 C-135.10699462890625,112.68800354003906 -157.197998046875,69.05000305175781 -157.197998046875,30.881999969482422 C-157.197998046875,-46.729000091552734 -86.81800079345703,-123.13099670410156 0,-123.13099670410156 C86.81800079345703,-123.13099670410156 157.197998046875,-46.729000091552734 157.197998046875,30.881999969482422 C157.197998046875,63.625 140.34300231933594,96.31300354003906 119.33999633789062,117.42900085449219"></path><path stroke-linecap="round" stroke-linejoin="miter" fill-opacity="0" stroke-miterlimit="10" stroke="rgb(207,53,2)" stroke-opacity="1" stroke-width="10" d=" M-106.72100067138672,134.6999969482422 C-135.10699462890625,112.68800354003906 -157.197998046875,69.05000305175781 -157.197998046875,30.881999969482422 C-157.197998046875,-46.729000091552734 -86.81800079345703,-123.13099670410156 0,-123.13099670410156 C86.81800079345703,-123.13099670410156 157.197998046875,-46.729000091552734 157.197998046875,30.881999969482422 C157.197998046875,63.625 140.34300231933594,96.31300354003906 119.33999633789062,117.42900085449219"></path></g></g><g style="display: block;" transform="matrix(1.1135247945785522,0,0,1.0914748907089233,92.40406036376953,198.1497039794922)" opacity="1"><g opacity="1" transform="matrix(1,0,0,1,26.16699981689453,35.709999084472656)"><path stroke-linecap="round" stroke-linejoin="round" fill-opacity="0" stroke="rgb(255,255,255)" stroke-opacity="1" stroke-width="10" d=" M0.7179999947547913,8.597000122070312 C-0.3370000123977661,3.3429999351501465 -0.9620000123977661,-2.1070001125335693 -1.1239999532699585,-7.738999843597412"></path></g></g><g style="display: block;" transform="matrix(1.1135247945785522,0,0,1.0914748907089233,102.92465209960938,56.81134033203125)" opacity="1"><g opacity="1" transform="matrix(1,0,0,1,88.77300262451172,67.36000061035156)"><path stroke-linecap="round" stroke-linejoin="round" fill-opacity="0" stroke="rgb(255,255,255)" stroke-opacity="1" stroke-width="10" d=" M-56.51900100708008,27.895000457763672 C-44.82500076293945,7.754000186920166 -27.586999893188477,-9.902000427246094 -6.736999988555908,-22.47599983215332 C7.829999923706055,-31.26099967956543 24.15999984741211,-37.564998626708984 41.59600067138672,-40.50400161743164"></path></g></g><g style="display: block;" transform="matrix(1.1135247945785522,0,0,1.0914748907089233,348.4034423828125,96.70256042480469)" opacity="1"><g opacity="1" transform="matrix(1,0,0,1,47.042999267578125,105.77100372314453)"><path stroke-linecap="round" stroke-linejoin="round" fill-opacity="0" stroke="rgb(255,138,55)" stroke-opacity="1" stroke-width="10" d=" M-9.324000358581543,-67.69499969482422 C10.270000457763672,-44.8120002746582 22.042999267578125,-16.416000366210938 22.042999267578125,12.173999786376953 C22.042999267578125,28.875999450683594 18.024999618530273,44.0260009765625 10.777000427246094,57.32500076293945"></path></g></g><g style="display: block;" transform="matrix(1.060498833656311,0,0,1.0394988059997559,345.73248291015625,218.7559356689453)" opacity="1"><g opacity="1" transform="matrix(1,0,0,1,22.77400016784668,26.006999969482422)"><path fill="rgb(0,0,0)" fill-opacity="1" d=" M-16.41900062561035,8.649999618530273 C-10.3149995803833,20.236000061035156 1.9839999675750732,25.756000518798828 11.052000045776367,20.97800064086914 C20.1200008392334,16.200000762939453 22.523000717163086,2.934999942779541 16.41900062561035,-8.651000022888184 C10.3149995803833,-20.23699951171875 -1.9850000143051147,-25.756999969482422 -11.053000450134277,-20.979000091552734 C-20.121000289916992,-16.20199966430664 -22.523000717163086,-2.936000108718872 -16.41900062561035,8.649999618530273z"></path></g></g><g style="display: block;" transform="matrix(0.2332461178302765,0,0,0.22862738370895386,356.7745056152344,231.887939453125)" opacity="1"><g opacity="1" transform="matrix(1,0,0,1,22.77400016784668,26.006999969482422)"><path fill="rgb(255,255,255)" fill-opacity="1" d=" M-16.41900062561035,8.649999618530273 C-10.3149995803833,20.236000061035156 1.9839999675750732,25.756000518798828 11.052000045776367,20.97800064086914 C20.1200008392334,16.200000762939453 22.523000717163086,2.934999942779541 16.41900062561035,-8.651000022888184 C10.3149995803833,-20.23699951171875 -1.9850000143051147,-25.756999969482422 -11.053000450134277,-20.979000091552734 C-20.121000289916992,-16.20199966430664 -22.523000717163086,-2.936000108718872 -16.41900062561035,8.649999618530273z"></path></g></g><g style="display: block;" transform="matrix(1.060498833656311,0,0,1.0394988059997559,324.920166015625,210.47633361816406)" opacity="1"><g opacity="1" transform="matrix(1,0,0,1,28.358999252319336,13.383000373840332)"><path fill="rgb(0,0,0)" fill-opacity="1" d=" M-19.416000366210938,12.265999794006348 C-19.416000366210938,12.265999794006348 43.95500183105469,-6.8379998207092285 43.95500183105469,-6.8379998207092285 C47.194000244140625,-7.704999923706055 49.117000579833984,-11.031999588012695 48.250999450683594,-14.270999908447266 C48.250999450683594,-14.270999908447266 47.856998443603516,-15.744999885559082 47.856998443603516,-15.744999885559082 C46.9900016784668,-18.982999801635742 43.66299819946289,-20.906999588012695 40.42399978637695,-20.040000915527344 C40.42399978637695,-20.040000915527344 -22.94700050354004,-0.9359999895095825 -22.94700050354004,-0.9359999895095825 C-26.184999465942383,-0.07000000029802322 -28.108999252319336,3.257999897003174 -27.243000030517578,6.495999813079834 C-27.243000030517578,6.495999813079834 -26.847999572753906,7.96999979019165 -26.847999572753906,7.96999979019165 C-25.98200035095215,11.208999633789062 -22.655000686645508,13.131999969482422 -19.416000366210938,12.265999794006348z"></path></g></g><g style="display: block;" transform="matrix(1.060498833656311,0,0,1.0394988059997559,188.01295471191406,222.41184997558594)" opacity="1"><g opacity="1" transform="matrix(1,0,0,1,24.451000213623047,26.405000686645508)"><path fill="rgb(0,0,0)" fill-opacity="1" d=" M18.125,9.548999786376953 C12.048999786376953,21.08099937438965 -0.9909999966621399,26.155000686645508 -11.001999855041504,20.881000518798828 C-21.011999130249023,15.607000350952148 -24.201000213623047,1.9830000400543213 -18.125999450683594,-9.550000190734863 C-12.050000190734863,-21.082000732421875 0.9909999966621399,-26.155000686645508 11.00100040435791,-20.881999969482422 C21.01099967956543,-15.607999801635742 24.201000213623047,-1.9830000400543213 18.125,9.548999786376953z"></path></g></g><g style="display: block;" transform="matrix(0.2830471694469452,0,0,0.27744224667549133,196.6252899169922,237.23043823242188)" opacity="1"><g opacity="1" transform="matrix(0.791379988193512,0,0,0.791379988193512,24.451000213623047,26.405000686645508)"><path fill="rgb(255,255,255)" fill-opacity="1" d=" M18.125,9.548999786376953 C12.048999786376953,21.08099937438965 -0.9909999966621399,26.155000686645508 -11.001999855041504,20.881000518798828 C-21.011999130249023,15.607000350952148 -24.201000213623047,1.9830000400543213 -18.125999450683594,-9.550000190734863 C-12.050000190734863,-21.082000732421875 0.9909999966621399,-26.155000686645508 11.00100040435791,-20.881999969482422 C21.01099967956543,-15.607999801635742 24.201000213623047,-1.9830000400543213 18.125,9.548999786376953z"></path></g></g><g style="display: block;" transform="matrix(1.060498833656311,0,0,1.0394988059997559,155.07174682617188,208.2268524169922)" opacity="1"><g opacity="1" transform="matrix(1,0,0,1,49.1879997253418,18.952999114990234)"><path fill="rgb(0,0,0)" fill-opacity="1" d=" M40.24599838256836,17.836999893188477 C40.24599838256836,17.836999893188477 -25.101999282836914,1.6820000410079956 -25.101999282836914,1.6820000410079956 C-28.340999603271484,0.8159999847412109 -30.263999938964844,-2.51200008392334 -29.398000717163086,-5.75 C-29.398000717163086,-5.75 -29.003000259399414,-7.224999904632568 -29.003000259399414,-7.224999904632568 C-28.136999130249023,-10.463000297546387 -24.809999465942383,-12.38599967956543 -21.570999145507812,-11.520000457763672 C-21.570999145507812,-11.520000457763672 43.7760009765625,4.635000228881836 43.7760009765625,4.635000228881836 C47.013999938964844,5.500999927520752 48.93899917602539,8.829000473022461 48.073001861572266,12.067000389099121 C48.073001861572266,12.067000389099121 47.676998138427734,13.541000366210938 47.676998138427734,13.541000366210938 C46.81100082397461,16.780000686645508 43.48500061035156,18.702999114990234 40.24599838256836,17.836999893188477z"></path></g></g><g style="display: block;" transform="matrix(1.1587374210357666,0.14580056071281433,-0.1429128348827362,1.091251254081726,193.73876953125,236.28135681152344)" opacity="1"><g opacity="1" transform="matrix(1,0,0,1,89.18399810791016,58.939998626708984)"><path fill="rgb(255,151,35)" fill-opacity="1" d=" M98.01599884033203,-1.7549999952316284 C90.38600158691406,27.673999786376953 60.231998443603516,14.62399959564209 19.68600082397461,21.006999969482422 C-45.54199981689453,31.275999069213867 -72.60900115966797,60.73099899291992 -88.92900085449219,20.489999771118164 C-93.83599853515625,8.392000198364258 -86.63999938964844,-15.291000366210938 -60.21799850463867,-18.424999237060547 C-5.611000061035156,-24.900999069213867 -19.347999572753906,-57.856998443603516 1.468999981880188,-60.46799850463867 C26.951000213623047,-63.665000915527344 19.327999114990234,-37.49100112915039 47.361000061035156,-39.30799865722656 C99.83399963378906,-42.709999084472656 102.66000366210938,-19.667999267578125 98.01599884033203,-1.7549999952316284z"></path><path stroke-linecap="butt" stroke-linejoin="miter" fill-opacity="0" stroke-miterlimit="4" stroke="rgb(207,53,2)" stroke-opacity="1" stroke-width="7.407" d=" M98.01599884033203,-1.7549999952316284 C90.38600158691406,27.673999786376953 60.231998443603516,14.62399959564209 19.68600082397461,21.006999969482422 C-45.54199981689453,31.275999069213867 -72.60900115966797,60.73099899291992 -88.92900085449219,20.489999771118164 C-93.83599853515625,8.392000198364258 -86.63999938964844,-15.291000366210938 -60.21799850463867,-18.424999237060547 C-5.611000061035156,-24.900999069213867 -19.347999572753906,-57.856998443603516 1.468999981880188,-60.46799850463867 C26.951000213623047,-63.665000915527344 19.327999114990234,-37.49100112915039 47.361000061035156,-39.30799865722656 C99.83399963378906,-42.709999084472656 102.66000366210938,-19.667999267578125 98.01599884033203,-1.7549999952316284z"></path></g></g><g style="display: block;" transform="matrix(1.031241536140442,0.12975811958312988,-0.1377822756767273,1.0520752668380737,241.88323974609375,279.9411315917969)" opacity="1"><g opacity="1" transform="matrix(1,0,0,1,0,0)"><path stroke-linecap="round" stroke-linejoin="round" fill-opacity="0" stroke="rgb(252,198,33)" stroke-opacity="1" stroke-width="8" d=" M-40.448001861572266,26.184999465942383 C-35.4379997253418,18.900999069213867 -22.3439998626709,13.319999694824219 -8.104000091552734,12.652000427246094 C9.22700023651123,11.838000297546387 20.249000549316406,9.913000106811523 29.893999099731445,-0.5049999952316284"></path></g></g><g style="display: block;" transform="matrix(0.9901909828186035,0.0000022733056539436802,0.010824461467564106,1.0102081298828125,255.9597625732422,253.58773803710938)" opacity="1"><g opacity="1" transform="matrix(1,0,0,1,0,0)"><path fill="rgb(125,9,9)" fill-opacity="1" d=" M-34,46.5 C-16,43 -9.5,60 42.5,58.5 C85.48500061035156,57.2599983215332 103.5,38 123,42.5 C138.81900024414062,49.939998626708984 135.9600067138672,81.4010009765625 111.14099884033203,75.875 C44.33300018310547,61 13.744999885559082,69 -25.482999801635742,82.99800109863281 C-55.744998931884766,93.7959976196289 -60.00299835205078,46 -34,46.5z"></path><path stroke-linecap="round" stroke-linejoin="round" fill-opacity="0" stroke="rgb(125,9,9)" stroke-opacity="1" stroke-width="8" d=" M-34,46.5 C-16,43 -9.5,60 42.5,58.5 C85.48500061035156,57.2599983215332 103.5,38 123,42.5 C138.81900024414062,49.939998626708984 135.9600067138672,81.4010009765625 111.14099884033203,75.875 C44.33300018310547,61 13.744999885559082,69 -25.482999801635742,82.99800109863281 C-55.744998931884766,93.7959976196289 -60.00299835205078,46 -34,46.5z"></path></g></g><g style="display: block;" transform="matrix(0.9901909828186035,0.0000022733056539436802,0.010824461467564106,1.0102081298828125,255.9597625732422,253.58773803710938)" opacity="1"><g opacity="1" transform="matrix(1,0,0,1,0,0)"><path fill="rgb(255,255,255)" fill-opacity="1" d=" M-32.76100158691406,47.5 C-4.818999767303467,52 -9.5,60 42.5,58.5 C85.48500061035156,57.2599983215332 96.73899841308594,46.75 116.23100280761719,44.25 C117.63600158691406,79 108.18000030517578,70.75399780273438 88.73999786376953,66.875 C66.81700134277344,62.5 17.799999237060547,64 -4.841000080108643,69.99800109863281 C-35.900001525878906,78.22599792480469 -30.58099937438965,76 -32.76100158691406,47.5z"></path></g></g><g style="display: block;" transform="matrix(0.9901909828186035,0.0000022733056539436802,0.010824461467564106,1.0102081298828125,255.9597625732422,253.58773803710938)" opacity="1"><g opacity="1" transform="matrix(1,0,0,1,0,0)"><path stroke-linecap="round" stroke-linejoin="round" fill-opacity="0" stroke="rgb(125,9,9)" stroke-opacity="1" stroke-width="4" d=" M-34,46.5 C-16,43 -9.5,60 42.5,58.5 C85.48500061035156,57.2599983215332 103.5,38 123,42.5 C138.81900024414062,49.939998626708984 135.9600067138672,81.4010009765625 111.14099884033203,75.875 C44.33300018310547,61 13.744999885559082,69 -25.482999801635742,82.99800109863281 C-55.744998931884766,93.7959976196289 -60.00299835205078,46 -34,46.5z"></path></g></g><g style="display: none;"><g><path stroke-linecap="butt" stroke-linejoin="miter" fill-opacity="0" stroke-miterlimit="10"></path></g></g><g style="display: none;"><g><path stroke-linecap="butt" stroke-linejoin="miter" fill-opacity="0" stroke-miterlimit="10"></path></g></g><g style="display: none;"><g><path stroke-linecap="butt" stroke-linejoin="miter" fill-opacity="0" stroke-miterlimit="10"></path></g></g><g style="display: none;"><g><path stroke-linecap="butt" stroke-linejoin="miter" fill-opacity="0" stroke-miterlimit="10"></path></g></g><g style="display: none;"><g><path stroke-linecap="butt" stroke-linejoin="miter" fill-opacity="0" stroke-miterlimit="10"></path></g></g><g style="display: none;"><g><path stroke-linecap="butt" stroke-linejoin="miter" fill-opacity="0" stroke-miterlimit="10"></path></g></g><g style="display: none;"><g><path stroke-linecap="butt" stroke-linejoin="miter" fill-opacity="0" stroke-miterlimit="10"></path></g></g><g style="display: none;"><g><path stroke-linecap="butt" stroke-linejoin="miter" fill-opacity="0" stroke-miterlimit="10"></path></g></g><g style="display: block;" transform="matrix(1,0,0,1,-16.96099853515625,167.32000732421875)" opacity="1"><g opacity="1" transform="matrix(1,0,0,1,64.83699798583984,44.775001525878906)"><path stroke-linecap="butt" stroke-linejoin="miter" fill-opacity="0" stroke-miterlimit="10" stroke="rgb(193,39,44)" stroke-opacity="1" stroke-width="10" d=" M19.836999893188477,19.774999618530273 C19.836999893188477,19.774999618530273 -24.750999450683594,14.628999710083008 -24.750999450683594,14.628999710083008 C-24.750999450683594,14.628999710083008 -4.810999870300293,-3.1519999504089355 -4.810999870300293,-3.1519999504089355 C-4.810999870300293,-3.1519999504089355 -39.83700180053711,-19.774999618530273 -39.83700180053711,-19.774999618530273"></path></g></g><g style="display: block;" transform="matrix(1,0,0,1,58.29999923706055,18.525997161865234)" opacity="1"><g opacity="1" transform="matrix(1,0,0,1,48.13399887084961,49.59000015258789)"><path stroke-linecap="butt" stroke-linejoin="miter" fill-opacity="0" stroke-miterlimit="10" stroke="rgb(193,39,44)" stroke-opacity="1" stroke-width="10" d=" M7.135000228881836,23.59000015258789 C7.135000228881836,23.59000015258789 -20.510000228881836,8.458000183105469 -20.510000228881836,8.458000183105469 C-20.510000228881836,8.458000183105469 -6.251999855041504,-5.218999862670898 -6.251999855041504,-5.218999862670898 C-6.251999855041504,-5.218999862670898 -39.1349983215332,-25.59000015258789 -39.1349983215332,-25.59000015258789"></path></g></g><g style="display: block;" transform="matrix(1,0,0,1,349.3280029296875,-17.746997833251953)" opacity="1"><g opacity="1" transform="matrix(1,0,0,1,38.38600158691406,61.933998107910156)"><path stroke-linecap="butt" stroke-linejoin="miter" fill-opacity="0" stroke-miterlimit="10" stroke="rgb(193,39,44)" stroke-opacity="1" stroke-width="10" d=" M-7.685999870300293,30.93400001525879 C-7.685999870300293,30.93400001525879 13.38599967956543,6.690000057220459 13.38599967956543,6.690000057220459 C13.38599967956543,6.690000057220459 -13.38599967956543,1.1610000133514404 -13.38599967956543,1.1610000133514404 C-13.38599967956543,1.1610000133514404 8.744999885559082,-36.933998107910156 8.744999885559082,-36.933998107910156"></path></g></g><g style="display: block;" transform="matrix(1,0,0,1,400.322021484375,61.27799987792969)" opacity="1"><g opacity="1" transform="matrix(1,0,0,1,65.69599914550781,57.38600158691406)"><path stroke-linecap="butt" stroke-linejoin="miter" fill-opacity="0" stroke-miterlimit="10" stroke="rgb(193,39,44)" stroke-opacity="1" stroke-width="10" d=" M-25.695999145507812,24.385000228881836 C-25.695999145507812,24.385000228881836 3.438999891281128,10.031999588012695 3.438999891281128,10.031999588012695 C3.438999891281128,10.031999588012695 -25.22100067138672,-4.297999858856201 -25.22100067138672,-4.297999858856201 C-25.22100067138672,-4.297999858856201 35.69599914550781,-44.3849983215332 35.69599914550781,-44.3849983215332"></path></g></g></g><g clip-path="url(#__lottie_element_165)" style="display: none;"><g style="display: none;"><g><path></path><path stroke-linecap="round" stroke-linejoin="miter" fill-opacity="0" stroke-miterlimit="10"></path></g></g><g clip-path="url(#__lottie_element_319)" style="display: none;"><g style="display: none;"><g><path stroke-linecap="round" stroke-linejoin="round" fill-opacity="0"></path></g></g></g><g clip-path="url(#__lottie_element_312)" style="display: none;"><g style="display: none;"><g><path stroke-linecap="round" stroke-linejoin="round" fill-opacity="0"></path></g></g></g><g clip-path="url(#__lottie_element_305)" style="display: none;"><g style="display: none;"><g><path stroke-linecap="round" stroke-linejoin="round" fill-opacity="0"></path></g></g></g><g clip-path="url(#__lottie_element_298)" style="display: none;"><g style="display: none;"><g><path stroke-linecap="round" stroke-linejoin="round" fill-opacity="0"></path></g></g></g><g clip-path="url(#__lottie_element_291)" style="display: none;"><g style="display: none;"><g><path stroke-linecap="round" stroke-linejoin="round" fill-opacity="0"></path></g></g></g><g clip-path="url(#__lottie_element_284)" style="display: none;"><g style="display: none;"><g><path stroke-linecap="round" stroke-linejoin="round" fill-opacity="0"></path></g></g></g><g clip-path="url(#__lottie_element_277)" style="display: none;"><g style="display: none;"><g><path stroke-linecap="round" stroke-linejoin="round" fill-opacity="0"></path></g></g></g><g clip-path="url(#__lottie_element_270)" style="display: none;"><g style="display: none;"><g><path stroke-linecap="round" stroke-linejoin="round" fill-opacity="0"></path></g></g></g><g style="display: none;"><g><path></path><path stroke-linecap="butt" stroke-linejoin="miter" fill-opacity="0" stroke-miterlimit="10"></path></g></g><g style="display: none;"><g><path stroke-linecap="round" stroke-linejoin="round" fill-opacity="0"></path></g></g><g style="display: none;"><g><path stroke-linecap="round" stroke-linejoin="round" fill-opacity="0"></path></g></g><g style="display: none;"><g><path></path><path stroke-linecap="round" stroke-linejoin="round" fill-opacity="0"></path></g></g><g style="display: none;"><g><path stroke-linecap="round" stroke-linejoin="round" fill-opacity="0"></path></g></g><g style="display: none;"><g><path></path><path stroke-linecap="round" stroke-linejoin="miter" fill-opacity="0" stroke-miterlimit="10"></path></g></g><g style="display: none;"><g><path stroke-linecap="round" stroke-linejoin="round" fill-opacity="0"></path></g></g><g style="display: none;"><g><path stroke-linecap="round" stroke-linejoin="round" fill-opacity="0"></path></g></g><g style="display: none;"><g><path stroke-linecap="round" stroke-linejoin="round" fill-opacity="0"></path></g></g><g style="display: none;"><g><path></path></g></g><g style="display: none;"><g><path></path></g></g><g style="display: none;"><g><path></path></g></g><g style="display: none;"><g><path></path></g></g><g style="display: none;"><g><path></path></g></g><g style="display: none;"><g><path></path></g></g><g style="display: none;"><g><path></path><path stroke-linecap="butt" stroke-linejoin="miter" fill-opacity="0" stroke-miterlimit="4"></path></g></g><g style="display: none;"><g><path stroke-linecap="round" stroke-linejoin="round" fill-opacity="0"></path></g></g><g style="display: none;"><g><path></path><path stroke-linecap="round" stroke-linejoin="round" fill-opacity="0"></path></g></g><g style="display: none;"><g><path></path></g></g><g style="display: none;"><g><path stroke-linecap="round" stroke-linejoin="round" fill-opacity="0"></path></g></g><g style="display: none;"><g><path stroke-linecap="butt" stroke-linejoin="miter" fill-opacity="0" stroke-miterlimit="10"></path></g></g><g style="display: none;"><g><path stroke-linecap="butt" stroke-linejoin="miter" fill-opacity="0" stroke-miterlimit="10"></path></g></g><g style="display: none;"><g><path stroke-linecap="butt" stroke-linejoin="miter" fill-opacity="0" stroke-miterlimit="10"></path></g></g><g style="display: none;"><g><path stroke-linecap="butt" stroke-linejoin="miter" fill-opacity="0" stroke-miterlimit="10"></path></g></g><g style="display: none;"><g><path stroke-linecap="butt" stroke-linejoin="miter" fill-opacity="0" stroke-miterlimit="10"></path></g></g><g style="display: none;"><g><path stroke-linecap="butt" stroke-linejoin="miter" fill-opacity="0" stroke-miterlimit="10"></path></g></g><g style="display: none;"><g><path stroke-linecap="butt" stroke-linejoin="miter" fill-opacity="0" stroke-miterlimit="10"></path></g></g><g style="display: none;"><g><path stroke-linecap="butt" stroke-linejoin="miter" fill-opacity="0" stroke-miterlimit="10"></path></g></g><g style="display: none;"><g><path stroke-linecap="butt" stroke-linejoin="miter" fill-opacity="0" stroke-miterlimit="10"></path></g></g><g style="display: none;"><g><path stroke-linecap="butt" stroke-linejoin="miter" fill-opacity="0" stroke-miterlimit="10"></path></g></g><g style="display: none;"><g><path stroke-linecap="butt" stroke-linejoin="miter" fill-opacity="0" stroke-miterlimit="10"></path></g></g><g style="display: none;"><g><path stroke-linecap="butt" stroke-linejoin="miter" fill-opacity="0" stroke-miterlimit="10"></path></g></g></g></g></svg>