<svg xmlns="http://www.w3.org/2000/svg" xmlns:xlink="http://www.w3.org/1999/xlink" viewBox="0 0 512 512" width="512" height="512" style="width: 100%; height: 100%; transform: translate3d(0,0,0); content-visibility: visible;" preserveAspectRatio="xMidYMid meet"><defs><clipPath id="__lottie_element_2"><rect width="512" height="512" x="0" y="0"></rect></clipPath><clipPath id="__lottie_element_4"><path d="M0,0 L512,0 L512,512 L0,512z"></path></clipPath><clipPath id="__lottie_element_60"><path d="M0,0 L512,0 L512,512 L0,512z"></path></clipPath><clipPath id="__lottie_element_67"><path d="M0,0 L512,0 L512,512 L0,512z"></path></clipPath><clipPath id="__lottie_element_74"><path d="M0,0 L512,0 L512,512 L0,512z"></path></clipPath><clipPath id="__lottie_element_130"><path d="M0,0 L512,0 L512,512 L0,512z"></path></clipPath><clipPath id="__lottie_element_137"><path d="M0,0 L512,0 L512,512 L0,512z"></path></clipPath></defs><g clip-path="url(#__lottie_element_2)"><g clip-path="url(#__lottie_element_74)" style="display: block;" transform="matrix(1,0,0,1,0,0)" opacity="1"><g clip-path="url(#__lottie_element_137)" style="display: block;" transform="matrix(1,0,0,1,12,9)" opacity="1"><g style="display: block;" transform="matrix(1.5022599697113037,0,0,1.5022599697113037,-7.507354736328125,334.35150146484375)" opacity="1"><g opacity="1" transform="matrix(1,0,0,1,176.4949951171875,64.81999969482422)"><path stroke-linecap="round" stroke-linejoin="round" fill-opacity="0" stroke="rgb(3,180,255)" stroke-opacity="1" stroke-width="0" d=" M151.4949951171875,0 C151.4949951171875,21.992000579833984 83.66899871826172,39.81999969482422 0.0010000000474974513,39.81999969482422 C-83.66699981689453,39.81999969482422 -151.49400329589844,21.992000579833984 -151.49400329589844,0 C-151.49400329589844,-21.992000579833984 -83.66699981689453,-39.81999969482422 0.0010000000474974513,-39.81999969482422 C83.66899871826172,-39.81999969482422 151.4949951171875,-21.992000579833984 151.4949951171875,0z"></path></g></g></g><g clip-path="url(#__lottie_element_130)" style="display: block;" transform="matrix(1,0,0,1,12,9)" opacity="1"><g style="display: block;" transform="matrix(1.0113270282745361,0,0,1.0113270282745361,79.13984680175781,366.17376708984375)" opacity="1"><g opacity="1" transform="matrix(1,0,0,1,176.4949951171875,64.81999969482422)"><path stroke-linecap="round" stroke-linejoin="round" fill-opacity="0" stroke="rgb(3,180,255)" stroke-opacity="1" stroke-width="5.6046824519569975" d=" M151.4949951171875,0 C151.4949951171875,21.992000579833984 83.66899871826172,39.81999969482422 0.0010000000474974513,39.81999969482422 C-83.66699981689453,39.81999969482422 -151.49400329589844,21.992000579833984 -151.49400329589844,0 C-151.49400329589844,-21.992000579833984 -83.66699981689453,-39.81999969482422 0.0010000000474974513,-39.81999969482422 C83.66899871826172,-39.81999969482422 151.4949951171875,-21.992000579833984 151.4949951171875,0z"></path></g></g></g><g style="display: block;" transform="matrix(1.0046002864837646,0.03434412553906441,-0.03375528007745743,0.9873759746551514,60.775390625,211.0010986328125)" opacity="1"><g opacity="1" transform="matrix(1,0,0,1,211.84800720214844,148.99600219726562)"><path fill="rgb(255,212,39)" fill-opacity="1" d=" M-148.48399353027344,73.28600311279297 C-162.2740020751953,57.900001525878906 -166.84800720214844,40.064998626708984 -164.63499450683594,19.916000366210938 C-154.0050048828125,-76.89700317382812 -97.05400085449219,-123.99600219726562 -0.01899999938905239,-123.99600219726562 C104.19499969482422,-123.99600219726562 166.84800720214844,-86.6729965209961 166.84800720214844,17.10700035095215 C166.84800720214844,49.95800018310547 158.42100524902344,71.88200378417969 110.90799713134766,88.61399841308594 C60.7130012512207,106.29100036621094 -103.03700256347656,123.99600219726562 -148.48399353027344,73.28600311279297z"></path><path stroke-linecap="butt" stroke-linejoin="miter" fill-opacity="0" stroke-miterlimit="10" stroke="rgb(249,143,22)" stroke-opacity="1" stroke-width="10" d=" M-148.48399353027344,73.28600311279297 C-162.2740020751953,57.900001525878906 -166.84800720214844,40.064998626708984 -164.63499450683594,19.916000366210938 C-154.0050048828125,-76.89700317382812 -97.05400085449219,-123.99600219726562 -0.01899999938905239,-123.99600219726562 C104.19499969482422,-123.99600219726562 166.84800720214844,-86.6729965209961 166.84800720214844,17.10700035095215 C166.84800720214844,49.95800018310547 158.42100524902344,71.88200378417969 110.90799713134766,88.61399841308594 C60.7130012512207,106.29100036621094 -103.03700256347656,123.99600219726562 -148.48399353027344,73.28600311279297z"></path></g></g><g style="display: block;" transform="matrix(1.0046002864837646,0.03434412553906441,-0.03375528007745743,0.9873759746551514,86.90149688720703,281.81201171875)" opacity="1"><g opacity="1" transform="matrix(1,0,0,1,342.5580139160156,59.694000244140625)"><path stroke-linecap="round" stroke-linejoin="round" fill-opacity="0" stroke="rgb(251,237,32)" stroke-opacity="1" stroke-width="10" d=" M-7.997000217437744,29.465999603271484 C-5.817999839782715,55.606998443603516 -5.379000186920166,79.73300170898438 -56.722999572753906,95.33699798583984"></path></g><g opacity="1" transform="matrix(1,0,0,1,33.013999938964844,46.38600158691406)"><path stroke-linecap="round" stroke-linejoin="round" fill-opacity="0" stroke="rgb(255,255,255)" stroke-opacity="1" stroke-width="10" d=" M0.6809999942779541,54.25 C-1.815000057220459,65.61900329589844 -0.5370000004768372,84.29900360107422 16.32200050354004,98.75"></path></g></g><g style="display: block;" transform="matrix(-0.23532462120056152,0.9602423310279846,-0.9772325158119202,-0.23243357241153717,206.0214385986328,251.2999725341797)" opacity="1"><g opacity="1" transform="matrix(1,0,0,1,57.97800064086914,81.80899810791016)"><path fill="rgb(255,212,39)" fill-opacity="1" d=" M60.81541061401367,-14.037012100219727 C18.044330596923828,3.258692502975464 31.726999282836914,59.17100143432617 1.4229999780654907,65.64600372314453 C-29.417999267578125,72.23600006103516 -67.26000213623047,5.479000091552734 8.246999740600586,-52.58700180053711"></path><path stroke-linecap="round" stroke-linejoin="round" fill-opacity="0" stroke="rgb(249,143,22)" stroke-opacity="1" stroke-width="10" d=" M60.81541061401367,-14.037012100219727 C18.044330596923828,3.258692502975464 31.726999282836914,59.17100143432617 1.4229999780654907,65.64600372314453 C-29.417999267578125,72.23600006103516 -67.26000213623047,5.479000091552734 8.246999740600586,-52.58700180053711"></path></g></g><g style="display: block;" transform="matrix(-0.23532462120056152,0.9602423310279846,-0.9772325158119202,-0.23243357241153717,180.7327423095703,264.50677490234375)" opacity="1"><g opacity="1" transform="matrix(1,0,0,1,39.57600021362305,60.46099853515625)"><path stroke-linecap="round" stroke-linejoin="round" fill-opacity="0" stroke="rgb(255,255,255)" stroke-opacity="1" stroke-width="10" d=" M-5.261000156402588,52.39099884033203 C-36.058998107910156,36.21500015258789 -22.00200080871582,-6.664000034332275 3.8589999675750732,-32.012001037597656"></path></g></g><g style="display: block;" transform="matrix(-0.08516862243413925,-0.9845184087753296,1.0015524625778198,-0.08254895359277725,347.6862487792969,383.42431640625)" opacity="1"><g opacity="1" transform="matrix(1,0,0,1,57.97700119018555,82.88200378417969)"><path fill="rgb(255,212,39)" fill-opacity="1" d=" M-50.946998596191406,-4.448999881744385 C0.04899999871850014,12.557999610900879 -15.902999877929688,73.81700134277344 8.329000473022461,73.40799713134766 C40.1879997253418,72.87000274658203 51.487998962402344,13.829000473022461 17.27199935913086,-30.06999969482422"></path><path stroke-linecap="round" stroke-linejoin="round" fill-opacity="0" stroke="rgb(249,143,22)" stroke-opacity="1" stroke-width="10" d=" M-50.946998596191406,-4.448999881744385 C0.04899999871850014,12.557999610900879 -15.902999877929688,73.81700134277344 8.329000473022461,73.40799713134766 C40.1879997253418,72.87000274658203 51.487998962402344,13.829000473022461 17.27199935913086,-30.06999969482422"></path></g></g><g style="display: block;" transform="matrix(-0.08516862243413925,-0.9845184087753296,1.0015524625778198,-0.08254895359277725,374.6226501464844,353.07623291015625)" opacity="1"><g opacity="1" transform="matrix(1,0,0,1,37.183998107910156,57.85100173950195)"><path stroke-linecap="round" stroke-linejoin="round" fill-opacity="0" stroke="rgb(251,237,32)" stroke-opacity="1" stroke-width="10" d=" M9.345999717712402,51.9640007019043 C22.231000900268555,26.639999389648438 19.481000900268555,6.4039998054504395 -9.954999923706055,-30.115999221801758"></path></g></g><g style="display: block;" transform="matrix(0.9936560988426208,0.15024489164352417,-0.15168611705303192,0.976482093334198,118.18274688720703,15.39337158203125)" opacity="1"><g opacity="1" transform="matrix(1,0,0,1,198.8719940185547,158.7830047607422)"><path fill="rgb(255,212,39)" fill-opacity="1" d=" M-127.66699981689453,133.7830047607422 C-162.63900756835938,114.08599853515625 -173.8719940185547,72.41500091552734 -173.8719940185547,36.566001892089844 C-173.8719940185547,-49.277000427246094 -96.02799987792969,-133.7830047607422 -0.0010000000474974513,-133.7830047607422 C96.0260009765625,-133.7830047607422 173.8719940185547,-49.277000427246094 173.8719940185547,36.566001892089844 C173.8719940185547,72.78299713134766 160.01600646972656,103.4520034790039 136.78500366210938,126.80799865722656"></path><path stroke-linecap="round" stroke-linejoin="miter" fill-opacity="0" stroke-miterlimit="10" stroke="rgb(249,143,22)" stroke-opacity="1" stroke-width="10" d=" M-127.66699981689453,133.7830047607422 C-162.63900756835938,114.08599853515625 -173.8719940185547,72.41500091552734 -173.8719940185547,36.566001892089844 C-173.8719940185547,-49.277000427246094 -96.02799987792969,-133.7830047607422 -0.0010000000474974513,-133.7830047607422 C96.0260009765625,-133.7830047607422 173.8719940185547,-49.277000427246094 173.8719940185547,36.566001892089844 C173.8719940185547,72.78299713134766 160.01600646972656,103.4520034790039 136.78500366210938,126.80799865722656"></path></g></g><g style="display: block;" transform="matrix(0.9936560988426208,0.15024489164352417,-0.15168611705303192,0.976482093334198,142.47369384765625,48.37017822265625)" opacity="1"><g opacity="1" transform="matrix(1,0,0,1,102.4729995727539,69.81999969482422)"><path stroke-linecap="round" stroke-linejoin="round" fill-opacity="0" stroke="rgb(255,255,255)" stroke-opacity="1" stroke-width="10" d=" M-64.85900115966797,39.047000885009766 C-52.69300079345703,13.79699993133545 -32.42300033569336,-8.524999618530273 -7.127999782562256,-23.780000686645508 C14.072999954223633,-36.564998626708984 38.801998138427734,-44.38600158691406 65.2490005493164,-44.801998138427734"></path></g></g><g style="display: block;" transform="matrix(0.9936560988426208,0.15024489164352417,-0.15168611705303192,0.976482093334198,378.316650390625,122.67910766601562)" opacity="1"><g opacity="1" transform="matrix(1,0,0,1,48.32400131225586,110.46199798583984)"><path stroke-linecap="round" stroke-linejoin="round" fill-opacity="0" stroke="rgb(251,237,32)" stroke-opacity="1" stroke-width="10" d=" M-18.141000747680664,-80.54199981689453 C7.507999897003174,-55.029998779296875 23.322999954223633,-21.20599937438965 23.322999954223633,12.880000114440918 C23.322999954223633,41.10499954223633 12.479000091552734,65.13999938964844 -5.810999870300293,83.69400024414062"></path></g></g><g style="display: block;" transform="matrix(0.6367279887199402,0.06012353301048279,-0.05304010212421417,0.5493519902229309,152.22596740722656,197.7444305419922)" opacity="1"><path stroke-linecap="butt" stroke-linejoin="miter" fill-opacity="0" stroke-miterlimit="4" stroke="rgb(0,0,0)" stroke-opacity="1" stroke-width="0" d=" M55.84,41.01 C51.15,57.2 35.95,67.03 21.9,62.96 C7.84,58.89 0.25,42.46 4.94,26.27 C9.63,10.08 24.82,0.25 38.88,4.32 C52.93,8.39 60.53,24.82 55.84,41.01z"></path><g opacity="1" transform="matrix(1,0,0,1,30.38800048828125,33.638999938964844)"><path fill="rgb(0,0,0)" fill-opacity="1" d=" M25.448999404907227,7.369999885559082 C20.760000228881836,23.562000274658203 5.564000129699707,33.388999938964844 -8.491000175476074,29.31800079345703 C-22.54599952697754,25.24799919128418 -30.13800048828125,8.821999549865723 -25.448999404907227,-7.369999885559082 C-20.759000778198242,-23.562000274658203 -5.564000129699707,-33.388999938964844 8.491000175476074,-29.319000244140625 C22.54599952697754,-25.24799919128418 30.13800048828125,-8.821999549865723 25.448999404907227,7.369999885559082z"></path></g></g><g style="display: block;" transform="matrix(0.17427243292331696,0.016455810517072678,-0.014517075382173061,0.15035763382911682,164.98316955566406,212.49317932128906)" opacity="1"><g opacity="1" transform="matrix(0.7515299916267395,0,0,0.7515299916267395,15.770000457763672,-20.802000045776367)"><path fill="rgb(255,255,255)" fill-opacity="1" d=" M25.448999404907227,7.369999885559082 C20.760000228881836,23.562000274658203 5.564000129699707,33.388999938964844 -8.491000175476074,29.31800079345703 C-22.54599952697754,25.24799919128418 -30.13800048828125,8.821999549865723 -25.448999404907227,-7.369999885559082 C-20.759000778198242,-23.562000274658203 -5.564000129699707,-33.388999938964844 8.491000175476074,-29.319000244140625 C22.54599952697754,-25.24799919128418 30.13800048828125,-8.821999549865723 25.448999404907227,7.369999885559082z"></path></g></g><g style="display: block;" transform="matrix(0.6367279887199402,0.06012353301048279,-0.05304010212421417,0.5493519902229309,377.93560791015625,218.3739013671875)" opacity="1"><path stroke-linecap="butt" stroke-linejoin="miter" fill-opacity="0" stroke-miterlimit="4" stroke="rgb(0,0,0)" stroke-opacity="1" stroke-width="0" d=" M53.38,30.01 C54.05,46.7 42.83,60.7 28.34,61.27 C13.85,61.85 1.57,48.78 0.91,32.09 C0.25,15.4 11.46,1.4 25.95,0.82 C40.44,0.25 52.72,13.32 53.38,30.01z"></path><g opacity="1" transform="matrix(1,0,0,1,27.14699935913086,31.049999237060547)"><path fill="rgb(0,0,0)" fill-opacity="1" d=" M26.23699951171875,-1.0399999618530273 C26.898000717163086,15.652999877929688 15.687999725341797,29.650999069213867 1.1979999542236328,30.225000381469727 C-13.291999816894531,30.798999786376953 -25.575000762939453,17.73200035095215 -26.236000061035156,1.0390000343322754 C-26.898000717163086,-15.654000282287598 -15.687999725341797,-29.650999069213867 -1.1979999542236328,-30.225000381469727 C13.291999816894531,-30.798999786376953 25.576000213623047,-17.732999801635742 26.23699951171875,-1.0399999618530273z"></path></g></g><g style="display: block;" transform="matrix(0.11809393018484116,0.011151110753417015,-0.009837347082793713,0.10188830643892288,390.67352294921875,233.5970916748047)" opacity="1"><g opacity="1" transform="matrix(1,0,0,1,-23.78700065612793,-45.98099899291992)"><path fill="rgb(255,255,255)" fill-opacity="1" d=" M26.23699951171875,-1.0399999618530273 C26.898000717163086,15.652999877929688 15.687999725341797,29.650999069213867 1.1979999542236328,30.225000381469727 C-13.291999816894531,30.798999786376953 -25.575000762939453,17.73200035095215 -26.236000061035156,1.0390000343322754 C-26.898000717163086,-15.654000282287598 -15.687999725341797,-29.650999069213867 -1.1979999542236328,-30.225000381469727 C13.291999816894531,-30.798999786376953 25.576000213623047,-17.732999801635742 26.23699951171875,-1.0399999618530273z"></path></g></g><g style="display: block;" transform="matrix(1.0612131357192993,0.10020587593317032,-0.08840016275644302,0.9155865907669067,182.47592163085938,190.55987548828125)" opacity="1"><g opacity="1" transform="matrix(1,0,0,1,97.20700073242188,71.1989974975586)"><path fill="rgb(255,92,30)" fill-opacity="1" d=" M101.22000122070312,37.49100112915039 C92.58899688720703,47.672000885009766 43.66400146484375,30.472999572753906 -1.378999948501587,36.14099884033203 C-49.34299850463867,42.17599868774414 -72.09700012207031,52.066001892089844 -81.95899963378906,54.32500076293945 C-102.35099792480469,58.994998931884766 -100.6989974975586,28.02400016784668 -85.20600128173828,22.628999710083008 C-3.691999912261963,-5.755000114440918 -34.41600036621094,-46.18899917602539 -3.941999912261963,-51.520999908447266 C28.722999572753906,-57.236000061035156 2.688999891281128,-4.263000011444092 77.59200286865234,5.64300012588501 C108.03399658203125,9.668999671936035 113.04100036621094,23.547000885009766 101.22000122070312,37.49100112915039z"></path><path stroke-linecap="butt" stroke-linejoin="miter" fill-opacity="0" stroke-miterlimit="10" stroke="rgb(207,53,2)" stroke-opacity="1" stroke-width="6.667" d=" M101.22000122070312,37.49100112915039 C92.58899688720703,47.672000885009766 43.66400146484375,30.472999572753906 -1.378999948501587,36.14099884033203 C-49.34299850463867,42.17599868774414 -72.09700012207031,52.066001892089844 -81.95899963378906,54.32500076293945 C-102.35099792480469,58.994998931884766 -100.6989974975586,28.02400016784668 -85.20600128173828,22.628999710083008 C-3.691999912261963,-5.755000114440918 -34.41600036621094,-46.18899917602539 -3.941999912261963,-51.520999908447266 C28.722999572753906,-57.236000061035156 2.688999891281128,-4.263000011444092 77.59200286865234,5.64300012588501 C108.03399658203125,9.668999671936035 113.04100036621094,23.547000885009766 101.22000122070312,37.49100112915039z"></path></g></g><g style="display: block;" transform="matrix(1.0450094938278198,0.21213527023792267,-0.21827207505702972,0.8986670970916748,204.47535705566406,189.6467742919922)" opacity="1"><g opacity="1" transform="matrix(1,0,0,1,33.59000015258789,24.059999465942383)"><path stroke-linecap="round" stroke-linejoin="round" fill-opacity="0" stroke="rgb(255,180,132)" stroke-opacity="1" stroke-width="8" d=" M-12.032999992370605,70.97100067138672 C4.630000114440918,62.143001556396484 28.80900001525879,48.27899932861328 35.262001037597656,23.926000595092773"></path></g></g><g style="display: block;" transform="matrix(1.0612131357192993,0.10020587593317032,-0.08840016275644302,0.9155865907669067,215.39158630371094,239.37588500976562)" opacity="1"><g opacity="1" transform="matrix(1,0,0,1,64.81900024414062,32.64699935913086)"><path stroke-linecap="round" stroke-linejoin="round" fill-opacity="0" stroke="rgb(125,9,9)" stroke-opacity="1" stroke-width="8" d=" M-85.74700164794922,29.072999954223633 C-17.44499969482422,5.822000026702881 31.20199966430664,5.9029998779296875 89.28199768066406,13.989999771118164"></path></g></g></g><g clip-path="url(#__lottie_element_4)" style="display: none;"><g clip-path="url(#__lottie_element_67)" style="display: none;"><g style="display: none;"><g><path stroke-linecap="round" stroke-linejoin="round" fill-opacity="0"></path></g></g></g><g clip-path="url(#__lottie_element_60)" style="display: none;"><g style="display: none;"><g><path stroke-linecap="round" stroke-linejoin="round" fill-opacity="0"></path></g></g></g><g style="display: none;"><g><path></path><path stroke-linecap="butt" stroke-linejoin="miter" fill-opacity="0" stroke-miterlimit="10"></path></g></g><g style="display: none;"><g><path stroke-linecap="round" stroke-linejoin="round" fill-opacity="0"></path></g><g><path stroke-linecap="round" stroke-linejoin="round" fill-opacity="0"></path></g></g><g style="display: none;"><g><path></path><path stroke-linecap="round" stroke-linejoin="round" fill-opacity="0"></path></g></g><g style="display: none;"><g><path stroke-linecap="round" stroke-linejoin="round" fill-opacity="0"></path></g></g><g style="display: none;"><g><path></path><path stroke-linecap="round" stroke-linejoin="round" fill-opacity="0"></path></g></g><g style="display: none;"><g><path stroke-linecap="round" stroke-linejoin="round" fill-opacity="0"></path></g></g><g style="display: none;"><g><path></path><path stroke-linecap="round" stroke-linejoin="miter" fill-opacity="0" stroke-miterlimit="10"></path></g></g><g style="display: none;"><g><path stroke-linecap="round" stroke-linejoin="round" fill-opacity="0"></path></g></g><g style="display: none;"><g><path stroke-linecap="round" stroke-linejoin="round" fill-opacity="0"></path></g></g><g style="display: none;"><path stroke-linecap="butt" stroke-linejoin="miter" fill-opacity="0" stroke-miterlimit="4"></path><g><path></path></g></g><g style="display: none;"><g><path></path></g></g><g style="display: none;"><path stroke-linecap="butt" stroke-linejoin="miter" fill-opacity="0" stroke-miterlimit="4"></path><g><path></path></g></g><g style="display: none;"><g><path></path></g></g><g style="display: none;"><g><path></path><path stroke-linecap="butt" stroke-linejoin="miter" fill-opacity="0" stroke-miterlimit="10"></path></g></g><g style="display: none;"><g><path stroke-linecap="round" stroke-linejoin="round" fill-opacity="0"></path></g></g><g style="display: none;"><g><path stroke-linecap="round" stroke-linejoin="round" fill-opacity="0"></path></g></g></g></g></svg>