<svg xmlns="http://www.w3.org/2000/svg" xmlns:xlink="http://www.w3.org/1999/xlink" viewBox="0 0 512 512" width="512" height="512" style="width: 100%; height: 100%; transform: translate3d(0,0,0); content-visibility: visible;" preserveAspectRatio="xMidYMid meet"><defs><clipPath id="__lottie_element_2"><rect width="512" height="512" x="0" y="0"></rect></clipPath><clipPath id="__lottie_element_4"><path d="M0,0 L512,0 L512,512 L0,512z"></path></clipPath><linearGradient id="__lottie_element_33" spreadMethod="pad" gradientUnits="userSpaceOnUse" x1="-145.14915466308594" y1="0.6920325756072998" x2="-62.1609992980957" y2="3.2709999084472656"><stop offset="38%" stop-color="rgb(79,134,153)"></stop><stop offset="39%" stop-color="rgb(105,178,204)"></stop><stop offset="39%" stop-color="rgb(131,223,255)"></stop><stop offset="60%" stop-color="rgb(131,223,255)"></stop><stop offset="64%" stop-color="rgb(131,223,255)"></stop><stop offset="65%" stop-color="rgb(105,178,204)"></stop><stop offset="65%" stop-color="rgb(79,134,153)"></stop><stop offset="69%" stop-color="rgb(79,134,153)"></stop><stop offset="74%" stop-color="rgb(79,134,153)"></stop><stop offset="74%" stop-color="rgb(105,178,204)"></stop><stop offset="75%" stop-color="rgb(131,223,255)"></stop><stop offset="78%" stop-color="rgb(131,223,255)"></stop><stop offset="81%" stop-color="rgb(131,223,255)"></stop></linearGradient><clipPath id="__lottie_element_126"><path d="M0,0 L512,0 L512,512 L0,512z"></path></clipPath><clipPath id="__lottie_element_133"><path d="M0,0 L512,0 L512,512 L0,512z"></path></clipPath><clipPath id="__lottie_element_140"><path d="M0,0 L512,0 L512,512 L0,512z"></path></clipPath></defs><g clip-path="url(#__lottie_element_2)"><g clip-path="url(#__lottie_element_4)" style="display: block;" transform="matrix(1,0,0,1,0,0)" opacity="1"><g clip-path="url(#__lottie_element_140)" style="display: block;" transform="matrix(1,0,0,1,5,6)" opacity="1"><g style="display: block;" transform="matrix(1.294345498085022,0,0,1.294345498085022,29.188507080078125,347.8285217285156)" opacity="1"><g opacity="1" transform="matrix(1,0,0,1,176.4949951171875,64.81999969482422)"><path stroke-linecap="round" stroke-linejoin="round" fill-opacity="0" stroke="rgb(3,180,255)" stroke-opacity="1" stroke-width="1.6893432325806197" d=" M151.4949951171875,0 C151.4949951171875,21.992000579833984 83.66899871826172,39.81999969482422 0.0010000000474974513,39.81999969482422 C-83.66699981689453,39.81999969482422 -151.49400329589844,21.992000579833984 -151.49400329589844,0 C-151.49400329589844,-21.992000579833984 -83.66699981689453,-39.81999969482422 0.0010000000474974513,-39.81999969482422 C83.66899871826172,-39.81999969482422 151.4949951171875,-21.992000579833984 151.4949951171875,0z"></path></g></g></g><g clip-path="url(#__lottie_element_133)" style="display: none;"><g style="display: none;"><g><path stroke-linecap="round" stroke-linejoin="round" fill-opacity="0"></path></g></g></g><g clip-path="url(#__lottie_element_126)" style="display: block;" transform="matrix(1,0,0,1,5,6)" opacity="1"><g style="display: none;" transform="matrix(1.5022599697113037,0,0,1.5022599697113037,-7.507354736328125,334.35150146484375)" opacity="1"><g opacity="1" transform="matrix(1,0,0,1,176.4949951171875,64.81999969482422)"><path stroke-linecap="round" stroke-linejoin="round" fill-opacity="0" stroke="rgb(3,180,255)" stroke-opacity="1" stroke-width="0" d=" M151.4949951171875,0 C151.4949951171875,21.992000579833984 83.66899871826172,39.81999969482422 0.0010000000474974513,39.81999969482422 C-83.66699981689453,39.81999969482422 -151.49400329589844,21.992000579833984 -151.49400329589844,0 C-151.49400329589844,-21.992000579833984 -83.66699981689453,-39.81999969482422 0.0010000000474974513,-39.81999969482422 C83.66899871826172,-39.81999969482422 151.4949951171875,-21.992000579833984 151.4949951171875,0z"></path></g></g></g><g style="display: block;" transform="matrix(1.100000023841858,0,0,1.100000023841858,60.547393798828125,212.66299438476562)" opacity="1"><g opacity="1" transform="matrix(1,0,0,1,186.4669952392578,132.3350067138672)"><path fill="rgb(255,213,39)" fill-opacity="1" d=" M-1.277999997138977,102.33499908447266 C-45.50400161743164,102.33499908447266 -155.1479949951172,107.97100067138672 -159.07400512695312,32.071998596191406 C-160.99600219726562,-5.090000152587891 -157.5449981689453,-36.53799819946289 -138.66900634765625,-56.67100143432617 C-114.072998046875,-82.90299987792969 -68.88999938964844,-104.60199737548828 -1.3420000076293945,-104.60199737548828 C8.687000274658203,-104.60199737548828 19.72100067138672,-105.23200225830078 31.40399932861328,-105.89900207519531 C43.76599884033203,-106.6050033569336 56.54999923706055,-107.33499908447266 68.88400268554688,-107.33499908447266 C97.30000305175781,-107.33499908447266 169.8520050048828,-79.302001953125 161.2689971923828,24.211999893188477 C155.73699951171875,90.92500305175781 42.16899871826172,102.33499908447266 -1.277999997138977,102.33499908447266z"></path><path stroke-linecap="butt" stroke-linejoin="miter" fill-opacity="0" stroke-miterlimit="10" stroke="rgb(249,143,22)" stroke-opacity="1" stroke-width="9" d=" M-1.277999997138977,102.33499908447266 C-45.50400161743164,102.33499908447266 -155.1479949951172,107.97100067138672 -159.07400512695312,32.071998596191406 C-160.99600219726562,-5.090000152587891 -157.5449981689453,-36.53799819946289 -138.66900634765625,-56.67100143432617 C-114.072998046875,-82.90299987792969 -68.88999938964844,-104.60199737548828 -1.3420000076293945,-104.60199737548828 C8.687000274658203,-104.60199737548828 19.72100067138672,-105.23200225830078 31.40399932861328,-105.89900207519531 C43.76599884033203,-106.6050033569336 56.54999923706055,-107.33499908447266 68.88400268554688,-107.33499908447266 C97.30000305175781,-107.33499908447266 169.8520050048828,-79.302001953125 161.2689971923828,24.211999893188477 C155.73699951171875,90.92500305175781 42.16899871826172,102.33499908447266 -1.277999997138977,102.33499908447266z"></path></g></g><g style="display: block;" transform="matrix(1.100000023841858,0,0,1.100000023841858,368.15142822265625,331.0141906738281)" opacity="1"><g opacity="1" transform="matrix(1,0,0,1,38.14099884033203,51.553001403808594)"><path stroke-linecap="round" stroke-linejoin="round" fill-opacity="0" stroke="rgb(251,237,32)" stroke-opacity="1" stroke-width="10" d=" M13.114999771118164,-24.641000747680664 C12.555999755859375,-4.539000034332275 3.184000015258789,12.57699966430664 -12.26200008392334,25.80900001525879"></path></g></g><g style="display: block;" transform="matrix(1.100000023841858,0,0,1.100000023841858,38.82678985595703,-5.4912004470825195)" opacity="1"><g opacity="1" transform="matrix(1,0,0,1,194.5469970703125,162.36099243164062)"><path fill="rgb(255,212,39)" fill-opacity="1" d=" M-106.73500061035156,137.36099243164062 C-141.6269989013672,122.61199951171875 -156.5959930419922,84.7300033569336 -160.41099548339844,51.112998962402344 C-169.5469970703125,-29.388999938964844 -105.54000091552734,-116.9209976196289 -15.48900032043457,-127.14099884033203 C74.56199645996094,-137.36099243164062 156.5570068359375,-66.39900207519531 165.6929931640625,14.102999687194824 C169.54800415039062,48.066001892089844 159.8179931640625,78.30000305175781 140.51800537109375,102.67500305175781"></path><g opacity="1" transform="matrix(1,0,0,1,0,0)"></g></g><g opacity="1" transform="matrix(1,0,0,1,194.5469970703125,162.36099243164062)"></g></g><g style="display: block;" transform="matrix(1.0063456296920776,0.0008606384508311749,-0.0008606384508311749,1.0063456296920776,57.18669891357422,19.546171188354492)" opacity="1"><path stroke-linecap="butt" stroke-linejoin="miter" fill-opacity="0" stroke-miterlimit="4" stroke="rgb(216,156,23)" stroke-opacity="1" stroke-width="2.148302529133462" d=" M189.46,64.16 C107.03,73.52 48.44,153.64 56.8,227.33 C60.29,258.1 77.97,293.77 109.91,307.27 C82.93,308.33 72.99,310.31 59.57,327.21 C46.16,344.1 24.3,421.61 120.69,430.06 C217.08,438.5 375.51,438.68 371.6,341.12 C369.98,300.73 355.12,279.48 355.12,279.48 C349.33,271.43 362,265.71 367.37,273.13 C362.74,264.46 361.14,257.91 354.7,253.25 C345.85,265.47 333.92,257.03 343,246.39 C354.27,234.91 356.35,201.41 355.31,193.45 C345.67,119.92 271.89,54.81 189.46,64.16z"></path><g opacity="1" transform="matrix(0.915369987487793,0,0,0.915369987487793,203.63800048828125,180.54200744628906)"><path fill="rgb(216,156,23)" fill-opacity="1" d=" M-15.48900032043457,-127.14099884033203 C-105.54000091552734,-116.9209976196289 -169.5469970703125,-29.388999938964844 -160.41099548339844,51.112998962402344 C-156.5959930419922,84.7300033569336 -137.28500366210938,123.6969985961914 -102.39299774169922,138.4459991455078 C-131.8730010986328,139.6020050048828 -142.72900390625,141.7689971923828 -157.38400268554688,160.2239990234375 C-172.03900146484375,178.6790008544922 -195.9219970703125,263.3580017089844 -90.62100219726562,272.5849914550781 C14.680000305175781,281.81201171875 187.75900268554688,282.0010070800781 183.48599243164062,175.42100524902344 C181.7169952392578,131.29600524902344 165.49000549316406,108.08100128173828 165.49000549316406,108.08100128173828 C159.16400146484375,99.29100036621094 172.99899291992188,93.03700256347656 178.8699951171875,101.1510009765625 C173.81199645996094,91.67900085449219 172.05999755859375,84.51699829101562 165.0279998779297,79.4280014038086 C155.35899353027344,92.77999877929688 142.32400512695312,83.56400299072266 152.25100708007812,71.93199920654297 C164.55799865722656,59.39099884033203 166.83099365234375,22.79400062561035 165.69200134277344,14.102999687194824 C155.1649932861328,-66.22899627685547 74.56199645996094,-137.36099243164062 -15.48900032043457,-127.14099884033203z"></path><g opacity="1" transform="matrix(1,0,0,1,0,0)"></g></g></g><g style="display: block;" transform="matrix(1.0788413286209106,0.21471233665943146,-0.21471233665943146,1.0788413286209106,76.94149017333984,179.17623901367188)" opacity="1"><g opacity="1" transform="matrix(1,0,0,1,27.36400032043457,35.494998931884766)"><path stroke-linecap="round" stroke-linejoin="round" fill-opacity="0" stroke="rgb(255,255,255)" stroke-opacity="1" stroke-width="9" d=" M1.5180000066757202,7.940999984741211 C-0.16699999570846558,2.5929999351501465 -1.409000039100647,-3.0190000534057617 -2.1689999103546143,-8.88599967956543"></path></g></g><g style="display: block;" transform="matrix(1,0,0,1,256,256)" opacity="1"><g opacity="1" transform="matrix(1,0,0,1,7.210000038146973,58.983001708984375)"><path fill="rgb(178,126,10)" fill-opacity="1" d="M0 0"></path></g></g><g style="display: block;" transform="matrix(-0.15926675498485565,1.0884090662002563,-1.0884090662002563,-0.15926675498485565,477.7760009765625,238.553466796875)" opacity="1"><g opacity="1" transform="matrix(1,0,0,1,50.7599983215332,90.95099639892578)"><path fill="rgb(216,156,23)" fill-opacity="1" d=" M75.10800170898438,-11.737000465393066 C48.77899932861328,-6.948999881744385 33.284000396728516,8.484999656677246 35.707000732421875,36.207000732421875 C38.77000045776367,71.26000213623047 17.753999710083008,69.89800262451172 4.797999858856201,45.263999938964844 C-4.531000137329102,27.524999618530273 -20.45508575439453,-27.21599006652832 23.79521942138672,-40.21711730957031"></path></g></g><g style="display: block;" transform="matrix(1.0035444498062134,0.45044246315956116,-0.45044246315956116,1.0035444498062134,291.2882995605469,49.39939880371094)" opacity="1"><g opacity="1" transform="matrix(1,0,0,1,80.86399841308594,71.84300231933594)"><path stroke-linecap="round" stroke-linejoin="round" fill-opacity="0" stroke="rgb(255,213,39)" stroke-opacity="1" stroke-width="20" d=" M28.687000274658203,119.18499755859375 C34.78099822998047,109.09300231933594 59.138999938964844,94.83100128173828 75.46099853515625,93.11000061035156"></path></g></g><g style="display: block;" transform="matrix(-0.15926675498485565,1.0884090662002563,-1.0884090662002563,-0.15926675498485565,477.7760009765625,238.553466796875)" opacity="1"><g opacity="1" transform="matrix(1,0,0,1,50.7599983215332,90.95099639892578)"><path stroke-linecap="round" stroke-linejoin="round" fill-opacity="0" stroke="rgb(192,99,18)" stroke-opacity="1" stroke-width="9" d=" M75.10800170898438,-11.737000465393066 C48.77899932861328,-6.948999881744385 33.284000396728516,8.484999656677246 35.707000732421875,36.207000732421875 C38.77000045776367,71.26000213623047 17.753999710083008,69.89800262451172 4.797999858856201,45.263999938964844 C-4.531000137329102,27.524999618530273 -20.45508575439453,-27.21599006652832 23.79521942138672,-40.21711730957031"></path></g></g><g style="display: none;"><g><path stroke-linecap="round" stroke-linejoin="round" fill-opacity="0"></path></g></g><g style="display: block;" transform="matrix(1.099420428276062,0.03570316731929779,-0.03570316731929779,1.099420428276062,85.7052230834961,28.057357788085938)" opacity="1"><g opacity="1" transform="matrix(1,0,0,1,83.50700378417969,74.21299743652344)"><path stroke-linecap="round" stroke-linejoin="round" fill-opacity="0" stroke="rgb(255,255,255)" stroke-opacity="1" stroke-width="9" d=" M-56.972999572753906,44.40599822998047 C-48.3390007019043,19.093000411987305 -31.573999404907227,-4.343999862670898 -9.215999603271484,-21.54199981689453 C9.071999549865723,-35.60900115966797 31.104000091552734,-45.50199890136719 55.492000579833984,-48.834999084472656"></path></g></g><g style="display: block;" transform="matrix(1.100000023841858,0,0,1.100000023841858,317.6536865234375,64.37860870361328)" opacity="1"><g opacity="1" transform="matrix(1,0,0,1,53.654998779296875,104.30699920654297)"><path stroke-linecap="round" stroke-linejoin="round" fill-opacity="0" stroke="rgb(251,237,32)" stroke-opacity="1" stroke-width="9" d=" M-27.29199981689453,-85.5770034790039 C4.664999961853027,-61.67100143432617 30.23200035095215,-37.86600112915039 39.680999755859375,10.878000259399414"></path></g></g><g style="display: block;" transform="matrix(1.264994502067566,0,0,1.264994502067566,139.88645935058594,168.90731811523438)" opacity="1"><g opacity="1" transform="matrix(1,0,0,1,23.986000061035156,26.033000946044922)"><path fill="rgb(0,0,0)" fill-opacity="1" d=" M18.233999252319336,8.647000312805176 C12.732000350952148,20.249000549316406 0.1080000028014183,25.783000946044922 -9.961999893188477,21.006999969482422 C-20.033000946044922,16.231000900268555 -23.736000061035156,2.9539999961853027 -18.233999252319336,-8.647000312805176 C-12.732000350952148,-20.249000549316406 -0.1080000028014183,-25.783000946044922 9.961999893188477,-21.006999969482422 C20.033000946044922,-16.231000900268555 23.736000061035156,-2.9549999237060547 18.233999252319336,8.647000312805176z"></path><g opacity="1" transform="matrix(1,0,0,1,0,0)"></g></g></g><g style="display: block;" transform="matrix(1.264994502067566,0,0,1.264994502067566,154.1302947998047,185.11822509765625)" opacity="1"><g opacity="1" transform="matrix(1,0,0,1,5.960999965667725,6.453999996185303)"><path fill="rgb(255,255,255)" fill-opacity="1" d=" M4.38700008392334,2.0799999237060547 C3.062999963760376,4.870999813079834 0.026000000536441803,6.203999996185303 -2.3970000743865967,5.053999900817871 C-4.820000171661377,3.9049999713897705 -5.710999965667725,0.7110000252723694 -4.38700008392334,-2.0799999237060547 C-3.062999963760376,-4.870999813079834 -0.026000000536441803,-6.203000068664551 2.3970000743865967,-5.053999900817871 C4.820000171661377,-3.9049999713897705 5.710999965667725,-0.7110000252723694 4.38700008392334,2.0799999237060547z"></path><g opacity="1" transform="matrix(1,0,0,1,0,0)"></g></g></g><g style="display: block;" transform="matrix(1.099998950958252,0,0,1.099998950958252,109.17463684082031,130.17730712890625)" opacity="1"><g opacity="1" transform="matrix(1,0,0,1,58.643001556396484,38.59600067138672)"><path stroke-linecap="round" stroke-linejoin="round" fill-opacity="0" stroke="rgb(0,0,0)" stroke-opacity="1" stroke-width="14" d=" M-33.643001556396484,-13.597000122070312 C-19.51846694946289,-5.922866344451904 9.952332496643066,3.2344748973846436 33.77516555786133,8.891535758972168"></path></g></g><g style="display: block;" transform="matrix(1.264994502067566,0,0,1.264994502067566,311.5268859863281,161.76620483398438)" opacity="1"><g opacity="1" transform="matrix(1,0,0,1,22.634000778198242,24.31999969482422)"><path fill="rgb(0,0,0)" fill-opacity="1" d=" M-16.336000442504883,9.505000114440918 C-10.288000106811523,19.89900016784668 1.9279999732971191,24.06999969482422 10.949999809265137,18.81999969482422 C19.972999572753906,13.571000099182129 22.384000778198242,0.8889999985694885 16.336999893188477,-9.505000114440918 C10.288999557495117,-19.89900016784668 -1.9270000457763672,-24.06999969482422 -10.949999809265137,-18.81999969482422 C-19.972000122070312,-13.571000099182129 -22.384000778198242,-0.8889999985694885 -16.336000442504883,9.505000114440918z"></path><g opacity="1" transform="matrix(1,0,0,1,0,0)"></g></g></g><g style="display: block;" transform="matrix(1.264994502067566,0,0,1.264994502067566,320.5741271972656,179.45208740234375)" opacity="1"><g opacity="1" transform="matrix(1,0,0,1,5.960999965667725,6.453999996185303)"><path fill="rgb(255,255,255)" fill-opacity="1" d=" M4.38700008392334,2.0799999237060547 C3.062999963760376,4.870999813079834 0.026000000536441803,6.203999996185303 -2.3970000743865967,5.053999900817871 C-4.820000171661377,3.9049999713897705 -5.710999965667725,0.7110000252723694 -4.38700008392334,-2.0799999237060547 C-3.062999963760376,-4.870999813079834 -0.026000000536441803,-6.203000068664551 2.3970000743865967,-5.053999900817871 C4.820000171661377,-3.9040000438690186 5.710999965667725,-0.7110000252723694 4.38700008392334,2.0799999237060547z"></path><g opacity="1" transform="matrix(1,0,0,1,0,0)"></g></g></g><g style="display: block;" transform="matrix(1.099998950958252,0,0,1.099998950958252,269.6210632324219,125.26510620117188)" opacity="1"><g opacity="1" transform="matrix(1,0,0,1,61.49700164794922,36.91699981689453)"><path stroke-linecap="round" stroke-linejoin="round" fill-opacity="0" stroke="rgb(0,0,0)" stroke-opacity="1" stroke-width="14" d=" M-36.516902923583984,9.384329795837402 C-11.771631240844727,4.4048686027526855 14.736891746520996,-5.603398323059082 36.47789001464844,-14.450467109680176"></path></g></g><g style="display: block;" transform="matrix(1.100000023841858,0,0,1.100000023841858,181.25148010253906,186.2047119140625)" opacity="1"><g opacity="1" transform="matrix(1,0,0,1,70.47799682617188,43.81800079345703)"><path fill="rgb(216,68,18)" fill-opacity="1" d=" M33.40700149536133,27.715999603271484 C12.020000457763672,22.360000610351562 -8.611000061035156,25.43400001525879 -28.52899932861328,34.09600067138672 C-57.98099899291992,46.904998779296875 -69.49099731445312,14.593999862670898 -42.22800064086914,-0.5130000114440918 C-21.16200065612793,-12.185999870300293 -23.48900032043457,-30.781999588012695 -1.093000054359436,-34.26499938964844 C23.639999389648438,-38.112998962402344 31.209999084472656,-11.112000465393066 46.90399932861328,-7.197999954223633 C74.29199981689453,-0.36800000071525574 69.52999877929688,36.76300048828125 33.40700149536133,27.715999603271484z"></path><g opacity="1" transform="matrix(1,0,0,1,0,0)"></g></g></g><g style="display: block;" transform="matrix(1.1937252283096313,-0.04085142910480499,0.04004218429327011,1.170078158378601,191.5793914794922,330.1485290527344)" opacity="1"><g opacity="1" transform="matrix(1,0,0,1,0,0)"><path stroke-linecap="round" stroke-linejoin="miter" fill-opacity="0" stroke-miterlimit="4" stroke="rgb(255,92,30)" stroke-opacity="1" stroke-width="20.148302529133463" d=" M22.60099983215332,-69.04000091552734 C37.68600082397461,-76.58399963378906 56.59400177001953,-93.9489974975586 57.09400177001953,-103.4489974975586"></path></g></g><g style="display: block;" transform="matrix(1.100000023841858,0,0,1.100000023841858,181.25148010253906,186.2047119140625)" opacity="1"><g opacity="1" transform="matrix(1,0,0,1,70.47799682617188,43.81800079345703)"><path stroke-linecap="butt" stroke-linejoin="miter" fill-opacity="0" stroke-miterlimit="4" stroke="rgb(175,39,1)" stroke-opacity="1" stroke-width="7.27" d=" M33.40700149536133,27.715999603271484 C12.020000457763672,22.360000610351562 -8.611000061035156,25.43400001525879 -28.52899932861328,34.09600067138672 C-57.98099899291992,46.904998779296875 -69.49099731445312,14.593999862670898 -42.22800064086914,-0.5130000114440918 C-21.16200065612793,-12.185999870300293 -23.48900032043457,-30.781999588012695 -1.093000054359436,-34.26499938964844 C23.639999389648438,-38.112998962402344 31.209999084472656,-11.112000465393066 46.90399932861328,-7.197999954223633 C74.29199981689453,-0.36800000071525574 69.52999877929688,36.76300048828125 33.40700149536133,27.715999603271484z"></path><g opacity="1" transform="matrix(1,0,0,1,0,0)"></g></g></g><g style="display: block;" transform="matrix(1.1937252283096313,-0.04085142910480499,0.04004218429327011,1.170078158378601,186.0793914794922,327.6482238769531)" opacity="1"><g opacity="1" transform="matrix(1,0,0,1,0,0)"><path stroke-linecap="round" stroke-linejoin="miter" fill-opacity="0" stroke-miterlimit="4" stroke="rgb(255,180,132)" stroke-opacity="1" stroke-width="5" d=" M28.591999053955078,-72.41799926757812 C39.404998779296875,-79.15699768066406 50.667999267578125,-89.47000122070312 55.12200164794922,-97.58100128173828"></path></g></g><g style="display: block;" transform="matrix(1.100000023841858,0,0,1.100000023841858,211.78639221191406,217.9573211669922)" opacity="1"><g opacity="1" transform="matrix(1,0,0,1,45.516998291015625,27.87700080871582)"><path stroke-linecap="round" stroke-linejoin="round" fill-opacity="0" stroke="rgb(125,9,9)" stroke-opacity="1" stroke-width="9" d=" M-33.69900131225586,5.604000091552734 C-18.051000595092773,-2.1559998989105225 8.312999725341797,-6.247000217437744 30.517000198364258,-1.6770000457763672"></path></g></g><g style="display: block;" transform="matrix(1.100000023841858,0,0,1.100000023841858,60.547393798828125,212.66299438476562)" opacity="1"><g opacity="1" transform="matrix(1,0,0,1,186.4669952392578,132.3350067138672)"><path stroke-linecap="round" stroke-linejoin="round" fill-opacity="0" stroke="rgb(212,106,13)" stroke-opacity="1" stroke-width="9" d=" M135.22900390625,-73.71499633789062 C152.6820068359375,-53.37300109863281 165.11300659179688,-22.150999069213867 161.2689971923828,24.211999893188477 C155.73699951171875,90.92500305175781 42.16899871826172,102.33499908447266 -1.277999997138977,102.33499908447266 C-31.864999771118164,102.33499908447266 -93.74099731445312,105.03099822998047 -130.29600524902344,81.58599853515625"></path></g></g><g style="display: block;" transform="matrix(1.099550485610962,-0.03144305944442749,0.03144305944442749,1.099550485610962,84.21012878417969,306.8783264160156)" opacity="1"><g opacity="1" transform="matrix(1,0,0,1,80.80799865722656,84.25700378417969)"><path fill="rgb(22,57,76)" fill-opacity="1" d=" M-22.45800018310547,-61.75699996948242 C-22.45800018310547,-61.75699996948242 -45.56700134277344,-8.668999671936035 -54.39500045776367,12.23799991607666 C-58.30799865722656,21.503999710083008 -59.87099838256836,51.50699996948242 -50.72999954223633,50.92300033569336 C-48.840999603271484,50.801998138427734 -38.321998596191406,52.21699905395508 -37.441001892089844,50.28200149536133 C-27.01099967956543,27.378000259399414 -11.163000106811523,-8.560999870300293 -11.163000106811523,-8.560999870300293 C-11.163000106811523,-8.560999870300293 -22.45800018310547,-61.75699996948242 -22.45800018310547,-61.75699996948242z"></path><path stroke-linecap="butt" stroke-linejoin="miter" fill-opacity="0" stroke-miterlimit="10" stroke="rgb(0,0,0)" stroke-opacity="1" stroke-width="9" d=" M-22.45800018310547,-61.75699996948242 C-22.45800018310547,-61.75699996948242 -45.56700134277344,-8.668999671936035 -54.39500045776367,12.23799991607666 C-58.30799865722656,21.503999710083008 -59.87099838256836,51.50699996948242 -50.72999954223633,50.92300033569336 C-48.840999603271484,50.801998138427734 -38.321998596191406,52.21699905395508 -37.441001892089844,50.28200149536133 C-27.01099967956543,27.378000259399414 -11.163000106811523,-8.560999870300293 -11.163000106811523,-8.560999870300293 C-11.163000106811523,-8.560999870300293 -22.45800018310547,-61.75699996948242 -22.45800018310547,-61.75699996948242z"></path></g></g><g style="display: block;" transform="matrix(1.003536581993103,0.4504600167274475,-0.4504600167274475,1.003536581993103,90.76449584960938,289.4244079589844)" opacity="1"><g opacity="1" transform="matrix(1,0,0,1,65.78900146484375,66.3740005493164)"><path fill="rgb(216,156,23)" fill-opacity="1" d=" M-46.71799850463867,-51.66600036621094 C-66.24600219726562,-25.73699951171875 -53.65800094604492,8.968999862670898 -41.518001556396484,24.082000732421875 C-26.88800048828125,42.29499816894531 -3.749000072479248,51.3380012512207 12.644000053405762,51.005001068115234 C43.26300048828125,50.38399887084961 66.14900207519531,-4.948999881744385 17.87299919128418,0.8379999995231628 C10.456000328063965,1.7269999980926514 -2.4149999618530273,-0.08100000023841858 -10.590999603271484,-20.209999084472656"></path></g></g><g style="display: block;" transform="matrix(1.003536581993103,0.4504600167274475,-0.4504600167274475,1.003536581993103,199.8294677734375,49.39835739135742)" opacity="1"><g opacity="1" transform="matrix(1,0,0,1,88.0530014038086,78.75800323486328)"><path stroke-linecap="round" stroke-linejoin="round" fill-opacity="0" stroke="rgb(255,213,39)" stroke-opacity="1" stroke-width="31.851697470866537" d=" M-33.183998107910156,258.4440002441406 C-63.17399978637695,236.02200317382812 -66.61900329589844,202.81700134277344 -58.68199920654297,186.66099548339844"></path></g></g><g style="display: block;" transform="matrix(1.003536581993103,0.4504600167274475,-0.4504600167274475,1.003536581993103,199.8294677734375,49.39835739135742)" opacity="1"><g opacity="1" transform="matrix(1,0,0,1,83.50700378417969,74.21299743652344)"><path stroke-linecap="round" stroke-linejoin="round" fill-opacity="0" stroke="rgb(255,255,255)" stroke-opacity="1" stroke-width="9" d=" M-31.052000045776367,260.85699462890625 C-49.2140007019043,254.7050018310547 -67.10399627685547,222.2010040283203 -61.41299819946289,202.83799743652344"></path></g></g><g style="display: block;" transform="matrix(1.003536581993103,0.4504600167274475,-0.4504600167274475,1.003536581993103,90.76449584960938,289.4244079589844)" opacity="1"><g opacity="1" transform="matrix(1,0,0,1,65.78900146484375,66.3740005493164)"><path stroke-linecap="round" stroke-linejoin="round" fill-opacity="0" stroke="rgb(249,143,22)" stroke-opacity="1" stroke-width="9" d=" M-46.71799850463867,-51.66600036621094 C-66.24600219726562,-25.73699951171875 -53.65800094604492,8.968999862670898 -41.518001556396484,24.082000732421875 C-26.88800048828125,42.29499816894531 -3.749000072479248,51.3380012512207 12.644000053405762,51.005001068115234 C43.26300048828125,50.38399887084961 66.14900207519531,-4.948999881744385 17.87299919128418,0.8379999995231628 C10.456000328063965,1.7269999980926514 -2.4149999618530273,-0.08100000023841858 -10.590999603271484,-20.209999084472656"></path></g></g><g style="display: block;" transform="matrix(1.003536581993103,0.4504600167274475,-0.4504600167274475,1.003536581993103,90.76449584960938,289.4244079589844)" opacity="1"><g opacity="1" transform="matrix(1,0,0,1,65.78900146484375,66.3740005493164)"><path stroke-linecap="round" stroke-linejoin="round" fill-opacity="0" stroke="rgb(193,100,18)" stroke-opacity="1" stroke-width="9" d=" M14.791999816894531,50.87200164794922 C44.30099868774414,47.81399917602539 65.01300048828125,-4.813000202178955 17.87299919128418,0.8379999995231628 C10.456000328063965,1.7269999980926514 -2.4149999618530273,-0.08100000023841858 -10.590999603271484,-20.209999084472656"></path></g></g><g style="display: block;" transform="matrix(0.9999989867210388,0,0,0.9999989867210388,256.00006103515625,255.99888610839844)" opacity="1"><g opacity="1" transform="matrix(1,0,0,1,-110.84700012207031,164.08799743652344)"><path fill="rgb(19,135,184)" fill-opacity="1" d=" M9.62600040435791,-34.422000885009766 C9.62600040435791,-34.422000885009766 9.62600040435791,34.422000885009766 9.62600040435791,34.422000885009766 C9.62600040435791,34.422000885009766 -9.62600040435791,34.422000885009766 -9.62600040435791,34.422000885009766 C-9.62600040435791,34.422000885009766 -9.62600040435791,-34.422000885009766 -9.62600040435791,-34.422000885009766 C-9.62600040435791,-34.422000885009766 9.62600040435791,-34.422000885009766 9.62600040435791,-34.422000885009766z"></path></g></g><g style="display: block;" transform="matrix(1.099550485610962,-0.03144305944442749,0.03144305944442749,1.099550485610962,105.34307098388672,196.9311065673828)" opacity="1"><g opacity="1" transform="matrix(1,0,0,1,106.91400146484375,127.94999694824219)"><path fill="url(#__lottie_element_33)" fill-opacity="1" d=" M-81.8239974975586,102.9489974975586 C-81.8239974975586,102.9489974975586 -80.94200134277344,7.578000068664551 -80.94200134277344,7.578000068664551 C-80.94200134277344,7.578000068664551 -8.465999603271484,-102.9489974975586 -8.465999603271484,-102.9489974975586 C-8.625,-87.6780014038086 -9.885000228881836,-72.96499633789062 -10.689000129699707,-56.60900115966797 C-13.710000038146973,4.829999923706055 -40.68199920654297,73.40599822998047 -70.41400146484375,102.02799987792969 C-74.06800079345703,102.37100219726562 -79.50700378417969,102.77899932861328 -81.25900268554688,102.90799713134766 C-81.62000274658203,102.93499755859375 -81.8239974975586,102.9489974975586 -81.8239974975586,102.9489974975586z"></path><path stroke-linecap="butt" stroke-linejoin="miter" fill-opacity="0" stroke-miterlimit="10" stroke="rgb(19,134,183)" stroke-opacity="1" stroke-width="10" d=" M-81.8239974975586,102.9489974975586 C-81.8239974975586,102.9489974975586 -80.94200134277344,7.578000068664551 -80.94200134277344,7.578000068664551 C-80.94200134277344,7.578000068664551 -8.465999603271484,-102.9489974975586 -8.465999603271484,-102.9489974975586 C-8.625,-87.6780014038086 -9.885000228881836,-72.96499633789062 -10.689000129699707,-56.60900115966797 C-13.710000038146973,4.829999923706055 -40.68199920654297,73.40599822998047 -70.41400146484375,102.02799987792969 C-74.06800079345703,102.37100219726562 -79.50700378417969,102.77899932861328 -81.25900268554688,102.90799713134766 C-81.62000274658203,102.93499755859375 -81.8239974975586,102.9489974975586 -81.8239974975586,102.9489974975586z"></path></g></g><g style="display: block;" transform="matrix(1.099550485610962,-0.03144305944442749,0.03144305944442749,1.099550485610962,139.38230895996094,232.91632080078125)" opacity="1"><g opacity="1" transform="matrix(1,0,0,1,77.47899627685547,94.68599700927734)"><path fill="rgb(255,255,255)" fill-opacity="1" d=" M-35.22100067138672,-54.15299987792969 C-35.64500045776367,-16.32699966430664 -32.005001068115234,26.551000595092773 -77.35299682617188,87.52100372314453 C-77.35399627685547,89.4260025024414 -77.2490005493164,91.83499908447266 -76.9489974975586,96.41400146484375 C-75.56800079345703,96.65799713134766 -72.83499908447266,96.50900268554688 -72.28800201416016,96.62300109863281 C-18.114999771118164,24.280000686645508 -14.468999862670898,-39.62799835205078 -14.652000427246094,-87.61499786376953 C-14.652000427246094,-87.61499786376953 -35.22100067138672,-54.15299987792969 -35.22100067138672,-54.15299987792969z"></path><g opacity="1" transform="matrix(1,0,0,1,0,0)"></g></g></g><g style="display: none;" transform="matrix(0.20017768442630768,0,0,0.20017768442630768,211.08892822265625,205.0519256591797)" opacity="1"><g opacity="1" transform="matrix(1,0,0,1,29.71299934387207,29.714000701904297)"><path fill="rgb(255,255,255)" fill-opacity="1" d=" M26.33300018310547,2.8459999561309814 C27.98900032043457,3.003999948501587 29.461999893188477,1.6959999799728394 29.464000701904297,0.032999999821186066 C29.464000701904297,0.02199999988079071 29.464000701904297,0.010999999940395355 29.464000701904297,0 C29.464000701904297,-0.010999999940395355 29.464000701904297,-0.02199999988079071 29.464000701904297,-0.032999999821186066 C29.461999893188477,-1.6970000267028809 27.988000869750977,-3.003999948501587 26.332000732421875,-2.8459999561309814 C10.055999755859375,-1.2940000295639038 1.284000039100647,-9.975000381469727 2.8459999561309814,-26.332000732421875 C3.003999948501587,-27.988000869750977 1.6970000267028809,-29.461000442504883 0.03400000184774399,-29.464000701904297 C0.023000000044703484,-29.464000701904297 0.012000000104308128,-29.464000701904297 0.0010000000474974513,-29.464000701904297 C-0.009999999776482582,-29.464000701904297 -0.023000000044703484,-29.464000701904297 -0.03400000184774399,-29.464000701904297 C-1.6970000267028809,-29.461000442504883 -3.003000020980835,-27.98699951171875 -2.8450000286102295,-26.33099937438965 C-1.2940000295639038,-10.055000305175781 -9.975000381469727,-1.284000039100647 -26.332000732421875,-2.8459999561309814 C-27.98699951171875,-3.003999948501587 -29.461999893188477,-1.6959999799728394 -29.464000701904297,-0.032999999821186066 C-29.464000701904297,-0.02199999988079071 -29.464000701904297,-0.010999999940395355 -29.464000701904297,0 C-29.464000701904297,0.010999999940395355 -29.464000701904297,0.02199999988079071 -29.464000701904297,0.032999999821186066 C-29.461999893188477,1.6970000267028809 -27.98699951171875,3.003999948501587 -26.33099937438965,2.8459999561309814 C-10.050999641418457,1.2940000295639038 -1.284000039100647,9.979999542236328 -2.8450000286102295,26.33300018310547 C-3.003000020980835,27.988000869750977 -1.6959999799728394,29.461000442504883 -0.032999999821186066,29.464000701904297 C-0.02199999988079071,29.464000701904297 -0.009999999776482582,29.464000701904297 0.0010000000474974513,29.464000701904297 C0.012000000104308128,29.464000701904297 0.023000000044703484,29.464000701904297 0.03400000184774399,29.464000701904297 C1.6970000267028809,29.461000442504883 3.003000020980835,27.988000869750977 2.8459999561309814,26.332000732421875 C1.2940000295639038,10.052000045776367 9.979999542236328,1.284999966621399 26.33300018310547,2.8459999561309814z"></path><g opacity="1" transform="matrix(1,0,0,1,0,0)"></g></g></g><g style="display: block;" transform="matrix(1,0,0,1,256,256)" opacity="1"></g><g style="display: block;" transform="matrix(1.100000023841858,0,0,1.100000023841858,38.82678985595703,-5.4912004470825195)" opacity="1"><g opacity="1" transform="matrix(1,0,0,1,194.5469970703125,162.36099243164062)"><g opacity="1" transform="matrix(1,0,0,1,0,0)"></g></g><g opacity="1" transform="matrix(1,0,0,1,194.5469970703125,162.36099243164062)"><path stroke-linecap="round" stroke-linejoin="miter" fill-opacity="0" stroke-miterlimit="10" stroke="rgb(249,143,22)" stroke-opacity="1" stroke-width="10" d=" M-120.4469985961914,129.73699951171875 C-145.66200256347656,111.91600036621094 -157.13900756835938,79.94599914550781 -160.41099548339844,51.112998962402344 C-169.5469970703125,-29.388999938964844 -105.54000091552734,-116.9209976196289 -15.48900032043457,-127.14099884033203 C74.56199645996094,-137.36099243164062 156.5570068359375,-66.39900207519531 165.6929931640625,14.102999687194824 C169.031005859375,43.50899887084961 162.18299865722656,70.11900329589844 147.75900268554688,92.552001953125"></path></g></g><g style="display: block;" transform="matrix(1.100000023841858,0,0,1.100000023841858,38.82678985595703,-5.4912004470825195)" opacity="1"><g opacity="1" transform="matrix(1,0,0,1,194.5469970703125,162.36099243164062)"><path stroke-linecap="round" stroke-linejoin="miter" fill-opacity="0" stroke-miterlimit="10" stroke="rgb(212,106,13)" stroke-opacity="1" stroke-width="10" d=" M162.7100067138672,56.04999923706055 C158.9250030517578,71.81300354003906 152.4080047607422,87.0260009765625 144.1230010986328,100.27899932861328"></path></g></g><g style="display: none;"><g><path stroke-linecap="round" stroke-linejoin="round" fill-opacity="0"></path></g></g></g></g></svg>