<svg xmlns="http://www.w3.org/2000/svg" xmlns:xlink="http://www.w3.org/1999/xlink" viewBox="0 0 512 512" width="512" height="512" style="width: 100%; height: 100%; transform: translate3d(0,0,0); content-visibility: visible;" preserveAspectRatio="xMidYMid meet"><defs><clipPath id="__lottie_element_2"><rect width="512" height="512" x="0" y="0"></rect></clipPath><clipPath id="__lottie_element_4"><path d="M0,0 L512,0 L512,512 L0,512z"></path></clipPath><linearGradient id="__lottie_element_50" spreadMethod="pad" gradientUnits="userSpaceOnUse"><stop></stop><stop></stop><stop></stop><stop></stop><stop></stop><stop></stop><stop></stop></linearGradient><linearGradient id="__lottie_element_51" spreadMethod="pad" gradientUnits="userSpaceOnUse"><stop></stop><stop></stop><stop></stop><stop></stop><stop></stop><stop></stop><stop></stop></linearGradient><linearGradient id="__lottie_element_55" spreadMethod="pad" gradientUnits="userSpaceOnUse"><stop></stop><stop></stop><stop></stop><stop></stop><stop></stop><stop></stop><stop></stop></linearGradient><linearGradient id="__lottie_element_56" spreadMethod="pad" gradientUnits="userSpaceOnUse"><stop></stop><stop></stop><stop></stop><stop></stop><stop></stop><stop></stop><stop></stop></linearGradient><clipPath id="__lottie_element_109"><path d="M0,0 L512,0 L512,512 L0,512z"></path></clipPath><clipPath id="__lottie_element_116"><path d="M0,0 L512,0 L512,512 L0,512z"></path></clipPath><clipPath id="__lottie_element_123"><path d="M0,0 L512,0 L512,512 L0,512z"></path></clipPath><clipPath id="__lottie_element_130"><path d="M0,0 L512,0 L512,512 L0,512z"></path></clipPath></defs><g clip-path="url(#__lottie_element_2)"><g clip-path="url(#__lottie_element_4)" style="display: block;" transform="matrix(1,0,0,1,0,0)" opacity="1"><g clip-path="url(#__lottie_element_130)" style="display: none;"><g style="display: none;"><g><path stroke-linecap="round" stroke-linejoin="round" fill-opacity="0"></path></g></g></g><g clip-path="url(#__lottie_element_123)" style="display: block;" transform="matrix(1,0,0,1,-7,4)" opacity="1"><g style="display: block;" transform="matrix(0.7928717732429504,0,0,0.7928717732429504,117.69610595703125,380.33404541015625)" opacity="1"><g opacity="1" transform="matrix(1,0,0,1,176.4949951171875,64.81999969482422)"><path stroke-linecap="round" stroke-linejoin="round" fill-opacity="0" stroke="rgb(3,180,255)" stroke-opacity="1" stroke-width="8.38218088542568" d=" M151.4949951171875,0 C151.4949951171875,21.992000579833984 83.66899871826172,39.81999969482422 0.0010000000474974513,39.81999969482422 C-83.66699981689453,39.81999969482422 -151.49400329589844,21.992000579833984 -151.49400329589844,0 C-151.49400329589844,-21.992000579833984 -83.66699981689453,-39.81999969482422 0.0010000000474974513,-39.81999969482422 C83.66899871826172,-39.81999969482422 151.4949951171875,-21.992000579833984 151.4949951171875,0z"></path></g></g></g><g clip-path="url(#__lottie_element_116)" style="display: none;"><g style="display: none;"><g><path stroke-linecap="round" stroke-linejoin="round" fill-opacity="0"></path></g></g></g><g clip-path="url(#__lottie_element_109)" style="display: block;" transform="matrix(1,0,0,1,-7,4)" opacity="1"><g style="display: block;" transform="matrix(1.5022599697113037,0,0,1.5022599697113037,-7.507354736328125,334.35150146484375)" opacity="1"><g opacity="1" transform="matrix(1,0,0,1,176.4949951171875,64.81999969482422)"><path stroke-linecap="round" stroke-linejoin="round" fill-opacity="0" stroke="rgb(3,180,255)" stroke-opacity="1" stroke-width="0" d=" M151.4949951171875,0 C151.4949951171875,21.992000579833984 83.66899871826172,39.81999969482422 0.0010000000474974513,39.81999969482422 C-83.66699981689453,39.81999969482422 -151.49400329589844,21.992000579833984 -151.49400329589844,0 C-151.49400329589844,-21.992000579833984 -83.66699981689453,-39.81999969482422 0.0010000000474974513,-39.81999969482422 C83.66899871826172,-39.81999969482422 151.4949951171875,-21.992000579833984 151.4949951171875,0z"></path></g></g></g><g style="display: block;" transform="matrix(1.0492104291915894,0.04071006923913956,-0.04071006923913956,1.0492104291915894,51.25394058227539,185.5271759033203)" opacity="1"><path fill="rgb(255,213,39)" fill-opacity="1" d=" M75.35,252.17 C39.3,241.44 25,205.65 25,174.65 C25,144.14 42.43,113.55 75.41,86.2 C105.15,61.53 145.19,41.74 188.14,30.47 C201.79,26.89 216.31,25 230.14,25 C259.6,25 285.48,33.36 304.99,49.19 C325.44,65.77 338.66,89.93 344.44,121.16 C353.27,116.98 361.97,119.31 367.24,126.82 C386.68,154.53 374.41,236.34 298.59,254.1 C228.26,270.58 137.26,270.58 75.35,252.17z"></path><g opacity="1" transform="matrix(1,0,0,1,205.83900451660156,156.75)"><path stroke-linecap="round" stroke-linejoin="miter" fill-opacity="0" stroke-miterlimit="10" stroke="rgb(249,143,22)" stroke-opacity="1" stroke-width="10" d=" M-130.4929962158203,95.41500091552734 C-166.54299926757812,84.69100189208984 -180.83900451660156,48.895999908447266 -180.83900451660156,17.899999618530273 C-180.83900451660156,-12.612000465393066 -163.40899658203125,-43.196998596191406 -130.43099975585938,-70.55000305175781 C-100.68699645996094,-95.22000122070312 -60.650001525878906,-115.01200103759766 -17.695999145507812,-126.27799987792969 C-4.048999786376953,-129.85800170898438 10.475000381469727,-131.75 24.301000595092773,-131.75 C53.757999420166016,-131.75 79.64099884033203,-123.38600158691406 99.1520004272461,-107.56400299072266 C119.59700012207031,-90.98400115966797 132.82400512695312,-66.822998046875 138.60000610351562,-35.58700180053711 C147.427001953125,-39.77199935913086 156.13299560546875,-37.435001373291016 161.3979949951172,-29.930999755859375 C180.83799743652344,-2.2190001010894775 168.56700134277344,79.58999633789062 92.75499725341797,97.35199737548828 C22.417999267578125,113.83200073242188 -68.58100128173828,113.83200073242188 -130.4929962158203,95.41500091552734z"></path></g></g><g style="display: block;" transform="matrix(1.0492104291915894,0.04071006923913956,-0.04071006923913956,1.0492104291915894,69.20077514648438,280.5739440917969)" opacity="1"><g opacity="1" transform="matrix(1,0,0,1,38.819000244140625,73.84600067138672)"><path stroke-linecap="round" stroke-linejoin="round" fill-opacity="0" stroke="rgb(255,255,255)" stroke-opacity="1" stroke-width="10" d=" M1.3650000095367432,-35.59199905395508 C-8.256999969482422,-23.04400062561035 -13.819000244140625,-8.675999641418457 -13.819000244140625,5.770999908447266 C-13.819000244140625,22.250999450683594 -6.580999851226807,36.32400131225586 5.664999961853027,47.26100158691406"></path></g></g><g style="display: block;" transform="matrix(1.0492104291915894,0.04071006923913956,-0.04071006923913956,1.0492104291915894,346.7343444824219,253.57493591308594)" opacity="1"><g opacity="1" transform="matrix(1,0,0,1,35.28499984741211,48.323001861572266)"><path stroke-linecap="round" stroke-linejoin="round" fill-opacity="0" stroke="rgb(251,237,32)" stroke-opacity="1" stroke-width="10" d=" M10.28600025177002,23.32200050354004 C8.840999603271484,8.119000434875488 3.507999897003174,-6.0980000495910645 -10.28600025177002,-23.32200050354004"></path></g></g><g style="display: block;" transform="matrix(1.0492104291915894,0.04071006923913956,-0.04071006923913956,1.0492104291915894,373.4284973144531,337.9646301269531)" opacity="1"><g opacity="1" transform="matrix(1,0,0,1,35.6879997253418,48.13999938964844)"><path stroke-linecap="round" stroke-linejoin="round" fill-opacity="0" stroke="rgb(251,237,32)" stroke-opacity="1" stroke-width="10" d=" M-9.708999633789062,22.268999099731445 C2.690000057220459,11.062000274658203 7.915999889373779,-0.4050000011920929 10.534000396728516,-21.839000701904297"></path></g></g><g style="display: block;" transform="matrix(1.0362398624420166,0.16943080723285675,-0.16943080723285675,1.0362398624420166,72.88367462158203,-43.5305061340332)" opacity="1"><g opacity="1" transform="matrix(1,0,0,1,196.52099609375,174.67799377441406)"><path fill="rgb(255,212,39)" fill-opacity="1" d=" M139.04600524902344,92.73999786376953 C161.73699951171875,64.84600067138672 171.52099609375,30.104999542236328 164.11500549316406,-7.175000190734863 C148.4239959716797,-86.15599822998047 61.35599899291992,-149.67799377441406 -26.993999481201172,-132.12600708007812 C-115.34500122070312,-114.5739974975586 -171.52099609375,-22.594999313354492 -155.8300018310547,56.38600158691406 C-148.44400024414062,93.56600189208984 -121.86399841308594,132.46499633789062 -89.8550033569336,149.67799377441406"></path><g opacity="1" transform="matrix(1,0,0,1,0,0)"></g></g><g opacity="1" transform="matrix(1,0,0,1,196.52099609375,174.67799377441406)"><path stroke-linecap="round" stroke-linejoin="miter" fill-opacity="0" stroke-miterlimit="10" stroke="rgb(249,143,22)" stroke-opacity="1" stroke-width="10" d=" M139.04600524902344,92.73999786376953 C161.73699951171875,64.84600067138672 171.52099609375,30.104999542236328 164.11500549316406,-7.175000190734863 C148.4239959716797,-86.15599822998047 61.35599899291992,-149.67799377441406 -26.993999481201172,-132.12600708007812 C-115.34500122070312,-114.5739974975586 -171.52099609375,-22.594999313354492 -155.8300018310547,56.38600158691406 C-148.44400024414062,93.56600189208984 -121.86399841308594,132.46499633789062 -89.8550033569336,149.67799377441406"></path></g></g><g style="display: block;" transform="matrix(0.5712406039237976,0.881013035774231,-0.881013035774231,0.5712406039237976,236.10586547851562,-7.362610340118408)" opacity="1"><g opacity="1" transform="matrix(1,0,0,1,49.17599868774414,105.06700134277344)"><path stroke-linecap="round" stroke-linejoin="round" fill-opacity="0" stroke="rgb(255,255,255)" stroke-opacity="1" stroke-width="10" d=" M4.4029998779296875,-75.54100036621094 C-15.897000312805176,-41.67100143432617 -34.34000015258789,56.30699920654297 43.12300109863281,109.22699737548828"></path></g></g><g style="display: block;" transform="matrix(1.0362398624420166,0.16943080723285675,-0.16943080723285675,1.0362398624420166,295.78399658203125,48.036712646484375)" opacity="1"><g opacity="1" transform="matrix(1,0,0,1,71.9540023803711,84.74400329589844)"><path stroke-linecap="round" stroke-linejoin="round" fill-opacity="0" stroke="rgb(251,237,32)" stroke-opacity="1" stroke-width="10" d=" M46.95399856567383,59.74300003051758 C44.59400177001953,31.695999145507812 32.75299835205078,3.5139999389648438 13.333000183105469,-19.091999053955078 C-2.2239999771118164,-37.20100021362305 -22.645999908447266,-51.73099899291992 -46.95399856567383,-59.74300003051758"></path></g></g><g style="display: block;" transform="matrix(1.0337861776351929,-0.1838102787733078,0.1838102787733078,1.0337861776351929,244.00772094726562,144.9373779296875)" opacity="1"><g opacity="1" transform="matrix(1,0,0,1,24.476999282836914,27.06800079345703)"><path fill="rgb(0,0,0)" fill-opacity="1" d=" M20.375999450683594,6.052999973297119 C18.937000274658203,10.895999908447266 16.326000213623047,15.019000053405762 13.034000396728516,18.108999252319336 C7.513999938964844,23.290000915527344 0.07500000298023224,25.569000244140625 -6.974999904632568,23.475000381469727 C-14.95199966430664,21.104000091552734 -20.290000915527344,13.770000457763672 -21.349000930786133,5.083000183105469 C-21.784000396728516,1.5160000324249268 -21.496999740600586,-2.2799999713897705 -20.375999450683594,-6.053999900817871 C-19.34600067138672,-9.520000457763672 -17.716999053955078,-12.616999626159668 -15.666000366210938,-15.230999946594238 C-10.04699993133545,-22.392000198364258 -1.2699999809265137,-25.92300033569336 6.973999977111816,-23.472999572753906 C14.788999557495117,-21.150999069213867 20.070999145507812,-14.065999984741211 21.277999877929688,-5.610000133514404 C21.80900001525879,-1.8910000324249268 21.55299949645996,2.0929999351501465 20.375999450683594,6.052999973297119z"></path><g opacity="1" transform="matrix(1,0,0,1,0,0)"></g></g></g><g style="display: block;" transform="matrix(0.3909882605075836,-0.06951889395713806,0.06951889395713806,0.3909882605075836,262.8356628417969,159.53836059570312)" opacity="1"><g opacity="1" transform="matrix(0.6645900011062622,0,0,0.6645900011062622,25.833999633789062,-7.906000137329102)"><path fill="rgb(255,255,255)" fill-opacity="1" d=" M20.375999450683594,6.052999973297119 C18.937000274658203,10.895999908447266 16.326000213623047,15.019000053405762 13.034000396728516,18.108999252319336 C7.513999938964844,23.290000915527344 0.07500000298023224,25.569000244140625 -6.974999904632568,23.475000381469727 C-14.95199966430664,21.104000091552734 -20.290000915527344,13.770000457763672 -21.349000930786133,5.083000183105469 C-21.784000396728516,1.5160000324249268 -21.496999740600586,-2.2799999713897705 -20.375999450683594,-6.053999900817871 C-19.34600067138672,-9.520000457763672 -17.716999053955078,-12.616999626159668 -15.666000366210938,-15.230999946594238 C-10.04699993133545,-22.392000198364258 -1.2699999809265137,-25.92300033569336 6.973999977111816,-23.472999572753906 C14.788999557495117,-21.150999069213867 20.070999145507812,-14.065999984741211 21.277999877929688,-5.610000133514404 C21.80900001525879,-1.8910000324249268 21.55299949645996,2.0929999351501465 20.375999450683594,6.052999973297119z"></path><g opacity="1" transform="matrix(1,0,0,1,0,0)"></g></g></g><g style="display: none;"><g><path></path><g></g></g></g><g style="display: block;" transform="matrix(0.950389564037323,-0.16257254779338837,0.17704026401042938,1.0349669456481934,123.16580963134766,151.4291534423828)" opacity="1"><g opacity="1" transform="matrix(1,0,0,1,24.476999282836914,27.06800079345703)"><path fill="rgb(0,0,0)" fill-opacity="1" d=" M20.375999450683594,6.052999973297119 C16.52400016784668,19.017000198364258 4.2789998054504395,26.81800079345703 -6.974999904632568,23.475000381469727 C-18.22800064086914,20.131000518798828 -24.226999282836914,6.909999847412109 -20.375999450683594,-6.053999900817871 C-16.52400016784668,-19.01799964904785 -4.2789998054504395,-26.816999435424805 6.973999977111816,-23.472999572753906 C18.226999282836914,-20.1299991607666 24.22800064086914,-6.910999774932861 20.375999450683594,6.052999973297119z"></path><g opacity="1" transform="matrix(1,0,0,1,0,0)"></g></g></g><g style="display: block;" transform="matrix(0.2855769693851471,-0.0570194311439991,0.05750087648630142,0.2946317791938782,138.0960693359375,154.55563354492188)" opacity="1"><g opacity="1" transform="matrix(0.814300000667572,0,0,0.814300000667572,24.476999282836914,27.06800079345703)"><path fill="rgb(255,255,255)" fill-opacity="1" d=" M20.375999450683594,6.052999973297119 C16.52400016784668,19.017000198364258 4.2789998054504395,26.81800079345703 -6.974999904632568,23.475000381469727 C-18.22800064086914,20.131000518798828 -24.226999282836914,6.909999847412109 -20.375999450683594,-6.053999900817871 C-16.52400016784668,-19.01799964904785 -4.2789998054504395,-26.816999435424805 6.973999977111816,-23.472999572753906 C18.226999282836914,-20.1299991607666 24.22800064086914,-6.910999774932861 20.375999450683594,6.052999973297119z"></path><g opacity="1" transform="matrix(1,0,0,1,0,0)"></g></g></g><g style="display: block;" transform="matrix(1.0361747741699219,0.16982868313789368,-0.16982868313789368,1.0361747741699219,129.81288146972656,154.1023712158203)" opacity="1"><g opacity="1" transform="matrix(1,0,0,1,98.04100036621094,61.84400177001953)"><path fill="rgb(255,93,31)" fill-opacity="1" d=" M-78.18299865722656,17.052000045776367 C-75.33499908447266,31.38800048828125 -41.65399932861328,45.176998138427734 -0.6600000262260437,37.03300094604492 C40.33399963378906,28.888999938964844 78.41300201416016,4.660999774932861 73.70700073242188,-19.02400016784668 C71.69300079345703,-29.16200065612793 53.207000732421875,-29.027999877929688 36.62300109863281,-25.402999877929688 C7.697000026702881,-19.08099937438965 5.175000190734863,-45.176998138427734 -16.174999237060547,-40.93600082397461 C-40.00600051879883,-36.20199966430664 -39.180999755859375,-2.7929999828338623 -60.066001892089844,-2.6649999618530273 C-79.91100311279297,-2.5429999828338623 -79.4000015258789,10.925000190734863 -78.18299865722656,17.052000045776367z"></path><path stroke-linecap="round" stroke-linejoin="round" fill-opacity="0" stroke="rgb(207,53,2)" stroke-opacity="1" stroke-width="8" d=" M-78.18299865722656,17.052000045776367 C-75.33499908447266,31.38800048828125 -41.65399932861328,45.176998138427734 -0.6600000262260437,37.03300094604492 C40.33399963378906,28.888999938964844 78.41300201416016,4.660999774932861 73.70700073242188,-19.02400016784668 C71.69300079345703,-29.16200065612793 53.207000732421875,-29.027999877929688 36.62300109863281,-25.402999877929688 C7.697000026702881,-19.08099937438965 5.175000190734863,-45.176998138427734 -16.174999237060547,-40.93600082397461 C-40.00600051879883,-36.20199966430664 -39.180999755859375,-2.7929999828338623 -60.066001892089844,-2.6649999618530273 C-79.91100311279297,-2.5429999828338623 -79.4000015258789,10.925000190734863 -78.18299865722656,17.052000045776367z"></path></g></g><g style="display: block;" transform="matrix(1.0361747741699219,0.16982868313789368,-0.16982868313789368,1.0361747741699219,138.2378692626953,188.30044555664062)" opacity="1"><g opacity="1" transform="matrix(1,0,0,1,81.50399780273438,36.75899887084961)"><path stroke-linecap="round" stroke-linejoin="round" fill-opacity="0" stroke="rgb(125,9,9)" stroke-opacity="1" stroke-width="7.2" d=" M63.50400161743164,-18.760000228881836 C33.51900100708008,7.258999824523926 -28.047000885009766,18.759000778198242 -63.50400161743164,11.89799976348877"></path></g></g><g style="display: block;" transform="matrix(1.0361747741699219,0.16982868313789368,-0.16982868313789368,1.0361747741699219,156.6316680908203,191.49928283691406)" opacity="1"><g opacity="1" transform="matrix(1,0,0,1,24.70599937438965,22.10700035095215)"><path stroke-linecap="round" stroke-linejoin="round" fill-opacity="0" stroke="rgb(255,180,132)" stroke-opacity="1" stroke-width="8" d=" M-18.325000762939453,16.07200050354004 C-1.2059999704360962,16.559999465942383 7.906000137329102,6.4730000495910645 19.09000015258789,-15.868000030517578"></path></g></g><g style="display: block;" transform="matrix(1.0440431833267212,-0.1116866022348404,0.1116866022348404,1.0440431833267212,356.32012939453125,122.21638488769531)" opacity="1"><path stroke-linecap="round" stroke-linejoin="round" fill-opacity="0" stroke="rgb(0,0,0)" stroke-opacity="1" stroke-width="16" d=" M63.54,20.78 C63.54,20.78 14.54,0.25 14.54,0.25 C14.54,0.25 0.25,40.84 0.25,40.84 C0.25,40.84 56.49,43.77 56.49,43.77 C60.64,44.13 64.15,41.25 64.78,39.47 C64.78,39.47 68.2,29.75 68.2,29.75 C69.63,25.68 67.58,22.61 63.54,20.78z"></path><g opacity="1" transform="matrix(1,0,0,1,34.94200134277344,22.058000564575195)"><path fill="rgb(22,57,76)" fill-opacity="1" d=" M28.60099983215332,-1.2799999713897705 C28.60099983215332,-1.2799999713897705 -20.399999618530273,-21.80699920654297 -20.399999618530273,-21.80699920654297 C-20.399999618530273,-21.80699920654297 -34.69200134277344,18.780000686645508 -34.69200134277344,18.780000686645508 C-34.69200134277344,18.780000686645508 21.552000045776367,21.711999893188477 21.552000045776367,21.711999893188477 C25.701000213623047,22.072999954223633 29.208999633789062,19.194000244140625 29.836999893188477,17.40999984741211 C29.836999893188477,17.40999984741211 33.26100158691406,7.688000202178955 33.26100158691406,7.688000202178955 C34.69200134277344,3.621999979019165 32.6349983215332,0.5550000071525574 28.60099983215332,-1.2799999713897705z"></path><g opacity="1" transform="matrix(1,0,0,1,0,0)"></g></g></g><g style="display: block;" transform="matrix(1.0440431833267212,-0.1116866022348404,0.1116866022348404,1.0440431833267212,40.097450256347656,98.39777374267578)" opacity="1"><path stroke-linecap="round" stroke-linejoin="round" fill-opacity="0" stroke="rgb(0,0,0)" stroke-opacity="1" stroke-width="16" d=" M166.71,21.15 C164.03,21.39 54.6,6.23 13.15,0.96 C7.57,0.25 2.23,5.12 0.95,12.08 C0.95,12.08 0.91,12.3 0.91,12.3 C0.25,15.88 0.7,19.51 2.21,22.43 C15.19,47.46 14.07,82.78 20.69,101.69 C23.29,109.09 28.86,114.05 35.41,114.77 C35.41,114.77 109.08,123.24 109.08,123.24 C117.42,124.15 125.6,118.06 129.17,108.27 C129.17,108.27 145.11,64.61 145.11,64.61 C148.2,56.13 155.33,50.94 162.53,51.91 C162.53,51.91 166.71,21.15 166.71,21.15z M166.73,21.08 C169.25,22.03 277.74,36.72 319.08,42.71 C324.66,43.52 328.5,49.64 327.88,56.7 C327.88,56.7 327.86,56.91 327.86,56.91 C327.53,60.53 326.13,63.92 323.9,66.33 C304.7,86.98 296.35,121.31 284.91,137.77 C280.43,144.21 273.74,147.5 267.23,146.44 C267.23,146.44 193.98,134.92 193.98,134.92 C185.7,133.58 179.45,125.52 178.62,115.13 C178.62,115.13 174.92,68.8 174.92,68.8 C174.21,59.81 168.9,52.75 161.7,51.78 C161.7,51.78 165.8,22.7 165.8,22.7 C165.8,22.7 166.73,21.08 166.73,21.08z"></path><g opacity="1" transform="matrix(1,0,0,1,83.48100280761719,62.20100021362305)"><path fill="rgb(4,51,68)" fill-opacity="1" d=" M83.23200225830078,-41.055999755859375 C80.55000305175781,-40.814998626708984 -28.881999969482422,-55.96900177001953 -70.3270034790039,-61.2400016784668 C-75.91300201416016,-61.95100021362305 -81.25299835205078,-57.08399963378906 -82.53500366210938,-50.11600112915039 C-82.53500366210938,-50.11600112915039 -82.572998046875,-49.90599822998047 -82.572998046875,-49.90599822998047 C-83.23200225830078,-46.32600021362305 -82.78500366210938,-42.6870002746582 -81.27300262451172,-39.770999908447266 C-68.29000091552734,-14.739999771118164 -69.41200256347656,20.575000762939453 -62.78799819946289,39.49100112915039 C-60.19599914550781,46.893001556396484 -54.625999450683594,51.847999572753906 -48.069000244140625,52.56700134277344 C-48.069000244140625,52.56700134277344 25.59600067138672,61.0359992980957 25.59600067138672,61.0359992980957 C33.93899917602539,61.95100021362305 42.11399841308594,55.861000061035156 45.68899917602539,46.064998626708984 C45.68899917602539,46.064998626708984 61.624000549316406,2.4079999923706055 61.624000549316406,2.4079999923706055 C64.71800231933594,-6.067999839782715 71.85099792480469,-11.265000343322754 79.0459976196289,-10.28600025177002 C79.0459976196289,-10.28600025177002 83.23200225830078,-41.055999755859375 83.23200225830078,-41.055999755859375z"></path><g opacity="1" transform="matrix(1,0,0,1,0,0)"></g></g><g opacity="1" transform="matrix(1,0,0,1,245.01400756835938,84.3219985961914)"><path fill="rgb(4,51,68)" fill-opacity="1" d=" M-78.28800201416016,-63.242000579833984 C-75.76799774169922,-62.29399871826172 32.72100067138672,-47.5989990234375 74.06900024414062,-41.608001708984375 C79.64199829101562,-40.79999923706055 83.48699951171875,-34.683998107910156 82.86100006103516,-27.625999450683594 C82.86100006103516,-27.625999450683594 82.84200286865234,-27.413999557495117 82.84200286865234,-27.413999557495117 C82.5199966430664,-23.788000106811523 81.11799621582031,-20.400999069213867 78.88099670410156,-17.993999481201172 C59.68299865722656,2.6589999198913574 51.332000732421875,36.9900016784668 39.89500045776367,53.44900131225586 C35.41899871826172,59.88999938964844 28.729000091552734,63.176998138427734 22.218000411987305,62.11899948120117 C22.218000411987305,62.11899948120117 -51.03200149536133,50.60100173950195 -51.03200149536133,50.60100173950195 C-59.316001892089844,49.25400161743164 -65.56600189208984,41.20199966430664 -66.3949966430664,30.80699920654297 C-66.3949966430664,30.80699920654297 -70.08999633789062,-15.520000457763672 -70.08999633789062,-15.520000457763672 C-70.80699920654297,-24.514999389648438 -76.11900329589844,-31.566999435424805 -83.31500244140625,-32.54600143432617 C-83.31500244140625,-32.54600143432617 -79.21399688720703,-61.624000549316406 -79.21399688720703,-61.624000549316406 C-79.21399688720703,-61.624000549316406 -78.28800201416016,-63.242000579833984 -78.28800201416016,-63.242000579833984z"></path><g opacity="1" transform="matrix(1,0,0,1,0,0)"></g></g></g><g style="display: block;" transform="matrix(1.0440431833267212,-0.1116866022348404,0.1116866022348404,1.0440431833267212,40.097450256347656,98.39777374267578)" opacity="1"><g opacity="1" transform="matrix(1,0,0,1,83.48100280761719,62.20100021362305)"><path fill="rgb(22,57,76)" fill-opacity="1" d=" M83.23200225830078,-41.055999755859375 C80.55000305175781,-40.814998626708984 -28.881999969482422,-55.96900177001953 -70.3270034790039,-61.2400016784668 C-75.91300201416016,-61.95100021362305 -81.25299835205078,-57.08399963378906 -82.53500366210938,-50.11600112915039 C-82.53500366210938,-50.11600112915039 -82.572998046875,-49.90599822998047 -82.572998046875,-49.90599822998047 C-83.23200225830078,-46.32600021362305 -82.78500366210938,-42.6870002746582 -81.27300262451172,-39.770999908447266 C-68.29000091552734,-14.739999771118164 -69.41200256347656,20.575000762939453 -62.78799819946289,39.49100112915039 C-60.19599914550781,46.893001556396484 -54.625999450683594,51.847999572753906 -48.069000244140625,52.56700134277344 C-48.069000244140625,52.56700134277344 25.59600067138672,61.0359992980957 25.59600067138672,61.0359992980957 C33.93899917602539,61.95100021362305 42.11399841308594,55.861000061035156 45.68899917602539,46.064998626708984 C45.68899917602539,46.064998626708984 61.624000549316406,2.4079999923706055 61.624000549316406,2.4079999923706055 C64.71800231933594,-6.067999839782715 71.85099792480469,-11.265000343322754 79.0459976196289,-10.28600025177002 C79.0459976196289,-10.28600025177002 83.23200225830078,-41.055999755859375 83.23200225830078,-41.055999755859375z"></path><g opacity="1" transform="matrix(1,0,0,1,0,0)"></g></g><g opacity="1" transform="matrix(1,0,0,1,245.01400756835938,84.3219985961914)"><path fill="rgb(22,57,76)" fill-opacity="1" d=" M-78.28800201416016,-63.242000579833984 C-75.76799774169922,-62.29399871826172 32.72100067138672,-47.5989990234375 74.06900024414062,-41.608001708984375 C79.64199829101562,-40.79999923706055 83.48699951171875,-34.683998107910156 82.86100006103516,-27.625999450683594 C82.86100006103516,-27.625999450683594 82.84200286865234,-27.413999557495117 82.84200286865234,-27.413999557495117 C82.5199966430664,-23.788000106811523 81.11799621582031,-20.400999069213867 78.88099670410156,-17.993999481201172 C59.68299865722656,2.6589999198913574 51.332000732421875,36.9900016784668 39.89500045776367,53.44900131225586 C35.41899871826172,59.88999938964844 28.729000091552734,63.176998138427734 22.218000411987305,62.11899948120117 C22.218000411987305,62.11899948120117 -51.03200149536133,50.60100173950195 -51.03200149536133,50.60100173950195 C-59.316001892089844,49.25400161743164 -65.56600189208984,41.20199966430664 -66.3949966430664,30.80699920654297 C-66.3949966430664,30.80699920654297 -70.08999633789062,-15.520000457763672 -70.08999633789062,-15.520000457763672 C-70.80699920654297,-24.514999389648438 -76.11900329589844,-31.566999435424805 -83.31500244140625,-32.54600143432617 C-83.31500244140625,-32.54600143432617 -79.21399688720703,-61.624000549316406 -79.21399688720703,-61.624000549316406 C-79.21399688720703,-61.624000549316406 -78.28800201416016,-63.242000579833984 -78.28800201416016,-63.242000579833984z"></path><g opacity="1" transform="matrix(1,0,0,1,0,0)"></g></g></g><g style="display: block;" transform="matrix(1.0440431833267212,-0.1116866022348404,0.1116866022348404,1.0440431833267212,259.56787109375,121.9474105834961)" opacity="1"><g opacity="1" transform="matrix(1,0,0,1,37.99399948120117,42.13100051879883)"><path fill="rgb(0,0,0)" fill-opacity="1" d=" M48.25699996948242,-36.45399856567383 C20.371999740600586,-40.48400115966797 -8.90999984741211,-43.571998596191406 -35.742000579833984,-45.87699890136719 C-56.86199951171875,-47.691001892089844 -55.83700180053711,-41.595001220703125 -55.00400161743164,-26.10300064086914 C-54.17900085449219,-10.746999740600586 -53.06800079345703,4.416999816894531 -50.64099884033203,19.823999404907227 C-47.808998107910156,37.80400085449219 -39.26100158691406,38.47999954223633 -29.202999114990234,40.68299865722656 C-15.321999549865723,43.7239990234375 -3.2179999351501465,46.314998626708984 12.923999786376953,47.595001220703125 C28.118999481201172,48.79999923706055 31.010000228881836,41.92599868774414 35.654998779296875,33.84400177001953 C44.41699981689453,18.599000930786133 52.32600021362305,1.5839999914169312 59.47700119018555,-14.968999862670898 C62.680999755859375,-22.38599967956543 61.2239990234375,-34.58000183105469 48.25699996948242,-36.45399856567383z"></path></g><g opacity="1" transform="matrix(1,0,0,1,70.5739974975586,46.5629997253418)"><path fill="rgb(0,0,0)" fill-opacity="1" d=" M-153.57200622558594,-63.45000076293945 C-181.37899780273438,-68.63300323486328 -209.15499877929688,-72.41699981689453 -237.4669952392578,-76.19200134277344 C-252.11900329589844,-78.1449966430664 -258.5950012207031,-73.57099914550781 -256.3840026855469,-58.34600067138672 C-253.77099609375,-40.35200119018555 -249.3699951171875,-22.659000396728516 -246.24400329589844,-4.747000217437744 C-243.4720001220703,11.137999534606934 -237.7050018310547,13.190999984741211 -225.68899536132812,15.029999732971191 C-211.02200317382812,17.274999618530273 -196.1219940185547,17.615999221801758 -181.38099670410156,19.31100082397461 C-163.39300537109375,21.3799991607666 -162.0330047607422,13.144000053405762 -158.3040008544922,3.934000015258789 C-151.96099853515625,-11.732000350952148 -146.4759979248047,-27.743999481201172 -141.34300231933594,-43.84700012207031 C-136.63800048828125,-58.608001708984375 -142.56500244140625,-61.39799880981445 -153.57200622558594,-63.45000076293945z"></path></g></g><g style="display: none;"><g><path fill="url(#__lottie_element_55)"></path></g><g><path fill="url(#__lottie_element_56)"></path></g></g><g style="display: none;"><g><path fill="url(#__lottie_element_50)"></path></g><g><path fill="url(#__lottie_element_51)"></path></g></g><g style="display: block;" transform="matrix(1.0440431833267212,-0.1116866022348404,0.1116866022348404,1.0440431833267212,259.56787109375,121.9474105834961)" opacity="1"><path stroke-linecap="butt" stroke-linejoin="miter" fill-opacity="0" stroke-miterlimit="4" stroke="rgb(0,0,0)" stroke-opacity="1" stroke-width="5" d=" M86.25,5.68 C58.37,1.65 29.08,-1.44 2.25,-3.75 C-18.87,-5.56 -17.84,0.54 -17.01,16.03 C-16.19,31.38 -15.07,46.55 -12.65,61.95 C-9.81,79.94 -1.27,80.61 8.79,82.81 C22.67,85.85 34.78,88.45 50.92,89.73 C66.11,90.93 69,84.06 73.65,75.98 C82.41,60.73 90.32,43.72 97.47,27.16 C100.67,19.75 99.22,7.55 86.25,5.68z M-83,-16.89 C-110.81,-22.07 -138.58,-25.85 -166.89,-29.63 C-181.55,-31.58 -188.02,-27.01 -185.81,-11.78 C-183.2,6.21 -178.8,23.9 -175.67,41.82 C-172.9,57.7 -167.13,59.75 -155.11,61.59 C-140.45,63.84 -125.55,64.18 -110.81,65.87 C-92.82,67.94 -91.46,59.71 -87.73,50.5 C-81.39,34.83 -75.9,18.82 -70.77,2.72 C-66.06,-12.05 -71.99,-14.83 -83,-16.89z"></path><g opacity="1" transform="matrix(1,0,0,1,37.99399948120117,42.13100051879883)"></g><g opacity="1" transform="matrix(1,0,0,1,70.5739974975586,46.5629997253418)"></g></g><g style="display: block;" transform="matrix(0.9942392110824585,0.10718381404876709,-0.10718381404876709,0.9942392110824585,313.52294921875,171.12533569335938)" opacity="1"><path fill="rgb(255,213,39)" fill-opacity="1" d=" M82.33,175.36 C111.31,145.74 100.92,102.68 78.09,72.72 C60.57,49.71 43.32,48.03 33.64,53.03 C26.64,56.65 23.02,65.82 30.34,80.01 C36.3,91.55 40.33,115.19 25,122.57"></path><g opacity="1" transform="matrix(1,0,0,1,74.38400268554688,100.1780014038086)"><path stroke-linecap="round" stroke-linejoin="miter" fill-opacity="0" stroke-miterlimit="10" stroke="rgb(249,143,22)" stroke-opacity="1" stroke-width="10" d=" M7.947000026702881,75.1780014038086 C36.92300033569336,45.55799865722656 26.53499984741211,2.5 3.7100000381469727,-27.45800018310547 C-13.817999839782715,-50.4640007019043 -31.06599998474121,-52.145999908447266 -40.7400016784668,-47.14899826049805 C-47.74399948120117,-43.529998779296875 -51.3650016784668,-34.36199951171875 -44.04100036621094,-20.17099952697754 C-38.08300018310547,-8.628000259399414 -34.05799865722656,15.008999824523926 -49.38399887084961,22.38800048828125"></path></g></g><g style="display: block;" transform="matrix(0.9942392110824585,0.10718381404876709,-0.10718381404876709,0.9942392110824585,355.8070373535156,197.27212524414062)" opacity="1"><g opacity="1" transform="matrix(1,0,0,1,50.67499923706055,82.63500213623047)"><path stroke-linecap="round" stroke-linejoin="round" fill-opacity="0" stroke="rgb(251,237,32)" stroke-opacity="1" stroke-width="10" d=" M-21.698999404907227,59.40999984741211 C-7.718999862670898,42.6879997253418 -0.3619999885559082,6.083000183105469 -36.75899887084961,-33.61600112915039"></path></g></g><g style="display: block;" transform="matrix(1.0492104291915894,0.04071006923913956,-0.04071006923913956,1.0492104291915894,94.98735809326172,295.3556213378906)" opacity="1"><g opacity="1" transform="matrix(1,0,0,1,66.02999877929688,75.60199737548828)"><path fill="rgb(255,212,39)" fill-opacity="1" d=" M13.984000205993652,-50.60200119018555 C23.243999481201172,-7.571000099182129 41.02899932861328,34.47800064086914 24.33300018310547,42.540000915527344 C7.63700008392334,50.60200119018555 -33.40399932861328,26.743999481201172 -41.029998779296875,-31.538000106811523"></path><g opacity="1" transform="matrix(1,0,0,1,0,0)"></g></g><g opacity="1" transform="matrix(1,0,0,1,66.02999877929688,75.60199737548828)"><path stroke-linecap="round" stroke-linejoin="miter" fill-opacity="0" stroke-miterlimit="10" stroke="rgb(249,143,22)" stroke-opacity="1" stroke-width="10" d=" M13.984000205993652,-50.60200119018555 C23.243999481201172,-7.571000099182129 41.02899932861328,34.47800064086914 24.33300018310547,42.540000915527344 C7.63700008392334,50.60200119018555 -33.40399932861328,26.743999481201172 -41.029998779296875,-31.538000106811523"></path></g></g><g style="display: block;" transform="matrix(1.0492104291915894,0.04071006923913956,-0.04071006923913956,1.0492104291915894,114.2985610961914,151.6654052734375)" opacity="1"><g opacity="1" transform="matrix(1,0,0,1,34.15299987792969,200.58700561523438)"><path stroke-linecap="round" stroke-linejoin="round" fill-opacity="0" stroke="rgb(255,255,255)" stroke-opacity="1" stroke-width="10" d=" M-9.010000228881836,-22.159000396728516 C-7.697000026702881,-11.637999534606934 -2.7200000286102295,7.375 8.388999938964844,22.4060001373291"></path></g></g><g style="display: block;" transform="matrix(0.9800567030906677,-0.19871798157691956,0.19871798157691956,0.9800567030906677,99.16302490234375,263.13323974609375)" opacity="1"><g opacity="1" transform="matrix(1,0,0,1,246.4770050048828,41.51499938964844)"><path stroke-linecap="round" stroke-linejoin="round" fill-opacity="0" stroke="rgb(255,255,255)" stroke-opacity="1" stroke-width="10" d=" M0.06599999964237213,20.076000213623047 C1.9010000228881836,11.279000282287598 3.0789999961853027,1.3980000019073486 0.029999999329447746,-10.812999725341797"></path></g><g opacity="1" transform="matrix(1,0,0,1,236.0919952392578,79.53500366210938)"><path stroke-linecap="round" stroke-linejoin="round" fill-opacity="0" stroke="rgb(255,255,255)" stroke-opacity="1" stroke-width="10" d=" M-5.744999885559082,5.255000114440918 C-1.9079999923706055,3.434999942779541 1.4040000438690186,0.6700000166893005 3.7200000286102295,-3.246999979019165"></path></g></g><g style="display: block;" transform="matrix(1.1297942399978638,0,0,1.1297942399978638,438.4662780761719,177.42929077148438)" opacity="1"><g opacity="1" transform="matrix(1,0,0,1,29.71299934387207,29.714000701904297)"><path fill="rgb(251,237,32)" fill-opacity="1" d=" M26.33300018310547,2.8459999561309814 C27.98900032043457,3.003999948501587 29.461999893188477,1.6959999799728394 29.464000701904297,0.032999999821186066 C29.464000701904297,0.02199999988079071 29.464000701904297,0.010999999940395355 29.464000701904297,0 C29.464000701904297,-0.010999999940395355 29.464000701904297,-0.02199999988079071 29.464000701904297,-0.032999999821186066 C29.461999893188477,-1.6970000267028809 27.988000869750977,-3.003999948501587 26.332000732421875,-2.8459999561309814 C10.055999755859375,-1.2940000295639038 1.284000039100647,-9.975000381469727 2.8459999561309814,-26.332000732421875 C3.003999948501587,-27.988000869750977 1.6970000267028809,-29.461000442504883 0.03400000184774399,-29.464000701904297 C0.023000000044703484,-29.464000701904297 0.012000000104308128,-29.464000701904297 0.0010000000474974513,-29.464000701904297 C-0.009999999776482582,-29.464000701904297 -0.023000000044703484,-29.464000701904297 -0.03400000184774399,-29.464000701904297 C-1.6970000267028809,-29.461000442504883 -3.003000020980835,-27.98699951171875 -2.8450000286102295,-26.33099937438965 C-1.2940000295639038,-10.055000305175781 -9.975000381469727,-1.284000039100647 -26.332000732421875,-2.8459999561309814 C-27.98699951171875,-3.003999948501587 -29.461999893188477,-1.6959999799728394 -29.464000701904297,-0.032999999821186066 C-29.464000701904297,-0.02199999988079071 -29.464000701904297,-0.010999999940395355 -29.464000701904297,0 C-29.464000701904297,0.010999999940395355 -29.464000701904297,0.02199999988079071 -29.464000701904297,0.032999999821186066 C-29.461999893188477,1.6970000267028809 -27.98699951171875,3.003999948501587 -26.33099937438965,2.8459999561309814 C-10.050999641418457,1.2940000295639038 -1.284000039100647,9.979999542236328 -2.8450000286102295,26.33300018310547 C-3.003000020980835,27.988000869750977 -1.6959999799728394,29.461000442504883 -0.032999999821186066,29.464000701904297 C-0.02199999988079071,29.464000701904297 -0.009999999776482582,29.464000701904297 0.0010000000474974513,29.464000701904297 C0.012000000104308128,29.464000701904297 0.023000000044703484,29.464000701904297 0.03400000184774399,29.464000701904297 C1.6970000267028809,29.461000442504883 3.003000020980835,27.988000869750977 2.8459999561309814,26.332000732421875 C1.2940000295639038,10.052000045776367 9.979999542236328,1.284999966621399 26.33300018310547,2.8459999561309814z"></path><g opacity="1" transform="matrix(1,0,0,1,0,0)"></g></g></g><g style="display: none;"><g><path></path><g></g></g></g><g style="display: block;" transform="matrix(0.34038934111595154,0,0,0.34038934111595154,436.9126892089844,293.7076721191406)" opacity="1"><g opacity="1" transform="matrix(1,0,0,1,15.682000160217285,15.682999610900879)"><path fill="rgb(255,255,255)" fill-opacity="1" d=" M13.793000221252441,1.4900000095367432 C14.65999984741211,1.5729999542236328 15.430999755859375,0.8889999985694885 15.432000160217285,0.017999999225139618 C15.432000160217285,0.012000000104308128 15.432000160217285,0.004999999888241291 15.432000160217285,-0.0010000000474974513 C15.432000160217285,-0.0010000000474974513 15.432000160217285,-0.017999999225139618 15.432000160217285,-0.017999999225139618 C15.430999755859375,-0.8889999985694885 14.65999984741211,-1.5729999542236328 13.791999816894531,-1.4900000095367432 C5.267000198364258,-0.6779999732971191 0.6740000247955322,-5.224999904632568 1.4910000562667847,-13.791999816894531 C1.5740000009536743,-14.659000396728516 0.8880000114440918,-15.430999755859375 0.017000000923871994,-15.432000160217285 C0.010999999940395355,-15.432000160217285 0.004999999888241291,-15.432000160217285 0,-15.432000160217285 C-0.006000000052154064,-15.432000160217285 -0.012000000104308128,-15.432000160217285 -0.017999999225139618,-15.432000160217285 C-0.8889999985694885,-15.430999755859375 -1.5740000009536743,-14.65999984741211 -1.4910000562667847,-13.791999816894531 C-0.6779999732971191,-5.267000198364258 -5.224999904632568,-0.671999990940094 -13.793000221252441,-1.4900000095367432 C-14.65999984741211,-1.5729999542236328 -15.430000305175781,-0.8889999985694885 -15.432000160217285,-0.017999999225139618 C-15.432000160217285,-0.017999999225139618 -15.432000160217285,-0.0010000000474974513 -15.432000160217285,-0.0010000000474974513 C-15.432000160217285,0.004999999888241291 -15.432000160217285,0.012000000104308128 -15.432000160217285,0.017999999225139618 C-15.430000305175781,0.8889999985694885 -14.659000396728516,1.5729999542236328 -13.791999816894531,1.4900000095367432 C-5.264999866485596,0.6769999861717224 -0.6729999780654907,5.22599983215332 -1.4910000562667847,13.791999816894531 C-1.5740000009536743,14.659000396728516 -0.8889999985694885,15.430000305175781 -0.017999999225139618,15.432000160217285 C-0.012000000104308128,15.432000160217285 -0.006000000052154064,15.432000160217285 0,15.432000160217285 C0.006000000052154064,15.432000160217285 0.010999999940395355,15.432000160217285 0.017000000923871994,15.432000160217285 C0.8880000114440918,15.430000305175781 1.5740000009536743,14.65999984741211 1.4910000562667847,13.791999816894531 C0.6790000200271606,5.264999866485596 5.228000164031982,0.671999990940094 13.793000221252441,1.4900000095367432z"></path><g opacity="1" transform="matrix(1,0,0,1,0,0)"></g></g></g><g style="display: block;" transform="matrix(1.0351029634475708,0,0,1.0351029634475708,436.0174865722656,52.812477111816406)" opacity="1"><g opacity="1" transform="matrix(1,0,0,1,15.682000160217285,15.682999610900879)"><path fill="rgb(255,241,0)" fill-opacity="1" d=" M13.793000221252441,1.4900000095367432 C14.65999984741211,1.5729999542236328 15.430999755859375,0.8889999985694885 15.432000160217285,0.017999999225139618 C15.432000160217285,0.012000000104308128 15.432000160217285,0.004999999888241291 15.432000160217285,-0.0010000000474974513 C15.432000160217285,-0.0010000000474974513 15.432000160217285,-0.017999999225139618 15.432000160217285,-0.017999999225139618 C15.430999755859375,-0.8889999985694885 14.65999984741211,-1.5729999542236328 13.791999816894531,-1.4900000095367432 C5.267000198364258,-0.6779999732971191 0.6740000247955322,-5.224999904632568 1.4910000562667847,-13.791999816894531 C1.5740000009536743,-14.659000396728516 0.8880000114440918,-15.430999755859375 0.017000000923871994,-15.432000160217285 C0.010999999940395355,-15.432000160217285 0.004999999888241291,-15.432000160217285 0,-15.432000160217285 C-0.006000000052154064,-15.432000160217285 -0.012000000104308128,-15.432000160217285 -0.017999999225139618,-15.432000160217285 C-0.8889999985694885,-15.430999755859375 -1.5740000009536743,-14.65999984741211 -1.4910000562667847,-13.791999816894531 C-0.6779999732971191,-5.267000198364258 -5.224999904632568,-0.671999990940094 -13.793000221252441,-1.4900000095367432 C-14.65999984741211,-1.5729999542236328 -15.430000305175781,-0.8889999985694885 -15.432000160217285,-0.017999999225139618 C-15.432000160217285,-0.017999999225139618 -15.432000160217285,-0.0010000000474974513 -15.432000160217285,-0.0010000000474974513 C-15.432000160217285,0.004999999888241291 -15.432000160217285,0.012000000104308128 -15.432000160217285,0.017999999225139618 C-15.430000305175781,0.8889999985694885 -14.659000396728516,1.5729999542236328 -13.791999816894531,1.4900000095367432 C-5.264999866485596,0.6769999861717224 -0.6729999780654907,5.22599983215332 -1.4910000562667847,13.791999816894531 C-1.5740000009536743,14.659000396728516 -0.8889999985694885,15.430000305175781 -0.017999999225139618,15.432000160217285 C-0.012000000104308128,15.432000160217285 -0.006000000052154064,15.432000160217285 0,15.432000160217285 C0.006000000052154064,15.432000160217285 0.010999999940395355,15.432000160217285 0.017000000923871994,15.432000160217285 C0.8880000114440918,15.430000305175781 1.5740000009536743,14.65999984741211 1.4910000562667847,13.791999816894531 C0.6790000200271606,5.264999866485596 5.228000164031982,0.671999990940094 13.793000221252441,1.4900000095367432z"></path><g opacity="1" transform="matrix(1,0,0,1,0,0)"></g></g></g><g style="display: block;" transform="matrix(0.9526543617248535,0,0,0.9526543617248535,11.568134307861328,151.81419372558594)" opacity="1"><g opacity="1" transform="matrix(1,0,0,1,22.666000366210938,22.66699981689453)"><path fill="rgb(251,237,32)" fill-opacity="1" d=" M20.03499984741211,2.1649999618530273 C21.295000076293945,2.2850000858306885 22.415000915527344,1.2910000085830688 22.41699981689453,0.026000000536441803 C22.41699981689453,0.017999999225139618 22.41699981689453,0.008999999612569809 22.41699981689453,0.0010000000474974513 C22.41699981689453,0.0010000000474974513 22.41699981689453,-0.01600000075995922 22.41699981689453,-0.02500000037252903 C22.415000915527344,-1.2899999618530273 21.292999267578125,-2.2850000858306885 20.033000946044922,-2.1649999618530273 C7.650000095367432,-0.984000027179718 0.9769999980926514,-7.589000225067139 2.1649999618530273,-20.033000946044922 C2.2850000858306885,-21.292999267578125 1.2899999618530273,-22.415000915527344 0.02500000037252903,-22.41699981689453 C0.017000000923871994,-22.41699981689453 0.008999999612569809,-22.41699981689453 0.0010000000474974513,-22.41699981689453 C-0.00800000037997961,-22.41699981689453 -0.017000000923871994,-22.41699981689453 -0.02500000037252903,-22.41699981689453 C-1.2910000085830688,-22.415000915527344 -2.2850000858306885,-21.29199981689453 -2.1649999618530273,-20.033000946044922 C-0.9850000143051147,-7.64900016784668 -7.589000225067139,-0.9760000109672546 -20.033000946044922,-2.1640000343322754 C-21.292999267578125,-2.2850000858306885 -22.415000915527344,-1.2899999618530273 -22.41699981689453,-0.024000000208616257 C-22.41699981689453,-0.01600000075995922 -22.41699981689453,-0.00800000037997961 -22.41699981689453,-0.00800000037997961 C-22.41699981689453,0.008999999612569809 -22.41699981689453,0.017999999225139618 -22.41699981689453,0.026000000536441803 C-22.415000915527344,1.2920000553131104 -21.29199981689453,2.2850000858306885 -20.033000946044922,2.1649999618530273 C-7.646999835968018,0.984000027179718 -0.9779999852180481,7.5929999351501465 -2.1649999618530273,20.03499984741211 C-2.2860000133514404,21.295000076293945 -1.2899999618530273,22.415000915527344 -0.02500000037252903,22.41699981689453 C-0.017000000923871994,22.41699981689453 -0.007000000216066837,22.41699981689453 0.0010000000474974513,22.41699981689453 C0.008999999612569809,22.41699981689453 0.017000000923871994,22.41699981689453 0.02500000037252903,22.41699981689453 C1.2910000085830688,22.415000915527344 2.2850000858306885,21.29400062561035 2.1649999618530273,20.034000396728516 C0.984000027179718,7.6479997634887695 7.5929999351501465,0.9769999980926514 20.03499984741211,2.1649999618530273z"></path><g opacity="1" transform="matrix(1,0,0,1,0,0)"></g></g></g></g></g></svg>