<svg xmlns="http://www.w3.org/2000/svg" xmlns:xlink="http://www.w3.org/1999/xlink" viewBox="0 0 512 512" width="512" height="512" style="width: 100%; height: 100%; transform: translate3d(0,0,0); content-visibility: visible;" preserveAspectRatio="xMidYMid meet"><defs><clipPath id="__lottie_element_2"><rect width="512" height="512" x="0" y="0"></rect></clipPath><clipPath id="__lottie_element_4"><path d="M0,0 L512,0 L512,512 L0,512z"></path></clipPath><clipPath id="__lottie_element_88"><path d="M0,0 L512,0 L512,512 L0,512z"></path></clipPath></defs><g clip-path="url(#__lottie_element_2)"><g clip-path="url(#__lottie_element_88)" style="display: none;" transform="matrix(1,0,0,1,0,0)" opacity="1"><g style="display: block;" transform="matrix(-0.9992480874061584,0.03877149522304535,0.03877149522304535,0.9992480874061584,439.266357421875,199.86495971679688)" opacity="1"><path fill="rgb(250,144,22)" fill-opacity="1" d=" M87.38,252.7 C36.48,241.15 25.84,186.75 40.81,138.3 C62.9,66.75 120.75,36.68 188.14,30.47 C202.19,29.18 258.99,42.36 283.69,46.93 C316.97,53.09 350.67,98.5 361.62,145.52 C372.59,192.66 360.7,241.42 298.6,254.1 C227.81,268.55 150.37,267 87.38,252.7z"></path><g opacity="1" transform="matrix(1,0,0,1,205.83900451660156,156.75)"><path stroke-linecap="round" stroke-linejoin="miter" fill-opacity="0" stroke-miterlimit="10" stroke="rgb(249,143,22)" stroke-opacity="1" stroke-width="20" d=" M-118.46399688720703,95.9489974975586 C-169.35499572753906,84.4000015258789 -179.9969940185547,30.003000259399414 -165.03399658203125,-18.448999404907227 C-142.93699645996094,-90.00399780273438 -85.09200286865234,-120.07499694824219 -17.695999145507812,-126.27799987792969 C-3.6470000743865967,-127.57099914550781 53.15299987792969,-114.38999938964844 77.85299682617188,-109.81700134277344 C111.12699890136719,-103.65699768066406 144.82899475097656,-58.25299835205078 155.7760009765625,-11.225000381469727 C166.7469940185547,35.90700149536133 154.85699462890625,84.6719970703125 92.75599670410156,97.35199737548828 C21.975000381469727,111.80400085449219 -55.47200012207031,110.24500274658203 -118.46399688720703,95.9489974975586z"></path></g></g><g style="display: block;" transform="matrix(1.2653838396072388,0.29227644205093384,-0.29227644205093384,1.2653838396072388,413.38262939453125,248.9244842529297)" opacity="1"><g opacity="1" transform="matrix(1,0,0,1,-5.5,0)"><path stroke-linecap="round" stroke-linejoin="round" fill-opacity="0" stroke="rgb(250,144,22)" stroke-opacity="1" stroke-width="20" d=" M-185.14100646972656,196.04400634765625 C-212.14100646972656,180.54400634765625 -222.7449951171875,157.13900756835938 -217,149 C-211,140.5 -196,164.5 -196,164.5"></path><path fill="rgb(255,213,39)" fill-opacity="1" d=" M-185.14100646972656,196.04400634765625 C-212.14100646972656,180.54400634765625 -222.7449951171875,157.13900756835938 -217,149 C-211,140.5 -196,164.5 -196,164.5"></path></g></g><g style="display: block;" transform="matrix(-0.9992480874061584,0.03877149522304535,0.03877149522304535,0.9992480874061584,439.266357421875,199.86495971679688)" opacity="1"><path fill="rgb(255,213,39)" fill-opacity="1" d=" M87.38,252.7 C36.48,241.15 25.84,186.75 40.81,138.3 C62.9,66.75 120.75,36.68 188.14,30.47 C202.19,29.18 258.99,42.36 283.69,46.93 C316.97,53.09 350.67,98.5 361.62,145.52 C372.59,192.66 360.7,241.42 298.6,254.1 C227.81,268.55 150.37,267 87.38,252.7z"></path><g opacity="1" transform="matrix(1,0,0,1,205.83900451660156,156.75)"></g></g><g style="display: block;" transform="matrix(-0.9992480874061584,0.03877149522304535,0.03877149522304535,0.9992480874061584,422.17413330078125,290.3857116699219)" opacity="1"><g opacity="1" transform="matrix(1,0,0,1,38.819000244140625,73.84600067138672)"><path stroke-linecap="round" stroke-linejoin="round" fill-opacity="0" stroke="rgb(252,238,33)" stroke-opacity="1" stroke-width="10" d=" M2.313999891281128,-25.96500015258789 C-8.201000213623047,-0.10300000011920929 -20.94099998474121,37.05699920654297 2.497999906539917,55.62799835205078"></path></g></g><g style="display: block;" transform="matrix(-0.9992480874061584,0.03877149522304535,0.03877149522304535,0.9992480874061584,132.4334259033203,345.0434875488281)" opacity="1"><g opacity="1" transform="matrix(1,0,0,1,35.6879997253418,48.13999938964844)"><path stroke-linecap="round" stroke-linejoin="round" fill-opacity="0" stroke="rgb(255,255,255)" stroke-opacity="1" stroke-width="10" d=" M-2.259000062942505,3.7039999961853027 C3.315000057220459,-16.93600082397461 0.15800000727176666,-36.80400085449219 -11.621000289916992,-65.2229995727539"></path></g></g><g style="display: block;" transform="matrix(-0.9868951439857483,0.1613626778125763,0.1613626778125763,0.9868951439857483,418.6666259765625,-18.28521728515625)" opacity="1"><g opacity="1" transform="matrix(1,0,0,1,196.52099609375,174.67799377441406)"><path fill="rgb(255,212,39)" fill-opacity="1" d=" M139.04600524902344,92.73999786376953 C161.73699951171875,64.84600067138672 171.52099609375,30.104999542236328 164.11500549316406,-7.175000190734863 C148.4239959716797,-86.15599822998047 61.35599899291992,-149.67799377441406 -26.993999481201172,-132.12600708007812 C-115.34500122070312,-114.5739974975586 -171.52099609375,-22.594999313354492 -155.8300018310547,56.38600158691406 C-148.44400024414062,93.56600189208984 -121.86399841308594,132.46499633789062 -89.8550033569336,149.67799377441406"></path><g opacity="1" transform="matrix(1,0,0,1,0,0)"></g></g><g opacity="1" transform="matrix(1,0,0,1,196.52099609375,174.67799377441406)"><path stroke-linecap="round" stroke-linejoin="miter" fill-opacity="0" stroke-miterlimit="10" stroke="rgb(249,143,22)" stroke-opacity="1" stroke-width="10" d=" M139.04600524902344,92.73999786376953 C161.73699951171875,64.84600067138672 171.52099609375,30.104999542236328 164.11500549316406,-7.175000190734863 C148.4239959716797,-86.15599822998047 61.35599899291992,-149.67799377441406 -26.993999481201172,-132.12600708007812 C-115.34500122070312,-114.5739974975586 -171.52099609375,-22.594999313354492 -155.8300018310547,56.38600158691406 C-148.44400024414062,93.56600189208984 -121.86399841308594,132.46499633789062 -89.8550033569336,149.67799377441406"></path></g></g><g style="display: block;" transform="matrix(0.9147270917892456,0.40407222509384155,0.40407222509384155,-0.9147270917892456,49.288299560546875,236.57530212402344)" opacity="1"><g opacity="1" transform="matrix(1,0,0,1,49.17599868774414,105.06700134277344)"><path stroke-linecap="round" stroke-linejoin="round" fill-opacity="0" stroke="rgb(255,255,255)" stroke-opacity="1" stroke-width="10" d=" M7.406000137329102,-80.06800079345703 C-13.468000411987305,-51.946998596191406 -37.290000915527344,49.96900177001953 38.86899948120117,106.20600128173828"></path></g></g><g style="display: block;" transform="matrix(0.9780858755111694,0.20820191502571106,-0.20820191502571106,0.9780858755111694,307.29742431640625,67.7799072265625)" opacity="1"><g opacity="1" transform="matrix(1,0,0,1,71.9540023803711,84.74400329589844)"><path stroke-linecap="round" stroke-linejoin="round" fill-opacity="0" stroke="rgb(251,237,32)" stroke-opacity="1" stroke-width="10" d=" M46.95399856567383,59.74300003051758 C44.59400177001953,31.695999145507812 32.75299835205078,3.5139999389648438 13.333000183105469,-19.091999053955078 C-2.2239999771118164,-37.20100021362305 -22.645999908447266,-51.73099899291992 -46.95399856567383,-59.74300003051758"></path></g></g><g style="display: block;" transform="matrix(-0.9586023092269897,-0.15897709131240845,-0.12237679213285446,1.0202736854553223,212.28457641601562,154.49935913085938)" opacity="1"><g opacity="1" transform="matrix(1,0,0,1,24.476999282836914,27.06800079345703)"><path fill="rgb(0,0,0)" fill-opacity="1" d=" M20.375999450683594,6.052999973297119 C18.937000274658203,10.895999908447266 16.326000213623047,15.019000053405762 13.034000396728516,18.108999252319336 C7.513999938964844,23.290000915527344 0.07599999755620956,25.569000244140625 -6.973999977111816,23.475000381469727 C-14.951000213623047,21.104000091552734 -20.290000915527344,13.770000457763672 -21.349000930786133,5.083000183105469 C-21.784000396728516,1.5160000324249268 -21.496999740600586,-2.2799999713897705 -20.375999450683594,-6.053999900817871 C-19.34600067138672,-9.520000457763672 -17.716999053955078,-12.616999626159668 -15.666000366210938,-15.230999946594238 C-10.04699993133545,-22.392000198364258 -1.2699999809265137,-25.92300033569336 6.973999977111816,-23.472999572753906 C14.788999557495117,-21.150999069213867 20.070999145507812,-14.065999984741211 21.277999877929688,-5.610000133514404 C21.80900001525879,-1.8910000324249268 21.55299949645996,2.0929999351501465 20.375999450683594,6.052999973297119z"></path><path stroke-linecap="butt" stroke-linejoin="miter" fill-opacity="0" stroke-miterlimit="4" stroke="rgb(0,0,0)" stroke-opacity="1" stroke-width="0" d=" M20.375999450683594,6.052999973297119 C18.937000274658203,10.895999908447266 16.326000213623047,15.019000053405762 13.034000396728516,18.108999252319336 C7.513999938964844,23.290000915527344 0.07599999755620956,25.569000244140625 -6.973999977111816,23.475000381469727 C-14.951000213623047,21.104000091552734 -20.290000915527344,13.770000457763672 -21.349000930786133,5.083000183105469 C-21.784000396728516,1.5160000324249268 -21.496999740600586,-2.2799999713897705 -20.375999450683594,-6.053999900817871 C-19.34600067138672,-9.520000457763672 -17.716999053955078,-12.616999626159668 -15.666000366210938,-15.230999946594238 C-10.04699993133545,-22.392000198364258 -1.2699999809265137,-25.92300033569336 6.973999977111816,-23.472999572753906 C14.788999557495117,-21.150999069213867 20.070999145507812,-14.065999984741211 21.277999877929688,-5.610000133514404 C21.80900001525879,-1.8910000324249268 21.55299949645996,2.0929999351501465 20.375999450683594,6.052999973297119z"></path><g opacity="1" transform="matrix(1,0,0,1,0,0)"></g></g></g><g style="display: none;"><g><path></path><g></g></g></g><g style="display: block;" transform="matrix(-0.3625530004501343,-0.06012672558426857,-0.04628412425518036,0.38587769865989685,184.6876220703125,171.5924530029297)" opacity="1"><g opacity="1" transform="matrix(0.6645900011062622,0,0,0.6645900011062622,25.833999633789062,-7.906000137329102)"><path fill="rgb(255,255,255)" fill-opacity="1" d=" M20.375999450683594,6.052999973297119 C18.937000274658203,10.895999908447266 16.326000213623047,15.019000053405762 13.034000396728516,18.108999252319336 C7.513999938964844,23.290000915527344 0.07500000298023224,25.569000244140625 -6.974999904632568,23.475000381469727 C-14.95199966430664,21.104000091552734 -20.290000915527344,13.770000457763672 -21.349000930786133,5.083000183105469 C-21.784000396728516,1.5160000324249268 -21.496999740600586,-2.2799999713897705 -20.375999450683594,-6.053999900817871 C-19.34600067138672,-9.520000457763672 -17.716999053955078,-12.616999626159668 -15.666000366210938,-15.230999946594238 C-10.04699993133545,-22.392000198364258 -1.2699999809265137,-25.92300033569336 6.973999977111816,-23.472999572753906 C14.788999557495117,-21.150999069213867 20.070999145507812,-14.065999984741211 21.277999877929688,-5.610000133514404 C21.80900001525879,-1.8910000324249268 21.55299949645996,2.0929999351501465 20.375999450683594,6.052999973297119z"></path><g opacity="1" transform="matrix(1,0,0,1,0,0)"></g></g></g><g style="display: block;" transform="matrix(-0.880981981754303,-0.13985039293766022,-0.11610016971826553,1.0212923288345337,343.922119140625,149.8968505859375)" opacity="1"><g opacity="1" transform="matrix(1,0,0,1,24.476999282836914,27.06800079345703)"><path fill="rgb(0,0,0)" fill-opacity="1" d=" M20.375999450683594,6.052999973297119 C16.52400016784668,19.017000198364258 4.2789998054504395,26.81800079345703 -6.974999904632568,23.475000381469727 C-18.22800064086914,20.131000518798828 -24.226999282836914,6.909999847412109 -20.375999450683594,-6.053999900817871 C-16.52400016784668,-19.01799964904785 -4.2789998054504395,-26.816999435424805 6.973999977111816,-23.472999572753906 C18.226999282836914,-20.1299991607666 24.22800064086914,-6.910999774932861 20.375999450683594,6.052999973297119z"></path><path stroke-linecap="butt" stroke-linejoin="miter" fill-opacity="0" stroke-miterlimit="4" stroke="rgb(0,0,0)" stroke-opacity="1" stroke-width="0" d=" M20.375999450683594,6.052999973297119 C16.52400016784668,19.017000198364258 4.2789998054504395,26.81800079345703 -6.974999904632568,23.475000381469727 C-18.22800064086914,20.131000518798828 -24.226999282836914,6.909999847412109 -20.375999450683594,-6.053999900817871 C-16.52400016784668,-19.01799964904785 -4.2789998054504395,-26.816999435424805 6.973999977111816,-23.472999572753906 C18.226999282836914,-20.1299991607666 24.22800064086914,-6.910999774932861 20.375999450683594,6.052999973297119z"></path><g opacity="1" transform="matrix(1,0,0,1,0,0)"></g></g></g><g style="display: none;"><g><path></path><g></g></g></g><g style="display: block;" transform="matrix(-0.26517170667648315,-0.04958571121096611,-0.03914615511894226,0.2909487783908844,319.38055419921875,155.61260986328125)" opacity="1"><g opacity="1" transform="matrix(0.814300000667572,0,0,0.814300000667572,24.476999282836914,27.06800079345703)"><path fill="rgb(255,255,255)" fill-opacity="1" d=" M20.375999450683594,6.052999973297119 C16.52400016784668,19.017000198364258 4.2789998054504395,26.81800079345703 -6.974999904632568,23.475000381469727 C-18.22800064086914,20.131000518798828 -24.226999282836914,6.909999847412109 -20.375999450683594,-6.053999900817871 C-16.52400016784668,-19.01799964904785 -4.2789998054504395,-26.816999435424805 6.973999977111816,-23.472999572753906 C18.226999282836914,-20.1299991607666 24.22800064086914,-6.910999774932861 20.375999450683594,6.052999973297119z"></path><g opacity="1" transform="matrix(1,0,0,1,0,0)"></g></g></g><g style="display: block;" transform="matrix(-0.9448596239089966,0.18876728415489197,0.2028169482946396,1.0151841640472412,330.93231201171875,154.16473388671875)" opacity="1"><g opacity="1" transform="matrix(1,0,0,1,98.04100036621094,61.84400177001953)"><path fill="rgb(255,93,31)" fill-opacity="1" d=" M-92.93299865722656,3.882999897003174 C-95.62000274658203,31.121999740600586 -46.77399826049805,41.7400016784668 -0.6600000262260437,34.56999969482422 C40.638999938964844,28.148000717163086 78.41300201416016,4.660999774932861 73.70700073242188,-19.02400016784668 C71.69300079345703,-29.16200065612793 53.20600128173828,-29.027999877929688 36.62200164794922,-25.402999877929688 C7.696000099182129,-19.08099937438965 5.173999786376953,-45.176998138427734 -16.176000595092773,-40.93600082397461 C-40.00699996948242,-36.20199966430664 -34.854000091552734,-11.204999923706055 -55.37900161743164,-9.104999542236328 C-75.12100219726562,-7.085000038146973 -92.09100341796875,-4.6529998779296875 -92.93299865722656,3.882999897003174z"></path><path stroke-linecap="round" stroke-linejoin="round" fill-opacity="0" stroke="rgb(207,53,2)" stroke-opacity="1" stroke-width="8" d=" M-92.93299865722656,3.882999897003174 C-95.62000274658203,31.121999740600586 -46.77399826049805,41.7400016784668 -0.6600000262260437,34.56999969482422 C40.638999938964844,28.148000717163086 78.41300201416016,4.660999774932861 73.70700073242188,-19.02400016784668 C71.69300079345703,-29.16200065612793 53.20600128173828,-29.027999877929688 36.62200164794922,-25.402999877929688 C7.696000099182129,-19.08099937438965 5.173999786376953,-45.176998138427734 -16.176000595092773,-40.93600082397461 C-40.00699996948242,-36.20199966430664 -34.854000091552734,-11.204999923706055 -55.37900161743164,-9.104999542236328 C-75.12100219726562,-7.085000038146973 -92.09100341796875,-4.6529998779296875 -92.93299865722656,3.882999897003174z"></path></g></g><g style="display: block;" transform="matrix(-0.9448596239089966,0.18876728415489197,0.2028169482946396,1.0151841640472412,324.7288818359375,187.96514892578125)" opacity="1"><g opacity="1" transform="matrix(1,0,0,1,81.50399780273438,36.75899887084961)"><path stroke-linecap="round" stroke-linejoin="round" fill-opacity="0" stroke="rgb(125,9,9)" stroke-opacity="1" stroke-width="7.2" d=" M60.858001708984375,-18.760000228881836 C46.03799819946289,11.468999862670898 -32.73500061035156,29.06999969482422 -73.86000061035156,3.1640000343322754"></path></g></g><g style="display: block;" transform="matrix(-0.9448596239089966,0.18876728415489197,0.2028169482946396,1.0151841640472412,307.96435546875,191.49705505371094)" opacity="1"><g opacity="1" transform="matrix(1,0,0,1,24.70599937438965,22.10700035095215)"><path stroke-linecap="round" stroke-linejoin="round" fill-opacity="0" stroke="rgb(255,180,132)" stroke-opacity="1" stroke-width="8" d=" M79.97200012207031,-3.364000082015991 C67.61499786376953,-1.8070000410079956 51.051998138427734,-1.9550000429153442 31.025999069213867,-20.281999588012695"></path></g></g><g style="display: block;" transform="matrix(-0.9992480874061584,0.03877149522304535,0.03877149522304535,0.9992480874061584,397.6144714355469,304.4635009765625)" opacity="1"><g opacity="1" transform="matrix(1,0,0,1,66.02999877929688,75.60199737548828)"><path fill="rgb(255,213,39)" fill-opacity="1" d=" M13.984000205993652,-50.60200119018555 C23.243999481201172,-7.571000099182129 41.02899932861328,34.47800064086914 24.33300018310547,42.540000915527344 C7.63700008392334,50.60200119018555 -33.40399932861328,26.743999481201172 -41.029998779296875,-31.538000106811523"></path><path stroke-linecap="round" stroke-linejoin="miter" fill-opacity="0" stroke-miterlimit="10" stroke="rgb(249,143,22)" stroke-opacity="1" stroke-width="10" d=" M13.984000205993652,-50.60200119018555 C23.243999481201172,-7.571000099182129 41.02899932861328,34.47800064086914 24.33300018310547,42.540000915527344 C7.63700008392334,50.60200119018555 -33.40399932861328,26.743999481201172 -41.029998779296875,-31.538000106811523"></path></g></g><g style="display: block;" transform="matrix(-0.9992480874061584,0.03877149522304535,0.03877149522304535,0.9992480874061584,379.22283935546875,167.61569213867188)" opacity="1"><g opacity="1" transform="matrix(1,0,0,1,34.15299987792969,200.58700561523438)"><path stroke-linecap="round" stroke-linejoin="round" fill-opacity="0" stroke="rgb(255,255,255)" stroke-opacity="1" stroke-width="10" d=" M23.440000534057617,-16.371999740600586 C27.496000289916992,-0.6290000081062317 33.58700180053711,21.80299949645996 35.23400115966797,35.207000732421875"></path></g></g><g style="display: block;" transform="matrix(-0.04111127182841301,0.246596559882164,-0.246596559882164,-0.04111127182841301,241.5639190673828,339.21856689453125)" opacity="1"><g opacity="1" transform="matrix(1,0,0,1,237.5500030517578,254.3520050048828)"><path fill="rgb(255,212,39)" fill-opacity="1" d=" M-224.05499267578125,217.70199584960938 C-130.1719970703125,218.6840057373047 -110.77300262451172,213.4219970703125 7.578000068664551,166.24099731445312 C30.753000259399414,157.0019989013672 78.39800262451172,127.04100036621094 95.8759994506836,109.23699951171875 C108.03500366210938,96.85199737548828 137.09300231933594,74.12899780273438 162.33399963378906,32.43199920654297 C185.5189971923828,-5.86899995803833 199.28500366210938,-57.86899948120117 191.13699340820312,-101.89299774169922 C185.47000122070312,-132.51100158691406 161.7310028076172,-139.94000244140625 147.8679962158203,-142.5659942626953 C132.51699829101562,-145.4739990234375 99.4229965209961,-138.18699645996094 84.03600311279297,-133.26600646972656 C64.62200164794922,-127.05699920654297 37.77299880981445,-107.3239974975586 12.362000465393066,-90.30899810791016 C-1.7480000257492065,-80.86100006103516 -17.101999282836914,-68.74500274658203 -30.832000732421875,-58.75199890136719 C-63.933998107910156,-34.659000396728516 -88.08399963378906,-17.80699920654297 -120.28399658203125,3.009999990463257 C-157.14300537109375,26.839000701904297 -197.25599670410156,47.38399887084961 -240.18600463867188,72.51899719238281"></path><path stroke-linecap="round" stroke-linejoin="round" fill-opacity="0" stroke="rgb(249,143,22)" stroke-opacity="1" stroke-width="37" d=" M-224.05499267578125,217.70199584960938 C-130.1719970703125,218.6840057373047 -110.77300262451172,213.4219970703125 7.578000068664551,166.24099731445312 C30.753000259399414,157.0019989013672 78.39800262451172,127.04100036621094 95.8759994506836,109.23699951171875 C108.03500366210938,96.85199737548828 137.09300231933594,74.12899780273438 162.33399963378906,32.43199920654297 C185.5189971923828,-5.86899995803833 199.28500366210938,-57.86899948120117 191.13699340820312,-101.89299774169922 C185.47000122070312,-132.51100158691406 161.7310028076172,-139.94000244140625 147.8679962158203,-142.5659942626953 C132.51699829101562,-145.4739990234375 99.4229965209961,-138.18699645996094 84.03600311279297,-133.26600646972656 C64.62200164794922,-127.05699920654297 37.77299880981445,-107.3239974975586 12.362000465393066,-90.30899810791016 C-1.7480000257492065,-80.86100006103516 -17.101999282836914,-68.74500274658203 -30.832000732421875,-58.75199890136719 C-63.933998107910156,-34.659000396728516 -88.08399963378906,-17.80699920654297 -120.28399658203125,3.009999990463257 C-157.14300537109375,26.839000701904297 -197.25599670410156,47.38399887084961 -240.18600463867188,72.51899719238281"></path></g></g><g style="display: block;" transform="matrix(-0.04111127182841301,0.246596559882164,-0.246596559882164,-0.04111127182841301,208.92236328125,393.2803039550781)" opacity="1"><g opacity="1" transform="matrix(1,0,0,1,66.46700286865234,47.801998138427734)"><path stroke-linecap="round" stroke-linejoin="round" fill-opacity="0" stroke="rgb(249,143,22)" stroke-opacity="1" stroke-width="8" d="M0 0"></path></g></g><g style="display: block;" transform="matrix(-0.04111127182841301,0.246596559882164,-0.246596559882164,-0.04111127182841301,208.92236328125,393.2803039550781)" opacity="1"><g opacity="1" transform="matrix(1,0,0,1,66.46700286865234,47.801998138427734)"><path stroke-linecap="round" stroke-linejoin="round" fill-opacity="0" stroke="rgb(249,143,22)" stroke-opacity="1" stroke-width="8" d="M0 0"></path></g></g><g style="display: block;" transform="matrix(-0.04111127182841301,0.246596559882164,-0.246596559882164,-0.04111127182841301,181.8837890625,345.6639709472656)" opacity="1"><g opacity="1" transform="matrix(1,0,0,1,197.4600067138672,108.41300201416016)"><path stroke-linecap="round" stroke-linejoin="round" fill-opacity="0" stroke="rgb(251,237,32)" stroke-opacity="1" stroke-width="0" d="M0 0"></path></g></g><g style="display: block;" transform="matrix(-0.04111127182841301,0.246596559882164,-0.246596559882164,-0.04111127182841301,187.18812561035156,425.5545959472656)" opacity="1"><g opacity="1" transform="matrix(1,0,0,1,38.27899932861328,49.345001220703125)"><path stroke-linecap="round" stroke-linejoin="round" fill-opacity="0" stroke="rgb(251,237,32)" stroke-opacity="1" stroke-width="0" d="M0 0"></path></g></g><g style="display: block;" transform="matrix(-0.04111127182841301,0.246596559882164,-0.246596559882164,-0.04111127182841301,207.30860900878906,420.6072082519531)" opacity="1"><g opacity="1" transform="matrix(1,0,0,1,43.8120002746582,53.770999908447266)"><path stroke-linecap="round" stroke-linejoin="round" fill-opacity="0" stroke="rgb(251,237,32)" stroke-opacity="1" stroke-width="0" d="M0 0"></path></g></g><g style="display: block;" transform="matrix(-0.04111127182841301,0.246596559882164,-0.246596559882164,-0.04111127182841301,223.44332885742188,368.3341064453125)" opacity="1"><g opacity="1" transform="matrix(1,0,0,1,58.36899948120117,154.56900024414062)"><path stroke-linecap="round" stroke-linejoin="round" fill-opacity="0" stroke="rgb(255,255,255)" stroke-opacity="1" stroke-width="40" d=" M-116.51499938964844,205.67799377441406 C-54.349998474121094,190.1230010986328 -11.494000434875488,175.302001953125 31.333999633789062,158.81199645996094 C85.28700256347656,138.03799438476562 137.4949951171875,92.0999984741211 142.97799682617188,87.1969985961914"></path></g></g></g><g clip-path="url(#__lottie_element_4)" style="display: block;" transform="matrix(1,0,0,1,0,0)" opacity="1"><g style="display: block;" transform="matrix(-0.762506365776062,0.10716328769922256,0.10716328769922256,0.762506365776062,302.7637023925781,242.2682647705078)" opacity="1"><path fill="rgb(250,144,22)" fill-opacity="1" d=" M87.38,252.7 C36.48,241.15 25.84,186.75 40.81,138.3 C62.9,66.75 120.75,36.68 188.14,30.47 C202.19,29.18 258.99,42.36 283.69,46.93 C316.97,53.09 350.67,98.5 361.62,145.52 C372.59,192.66 360.7,241.42 298.6,254.1 C227.81,268.55 150.37,267 87.38,252.7z"></path><g opacity="1" transform="matrix(1,0,0,1,205.83900451660156,156.75)"><path stroke-linecap="round" stroke-linejoin="miter" fill-opacity="0" stroke-miterlimit="10" stroke="rgb(249,143,22)" stroke-opacity="1" stroke-width="20" d=" M-118.46399688720703,95.9489974975586 C-169.35499572753906,84.4000015258789 -179.9969940185547,30.003000259399414 -165.03399658203125,-18.448999404907227 C-142.93699645996094,-90.00399780273438 -85.09200286865234,-120.07499694824219 -17.695999145507812,-126.27799987792969 C-3.6470000743865967,-127.57099914550781 53.15299987792969,-114.38999938964844 77.85299682617188,-109.81700134277344 C111.12699890136719,-103.65699768066406 144.82899475097656,-58.25299835205078 155.7760009765625,-11.225000381469727 C166.7469940185547,35.90700149536133 154.85699462890625,84.6719970703125 92.75599670410156,97.35199737548828 C21.975000381469727,111.80400085449219 -55.47200012207031,110.24500274658203 -118.46399688720703,95.9489974975586z"></path></g></g><g style="display: block;" transform="matrix(0.9999989867210388,0,0,0.9999989867210388,254.94834899902344,256.0144958496094)" opacity="1"><g opacity="1" transform="matrix(1,0,0,1,-5.5,0)"><path stroke-linecap="round" stroke-linejoin="round" fill-opacity="0" stroke="rgb(250,144,22)" stroke-opacity="1" stroke-width="20" d=" M-185.14100646972656,196.04400634765625 C-212.14100646972656,180.54400634765625 -222.7449951171875,157.13900756835938 -217,149 C-211,140.5 -196,164.5 -196,164.5"></path><path fill="rgb(255,213,39)" fill-opacity="1" d=" M-185.14100646972656,196.04400634765625 C-212.14100646972656,180.54400634765625 -222.7449951171875,157.13900756835938 -217,149 C-211,140.5 -196,164.5 -196,164.5"></path></g></g><g style="display: block;" transform="matrix(-0.762506365776062,0.10716328769922256,0.10716328769922256,0.762506365776062,302.7637023925781,242.2682647705078)" opacity="1"><path fill="rgb(255,213,39)" fill-opacity="1" d=" M87.38,252.7 C36.48,241.15 25.84,186.75 40.81,138.3 C62.9,66.75 120.75,36.68 188.14,30.47 C202.19,29.18 258.99,42.36 283.69,46.93 C316.97,53.09 350.67,98.5 361.62,145.52 C372.59,192.66 360.7,241.42 298.6,254.1 C227.81,268.55 150.37,267 87.38,252.7z"></path><g opacity="1" transform="matrix(1,0,0,1,205.83900451660156,156.75)"></g></g><g style="display: block;" transform="matrix(-0.762506365776062,0.10716328769922256,0.10716328769922256,0.762506365776062,296.6866455078125,312.9400939941406)" opacity="1"><g opacity="1" transform="matrix(1,0,0,1,38.819000244140625,73.84600067138672)"><path stroke-linecap="round" stroke-linejoin="round" fill-opacity="0" stroke="rgb(252,238,33)" stroke-opacity="1" stroke-width="10" d=" M0.7269999980926514,-22.010000228881836 C-9.86400032043457,4.7789998054504395 -20.760000228881836,41.28099822998047 5.9029998779296875,58.029998779296875"></path></g></g><g style="display: block;" transform="matrix(-0.762506365776062,0.10716328769922256,0.10716328769922256,0.762506365776062,78.95681762695312,377.2732238769531)" opacity="1"><g opacity="1" transform="matrix(1,0,0,1,35.6879997253418,48.13999938964844)"><path stroke-linecap="round" stroke-linejoin="round" fill-opacity="0" stroke="rgb(255,255,255)" stroke-opacity="1" stroke-width="10" d=" M-2.3940000534057617,4.2220001220703125 C3.375,-16.264999389648438 0.34200000762939453,-31.98900032043457 -7.557000160217285,-52.15299987792969"></path></g></g><g style="display: block;" transform="matrix(-0.6734570860862732,0.3733033835887909,0.3733033835887909,0.6734570860862732,198.1582794189453,62.194637298583984)" opacity="1"><g opacity="1" transform="matrix(1,0,0,1,196.52099609375,174.67799377441406)"><path fill="rgb(255,212,39)" fill-opacity="1" d=" M139.04600524902344,92.73999786376953 C161.73699951171875,64.84600067138672 171.52099609375,30.104999542236328 164.11500549316406,-7.175000190734863 C148.4239959716797,-86.15599822998047 61.35599899291992,-149.67799377441406 -26.993999481201172,-132.12600708007812 C-115.34500122070312,-114.5739974975586 -171.52099609375,-22.594999313354492 -155.8300018310547,56.38600158691406 C-148.44400024414062,93.56600189208984 -121.86399841308594,132.46499633789062 -89.8550033569336,149.67799377441406"></path><g opacity="1" transform="matrix(1,0,0,1,0,0)"></g></g><g opacity="1" transform="matrix(1,0,0,1,196.52099609375,174.67799377441406)"><path stroke-linecap="round" stroke-linejoin="miter" fill-opacity="0" stroke-miterlimit="10" stroke="rgb(249,143,22)" stroke-opacity="1" stroke-width="10" d=" M139.04600524902344,92.73999786376953 C161.73699951171875,64.84600067138672 171.52099609375,30.104999542236328 164.11500549316406,-7.175000190734863 C148.4239959716797,-86.15599822998047 61.35599899291992,-149.67799377441406 -26.993999481201172,-132.12600708007812 C-115.34500122070312,-114.5739974975586 -171.52099609375,-22.594999313354492 -155.8300018310547,56.38600158691406 C-148.44400024414062,93.56600189208984 -121.86399841308594,132.46499633789062 -89.8550033569336,149.67799377441406"></path></g></g><g style="display: block;" transform="matrix(0.7680110335350037,0.05530770495533943,0.05530770495533943,-0.7680110335350037,-3.394958734512329,342.8775634765625)" opacity="1"><g opacity="1" transform="matrix(1,0,0,1,49.17599868774414,105.06700134277344)"><path stroke-linecap="round" stroke-linejoin="round" fill-opacity="0" stroke="rgb(255,255,255)" stroke-opacity="1" stroke-width="10" d=" M2.1480000019073486,-71.49700164794922 C-17.464000701904297,-33.810001373291016 -31.93899917602539,61.43199920654297 46.98699951171875,111.77799987792969"></path></g></g><g style="display: block;" transform="matrix(0.7630624175071716,-0.10312940925359726,0.10312940925359726,0.7630624175071716,139.78482055664062,153.50762939453125)" opacity="1"><g opacity="1" transform="matrix(1,0,0,1,71.9540023803711,84.74400329589844)"><path stroke-linecap="round" stroke-linejoin="round" fill-opacity="0" stroke="rgb(251,237,32)" stroke-opacity="1" stroke-width="10" d=" M46.95399856567383,59.74300003051758 C44.59400177001953,31.695999145507812 32.75299835205078,3.5139999389648438 13.333000183105469,-19.091999053955078 C-2.2239999771118164,-37.20100021362305 -22.645999908447266,-51.73099899291992 -46.95399856567383,-59.74300003051758"></path></g></g><g style="display: block;" transform="matrix(-0.7408261895179749,0.1048235073685646,0.1459616869688034,0.7776622772216797,102.67564392089844,229.23423767089844)" opacity="1"><g opacity="1" transform="matrix(1,0,0,1,24.476999282836914,27.06800079345703)"><path fill="rgb(0,0,0)" fill-opacity="1" d=" M20.375999450683594,6.052999973297119 C18.937000274658203,10.895999908447266 16.326000213623047,15.019000053405762 13.034000396728516,18.108999252319336 C7.513999938964844,23.290000915527344 0.07599999755620956,25.569000244140625 -6.973999977111816,23.475000381469727 C-14.951000213623047,21.104000091552734 -20.290000915527344,13.770000457763672 -21.349000930786133,5.083000183105469 C-21.784000396728516,1.5160000324249268 -21.496999740600586,-2.2799999713897705 -20.375999450683594,-6.053999900817871 C-19.34600067138672,-9.520000457763672 -17.716999053955078,-12.616999626159668 -15.666000366210938,-15.230999946594238 C-10.04699993133545,-22.392000198364258 -1.2699999809265137,-25.92300033569336 6.973999977111816,-23.472999572753906 C14.788999557495117,-21.150999069213867 20.070999145507812,-14.065999984741211 21.277999877929688,-5.610000133514404 C21.80900001525879,-1.8910000324249268 21.55299949645996,2.0929999351501465 20.375999450683594,6.052999973297119z"></path><path stroke-linecap="butt" stroke-linejoin="miter" fill-opacity="0" stroke-miterlimit="4" stroke="rgb(0,0,0)" stroke-opacity="1" stroke-width="0" d=" M20.375999450683594,6.052999973297119 C18.937000274658203,10.895999908447266 16.326000213623047,15.019000053405762 13.034000396728516,18.108999252319336 C7.513999938964844,23.290000915527344 0.07599999755620956,25.569000244140625 -6.973999977111816,23.475000381469727 C-14.951000213623047,21.104000091552734 -20.290000915527344,13.770000457763672 -21.349000930786133,5.083000183105469 C-21.784000396728516,1.5160000324249268 -21.496999740600586,-2.2799999713897705 -20.375999450683594,-6.053999900817871 C-19.34600067138672,-9.520000457763672 -17.716999053955078,-12.616999626159668 -15.666000366210938,-15.230999946594238 C-10.04699993133545,-22.392000198364258 -1.2699999809265137,-25.92300033569336 6.973999977111816,-23.472999572753906 C14.788999557495117,-21.150999069213867 20.070999145507812,-14.065999984741211 21.277999877929688,-5.610000133514404 C21.80900001525879,-1.8910000324249268 21.55299949645996,2.0929999351501465 20.375999450683594,6.052999973297119z"></path><g opacity="1" transform="matrix(1,0,0,1,0,0)"></g></g></g><g style="display: none;" transform="matrix(-0.2801879048347473,0.039645303040742874,0.05520416423678398,0.29411962628364563,89.15635681152344,259.0667419433594)" opacity="1"><g opacity="1" transform="matrix(0.6645900011062622,0,0,0.6645900011062622,25.833999633789062,-7.906000137329102)"><path fill="rgb(255,255,255)" fill-opacity="1" d=" M20.375999450683594,6.052999973297119 C18.937000274658203,10.895999908447266 16.326000213623047,15.019000053405762 13.034000396728516,18.108999252319336 C7.513999938964844,23.290000915527344 0.07500000298023224,25.569000244140625 -6.974999904632568,23.475000381469727 C-14.95199966430664,21.104000091552734 -20.290000915527344,13.770000457763672 -21.349000930786133,5.083000183105469 C-21.784000396728516,1.5160000324249268 -21.496999740600586,-2.2799999713897705 -20.375999450683594,-6.053999900817871 C-19.34600067138672,-9.520000457763672 -17.716999053955078,-12.616999626159668 -15.666000366210938,-15.230999946594238 C-10.04699993133545,-22.392000198364258 -1.2699999809265137,-25.92300033569336 6.973999977111816,-23.472999572753906 C14.788999557495117,-21.150999069213867 20.070999145507812,-14.065999984741211 21.277999877929688,-5.610000133514404 C21.80900001525879,-1.8910000324249268 21.55299949645996,2.0929999351501465 20.375999450683594,6.052999973297119z"></path><g opacity="1" transform="matrix(1,0,0,1,0,0)"></g></g></g><g style="display: block;" transform="matrix(-0.2801879048347473,0.039645303040742874,0.05520416423678398,0.29411962628364563,86.35738372802734,248.16810607910156)" opacity="1"><g opacity="1" transform="matrix(0.6645900011062622,0,0,0.6645900011062622,25.833999633789062,-7.906000137329102)"><path fill="rgb(255,255,255)" fill-opacity="1" d=" M20.375999450683594,6.052999973297119 C18.937000274658203,10.895999908447266 16.326000213623047,15.019000053405762 13.034000396728516,18.108999252319336 C7.513999938964844,23.290000915527344 0.07500000298023224,25.569000244140625 -6.974999904632568,23.475000381469727 C-14.95199966430664,21.104000091552734 -20.290000915527344,13.770000457763672 -21.349000930786133,5.083000183105469 C-21.784000396728516,1.5160000324249268 -21.496999740600586,-2.2799999713897705 -20.375999450683594,-6.053999900817871 C-19.34600067138672,-9.520000457763672 -17.716999053955078,-12.616999626159668 -15.666000366210938,-15.230999946594238 C-10.04699993133545,-22.392000198364258 -1.2699999809265137,-25.92300033569336 6.973999977111816,-23.472999572753906 C14.788999557495117,-21.150999069213867 20.070999145507812,-14.065999984741211 21.277999877929688,-5.610000133514404 C21.80900001525879,-1.8910000324249268 21.55299949645996,2.0929999351501465 20.375999450683594,6.052999973297119z"></path><g opacity="1" transform="matrix(1,0,0,1,0,0)"></g></g></g><g style="display: block;" transform="matrix(-0.6793940663337708,0.10092908889055252,0.1508072018623352,0.7769595980644226,198.2279510498047,200.1959686279297)" opacity="1"><g opacity="1" transform="matrix(1,0,0,1,24.476999282836914,27.06800079345703)"><path fill="rgb(0,0,0)" fill-opacity="1" d=" M20.375999450683594,6.052999973297119 C16.52400016784668,19.017000198364258 4.2789998054504395,26.81800079345703 -6.974999904632568,23.475000381469727 C-18.22800064086914,20.131000518798828 -24.226999282836914,6.909999847412109 -20.375999450683594,-6.053999900817871 C-16.52400016784668,-19.01799964904785 -4.2789998054504395,-26.816999435424805 6.973999977111816,-23.472999572753906 C18.226999282836914,-20.1299991607666 24.22800064086914,-6.910999774932861 20.375999450683594,6.052999973297119z"></path><path stroke-linecap="butt" stroke-linejoin="miter" fill-opacity="0" stroke-miterlimit="4" stroke="rgb(0,0,0)" stroke-opacity="1" stroke-width="0" d=" M20.375999450683594,6.052999973297119 C16.52400016784668,19.017000198364258 4.2789998054504395,26.81800079345703 -6.974999904632568,23.475000381469727 C-18.22800064086914,20.131000518798828 -24.226999282836914,6.909999847412109 -20.375999450683594,-6.053999900817871 C-16.52400016784668,-19.01799964904785 -4.2789998054504395,-26.816999435424805 6.973999977111816,-23.472999572753906 C18.226999282836914,-20.1299991607666 24.22800064086914,-6.910999774932861 20.375999450683594,6.052999973297119z"></path><g opacity="1" transform="matrix(1,0,0,1,0,0)"></g></g></g><g style="display: none;" transform="matrix(-0.2062741369009018,0.024513594806194305,0.03817114233970642,0.22280161082744598,184.33299255371094,220.97311401367188)" opacity="1"><g opacity="1" transform="matrix(0.814300000667572,0,0,0.814300000667572,24.476999282836914,27.06800079345703)"><path fill="rgb(255,255,255)" fill-opacity="1" d=" M20.375999450683594,6.052999973297119 C16.52400016784668,19.017000198364258 4.2789998054504395,26.81800079345703 -6.974999904632568,23.475000381469727 C-18.22800064086914,20.131000518798828 -24.226999282836914,6.909999847412109 -20.375999450683594,-6.053999900817871 C-16.52400016784668,-19.01799964904785 -4.2789998054504395,-26.816999435424805 6.973999977111816,-23.472999572753906 C18.226999282836914,-20.1299991607666 24.22800064086914,-6.910999774932861 20.375999450683594,6.052999973297119z"></path><g opacity="1" transform="matrix(1,0,0,1,0,0)"></g></g></g><g style="display: block;" transform="matrix(-0.20622633397579193,0.024876942858099937,0.038503218442201614,0.22274595499038696,181.52386474609375,210.06710815429688)" opacity="1"><g opacity="1" transform="matrix(0.814300000667572,0,0,0.814300000667572,24.476999282836914,27.06800079345703)"><path fill="rgb(255,255,255)" fill-opacity="1" d=" M20.375999450683594,6.052999973297119 C16.52400016784668,19.017000198364258 4.2789998054504395,26.81800079345703 -6.974999904632568,23.475000381469727 C-18.22800064086914,20.131000518798828 -24.226999282836914,6.909999847412109 -20.375999450683594,-6.053999900817871 C-16.52400016784668,-19.01799964904785 -4.2789998054504395,-26.816999435424805 6.973999977111816,-23.472999572753906 C18.226999282836914,-20.1299991607666 24.22800064086914,-6.910999774932861 20.375999450683594,6.052999973297119z"></path><g opacity="1" transform="matrix(1,0,0,1,0,0)"></g></g></g><g style="display: block;" transform="matrix(-0.6503481864929199,0.3570590913295746,0.3836345076560974,0.6987527012825012,189.74305725097656,201.56198120117188)" opacity="1"><g opacity="1" transform="matrix(1,0,0,1,98.04100036621094,61.84400177001953)"><path fill="rgb(255,93,31)" fill-opacity="1" d=" M-93.41999816894531,17.766000747680664 C-90.697998046875,32.125999450683594 -50.150001525878906,41.928001403808594 -9.156000137329102,33.784000396728516 C31.83799934387207,25.639999389648438 78.41300201416016,4.660999774932861 73.70700073242188,-19.02400016784668 C71.69300079345703,-29.16200065612793 53.207000732421875,-29.027999877929688 36.62300109863281,-25.402999877929688 C7.697000026702881,-19.08099937438965 5.173999786376953,-45.176998138427734 -16.176000595092773,-40.93600082397461 C-40.00699996948242,-36.20199966430664 -44.034000396728516,-8.895000457763672 -64.33599853515625,-3.992000102996826 C-82.8280029296875,0.4740000069141388 -95.97799682617188,4.27400016784668 -93.41999816894531,17.766000747680664z"></path><path stroke-linecap="round" stroke-linejoin="round" fill-opacity="0" stroke="rgb(207,53,2)" stroke-opacity="1" stroke-width="8" d=" M-93.41999816894531,17.766000747680664 C-90.697998046875,32.125999450683594 -50.150001525878906,41.928001403808594 -9.156000137329102,33.784000396728516 C31.83799934387207,25.639999389648438 78.41300201416016,4.660999774932861 73.70700073242188,-19.02400016784668 C71.69300079345703,-29.16200065612793 53.207000732421875,-29.027999877929688 36.62300109863281,-25.402999877929688 C7.697000026702881,-19.08099937438965 5.173999786376953,-45.176998138427734 -16.176000595092773,-40.93600082397461 C-40.00699996948242,-36.20199966430664 -44.034000396728516,-8.895000457763672 -64.33599853515625,-3.992000102996826 C-82.8280029296875,0.4740000069141388 -95.97799682617188,4.27400016784668 -93.41999816894531,17.766000747680664z"></path></g></g><g style="display: block;" transform="matrix(-0.6503481864929199,0.3570590913295746,0.3836345076560974,0.6987527012825012,193,227.82179260253906)" opacity="1"><g opacity="1" transform="matrix(1,0,0,1,81.50399780273438,36.75899887084961)"><path stroke-linecap="round" stroke-linejoin="round" fill-opacity="0" stroke="rgb(125,9,9)" stroke-opacity="1" stroke-width="7.2" d=" M60.858001708984375,-18.760000228881836 C39.814998626708984,3.430000066757202 -40.051998138427734,21.965999603271484 -72.56900024414062,7.947999954223633"></path></g></g><g style="display: block;" transform="matrix(-0.6503481864929199,0.3570590913295746,0.3836345076560974,0.6987527012825012,181.50318908691406,234.29119873046875)" opacity="1"><g opacity="1" transform="matrix(1,0,0,1,24.70599937438965,22.10700035095215)"><path stroke-linecap="round" stroke-linejoin="round" fill-opacity="0" stroke="rgb(255,180,132)" stroke-opacity="1" stroke-width="8" d=" M77.37300109863281,-3.072999954223633 C64.93000030517578,-1.8739999532699585 48.63800048828125,-3.299999952316284 29.15999984741211,-22.033000946044922"></path></g></g><g style="display: block;" transform="matrix(-0.6627234220504761,0.3920428454875946,0.3920428454875946,0.6627234220504761,308.1082458496094,265.94415283203125)" opacity="1"><g opacity="1" transform="matrix(1,0,0,1,66.02999877929688,75.60199737548828)"><path fill="rgb(255,213,39)" fill-opacity="1" d=" M44.74300003051758,-36.715999603271484 C22.402999877929688,5.085999965667725 41.02899932861328,34.47800064086914 24.33300018310547,42.540000915527344 C7.63700008392334,50.60200119018555 -32.09299850463867,0.9070000052452087 25.54400062561035,-55.3129997253418"></path><path stroke-linecap="round" stroke-linejoin="miter" fill-opacity="0" stroke-miterlimit="10" stroke="rgb(249,143,22)" stroke-opacity="1" stroke-width="10" d=" M44.74300003051758,-36.715999603271484 C22.402999877929688,5.085999965667725 41.02899932861328,34.47800064086914 24.33300018310547,42.540000915527344 C7.63700008392334,50.60200119018555 -32.09299850463867,0.9070000052452087 25.54400062561035,-55.3129997253418"></path></g></g><g style="display: block;" transform="matrix(-0.6627234220504761,0.3920428454875946,0.3920428454875946,0.6627234220504761,245.55567932128906,179.97230529785156)" opacity="1"><g opacity="1" transform="matrix(1,0,0,1,34.15299987792969,200.58700561523438)"><path stroke-linecap="round" stroke-linejoin="round" fill-opacity="0" stroke="rgb(255,255,255)" stroke-opacity="1" stroke-width="10" d=" M49.80699920654297,-23.679000854492188 C42.553001403808594,-14.204000473022461 36.25199890136719,5.763000011444092 39.24100112915039,21.118000030517578"></path></g></g><g style="display: block;" transform="matrix(0.9990686774253845,-0.04314859211444855,0.04314859211444855,0.9990686774253845,37.733184814453125,-30.239959716796875)" opacity="1"><g opacity="1" transform="matrix(1,0,0,1,237.5500030517578,254.3520050048828)"><path fill="rgb(255,212,39)" fill-opacity="1" d=" M-203.14500427246094,176.23199462890625 C-135.4029998779297,222.48399353027344 9.954999923706055,152.4669952392578 107.58100128173828,102.33699798583984 C121.6240005493164,141.1999969482422 184.01400756835938,80.58599853515625 194.7740020751953,65.72699737548828 C214.18800354003906,38.917999267578125 204.57200622558594,-2.63700008392334 187.32000732421875,-12.28600025177002 C209.4550018310547,-24.91900062561035 196.13400268554688,-86.95800018310547 167.95799255371094,-82.82099914550781 C193.47000122070312,-102.18199920654297 153.63699340820312,-160.70799255371094 121.4749984741211,-151.63900756835938 C67.71199798583984,-136.47900390625 40.27199935913086,-110.4489974975586 19.93600082397461,-94.16100311279297 C8.871999740600586,-149.822998046875 -26.13599967956543,-229.3520050048828 -81.02200317382812,-188.28599548339844 C-97.69200134277344,-175.81399536132812 -94.5530014038086,-151.9250030517578 -86.0739974975586,-134.7010040283203 C-72.06300354003906,-106.24400329589844 -47.61600112915039,-62.900001525878906 -47.457000732421875,-28.393999099731445 C-46.65299987792969,146.41600036621094 -159.92799377441406,170.84500122070312 -197.04800415039062,149.00999450683594"></path><path stroke-linecap="round" stroke-linejoin="round" fill-opacity="0" stroke="rgb(249,143,22)" stroke-opacity="1" stroke-width="8.5" d=" M-203.14500427246094,176.23199462890625 C-135.4029998779297,222.48399353027344 9.954999923706055,152.4669952392578 107.58100128173828,102.33699798583984 C121.6240005493164,141.1999969482422 184.01400756835938,80.58599853515625 194.7740020751953,65.72699737548828 C214.18800354003906,38.917999267578125 204.57200622558594,-2.63700008392334 187.32000732421875,-12.28600025177002 C209.4550018310547,-24.91900062561035 196.13400268554688,-86.95800018310547 167.95799255371094,-82.82099914550781 C193.47000122070312,-102.18199920654297 153.63699340820312,-160.70799255371094 121.4749984741211,-151.63900756835938 C67.71199798583984,-136.47900390625 40.27199935913086,-110.4489974975586 19.93600082397461,-94.16100311279297 C8.871999740600586,-149.822998046875 -26.13599967956543,-229.3520050048828 -81.02200317382812,-188.28599548339844 C-97.69200134277344,-175.81399536132812 -94.5530014038086,-151.9250030517578 -86.0739974975586,-134.7010040283203 C-72.06300354003906,-106.24400329589844 -47.61600112915039,-62.900001525878906 -47.457000732421875,-28.393999099731445 C-46.65299987792969,146.41600036621094 -159.92799377441406,170.84500122070312 -197.04800415039062,149.00999450683594"></path></g></g><g style="display: block;" transform="matrix(0.9990686774253845,-0.04314859211444855,0.04314859211444855,0.9990686774253845,276.3111877441406,52.77104568481445)" opacity="1"><g opacity="1" transform="matrix(1,0,0,1,66.46700286865234,47.801998138427734)"><path stroke-linecap="round" stroke-linejoin="round" fill-opacity="0" stroke="rgb(249,143,22)" stroke-opacity="1" stroke-width="8" d=" M43.64852523803711,215.72129821777344 C71.12152862548828,199.61630249023438 85.92152404785156,190.06629943847656 107.95452880859375,174.04629516601562"></path></g></g><g style="display: block;" transform="matrix(0.9990686774253845,-0.04314859211444855,0.04314859211444855,0.9990686774253845,276.3111877441406,52.77104568481445)" opacity="1"><g opacity="1" transform="matrix(1,0,0,1,66.46700286865234,47.801998138427734)"><path stroke-linecap="round" stroke-linejoin="round" fill-opacity="0" stroke="rgb(249,143,22)" stroke-opacity="1" stroke-width="8" d=" M-59.33055114746094,33.01444625854492 C-54.966552734375,29.2004451751709 -50.34555435180664,25.339584350585938 -42.76655197143555,18.324583053588867"></path></g></g><g style="display: block;" transform="matrix(0.9990686774253845,-0.04314859211444855,0.04314859211444855,0.9990686774253845,112.33722686767578,197.9845428466797)" opacity="1"><g opacity="1" transform="matrix(1,0,0,1,197.4600067138672,108.41300201416016)"><path stroke-linecap="round" stroke-linejoin="round" fill-opacity="0" stroke="rgb(251,237,32)" stroke-opacity="1" stroke-width="10" d=" M-174.5540008544922,92.22200012207031 C-92.8759994506836,91.22699737548828 46.11199951171875,27.334999084472656 139.37600708007812,-38.52299880981445 C158.55799865722656,-52.06800079345703 173.9219970703125,-62.263999938964844 159.18099975585938,-83.41200256347656"></path></g></g><g style="display: block;" transform="matrix(0.9990686774253845,-0.04314859211444855,0.04314859211444855,0.9990686774253845,420.5993957519531,111.1235580444336)" opacity="1"><g opacity="1" transform="matrix(1,0,0,1,38.27899932861328,49.345001220703125)"><path stroke-linecap="round" stroke-linejoin="round" fill-opacity="0" stroke="rgb(251,237,32)" stroke-opacity="1" stroke-width="10" d=" M0.8849999904632568,24.344999313354492 C10.583000183105469,8.045999526977539 -0.37400001287460327,-21.11199951171875 -13.279000282287598,-23.459999084472656"></path></g></g><g style="display: block;" transform="matrix(0.9990686774253845,-0.04314859211444855,0.04314859211444855,0.9990686774253845,384.58990478515625,36.475807189941406)" opacity="1"><g opacity="1" transform="matrix(1,0,0,1,43.8120002746582,53.770999908447266)"><path stroke-linecap="round" stroke-linejoin="round" fill-opacity="0" stroke="rgb(251,237,32)" stroke-opacity="1" stroke-width="10" d=" M10.508999824523926,16.799999237060547 C4.74399995803833,-3.4860000610351562 -6.335000038146973,-27.766000747680664 -38.60300064086914,-17.309999465942383"></path></g></g><g style="display: block;" transform="matrix(0.9990686774253845,-0.04314859211444855,0.04314859211444855,0.9990686774253845,166.669677734375,16.584217071533203)" opacity="1"><g opacity="1" transform="matrix(1,0,0,1,58.36899948120117,154.56900024414062)"><path stroke-linecap="round" stroke-linejoin="round" fill-opacity="0" stroke="rgb(255,255,255)" stroke-opacity="1" stroke-width="10" d=" M6.824999809265137,116.27999877929688 C49.71900177001953,-5.515999794006348 -4.752999782562256,-68.71199798583984 -17.36400032043457,-93.13400268554688 C-32.404998779296875,-122.26100158691406 -17.36400032043457,-132.28900146484375 -17.36400032043457,-132.28900146484375"></path></g></g></g></g></svg>