<svg xmlns="http://www.w3.org/2000/svg" xmlns:xlink="http://www.w3.org/1999/xlink" viewBox="0 0 512 512" width="512" height="512" style="width: 100%; height: 100%; transform: translate3d(0,0,0); content-visibility: visible;" preserveAspectRatio="xMidYMid meet"><defs><clipPath id="__lottie_element_2"><rect width="512" height="512" x="0" y="0"></rect></clipPath><clipPath id="__lottie_element_4"><path d="M0,0 L512,0 L512,512 L0,512z"></path></clipPath><clipPath id="__lottie_element_82"><path d="M0,0 L512,0 L512,512 L0,512z"></path></clipPath><clipPath id="__lottie_element_89"><path d="M0,0 L512,0 L512,512 L0,512z"></path></clipPath><clipPath id="__lottie_element_96"><path d="M0,0 L512,0 L512,512 L0,512z"></path></clipPath><clipPath id="__lottie_element_174"><path d="M0,0 L512,0 L512,512 L0,512z"></path></clipPath><clipPath id="__lottie_element_181"><path d="M0,0 L512,0 L512,512 L0,512z"></path></clipPath></defs><g clip-path="url(#__lottie_element_2)"><g clip-path="url(#__lottie_element_96)" style="display: none;" transform="matrix(1,0,0,1,0,0)" opacity="1"><g clip-path="url(#__lottie_element_181)" style="display: none;" transform="matrix(1,0,0,1,0,21)" opacity="1"><g style="display: none;" transform="matrix(1.5022599697113037,0,0,1.5022599697113037,-7.507354736328125,334.35150146484375)" opacity="1"><g opacity="1" transform="matrix(1,0,0,1,176.4949951171875,64.81999969482422)"><path stroke-linecap="round" stroke-linejoin="round" fill-opacity="0" stroke="rgb(3,180,255)" stroke-opacity="1" stroke-width="0" d=" M151.4949951171875,0 C151.4949951171875,21.992000579833984 83.66899871826172,39.81999969482422 0.0010000000474974513,39.81999969482422 C-83.66699981689453,39.81999969482422 -151.49400329589844,21.992000579833984 -151.49400329589844,0 C-151.49400329589844,-21.992000579833984 -83.66699981689453,-39.81999969482422 0.0010000000474974513,-39.81999969482422 C83.66899871826172,-39.81999969482422 151.4949951171875,-21.992000579833984 151.4949951171875,0z"></path></g></g></g><g clip-path="url(#__lottie_element_174)" style="display: none;" transform="matrix(1,0,0,1,0,21)" opacity="1"><g style="display: none;" transform="matrix(1.5022599697113037,0,0,1.5022599697113037,-7.507354736328125,334.35150146484375)" opacity="1"><g opacity="1" transform="matrix(1,0,0,1,176.4949951171875,64.81999969482422)"><path stroke-linecap="round" stroke-linejoin="round" fill-opacity="0" stroke="rgb(3,180,255)" stroke-opacity="1" stroke-width="0" d=" M151.4949951171875,0 C151.4949951171875,21.992000579833984 83.66899871826172,39.81999969482422 0.0010000000474974513,39.81999969482422 C-83.66699981689453,39.81999969482422 -151.49400329589844,21.992000579833984 -151.49400329589844,0 C-151.49400329589844,-21.992000579833984 -83.66699981689453,-39.81999969482422 0.0010000000474974513,-39.81999969482422 C83.66899871826172,-39.81999969482422 151.4949951171875,-21.992000579833984 151.4949951171875,0z"></path></g></g></g><g style="display: block;" transform="matrix(1.1937142610549927,0,0,1.1929457187652588,25.576108932495117,226.26861572265625)" opacity="1"><g opacity="1" transform="matrix(1,0,0,1,181.74400329589844,121.2699966430664)"><path fill="rgb(141,82,193)" fill-opacity="1" d=" M-129.61700439453125,33.60900115966797 C-150.4010009765625,-0.6589999794960022 -141.73800659179688,-36.020999908447266 -126.04199981689453,-36.020999908447266 C-122.04399871826172,-36.020999908447266 -117.8759994506836,-33.999000549316406 -113.19300079345703,-29.73200035095215 C-90.85800170898438,-69.2249984741211 -38.79600143432617,-96.2699966430664 16.38800048828125,-96.2699966430664 C52.928001403808594,-96.2699966430664 87.99700164794922,-84.85700225830078 115.13400268554688,-64.13200378417969 C141.5780029296875,-43.9379997253418 156.74400329589844,-17.3700008392334 156.74400329589844,8.758000373840332 C156.74400329589844,34.44900131225586 149.13800048828125,86.73200225830078 12.907999992370605,88.9990005493164 C-99.6780014038086,90.87300109863281 -120.31800079345703,48.94200134277344 -129.61700439453125,33.60900115966797z"></path><path stroke-linecap="butt" stroke-linejoin="miter" fill-opacity="0" stroke-miterlimit="10" stroke="rgb(83,33,120)" stroke-opacity="1" stroke-width="8.306" d=" M-129.61700439453125,33.60900115966797 C-150.4010009765625,-0.6589999794960022 -141.73800659179688,-36.020999908447266 -126.04199981689453,-36.020999908447266 C-122.04399871826172,-36.020999908447266 -117.8759994506836,-33.999000549316406 -113.19300079345703,-29.73200035095215 C-90.85800170898438,-69.2249984741211 -38.79600143432617,-96.2699966430664 16.38800048828125,-96.2699966430664 C52.928001403808594,-96.2699966430664 87.99700164794922,-84.85700225830078 115.13400268554688,-64.13200378417969 C141.5780029296875,-43.9379997253418 156.74400329589844,-17.3700008392334 156.74400329589844,8.758000373840332 C156.74400329589844,34.44900131225586 149.13800048828125,86.73200225830078 12.907999992370605,88.9990005493164 C-99.6780014038086,90.87300109863281 -120.31800079345703,48.94200134277344 -129.61700439453125,33.60900115966797z"></path></g></g><g style="display: block;" transform="matrix(1.1937142610549927,0,0,1.1929457187652588,89.90776062011719,290.3930358886719)" opacity="1"><g opacity="1" transform="matrix(1,0,0,1,35.4109992980957,44.676998138427734)"><path stroke-linecap="round" stroke-linejoin="round" fill-opacity="0" stroke="rgb(255,255,255)" stroke-opacity="1" stroke-width="6.957" d=" M-9.168000221252441,10.706000328063965 C-6.7820000648498535,-0.04600000008940697 -1.1139999628067017,-8.567000389099121 10.281999588012695,-19.55299949645996"></path></g></g><g style="display: block;" transform="matrix(1.1937142610549927,0,0,1.1929457187652588,352.1954345703125,290.3763122558594)" opacity="1"><g opacity="1" transform="matrix(1,0,0,1,37.069000244140625,67.66000366210938)"><path stroke-linecap="round" stroke-linejoin="round" fill-opacity="0" stroke="rgb(182,118,238)" stroke-opacity="1" stroke-width="6.957" d=" M0.925000011920929,-28.180999755859375 C8.022000312805176,-17.934999465942383 12.069000244140625,-6.47599983215332 12.069000244140625,5.040999889373779 C12.069000244140625,20.011999130249023 5.230000019073486,32.70800018310547 -6.25600004196167,42.41299819946289"></path></g></g><g style="display: block;" transform="matrix(-1.178743839263916,0,0,1.1864632368087769,273.85906982421875,230.00704956054688)" opacity="1"><g opacity="1" transform="matrix(1,0,0,1,0,0)"><path fill="rgb(141,82,193)" fill-opacity="1" d=" M-97.5,-95.5 C-108,-112 -114.5,-138.5 -103,-165 C-94.5,-150.5 -68.5,-129.5 -57,-128.5"></path><path stroke-linecap="round" stroke-linejoin="round" fill-opacity="0" stroke="rgb(83,33,121)" stroke-opacity="1" stroke-width="8" d=" M-97.5,-95.5 C-108,-112 -114.5,-138.5 -103,-165 C-94.5,-150.5 -68.5,-129.5 -57,-128.5"></path></g></g><g style="display: block;" transform="matrix(1.3727713823318481,0,0,1.3718875646591187,60.918880462646484,11.918082237243652)" opacity="1"><g opacity="1" transform="matrix(1,0,0,1,146.54400634765625,119.31900024414062)"><path fill="rgb(141,82,193)" fill-opacity="1" d=" M-88.71199798583984,94.1520004272461 C-109.3479995727539,77.05899810791016 -121.54399871826172,53.08599853515625 -121.54399871826172,24.76099967956543 C-121.54399871826172,-35.24700164794922 -67.12799835205078,-94.31900024414062 -0.0010000000474974513,-94.31900024414062 C67.1259994506836,-94.31900024414062 121.54399871826172,-35.24700164794922 121.54399871826172,24.76099967956543 C121.54399871826172,53.0099983215332 109.40699768066406,77.08999633789062 88.51000213623047,94.31900024414062"></path><path stroke-linecap="round" stroke-linejoin="round" fill-opacity="0" stroke="rgb(83,33,120)" stroke-opacity="1" stroke-width="7.22" d=" M-88.71199798583984,94.1520004272461 C-109.3479995727539,77.05899810791016 -121.54399871826172,53.08599853515625 -121.54399871826172,24.76099967956543 C-121.54399871826172,-35.24700164794922 -67.12799835205078,-94.31900024414062 -0.0010000000474974513,-94.31900024414062 C67.1259994506836,-94.31900024414062 121.54399871826172,-35.24700164794922 121.54399871826172,24.76099967956543 C121.54399871826172,53.0099983215332 109.40699768066406,77.08999633789062 88.51000213623047,94.31900024414062"></path></g></g><g style="display: block;" transform="matrix(1.287140965461731,0.4769446849822998,-0.47725194692611694,1.2863123416900635,172.8498992919922,-10.309473991394043)" opacity="1"><g opacity="1" transform="matrix(1,0,0,1,72.16899871826172,56.33100128173828)"><path stroke-linecap="round" stroke-linejoin="round" fill-opacity="0" stroke="rgb(255,255,255)" stroke-opacity="1" stroke-width="6.957" d=" M-21.66699981689453,-4.191999912261963 C-16.565000534057617,-8.82800006866455 -10.97599983215332,-13.010000228881836 -4.982999801635742,-16.624000549316406 C9.260000228881836,-25.214000701904297 25.783000946044922,-30.597000122070312 43.46099853515625,-31.26099967956543"></path></g></g><g style="display: block;" transform="matrix(1.3727713823318481,0,0,1.3718875646591187,322.10235595703125,77.12117767333984)" opacity="1"><g opacity="1" transform="matrix(1,0,0,1,41.30400085449219,84.74199676513672)"><path stroke-linecap="round" stroke-linejoin="round" fill-opacity="0" stroke="rgb(182,118,238)" stroke-opacity="1" stroke-width="6.957" d=" M-16.304000854492188,-59.742000579833984 C3.746999979019165,-41.57500076293945 16.304000854492188,-16.388999938964844 16.304000854492188,9.003999710083008 C16.304000854492188,19.93400001525879 13.977999687194824,29.96500015258789 9.729000091552734,38.94300079345703"></path></g></g><g style="display: block;" transform="matrix(1.3727713823318481,0,0,1.3718875646591187,215.09619140625,168.219970703125)" opacity="1"><g opacity="1" transform="matrix(1,0,0,1,18.961999893188477,20.472999572753906)"><path fill="rgb(0,0,0)" fill-opacity="1" d=" M14.013999938964844,7.382999897003174 C9.315999984741211,16.299999237060547 -0.765999972820282,20.222999572753906 -8.505999565124512,16.145999908447266 C-16.246000289916992,12.067999839782715 -18.711999893188477,1.5329999923706055 -14.015000343322754,-7.383999824523926 C-9.317000389099121,-16.299999237060547 0.765999972820282,-20.222999572753906 8.505999565124512,-16.145999908447266 C16.246000289916992,-12.067999839782715 18.711999893188477,-1.534000039100647 14.013999938964844,7.382999897003174z"></path></g></g><g style="display: block;" transform="matrix(1.3727713823318481,0,0,1.3718875646591187,167.3251190185547,141.8207550048828)" opacity="1"><g opacity="1" transform="matrix(1,0,0,1,38.02000045776367,14.642999649047852)"><path fill="rgb(0,0,0)" fill-opacity="1" d=" M30.54800033569336,13.638999938964844 C30.54800033569336,13.638999938964844 -33.277000427246094,-3.430999994277954 -33.277000427246094,-3.430999994277954 C-36.09600067138672,-4.184999942779541 -38.32099914550781,-7.973999977111816 -37.74100112915039,-10.833999633789062 C-37.025001525878906,-14.362000465393066 -34.090999603271484,-16.993999481201172 -31.27199935913086,-16.239999771118164 C-31.27199935913086,-16.239999771118164 32.553001403808594,0.8299999833106995 32.553001403808594,0.8299999833106995 C35.37200164794922,1.5839999914169312 37.96799850463867,5.241000175476074 36.65399932861328,9.331999778747559 C35.76100158691406,12.109999656677246 33.367000579833984,14.392999649047852 30.54800033569336,13.638999938964844z"></path></g></g><g style="display: block;" transform="matrix(1.3727713823318481,0,0,1.3718875646591187,367.6921081542969,161.51280212402344)" opacity="1"><g opacity="1" transform="matrix(1,0,0,1,15.444000244140625,19.135000228881836)"><path fill="rgb(0,0,0)" fill-opacity="1" d=" M-10.595999717712402,5.583000183105469 C-5.998000144958496,14.3100004196167 2.4730000495910645,18.885000228881836 8.326000213623047,15.802000045776367 C14.178000450134277,12.718000411987305 15.194999694824219,3.1440000534057617 10.597999572753906,-5.583000183105469 C6,-14.3100004196167 -2.4730000495910645,-18.885000228881836 -8.324999809265137,-15.800999641418457 C-14.178000450134277,-12.718000411987305 -15.194000244140625,-3.1440000534057617 -10.595999717712402,5.583000183105469z"></path></g></g><g style="display: block;" transform="matrix(1.3727713823318481,0,0,1.3718875646591187,363.2662658691406,141.92910766601562)" opacity="1"><g opacity="1" transform="matrix(1,0,0,1,21.915000915527344,10.336000442504883)"><path fill="rgb(0,0,0)" fill-opacity="1" d=" M-14.442000389099121,9.331000328063965 C-14.442000389099121,9.331000328063965 17.17300033569336,0.875 17.17300033569336,0.875 C19.992000579833984,0.12200000137090683 22.027999877929688,-3.7079999446868896 21.27400016784668,-6.526000022888184 C20.520000457763672,-9.345000267028809 17.986000061035156,-12.869000434875488 15.166999816894531,-12.114999771118164 C15.166999816894531,-12.114999771118164 -16.447999954223633,-3.6600000858306885 -16.447999954223633,-3.6600000858306885 C-19.267000198364258,-2.9059998989105225 -21.30299949645996,1.840000033378601 -20.548999786376953,4.658999919891357 C-19.795000076293945,7.478000164031982 -17.26099967956543,10.085000038146973 -14.442000389099121,9.331000328063965z"></path></g></g><g style="display: block;" transform="matrix(1.3727713823318481,0,0,1.3718875646591187,256.6280517578125,191.53521728515625)" opacity="1"><g opacity="1" transform="matrix(1,0,0,1,56.073001861572266,29.871999740600586)"><path fill="rgb(255,93,31)" fill-opacity="1" d=" M38.20500183105469,4.4019999504089355 C48.582000732421875,4.420000076293945 43.66400146484375,28.465999603271484 2.812999963760376,29.621000289916992 C-35.74800109863281,30.711000442504883 -49.24300003051758,11.342000007629395 -46.84299850463867,-0.04899999871850014 C-45.486000061035156,-6.48799991607666 -37.220001220703125,-9.788999557495117 -30.04400062561035,-10.418000221252441 C-8.062999725341797,-12.343000411987305 -19.11199951171875,-29.621000289916992 -2.8910000324249268,-29.621000289916992 C15.215999603271484,-29.621000289916992 13.710000038146973,-1.465999960899353 28.701000213623047,-5.6519999504089355 C47.992000579833984,-11.038999557495117 45.902000427246094,1.965000033378601 38.20500183105469,4.4019999504089355z"></path><path stroke-linecap="round" stroke-linejoin="round" fill-opacity="0" stroke="rgb(207,53,2)" stroke-opacity="1" stroke-width="5.778" d=" M38.20500183105469,4.4019999504089355 C48.582000732421875,4.420000076293945 43.66400146484375,28.465999603271484 2.812999963760376,29.621000289916992 C-35.74800109863281,30.711000442504883 -49.24300003051758,11.342000007629395 -46.84299850463867,-0.04899999871850014 C-45.486000061035156,-6.48799991607666 -37.220001220703125,-9.788999557495117 -30.04400062561035,-10.418000221252441 C-8.062999725341797,-12.343000411987305 -19.11199951171875,-29.621000289916992 -2.8910000324249268,-29.621000289916992 C15.215999603271484,-29.621000289916992 13.710000038146973,-1.465999960899353 28.701000213623047,-5.6519999504089355 C47.992000579833984,-11.038999557495117 45.902000427246094,1.965000033378601 38.20500183105469,4.4019999504089355z"></path></g></g><g style="display: block;" transform="matrix(1.1829719543457031,0,0,1.1822104454040527,256.1955871582031,230.950927734375)" opacity="1"><g opacity="1" transform="matrix(1,0,0,1,0,0)"><path stroke-linecap="round" stroke-linejoin="miter" fill-opacity="0" stroke-miterlimit="4" stroke="rgb(255,180,132)" stroke-opacity="1" stroke-width="8" d=" M37.250999450683594,-0.07699999958276749 C49.42599868774414,-2.046999931335449 57.972999572753906,-12.447999954223633 58.49100112915039,-20.347000122070312"></path></g></g><g style="display: block;" transform="matrix(1.3727713823318481,0,0,1.3718875646591187,245.9904327392578,204.1661834716797)" opacity="1"><g opacity="1" transform="matrix(1,0,0,1,72.0260009765625,32.6619987487793)"><path stroke-linecap="round" stroke-linejoin="round" fill-opacity="0" stroke="rgb(125,9,9)" stroke-opacity="1" stroke-width="5.778" d=" M-41.95800018310547,-6.939000129699707 C-23.847000122070312,6.4770002365112305 7.6479997634887695,2.259000062942505 28.336999893188477,-6.01200008392334"></path></g></g><g style="display: block;" transform="matrix(1.174365758895874,-0.21391534805297852,0.21405315399169922,1.173609733581543,244.86215209960938,292.56817626953125)" opacity="1"><g opacity="1" transform="matrix(1,0,0,1,68.83499908447266,79.34500122070312)"><path fill="rgb(141,82,193)" fill-opacity="1" d=" M8.911999702453613,-23.715999603271484 C-11.723344802856445,-51.042205810546875 -30.22672462463379,-50.07093048095703 -35.512725830078125,-47.20392990112305 C-45.65072250366211,-41.705928802490234 -44.68833541870117,-27.63978385925293 -30.904138565063477,-9.477171897888184 C-15.783492088317871,10.444347381591797 0.7401725649833679,24.015241622924805 43.834999084472656,3.4600000381469727"></path><path stroke-linecap="round" stroke-linejoin="round" fill-opacity="0" stroke="rgb(83,33,120)" stroke-opacity="1" stroke-width="8.306" d=" M8.911999702453613,-23.715999603271484 C-11.723344802856445,-51.042205810546875 -30.22672462463379,-50.07093048095703 -35.512725830078125,-47.20392990112305 C-45.65072250366211,-41.705928802490234 -44.68833541870117,-27.63978385925293 -30.904138565063477,-9.477171897888184 C-15.783492088317871,10.444347381591797 0.7401725649833679,24.015241622924805 43.834999084472656,3.4600000381469727"></path></g></g><g style="display: block;" transform="matrix(1.3592175245285034,-0.1923043578863144,0.19242824614048004,1.3583425283432007,68.83199310302734,223.26121520996094)" opacity="1"><g opacity="1" transform="matrix(1,0,0,1,25.863000869750977,32.92100143432617)"><path stroke-linecap="round" stroke-linejoin="round" fill-opacity="0" stroke="rgb(183,119,239)" stroke-opacity="1" stroke-width="6.957" d=" M173.41000366210938,100.9800033569336 C147.88800048828125,106.80699920654297 141.58700561523438,92.82499694824219 135.42599487304688,84.90799713134766"></path></g></g><g style="display: block;" transform="matrix(1.1878373622894287,-0.11822853982448578,0.11830470710992813,1.18707275390625,150.35531616210938,269.0620422363281)" opacity="1"><g opacity="1" transform="matrix(1,0,0,1,75.21800231933594,73.52899932861328)"><path fill="rgb(141,82,193)" fill-opacity="1" d=" M-0.3009999990463257,-17.56800079345703 C15.495930671691895,-41.46134567260742 34.84730911254883,-51.99013900756836 44.532310485839844,-45.7291374206543 C54.21731185913086,-39.467140197753906 50.49761962890625,-19.944448471069336 36.762550354003906,3.1340341567993164 C24.640539169311523,23.498802185058594 -13.013999938964844,48.52899932861328 -50.21900177001953,14.059000015258789"></path><path stroke-linecap="round" stroke-linejoin="round" fill-opacity="0" stroke="rgb(83,33,120)" stroke-opacity="1" stroke-width="8.306" d=" M-0.3009999990463257,-17.56800079345703 C15.495930671691895,-41.46134567260742 34.84730911254883,-51.99013900756836 44.532310485839844,-45.7291374206543 C54.21731185913086,-39.467140197753906 50.49761962890625,-19.944448471069336 36.762550354003906,3.1340341567993164 C24.640539169311523,23.498802185058594 -13.013999938964844,48.52899932861328 -50.21900177001953,14.059000015258789"></path></g></g><g style="display: block;" transform="matrix(1.3703099489212036,-0.08211971074342728,0.08217260986566544,1.3694276809692383,80.55491638183594,177.40829467773438)" opacity="1"><g opacity="1" transform="matrix(1,0,0,1,25.863000869750977,32.92100143432617)"><path stroke-linecap="round" stroke-linejoin="round" fill-opacity="0" stroke="rgb(255,255,255)" stroke-opacity="1" stroke-width="6.957" d=" M93.08999633789062,91.27200317382812 C97.38999938964844,83.89399719238281 104.0739974975586,74.23100280761719 115.20500183105469,66.8759994506836"></path></g></g><g style="display: block;" transform="matrix(1.178743839263916,0,0,1.1864632368087769,256.1777648925781,230.00704956054688)" opacity="1"><g opacity="1" transform="matrix(1,0,0,1,0,0)"><path fill="rgb(141,82,193)" fill-opacity="1" d=" M-97.5,-95.5 C-108,-112 -114.5,-138.5 -103,-165 C-94.5,-150.5 -68.5,-129.5 -57,-128.5"></path><path stroke-linecap="round" stroke-linejoin="round" fill-opacity="0" stroke="rgb(83,33,121)" stroke-opacity="1" stroke-width="8" d=" M-97.5,-95.5 C-108,-112 -114.5,-138.5 -103,-165 C-94.5,-150.5 -68.5,-129.5 -57,-128.5"></path></g></g><g style="display: block;" transform="matrix(1.2805368900299072,0.47791263461112976,-0.4763031303882599,1.292994499206543,166.40432739257812,-12.975748062133789)" opacity="1"><g opacity="1" transform="matrix(1,0,0,1,72.16899871826172,56.33100128173828)"><path stroke-linecap="round" stroke-linejoin="round" fill-opacity="0" stroke="rgb(183,119,239)" stroke-opacity="1" stroke-width="5" d=" M-63.823001861572266,1.3960000276565552 C-58.00899887084961,4.382999897003174 -51.30099868774414,6.493000030517578 -44.9010009765625,6.260000228881836"></path></g></g><g style="display: block;" transform="matrix(1.287140965461731,0.4769446849822998,-0.47725194692611694,1.2863123416900635,174.83355712890625,-4.258080005645752)" opacity="1"><g opacity="1" transform="matrix(1,0,0,1,72.16899871826172,56.33100128173828)"><path stroke-linecap="round" stroke-linejoin="round" fill-opacity="0" stroke="rgb(255,255,255)" stroke-opacity="1" stroke-width="5" d=" M-82.41200256347656,-7.071000099182129 C-81.85099792480469,-2.9089999198913574 -77.74099731445312,8.01200008392334 -73.50900268554688,15.08899974822998"></path></g></g><g style="display: block;" transform="matrix(1.287140965461731,0.4769446849822998,-0.47725194692611694,1.2863123416900635,172.8498992919922,-8.292816162109375)" opacity="1"><g opacity="1" transform="matrix(1,0,0,1,72.16899871826172,56.33100128173828)"><path stroke-linecap="round" stroke-linejoin="round" fill-opacity="0" stroke="rgb(255,255,255)" stroke-opacity="1" stroke-width="5" d=" M92.20700073242188,-68.99600219726562 C91.7490005493164,-62.41299819946289 88.1969985961914,-56.470001220703125 86.09700012207031,-53.060001373291016"></path></g></g><g style="display: block;" transform="matrix(0.37672966718673706,0,0,0.3764871060848236,233.98313903808594,185.02915954589844)" opacity="1"><g opacity="1" transform="matrix(0.7913699746131897,0,0,0.7913699746131897,18.961999893188477,5.3379998207092285)"><path fill="rgb(255,255,255)" fill-opacity="1" d=" M14.013999938964844,7.382999897003174 C9.315999984741211,16.299999237060547 -0.765999972820282,20.222999572753906 -8.505999565124512,16.145999908447266 C-16.246000289916992,12.067999839782715 -18.711999893188477,1.5329999923706055 -14.015000343322754,-7.383999824523926 C-9.317000389099121,-16.299999237060547 0.765999972820282,-20.222999572753906 8.505999565124512,-16.145999908447266 C16.246000289916992,-12.067999839782715 18.711999893188477,-1.534000039100647 14.013999938964844,7.382999897003174z"></path></g></g><g style="display: block;" transform="matrix(0.2935534417629242,0,0,0.29336443543434143,377.2911376953125,172.65689086914062)" opacity="1"><g opacity="1" transform="matrix(1,0,0,1,15.444000244140625,19.135000228881836)"><path fill="rgb(255,255,255)" fill-opacity="1" d=" M-10.595999717712402,5.583000183105469 C-5.998000144958496,14.3100004196167 2.4730000495910645,18.885000228881836 8.326000213623047,15.802000045776367 C14.178000450134277,12.718000411987305 15.194999694824219,3.1440000534057617 10.597999572753906,-5.583000183105469 C6,-14.3100004196167 -2.4730000495910645,-18.885000228881836 -8.324999809265137,-15.800999641418457 C-14.178000450134277,-12.718000411987305 -15.194000244140625,-3.1440000534057617 -10.595999717712402,5.583000183105469z"></path></g></g></g><g clip-path="url(#__lottie_element_4)" style="display: block;" transform="matrix(1,0,0,1,0,0)" opacity="1"><g clip-path="url(#__lottie_element_89)" style="display: block;" transform="matrix(1,0,0,1,0,21)" opacity="1"><g style="display: block;" transform="matrix(1.0695724487304688,0,0,1.0695724487304688,68.85981750488281,362.3983154296875)" opacity="1"><g opacity="1" transform="matrix(1,0,0,1,176.4949951171875,64.81999969482422)"><path stroke-linecap="round" stroke-linejoin="round" fill-opacity="0" stroke="rgb(3,180,255)" stroke-opacity="1" stroke-width="4.173734742416041" d=" M151.4949951171875,0 C151.4949951171875,21.992000579833984 83.66899871826172,39.81999969482422 0.0010000000474974513,39.81999969482422 C-83.66699981689453,39.81999969482422 -151.49400329589844,21.992000579833984 -151.49400329589844,0 C-151.49400329589844,-21.992000579833984 -83.66699981689453,-39.81999969482422 0.0010000000474974513,-39.81999969482422 C83.66899871826172,-39.81999969482422 151.4949951171875,-21.992000579833984 151.4949951171875,0z"></path></g></g></g><g clip-path="url(#__lottie_element_82)" style="display: block;" transform="matrix(1,0,0,1,0,21)" opacity="1"><g style="display: block;" transform="matrix(0.6889193058013916,0,0,0.6889193058013916,136.04318237304688,387.0722351074219)" opacity="1"><g opacity="1" transform="matrix(1,0,0,1,176.4949951171875,64.81999969482422)"><path stroke-linecap="round" stroke-linejoin="round" fill-opacity="0" stroke="rgb(3,180,255)" stroke-opacity="1" stroke-width="3.521578876848468" d=" M151.4949951171875,0 C151.4949951171875,21.992000579833984 83.66899871826172,39.81999969482422 0.0010000000474974513,39.81999969482422 C-83.66699981689453,39.81999969482422 -151.49400329589844,21.992000579833984 -151.49400329589844,0 C-151.49400329589844,-21.992000579833984 -83.66699981689453,-39.81999969482422 0.0010000000474974513,-39.81999969482422 C83.66899871826172,-39.81999969482422 151.4949951171875,-21.992000579833984 151.4949951171875,0z"></path></g></g></g><g style="display: block;" transform="matrix(1.2231632471084595,0,0,1.1634968519210815,20.005098342895508,232.6749267578125)" opacity="1"><g opacity="1" transform="matrix(1,0,0,1,181.74400329589844,121.2699966430664)"><path fill="rgb(141,82,193)" fill-opacity="1" d=" M-129.61700439453125,33.60900115966797 C-150.4010009765625,-0.6589999794960022 -141.73800659179688,-36.020999908447266 -126.04199981689453,-36.020999908447266 C-122.04399871826172,-36.020999908447266 -117.8759994506836,-33.999000549316406 -113.19300079345703,-29.73200035095215 C-90.85800170898438,-69.2249984741211 -38.79600143432617,-96.2699966430664 16.38800048828125,-96.2699966430664 C52.928001403808594,-96.2699966430664 87.99700164794922,-84.85700225830078 115.13400268554688,-64.13200378417969 C141.5780029296875,-43.9379997253418 156.74400329589844,-17.3700008392334 156.74400329589844,8.758000373840332 C156.74400329589844,34.44900131225586 149.13800048828125,86.73200225830078 12.907999992370605,88.9990005493164 C-99.6780014038086,90.87300109863281 -120.31800079345703,48.94200134277344 -129.61700439453125,33.60900115966797z"></path><path stroke-linecap="butt" stroke-linejoin="miter" fill-opacity="0" stroke-miterlimit="10" stroke="rgb(83,33,120)" stroke-opacity="1" stroke-width="8.306" d=" M-129.61700439453125,33.60900115966797 C-150.4010009765625,-0.6589999794960022 -141.73800659179688,-36.020999908447266 -126.04199981689453,-36.020999908447266 C-122.04399871826172,-36.020999908447266 -117.8759994506836,-33.999000549316406 -113.19300079345703,-29.73200035095215 C-90.85800170898438,-69.2249984741211 -38.79600143432617,-96.2699966430664 16.38800048828125,-96.2699966430664 C52.928001403808594,-96.2699966430664 87.99700164794922,-84.85700225830078 115.13400268554688,-64.13200378417969 C141.5780029296875,-43.9379997253418 156.74400329589844,-17.3700008392334 156.74400329589844,8.758000373840332 C156.74400329589844,34.44900131225586 149.13800048828125,86.73200225830078 12.907999992370605,88.9990005493164 C-99.6780014038086,90.87300109863281 -120.31800079345703,48.94200134277344 -129.61700439453125,33.60900115966797z"></path></g></g><g style="display: block;" transform="matrix(1.2231632471084595,0,0,1.1634968519210815,85.92382049560547,295.21636962890625)" opacity="1"><g opacity="1" transform="matrix(1,0,0,1,35.4109992980957,44.676998138427734)"><path stroke-linecap="round" stroke-linejoin="round" fill-opacity="0" stroke="rgb(255,255,255)" stroke-opacity="1" stroke-width="6.957" d=" M-10.21500015258789,17.350000381469727 C-9.164999961853027,6.925000190734863 -5.934999942779541,-1.0420000553131104 1.159000039100647,-9.779000282287598"></path></g></g><g style="display: block;" transform="matrix(1.2231632471084595,0,0,1.1634968519210815,354.68212890625,295.2000732421875)" opacity="1"><g opacity="1" transform="matrix(1,0,0,1,37.069000244140625,67.66000366210938)"><path stroke-linecap="round" stroke-linejoin="round" fill-opacity="0" stroke="rgb(182,118,238)" stroke-opacity="1" stroke-width="6.957" d=" M-8.394000053405762,-39.236000061035156 C4.375999927520752,-26.606000900268555 12.069000244140625,-10.836999893188477 12.069000244140625,5.040999889373779 C12.069000244140625,9.972000122070312 11.32699966430664,14.656999588012695 9.920999526977539,19.069000244140625"></path></g></g><g style="display: block;" transform="matrix(-1.2078235149383545,0,0,1.1571743488311768,274.4132080078125,236.3210906982422)" opacity="1"><g opacity="1" transform="matrix(1,0,0,1,0,0)"><path fill="rgb(141,82,193)" fill-opacity="1" d=" M-97.5,-95.5 C-108,-112 -114.5,-138.5 -103,-165 C-94.5,-150.5 -68.5,-129.5 -57,-128.5"></path><path stroke-linecap="round" stroke-linejoin="round" fill-opacity="0" stroke="rgb(83,33,121)" stroke-opacity="1" stroke-width="8" d=" M-97.5,-95.5 C-108,-112 -114.5,-138.5 -103,-165 C-94.5,-150.5 -68.5,-129.5 -57,-128.5"></path></g></g><g style="display: block;" transform="matrix(1.4066376686096191,0,0,1.3380213975906372,56.21976852416992,23.615835189819336)" opacity="1"><g opacity="1" transform="matrix(1,0,0,1,146.54400634765625,119.31900024414062)"><path fill="rgb(141,82,193)" fill-opacity="1" d=" M-88.71199798583984,94.1520004272461 C-109.3479995727539,77.05899810791016 -121.54399871826172,53.08599853515625 -121.54399871826172,24.76099967956543 C-121.54399871826172,-35.24700164794922 -67.12799835205078,-94.31900024414062 -0.0010000000474974513,-94.31900024414062 C67.1259994506836,-94.31900024414062 121.54399871826172,-35.24700164794922 121.54399871826172,24.76099967956543 C121.54399871826172,53.0099983215332 109.40699768066406,77.08999633789062 88.51000213623047,94.31900024414062"></path><path stroke-linecap="round" stroke-linejoin="round" fill-opacity="0" stroke="rgb(83,33,120)" stroke-opacity="1" stroke-width="7.22" d=" M-88.71199798583984,94.1520004272461 C-109.3479995727539,77.05899810791016 -121.54399871826172,53.08599853515625 -121.54399871826172,24.76099967956543 C-121.54399871826172,-35.24700164794922 -67.12799835205078,-94.31900024414062 -0.0010000000474974513,-94.31900024414062 C67.1259994506836,-94.31900024414062 121.54399871826172,-35.24700164794922 121.54399871826172,24.76099967956543 C121.54399871826172,53.0099983215332 109.40699768066406,77.08999633789062 88.51000213623047,94.31900024414062"></path></g></g><g style="display: block;" transform="matrix(1.3188947439193726,0.46517089009284973,-0.4890258014202118,1.2545585632324219,170.91213989257812,1.936980962753296)" opacity="1"><g opacity="1" transform="matrix(1,0,0,1,72.16899871826172,56.33100128173828)"><path stroke-linecap="round" stroke-linejoin="round" fill-opacity="0" stroke="rgb(255,255,255)" stroke-opacity="1" stroke-width="6.957" d=" M-18.878999710083008,-6.638999938964844 C-14.550000190734863,-10.307999610900879 -9.902999877929688,-13.656999588012695 -4.982999801635742,-16.624000549316406 C10.232000350952148,-25.799999237060547 28.04800033569336,-31.31599998474121 47.09299850463867,-31.33099937438965"></path></g></g><g style="display: block;" transform="matrix(1.4066376686096191,0,0,1.3380213975906372,323.8466796875,87.20931243896484)" opacity="1"><g opacity="1" transform="matrix(1,0,0,1,41.30400085449219,84.74199676513672)"><path stroke-linecap="round" stroke-linejoin="round" fill-opacity="0" stroke="rgb(182,118,238)" stroke-opacity="1" stroke-width="6.957" d=" M-12.234999656677246,-55.85599899291992 C5.431000232696533,-38.07400131225586 16.304000854492188,-14.625 16.304000854492188,9.003999710083008 C16.304000854492188,21.958999633789062 13.03600025177002,33.6510009765625 7.171999931335449,43.82500076293945"></path></g></g><g style="display: block;" transform="matrix(1.4066376686096191,0,0,1.3380213975906372,214.20065307617188,176.0592803955078)" opacity="1"><g opacity="1" transform="matrix(1,0,0,1,18.961999893188477,20.472999572753906)"><path fill="rgb(0,0,0)" fill-opacity="1" d=" M14.013999938964844,7.382999897003174 C9.315999984741211,16.299999237060547 -0.765999972820282,20.222999572753906 -8.505999565124512,16.145999908447266 C-16.246000289916992,12.067999839782715 -18.711999893188477,1.5329999923706055 -14.015000343322754,-7.383999824523926 C-9.317000389099121,-16.299999237060547 0.765999972820282,-20.222999572753906 8.505999565124512,-16.145999908447266 C16.246000289916992,-12.067999839782715 18.711999893188477,-1.534000039100647 14.013999938964844,7.382999897003174z"></path></g></g><g style="display: block;" transform="matrix(1.4066376686096191,0,0,1.3380213975906372,165.25106811523438,163.6919403076172)" opacity="1"><g opacity="1" transform="matrix(1,0,0,1,38.02000045776367,14.642999649047852)"><path fill="rgb(0,0,0)" fill-opacity="1" d=" M30.54800033569336,13.638999938964844 C30.54800033569336,13.638999938964844 -33.277000427246094,-3.430999994277954 -33.277000427246094,-3.430999994277954 C-36.09600067138672,-4.184999942779541 -38.32099914550781,-7.973999977111816 -37.74100112915039,-10.833999633789062 C-37.025001525878906,-14.362000465393066 -34.090999603271484,-16.993999481201172 -31.27199935913086,-16.239999771118164 C-31.27199935913086,-16.239999771118164 32.553001403808594,0.8299999833106995 32.553001403808594,0.8299999833106995 C35.37200164794922,1.5839999914169312 37.96799850463867,5.241000175476074 36.65399932861328,9.331999778747559 C35.76100158691406,12.109999656677246 33.367000579833984,14.392999649047852 30.54800033569336,13.638999938964844z"></path></g></g><g style="display: block;" transform="matrix(1.4066376686096191,0,0,1.3380213975906372,370.5611267089844,169.51766967773438)" opacity="1"><g opacity="1" transform="matrix(1,0,0,1,15.444000244140625,19.135000228881836)"><path fill="rgb(0,0,0)" fill-opacity="1" d=" M-10.595999717712402,5.583000183105469 C-5.998000144958496,14.3100004196167 2.4730000495910645,18.885000228881836 8.326000213623047,15.802000045776367 C14.178000450134277,12.718000411987305 15.194999694824219,3.1440000534057617 10.597999572753906,-5.583000183105469 C6,-14.3100004196167 -2.4730000495910645,-18.885000228881836 -8.324999809265137,-15.800999641418457 C-14.178000450134277,-12.718000411987305 -15.194000244140625,-3.1440000534057617 -10.595999717712402,5.583000183105469z"></path></g></g><g style="display: block;" transform="matrix(1.4066376686096191,0,0,1.3380213975906372,366.026123046875,163.7976531982422)" opacity="1"><g opacity="1" transform="matrix(1,0,0,1,21.915000915527344,10.336000442504883)"><path fill="rgb(0,0,0)" fill-opacity="1" d=" M-14.442000389099121,9.331000328063965 C-14.442000389099121,9.331000328063965 17.17300033569336,0.875 17.17300033569336,0.875 C19.992000579833984,0.12200000137090683 22.027999877929688,-3.7079999446868896 21.27400016784668,-6.526000022888184 C20.520000457763672,-9.345000267028809 17.986000061035156,-12.869000434875488 15.166999816894531,-12.114999771118164 C15.166999816894531,-12.114999771118164 -16.447999954223633,-3.6600000858306885 -16.447999954223633,-3.6600000858306885 C-19.267000198364258,-2.9059998989105225 -21.30299949645996,1.840000033378601 -20.548999786376953,4.658999919891357 C-19.795000076293945,7.478000164031982 -17.26099967956543,10.085000038146973 -14.442000389099121,9.331000328063965z"></path></g></g><g style="display: block;" transform="matrix(1.4066376686096191,0,0,1.3380213975906372,256.757080078125,198.79896545410156)" opacity="1"><g opacity="1" transform="matrix(1,0,0,1,56.073001861572266,29.871999740600586)"><path fill="rgb(255,93,31)" fill-opacity="1" d=" M45.21849822998047,3.0355000495910645 C57.34450149536133,3.3320000171661377 49.02750015258789,27.196500778198242 2.9040000438690186,29.621000289916992 C-31.371999740600586,31.243499755859375 -58.58700180053711,17.128999710083008 -54.926998138427734,-0.06700000166893005 C-53.33649826049805,-7.549499988555908 -45.69449996948242,-8.767000198364258 -35.782501220703125,-8.961000442504883 C-13.761500358581543,-9.713500022888184 -19.11199951171875,-29.621000289916992 -2.8910000324249268,-29.621000289916992 C15.215999603271484,-29.621000289916992 21.179500579833984,-3.1054999828338623 36.170501708984375,-7.291500091552734 C55.46149826049805,-12.678500175476074 52.91550064086914,0.5985000133514404 45.21849822998047,3.0355000495910645z"></path><path stroke-linecap="round" stroke-linejoin="round" fill-opacity="0" stroke="rgb(207,53,2)" stroke-opacity="1" stroke-width="5.778" d=" M45.21849822998047,3.0355000495910645 C57.34450149536133,3.3320000171661377 49.02750015258789,27.196500778198242 2.9040000438690186,29.621000289916992 C-31.371999740600586,31.243499755859375 -58.58700180053711,17.128999710083008 -54.926998138427734,-0.06700000166893005 C-53.33649826049805,-7.549499988555908 -45.69449996948242,-8.767000198364258 -35.782501220703125,-8.961000442504883 C-13.761500358581543,-9.713500022888184 -19.11199951171875,-29.621000289916992 -2.8910000324249268,-29.621000289916992 C15.215999603271484,-29.621000289916992 21.179500579833984,-3.1054999828338623 36.170501708984375,-7.291500091552734 C55.46149826049805,-12.678500175476074 52.91550064086914,0.5985000133514404 45.21849822998047,3.0355000495910645z"></path></g></g><g style="display: block;" transform="matrix(1.2121559381484985,0,0,1.1530264616012573,256.3139953613281,237.2416534423828)" opacity="1"><g opacity="1" transform="matrix(1,0,0,1,0,0)"><path stroke-linecap="round" stroke-linejoin="miter" fill-opacity="0" stroke-miterlimit="4" stroke="rgb(255,180,132)" stroke-opacity="1" stroke-width="8" d=" M31.493999481201172,0.20100000500679016 C41.17300033569336,0.8100000023841858 49.25199890136719,-4.025000095367432 53.986000061035156,-9.968000411987305"></path></g></g><g style="display: block;" transform="matrix(1.4066376686096191,0,0,1.3380213975906372,245.8570556640625,211.11813354492188)" opacity="1"><g opacity="1" transform="matrix(1,0,0,1,72.0260009765625,32.6619987487793)"><path stroke-linecap="round" stroke-linejoin="round" fill-opacity="0" stroke="rgb(125,9,9)" stroke-opacity="1" stroke-width="5.778" d=" M-49.89149856567383,-7.672500133514404 C-31.79599952697754,5.022500038146973 8.383000373840332,4.042500019073486 36.678001403808594,-8.321000099182129"></path></g></g><g style="display: block;" transform="matrix(1.2082377672195435,-0.1812058985233307,0.1904985010623932,1.1492995023727417,245.8077850341797,293.9792175292969)" opacity="1"><g opacity="1" transform="matrix(1,0,0,1,68.83499908447266,79.34500122070312)"><path fill="rgb(141,82,193)" fill-opacity="1" d=" M8.911999702453613,-23.715999603271484 C-10.798040390014648,-51.637046813964844 -29.433605194091797,-51.78935241699219 -34.7196044921875,-48.92235565185547 C-44.85760498046875,-43.424354553222656 -44.23202896118164,-29.54802703857422 -31.300697326660156,-10.931222915649414 C-17.171846389770508,9.323538780212402 0.2775200307369232,25.667572021484375 43.834999084472656,3.4600000381469727"></path><path stroke-linecap="round" stroke-linejoin="round" fill-opacity="0" stroke="rgb(83,33,120)" stroke-opacity="1" stroke-width="8.306" d=" M8.911999702453613,-23.715999603271484 C-10.798040390014648,-51.637046813964844 -29.433605194091797,-51.78935241699219 -34.7196044921875,-48.92235565185547 C-44.85760498046875,-43.424354553222656 -44.23202896118164,-29.54802703857422 -31.300697326660156,-10.931222915649414 C-17.171846389770508,9.323538780212402 0.2775200307369232,25.667572021484375 43.834999084472656,3.4600000381469727"></path></g></g><g style="display: block;" transform="matrix(1.3970659971237183,-0.1558263748884201,0.16381746530532837,1.3289165496826172,67.18568420410156,222.30001831054688)" opacity="1"><g opacity="1" transform="matrix(1,0,0,1,25.863000869750977,32.92100143432617)"><path stroke-linecap="round" stroke-linejoin="round" fill-opacity="0" stroke="rgb(183,119,239)" stroke-opacity="1" stroke-width="6.957" d=" M180.58799743652344,99.9990005493164 C162.26400756835938,106.1989974975586 152.4239959716797,103.01799774169922 146.0679931640625,97.56199645996094"></path></g></g><g style="display: block;" transform="matrix(1.2186319828033447,-0.10005658864974976,0.10518769174814224,1.159186601638794,148.41622924804688,273.9783935546875)" opacity="1"><g opacity="1" transform="matrix(1,0,0,1,75.21800231933594,73.52899932861328)"><path fill="rgb(141,82,193)" fill-opacity="1" d=" M-0.3009999990463257,-17.56800079345703 C15.297651290893555,-40.536041259765625 34.78121566772461,-50.469993591308594 44.466217041015625,-44.2089958190918 C54.15121841430664,-37.94699478149414 50.36543273925781,-18.358211517333984 36.43208694458008,4.191525459289551 C23.95753288269043,24.312541961669922 -13.013999938964844,48.52899932861328 -50.21900177001953,14.059000015258789"></path><path stroke-linecap="round" stroke-linejoin="round" fill-opacity="0" stroke="rgb(83,33,120)" stroke-opacity="1" stroke-width="8.306" d=" M-0.3009999990463257,-17.56800079345703 C15.297651290893555,-40.536041259765625 34.78121566772461,-50.469993591308594 44.466217041015625,-44.2089958190918 C54.15121841430664,-37.94699478149414 50.36543273925781,-18.358211517333984 36.43208694458008,4.191525459289551 C23.95753288269043,24.312541961669922 -13.013999938964844,48.52899932861328 -50.21900177001953,14.059000015258789"></path></g></g><g style="display: block;" transform="matrix(1.4051023721694946,-0.06250052899122238,0.06570568680763245,1.336560845375061,78.13734436035156,183.69920349121094)" opacity="1"><g opacity="1" transform="matrix(1,0,0,1,25.863000869750977,32.92100143432617)"><path stroke-linecap="round" stroke-linejoin="round" fill-opacity="0" stroke="rgb(255,255,255)" stroke-opacity="1" stroke-width="6.957" d=" M89.83999633789062,96.61100006103516 C93.14700317382812,91.00299835205078 97.5979995727539,83.14600372314453 106.16600036621094,75.61599731445312"></path></g></g><g style="display: block;" transform="matrix(1.2078235149383545,0,0,1.1571743488311768,256.2956848144531,236.3210906982422)" opacity="1"><g opacity="1" transform="matrix(1,0,0,1,0,0)"><path fill="rgb(141,82,193)" fill-opacity="1" d=" M-97.5,-95.5 C-108,-112 -114.5,-138.5 -103,-165 C-94.5,-150.5 -68.5,-129.5 -57,-128.5"></path><path stroke-linecap="round" stroke-linejoin="round" fill-opacity="0" stroke="rgb(83,33,121)" stroke-opacity="1" stroke-width="8" d=" M-97.5,-95.5 C-108,-112 -114.5,-138.5 -103,-165 C-94.5,-150.5 -68.5,-129.5 -57,-128.5"></path></g></g><g style="display: block;" transform="matrix(1.3121278285980225,0.46611496806144714,-0.4880535304546356,1.261075735092163,164.30755615234375,-0.6634501218795776)" opacity="1"><g opacity="1" transform="matrix(1,0,0,1,72.16899871826172,56.33100128173828)"><path stroke-linecap="round" stroke-linejoin="round" fill-opacity="0" stroke="rgb(183,119,239)" stroke-opacity="1" stroke-width="5" d=" M-62.91400146484375,1.8519999980926514 C-57.00899887084961,4.744999885559082 -50.27199935913086,6.684999942779541 -43.90599822998047,6.204999923706055"></path></g></g><g style="display: block;" transform="matrix(1.3188947439193726,0.46517089009284973,-0.4890258014202118,1.2545585632324219,172.9447479248047,7.838990211486816)" opacity="1"><g opacity="1" transform="matrix(1,0,0,1,72.16899871826172,56.33100128173828)"><path stroke-linecap="round" stroke-linejoin="round" fill-opacity="0" stroke="rgb(255,255,255)" stroke-opacity="1" stroke-width="5" d=" M-82.19100189208984,-5.855999946594238 C-81.08699798583984,-0.800000011920929 -76.95700073242188,9.692999839782715 -72.8740005493164,16.1200008392334"></path></g></g><g style="display: block;" transform="matrix(1.3188947439193726,0.46517089009284973,-0.4890258014202118,1.2545585632324219,170.91213989257812,3.903856039047241)" opacity="1"><g opacity="1" transform="matrix(1,0,0,1,72.16899871826172,56.33100128173828)"><path stroke-linecap="round" stroke-linejoin="round" fill-opacity="0" stroke="rgb(255,255,255)" stroke-opacity="1" stroke-width="5" d=" M92.12699890136719,-68.11100006103516 C91.3759994506836,-61.38199996948242 87.54900360107422,-55.42399978637695 85.63999938964844,-52.319000244140625"></path></g></g><g style="display: block;" transform="matrix(0.386023610830307,0,0,0.36719319224357605,233.55355834960938,192.45352172851562)" opacity="1"><g opacity="1" transform="matrix(0.7913699746131897,0,0,0.7913699746131897,18.961999893188477,5.3379998207092285)"><path fill="rgb(255,255,255)" fill-opacity="1" d=" M14.013999938964844,7.382999897003174 C9.315999984741211,16.299999237060547 -0.765999972820282,20.222999572753906 -8.505999565124512,16.145999908447266 C-16.246000289916992,12.067999839782715 -18.711999893188477,1.5329999923706055 -14.015000343322754,-7.383999824523926 C-9.317000389099121,-16.299999237060547 0.765999972820282,-20.222999572753906 8.505999565124512,-16.145999908447266 C16.246000289916992,-12.067999839782715 18.711999893188477,-1.534000039100647 14.013999938964844,7.382999897003174z"></path></g></g><g style="display: block;" transform="matrix(0.30079543590545654,0,0,0.28612247109413147,380.39697265625,180.38665771484375)" opacity="1"><g opacity="1" transform="matrix(1,0,0,1,15.444000244140625,19.135000228881836)"><path fill="rgb(255,255,255)" fill-opacity="1" d=" M-10.595999717712402,5.583000183105469 C-5.998000144958496,14.3100004196167 2.4730000495910645,18.885000228881836 8.326000213623047,15.802000045776367 C14.178000450134277,12.718000411987305 15.194999694824219,3.1440000534057617 10.597999572753906,-5.583000183105469 C6,-14.3100004196167 -2.4730000495910645,-18.885000228881836 -8.324999809265137,-15.800999641418457 C-14.178000450134277,-12.718000411987305 -15.194000244140625,-3.1440000534057617 -10.595999717712402,5.583000183105469z"></path></g></g></g></g></svg>