<svg xmlns="http://www.w3.org/2000/svg" xmlns:xlink="http://www.w3.org/1999/xlink" viewBox="0 0 512 512" width="512" height="512" style="width: 100%; height: 100%; transform: translate3d(0,0,0); content-visibility: visible;" preserveAspectRatio="xMidYMid meet"><defs><clipPath id="__lottie_element_2"><rect width="512" height="512" x="0" y="0"></rect></clipPath><clipPath id="__lottie_element_4"><path d="M0,0 L512,0 L512,512 L0,512z"></path></clipPath><clipPath id="__lottie_element_69"><path d="M0,0 L512,0 L512,512 L0,512z"></path></clipPath></defs><g clip-path="url(#__lottie_element_2)"><g clip-path="url(#__lottie_element_69)" style="display: block;" transform="matrix(1,0,0,1,0,0)" opacity="1"><g style="display: block;" transform="matrix(0.9996274709701538,0.027293559163808823,-0.027293559163808823,0.9996274709701538,4.61370849609375,-25.824981689453125)" opacity="1"><g opacity="1" transform="matrix(1,0,0,1,60.9119987487793,72.8759994506836)"><path stroke-linecap="round" stroke-linejoin="round" fill-opacity="0" stroke="rgb(141,82,193)" stroke-opacity="1" stroke-width="10" d=" M-35.9119987487793,-25.093000411987305 C-29.231000900268555,-5.364999771118164 -20.187999725341797,13.560999870300293 -9.036999702453613,31.152999877929688 C-7.914000034332275,10.956000328063965 -5.7789998054504395,-9.184000015258789 -2.6419999599456787,-29.166000366210938 C8.027999877929688,-11.13700008392334 18.697999954223633,6.892000198364258 29.368000030517578,24.92099952697754 C31.118000030517578,6.183000087738037 33.29999923706055,-12.515000343322754 35.9119987487793,-31.152999877929688"></path></g><g opacity="1" transform="matrix(1,0,0,1,122.5479965209961,66.01399993896484)"><path stroke-linecap="round" stroke-linejoin="round" fill-opacity="0" stroke="rgb(141,82,193)" stroke-opacity="1" stroke-width="10" d=" M3.6040000915527344,30.290000915527344 C1.2009999752044678,10.097000122070312 -1.2009999752044678,-10.095999717712402 -3.6040000915527344,-30.290000915527344"></path></g><g opacity="1" transform="matrix(1,0,0,1,156.177001953125,66.01000213623047)"><path stroke-linecap="round" stroke-linejoin="round" fill-opacity="0" stroke="rgb(141,82,193)" stroke-opacity="1" stroke-width="10" d=" M4.645999908447266,26.972999572753906 C1.5479999780654907,8.991000175476074 -1.5499999523162842,-8.991000175476074 -4.646999835968018,-26.972999572753906"></path></g><g opacity="1" transform="matrix(1,0,0,1,203.31399536132812,62.555999755859375)"><path stroke-linecap="round" stroke-linejoin="round" fill-opacity="0" stroke="rgb(141,82,193)" stroke-opacity="1" stroke-width="10" d=" M-22,29.913999557495117 C-17.1560001373291,9.946000099182129 -12.211000442504883,-9.996999740600586 -7.165999889373779,-29.913999557495117 C0.12700000405311584,-14.805000305175781 14.281000137329102,12.78499984741211 22,29.913999557495117"></path></g><g opacity="1" transform="matrix(1,0,0,1,247.6320037841797,61.57099914550781)"><path stroke-linecap="round" stroke-linejoin="round" fill-opacity="0" stroke="rgb(141,82,193)" stroke-opacity="1" stroke-width="10" d=" M1.3990000486373901,26.95599937438965 C-0.07900000363588333,14.8149995803833 -1.0130000114440918,-14.732000350952148 -1.3980000019073486,-26.95599937438965"></path></g><g opacity="1" transform="matrix(1,0,0,1,246.26300048828125,33.72999954223633)"><path stroke-linecap="round" stroke-linejoin="round" fill-opacity="0" stroke="rgb(141,82,193)" stroke-opacity="1" stroke-width="10" d=" M-17.988000869750977,1.1449999809265137 C-5.942999839782715,1.621999979019165 6.1570000648498535,0.6919999718666077 17.988000869750977,-1.621999979019165"></path></g><g opacity="1" transform="matrix(1,0,0,1,299.1860046386719,54.79800033569336)"><path stroke-linecap="round" stroke-linejoin="round" fill-opacity="0" stroke="rgb(141,82,193)" stroke-opacity="1" stroke-width="10" d=" M-17.506999969482422,-23.45800018310547 C-17.514999389648438,-8.88599967956543 -17.523000717163086,5.685999870300293 -17.531999588012695,20.259000778198242 C-17.531999588012695,20.70400047302246 -17.506999969482422,21.20599937438965 -17.17300033569336,21.5 C-16.909000396728516,21.732999801635742 -16.527999877929688,21.761999130249023 -16.177000045776367,21.77899932861328 C-4.940999984741211,22.339000701904297 6.295000076293945,22.89900016784668 17.531999588012695,23.45800018310547"></path></g><g opacity="1" transform="matrix(1,0,0,1,0,0)"><path stroke-linecap="round" stroke-linejoin="round" fill-opacity="0" stroke="rgb(141,82,193)" stroke-opacity="1" stroke-width="10" d=" M280.9700012207031,31.336999893188477 C280.9700012207031,31.336999893188477 309.7430114746094,31.336999893188477 309.7430114746094,31.336999893188477"></path></g><g opacity="1" transform="matrix(1,0,0,1,0,0)"><path stroke-linecap="round" stroke-linejoin="round" fill-opacity="0" stroke="rgb(141,82,193)" stroke-opacity="1" stroke-width="10" d=" M285.1759948730469,53.768001556396484 C285.1759948730469,53.768001556396484 310.4200134277344,53.768001556396484 310.4200134277344,53.768001556396484"></path></g><g opacity="1" transform="matrix(1,0,0,1,346.9530029296875,61.279998779296875)"><path stroke-linecap="round" stroke-linejoin="round" fill-opacity="0" stroke="rgb(141,82,193)" stroke-opacity="1" stroke-width="10" d=" M-18.68199920654297,-32.15599822998047 C-14.048999786376953,-9.213000297546387 -7.7210001945495605,9.810999870300293 -2.2079999446868896,32.242000579833984 C4.214000225067139,10.463000297546387 11.1899995803833,-11.369999885559082 18.68199920654297,-32.242000579833984"></path></g><g opacity="1" transform="matrix(1,0,0,1,402.20599365234375,63.65399932861328)"><path stroke-linecap="round" stroke-linejoin="round" fill-opacity="0" stroke="rgb(141,82,193)" stroke-opacity="1" stroke-width="10" d=" M-19.863000869750977,-31.229999542236328 C-18.875999450683594,-11.048999786376953 -17.88800048828125,11.04800033569336 -16.900999069213867,31.229999542236328 C-4.63700008392334,31.14699935913086 7.02400016784668,30.493000030517578 19.863000869750977,30.493000030517578"></path></g><g opacity="1" transform="matrix(1,0,0,1,0,0)"><path stroke-linecap="round" stroke-linejoin="round" fill-opacity="0" stroke="rgb(141,82,193)" stroke-opacity="1" stroke-width="10" d=" M381.6780090332031,30.79199981689453 C381.6780090332031,30.79199981689453 416.822998046875,30.79199981689453 416.822998046875,30.79199981689453"></path></g><g opacity="1" transform="matrix(1,0,0,1,0,0)"><path stroke-linecap="round" stroke-linejoin="round" fill-opacity="0" stroke="rgb(141,82,193)" stroke-opacity="1" stroke-width="10" d=" M386.0450134277344,62.999000549316406 C386.0450134277344,62.999000549316406 387.1369934082031,62.999000549316406 387.1369934082031,62.999000549316406 C387.1369934082031,62.999000549316406 418.2950134277344,62.999000549316406 418.2950134277344,62.999000549316406"></path></g><g opacity="1" transform="matrix(1,0,0,1,461.0379943847656,62.2859992980957)"><path stroke-linecap="round" stroke-linejoin="round" fill-opacity="0" stroke="rgb(141,82,193)" stroke-opacity="1" stroke-width="10" d=" M-18.792999267578125,37.2859992980957 C-19.239999771118164,13.3100004196167 -19.687000274658203,-10.664999961853027 -20.134000778198242,-34.64099884033203 C-15.82699966430664,-35.8489990234375 -11.394000053405762,-36.60900115966797 -6.929999828338623,-36.90599822998047 C-1.2029999494552612,-37.2859992980957 5.0879998207092285,-36.694000244140625 9.277000427246094,-32.77000045776367 C13.598999977111816,-28.722000122070312 14.498000144958496,-21.832000732421875 12.324000358581543,-16.323999404907227 C10.149999618530273,-10.815999984741211 5.364999771118164,-6.640999794006348 0.019999999552965164,-4.093999862670898 C-5.326000213623047,-1.5479999780654907 -11.23799991607666,-0.45899999141693115 -17.10300064086914,0.3569999933242798 C-2.378000020980835,9.420999526977539 10.404000282287598,21.628000259399414 20.134000778198242,35.92300033569336"></path></g><g opacity="1" transform="matrix(1,0,0,1,139.11300659179688,64.81999969482422)"><path stroke-linecap="round" stroke-linejoin="round" fill-opacity="0" stroke="rgb(141,82,193)" stroke-opacity="1" stroke-width="10" d=" M-16.368999481201172,2.8429999351501465 C-16.368999481201172,2.8429999351501465 16.368999481201172,-2.8429999351501465 16.368999481201172,-2.8429999351501465"></path></g><g opacity="1" transform="matrix(1,0,0,1,202.6199951171875,74.66799926757812)"><path stroke-linecap="round" stroke-linejoin="round" fill-opacity="0" stroke="rgb(141,82,193)" stroke-opacity="1" stroke-width="10" d=" M-14.065999984741211,0.6729999780654907 C-3.6440000534057617,0.6729999780654907 1.8049999475479126,-0.6729999780654907 14.065999984741211,-0.6729999780654907"></path></g></g><g style="display: block;" transform="matrix(1.1933300495147705,0,0,1.1933300495147705,25.648788452148438,236.18499755859375)" opacity="1"><g opacity="1" transform="matrix(1,0,0,1,181.74400329589844,121.2699966430664)"><path fill="rgb(255,213,39)" fill-opacity="1" d=" M-99.1719970703125,67.74199676513672 C-115.21099853515625,56.507999420166016 -125.44200134277344,40.492000579833984 -129.61700439453125,33.60900115966797 C-150.4010009765625,-0.6589999794960022 -141.73800659179688,-36.020999908447266 -126.04199981689453,-36.020999908447266 C-122.04399871826172,-36.020999908447266 -109.8010025024414,-27.98900032043457 -105.23200225830078,-4.5920000076293945"></path><path stroke-linecap="butt" stroke-linejoin="miter" fill-opacity="0" stroke-miterlimit="10" stroke="rgb(250,144,22)" stroke-opacity="1" stroke-width="16.611" d=" M-99.1719970703125,67.74199676513672 C-115.21099853515625,56.507999420166016 -125.44200134277344,40.492000579833984 -129.61700439453125,33.60900115966797 C-150.4010009765625,-0.6589999794960022 -141.73800659179688,-36.020999908447266 -126.04199981689453,-36.020999908447266 C-122.04399871826172,-36.020999908447266 -109.8010025024414,-27.98900032043457 -105.23200225830078,-4.5920000076293945"></path></g></g><g style="display: block;" transform="matrix(1.1933300495147705,0,0,1.1933300495147705,25.648788452148438,236.18499755859375)" opacity="1"><g opacity="1" transform="matrix(1,0,0,1,181.74400329589844,121.2699966430664)"><path fill="rgb(255,213,39)" fill-opacity="1" d=" M-122.49400329589844,23.972000122070312 C-127.39800262451172,-64.44200134277344 -38.79600143432617,-96.2699966430664 16.38800048828125,-96.2699966430664 C52.928001403808594,-96.2699966430664 87.99700164794922,-84.85700225830078 115.13400268554688,-64.13200378417969 C141.5780029296875,-43.9379997253418 156.74400329589844,-17.3700008392334 156.74400329589844,8.758000373840332 C156.74400329589844,34.44900131225586 149.13800048828125,86.73200225830078 12.907999992370605,88.9990005493164 C-99.6780014038086,90.87300109863281 -120.61100006103516,57.92499923706055 -122.49400329589844,23.972000122070312z"></path><path stroke-linecap="butt" stroke-linejoin="miter" fill-opacity="0" stroke-miterlimit="10" stroke="rgb(250,144,22)" stroke-opacity="1" stroke-width="16.611" d=" M-122.49400329589844,23.972000122070312 C-127.39800262451172,-64.44200134277344 -38.79600143432617,-96.2699966430664 16.38800048828125,-96.2699966430664 C52.928001403808594,-96.2699966430664 87.99700164794922,-84.85700225830078 115.13400268554688,-64.13200378417969 C141.5780029296875,-43.9379997253418 156.74400329589844,-17.3700008392334 156.74400329589844,8.758000373840332 C156.74400329589844,34.44900131225586 149.13800048828125,86.73200225830078 12.907999992370605,88.9990005493164 C-99.6780014038086,90.87300109863281 -120.61100006103516,57.92499923706055 -122.49400329589844,23.972000122070312z"></path></g></g><g style="display: block;" transform="matrix(1.1933300495147705,0,0,1.1933300495147705,25.648788452148438,236.18499755859375)" opacity="1"><g opacity="1" transform="matrix(1,0,0,1,181.74400329589844,121.2699966430664)"><path fill="rgb(255,213,39)" fill-opacity="1" d=" M-99.1719970703125,67.74199676513672 C-115.21099853515625,56.507999420166016 -125.44200134277344,40.492000579833984 -129.61700439453125,33.60900115966797 C-150.4010009765625,-0.6589999794960022 -141.73800659179688,-36.020999908447266 -126.04199981689453,-36.020999908447266 C-122.04399871826172,-36.020999908447266 -109.8010025024414,-27.98900032043457 -105.23200225830078,-4.5920000076293945"></path></g></g><g style="display: block;" transform="matrix(1.1933300495147705,0,0,1.1933300495147705,25.648788452148438,236.18499755859375)" opacity="1"><g opacity="1" transform="matrix(1,0,0,1,181.74400329589844,121.2699966430664)"><path fill="rgb(255,213,39)" fill-opacity="1" d=" M-122.49400329589844,23.972000122070312 C-127.39800262451172,-64.44200134277344 -38.79600143432617,-96.2699966430664 16.38800048828125,-96.2699966430664 C52.928001403808594,-96.2699966430664 87.99700164794922,-84.85700225830078 115.13400268554688,-64.13200378417969 C141.5780029296875,-43.9379997253418 156.74400329589844,-17.3700008392334 156.74400329589844,8.758000373840332 C156.74400329589844,34.44900131225586 149.13800048828125,86.73200225830078 12.907999992370605,88.9990005493164 C-99.6780014038086,90.87300109863281 -120.61100006103516,57.92499923706055 -122.49400329589844,23.972000122070312z"></path></g></g><g style="display: block;" transform="matrix(1.205263376235962,0,0,1.181396722793579,81.34613037109375,294.28558349609375)" opacity="1"><g opacity="1" transform="matrix(1,0,0,1,35.4109992980957,44.676998138427734)"><path stroke-linecap="round" stroke-linejoin="round" fill-opacity="0" stroke="rgb(255,255,255)" stroke-opacity="1" stroke-width="6.957" d=" M-9.95199966430664,15.121999740600586 C-8.503999710083008,4.498000144958496 -4.500999927520752,-3.6579999923706055 4.021999835968018,-13.119000434875488"></path></g></g><g style="display: block;" transform="matrix(1.205263376235962,0,0,1.181396722793579,357.1705627441406,304.2687683105469)" opacity="1"><g opacity="1" transform="matrix(1,0,0,1,37.069000244140625,67.66000366210938)"><path stroke-linecap="round" stroke-linejoin="round" fill-opacity="0" stroke="rgb(252,238,33)" stroke-opacity="1" stroke-width="6.957" d=" M-5.064000129699707,-35.74300003051758 C5.702000141143799,-23.760000228881836 12.069000244140625,-9.404999732971191 12.069000244140625,5.040999889373779 C12.069000244140625,13.343000411987305 9.965999603271484,20.94499969482422 6.133999824523926,27.72599983215332"></path></g></g><g style="display: block;" transform="matrix(1.3860528469085693,0,0,1.358606219291687,63.07535171508789,28.506364822387695)" opacity="1"><g opacity="1" transform="matrix(1,0,0,1,146.54400634765625,119.31900024414062)"><path fill="rgb(255,213,39)" fill-opacity="1" d=" M-88.71199798583984,94.1520004272461 C-109.3479995727539,77.05899810791016 -121.54399871826172,53.08599853515625 -121.54399871826172,24.76099967956543 C-121.54399871826172,-35.24700164794922 -67.12799835205078,-94.31900024414062 -0.0010000000474974513,-94.31900024414062 C67.1259994506836,-94.31900024414062 121.54399871826172,-35.24700164794922 121.54399871826172,24.76099967956543 C121.54399871826172,53.0099983215332 109.40699768066406,77.08999633789062 88.51000213623047,94.31900024414062"></path><path stroke-linecap="round" stroke-linejoin="round" fill-opacity="0" stroke="rgb(250,144,22)" stroke-opacity="1" stroke-width="7.22" d=" M-88.71199798583984,94.1520004272461 C-109.3479995727539,77.05899810791016 -121.54399871826172,53.08599853515625 -121.54399871826172,24.76099967956543 C-121.54399871826172,-35.24700164794922 -67.12799835205078,-94.31900024414062 -0.0010000000474974513,-94.31900024414062 C67.1259994506836,-94.31900024414062 121.54399871826172,-35.24700164794922 121.54399871826172,24.76099967956543 C121.54399871826172,53.0099983215332 109.40699768066406,77.08999633789062 88.51000213623047,94.31900024414062"></path></g></g><g style="display: block;" transform="matrix(1.1488869190216064,-0.7600177526473999,0.7753716707229614,1.1261366605758667,32.656551361083984,161.7568817138672)" opacity="1"><g opacity="1" transform="matrix(1,0,0,1,72.16899871826172,56.33100128173828)"><path stroke-linecap="round" stroke-linejoin="round" fill-opacity="0" stroke="rgb(255,255,255)" stroke-opacity="1" stroke-width="6.957" d=" M-36.380001068115234,4.64300012588501 C0.5839999914169312,-31.14699935913086 42.87799835205078,-29.85099983215332 70.02400207519531,-20.30699920654297"></path></g></g><g style="display: block;" transform="matrix(1.3860528469085693,0,0,1.358606219291687,326.7857360839844,93.07821655273438)" opacity="1"><g opacity="1" transform="matrix(1,0,0,1,41.30400085449219,84.74199676513672)"><path stroke-linecap="round" stroke-linejoin="round" fill-opacity="0" stroke="rgb(252,238,33)" stroke-opacity="1" stroke-width="6.957" d=" M-12.154000282287598,-55.775001525878906 C5.464000225067139,-38.00299835205078 16.304000854492188,-14.58899974822998 16.304000854492188,9.003999710083008 C16.304000854492188,22.000999450683594 13.015000343322754,33.72700119018555 7.114999771118164,43.92399978637695"></path></g></g><g style="display: block;" transform="matrix(1.9626884460449219,-0.559493899345398,0.5484157800674438,1.9238266944885254,203.22503662109375,161.86041259765625)" opacity="1"><path stroke-linecap="round" stroke-linejoin="round" fill-opacity="0" stroke="rgb(0,0,0)" stroke-opacity="1" stroke-width="6" d=" M35.22,20.77 C34.93,23.14 34.19,25.55 32.98,27.86 C28.28,36.77 18.2,40.7 10.46,36.62 C5.7,34.11 2.94,29.17 2.6,23.67"></path><g opacity="1" transform="matrix(1,0,0,1,18.961999893188477,20.472999572753906)"></g></g><g style="display: block;" transform="matrix(1.4425309896469116,-0.411215215921402,0.5484157800674438,1.9238266944885254,355.2723083496094,114.49913024902344)" opacity="1"><path stroke-linecap="round" stroke-linejoin="round" fill-opacity="0" stroke="rgb(0,0,0)" stroke-opacity="1" stroke-width="6" d=" M28.67,20.67 C33.83,34.52 16.75,42.05 7.59,20.61"></path><g opacity="1" transform="matrix(1,0,0,1,18.961999893188477,20.472999572753906)"></g></g><g style="display: block;" transform="matrix(1.3329564332962036,-0.37997928261756897,0.37245407700538635,1.3065581321716309,309.4714660644531,231.5277557373047)" opacity="1"><g opacity="1" transform="matrix(1,0,0,1,56.073001861572266,29.871999740600586)"><path fill="rgb(255,93,31)" fill-opacity="1" d=" M29.726999282836914,-33.32400131225586 C38.64699935913086,-32.106998443603516 31.450000762939453,-17.29199981689453 5.874000072479248,-19.417999267578125 C-8.12600040435791,-19.417999267578125 -23.954999923706055,-14.925999641418457 -39.084999084472656,-8.38599967956543 C-52.106998443603516,-2.756999969482422 -64.18499755859375,-7.603000164031982 -64.4209976196289,-23.297000885009766 C-64.63700103759766,-37.624000549316406 -55.89799880981445,-36.654998779296875 -43.391998291015625,-42.24800109863281 C-32.44200134277344,-47.14500045776367 -35.54100036621094,-69.43199920654297 -20.902999877929688,-71.99199676513672 C-5.813000202178955,-74.63099670410156 -7.613999843597412,-51.196998596191406 29.457000732421875,-51.18600082397461 C51.840999603271484,-51.18000030517578 48.314998626708984,-27.041000366210938 29.726999282836914,-33.32400131225586z"></path><path stroke-linecap="butt" stroke-linejoin="miter" fill-opacity="0" stroke-miterlimit="4" stroke="rgb(207,53,2)" stroke-opacity="1" stroke-width="5.778" d=" M29.726999282836914,-33.32400131225586 C38.64699935913086,-32.106998443603516 31.450000762939453,-17.29199981689453 5.874000072479248,-19.417999267578125 C-8.12600040435791,-19.417999267578125 -23.954999923706055,-14.925999641418457 -39.084999084472656,-8.38599967956543 C-52.106998443603516,-2.756999969482422 -64.18499755859375,-7.603000164031982 -64.4209976196289,-23.297000885009766 C-64.63700103759766,-37.624000549316406 -55.89799880981445,-36.654998779296875 -43.391998291015625,-42.24800109863281 C-32.44200134277344,-47.14500045776367 -35.54100036621094,-69.43199920654297 -20.902999877929688,-71.99199676513672 C-5.813000202178955,-74.63099670410156 -7.613999843597412,-51.196998596191406 29.457000732421875,-51.18600082397461 C51.840999603271484,-51.18000030517578 48.314998626708984,-27.041000366210938 29.726999282836914,-33.32400131225586z"></path></g></g><g style="display: block;" transform="matrix(1.1486618518829346,-0.32744336128234863,0.32095858454704285,1.125913381576538,319.7525634765625,269.1861877441406)" opacity="1"><g opacity="1" transform="matrix(1,0,0,1,0,0)"><path stroke-linecap="round" stroke-linejoin="miter" fill-opacity="0" stroke-miterlimit="4" stroke="rgb(255,180,132)" stroke-opacity="1" stroke-width="8" d=" M9.70300006866455,-34.74100112915039 C26.04199981689453,-38.31700134277344 34.112998962402344,-50.52899932861328 37.66899871826172,-60.60599899291992"></path></g></g><g style="display: block;" transform="matrix(1.3329564332962036,-0.37997928261756897,0.37245407700538635,1.3065581321716309,302.5715637207031,246.50169372558594)" opacity="1"><g opacity="1" transform="matrix(1,0,0,1,72.0260009765625,32.6619987487793)"><path stroke-linecap="round" stroke-linejoin="round" fill-opacity="0" stroke="rgb(125,9,9)" stroke-opacity="1" stroke-width="5.778" d=" M-45.946998596191406,-36.422000885009766 C-5.554999828338623,-49.31399917602539 22.27400016784668,-45.04899978637695 22.27400016784668,-45.04899978637695"></path></g></g><g style="display: block;" transform="matrix(-1.1990554332733154,0.11982960253953934,0.11750268936157227,1.1757714748382568,354.11834716796875,292.1661071777344)" opacity="1"><g opacity="1" transform="matrix(1,0,0,1,75.21800231933594,73.52899932861328)"><path fill="rgb(255,213,39)" fill-opacity="1" d=" M-89.83699798583984,-39.76900100708008 C-81.33200073242188,-0.753000020980835 -66.38200378417969,-69.46700286865234 -0.10100000351667404,-50.76100158691406 C17.718000411987305,-45.731998443603516 30.854999542236328,-23.54800033569336 -4.077000141143799,-23.945999145507812 C-37.77299880981445,-24.329999923706055 -61.02799987792969,40.48699951171875 -100.98300170898438,21.076000213623047"></path><path stroke-linecap="round" stroke-linejoin="round" fill-opacity="0" stroke="rgb(250,144,22)" stroke-opacity="1" stroke-width="8.306" d=" M-89.83699798583984,-39.76900100708008 C-81.33200073242188,-0.753000020980835 -66.38200378417969,-69.46700286865234 -0.10100000351667404,-50.76100158691406 C17.718000411987305,-45.731998443603516 30.854999542236328,-23.54800033569336 -4.077000141143799,-23.945999145507812 C-37.77299880981445,-24.329999923706055 -61.02799987792969,40.48699951171875 -100.98300170898438,21.076000213623047"></path></g></g><g style="display: block;" transform="matrix(1.1990554332733154,-0.11982960253953934,0.11750268936157227,1.1757714748382568,294.16558837890625,298.1575927734375)" opacity="1"><g opacity="1" transform="matrix(1,0,0,1,75.21800231933594,73.52899932861328)"><path fill="rgb(255,213,39)" fill-opacity="1" d=" M-134.92100524902344,-51.513999938964844 C-123.23200225830078,-36.029998779296875 -108.2969970703125,-37.040000915527344 -94.125,-41.61000061035156 C-70.11599731445312,-49.35300064086914 -39.57099914550781,-68.39700317382812 -18.81399917602539,-27.722000122070312 C-36.47800064086914,-29.69499969482422 -52.525001525878906,-18.979999542236328 -63.71699905395508,-11.46500015258789 C-85.55000305175781,3.194999933242798 -93.51200103759766,25.264999389648438 -140.5679931640625,13.017999649047852"></path><path stroke-linecap="round" stroke-linejoin="round" fill-opacity="0" stroke="rgb(250,144,22)" stroke-opacity="1" stroke-width="8.306" d=" M-134.92100524902344,-51.513999938964844 C-123.23200225830078,-36.029998779296875 -108.2969970703125,-37.040000915527344 -94.125,-41.61000061035156 C-70.11599731445312,-49.35300064086914 -39.57099914550781,-68.39700317382812 -18.81399917602539,-27.722000122070312 C-36.47800064086914,-29.69499969482422 -52.525001525878906,-18.979999542236328 -63.71699905395508,-11.46500015258789 C-85.55000305175781,3.194999933242798 -93.51200103759766,25.264999389648438 -140.5679931640625,13.017999649047852"></path></g></g><g style="display: block;" transform="matrix(1.3831642866134644,-0.08447108417749405,0.08074316382408142,1.3565137386322021,221.8631591796875,207.5135498046875)" opacity="1"><g opacity="1" transform="matrix(1,0,0,1,25.863000869750977,32.92100143432617)"><path stroke-linecap="round" stroke-linejoin="round" fill-opacity="0" stroke-dasharray=" 10 15 300" stroke-dashoffset="0" stroke="rgb(255,255,255)" stroke-opacity="1" stroke-width="6.957" d=" M-16.58799934387207,75.79299926757812 C4.534999847412109,86.28399658203125 20.658000946044922,63.68000030517578 41.92399978637695,64.22799682617188"></path></g></g><g style="display: block;" transform="matrix(1.2052677869796753,-0.000005127280928718392,-0.004668614361435175,1.181392788887024,357.48565673828125,304.26947021484375)" opacity="1"><g opacity="1" transform="matrix(1,0,0,1,37.069000244140625,67.66000366210938)"><path stroke-linecap="round" stroke-linejoin="round" fill-opacity="0" stroke="rgb(252,238,33)" stroke-opacity="1" stroke-width="6.957" d=" M-3.2100000381469727,-5.9770002365112305 C-6.377999782562256,3.569999933242798 -19.277000427246094,8.031000137329102 -31.381999969482422,2.8320000171661377"></path></g></g></g><g clip-path="url(#__lottie_element_4)" style="display: none;"><g style="display: none;"><g><path stroke-linecap="round" stroke-linejoin="round" fill-opacity="0"></path></g><g><path stroke-linecap="round" stroke-linejoin="round" fill-opacity="0"></path></g><g><path stroke-linecap="round" stroke-linejoin="round" fill-opacity="0"></path></g><g><path stroke-linecap="round" stroke-linejoin="round" fill-opacity="0"></path></g><g><path stroke-linecap="round" stroke-linejoin="round" fill-opacity="0"></path></g><g><path stroke-linecap="round" stroke-linejoin="round" fill-opacity="0"></path></g><g><path stroke-linecap="round" stroke-linejoin="round" fill-opacity="0"></path></g><g><path stroke-linecap="round" stroke-linejoin="round" fill-opacity="0"></path></g><g><path stroke-linecap="round" stroke-linejoin="round" fill-opacity="0"></path></g><g><path stroke-linecap="round" stroke-linejoin="round" fill-opacity="0"></path></g><g><path stroke-linecap="round" stroke-linejoin="round" fill-opacity="0"></path></g><g><path stroke-linecap="round" stroke-linejoin="round" fill-opacity="0"></path></g><g><path stroke-linecap="round" stroke-linejoin="round" fill-opacity="0"></path></g><g><path stroke-linecap="round" stroke-linejoin="round" fill-opacity="0"></path></g><g><path stroke-linecap="round" stroke-linejoin="round" fill-opacity="0"></path></g><g><path stroke-linecap="round" stroke-linejoin="round" fill-opacity="0"></path></g></g><g style="display: none;"><g><path></path><path stroke-linecap="butt" stroke-linejoin="miter" fill-opacity="0" stroke-miterlimit="10"></path></g></g><g style="display: none;"><g><path></path><path stroke-linecap="butt" stroke-linejoin="miter" fill-opacity="0" stroke-miterlimit="10"></path></g></g><g style="display: none;"><g><path></path></g></g><g style="display: none;"><g><path></path></g></g><g style="display: none;"><g><path stroke-linecap="round" stroke-linejoin="round" fill-opacity="0"></path></g></g><g style="display: none;"><g><path stroke-linecap="round" stroke-linejoin="round" fill-opacity="0"></path></g></g><g style="display: none;"><g><path></path><path stroke-linecap="round" stroke-linejoin="round" fill-opacity="0"></path></g></g><g style="display: none;"><g><path stroke-linecap="round" stroke-linejoin="round" fill-opacity="0"></path></g></g><g style="display: none;"><g><path stroke-linecap="round" stroke-linejoin="round" fill-opacity="0"></path></g></g><g style="display: none;"><path stroke-linecap="round" stroke-linejoin="round" fill-opacity="0"></path><g></g></g><g style="display: none;"><path stroke-linecap="round" stroke-linejoin="round" fill-opacity="0"></path><g></g></g><g style="display: none;"><g><path></path><path stroke-linecap="butt" stroke-linejoin="miter" fill-opacity="0" stroke-miterlimit="4"></path></g></g><g style="display: none;"><g><path stroke-linecap="round" stroke-linejoin="miter" fill-opacity="0" stroke-miterlimit="4"></path></g></g><g style="display: none;"><g><path stroke-linecap="round" stroke-linejoin="round" fill-opacity="0"></path></g></g><g style="display: none;"><g><path></path><path stroke-linecap="round" stroke-linejoin="round" fill-opacity="0"></path></g></g><g style="display: none;"><g><path></path><path stroke-linecap="round" stroke-linejoin="round" fill-opacity="0"></path></g></g><g style="display: none;"><g><path stroke-linecap="round" stroke-linejoin="round" fill-opacity="0"></path></g></g><g style="display: none;"><g><path stroke-linecap="round" stroke-linejoin="round" fill-opacity="0"></path></g></g></g></g></svg>