<svg xmlns="http://www.w3.org/2000/svg" xmlns:xlink="http://www.w3.org/1999/xlink" viewBox="0 0 512 512" width="512" height="512" style="width: 100%; height: 100%; transform: translate3d(0,0,0); content-visibility: visible;" preserveAspectRatio="xMidYMid meet"><defs><clipPath id="__lottie_element_2"><rect width="512" height="512" x="0" y="0"></rect></clipPath><clipPath id="__lottie_element_4"><path d="M0,0 L512,0 L512,512 L0,512z"></path></clipPath><clipPath id="__lottie_element_161"><path d="M0,0 L512,0 L512,512 L0,512z"></path></clipPath><clipPath id="__lottie_element_165"><path d="M0,0 L512,0 L512,512 L0,512z"></path></clipPath><clipPath id="__lottie_element_178"><path d="M0,0 L512,0 L512,512 L0,512z"></path></clipPath><clipPath id="__lottie_element_191"><path d="M0,0 L512,0 L512,512 L0,512z"></path></clipPath><clipPath id="__lottie_element_204"><path d="M0,0 L512,0 L512,512 L0,512z"></path></clipPath><clipPath id="__lottie_element_217"><path d="M0,0 L512,0 L512,512 L0,512z"></path></clipPath><clipPath id="__lottie_element_230"><path d="M0,0 L512,0 L512,512 L0,512z"></path></clipPath><clipPath id="__lottie_element_234"><path d="M0,0 L512,0 L512,512 L0,512z"></path></clipPath></defs><g clip-path="url(#__lottie_element_2)"><g clip-path="url(#__lottie_element_4)" style="display: block;" transform="matrix(1,0,0,1,0,0)" opacity="1"><g style="display: block;" transform="matrix(-0.8959616422653198,-0.790563702583313,0.7884398102760315,-0.8935546278953552,360.2515869140625,500.35247802734375)" opacity="1"><g opacity="1" transform="matrix(1,0,0,1,68.83499908447266,79.34500122070312)"><path fill="rgb(255,213,39)" fill-opacity="1" d=" M30.3799991607666,-44.21200180053711 C-1.9759999513626099,-47.86899948120117 -56.790000915527344,-37.92900085449219 -54.654998779296875,-28.097000122070312 C-49.83599853515625,-5.910999774932861 -4.982999801635742,13.329000473022461 52.84299850463867,-0.3009999990463257"></path><path stroke-linecap="round" stroke-linejoin="round" fill-opacity="0" stroke="rgb(250,144,22)" stroke-opacity="1" stroke-width="8.306" d=" M30.3799991607666,-44.21200180053711 C-1.9759999513626099,-47.86899948120117 -56.790000915527344,-37.92900085449219 -54.654998779296875,-28.097000122070312 C-49.83599853515625,-5.910999774932861 -4.982999801635742,13.329000473022461 52.84299850463867,-0.3009999990463257"></path></g></g><g clip-path="url(#__lottie_element_230)" style="display: block;" transform="matrix(1.1299999952316284,0,0,1.1299999952316284,-50.26507568359375,-30.903045654296875)" opacity="1"><g style="display: block;" transform="matrix(1,0,0,1,120.468994140625,-15.2860107421875)" opacity="0.33"><g opacity="1" transform="matrix(1,0,0,1,211.86700439453125,211.781005859375)"><path fill="rgb(207,207,207)" fill-opacity="1" d=" M100.22870635986328,-71.81688690185547 C118.85137939453125,-61.0827522277832 130.77235412597656,-25.386978149414062 110.46133422851562,-10.770628929138184 C133.24749755859375,12.783269882202148 127.00859832763672,45.102787017822266 111.98877716064453,58.29574203491211 C128.31092834472656,78.02323913574219 121.7665023803711,100.2368392944336 112.0344467163086,112.24411010742188 C118.09952545166016,125.46785736083984 118.5422592163086,148.06539916992188 109.70022583007812,160.10891723632812 C113.33140563964844,177.82958984375 104.41812133789062,186.20883178710938 96.54299926757812,186.03500366210938 C90.38786315917969,186.3665771484375 80.06932830810547,177.496826171875 87.08088684082031,166.95654296875 C81.2509765625,157.6861572265625 83.76514434814453,142.53607177734375 93.10807037353516,136.4764862060547 C83.1170654296875,126.03148651123047 80.79090881347656,104.66860961914062 93.17828369140625,92.05756378173828 C75.47469329833984,80.54132843017578 66.64375305175781,62.263797760009766 78.64375305175781,39.083797454833984 C63.85179901123047,46.34642791748047 35.68705749511719,16.807830810546875 44.381046295166016,-15.135045051574707 C30.6164608001709,-15.542460441589355 19.6110897064209,-33.749271392822266 23.95661735534668,-53.732730865478516 C31.135910034179688,-80.7336654663086 78.01652526855469,-89.71821594238281 100.22870635986328,-71.81688690185547z"></path></g></g><g style="display: block;" transform="matrix(1,0,0,1,120.468994140625,-15.2860107421875)" opacity="0.33"><g opacity="1" transform="matrix(1,0,0,1,211.86700439453125,211.781005859375)"><path fill="rgb(207,207,207)" fill-opacity="1" d=" M93.4991226196289,-23.618249893188477 C101.44525146484375,-24.306499481201172 124.03387451171875,-24.738374710083008 110.11962127685547,-10.807624816894531 C138.6876220703125,18.51799964904785 119.9832534790039,49.2661247253418 112.333251953125,58.63999938964844 C128.65574645996094,78.36775207519531 121.76625061035156,100.23699951171875 112.03412628173828,112.24424743652344 C118.09912872314453,125.46837615966797 118.5427474975586,148.06536865234375 109.70050048828125,160.10862731933594 C113.33137512207031,177.82962036132812 104.41862487792969,186.2086181640625 96.54299926757812,186.03500366210938 C90.38787841796875,186.3662567138672 80.06849670410156,177.4966278076172 87.08074951171875,166.9564971923828 C81.2511215209961,157.68600463867188 83.7646255493164,142.53599548339844 93.10762786865234,136.47637939453125 C83.11662292480469,126.0313720703125 80.79149627685547,104.66812133789062 93.17862701416016,92.057373046875 C75.47537231445312,80.54137420654297 68.35250091552734,63.554874420166016 78.15274810791016,39.37912368774414 C66.85874938964844,43.22249984741211 47.58362579345703,28.375125885009766 57.65362548828125,2.8561251163482666 C64.41400146484375,-15.307374954223633 79.56475067138672,-22.620874404907227 93.4991226196289,-23.618249893188477z"></path></g></g><g style="display: block;" transform="matrix(1,0,0,1,120.468994140625,-15.2860107421875)" opacity="0.33"><g opacity="1" transform="matrix(1,0,0,1,211.86700439453125,211.781005859375)"><path fill="rgb(207,207,207)" fill-opacity="1" d=" M99.9530029296875,19.906625747680664 C122.6094970703125,31.31487464904785 118.21662139892578,49.02112579345703 112.333251953125,58.49300003051758 C128.60325622558594,78.32312774658203 121.91412353515625,100.67887878417969 112.18199920654297,112.68612670898438 C118.24700164794922,125.91024780273438 118.5427474975586,148.06536865234375 109.70050048828125,160.10862731933594 C113.33137512207031,177.82962036132812 104.41862487792969,186.2086181640625 96.54299926757812,186.03500366210938 C90.38787841796875,186.3662567138672 80.06849670410156,177.4966278076172 87.08074951171875,166.9564971923828 C81.2511215209961,157.68600463867188 83.7646255493164,142.53599548339844 93.10762786865234,136.47637939453125 C83.11662292480469,126.0313720703125 80.79149627685547,104.66799926757812 93.17862701416016,92.0572509765625 C78.71375274658203,80.6707534790039 67.3479995727539,67.97712707519531 78.12650299072266,39.748374938964844 C66.35150146484375,39.380001068115234 67.25274658203125,5.686500072479248 99.9530029296875,19.906625747680664z"></path></g></g><g clip-path="url(#__lottie_element_234)" style="display: block;" transform="matrix(1,0,0,1,0,0)" opacity="0.33"><g style="display: block;" transform="matrix(0.699999988079071,0,0,0.699999988079071,307.37530517578125,296.9417724609375)" opacity="0.15555555555555556"><g opacity="1" transform="matrix(1,0,0,1,0,0)"></g><g opacity="1" transform="matrix(1,0,0,1,0,0)"><path fill="rgb(255,255,255)" fill-opacity="1" d=" M170.625,102 C165.52027893066406,101.93428039550781 162.90316772460938,112.71949768066406 168.27777099609375,113.41666412353516 C176.34811401367188,114.39788818359375 177.36111450195312,102.09722137451172 170.625,102z"></path><path stroke-linecap="butt" stroke-linejoin="miter" fill-opacity="0" stroke-miterlimit="4" stroke="rgb(255,255,255)" stroke-opacity="0.5" stroke-width="5" d=" M170.625,102 C165.52027893066406,101.93428039550781 162.90316772460938,112.71949768066406 168.27777099609375,113.41666412353516 C176.34811401367188,114.39788818359375 177.36111450195312,102.09722137451172 170.625,102z"></path></g></g><g style="display: none;"><g><path stroke-linecap="butt" stroke-linejoin="miter" fill-opacity="0" stroke-miterlimit="4"></path></g><g><path></path><path stroke-linecap="butt" stroke-linejoin="miter" fill-opacity="0" stroke-miterlimit="4"></path></g></g><g style="display: block;" transform="matrix(0.699999988079071,0,0,0.699999988079071,307.37530517578125,274.5506286621094)" opacity="0.38100558659217876"><g opacity="1" transform="matrix(1,0,0,1,0,0)"></g><g opacity="1" transform="matrix(1,0,0,1,0,0)"><path fill="rgb(255,255,255)" fill-opacity="1" d=" M172.0943603515625,92.05000305175781 C162.5547332763672,92.03915405273438 158.3642120361328,119.73477172851562 167.88345336914062,120.36128234863281 C183.43910217285156,121.44999694824219 185.09397888183594,92.09141540527344 172.0943603515625,92.05000305175781z"></path><path stroke-linecap="butt" stroke-linejoin="miter" fill-opacity="0" stroke-miterlimit="4" stroke="rgb(255,255,255)" stroke-opacity="0.5" stroke-width="5" d=" M172.0943603515625,92.05000305175781 C162.5547332763672,92.03915405273438 158.3642120361328,119.73477172851562 167.88345336914062,120.36128234863281 C183.43910217285156,121.44999694824219 185.09397888183594,92.09141540527344 172.0943603515625,92.05000305175781z"></path></g></g><g style="display: block;" transform="matrix(0.699999988079071,0,0,0.699999988079071,307.37530517578125,234.7830810546875)" opacity="0.33072625698324026"><g opacity="1" transform="matrix(1,0,0,1,0,0)"><path fill="rgb(255,255,255)" fill-opacity="1" d=" M171.17755126953125,88.71666717529297 C160.44955444335938,88.961669921875 158.83694458007812,125.41327667236328 170.39755249023438,125.5421142578125 C184.4243927001953,125.66999816894531 184.1765594482422,88.42066955566406 171.17755126953125,88.71666717529297z"></path><path stroke-linecap="butt" stroke-linejoin="miter" fill-opacity="0" stroke-miterlimit="4" stroke="rgb(255,255,255)" stroke-opacity="0.5" stroke-width="5" d=" M171.17755126953125,88.71666717529297 C160.44955444335938,88.961669921875 158.83694458007812,125.41327667236328 170.39755249023438,125.5421142578125 C184.4243927001953,125.66999816894531 184.1765594482422,88.42066955566406 171.17755126953125,88.71666717529297z"></path></g></g><g style="display: block;" transform="matrix(0.699999988079071,0,0,0.699999988079071,299.66998291015625,184.4024658203125)" opacity="0.18876404494382024"><g opacity="1" transform="matrix(1,0,0,1,0,0)"><path fill="rgb(255,255,255)" fill-opacity="1" d=" M169.0335235595703,83.3505630493164 C157.1201171875,85.39498901367188 156.74925231933594,127.43559265136719 171.4669952392578,127.68099975585938 C188.1946563720703,127.93810272216797 185.75299072265625,80.0374755859375 169.0335235595703,83.3505630493164z"></path><path stroke-linecap="butt" stroke-linejoin="miter" fill-opacity="0" stroke-miterlimit="4" stroke="rgb(255,255,255)" stroke-opacity="0.5" stroke-width="5" d=" M169.0335235595703,83.3505630493164 C157.1201171875,85.39498901367188 156.74925231933594,127.43559265136719 171.4669952392578,127.68099975585938 C188.1946563720703,127.93810272216797 185.75299072265625,80.0374755859375 169.0335235595703,83.3505630493164z"></path></g></g></g></g><g clip-path="url(#__lottie_element_161)" style="display: block;" transform="matrix(0.6600000262260437,0,0,1,154.89915466308594,9.999969482421875)" opacity="0.66"><g clip-path="url(#__lottie_element_217)" style="display: block;" transform="matrix(1,0,0,1,0,0)" opacity="1"><g style="display: block;" transform="matrix(0.9956567883491516,0,0,0.9956567883491516,256.76275634765625,188.674560546875)" opacity="1"><g opacity="1" transform="matrix(1,0,0,1,175.62399291992188,136.12399291992188)"><path fill="rgb(207,207,207)" fill-opacity="1" d=" M0,-11.12399959564209 C6.1393351554870605,-11.12399959564209 11.12399959564209,-6.1393351554870605 11.12399959564209,0 C11.12399959564209,6.1393351554870605 6.1393351554870605,11.12399959564209 0,11.12399959564209 C-6.1393351554870605,11.12399959564209 -11.12399959564209,6.1393351554870605 -11.12399959564209,0 C-11.12399959564209,-6.1393351554870605 -6.1393351554870605,-11.12399959564209 0,-11.12399959564209z"></path></g></g><g style="display: none;"><g><path></path></g></g><g style="display: none;"><g><path></path></g></g></g><g clip-path="url(#__lottie_element_204)" style="display: block;" transform="matrix(1,0,0,1,5,10)" opacity="1"><g style="display: none;" transform="matrix(0,0,0,0,431.6239929199219,297.1239929199219)" opacity="1"><g opacity="1" transform="matrix(1,0,0,1,175.62399291992188,136.12399291992188)"><path fill="rgb(207,207,207)" fill-opacity="1" d=" M0,-11.12399959564209 C6.1393351554870605,-11.12399959564209 11.12399959564209,-6.1393351554870605 11.12399959564209,0 C11.12399959564209,6.1393351554870605 6.1393351554870605,11.12399959564209 0,11.12399959564209 C-6.1393351554870605,11.12399959564209 -11.12399959564209,6.1393351554870605 -11.12399959564209,0 C-11.12399959564209,-6.1393351554870605 -6.1393351554870605,-11.12399959564209 0,-11.12399959564209z"></path></g></g><g style="display: block;" transform="matrix(0.9956567883491516,0,0,0.9956567883491516,256.76275634765625,188.674560546875)" opacity="1"><g opacity="1" transform="matrix(1,0,0,1,175.62399291992188,136.12399291992188)"><path fill="rgb(207,207,207)" fill-opacity="1" d=" M0,-11.12399959564209 C6.1393351554870605,-11.12399959564209 11.12399959564209,-6.1393351554870605 11.12399959564209,0 C11.12399959564209,6.1393351554870605 6.1393351554870605,11.12399959564209 0,11.12399959564209 C-6.1393351554870605,11.12399959564209 -11.12399959564209,6.1393351554870605 -11.12399959564209,0 C-11.12399959564209,-6.1393351554870605 -6.1393351554870605,-11.12399959564209 0,-11.12399959564209z"></path></g></g><g style="display: none;"><g><path></path></g></g></g><g clip-path="url(#__lottie_element_191)" style="display: none;"><g style="display: none;"><g><path></path></g></g><g style="display: none;"><g><path></path></g></g><g style="display: none;"><g><path></path></g></g></g><g clip-path="url(#__lottie_element_178)" style="display: block;" transform="matrix(1,0,0,1,-20,0)" opacity="1"><g style="display: none;"><g><path></path></g></g><g style="display: none;" transform="matrix(0,0,0,0,431.6239929199219,297.1239929199219)" opacity="1"><g opacity="1" transform="matrix(1,0,0,1,175.62399291992188,136.12399291992188)"><path fill="rgb(207,207,207)" fill-opacity="1" d=" M0,-11.12399959564209 C6.1393351554870605,-11.12399959564209 11.12399959564209,-6.1393351554870605 11.12399959564209,0 C11.12399959564209,6.1393351554870605 6.1393351554870605,11.12399959564209 0,11.12399959564209 C-6.1393351554870605,11.12399959564209 -11.12399959564209,6.1393351554870605 -11.12399959564209,0 C-11.12399959564209,-6.1393351554870605 -6.1393351554870605,-11.12399959564209 0,-11.12399959564209z"></path></g></g><g style="display: block;" transform="matrix(0.9895477294921875,0,0,0.9895477294921875,257.8356628417969,222.0061492919922)" opacity="1"><g opacity="1" transform="matrix(1,0,0,1,175.62399291992188,136.12399291992188)"><path fill="rgb(207,207,207)" fill-opacity="1" d=" M0,-11.12399959564209 C6.1393351554870605,-11.12399959564209 11.12399959564209,-6.1393351554870605 11.12399959564209,0 C11.12399959564209,6.1393351554870605 6.1393351554870605,11.12399959564209 0,11.12399959564209 C-6.1393351554870605,11.12399959564209 -11.12399959564209,6.1393351554870605 -11.12399959564209,0 C-11.12399959564209,-6.1393351554870605 -6.1393351554870605,-11.12399959564209 0,-11.12399959564209z"></path></g></g></g><g clip-path="url(#__lottie_element_165)" style="display: none;"><g style="display: none;"><g><path></path></g></g><g style="display: none;"><g><path></path></g></g><g style="display: none;"><g><path></path></g></g></g></g><g style="display: none;"><g><path></path></g></g><g style="display: none;"><g><path></path></g></g><g style="display: block;" transform="matrix(0.6571335196495056,0,0,0.9956567883491516,317.76324462890625,203.67454528808594)" opacity="0.66"><g opacity="1" transform="matrix(1,0,0,1,175.62399291992188,136.12399291992188)"><path fill="rgb(207,207,207)" fill-opacity="1" d=" M0,-11.12399959564209 C6.1393351554870605,-11.12399959564209 11.12399959564209,-6.1393351554870605 11.12399959564209,0 C11.12399959564209,6.1393351554870605 6.1393351554870605,11.12399959564209 0,11.12399959564209 C-6.1393351554870605,11.12399959564209 -11.12399959564209,6.1393351554870605 -11.12399959564209,0 C-11.12399959564209,-6.1393351554870605 -6.1393351554870605,-11.12399959564209 0,-11.12399959564209z"></path></g></g><g style="display: none;" transform="matrix(0,0,0,0,439.77166748046875,332.1239929199219)" opacity="0.66"><g opacity="1" transform="matrix(1,0,0,1,175.62399291992188,136.12399291992188)"><path fill="rgb(207,207,207)" fill-opacity="1" d=" M0,-11.12399959564209 C6.1393351554870605,-11.12399959564209 11.12399959564209,-6.1393351554870605 11.12399959564209,0 C11.12399959564209,6.1393351554870605 6.1393351554870605,11.12399959564209 0,11.12399959564209 C-6.1393351554870605,11.12399959564209 -11.12399959564209,6.1393351554870605 -11.12399959564209,0 C-11.12399959564209,-6.1393351554870605 -6.1393351554870605,-11.12399959564209 0,-11.12399959564209z"></path></g></g><g style="display: block;" transform="matrix(0.6600000262260437,0,0,1,323.8598327636719,246.91665649414062)" opacity="0.66"><g opacity="1" transform="matrix(1,0,0,1,175.62399291992188,136.12399291992188)"><path fill="rgb(207,207,207)" fill-opacity="1" d=" M0,-11.12399959564209 C6.1393351554870605,-11.12399959564209 11.12399959564209,-6.1393351554870605 11.12399959564209,0 C11.12399959564209,6.1393351554870605 6.1393351554870605,11.12399959564209 0,11.12399959564209 C-6.1393351554870605,11.12399959564209 -11.12399959564209,6.1393351554870605 -11.12399959564209,0 C-11.12399959564209,-6.1393351554870605 -6.1393351554870605,-11.12399959564209 0,-11.12399959564209z"></path></g></g><g style="display: none;"><g><path></path></g></g><g style="display: none;"><g><path></path></g></g><g style="display: none;" transform="matrix(0,0,0,0,436.4716796875,362.1239929199219)" opacity="0.66"><g opacity="1" transform="matrix(1,0,0,1,175.62399291992188,136.12399291992188)"><path fill="rgb(207,207,207)" fill-opacity="1" d=" M0,-11.12399959564209 C6.1393351554870605,-11.12399959564209 11.12399959564209,-6.1393351554870605 11.12399959564209,0 C11.12399959564209,6.1393351554870605 6.1393351554870605,11.12399959564209 0,11.12399959564209 C-6.1393351554870605,11.12399959564209 -11.12399959564209,6.1393351554870605 -11.12399959564209,0 C-11.12399959564209,-6.1393351554870605 -6.1393351554870605,-11.12399959564209 0,-11.12399959564209z"></path></g></g><g style="display: block;" transform="matrix(0.4950000047683716,0,0,0.75,349.53778076171875,298.218505859375)" opacity="0.66"><g opacity="1" transform="matrix(1,0,0,1,175.62399291992188,136.12399291992188)"><path fill="rgb(207,207,207)" fill-opacity="1" d=" M0,-11.12399959564209 C6.1393351554870605,-11.12399959564209 11.12399959564209,-6.1393351554870605 11.12399959564209,0 C11.12399959564209,6.1393351554870605 6.1393351554870605,11.12399959564209 0,11.12399959564209 C-6.1393351554870605,11.12399959564209 -11.12399959564209,6.1393351554870605 -11.12399959564209,0 C-11.12399959564209,-6.1393351554870605 -6.1393351554870605,-11.12399959564209 0,-11.12399959564209z"></path></g></g><g style="display: none;"><g><path></path></g></g><g style="display: none;"><g><path></path></g></g><g style="display: block;" transform="matrix(1,0,0,1,256,256)" opacity="1"><g opacity="1" transform="matrix(1,0,0,1,-60.132999420166016,220.5019989013672)"><path fill="rgb(255,213,39)" fill-opacity="1" d=" M0,-18.801000595092773 C99.2288589477539,-18.801000595092773 179.7949981689453,-10.376272201538086 179.7949981689453,0 C179.7949981689453,10.376272201538086 99.2288589477539,18.801000595092773 0,18.801000595092773 C-99.2288589477539,18.801000595092773 -179.7949981689453,10.376272201538086 -179.7949981689453,0 C-179.7949981689453,-10.376272201538086 -99.2288589477539,-18.801000595092773 0,-18.801000595092773z"></path></g></g><g style="display: block;" transform="matrix(1.2052700519561768,0,0,1.181399941444397,-42.60997009277344,280.7802429199219)" opacity="1"><g opacity="1" transform="matrix(1,0,0,1,181.74400329589844,121.2699966430664)"><path fill="rgb(255,213,39)" fill-opacity="1" d=" M163.3820037841797,43.88600158691406 C161.00999450683594,-18.663000106811523 141.5780029296875,-43.9379997253418 115.13400268554688,-64.13200378417969 C87.99700164794922,-84.85700225830078 52.928001403808594,-96.2699966430664 16.38800048828125,-96.2699966430664 C-38.79600143432617,-96.2699966430664 -90.02799987792969,-72.61100006103516 -112.36299896240234,-33.11800003051758 C-117.06099700927734,-24.812000274658203 -120.88400268554688,-16.701000213623047 -123.80699920654297,-9.071999549865723 C-134.7830047607422,19.57200050354004 -132.28599548339844,28.315000534057617 -132.28599548339844,42.70500183105469"></path><path stroke-linecap="round" stroke-linejoin="round" fill-opacity="0" stroke="rgb(250,144,22)" stroke-opacity="1" stroke-width="8.306" d=" M163.3820037841797,43.88600158691406 C161.00999450683594,-18.663000106811523 141.5780029296875,-43.9379997253418 115.13400268554688,-64.13200378417969 C87.99700164794922,-84.85700225830078 52.928001403808594,-96.2699966430664 16.38800048828125,-96.2699966430664 C-38.79600143432617,-96.2699966430664 -90.02799987792969,-72.61100006103516 -112.36299896240234,-33.11800003051758 C-117.06099700927734,-24.812000274658203 -120.88400268554688,-16.701000213623047 -123.80699920654297,-9.071999549865723 C-134.7830047607422,19.57200050354004 -132.28599548339844,28.315000534057617 -132.28599548339844,42.70500183105469"></path></g></g><g style="display: block;" transform="matrix(1.215392827987671,0,0,1.1712671518325806,20.975021362304688,365.94305419921875)" opacity="1"><g opacity="1" transform="matrix(1,0,0,1,35.4109992980957,44.676998138427734)"><path stroke-linecap="round" stroke-linejoin="round" fill-opacity="0" stroke="rgb(255,255,255)" stroke-opacity="1" stroke-width="6.957" d=" M-20.909000396728516,19.676000595092773 C-19.861000061035156,9.185999870300293 -16.732999801635742,-1.090000033378601 -9.970999717712402,-10.928999900817871"></path></g></g><g style="display: block;" transform="matrix(1.215392827987671,0,0,1.1712671518325806,288.0260009765625,365.9266357421875)" opacity="1"><g opacity="1" transform="matrix(1,0,0,1,37.069000244140625,67.66000366210938)"><path stroke-linecap="round" stroke-linejoin="round" fill-opacity="0" stroke="rgb(252,238,33)" stroke-opacity="1" stroke-width="6.957" d=" M0.5299999713897705,-48.6609992980957 C8.821999549865723,-37.45399856567383 14.253999710083008,-28.624000549316406 16.79199981689453,-12.734999656677246"></path></g></g><g style="display: block;" transform="matrix(1.3977017402648926,0,0,1.3469573259353638,-8.540322303771973,92.52862548828125)" opacity="1"><g opacity="1" transform="matrix(1,0,0,1,146.54400634765625,119.31900024414062)"><path fill="rgb(255,213,39)" fill-opacity="1" d=" M-88.71199798583984,94.1520004272461 C-109.3479995727539,77.05899810791016 -121.54399871826172,53.08599853515625 -121.54399871826172,24.76099967956543 C-121.54399871826172,-35.24700164794922 -67.12799835205078,-94.31900024414062 -0.0010000000474974513,-94.31900024414062 C67.1259994506836,-94.31900024414062 121.54399871826172,-35.24700164794922 121.54399871826172,24.76099967956543 C121.54399871826172,53.0099983215332 109.40699768066406,77.08999633789062 88.51000213623047,94.31900024414062"></path><path stroke-linecap="round" stroke-linejoin="round" fill-opacity="0" stroke="rgb(250,144,22)" stroke-opacity="1" stroke-width="7.22" d=" M-88.71199798583984,94.1520004272461 C-109.3479995727539,77.05899810791016 -121.54399871826172,53.08599853515625 -121.54399871826172,24.76099967956543 C-121.54399871826172,-35.24700164794922 -67.12799835205078,-94.31900024414062 -0.0010000000474974513,-94.31900024414062 C67.1259994506836,-94.31900024414062 121.54399871826172,-35.24700164794922 121.54399871826172,24.76099967956543 C121.54399871826172,53.0099983215332 109.40699768066406,77.08999633789062 88.51000213623047,94.31900024414062"></path></g></g><g style="display: block;" transform="matrix(1.1585426330566406,-0.7535012364387512,0.7818881869316101,1.1164809465408325,-39.21478271484375,224.63662719726562)" opacity="1"><g opacity="1" transform="matrix(1,0,0,1,72.16899871826172,56.33100128173828)"><path stroke-linecap="round" stroke-linejoin="round" fill-opacity="0" stroke="rgb(255,255,255)" stroke-opacity="1" stroke-width="6.957" d=" M-36.46699905395508,4.728000164031982 C0.4659999907016754,-31.099000930786133 42.737998962402344,-29.86199951171875 69.91000366210938,-20.347000122070312"></path></g></g><g style="display: block;" transform="matrix(1.3977017402648926,0,0,1.3469573259353638,257.38641357421875,156.54681396484375)" opacity="1"><g opacity="1" transform="matrix(1,0,0,1,41.30400085449219,84.74199676513672)"><path stroke-linecap="round" stroke-linejoin="round" fill-opacity="0" stroke="rgb(252,238,33)" stroke-opacity="1" stroke-width="6.957" d=" M-12.234999656677246,-55.85599899291992 C5.431000232696533,-38.07400131225586 16.304000854492188,-14.625 16.304000854492188,9.003999710083008 C16.304000854492188,21.958999633789062 13.03600025177002,33.6510009765625 7.171999931335449,43.82500076293945"></path></g></g><g style="display: block;" transform="matrix(2.0568227767944336,-0.06922507286071777,0.07181568443775177,1.9820584058761597,128.74310302734375,236.57644653320312)" opacity="1"><path stroke-linecap="butt" stroke-linejoin="miter" fill-opacity="0" stroke-miterlimit="4" stroke="rgb(250,144,22)" stroke-opacity="1" stroke-width="8" d=" M32.98,27.86 C28.28,36.77 18.2,40.7 10.46,36.62 C2.72,32.54 0.25,22.01 4.95,13.09 C9.64,4.17 19.73,0.25 27.47,4.33 C35.21,8.4 37.67,18.94 32.98,27.86z"></path><g opacity="1" transform="matrix(1,0,0,1,18.961999893188477,20.472999572753906)"><path fill="rgb(255,255,255)" fill-opacity="1" d=" M14.013999938964844,7.382999897003174 C9.315999984741211,16.299999237060547 -0.765999972820282,20.222999572753906 -8.505999565124512,16.145999908447266 C-16.246000289916992,12.067999839782715 -18.711999893188477,1.5329999923706055 -14.015000343322754,-7.383999824523926 C-9.317000389099121,-16.299999237060547 0.765999972820282,-20.222999572753906 8.505999565124512,-16.145999908447266 C16.246000289916992,-12.067999839782715 18.711999893188477,-1.534000039100647 14.013999938964844,7.382999897003174z"></path></g></g><g style="display: block;" transform="matrix(1.4728906154632568,-0.04957206919789314,0.0514272041618824,1.4193519353866577,143.80276489257812,248.71524047851562)" opacity="1"><g opacity="1" transform="matrix(1,0,0,1,18.961999893188477,20.472999572753906)"><path fill="rgb(0,0,0)" fill-opacity="1" d=" M14.013999938964844,7.382999897003174 C9.315999984741211,16.299999237060547 -0.765999972820282,20.222999572753906 -8.505999565124512,16.145999908447266 C-16.246000289916992,12.067999839782715 -18.711999893188477,1.5329999923706055 -14.015000343322754,-7.383999824523926 C-9.317000389099121,-16.299999237060547 0.765999972820282,-20.222999572753906 8.505999565124512,-16.145999908447266 C16.246000289916992,-12.067999839782715 18.711999893188477,-1.534000039100647 14.013999938964844,7.382999897003174z"></path></g></g><g style="display: block;" transform="matrix(0.5644538998603821,-0.0189974382519722,0.01970837637782097,0.5439363121986389,146.57147216796875,297.2264404296875)" opacity="1"><g opacity="1" transform="matrix(0.7913699746131897,0,0,0.7913699746131897,18.961999893188477,5.3379998207092285)"><path fill="rgb(255,255,255)" fill-opacity="1" d=" M14.013999938964844,7.382999897003174 C9.315999984741211,16.299999237060547 -0.765999972820282,20.222999572753906 -8.505999565124512,16.145999908447266 C-16.246000289916992,12.067999839782715 -18.711999893188477,1.5329999923706055 -14.015000343322754,-7.383999824523926 C-9.317000389099121,-16.299999237060547 0.765999972820282,-20.222999572753906 8.505999565124512,-16.145999908447266 C16.246000289916992,-12.067999839782715 18.711999893188477,-1.534000039100647 14.013999938964844,7.382999897003174z"></path></g></g><g style="display: block;" transform="matrix(2.2576920986175537,-0.07598559558391571,0.07882919162511826,2.175626039505005,124.79064178466797,232.74172973632812)" opacity="1"><g opacity="1" transform="matrix(1,0,0,1,18.961999893188477,20.472999572753906)"><path fill="rgb(250,144,22)" fill-opacity="1" d=" M8.505999565124512,-16.145999908447266 C0.765999972820282,-20.222999572753906 -9.317000389099121,-16.299999237060547 -14.015000343322754,-7.383999824523926 C-15.781000137329102,-4.0320000648498535 -16.53499984741211,-0.44999998807907104 -16.375999450683594,2.930000066757202 C-7.14300012588501,4.243000030517578 7.181000232696533,3.184000015258789 16.017000198364258,1.7610000371932983 C17.47800064086914,-5.584000110626221 14.657999992370605,-12.904999732971191 8.505999565124512,-16.145999908447266z"></path></g></g><g style="display: block;" transform="matrix(2.2576920986175537,-0.07598559558391571,0.07882919162511826,2.175626039505005,124.79064178466797,232.74172973632812)" opacity="1"><g opacity="1" transform="matrix(0.6042199730873108,0,0,0.6837999820709229,17.763999938964844,18.29400062561035)"><path fill="rgb(255,213,39)" fill-opacity="1" d="M0 0"></path></g></g><g style="display: block;" transform="matrix(2.2576920986175537,-0.07598559558391571,0.07882919162511826,2.175626039505005,124.79064178466797,232.74172973632812)" opacity="1"><path stroke-linecap="round" stroke-linejoin="round" fill-opacity="0" stroke="rgb(0,0,0)" stroke-opacity="1" stroke-width="3" d=" M3.22,23.49 C12.44,24.66 26.27,23.63 34.91,22.25"></path><g opacity="1" transform="matrix(1,0,0,1,18.961999893188477,20.472999572753906)"></g></g><g style="display: block;" transform="matrix(1.6857836246490479,-0.056737255305051804,0.0652010515332222,1.7994998693466187,310.4482421875,244.2392120361328)" opacity="1"><path stroke-linecap="butt" stroke-linejoin="miter" fill-opacity="0" stroke-miterlimit="4" stroke="rgb(250,144,22)" stroke-opacity="1" stroke-width="8" d=" M4.85,24.72 C9.45,33.45 17.92,38.02 23.77,34.94 C29.62,31.85 30.64,22.28 26.04,13.55 C21.44,4.82 12.97,0.25 7.12,3.33 C1.27,6.42 0.25,15.99 4.85,24.72z"></path><g opacity="1" transform="matrix(1,0,0,1,15.444000244140625,19.135000228881836)"><path fill="rgb(255,255,255)" fill-opacity="1" d=" M-10.595999717712402,5.583000183105469 C-5.998000144958496,14.3100004196167 2.4730000495910645,18.885000228881836 8.326000213623047,15.802000045776367 C14.178000450134277,12.718000411987305 15.194999694824219,3.1440000534057617 10.597999572753906,-5.583000183105469 C6,-14.3100004196167 -2.4730000495910645,-18.885000228881836 -8.324999809265137,-15.800999641418457 C-14.178000450134277,-12.718000411987305 -15.194000244140625,-3.1440000534057617 -10.595999717712402,5.583000183105469z"></path></g></g><g style="display: block;" transform="matrix(1.2230864763259888,-0.0411645770072937,0.047305330634117126,1.3055912256240845,322.3282470703125,254.7053680419922)" opacity="1"><g opacity="1" transform="matrix(1,0,0,1,15.444000244140625,19.135000228881836)"><path fill="rgb(0,0,0)" fill-opacity="1" d=" M-10.595999717712402,5.583000183105469 C-5.998000144958496,14.3100004196167 2.4730000495910645,18.885000228881836 8.326000213623047,15.802000045776367 C14.178000450134277,12.718000411987305 15.194999694824219,3.1440000534057617 10.597999572753906,-5.583000183105469 C6,-14.3100004196167 -2.4730000495910645,-18.885000228881836 -8.324999809265137,-15.800999641418457 C-14.178000450134277,-12.718000411987305 -15.194000244140625,-3.1440000534057617 -10.595999717712402,5.583000183105469z"></path></g></g><g style="display: block;" transform="matrix(0.3604878783226013,-0.012132694013416767,0.013942591845989227,0.3848050534725189,329.5091857910156,289.9213562011719)" opacity="1"><g opacity="1" transform="matrix(1,0,0,1,15.444000244140625,19.135000228881836)"><path fill="rgb(255,255,255)" fill-opacity="1" d=" M-10.595999717712402,5.583000183105469 C-5.998000144958496,14.3100004196167 2.4730000495910645,18.885000228881836 8.326000213623047,15.802000045776367 C14.178000450134277,12.718000411987305 15.194999694824219,3.1440000534057617 10.597999572753906,-5.583000183105469 C6,-14.3100004196167 -2.4730000495910645,-18.885000228881836 -8.324999809265137,-15.800999641418457 C-14.178000450134277,-12.718000411987305 -15.194000244140625,-3.1440000534057617 -10.595999717712402,5.583000183105469z"></path></g></g><g style="display: block;" transform="matrix(1.9133979082107544,-0.0643979161977768,0.07400450855493546,2.042468309402466,306.7644958496094,239.70831298828125)" opacity="1"><g opacity="1" transform="matrix(1,0,0,1,15.444000244140625,19.135000228881836)"><path fill="rgb(250,144,22)" fill-opacity="1" d=" M-8.324999809265137,-15.800999641418457 C-13.449999809265137,-13.10200023651123 -12.772000312805176,-2.0320000648498535 -12.053999900817871,2.2990000247955322 C-6.664000034332275,2.743000030517578 4.129000186920166,2.253000020980835 13.25,2.367000102996826 C12.864999771118164,-0.22499999403953552 11.98900032043457,-2.943000078201294 10.597999572753906,-5.583000183105469 C6,-14.3100004196167 -2.4730000495910645,-18.885000228881836 -8.324999809265137,-15.800999641418457z"></path></g></g><g style="display: block;" transform="matrix(1.9133979082107544,-0.0643979161977768,0.07400450855493546,2.042468309402466,306.7644958496094,239.70831298828125)" opacity="1"><path stroke-linecap="round" stroke-linejoin="round" fill-opacity="0" stroke="rgb(0,0,0)" stroke-opacity="1" stroke-width="3" d=" M3.94,21.48 C9.29,21.83 19.14,21.42 27.75,21.49"></path><g opacity="1" transform="matrix(1,0,0,1,15.444000244140625,19.135000228881836)"></g></g><g style="display: block;" transform="matrix(1.3968806266784668,-0.04701384902000427,0.04877324402332306,1.3461047410964966,188.65370178222656,290.9326171875)" opacity="1"><g opacity="1" transform="matrix(1,0,0,1,56.073001861572266,29.871999740600586)"><path fill="rgb(255,93,31)" fill-opacity="1" d=" M38.027000427246094,7.242000102996826 C38.92900085449219,21.673999786376953 19.099000930786133,26.770000457763672 0.2160000056028366,28.141000747680664 C-18.684999465942383,29.51300048828125 -53.4010009765625,15.942999839782715 -53.4010009765625,-2.052000045776367 C-53.4010009765625,-9.755000114440918 -45.97100067138672,-10.840999603271484 -33.323001861572266,-10.600000381469727 C-11.26200008392334,-10.180000305175781 -19.11199951171875,-29.621000289916992 -2.8910000324249268,-29.621000289916992 C15.215999603271484,-29.621000289916992 20.52199935913086,-5.081999778747559 35.805999755859375,-8.020999908447266 C50.32899856567383,-10.814000129699707 50.369998931884766,-0.49399998784065247 38.027000427246094,7.242000102996826z"></path><path stroke-linecap="butt" stroke-linejoin="miter" fill-opacity="0" stroke-miterlimit="4" stroke="rgb(207,53,2)" stroke-opacity="1" stroke-width="5.778" d=" M38.027000427246094,7.242000102996826 C38.92900085449219,21.673999786376953 19.099000930786133,26.770000457763672 0.2160000056028366,28.141000747680664 C-18.684999465942383,29.51300048828125 -53.4010009765625,15.942999839782715 -53.4010009765625,-2.052000045776367 C-53.4010009765625,-9.755000114440918 -45.97100067138672,-10.840999603271484 -33.323001861572266,-10.600000381469727 C-11.26200008392334,-10.180000305175781 -19.11199951171875,-29.621000289916992 -2.8910000324249268,-29.621000289916992 C15.215999603271484,-29.621000289916992 20.52199935913086,-5.081999778747559 35.805999755859375,-8.020999908447266 C50.32899856567383,-10.814000129699707 50.369998931884766,-0.49399998784065247 38.027000427246094,7.242000102996826z"></path></g></g><g style="display: block;" transform="matrix(1.2037477493286133,-0.04051371291279793,0.04202985391020775,1.1599923372268677,189.61497497558594,329.62237548828125)" opacity="1"><g opacity="1" transform="matrix(1,0,0,1,0,0)"><path stroke-linecap="round" stroke-linejoin="miter" fill-opacity="0" stroke-miterlimit="4" stroke="rgb(255,180,132)" stroke-opacity="1" stroke-width="8" d=" M31.493999481201172,0.20100000500679016 C41.17300033569336,0.8100000023841858 49.25199890136719,-4.025000095367432 53.986000061035156,-9.968000411987305"></path></g></g><g style="display: block;" transform="matrix(1.3968806266784668,-0.04701384902000427,0.04877324402332306,1.3461047410964966,178.27830505371094,303.69049072265625)" opacity="1"><path fill="rgb(125,9,9)" fill-opacity="1" d=" M104.38,26.09 C88.73,37.71 51.8,42.48 28.88,25.55 C37.95,32.96 49.03,37.43 67.42,36.65 C81.31,36.06 89.2,33.65 94.92,31.21 C100.87,28.66 104.38,26.09 104.38,26.09z"></path><g opacity="1" transform="matrix(1,0,0,1,72.0260009765625,32.6619987487793)"></g></g><g style="display: block;" transform="matrix(1.3968806266784668,-0.04701384902000427,0.04877324402332306,1.3461047410964966,178.27830505371094,303.69049072265625)" opacity="1"><g opacity="1" transform="matrix(1,0,0,1,72.0260009765625,32.6619987487793)"><path stroke-linecap="round" stroke-linejoin="round" fill-opacity="0" stroke="rgb(125,9,9)" stroke-opacity="1" stroke-width="5.778" d=" M25.47100067138672,-2.5250000953674316 C7.5929999351501465,5.9029998779296875 -23.125,7.677000045776367 -43.150001525878906,-7.107999801635742 C-42.284000396728516,-6.401000022888184 -41.400001525878906,-5.7210001945495605 -40.49300003051758,-5.070000171661377"></path></g></g><g style="display: block;" transform="matrix(0.8813645243644714,-0.01202397607266903,0.013415525667369366,0.8022006750106812,273.0078430175781,347.8075256347656)" opacity="1"><g opacity="1" transform="matrix(1,0,0,1,104.70700073242188,47.4370002746582)"><path fill="rgb(255,255,255)" fill-opacity="1" d=" M-65.322998046875,-22.437000274658203 C-65.322998046875,-22.437000274658203 61.24100112915039,-14.76200008392334 69.86799621582031,-12.803999900817871 C78.49500274658203,-10.845999717712402 79.70700073242188,22.437000274658203 70.96900177001953,21.099000930786133 C46.847999572753906,17.40399932861328 -52.34400177001953,8.406000137329102 -63.41299819946289,6.60699987411499 C-74.48200225830078,4.808000087738037 -79.70700073242188,-21.618999481201172 -65.322998046875,-22.437000274658203z"></path><g opacity="1" transform="matrix(1,0,0,1,0,0)"></g></g><g opacity="1" transform="matrix(1,0,0,1,104.70700073242188,47.4370002746582)"><path stroke-linecap="round" stroke-linejoin="round" fill-opacity="0" stroke="rgb(179,179,179)" stroke-opacity="1" stroke-width="10" d=" M-65.322998046875,-22.437000274658203 C-65.322998046875,-22.437000274658203 56.79199981689453,-14.994000434875488 65.41899871826172,-13.03600025177002 C74.0459976196289,-11.07800006866455 76.46600341796875,17.72599983215332 67.72799682617188,16.38800048828125 C43.606998443603516,12.692999839782715 -52.34400177001953,8.406000137329102 -63.41299819946289,6.60699987411499 C-74.48200225830078,4.808000087738037 -79.70700073242188,-21.618999481201172 -65.322998046875,-22.437000274658203z"></path></g></g><g style="display: block;" transform="matrix(0.8813645243644714,-0.01202397607266903,0.013415525667369366,0.8022006750106812,413.5635986328125,367.2478332519531)" opacity="1"><g opacity="1" transform="matrix(1,0,0,1,8.666000366210938,22.79199981689453)"><path fill="rgb(77,77,77)" fill-opacity="1" d=" M11.795999526977539,23.347000122070312 C11.795999526977539,23.347000122070312 -4.986000061035156,21.253000259399414 -4.986000061035156,21.253000259399414 C-6.1570000648498535,21.02400016784668 -7.156000137329102,20.187000274658203 -7.988999843597412,18.89699935913086 C-8.718999862670898,17.767000198364258 -8.505999565124512,14.244000434875488 -8.989999771118164,12.520999908447266 C-9.809000015258789,9.607999801635742 -11.104000091552734,8.038999557495117 -11.270999908447266,4.2230000495910645 C-11.37600040435791,1.8270000219345093 -11.529999732971191,-2.3580000400543213 -11.39799976348877,-4.789999961853027 C-11.255999565124512,-7.4039998054504395 -10.812000274658203,-8.256999969482422 -10.414999961853027,-10.616999626159668 C-9.991999626159668,-13.133999824523926 -5.703999996185303,-13.326000213623047 -5.013000011444092,-15.194000244140625 C-3.8299999237060547,-18.392000198364258 -8.375,-22.176000595092773 -4.118000030517578,-22.2810001373291 C-4.118000030517578,-22.2810001373291 12.664999961853027,-20.187000274658203 12.664999961853027,-20.187000274658203 C14.618000030517578,-19.965999603271484 15.232000350952148,-18.91699981689453 15.232000350952148,-16.951000213623047 C15.232000350952148,-16.951000213623047 15.232000350952148,18.905000686645508 15.232000350952148,18.905000686645508 C15.232000350952148,21.211000442504883 14.086999893188477,23.606000900268555 11.795999526977539,23.347000122070312z"></path><g opacity="1" transform="matrix(1,0,0,1,0,0)"></g></g></g><g style="display: block;" transform="matrix(0.762715220451355,-0.010405308566987514,0.011609528213739395,0.6942083835601807,428.2381591796875,370.95947265625)" opacity="1"><path stroke-linecap="butt" stroke-linejoin="miter" fill-opacity="0" stroke-miterlimit="4" stroke="rgb(77,77,77)" stroke-opacity="1" stroke-width="8" d=" M11.73,43.12 C11.73,43.12 6.3,43.09 6.3,43.09 C5.46,42.61 4.79,40.25 4.32,36.87 C3.96,34.37 1.08,31.02 0.94,27.76 C0.79,24.66 3.37,21.68 3.41,18.49 C3.46,14.99 1.8,11.12 2.07,8.25 C2.55,3.07 5.2,0.03 6.41,0.42 C6.41,0.42 11.98,0.45 11.98,0.45 C14.57,1.11 17.04,10.66 17.14,20.69 C17.17,23.42 15.97,26.39 15.82,28.98 C15.67,31.44 16.43,33.92 16.13,35.94 C15.42,40.67 13.3,43.61 11.73,43.12z"></path><g opacity="1" transform="matrix(1,0,0,1,8.666000366210938,22.985000610351562)"><path fill="rgb(174,56,17)" fill-opacity="1" d=" M3.065999984741211,20.13599967956543 C3.065999984741211,20.13599967956543 -2.365000009536743,20.10099983215332 -2.365000009536743,20.10099983215332 C-3.2109999656677246,19.624000549316406 -3.874000072479248,17.266000747680664 -4.35099983215332,13.881999969482422 C-4.703000068664551,11.38700008392334 -7.581999778747559,8.03600025177002 -7.730999946594238,4.769999980926514 C-7.873000144958496,1.6770000457763672 -5.295000076293945,-1.309999942779541 -5.254000186920166,-4.495999813079834 C-5.209000110626221,-7.992000102996826 -6.866000175476074,-11.864999771118164 -6.599999904632568,-14.734999656677246 C-6.119999885559082,-19.91699981689453 -3.4660000801086426,-22.952999114990234 -2.259000062942505,-22.569000244140625 C-2.259000062942505,-22.569000244140625 3.311000108718872,-22.530000686645508 3.311000108718872,-22.530000686645508 C5.9070000648498535,-21.878000259399414 8.371999740600586,-12.322999954223633 8.47700023651123,-2.296999931335449 C8.505999565124512,0.43799999356269836 7.300000190734863,3.4000000953674316 7.14900016784668,5.994999885559082 C7.00600004196167,8.458000183105469 7.76800012588501,10.934000015258789 7.465000152587891,12.954999923706055 C6.756999969482422,17.680999755859375 4.629000186920166,20.625 3.065999984741211,20.13599967956543z"></path><g opacity="1" transform="matrix(1,0,0,1,0,0)"></g></g></g><g style="display: block;" transform="matrix(0.999385416507721,-0.035194359719753265,0.04272696003317833,0.9991151094436646,250.0799560546875,257.05645751953125)" opacity="1"><g opacity="1" transform="matrix(1,0,0,1,0,0)"><path stroke-linecap="round" stroke-linejoin="round" fill-opacity="0" stroke-dasharray=" 12.325483552802659 8.674516447197341" stroke-dashoffset="0.6509671211242676" stroke="rgb(52,52,52)" stroke-opacity="1" stroke-width="4" d=" M164.75,147.75 C163,140.5 161.75,129.25 167.5,121.5 C168,135.5 169.5,143.25 174.25,147 C171,136.75 170.5,131 173,121.5"></path></g></g><g style="display: block;" transform="matrix(0.9648508429527283,0.06056830286979675,-0.05937729775905609,0.9458781480789185,235.92282104492188,349.3079528808594)" opacity="1"><g opacity="1" transform="matrix(1,0,0,1,75.21800231933594,73.52899932861328)"><path fill="rgb(255,213,39)" fill-opacity="1" d=" M-44.01599884033203,-5.1539998054504395 C-11.255000114440918,-43.53900146484375 34.847999572753906,-52.02899932861328 44.53300094604492,-45.768001556396484 C50.209999084472656,-42.09700012207031 60.35900115966797,-3.4590001106262207 -18.729999542236328,50.76900100708008 C-41.077999114990234,66.09200286865234 -68.77214813232422,77.4522705078125 -104.04214477539062,50.95927047729492"></path><path stroke-linecap="round" stroke-linejoin="round" fill-opacity="0" stroke="rgb(250,144,22)" stroke-opacity="1" stroke-width="10" d=" M-44.01599884033203,-5.1539998054504395 C-11.255000114440918,-43.53900146484375 34.847999572753906,-52.02899932861328 44.53300094604492,-45.768001556396484 C50.209999084472656,-42.09700012207031 60.35900115966797,-3.4590001106262207 -18.729999542236328,50.76900100708008 C-41.077999114990234,66.09200286865234 -68.77214813232422,77.4522705078125 -104.04214477539062,50.95927047729492"></path></g></g><g style="display: block;" transform="matrix(1.1060304641723633,0.11241862922906876,-0.1119089126586914,1.0841748714447021,192.01283264160156,268.44970703125)" opacity="1"><g opacity="1" transform="matrix(1,0,0,1,25.863000869750977,32.92100143432617)"><path stroke-linecap="round" stroke-linejoin="round" fill-opacity="0" stroke="rgb(255,255,255)" stroke-opacity="1" stroke-width="6.957" d=" M56.0369987487793,105.48799896240234 C72.04199981689453,83.48999786376953 96.43399810791016,69.70099639892578 112.91799926757812,64.5979995727539"></path></g></g><g style="display: block;" transform="matrix(1,0,0,1,218.7080078125,-1.3769989013671875)" opacity="1"><g opacity="1" transform="matrix(1,0,0,1,255.38800048828125,61.16899871826172)"><path stroke-linecap="round" stroke-linejoin="round" fill-opacity="0" stroke="rgb(141,82,193)" stroke-opacity="1" stroke-width="10.129" d=" M9.494000434875488,-22.155000686645508 C11.729999542236328,-30.218000411987305 -15.920999526977539,-35.84600067138672 -15.718000411987305,-1.4299999475479126 C-15.569000244140625,23.836999893188477 7.546999931335449,35.84600067138672 15.920000076293945,13.538999557495117"></path></g></g><g style="display: block;" transform="matrix(1,0,0,1,218.7080078125,-1.3769989013671875)" opacity="1"><g opacity="1" transform="matrix(1,0,0,1,225.41299438476562,62.1879997253418)"><path stroke-linecap="round" stroke-linejoin="round" fill-opacity="0" stroke="rgb(141,82,193)" stroke-opacity="1" stroke-width="10.129" d=" M0.7599999904632568,30.222000122070312 C0.2540000081062317,10.097000122070312 -0.2529999911785126,-10.050999641418457 -0.7599999904632568,-30.222000122070312"></path></g></g><g style="display: block;" transform="matrix(1,0,0,1,218.7080078125,-1.3769989013671875)" opacity="1"><g opacity="1" transform="matrix(1,0,0,1,199.68899536132812,67.15399932861328)"><path stroke-linecap="round" stroke-linejoin="round" fill-opacity="0" stroke="rgb(141,82,193)" stroke-opacity="1" stroke-width="10.129" d=" M-10.633999824523926,21.655000686645508 C8.135000228881836,33.965999603271484 15.229999542236328,8.708000183105469 7.377999782562256,-1.9299999475479126 C3.187999963760376,-7.607999801635742 -4.551000118255615,-9.368000030517578 -9.121999740600586,-14.907999992370605 C-15.229000091552734,-22.31100082397461 -11.392000198364258,-32.888999938964844 -3.2660000324249268,-33.61800003051758 C0.6159999966621399,-33.965999603271484 4.7179999351501465,-31.434999465942383 6.046000003814697,-27.648000717163086"></path></g></g><g style="display: block;" transform="matrix(1,0,0,1,218.7080078125,-1.3769989013671875)" opacity="1"><g opacity="1" transform="matrix(1,0,0,1,164.5399932861328,67.56500244140625)"><path stroke-linecap="round" stroke-linejoin="round" fill-opacity="0" stroke="rgb(141,82,193)" stroke-opacity="1" stroke-width="10.129" d=" M5.578000068664551,-27.398000717163086 C2.424999952316284,-31.784000396728516 -4.210999965667725,-33.34199905395508 -8.892000198364258,-30.742000579833984 C-28.19099998474121,-20.023000717163086 3.3350000381469727,-4.910999774932861 4.343999862670898,-4.2210001945495605 C28.191999435424805,12.095999717712402 -1.2699999809265137,33.34199905395508 -7.966000080108643,17.652000427246094"></path></g></g><g style="display: block;" transform="matrix(1,0,0,1,218.7080078125,-1.3769989013671875)" opacity="1"><g opacity="1" transform="matrix(1,0,0,1,128.35899353027344,62.053001403808594)"><path stroke-linecap="round" stroke-linejoin="round" fill-opacity="0" stroke="rgb(141,82,193)" stroke-opacity="1" stroke-width="10.129" d=" M-14.12600040435791,26.975000381469727 C-11.586000442504883,8.654000282287598 -7.831999778747559,-9.406999588012695 -2.9210000038146973,-27.000999450683594 C1.9579999446868896,-8.571000099182129 7.6579999923706055,9.468000411987305 14.12600040435791,27.000999450683594"></path></g><g opacity="1" transform="matrix(1,0,0,1,127.32599639892578,77.93599700927734)"><path stroke-linecap="round" stroke-linejoin="round" fill-opacity="0" stroke="rgb(141,82,193)" stroke-opacity="1" stroke-width="10.129" d=" M-9.918000221252441,0.08900000154972076 C-9.918000221252441,0.08900000154972076 9.918000221252441,-0.08900000154972076 9.918000221252441,-0.08900000154972076"></path></g></g><g style="display: block;" transform="matrix(1,0,0,1,218.7080078125,-1.3769989013671875)" opacity="1"><g opacity="1" transform="matrix(1,0,0,1,92.10700225830078,59.07699966430664)"><path stroke-linecap="round" stroke-linejoin="round" fill-opacity="0" stroke="rgb(141,82,193)" stroke-opacity="1" stroke-width="10.129" d=" M-10.236000061035156,-27.554000854492188 C-10.032999992370605,-9.222000122070312 -9.831999778747559,9.102999687194824 -9.628999710083008,27.420000076293945 C-2.9240000247955322,27.46500015258789 3.697000026702881,27.510000228881836 10.236000061035156,27.554000854492188"></path></g></g><g style="display: block;" transform="matrix(1,0,0,1,222.7080078125,-1.3769989013671875)" opacity="1"><g opacity="1" transform="matrix(1,0,0,1,43.91299819946289,61.11000061035156)"><path stroke-linecap="round" stroke-linejoin="round" fill-opacity="0" stroke="rgb(141,82,193)" stroke-opacity="1" stroke-width="10.129" d=" M15.324999809265137,-20.02899932861328 C13.991999626159668,-28.27199935913086 0.5,-32.87900161743164 -9.218999862670898,-24.04400062561035 C-16.16900062561035,-17.725000381469727 -18.590999603271484,-6.046999931335449 -17.729000091552734,3.239000082015991 C-15.380000114440918,28.55299949645996 8.854000091552734,32.87799835205078 18.590999603271484,23.81800079345703"></path></g></g><g style="display: block;" transform="matrix(1,0,0,1,98.51500701904297,5.464973449707031)" opacity="1"><g opacity="1" transform="matrix(1,0,0,1,26.007999420166016,55.79399871826172)"><path stroke-linecap="round" stroke-linejoin="round" fill-opacity="0" stroke="rgb(141,82,193)" stroke-opacity="1" stroke-width="10" d=" M1.0080000162124634,28.43000030517578 C0.19699999690055847,9.329999923706055 -1.0080000162124634,-8.336000442504883 -1.0080000162124634,-28.43000030517578"></path></g><g opacity="1" transform="matrix(1,0,0,1,57.584999084472656,55.38199996948242)"><path stroke-linecap="round" stroke-linejoin="round" fill-opacity="0" stroke="rgb(141,82,193)" stroke-opacity="1" stroke-width="10" d=" M0.07900000363588333,30.381999969482422 C0.026000000536441803,12.442000389099121 -0.027000000700354576,-12.442000389099121 -0.07900000363588333,-30.381999969482422"></path></g><g opacity="1" transform="matrix(1,0,0,1,93.16899871826172,58.494998931884766)"><path stroke-linecap="round" stroke-linejoin="round" fill-opacity="0" stroke="rgb(141,82,193)" stroke-opacity="1" stroke-width="10" d=" M-19.51799964904785,27.66699981689453 C-13.020000457763672,7.607999801635742 -5.309999942779541,-12.039999961853027 3.552000045776367,-31.131000518798828 C8.526000022888184,-16.91900062561035 13.890000343322754,10.300000190734863 19.51799964904785,31.131000518798828"></path></g><g opacity="1" transform="matrix(1,0,0,1,0,0)"><path stroke-linecap="round" stroke-linejoin="round" fill-opacity="0" stroke="rgb(141,82,193)" stroke-opacity="1" stroke-width="10" d=" M29.590999603271484,58.470001220703125 C29.590999603271484,58.470001220703125 34.10599899291992,58.470001220703125 34.10599899291992,58.470001220703125 C34.10599899291992,58.470001220703125 54.42399978637695,58.470001220703125 54.42399978637695,58.470001220703125"></path></g><g opacity="1" transform="matrix(1,0,0,1,91.48699951171875,74.80799865722656)"><path stroke-linecap="round" stroke-linejoin="round" fill-opacity="0" stroke="rgb(141,82,193)" stroke-opacity="1" stroke-width="10" d=" M-12.607000350952148,-0.19200000166893005 C-9.722000122070312,-0.06400000303983688 -6.8379998207092285,0.06400000303983688 -3.953000068664551,0.19200000166893005 C-3.953000068664551,0.19200000166893005 12.607000350952148,0.19200000166893005 12.607000350952148,0.19200000166893005"></path></g><g opacity="1" transform="matrix(1,0,0,1,125.34700012207031,93.4530029296875)"><path stroke-linecap="round" stroke-linejoin="round" fill-opacity="0" stroke="rgb(141,82,193)" stroke-opacity="1" stroke-width="10" d=" M3.575000047683716,-4.998000144958496 C0.8980000019073486,-1.899999976158142 -1.4989999532699585,1.4520000219345093 -3.575000047683716,4.998000144958496"></path></g></g><g style="display: block;" transform="matrix(1,0,0,1,3.240997314453125,-1.4939994812011719)" opacity="1"><g opacity="1" transform="matrix(1,0,0,1,25.572999954223633,55.369998931884766)"><path stroke-linecap="round" stroke-linejoin="round" fill-opacity="0" stroke="rgb(141,82,193)" stroke-opacity="1" stroke-width="10" d=" M-0.5730000138282776,30.3700008392334 C-0.19099999964237213,10.123000144958496 0.19099999964237213,-10.123000144958496 0.5730000138282776,-30.3700008392334"></path></g><g opacity="1" transform="matrix(1,0,0,1,57.729000091552734,56.9119987487793)"><path stroke-linecap="round" stroke-linejoin="round" fill-opacity="0" stroke="rgb(141,82,193)" stroke-opacity="1" stroke-width="10" d=" M-1.2309999465942383,26.915000915527344 C-0.4099999964237213,8.972000122070312 0.4099999964237213,-8.972000122070312 1.2309999465942383,-26.915000915527344"></path></g><g opacity="1" transform="matrix(1,0,0,1,88.44499969482422,58.24700164794922)"><path stroke-linecap="round" stroke-linejoin="round" fill-opacity="0" stroke="rgb(141,82,193)" stroke-opacity="1" stroke-width="10" d=" M-17.81999969482422,26.702999114990234 C-11.640000343322754,8.52299976348877 -4.49399995803833,-9.312999725341797 3.5759999752044678,-26.702999114990234 C9.001999855041504,-6.915999889373779 12.684000015258789,6.4720001220703125 17.820999145507812,26.702999114990234"></path></g><g opacity="1" transform="matrix(1,0,0,1,0,0)"><path stroke-linecap="round" stroke-linejoin="round" fill-opacity="0" stroke="rgb(141,82,193)" stroke-opacity="1" stroke-width="10" d=" M27.415000915527344,56.141998291015625 C27.415000915527344,56.141998291015625 57.763999938964844,56.141998291015625 57.763999938964844,56.141998291015625"></path></g><g opacity="1" transform="matrix(1,0,0,1,0,0)"><path stroke-linecap="round" stroke-linejoin="round" fill-opacity="0" stroke="rgb(141,82,193)" stroke-opacity="1" stroke-width="10" d=" M75.96199798583984,71.13500213623047 C75.96199798583984,71.13500213623047 80.47699737548828,71.13500213623047 80.47699737548828,71.13500213623047 C80.47699737548828,71.13500213623047 97.44599914550781,71.13500213623047 97.44599914550781,71.13500213623047"></path></g></g></g></g></svg>