<svg xmlns="http://www.w3.org/2000/svg" xmlns:xlink="http://www.w3.org/1999/xlink" viewBox="0 0 512 512" width="512" height="512" style="width: 100%; height: 100%; transform: translate3d(0,0,0); content-visibility: visible;" preserveAspectRatio="xMidYMid meet"><defs><clipPath id="__lottie_element_2"><rect width="512" height="512" x="0" y="0"></rect></clipPath><clipPath id="__lottie_element_5"><path d="M0,0 L512,0 L512,512 L0,512z"></path></clipPath><clipPath id="__lottie_element_105"><path d="M0,0 L512,0 L512,512 L0,512z"></path></clipPath></defs><g clip-path="url(#__lottie_element_2)"><g clip-path="url(#__lottie_element_5)" style="display: none;" transform="matrix(1,0,0,1,0,0)" opacity="1"><g style="display: block;" transform="matrix(0.08885952830314636,0.9960441589355469,-0.9960441589355469,0.08885952830314636,412.0257873535156,318.61468505859375)" opacity="1"><g opacity="1" transform="matrix(1,0,0,1,61.608001708984375,63.04899978637695)"><path stroke-linecap="round" stroke-linejoin="round" fill-opacity="0" stroke="rgb(67,81,96)" stroke-opacity="1" stroke-width="35" d=" M83.56300354003906,-29.66900062561035 C62.757999420166016,-12.270999908447266 44.7869987487793,-1.7619999647140503 28.909000396728516,1.8420000076293945 C26.530000686645508,2.381999969482422 24.434999465942383,4.113999843597412 23.983999252319336,6.840000152587891 C23.518999099731445,9.64799976348877 24.79800033569336,13.51200008392334 29.304000854492188,18.218000411987305 C38.185001373291016,27.493999481201172 52.63999938964844,27.98900032043457 73.87699890136719,32.80400085449219"></path></g></g><g style="display: block;" transform="matrix(0.08885952830314636,0.9960441589355469,-0.9960441589355469,0.08885952830314636,450.1645202636719,365.22607421875)" opacity="1"><g opacity="1" transform="matrix(1,0,0,1,43.5629997253418,63.74700164794922)"><path stroke-linecap="round" stroke-linejoin="round" fill-opacity="0" stroke="rgb(67,81,96)" stroke-opacity="1" stroke-width="35" d=" M-6.355999946594238,37.683998107910156 C-6.355999946594238,37.683998107910156 19.940000534057617,20.895000457763672 34.11399841308594,-16.93000030517578"></path></g></g><g style="display: block;" transform="matrix(0.08885952830314636,0.9960441589355469,-0.9960441589355469,0.08885952830314636,430.0677490234375,365.2118225097656)" opacity="1"><g opacity="1" transform="matrix(1,0,0,1,57.222999572753906,61.24599838256836)"><path stroke-linecap="round" stroke-linejoin="round" fill-opacity="0" stroke="rgb(67,81,96)" stroke-opacity="1" stroke-width="35" d=" M-22.222999572753906,26.246000289916992 C-22.222999572753906,26.246000289916992 -6.99399995803833,3.5420000553131104 5.982999801635742,-46.77000045776367"></path></g></g><g style="display: block;" transform="matrix(0.08885952830314636,0.9960441589355469,-0.9960441589355469,0.08885952830314636,412.0257873535156,318.61468505859375)" opacity="1"><g opacity="1" transform="matrix(1,0,0,1,61.608001708984375,63.04899978637695)"><path stroke-linecap="round" stroke-linejoin="round" fill-opacity="0" stroke="rgb(255,255,255)" stroke-opacity="1" stroke-width="14" d=" M83.56300354003906,-29.66900062561035 C62.757999420166016,-12.270999908447266 44.7869987487793,-1.7619999647140503 28.909000396728516,1.8420000076293945 C26.530000686645508,2.381999969482422 24.434999465942383,4.113999843597412 23.983999252319336,6.840000152587891 C23.518999099731445,9.64799976348877 24.79800033569336,13.51200008392334 29.304000854492188,18.218000411987305 C38.185001373291016,27.493999481201172 52.63999938964844,27.98900032043457 73.87699890136719,32.80400085449219"></path></g></g><g style="display: block;" transform="matrix(0.08885952830314636,0.9960441589355469,-0.9960441589355469,0.08885952830314636,450.1645202636719,365.22607421875)" opacity="1"><g opacity="1" transform="matrix(1,0,0,1,43.5629997253418,63.74700164794922)"><path stroke-linecap="round" stroke-linejoin="round" fill-opacity="0" stroke="rgb(255,255,255)" stroke-opacity="1" stroke-width="14" d=" M-6.355999946594238,37.683998107910156 C-6.355999946594238,37.683998107910156 19.940000534057617,20.895000457763672 34.11399841308594,-16.93000030517578"></path></g></g><g style="display: block;" transform="matrix(0.08885952830314636,0.9960441589355469,-0.9960441589355469,0.08885952830314636,430.0677490234375,365.2118225097656)" opacity="1"><g opacity="1" transform="matrix(1,0,0,1,57.222999572753906,61.24599838256836)"><path stroke-linecap="round" stroke-linejoin="round" fill-opacity="0" stroke="rgb(255,255,255)" stroke-opacity="1" stroke-width="14" d=" M-22.222999572753906,26.246000289916992 C-22.222999572753906,26.246000289916992 -6.99399995803833,3.5420000553131104 5.982999801635742,-46.77000045776367"></path></g></g><g style="display: block;" transform="matrix(1,0,0,1,141.16900634765625,334.3189697265625)" opacity="1"><g opacity="1" transform="matrix(1,0,0,1,96.03399658203125,57.845001220703125)"><path fill="rgb(67,81,96)" fill-opacity="1" d=" M-42.53300094604492,-53.49700164794922 C-49.34000015258789,-55.96699905395508 -57.36399841308594,-54.75600051879883 -63.138999938964844,-50.387001037597656 C-68.36699676513672,-46.43299865722656 -71.58399963378906,-40.31999969482422 -76.62899780273438,-36.132999420166016 C-80.23699951171875,-33.13800048828125 -84.91799926757812,-30.94099998474121 -86.76699829101562,-26.631999969482422 C-89.11399841308594,-21.163999557495117 -86.13500213623047,-13.798999786376953 -90.21800231933594,-9.470999717712402 C-91.3010025024414,-8.322999954223633 -92.77400207519531,-7.563000202178955 -93.70999908447266,-6.293000221252441 C-95.78399658203125,-3.4790000915527344 -94.45899963378906,0.47200000286102295 -93.0260009765625,3.6600000858306885 C-85.86100006103516,19.597000122070312 -76.54399871826172,36.055999755859375 -60.742000579833984,43.513999938964844 C-56.224998474121094,45.645999908447266 -51.367000579833984,46.935001373291016 -46.597999572753906,48.417999267578125 C-34.16699981689453,52.28300094604492 -21.763999938964844,57.595001220703125 -8.755000114440918,57.13399887084961 C10.355999946594238,56.457000732421875 27.072999954223633,43.479000091552734 46.03799819946289,41.0359992980957 C53.85599899291992,40.029998779296875 61.96799850463867,40.83100128173828 69.48999786376953,38.474998474121094 C76.39399719238281,36.31399917602539 82.2040023803711,31.677000045776367 87.83699798583984,27.136999130249023 C89.9520034790039,25.433000564575195 92.12300109863281,23.663999557495117 93.41699981689453,21.274999618530273 C94.81700134277344,18.69300079345703 95.0459976196289,15.656000137329102 95.19100189208984,12.722999572753906 C95.78299713134766,0.7310000061988831 95.43399810791016,-11.28499984741211 95.08499908447266,-23.285999298095703 C95.05599975585938,-24.263999938964844 95.01899719238281,-25.277000427246094 94.58899688720703,-26.1560001373291 C94.08799743652344,-27.17799949645996 93.1240005493164,-27.881000518798828 92.1969985961914,-28.541000366210938 C83.91500091552734,-34.44200134277344 75.63400268554688,-40.34199905395508 67.35199737548828,-46.242000579833984 C63.58399963378906,-48.926998138427734 59.77299880981445,-51.6349983215332 55.500999450683594,-53.40999984741211 C49.93899917602539,-55.72100067138672 43.8390007019043,-56.35200119018555 37.83100128173828,-56.7760009765625 C27.617000579833984,-57.49800109863281 16.882999420166016,-57.595001220703125 7.723999977111816,-53.01599884033203"></path></g></g><g style="display: block;" transform="matrix(1,0,0,1,112.44999694824219,303.3459777832031)" opacity="1"><g opacity="1" transform="matrix(1,0,0,1,125.64800262451172,65.73999786376953)"><path stroke-linecap="round" stroke-linejoin="round" fill-opacity="0" stroke="rgb(67,81,96)" stroke-opacity="1" stroke-width="26" d=" M88.13300323486328,30.590999603271484 C86.85399627685547,16.427000045776367 47.44300079345703,7.776000022888184 0.10599999874830246,11.269000053405762 C-47.231998443603516,14.76200008392334 -84.56900024414062,29.076000213623047 -83.29000091552734,43.2400016784668 M83.5270004272461,-20.423999786376953 C82.24800109863281,-34.5890007019043 42.83700180053711,-43.2400016784668 -4.500999927520752,-39.74700164794922 C-51.8380012512207,-36.25400161743164 -89.17500305175781,-21.940000534057617 -87.89600372314453,-7.775000095367432 M103.14800262451172,9.788000106811523 C101.63700103759766,-6.947000026702881 54.56999969482422,-17.131000518798828 -1.9800000190734863,-12.958000183105469 C-58.529998779296875,-8.78499984741211 -103.14800262451172,8.163999557495117 -101.63700103759766,24.89900016784668"></path><path stroke-linecap="round" stroke-linejoin="round" fill-opacity="0" stroke="rgb(188,232,248)" stroke-opacity="1" stroke-width="9" d=" M88.13300323486328,30.590999603271484 C86.85399627685547,16.427000045776367 47.44300079345703,7.776000022888184 0.10599999874830246,11.269000053405762 C-47.231998443603516,14.76200008392334 -84.56900024414062,29.076000213623047 -83.29000091552734,43.2400016784668 M83.5270004272461,-20.423999786376953 C82.24800109863281,-34.5890007019043 42.83700180053711,-43.2400016784668 -4.500999927520752,-39.74700164794922 C-51.8380012512207,-36.25400161743164 -89.17500305175781,-21.940000534057617 -87.89600372314453,-7.775000095367432 M103.14800262451172,9.788000106811523 C101.63700103759766,-6.947000026702881 54.56999969482422,-17.131000518798828 -1.9800000190734863,-12.958000183105469 C-58.529998779296875,-8.78499984741211 -103.14800262451172,8.163999557495117 -101.63700103759766,24.89900016784668"></path></g></g><g style="display: block;" transform="matrix(1,0,0,1,114.60299682617188,326.64398193359375)" opacity="1"><g opacity="1" transform="matrix(1,0,0,1,125.68499755859375,68.1780014038086)"><path stroke-linecap="round" stroke-linejoin="round" fill-opacity="0" stroke="rgb(67,81,96)" stroke-opacity="1" stroke-width="26" d=" M-88.072998046875,-31.636999130249023 C-86.85700225830078,-16.770999908447266 -47.46799850463867,-7.86299991607666 -0.09700000286102295,-11.739999771118164 C47.275001525878906,-15.616999626159668 84.69200134277344,-30.812000274658203 83.4749984741211,-45.678001403808594 M-83.69100189208984,21.90399932861328 C-82.4749984741211,36.77000045776367 -43.08599853515625,45.676998138427734 4.284999847412109,41.79999923706055 C51.65700149536133,37.92300033569336 89.0739974975586,22.729000091552734 87.85700225830078,7.86299991607666 M-103.18599700927734,-9.729999542236328 C-101.7490005493164,7.834000110626221 -54.707000732421875,18.316999435424805 1.8830000162124634,13.685999870300293 C58.4739990234375,9.053999900817871 103.18599700927734,-8.937999725341797 101.7490005493164,-26.500999450683594"></path><path stroke-linecap="round" stroke-linejoin="round" fill-opacity="0" stroke="rgb(255,255,255)" stroke-opacity="1" stroke-width="9" d=" M-88.072998046875,-31.636999130249023 C-86.85700225830078,-16.770999908447266 -47.46799850463867,-7.86299991607666 -0.09700000286102295,-11.739999771118164 C47.275001525878906,-15.616999626159668 84.69200134277344,-30.812000274658203 83.4749984741211,-45.678001403808594 M-83.69100189208984,21.90399932861328 C-82.4749984741211,36.77000045776367 -43.08599853515625,45.676998138427734 4.284999847412109,41.79999923706055 C51.65700149536133,37.92300033569336 89.0739974975586,22.729000091552734 87.85700225830078,7.86299991607666 M-103.18599700927734,-9.729999542236328 C-101.7490005493164,7.834000110626221 -54.707000732421875,18.316999435424805 1.8830000162124634,13.685999870300293 C58.4739990234375,9.053999900817871 103.18599700927734,-8.937999725341797 101.7490005493164,-26.500999450683594"></path></g></g><g style="display: block;" transform="matrix(1,0,0,1,89.54900360107422,261.16497802734375)" opacity="1"><g opacity="1" transform="matrix(1,0,0,1,102.03900146484375,115.44400024414062)"><path fill="rgb(255,255,255)" fill-opacity="1" d=" M0.9100000262260437,98.7770004272461 C-48.49700164794922,98.7770004272461 -67.96099853515625,74.7979965209961 -75.16500091552734,60.50600051879883 C-82.70999908447266,44.430999755859375 -84.73300170898438,25.89299964904785 -85.11000061035156,13.156999588012695 C-85.37200164794922,4.2779998779296875 -84.83200073242188,-6.630000114440918 -84.02400207519531,-10.847000122070312 C-84.02400207519531,-10.847000122070312 -84.05400085449219,-10.850000381469727 -84.05400085449219,-10.850000381469727 C-83.31099700927734,-19.525999069213867 -70.30799865722656,-18.680999755859375 -70.68299865722656,-9.920000076293945 C-72.08999633789062,22.937999725341797 -65.625,47.09000015258789 -51.46900177001953,61.86600112915039 C-40.374000549316406,73.44499969482422 -24.56800079345703,79.31700134277344 -4.492000102996826,79.31700134277344 C-4.492000102996826,79.31700134277344 -4.486999988555908,79.31700134277344 -4.486999988555908,79.31700134277344 C38.07600021362305,79.31500244140625 64.71199798583984,66.88800048828125 64.70600128173828,24.35300064086914 C64.73699951171875,-12.59000015258789 44.36600112915039,-56.42100143432617 26.910999298095703,-82.73200225830078 C23.76300048828125,-87.48100280761719 25.06399917602539,-93.90599822998047 29.812000274658203,-97.05500030517578 C31.511999130249023,-98.18099975585938 33.48400115966797,-98.7770004272461 35.516998291015625,-98.7770004272461 C38.99300003051758,-98.7770004272461 42.21500015258789,-97.04900360107422 44.1349983215332,-94.15499877929688 C64.0510025024414,-64.10900115966797 85.34200286865234,-17.200000762939453 85.37200164794922,24.350000381469727 C85.36199951171875,70.4000015258789 59.856998443603516,98.7770004272461 0.9100000262260437,98.7770004272461z"></path><path stroke-linecap="butt" stroke-linejoin="miter" fill-opacity="0" stroke-miterlimit="10" stroke="rgb(67,81,96)" stroke-opacity="1" stroke-width="10" d=" M0.9100000262260437,98.7770004272461 C-48.49700164794922,98.7770004272461 -67.96099853515625,74.7979965209961 -75.16500091552734,60.50600051879883 C-82.70999908447266,44.430999755859375 -84.73300170898438,25.89299964904785 -85.11000061035156,13.156999588012695 C-85.37200164794922,4.2779998779296875 -84.83200073242188,-6.630000114440918 -84.02400207519531,-10.847000122070312 C-84.02400207519531,-10.847000122070312 -84.05400085449219,-10.850000381469727 -84.05400085449219,-10.850000381469727 C-83.31099700927734,-19.525999069213867 -70.30799865722656,-18.680999755859375 -70.68299865722656,-9.920000076293945 C-72.08999633789062,22.937999725341797 -65.625,47.09000015258789 -51.46900177001953,61.86600112915039 C-40.374000549316406,73.44499969482422 -24.56800079345703,79.31700134277344 -4.492000102996826,79.31700134277344 C-4.492000102996826,79.31700134277344 -4.486999988555908,79.31700134277344 -4.486999988555908,79.31700134277344 C38.07600021362305,79.31500244140625 64.71199798583984,66.88800048828125 64.70600128173828,24.35300064086914 C64.73699951171875,-12.59000015258789 44.36600112915039,-56.42100143432617 26.910999298095703,-82.73200225830078 C23.76300048828125,-87.48100280761719 25.06399917602539,-93.90599822998047 29.812000274658203,-97.05500030517578 C31.511999130249023,-98.18099975585938 33.48400115966797,-98.7770004272461 35.516998291015625,-98.7770004272461 C38.99300003051758,-98.7770004272461 42.21500015258789,-97.04900360107422 44.1349983215332,-94.15499877929688 C64.0510025024414,-64.10900115966797 85.34200286865234,-17.200000762939453 85.37200164794922,24.350000381469727 C85.36199951171875,70.4000015258789 59.856998443603516,98.7770004272461 0.9100000262260437,98.7770004272461z"></path></g></g><g style="display: block;" transform="matrix(0.9971587657928467,0.07532893121242523,-0.07532893121242523,0.9971587657928467,187.14761352539062,425.14703369140625)" opacity="1"><g opacity="1" transform="matrix(1,0,0,1,34.76499938964844,38.39699935913086)"><path stroke-linecap="butt" stroke-linejoin="miter" fill-opacity="0" stroke-miterlimit="4" stroke="rgb(67,81,96)" stroke-opacity="1" stroke-width="20" d=" M23.695999145507812,-33.9109992980957 C18.726999282836914,-33.04600143432617 13.526000022888184,-32.025001525878906 11.442999839782715,-32.393001556396484 C11.142999649047852,-32.909000396728516 10.77299976348877,-33.39099884033203 10.333000183105469,-33.82899856567383 C9.277000427246094,-35.63600158691406 7.466000080108643,-36.895999908447266 5.382999897003174,-37.222999572753906 C-0.5090000033378601,-38.14699935913086 -0.375,-33.097999572753906 -8.708000183105469,-29.93400001525879 C-13.321000099182129,-28.18600082397461 -18.434999465942383,-28.062999725341797 -22.150999069213867,-29.06399917602539 C-26.47599983215332,-30.222999572753906 -30.761999130249023,-27.073999404907227 -30.954999923706055,-22.604999542236328 C-31.54800033569336,-8.862000465393066 -34.51499938964844,38.145999908447266 -18.36400032043457,35.73400115966797 C-11.411999702453613,34.69200134277344 -0.6610000133514404,12.397000312805176 30.135000228881836,-22.374000549316406 C34.513999938964844,-27.319000244140625 30.202999114990234,-35.042999267578125 23.695999145507812,-33.9109992980957z"></path><path fill="rgb(255,255,255)" fill-opacity="1" d=" M23.695999145507812,-33.9109992980957 C18.726999282836914,-33.04600143432617 13.526000022888184,-32.025001525878906 11.442999839782715,-32.393001556396484 C11.142999649047852,-32.909000396728516 10.77299976348877,-33.39099884033203 10.333000183105469,-33.82899856567383 C9.277000427246094,-35.63600158691406 7.466000080108643,-36.895999908447266 5.382999897003174,-37.222999572753906 C-0.5090000033378601,-38.14699935913086 -0.375,-33.097999572753906 -8.708000183105469,-29.93400001525879 C-13.321000099182129,-28.18600082397461 -18.434999465942383,-28.062999725341797 -22.150999069213867,-29.06399917602539 C-26.47599983215332,-30.222999572753906 -30.761999130249023,-27.073999404907227 -30.954999923706055,-22.604999542236328 C-31.54800033569336,-8.862000465393066 -34.51499938964844,38.145999908447266 -18.36400032043457,35.73400115966797 C-11.411999702453613,34.69200134277344 -0.6610000133514404,12.397000312805176 30.135000228881836,-22.374000549316406 C34.513999938964844,-27.319000244140625 30.202999114990234,-35.042999267578125 23.695999145507812,-33.9109992980957z"></path></g><g opacity="1" transform="matrix(1,0,0,1,29.225000381469727,40.75600051879883)"><path fill="rgb(185,210,220)" fill-opacity="1" d=" M9.746000289916992,-23.591999053955078 C4.182000160217285,-24.066999435424805 -7.120999813079834,-23.336999893188477 -11.939000129699707,-19.833999633789062 C-20.579999923706055,-13.437000274658203 -16.101999282836914,9.708000183105469 -14.913999557495117,18.184999465942383 C-14.177000045776367,23.410999298095703 -6.834000110626221,24.066999435424805 -5.215000152587891,18.999000549316406 C-1.9839999675750732,15.282999992370605 20.579999923706055,-12.180000305175781 17.542999267578125,-19.43600082397461 C16.27199935913086,-22.51099967956543 13.041000366210938,-23.302000045776367 9.746000289916992,-23.591999053955078z"></path></g></g><g style="display: block;" transform="matrix(0.9744245409965515,-0.22471503913402557,0.22471503913402557,0.9744245409965515,288.5119323730469,421.0759582519531)" opacity="1"><g opacity="1" transform="matrix(1,0,0,1,31.58099937438965,42.32899856567383)"><path stroke-linecap="butt" stroke-linejoin="miter" fill-opacity="0" stroke-miterlimit="4" stroke="rgb(67,81,96)" stroke-opacity="1" stroke-width="20" d=" M21.150999069213867,-37.1349983215332 C12.842000007629395,-35.45500183105469 10.458999633789062,-34.90599822998047 8.699000358581543,-36.17599868774414 C8.22700023651123,-36.845001220703125 7.636000156402588,-37.43600082397461 6.934999942779541,-37.91299819946289 C3.4560000896453857,-42.077999114990234 -2.4260001182556152,-41.143001556396484 -4.718999862670898,-37.00699996948242 C-7.8520002365112305,-31.375999450683594 -15.288000106811523,-30.503999710083008 -21.268999099731445,-32.04800033569336 C-26.57699966430664,-33.4109992980957 -31.33099937438965,-28.40399932861328 -29.68899917602539,-23.17099952697754 C-24.208999633789062,-5.716000080108643 -9.993000030517578,42.077999114990234 3.811000108718872,33.426998138427734 C9.395999908447266,29.937999725341797 13.404000282287598,5.306000232696533 28.861000061035156,-27.27199935913086 C31.33099937438965,-32.47800064086914 26.788999557495117,-38.27299880981445 21.150999069213867,-37.1349983215332z"></path><path fill="rgb(255,255,255)" fill-opacity="1" d=" M21.150999069213867,-37.1349983215332 C12.842000007629395,-35.45500183105469 10.458999633789062,-34.90599822998047 8.699000358581543,-36.17599868774414 C8.22700023651123,-36.845001220703125 7.636000156402588,-37.43600082397461 6.934999942779541,-37.91299819946289 C3.4560000896453857,-42.077999114990234 -2.4260001182556152,-41.143001556396484 -4.718999862670898,-37.00699996948242 C-7.8520002365112305,-31.375999450683594 -15.288000106811523,-30.503999710083008 -21.268999099731445,-32.04800033569336 C-26.57699966430664,-33.4109992980957 -31.33099937438965,-28.40399932861328 -29.68899917602539,-23.17099952697754 C-24.208999633789062,-5.716000080108643 -9.993000030517578,42.077999114990234 3.811000108718872,33.426998138427734 C9.395999908447266,29.937999725341797 13.404000282287598,5.306000232696533 28.861000061035156,-27.27199935913086 C31.33099937438965,-32.47800064086914 26.788999557495117,-38.27299880981445 21.150999069213867,-37.1349983215332z"></path></g><g opacity="1" transform="matrix(1,0,0,1,31.64299964904785,42.314998626708984)"><path fill="rgb(185,210,220)" fill-opacity="1" d=" M14.411999702453613,-20.086999893188477 C13.75100040435791,-21.406999588012695 12.696000099182129,-22.32900047302246 11.347000122070312,-22.95800018310547 C6.419000148773193,-25.208999633789062 -14.638999938964844,-25.17099952697754 -16.125999450683594,-16.006999969482422 C-17.826000213623047,-5.605000019073486 -8.458999633789062,11.182999610900879 -3.9639999866485596,20.42799949645996 C-1.6380000114440918,25.208999633789062 5.598999977111816,23.50200080871582 5.517000198364258,18.15999984741211 C8.67199993133545,10.734000205993652 17.826000213623047,-13.232000350952148 14.411999702453613,-20.086999893188477z"></path></g></g><g style="display: block;" transform="matrix(1,0,0,1,66.02201080322266,66.49197387695312)" opacity="1"><g opacity="1" transform="matrix(1,0,0,1,174.89599609375,143.63699340820312)"><path fill="rgb(255,255,255)" fill-opacity="1" d=" M-87.60199737548828,131.55499267578125 C-104.86599731445312,126.13400268554688 -111.76499938964844,119.2969970703125 -120.32599639892578,110.74500274658203 C-139.00100708007812,92.09100341796875 -150.1909942626953,71.0270004272461 -152.38299560546875,42.47999954223633 C-158.22799682617188,-33.64899826049805 -94.94499969482422,-113.89299774169922 -9.78499984741211,-120.43099975585938 C75.3759994506836,-126.97000122070312 150.16700744628906,-57.327999114990234 156.01199340820312,18.802000045776367 C158.22900390625,47.67100143432617 150.1909942626953,73.875 134,95.46499633789062 C126.94100189208984,104.87799835205078 124.03600311279297,105.71099853515625 104.2979965209961,117.77200317382812 C43.58300018310547,154.87100219726562 -40.41699981689453,146.37100219726562 -87.60199737548828,131.55499267578125z"></path><path stroke-linecap="butt" stroke-linejoin="miter" fill-opacity="0" stroke-miterlimit="10" stroke="rgb(67,81,96)" stroke-opacity="1" stroke-width="20" d=" M-87.60199737548828,131.55499267578125 C-104.86599731445312,126.13400268554688 -111.76499938964844,119.2969970703125 -120.32599639892578,110.74500274658203 C-139.00100708007812,92.09100341796875 -150.1909942626953,71.0270004272461 -152.38299560546875,42.47999954223633 C-158.22799682617188,-33.64899826049805 -94.94499969482422,-113.89299774169922 -9.78499984741211,-120.43099975585938 C75.3759994506836,-126.97000122070312 150.16700744628906,-57.327999114990234 156.01199340820312,18.802000045776367 C158.22900390625,47.67100143432617 150.1909942626953,73.875 134,95.46499633789062 C126.94100189208984,104.87799835205078 124.03600311279297,105.71099853515625 104.2979965209961,117.77200317382812 C43.58300018310547,154.87100219726562 -40.41699981689453,146.37100219726562 -87.60199737548828,131.55499267578125z"></path></g></g><g style="display: block;" transform="matrix(1,0,0,1,66.02201080322266,66.49197387695312)" opacity="1"><g opacity="1" transform="matrix(1,0,0,1,174.89599609375,143.63699340820312)"><path fill="rgb(255,255,255)" fill-opacity="1" d=" M-87.60199737548828,131.55499267578125 C-104.86599731445312,126.13400268554688 -111.76499938964844,119.2969970703125 -120.32599639892578,110.74500274658203 C-139.00100708007812,92.09100341796875 -150.1909942626953,71.0270004272461 -152.38299560546875,42.47999954223633 C-158.22799682617188,-33.64899826049805 -94.94499969482422,-113.89299774169922 -9.78499984741211,-120.43099975585938 C75.3759994506836,-126.97000122070312 150.16700744628906,-57.327999114990234 156.01199340820312,18.802000045776367 C158.22900390625,47.67100143432617 150.1909942626953,73.875 134,95.46499633789062 C126.94100189208984,104.87799835205078 124.03600311279297,105.71099853515625 104.2979965209961,117.77200317382812 C43.58300018310547,154.87100219726562 -40.41699981689453,146.37100219726562 -87.60199737548828,131.55499267578125z"></path></g></g><g style="display: block;" transform="matrix(1,0,0,1,108.55200958251953,71.66098022460938)" opacity="1"><g opacity="1" transform="matrix(1.0544500350952148,0,0,1.0544500350952148,155.1820068359375,136.3419952392578)"><path stroke-linecap="butt" stroke-linejoin="miter" fill-opacity="0" stroke-miterlimit="4" stroke="rgb(185,210,219)" stroke-opacity="1" stroke-width="10" d=" M-25.618999481201172,-105.50299835205078 C50.43000030517578,-111.34200286865234 117.12000274658203,-50.43199920654297 122.23999786376953,16.250999450683594 C124.18199920654297,41.53799819946289 120.97100067138672,63.505001068115234 106.48600006103516,82.43800354003906 C100.1709976196289,90.69400024414062 89.26599884033203,103.99700164794922 75.44300079345703,111.54199981689453 C55.10499954223633,122.64299774169922 -33.5890007019043,146.4969940185547 -107.05599975585938,120.02400207519531 C-121.82599639892578,114.7020034790039 -128.4040069580078,107.48300170898438 -136.03700256347656,100.00299835205078"></path><path stroke-linecap="round" stroke-linejoin="round" fill-opacity="0" stroke="rgb(185,210,219)" stroke-opacity="1" stroke-width="10" d=" M-25.618999481201172,-105.50299835205078 C50.43000030517578,-111.34200286865234 117.12000274658203,-50.43199920654297 122.23999786376953,16.250999450683594 C124.18199920654297,41.53799819946289 120.97100067138672,63.505001068115234 106.48600006103516,82.43800354003906 C100.1709976196289,90.69400024414062 89.26599884033203,103.99700164794922 75.44300079345703,111.54199981689453 C55.10499954223633,122.64299774169922 -33.5890007019043,146.4969940185547 -107.05599975585938,120.02400207519531 C-121.82599639892578,114.7020034790039 -128.4040069580078,107.48300170898438 -136.03700256347656,100.00299835205078"></path></g></g><g style="display: block;" transform="matrix(1.0981770753860474,-0.06330126523971558,0.05754660442471504,0.9983428120613098,136.72003173828125,299.96240234375)" opacity="1"><g opacity="1" transform="matrix(1,0,0,1,54.20399856567383,32.53799819946289)"><path stroke-linecap="round" stroke-linejoin="round" fill-opacity="0" stroke="rgb(185,210,219)" stroke-opacity="1" stroke-width="10" d=" M-36.47700119018555,-12.038000106811523 C-20.222999572753906,3.0380001068115234 1.2640000581741333,1.909000039100647 18.295000076293945,-9.11400032043457"></path></g></g><g style="display: block;" transform="matrix(1.0981770753860474,-0.06330126523971558,0.05754660442471504,0.9983428120613098,140.48068237304688,208.25099182128906)" opacity="1"><g opacity="1" transform="matrix(1,0,0,1,55.266998291015625,60.22100067138672)"><path fill="rgb(0,0,0)" fill-opacity="1" d=" M31.743000030517578,14.404000282287598 C17.559999465942383,40.84400177001953 -12.218999862670898,52.47100067138672 -34.770999908447266,40.374000549316406 C-57.323001861572266,28.277000427246094 -64.10800170898438,-2.9639999866485596 -49.92499923706055,-29.40399932861328 C-35.742000579833984,-55.84400177001953 -5.961999893188477,-67.47100067138672 16.59000015258789,-55.374000549316406 C39.14099884033203,-43.277000427246094 45.92599868774414,-12.03600025177002 31.743000030517578,14.404000282287598z"></path></g></g><g style="display: block;" transform="matrix(1.0981770753860474,-0.06330126523971558,0.05754660442471504,0.9983428120613098,162.27520751953125,231.84588623046875)" opacity="1"><g opacity="1" transform="matrix(1,0,0,1,30.054000854492188,32.73899841308594)"><path fill="rgb(51,51,51)" fill-opacity="1" d=" M22.121999740600586,11.866000175476074 C14.439000129699707,26.190000534057617 -1.6950000524520874,32.48899841308594 -13.913000106811523,25.934999465942383 C-26.1299991607666,19.381999969482422 -29.80500030517578,2.4570000171661377 -22.121999740600586,-11.866999626159668 C-14.437999725341797,-26.190000534057617 1.6950000524520874,-32.48899841308594 13.913000106811523,-25.93600082397461 C26.1299991607666,-19.381999969482422 29.80500030517578,-2.4579999446868896 22.121999740600586,11.866000175476074z"></path></g></g><g style="display: block;" transform="matrix(0.6589062809944153,-0.037980761379003525,0.05754660442471504,0.9983428120613098,330.9666442871094,189.48406982421875)" opacity="1"><g opacity="1" transform="matrix(1,0,0,1,41.0369987487793,54.20199966430664)"><path fill="rgb(0,0,0)" fill-opacity="1" d=" M60.24800109863281,6.85099983215332 C60.69499969482422,35.65399932861328 44.51499938964844,57.95899963378906 24.108999252319336,56.67300033569336 C3.7009999752044678,55.387001037597656 -13.206000328063965,30.9950008392334 -13.652999877929688,2.191999912261963 C-14.100000381469727,-26.611000061035156 2.0810000896453857,-48.91600036621094 22.488000869750977,-47.630001068115234 C42.89500045776367,-46.34400177001953 59.80099868774414,-21.95199966430664 60.24800109863281,6.85099983215332z"></path></g></g><g style="display: block;" transform="matrix(0.645921528339386,0.2625884711742401,-0.1423182338476181,0.9639388918876648,360.63055419921875,216.6599578857422)" opacity="1"><g opacity="1" transform="matrix(1,0,0,1,25.756000518798828,33.987998962402344)"><path fill="rgb(51,51,51)" fill-opacity="1" d=" M17.64900016784668,-8.673999786376953 C25.506000518798828,7.313000202178955 23.974000930786133,24.156999588012695 14.22599983215332,28.94700050354004 C4.479000091552734,33.737998962402344 -9.791999816894531,24.660999298095703 -17.64900016784668,8.673999786376953 C-25.506000518798828,-7.314000129699707 -23.974000930786133,-24.156999588012695 -14.22700023651123,-28.947999954223633 C-4.479000091552734,-33.737998962402344 9.791999816894531,-24.660999298095703 17.64900016784668,-8.673999786376953z"></path></g></g><g style="display: block;" transform="matrix(0.9983428120613098,-0.05754660442471504,0.05754660442471504,0.9983428120613098,213.25302124023438,259.5842590332031)" opacity="1"><g opacity="1" transform="matrix(1,0,0,1,88.67400360107422,56.96099853515625)"><path fill="rgb(255,255,255)" fill-opacity="1" d=" M46.12699890136719,6.2729997634887695 C55.01599884033203,9.895000457763672 51.834999084472656,25.024999618530273 19.392000198364258,31.371999740600586 C-24.983999252319336,40.053001403808594 -67.87799835205078,33.48699951171875 -70.48999786376953,10.73900032043457 C-71.60800170898438,1.0019999742507935 -62.3650016784668,-1.3609999418258667 -46.35100173950195,-2.9809999465942383 C-9.904000282287598,-6.669000148773193 -15.54800033569336,-34.26300048828125 5.000999927520752,-36.183998107910156 C19.70199966430664,-37.55799865722656 27.17300033569336,-18.576000213623047 35.0369987487793,-16.743999481201172 C46.61399841308594,-14.045999526977539 55.89799880981445,-13.154999732971191 58.375999450683594,-6.730000019073486 C60.630001068115234,-0.8859999775886536 57.78799819946289,3.7860000133514404 46.12699890136719,6.2729997634887695z"></path><path stroke-linecap="round" stroke-linejoin="round" fill-opacity="0" stroke="rgb(67,81,96)" stroke-opacity="1" stroke-width="8" d=" M46.12699890136719,6.2729997634887695 C55.01599884033203,9.895000457763672 51.834999084472656,25.024999618530273 19.392000198364258,31.371999740600586 C-24.983999252319336,40.053001403808594 -67.87799835205078,33.48699951171875 -70.48999786376953,10.73900032043457 C-71.60800170898438,1.0019999742507935 -62.3650016784668,-1.3609999418258667 -46.35100173950195,-2.9809999465942383 C-9.904000282287598,-6.669000148773193 -15.54800033569336,-34.26300048828125 5.000999927520752,-36.183998107910156 C19.70199966430664,-37.55799865722656 27.17300033569336,-18.576000213623047 35.0369987487793,-16.743999481201172 C46.61399841308594,-14.045999526977539 55.89799880981445,-13.154999732971191 58.375999450683594,-6.730000019073486 C60.630001068115234,-0.8859999775886536 57.78799819946289,3.7860000133514404 46.12699890136719,6.2729997634887695z"></path></g></g><g style="display: block;" transform="matrix(0.9983428120613098,-0.05754660442471504,0.05754660442471504,0.9983428120613098,233.09011840820312,293.473876953125)" opacity="1"><g opacity="1" transform="matrix(1,0,0,1,79.28600311279297,23.115999221801758)"><path stroke-linecap="round" stroke-linejoin="round" fill-opacity="0" stroke="rgb(0,0,0)" stroke-opacity="1" stroke-width="7.2" d=" M-59.36399841308594,15.807000160217285 C-21.871000289916992,3.934999942779541 21.45599937438965,1.7649999856948853 39.89500045776367,4.64300012588501"></path></g></g><g style="display: block;" transform="matrix(0.9983428120613098,-0.05754660442471504,0.05754660442471504,0.9983428120613098,250.89080810546875,302.043701171875)" opacity="1"><g opacity="1" transform="matrix(1,0,0,1,63.441001892089844,31.888999938964844)"><path stroke-linecap="round" stroke-linejoin="round" fill-opacity="0" stroke="rgb(185,210,219)" stroke-opacity="1" stroke-width="10" d=" M-37.4379997253418,5.598999977111816 C-5.414999961853027,5.968999862670898 10.86299991607666,2.4639999866485596 25.011999130249023,-3.5940001010894775"></path></g></g><g style="display: block;" transform="matrix(1,0,0,1,19.678001403808594,378.5159912109375)" opacity="1"><g opacity="1" transform="matrix(1,0,0,1,76.86100006103516,66.48999786376953)"><path stroke-linecap="round" stroke-linejoin="round" fill-opacity="0" stroke="rgb(67,81,96)" stroke-opacity="1" stroke-width="35" d=" M41.861000061035156,-31.490999221801758 C36.04199981689453,-14.940999984741211 24.631999969482422,11.821999549865723 -13.923999786376953,31.489999771118164 M-34.94900131225586,2.8459999561309814 C8.288000106811523,0.8479999899864197 29.729000091552734,-18.819000244140625 41.861000061035156,-31.490999221801758 M-41.861000061035156,-23.170000076293945 C-0.20600000023841858,-11.41100025177002 26.347999572753906,-23.298999786376953 41.861000061035156,-31.490999221801758"></path><path stroke-linecap="round" stroke-linejoin="round" fill-opacity="0" stroke="rgb(255,255,255)" stroke-opacity="1" stroke-width="14" d=" M41.861000061035156,-31.490999221801758 C36.04199981689453,-14.940999984741211 24.631999969482422,11.821999549865723 -13.923999786376953,31.489999771118164 M-34.94900131225586,2.8459999561309814 C8.288000106811523,0.8479999899864197 29.729000091552734,-18.819000244140625 41.861000061035156,-31.490999221801758 M-41.861000061035156,-23.170000076293945 C-0.20600000023841858,-11.41100025177002 26.347999572753906,-23.298999786376953 41.861000061035156,-31.490999221801758"></path></g></g><g style="display: none;" transform="matrix(1.105053424835205,0,0,1.105053424835205,-23.47991943359375,-25.085472106933594)" opacity="1"><g opacity="1" transform="matrix(1,0,0,1,59.8120002746582,120.93900299072266)"><path stroke-linecap="round" stroke-linejoin="round" fill-opacity="0" stroke="rgb(141,82,193)" stroke-opacity="1" stroke-width="12" d=" M-15.354999542236328,7.64900016784668 C-4.432000160217285,2.489000082015991 5.695000171661377,-2.4570000171661377 15.354999542236328,-7.64900016784668"></path></g><g opacity="1" transform="matrix(1,0,0,1,40.518001556396484,67.6510009765625)"><path stroke-linecap="round" stroke-linejoin="round" fill-opacity="0" stroke="rgb(141,82,193)" stroke-opacity="1" stroke-width="12" d=" M-15.517999649047852,7.026000022888184 C-4.684999942779541,2.0799999237060547 5.441999912261963,-2.628999948501587 15.519000053405762,-7.026000022888184"></path></g><g opacity="1" transform="matrix(1,0,0,1,49.58599853515625,93.76499938964844)"><path stroke-linecap="round" stroke-linejoin="round" fill-opacity="0" stroke="rgb(141,82,193)" stroke-opacity="1" stroke-width="12" d=" M-9.12399959564209,-23.554000854492188 C-3.2260000705718994,-7.781000137329102 2.8559999465942383,7.923999786376953 9.12399959564209,23.554000854492188"></path></g></g><g style="display: none;" transform="matrix(1.105053424835205,0,0,1.105053424835205,-23.47991943359375,-25.085472106933594)" opacity="1"><g opacity="1" transform="matrix(1,0,0,1,78.40399932861328,62.900001525878906)"><path stroke-linecap="round" stroke-linejoin="round" fill-opacity="0" stroke="rgb(141,82,193)" stroke-opacity="1" stroke-width="12" d=" M2.4719998836517334,-12.71500015258789 C0.8240000009536743,-4.23799991607666 -0.8240000009536743,4.23799991607666 -2.4719998836517334,12.71500015258789"></path></g></g><g style="display: none;" transform="matrix(1.105053424835205,0,0,1.105053424835205,-23.47991943359375,-25.085472106933594)" opacity="1"><g opacity="1" transform="matrix(1,0,0,1,131.22300720214844,64.87699890136719)"><path stroke-linecap="round" stroke-linejoin="round" fill-opacity="0" stroke="rgb(141,82,193)" stroke-opacity="1" stroke-width="12" d=" M-16.457000732421875,32.354000091552734 C-21.990999221801758,15.805999755859375 -26.868999481201172,-0.9620000123977661 -31.076000213623047,-17.895999908447266 C-21.913000106811523,-12.336999893188477 -12.727999687194824,-5.978000164031982 0.2619999945163727,1.8389999866485596 C4.699999809265137,-8.097999572753906 10.822999954223633,-20.815000534057617 15.532999992370605,-32.354000091552734 C21.07200050354004,-15.862000465393066 26.836999893188477,4.14900016784668 31.076000213623047,17.808000564575195"></path></g></g><g style="display: none;" transform="matrix(1.105053424835205,0,0,1.105053424835205,-23.47991943359375,-25.085472106933594)" opacity="1"><g opacity="1" transform="matrix(1,0,0,1,294.5580139160156,54.22200012207031)"><path stroke-linecap="round" stroke-linejoin="round" fill-opacity="0" stroke="rgb(141,82,193)" stroke-opacity="1" stroke-width="12" d=" M8.734999656677246,-26.472999572753906 C-3.9059998989105225,-29.222000122070312 -15.845999717712402,-20.59000015258789 -20.320999145507812,-4.716000080108643 C-25.58799934387207,13.967000007629395 -18.283000946044922,27.024999618530273 -3.8980000019073486,28.270999908447266 C7.081999778747559,29.222000122070312 18.270999908447266,22.68400001525879 22.68199920654297,2.755000114440918 C25.58799934387207,-10.376999855041504 20.312999725341797,-23.954999923706055 8.734999656677246,-26.472999572753906z"></path></g></g><g style="display: none;" transform="matrix(1.105053424835205,0,0,1.105053424835205,-23.47991943359375,-25.085472106933594)" opacity="1"><g opacity="1" transform="matrix(1,0,0,1,338.81500244140625,65.3550033569336)"><path stroke-linecap="round" stroke-linejoin="round" fill-opacity="0" stroke="rgb(141,82,193)" stroke-opacity="1" stroke-width="12" d=" M9.390999794006348,-30.770000457763672 C3.6050000190734863,-12.767000198364258 -4.2829999923706055,12.015000343322754 -9.390999794006348,30.770000457763672"></path></g><g opacity="1" transform="matrix(1,0,0,1,362.7959899902344,73.96299743652344)"><path stroke-linecap="round" stroke-linejoin="round" fill-opacity="0" stroke="rgb(141,82,193)" stroke-opacity="1" stroke-width="12" d=" M16.643999099731445,-26.22100067138672 C4.190000057220459,-20.434999465942383 -2.742000102996826,-17.507999420166016 -16.643999099731445,-12.392999649047852 C-15.376999855041504,-10.027000427246094 -2.933000087738037,13.888999938964844 3.1059999465942383,26.22100067138672"></path></g></g><g style="display: none;" transform="matrix(1.105053424835205,0,0,1.105053424835205,-23.47991943359375,-25.085472106933594)" opacity="1"><g opacity="1" transform="matrix(1,0,0,1,400.94500732421875,83.20099639892578)"><path stroke-linecap="round" stroke-linejoin="round" fill-opacity="0" stroke="rgb(141,82,193)" stroke-opacity="1" stroke-width="12" d=" M-19.83099937438965,19.9950008392334 C-7.936999797821045,1.9140000343322754 4.886000156402588,-15.62600040435791 18.57900047302246,-32.54600143432617 C19.83099937438965,-10.831999778747559 19.215999603271484,10.958999633789062 16.743000030517578,32.54600143432617"></path></g><g opacity="1" transform="matrix(1,0,0,1,405.6289978027344,93.03800201416016)"><path stroke-linecap="round" stroke-linejoin="round" fill-opacity="0" stroke="rgb(141,82,193)" stroke-opacity="1" stroke-width="12" d=" M-12.951000213623047,-3.815000057220459 C-3.0920000076293945,-0.8059999942779541 5.307000160217285,1.562000036239624 12.95199966430664,3.815000057220459"></path></g></g><g style="display: none;" transform="matrix(1.105053424835205,0,0,1.105053424835205,-23.47991943359375,-25.085472106933594)" opacity="1"><g opacity="1" transform="matrix(1,0,0,1,450.2330017089844,78.32099914550781)"><path stroke-linecap="round" stroke-linejoin="round" fill-opacity="0" stroke="rgb(141,82,193)" stroke-opacity="1" stroke-width="12" d=" M-6.0879998207092285,-20.6560001373291 C-1.2619999647140503,-4.7230000495910645 2.427999973297119,7.498000144958496 6.089000225067139,20.6560001373291"></path></g><g opacity="1" transform="matrix(1,0,0,1,465.5849914550781,98.36000061035156)"><path stroke-linecap="round" stroke-linejoin="round" fill-opacity="0" stroke="rgb(141,82,193)" stroke-opacity="1" stroke-width="12" d=" M20.52400016784668,-28.202999114990234 C9.529999732971191,-17.43199920654297 -0.26600000262260437,-7.25600004196167 -9.263999938964844,0.6169999837875366 C-13.550999641418457,11.3100004196167 -16.68899917602539,17.590999603271484 -20.52400016784668,28.202999114990234"></path></g></g></g><g clip-path="url(#__lottie_element_105)" style="display: block;" transform="matrix(1,0,0,1,0,0)" opacity="1"><g style="display: block;" transform="matrix(0.9981371760368347,-0.06100962683558464,0.06100962683558464,0.9981371760368347,343.62042236328125,271.0160217285156)" opacity="1"><g opacity="1" transform="matrix(1,0,0,1,61.608001708984375,63.04899978637695)"><path stroke-linecap="round" stroke-linejoin="round" fill-opacity="0" stroke="rgb(67,81,96)" stroke-opacity="1" stroke-width="35" d=" M-18.233999252319336,-18.77400016784668 C-7.866000175476074,-28.048999786376953 8.057999610900879,-27.163000106811523 17.333999633789062,-16.795000076293945 C20.716999053955078,-13.012999534606934 22.74799919128418,-8.491000175476074 23.459999084472656,-3.822999954223633 C24.700000762939453,4.306000232696533 21.94099998474121,12.880999565124512 15.354999542236328,18.773000717163086 C4.986999988555908,28.048999786376953 -22.069000244140625,31.756000518798828 -26.608999252319336,1.0281563997268677"></path></g></g><g style="display: block;" transform="matrix(0.9981371760368347,-0.06100962683558464,0.06100962683558464,0.9981371760368347,391.2786865234375,234.19381713867188)" opacity="1"><g opacity="1" transform="matrix(1,0,0,1,43.5629997253418,63.74700164794922)"><path stroke-linecap="round" stroke-linejoin="round" fill-opacity="0" stroke="rgb(67,81,96)" stroke-opacity="1" stroke-width="35" d=" M-7.5329999923706055,28.746999740600586 C-7.5329999923706055,28.746999740600586 -2.6617064476013184,-6.976527690887451 29.394426345825195,-8.777090072631836"></path></g></g><g style="display: block;" transform="matrix(0.9981371760368347,-0.06100962683558464,0.06100962683558464,0.9981371760368347,390.7032165527344,254.2823486328125)" opacity="1"><g opacity="1" transform="matrix(1,0,0,1,57.222999572753906,61.24599838256836)"><path stroke-linecap="round" stroke-linejoin="round" fill-opacity="0" stroke="rgb(67,81,96)" stroke-opacity="1" stroke-width="35" d=" M-22.222999572753906,26.246000289916992 C-22.222999572753906,26.246000289916992 -3.521979808807373,-8.06165885925293 29.410850524902344,-5.569116115570068"></path></g></g><g style="display: block;" transform="matrix(0.9981371760368347,-0.06100962683558464,0.06100962683558464,0.9981371760368347,343.62042236328125,271.0160217285156)" opacity="1"><g opacity="1" transform="matrix(1,0,0,1,61.608001708984375,63.04899978637695)"><path stroke-linecap="round" stroke-linejoin="round" fill-opacity="0" stroke="rgb(255,255,255)" stroke-opacity="1" stroke-width="14" d=" M-18.233999252319336,-18.77400016784668 C-7.866000175476074,-28.048999786376953 8.057999610900879,-27.163000106811523 17.333999633789062,-16.795000076293945 C20.716999053955078,-13.012999534606934 22.74799919128418,-8.491000175476074 23.459999084472656,-3.822999954223633 C24.700000762939453,4.306000232696533 21.94099998474121,12.880999565124512 15.354999542236328,18.773000717163086 C4.986999988555908,28.048999786376953 -22.069000244140625,31.756000518798828 -26.608999252319336,1.0281563997268677"></path></g></g><g style="display: block;" transform="matrix(0.9981371760368347,-0.06100962683558464,0.06100962683558464,0.9981371760368347,391.2786865234375,234.19381713867188)" opacity="1"><g opacity="1" transform="matrix(1,0,0,1,43.5629997253418,63.74700164794922)"><path stroke-linecap="round" stroke-linejoin="round" fill-opacity="0" stroke="rgb(255,255,255)" stroke-opacity="1" stroke-width="14" d=" M-7.5329999923706055,28.746999740600586 C-7.5329999923706055,28.746999740600586 -2.6617064476013184,-6.976527690887451 29.394426345825195,-8.777090072631836"></path></g></g><g style="display: block;" transform="matrix(0.9981371760368347,-0.06100962683558464,0.06100962683558464,0.9981371760368347,390.7032165527344,254.2823486328125)" opacity="1"><g opacity="1" transform="matrix(1,0,0,1,57.222999572753906,61.24599838256836)"><path stroke-linecap="round" stroke-linejoin="round" fill-opacity="0" stroke="rgb(255,255,255)" stroke-opacity="1" stroke-width="14" d=" M-22.222999572753906,26.246000289916992 C-22.222999572753906,26.246000289916992 -3.521979808807373,-8.06165885925293 29.410850524902344,-5.569116115570068"></path></g></g><g style="display: block;" transform="matrix(0.9946523308753967,-0.10327984392642975,0.10327984392642975,0.9946523308753967,135.5999298095703,344.7991638183594)" opacity="1"><g opacity="1" transform="matrix(1,0,0,1,96.03399658203125,57.845001220703125)"><path fill="rgb(67,81,96)" fill-opacity="1" d=" M-42.53300094604492,-53.49700164794922 C-49.34000015258789,-55.96699905395508 -57.36399841308594,-54.75600051879883 -63.138999938964844,-50.387001037597656 C-68.36699676513672,-46.43299865722656 -71.58399963378906,-40.31999969482422 -76.62899780273438,-36.132999420166016 C-80.23699951171875,-33.13800048828125 -84.91799926757812,-30.94099998474121 -86.76699829101562,-26.631999969482422 C-89.11399841308594,-21.163999557495117 -86.13500213623047,-13.798999786376953 -90.21800231933594,-9.470999717712402 C-91.3010025024414,-8.322999954223633 -92.77400207519531,-7.563000202178955 -93.70999908447266,-6.293000221252441 C-95.78399658203125,-3.4790000915527344 -94.45899963378906,0.47200000286102295 -93.0260009765625,3.6600000858306885 C-85.86100006103516,19.597000122070312 -76.54399871826172,36.055999755859375 -60.742000579833984,43.513999938964844 C-56.224998474121094,45.645999908447266 -51.367000579833984,46.935001373291016 -46.597999572753906,48.417999267578125 C-34.16699981689453,52.28300094604492 -21.763999938964844,57.595001220703125 -8.755000114440918,57.13399887084961 C10.355999946594238,56.457000732421875 27.072999954223633,43.479000091552734 46.03799819946289,41.0359992980957 C53.85599899291992,40.029998779296875 61.96799850463867,40.83100128173828 69.48999786376953,38.474998474121094 C76.39399719238281,36.31399917602539 82.2040023803711,31.677000045776367 87.83699798583984,27.136999130249023 C89.9520034790039,25.433000564575195 92.12300109863281,23.663999557495117 93.41699981689453,21.274999618530273 C94.81700134277344,18.69300079345703 95.0459976196289,15.656000137329102 95.19100189208984,12.722999572753906 C95.78299713134766,0.7310000061988831 95.43399810791016,-11.28499984741211 95.08499908447266,-23.285999298095703 C95.05599975585938,-24.263999938964844 95.01899719238281,-25.277000427246094 94.58899688720703,-26.1560001373291 C94.08799743652344,-27.17799949645996 93.1240005493164,-27.881000518798828 92.1969985961914,-28.541000366210938 C83.91500091552734,-34.44200134277344 75.63400268554688,-40.34199905395508 67.35199737548828,-46.242000579833984 C63.58399963378906,-48.926998138427734 59.77299880981445,-51.6349983215332 55.500999450683594,-53.40999984741211 C49.93899917602539,-55.72100067138672 43.8390007019043,-56.35200119018555 37.83100128173828,-56.7760009765625 C27.617000579833984,-57.49800109863281 16.882999420166016,-57.595001220703125 7.723999977111816,-53.01599884033203"></path></g></g><g style="display: block;" transform="matrix(0.9640394449234009,-0.2657591998577118,0.2657591998577118,0.9640394449234009,97.00067901611328,339.3856201171875)" opacity="1"><g opacity="1" transform="matrix(1,0,0,1,125.64800262451172,65.73999786376953)"><path stroke-linecap="round" stroke-linejoin="round" fill-opacity="0" stroke="rgb(67,81,96)" stroke-opacity="1" stroke-width="26" d=" M88.13300323486328,31.59988021850586 C86.85399627685547,18.565866470336914 47.44300079345703,10.605358123779297 0.10599999874830246,13.820013046264648 C-47.231998443603516,17.03466796875 -84.56900024414062,30.20598602294922 -83.29000091552734,43.2400016784668 M82.86100006103516,-19.140499114990234 C81.31600189208984,-33.2765007019043 41.75600051879883,-41.18299865722656 -5.499499797821045,-36.80099868774414 C-52.75400161743164,-32.41899871826172 -89.80899810791016,-17.407499313354492 -88.26399993896484,-3.2715001106262207 M103.24181365966797,1.559165358543396 C100.40436553955078,-14.994284629821777 52.69803237915039,-21.396129608154297 -3.3133962154388428,-12.739097595214844 C-59.324825286865234,-4.082064151763916 -102.43048858642578,16.35548210144043 -99.59391021728516,32.908931732177734"></path><path stroke-linecap="round" stroke-linejoin="round" fill-opacity="0" stroke="rgb(188,232,248)" stroke-opacity="1" stroke-width="9" d=" M88.13300323486328,31.59988021850586 C86.85399627685547,18.565866470336914 47.44300079345703,10.605358123779297 0.10599999874830246,13.820013046264648 C-47.231998443603516,17.03466796875 -84.56900024414062,30.20598602294922 -83.29000091552734,43.2400016784668 M82.86100006103516,-19.140499114990234 C81.31600189208984,-33.2765007019043 41.75600051879883,-41.18299865722656 -5.499499797821045,-36.80099868774414 C-52.75400161743164,-32.41899871826172 -89.80899810791016,-17.407499313354492 -88.26399993896484,-3.2715001106262207 M103.24181365966797,1.559165358543396 C100.40436553955078,-14.994284629821777 52.69803237915039,-21.396129608154297 -3.3133962154388428,-12.739097595214844 C-59.324825286865234,-4.082064151763916 -102.43048858642578,16.35548210144043 -99.59391021728516,32.908931732177734"></path></g></g><g style="display: block;" transform="matrix(0.9946523308753967,-0.10327984392642975,0.10327984392642975,0.9946523308753967,108.3833236694336,339.908935546875)" opacity="1"><g opacity="1" transform="matrix(1,0,0,1,125.68499755859375,68.1780014038086)"><path stroke-linecap="round" stroke-linejoin="round" fill-opacity="0" stroke="rgb(67,81,96)" stroke-opacity="1" stroke-width="26" d=" M-88.072998046875,-31.405052185058594 C-86.85700225830078,-16.293363571166992 -47.46799850463867,-7.238474369049072 -0.09700000286102295,-11.179594993591309 C47.275001525878906,-15.120716094970703 84.69200134277344,-30.56631088256836 83.4749984741211,-45.678001403808594 M-83.82286071777344,21.477954864501953 C-82.60685729980469,36.17753982543945 -43.21786117553711,44.984962463378906 4.153139591217041,41.151611328125 C51.52513885498047,37.318260192871094 88.94168853759766,22.294315338134766 87.72468566894531,7.594732761383057 M-103.18599700927734,-9.96371078491211 C-101.7490005493164,7.817631244659424 -54.707000732421875,18.43067169189453 1.8830000162124634,13.741927146911621 C58.4739990234375,9.05263614654541 103.18599700927734,-9.162162780761719 101.7490005493164,-26.9425048828125"></path><path stroke-linecap="round" stroke-linejoin="round" fill-opacity="0" stroke="rgb(255,255,255)" stroke-opacity="1" stroke-width="9" d=" M-88.072998046875,-31.405052185058594 C-86.85700225830078,-16.293363571166992 -47.46799850463867,-7.238474369049072 -0.09700000286102295,-11.179594993591309 C47.275001525878906,-15.120716094970703 84.69200134277344,-30.56631088256836 83.4749984741211,-45.678001403808594 M-83.82286071777344,21.477954864501953 C-82.60685729980469,36.17753982543945 -43.21786117553711,44.984962463378906 4.153139591217041,41.151611328125 C51.52513885498047,37.318260192871094 88.94168853759766,22.294315338134766 87.72468566894531,7.594732761383057 M-103.18599700927734,-9.96371078491211 C-101.7490005493164,7.817631244659424 -54.707000732421875,18.43067169189453 1.8830000162124634,13.741927146911621 C58.4739990234375,9.05263614654541 103.18599700927734,-9.162162780761719 101.7490005493164,-26.9425048828125"></path></g></g><g style="display: block;" transform="matrix(1,0,0,1,89.54900360107422,261.16497802734375)" opacity="1"><g opacity="1" transform="matrix(1,0,0,1,102.03900146484375,115.44400024414062)"><path fill="rgb(255,255,255)" fill-opacity="1" d=" M0.9100000262260437,98.7770004272461 C-48.49700164794922,98.7770004272461 -67.96099853515625,74.7979965209961 -75.16500091552734,60.50600051879883 C-82.70999908447266,44.430999755859375 -84.73300170898438,25.89299964904785 -85.11000061035156,13.156999588012695 C-85.37200164794922,4.2779998779296875 -84.83200073242188,-6.630000114440918 -84.02400207519531,-10.847000122070312 C-84.02400207519531,-10.847000122070312 -84.05400085449219,-10.850000381469727 -84.05400085449219,-10.850000381469727 C-83.31099700927734,-19.525999069213867 -70.30799865722656,-18.680999755859375 -70.68299865722656,-9.920000076293945 C-72.08999633789062,22.937999725341797 -65.625,47.09000015258789 -51.46900177001953,61.86600112915039 C-40.374000549316406,73.44499969482422 -24.56800079345703,79.31700134277344 -4.492000102996826,79.31700134277344 C-4.492000102996826,79.31700134277344 -4.486999988555908,79.31700134277344 -4.486999988555908,79.31700134277344 C38.07600021362305,79.31500244140625 64.71199798583984,66.88800048828125 64.70600128173828,24.35300064086914 C64.73699951171875,-12.59000015258789 44.36600112915039,-56.42100143432617 26.910999298095703,-82.73200225830078 C23.76300048828125,-87.48100280761719 25.06399917602539,-93.90599822998047 29.812000274658203,-97.05500030517578 C31.511999130249023,-98.18099975585938 33.48400115966797,-98.7770004272461 35.516998291015625,-98.7770004272461 C38.99300003051758,-98.7770004272461 42.21500015258789,-97.04900360107422 44.1349983215332,-94.15499877929688 C64.0510025024414,-64.10900115966797 85.34200286865234,-17.200000762939453 85.37200164794922,24.350000381469727 C85.36199951171875,70.4000015258789 59.856998443603516,98.7770004272461 0.9100000262260437,98.7770004272461z"></path><path stroke-linecap="butt" stroke-linejoin="miter" fill-opacity="0" stroke-miterlimit="10" stroke="rgb(67,81,96)" stroke-opacity="1" stroke-width="10" d=" M0.9100000262260437,98.7770004272461 C-48.49700164794922,98.7770004272461 -67.96099853515625,74.7979965209961 -75.16500091552734,60.50600051879883 C-82.70999908447266,44.430999755859375 -84.73300170898438,25.89299964904785 -85.11000061035156,13.156999588012695 C-85.37200164794922,4.2779998779296875 -84.83200073242188,-6.630000114440918 -84.02400207519531,-10.847000122070312 C-84.02400207519531,-10.847000122070312 -84.05400085449219,-10.850000381469727 -84.05400085449219,-10.850000381469727 C-83.31099700927734,-19.525999069213867 -70.30799865722656,-18.680999755859375 -70.68299865722656,-9.920000076293945 C-72.08999633789062,22.937999725341797 -65.625,47.09000015258789 -51.46900177001953,61.86600112915039 C-40.374000549316406,73.44499969482422 -24.56800079345703,79.31700134277344 -4.492000102996826,79.31700134277344 C-4.492000102996826,79.31700134277344 -4.486999988555908,79.31700134277344 -4.486999988555908,79.31700134277344 C38.07600021362305,79.31500244140625 64.71199798583984,66.88800048828125 64.70600128173828,24.35300064086914 C64.73699951171875,-12.59000015258789 44.36600112915039,-56.42100143432617 26.910999298095703,-82.73200225830078 C23.76300048828125,-87.48100280761719 25.06399917602539,-93.90599822998047 29.812000274658203,-97.05500030517578 C31.511999130249023,-98.18099975585938 33.48400115966797,-98.7770004272461 35.516998291015625,-98.7770004272461 C38.99300003051758,-98.7770004272461 42.21500015258789,-97.04900360107422 44.1349983215332,-94.15499877929688 C64.0510025024414,-64.10900115966797 85.34200286865234,-17.200000762939453 85.37200164794922,24.350000381469727 C85.36199951171875,70.4000015258789 59.856998443603516,98.7770004272461 0.9100000262260437,98.7770004272461z"></path></g></g><g style="display: block;" transform="matrix(0.9790409207344055,-0.20366370677947998,0.20366370677947998,0.9790409207344055,166.78057861328125,430.3262023925781)" opacity="1"><g opacity="1" transform="matrix(1,0,0,1,34.76499938964844,38.39699935913086)"><path stroke-linecap="butt" stroke-linejoin="miter" fill-opacity="0" stroke-miterlimit="4" stroke="rgb(67,81,96)" stroke-opacity="1" stroke-width="20" d=" M23.695999145507812,-33.9109992980957 C18.726999282836914,-33.04600143432617 13.526000022888184,-32.025001525878906 11.442999839782715,-32.393001556396484 C11.142999649047852,-32.909000396728516 10.77299976348877,-33.39099884033203 10.333000183105469,-33.82899856567383 C9.277000427246094,-35.63600158691406 7.466000080108643,-36.895999908447266 5.382999897003174,-37.222999572753906 C-0.5090000033378601,-38.14699935913086 -0.375,-33.097999572753906 -8.708000183105469,-29.93400001525879 C-13.321000099182129,-28.18600082397461 -18.434999465942383,-28.062999725341797 -22.150999069213867,-29.06399917602539 C-26.47599983215332,-30.222999572753906 -30.761999130249023,-27.073999404907227 -30.954999923706055,-22.604999542236328 C-31.54800033569336,-8.862000465393066 -34.51499938964844,38.145999908447266 -18.36400032043457,35.73400115966797 C-11.411999702453613,34.69200134277344 -0.6610000133514404,12.397000312805176 30.135000228881836,-22.374000549316406 C34.513999938964844,-27.319000244140625 30.202999114990234,-35.042999267578125 23.695999145507812,-33.9109992980957z"></path><path fill="rgb(255,255,255)" fill-opacity="1" d=" M23.695999145507812,-33.9109992980957 C18.726999282836914,-33.04600143432617 13.526000022888184,-32.025001525878906 11.442999839782715,-32.393001556396484 C11.142999649047852,-32.909000396728516 10.77299976348877,-33.39099884033203 10.333000183105469,-33.82899856567383 C9.277000427246094,-35.63600158691406 7.466000080108643,-36.895999908447266 5.382999897003174,-37.222999572753906 C-0.5090000033378601,-38.14699935913086 -0.375,-33.097999572753906 -8.708000183105469,-29.93400001525879 C-13.321000099182129,-28.18600082397461 -18.434999465942383,-28.062999725341797 -22.150999069213867,-29.06399917602539 C-26.47599983215332,-30.222999572753906 -30.761999130249023,-27.073999404907227 -30.954999923706055,-22.604999542236328 C-31.54800033569336,-8.862000465393066 -34.51499938964844,38.145999908447266 -18.36400032043457,35.73400115966797 C-11.411999702453613,34.69200134277344 -0.6610000133514404,12.397000312805176 30.135000228881836,-22.374000549316406 C34.513999938964844,-27.319000244140625 30.202999114990234,-35.042999267578125 23.695999145507812,-33.9109992980957z"></path></g><g opacity="1" transform="matrix(1,0,0,1,29.225000381469727,40.75600051879883)"><path fill="rgb(185,210,220)" fill-opacity="1" d=" M9.746000289916992,-23.591999053955078 C4.182000160217285,-24.066999435424805 -7.120999813079834,-23.336999893188477 -11.939000129699707,-19.833999633789062 C-20.579999923706055,-13.437000274658203 -16.101999282836914,9.708000183105469 -14.913999557495117,18.184999465942383 C-14.177000045776367,23.410999298095703 -6.834000110626221,24.066999435424805 -5.215000152587891,18.999000549316406 C-1.9839999675750732,15.282999992370605 20.579999923706055,-12.180000305175781 17.542999267578125,-19.43600082397461 C16.27199935913086,-22.51099967956543 13.041000366210938,-23.302000045776367 9.746000289916992,-23.591999053955078z"></path></g></g><g style="display: block;" transform="matrix(0.998550534248352,0.053822360932826996,-0.053822360932826996,0.998550534248352,308.7075500488281,410.1835632324219)" opacity="1"><g opacity="1" transform="matrix(1,0,0,1,31.58099937438965,42.32899856567383)"><path stroke-linecap="butt" stroke-linejoin="miter" fill-opacity="0" stroke-miterlimit="4" stroke="rgb(67,81,96)" stroke-opacity="1" stroke-width="20" d=" M21.150999069213867,-37.1349983215332 C12.842000007629395,-35.45500183105469 10.458999633789062,-34.90599822998047 8.699000358581543,-36.17599868774414 C8.22700023651123,-36.845001220703125 7.636000156402588,-37.43600082397461 6.934999942779541,-37.91299819946289 C3.4560000896453857,-42.077999114990234 -2.4260001182556152,-41.143001556396484 -4.718999862670898,-37.00699996948242 C-7.8520002365112305,-31.375999450683594 -15.288000106811523,-30.503999710083008 -21.268999099731445,-32.04800033569336 C-26.57699966430664,-33.4109992980957 -31.33099937438965,-28.40399932861328 -29.68899917602539,-23.17099952697754 C-24.208999633789062,-5.716000080108643 -9.993000030517578,42.077999114990234 3.811000108718872,33.426998138427734 C9.395999908447266,29.937999725341797 13.404000282287598,5.306000232696533 28.861000061035156,-27.27199935913086 C31.33099937438965,-32.47800064086914 26.788999557495117,-38.27299880981445 21.150999069213867,-37.1349983215332z"></path><path fill="rgb(255,255,255)" fill-opacity="1" d=" M21.150999069213867,-37.1349983215332 C12.842000007629395,-35.45500183105469 10.458999633789062,-34.90599822998047 8.699000358581543,-36.17599868774414 C8.22700023651123,-36.845001220703125 7.636000156402588,-37.43600082397461 6.934999942779541,-37.91299819946289 C3.4560000896453857,-42.077999114990234 -2.4260001182556152,-41.143001556396484 -4.718999862670898,-37.00699996948242 C-7.8520002365112305,-31.375999450683594 -15.288000106811523,-30.503999710083008 -21.268999099731445,-32.04800033569336 C-26.57699966430664,-33.4109992980957 -31.33099937438965,-28.40399932861328 -29.68899917602539,-23.17099952697754 C-24.208999633789062,-5.716000080108643 -9.993000030517578,42.077999114990234 3.811000108718872,33.426998138427734 C9.395999908447266,29.937999725341797 13.404000282287598,5.306000232696533 28.861000061035156,-27.27199935913086 C31.33099937438965,-32.47800064086914 26.788999557495117,-38.27299880981445 21.150999069213867,-37.1349983215332z"></path></g><g opacity="1" transform="matrix(1,0,0,1,31.64299964904785,42.314998626708984)"><path fill="rgb(185,210,220)" fill-opacity="1" d=" M14.411999702453613,-20.086999893188477 C13.75100040435791,-21.406999588012695 12.696000099182129,-22.32900047302246 11.347000122070312,-22.95800018310547 C6.419000148773193,-25.208999633789062 -14.638999938964844,-25.17099952697754 -16.125999450683594,-16.006999969482422 C-17.826000213623047,-5.605000019073486 -8.458999633789062,11.182999610900879 -3.9639999866485596,20.42799949645996 C-1.6380000114440918,25.208999633789062 5.598999977111816,23.50200080871582 5.517000198364258,18.15999984741211 C8.67199993133545,10.734000205993652 17.826000213623047,-13.232000350952148 14.411999702453613,-20.086999893188477z"></path></g></g><g style="display: block;" transform="matrix(0.9982660412788391,0.058863453567028046,-0.058863453567028046,0.9982660412788391,62.210411071777344,41.55841064453125)" opacity="1"><g opacity="1" transform="matrix(1,0,0,1,174.89599609375,143.63699340820312)"><path fill="rgb(255,255,255)" fill-opacity="1" d=" M-87.35199737548828,126.05500030517578 C-99.41699981689453,126.97000122070312 -111.26499938964844,122.5469970703125 -119.82599639892578,113.99500274658203 C-138.50100708007812,95.34100341796875 -150.1909942626953,71.0270004272461 -152.38299560546875,42.47999954223633 C-158.22799682617188,-33.64899826049805 -94.94499969482422,-113.89299774169922 -9.78499984741211,-120.43099975585938 C75.3759994506836,-126.97000122070312 150.16700744628906,-57.327999114990234 156.01199340820312,18.802000045776367 C158.22900390625,47.67100143432617 150.1909942626953,73.875 134,95.46499633789062 C126.94100189208984,104.87799835205078 116.02999877929688,110.63200378417969 104.2979965209961,111.52200317382812 C104.2979965209961,111.52200317382812 -87.35199737548828,126.05500030517578 -87.35199737548828,126.05500030517578z"></path><path stroke-linecap="butt" stroke-linejoin="miter" fill-opacity="0" stroke-miterlimit="10" stroke="rgb(67,81,96)" stroke-opacity="1" stroke-width="20" d=" M-87.35199737548828,126.05500030517578 C-99.41699981689453,126.97000122070312 -111.26499938964844,122.5469970703125 -119.82599639892578,113.99500274658203 C-138.50100708007812,95.34100341796875 -150.1909942626953,71.0270004272461 -152.38299560546875,42.47999954223633 C-158.22799682617188,-33.64899826049805 -94.94499969482422,-113.89299774169922 -9.78499984741211,-120.43099975585938 C75.3759994506836,-126.97000122070312 150.16700744628906,-57.327999114990234 156.01199340820312,18.802000045776367 C158.22900390625,47.67100143432617 150.1909942626953,73.875 134,95.46499633789062 C126.94100189208984,104.87799835205078 116.02999877929688,110.63200378417969 104.2979965209961,111.52200317382812 C104.2979965209961,111.52200317382812 -87.35199737548828,126.05500030517578 -87.35199737548828,126.05500030517578z"></path></g></g><g style="display: block;" transform="matrix(0.9982660412788391,0.058863453567028046,-0.058863453567028046,0.9982660412788391,62.210411071777344,41.55841064453125)" opacity="1"><g opacity="1" transform="matrix(1,0,0,1,174.89599609375,143.63699340820312)"><path fill="rgb(255,255,255)" fill-opacity="1" d=" M-87.35199737548828,126.05500030517578 C-99.41699981689453,126.97000122070312 -111.26499938964844,122.5469970703125 -119.82599639892578,113.99500274658203 C-138.50100708007812,95.34100341796875 -150.1909942626953,71.0270004272461 -152.38299560546875,42.47999954223633 C-158.22799682617188,-33.64899826049805 -94.94499969482422,-113.89299774169922 -9.78499984741211,-120.43099975585938 C75.3759994506836,-126.97000122070312 150.16700744628906,-57.327999114990234 156.01199340820312,18.802000045776367 C158.22900390625,47.67100143432617 150.1909942626953,73.875 134,95.46499633789062 C126.94100189208984,104.87799835205078 116.02999877929688,110.63200378417969 104.2979965209961,111.52200317382812 C104.2979965209961,111.52200317382812 -87.35199737548828,126.05500030517578 -87.35199737548828,126.05500030517578z"></path></g></g><g style="display: block;" transform="matrix(0.9982660412788391,0.058863453567028046,-0.058863453567028046,0.9982660412788391,104.36239624023438,49.221923828125)" opacity="1"><g opacity="1" transform="matrix(1.0544500350952148,0,0,1.0544500350952148,155.1820068359375,136.3419952392578)"><path stroke-linecap="butt" stroke-linejoin="miter" fill-opacity="0" stroke-miterlimit="4" stroke="rgb(185,210,219)" stroke-opacity="1" stroke-width="10" d=" M-25.618999481201172,-105.50299835205078 C50.43000030517578,-111.34200286865234 114.2750015258789,-50.430999755859375 119.3949966430664,16.25200080871582 C121.33699798583984,41.53900146484375 114.1259994506836,70.19499969482422 99.64099884033203,89.12799835205078 C93.32599639892578,97.38400268554688 83.57499694824219,102.43900299072266 73.0979995727539,103.23300170898438 C73.0979995727539,103.23300170898438 -103.73600006103516,116.21499633789062 -103.73600006103516,116.21499633789062 C-114.51100158691406,117.03199768066406 -125.08399963378906,113.1729965209961 -132.7169952392578,105.69300079345703"></path><path stroke-linecap="round" stroke-linejoin="round" fill-opacity="0" stroke="rgb(185,210,219)" stroke-opacity="1" stroke-width="10" d=" M-25.618999481201172,-105.50299835205078 C50.43000030517578,-111.34200286865234 114.2750015258789,-50.430999755859375 119.3949966430664,16.25200080871582 C121.33699798583984,41.53900146484375 114.1259994506836,70.19499969482422 99.64099884033203,89.12799835205078 C93.32599639892578,97.38400268554688 83.57499694824219,102.43900299072266 73.0979995727539,103.23300170898438 C73.0979995727539,103.23300170898438 -103.73600006103516,116.21499633789062 -103.73600006103516,116.21499633789062 C-114.51100158691406,117.03199768066406 -125.08399963378906,113.1729965209961 -132.7169952392578,105.69300079345703"></path></g></g><g style="display: block;" transform="matrix(0.9999991059303284,0.001319084782153368,-0.001319084782153368,0.9999991059303284,68.10240173339844,236.4910125732422)" opacity="1"><g opacity="1" transform="matrix(1,0,0,1,54.20399856567383,32.53799819946289)"><path stroke-linecap="round" stroke-linejoin="round" fill-opacity="0" stroke="rgb(185,210,219)" stroke-opacity="1" stroke-width="10" d=" M-29.20400047302246,-7.538000106811523 C-12.949999809265137,7.538000106811523 12.17300033569336,6.908999919891357 29.20400047302246,-4.113999843597412"></path></g></g><g style="display: block;" transform="matrix(0.9999991059303284,0.001319084782153368,-0.001319084782153368,0.9999991059303284,76.43388366699219,145.15890502929688)" opacity="1"><g opacity="1" transform="matrix(1,0,0,1,55.266998291015625,60.22100067138672)"><path fill="rgb(0,0,0)" fill-opacity="1" d=" M40.83399963378906,21.90399932861328 C26.650999069213867,48.34400177001953 -3.128000020980835,59.97100067138672 -25.68000030517578,47.874000549316406 C-48.231998443603516,35.777000427246094 -55.016998291015625,4.535999774932861 -40.83399963378906,-21.90399932861328 C-26.650999069213867,-48.34400177001953 3.128999948501587,-59.97100067138672 25.680999755859375,-47.874000549316406 C48.231998443603516,-35.777000427246094 55.016998291015625,-4.535999774932861 40.83399963378906,21.90399932861328z"></path></g></g><g style="display: block;" transform="matrix(0.9999991059303284,0.001319084782153368,-0.001319084782153368,0.9999991059303284,113.11923217773438,177.517333984375)" opacity="1"><g opacity="1" transform="matrix(1,0,0,1,30.054000854492188,32.73899841308594)"><path fill="rgb(51,51,51)" fill-opacity="1" d=" M22.121999740600586,11.866000175476074 C14.439000129699707,26.190000534057617 -1.6950000524520874,32.48899841308594 -13.913000106811523,25.934999465942383 C-26.1299991607666,19.381999969482422 -29.80500030517578,2.4570000171661377 -22.121999740600586,-11.866999626159668 C-14.437999725341797,-26.190000534057617 1.6950000524520874,-32.48899841308594 13.913000106811523,-25.93600082397461 C26.1299991607666,-19.381999969482422 29.80500030517578,-2.4579999446868896 22.121999740600586,11.866000175476074z"></path></g></g><g style="display: block;" transform="matrix(0.9999991059303284,0.001319084782153368,-0.001319084782153368,0.9999991059303284,280.74853515625,137.4750213623047)" opacity="1"><g opacity="1" transform="matrix(1,0,0,1,41.0369987487793,54.20199966430664)"><path fill="rgb(0,0,0)" fill-opacity="1" d=" M53.430999755859375,5.454999923706055 C59.41400146484375,33.632999420166016 47.83000183105469,58.6349983215332 27.558000564575195,61.30099868774414 C7.283999919891357,63.96699905395508 -14.00100040435791,43.2859992980957 -19.983999252319336,15.107999801635742 C-25.966999053955078,-13.069999694824219 -14.381999969482422,-38.073001861572266 5.890999794006348,-40.73899841308594 C26.163999557495117,-43.404998779296875 47.448001861572266,-22.722999572753906 53.430999755859375,5.454999923706055z"></path></g></g><g style="display: block;" transform="matrix(0.9537559151649475,0.30058225989341736,-0.30058225989341736,0.9537559151649475,315.6842956542969,161.22134399414062)" opacity="1"><g opacity="1" transform="matrix(1,0,0,1,25.756000518798828,33.987998962402344)"><path fill="rgb(51,51,51)" fill-opacity="1" d=" M17.64900016784668,-8.673999786376953 C25.506000518798828,7.313000202178955 23.974000930786133,24.156999588012695 14.22599983215332,28.94700050354004 C4.479000091552734,33.737998962402344 -9.791999816894531,24.660999298095703 -17.64900016784668,8.673999786376953 C-25.506000518798828,-7.314000129699707 -23.974000930786133,-24.156999588012695 -14.22700023651123,-28.947999954223633 C-4.479000091552734,-33.737998962402344 9.791999816894531,-24.660999298095703 17.64900016784668,-8.673999786376953z"></path></g></g><g style="display: block;" transform="matrix(0.9999991059303284,0.001319084782153368,-0.001319084782153368,0.9999991059303284,160.53826904296875,195.70590209960938)" opacity="1"><g opacity="1" transform="matrix(1,0,0,1,88.67400360107422,56.96099853515625)"><path fill="rgb(255,255,255)" fill-opacity="1" d=" M67.69599914550781,-13.85200023651123 C77.47699737548828,1.6139999628067017 58.89500045776367,28.589000701904297 7.5329999923706055,34.270999908447266 C-56.40599822998047,41.345001220703125 -83.54100036621094,12.215999603271484 -82.2509994506836,-3.2149999141693115 C-81.43399810791016,-12.980999946594238 -74.0510025024414,-21.783000946044922 -56.12099838256836,-17.009000778198242 C-28.99799919128418,-9.788000106811523 -32.37799835205078,-36.94900131225586 -11.800000190734863,-38.52899932861328 C11.170999526977539,-40.292999267578125 18.447999954223633,-10.513999938964844 37.48099899291992,-15.970999717712402 C50.935001373291016,-19.82900047302246 55.0880012512207,-20.69099998474121 59.22200012207031,-20.461999893188477 C64.70999908447266,-20.158000946044922 65.7770004272461,-16.88599967956543 67.69599914550781,-13.85200023651123z"></path><path stroke-linecap="round" stroke-linejoin="round" fill-opacity="0" stroke="rgb(67,81,96)" stroke-opacity="1" stroke-width="8" d=" M67.69599914550781,-13.85200023651123 C77.47699737548828,1.6139999628067017 58.89500045776367,28.589000701904297 7.5329999923706055,34.270999908447266 C-56.40599822998047,41.345001220703125 -83.54100036621094,12.215999603271484 -82.2509994506836,-3.2149999141693115 C-81.43399810791016,-12.980999946594238 -74.0510025024414,-21.783000946044922 -56.12099838256836,-17.009000778198242 C-28.99799919128418,-9.788000106811523 -32.37799835205078,-36.94900131225586 -11.800000190734863,-38.52899932861328 C11.170999526977539,-40.292999267578125 18.447999954223633,-10.513999938964844 37.48099899291992,-15.970999717712402 C50.935001373291016,-19.82900047302246 55.0880012512207,-20.69099998474121 59.22200012207031,-20.461999893188477 C64.70999908447266,-20.158000946044922 65.7770004272461,-16.88599967956543 67.69599914550781,-13.85200023651123z"></path></g></g><g style="display: block;" transform="matrix(0.9999991059303284,0.001319084782153368,-0.001319084782153368,0.9999991059303284,178.34613037109375,230.7044219970703)" opacity="1"><g opacity="1" transform="matrix(1,0,0,1,79.28600311279297,23.115999221801758)"><path stroke-linecap="round" stroke-linejoin="round" fill-opacity="0" stroke="rgb(0,0,0)" stroke-opacity="1" stroke-width="7.2" d=" M-76.26200103759766,-1.9270000457763672 C-37.499000549316406,14.657999992370605 20.315000534057617,11.197999954223633 51.1879997253418,-8.694999694824219"></path></g></g><g style="display: block;" transform="matrix(0.9999991059303284,0.001319084782153368,-0.001319084782153368,0.9999991059303284,195.61148071289062,240.3072052001953)" opacity="1"><g opacity="1" transform="matrix(1,0,0,1,63.441001892089844,31.888999938964844)"><path stroke-linecap="round" stroke-linejoin="round" fill-opacity="0" stroke="rgb(185,210,219)" stroke-opacity="1" stroke-width="10" d=" M-52.441001892089844,0.2840000092983246 C-35.233001708984375,5.888999938964844 8.532573699951172,5.854084014892578 24.31057357788086,-5.617916107177734"></path></g></g><g style="display: block;" transform="matrix(1,0,0,1,19.678001403808594,378.5159912109375)" opacity="1"><g opacity="1" transform="matrix(1,0,0,1,76.86100006103516,66.48999786376953)"><path stroke-linecap="round" stroke-linejoin="round" fill-opacity="0" stroke="rgb(67,81,96)" stroke-opacity="1" stroke-width="35" d=" M41.861000061035156,-31.490999221801758 C36.04199981689453,-14.940999984741211 24.631999969482422,11.821999549865723 -13.923999786376953,31.489999771118164 M-34.94900131225586,2.8459999561309814 C8.288000106811523,0.8479999899864197 29.729000091552734,-18.819000244140625 41.861000061035156,-31.490999221801758 M-41.861000061035156,-23.170000076293945 C-0.20600000023841858,-11.41100025177002 26.347999572753906,-23.298999786376953 41.861000061035156,-31.490999221801758"></path><path stroke-linecap="round" stroke-linejoin="round" fill-opacity="0" stroke="rgb(255,255,255)" stroke-opacity="1" stroke-width="14" d=" M41.861000061035156,-31.490999221801758 C36.04199981689453,-14.940999984741211 24.631999969482422,11.821999549865723 -13.923999786376953,31.489999771118164 M-34.94900131225586,2.8459999561309814 C8.288000106811523,0.8479999899864197 29.729000091552734,-18.819000244140625 41.861000061035156,-31.490999221801758 M-41.861000061035156,-23.170000076293945 C-0.20600000023841858,-11.41100025177002 26.347999572753906,-23.298999786376953 41.861000061035156,-31.490999221801758"></path></g></g><g style="display: block;" transform="matrix(1,0,0,1,3.36700439453125,-17.01799774169922)" opacity="1"><g opacity="1" transform="matrix(1,0,0,1,59.8120002746582,120.93900299072266)"><path stroke-linecap="round" stroke-linejoin="round" fill-opacity="0" stroke="rgb(141,82,193)" stroke-opacity="1" stroke-width="12" d=" M-15.354999542236328,7.64900016784668 C-4.432000160217285,2.489000082015991 5.695000171661377,-2.4570000171661377 15.354999542236328,-7.64900016784668"></path></g><g opacity="1" transform="matrix(1,0,0,1,40.518001556396484,67.6510009765625)"><path stroke-linecap="round" stroke-linejoin="round" fill-opacity="0" stroke="rgb(141,82,193)" stroke-opacity="1" stroke-width="12" d=" M-15.517999649047852,7.026000022888184 C-4.684999942779541,2.0799999237060547 5.441999912261963,-2.628999948501587 15.519000053405762,-7.026000022888184"></path></g><g opacity="1" transform="matrix(1,0,0,1,49.58599853515625,93.76499938964844)"><path stroke-linecap="round" stroke-linejoin="round" fill-opacity="0" stroke="rgb(141,82,193)" stroke-opacity="1" stroke-width="12" d=" M-9.12399959564209,-23.554000854492188 C-3.2260000705718994,-7.781000137329102 2.8559999465942383,7.923999786376953 9.12399959564209,23.554000854492188"></path></g></g><g style="display: block;" transform="matrix(1,0,0,1,3.36700439453125,-17.01799774169922)" opacity="1"><g opacity="1" transform="matrix(1,0,0,1,78.40399932861328,62.900001525878906)"><path stroke-linecap="round" stroke-linejoin="round" fill-opacity="0" stroke="rgb(141,82,193)" stroke-opacity="1" stroke-width="12" d=" M2.4719998836517334,-12.71500015258789 C0.8240000009536743,-4.23799991607666 -0.8240000009536743,4.23799991607666 -2.4719998836517334,12.71500015258789"></path></g></g><g style="display: block;" transform="matrix(1,0,0,1,3.36700439453125,-17.01799774169922)" opacity="1"><g opacity="1" transform="matrix(1,0,0,1,131.22300720214844,64.87699890136719)"><path stroke-linecap="round" stroke-linejoin="round" fill-opacity="0" stroke="rgb(141,82,193)" stroke-opacity="1" stroke-width="12" d=" M-16.457000732421875,32.354000091552734 C-21.990999221801758,15.805999755859375 -26.868999481201172,-0.9620000123977661 -31.076000213623047,-17.895999908447266 C-21.913000106811523,-12.336999893188477 -12.727999687194824,-5.978000164031982 0.2619999945163727,1.8389999866485596 C4.699999809265137,-8.097999572753906 10.822999954223633,-20.815000534057617 15.532999992370605,-32.354000091552734 C21.07200050354004,-15.862000465393066 26.836999893188477,4.14900016784668 31.076000213623047,17.808000564575195"></path></g></g><g style="display: block;" transform="matrix(1,0,0,1,3.36700439453125,-17.01799774169922)" opacity="1"><g opacity="1" transform="matrix(1,0,0,1,294.5580139160156,54.22200012207031)"><path stroke-linecap="round" stroke-linejoin="round" fill-opacity="0" stroke="rgb(141,82,193)" stroke-opacity="1" stroke-width="12" d=" M8.734999656677246,-26.472999572753906 C-3.9059998989105225,-29.222000122070312 -15.845999717712402,-20.59000015258789 -20.320999145507812,-4.716000080108643 C-25.58799934387207,13.967000007629395 -18.283000946044922,27.024999618530273 -3.8980000019073486,28.270999908447266 C7.081999778747559,29.222000122070312 18.270999908447266,22.68400001525879 22.68199920654297,2.755000114440918 C25.58799934387207,-10.376999855041504 20.312999725341797,-23.954999923706055 8.734999656677246,-26.472999572753906z"></path></g></g><g style="display: block;" transform="matrix(1,0,0,1,3.36700439453125,-17.01799774169922)" opacity="1"><g opacity="1" transform="matrix(1,0,0,1,338.81500244140625,65.3550033569336)"><path stroke-linecap="round" stroke-linejoin="round" fill-opacity="0" stroke="rgb(141,82,193)" stroke-opacity="1" stroke-width="12" d=" M9.390999794006348,-30.770000457763672 C3.6050000190734863,-12.767000198364258 -4.2829999923706055,12.015000343322754 -9.390999794006348,30.770000457763672"></path></g><g opacity="1" transform="matrix(1,0,0,1,362.7959899902344,73.96299743652344)"><path stroke-linecap="round" stroke-linejoin="round" fill-opacity="0" stroke="rgb(141,82,193)" stroke-opacity="1" stroke-width="12" d=" M16.643999099731445,-26.22100067138672 C4.190000057220459,-20.434999465942383 -2.742000102996826,-17.507999420166016 -16.643999099731445,-12.392999649047852 C-15.376999855041504,-10.027000427246094 -2.933000087738037,13.888999938964844 3.1059999465942383,26.22100067138672"></path></g></g><g style="display: block;" transform="matrix(0.9843644499778748,0,0,0.9843644499778748,7.3627471923828125,-15.817283630371094)" opacity="1"><g opacity="1" transform="matrix(1,0,0,1,400.94500732421875,83.20099639892578)"><path stroke-linecap="round" stroke-linejoin="round" fill-opacity="0" stroke="rgb(141,82,193)" stroke-opacity="1" stroke-width="12" d=" M-19.83099937438965,19.9950008392334 C-7.936999797821045,1.9140000343322754 4.886000156402588,-15.62600040435791 18.57900047302246,-32.54600143432617 C19.83099937438965,-10.831999778747559 19.215999603271484,10.958999633789062 16.743000030517578,32.54600143432617"></path></g><g opacity="1" transform="matrix(1,0,0,1,405.6289978027344,93.03800201416016)"><path stroke-linecap="round" stroke-linejoin="round" fill-opacity="0" stroke="rgb(141,82,193)" stroke-opacity="1" stroke-width="12" d=" M-12.951000213623047,-3.815000057220459 C-3.0920000076293945,-0.8059999942779541 5.307000160217285,1.562000036239624 12.95199966430664,3.815000057220459"></path></g></g><g style="display: block;" transform="matrix(0.9156355261802673,0,0,0.9156355261802673,24.926773071289062,-10.539314270019531)" opacity="1"><g opacity="1" transform="matrix(1,0,0,1,450.2330017089844,78.32099914550781)"><path stroke-linecap="round" stroke-linejoin="round" fill-opacity="0" stroke="rgb(141,82,193)" stroke-opacity="1" stroke-width="12" d=" M-6.0879998207092285,-20.6560001373291 C-1.2619999647140503,-4.7230000495910645 2.427999973297119,7.498000144958496 6.089000225067139,20.6560001373291"></path></g><g opacity="1" transform="matrix(1,0,0,1,465.5849914550781,98.36000061035156)"><path stroke-linecap="round" stroke-linejoin="round" fill-opacity="0" stroke="rgb(141,82,193)" stroke-opacity="1" stroke-width="12" d=" M20.52400016784668,-28.202999114990234 C9.529999732971191,-17.43199920654297 -0.26600000262260437,-7.25600004196167 -9.263999938964844,0.6169999837875366 C-13.550999641418457,11.3100004196167 -16.68899917602539,17.590999603271484 -20.52400016784668,28.202999114990234"></path></g></g></g></g></svg>