<svg xmlns="http://www.w3.org/2000/svg" xmlns:xlink="http://www.w3.org/1999/xlink" viewBox="0 0 512 512" width="512" height="512" style="width: 100%; height: 100%; transform: translate3d(0,0,0); content-visibility: visible;" preserveAspectRatio="xMidYMid meet"><defs><clipPath id="__lottie_element_2"><rect width="512" height="512" x="0" y="0"></rect></clipPath><clipPath id="__lottie_element_5"><path d="M0,0 L512,0 L512,512 L0,512z"></path></clipPath><clipPath id="__lottie_element_204"><path d="M0,0 L512,0 L512,512 L0,512z"></path></clipPath></defs><g clip-path="url(#__lottie_element_2)"><g clip-path="url(#__lottie_element_5)" style="display: none;" transform="matrix(1,0,0,1,0,0)" opacity="1"><g style="display: block;" transform="matrix(1.070939302444458,-0.003321829019114375,0.003191898576915264,1.0290504693984985,63.76216125488281,260.0814514160156)" opacity="1"><g opacity="1" transform="matrix(1,0,0,1,191.86199951171875,135.32400512695312)"><path fill="rgb(254,212,41)" fill-opacity="1" d=" M-113.36927032470703,87.36061096191406 C-145.56455993652344,71.83230590820312 -159.5282440185547,46.07524108886719 -159.587158203125,18.258119583129883 C-159.84193420410156,-93.20227813720703 -75.76905059814453,-112.53144836425781 -15.41382122039795,-109.89664459228516 C-12.851083755493164,-109.78521728515625 5.3499884605407715,-107.56096649169922 8.79114818572998,-107.93067932128906 C18.94266128540039,-109.02203369140625 32.84525680541992,-110.51571655273438 47.75993728637695,-110.49613189697266 C80.67399597167969,-110.45292663574219 106.06436157226562,-103.19414520263672 125.37976837158203,-88.30464172363281 C151.50466918945312,-68.1669692993164 164.7120819091797,-34.66801452636719 164.6366729736328,11.262168884277344 C164.58828735351562,40.72825241088867 146.70620727539062,66.85501861572266 114.33847045898438,84.84649658203125 C84.71320343017578,101.30075073242188 -82.33012390136719,102.42374420166016 -113.36927032470703,87.36061096191406z"></path><path stroke-linecap="round" stroke-linejoin="miter" fill-opacity="0" stroke-miterlimit="10" stroke="rgb(249,142,25)" stroke-opacity="1" stroke-width="10" d=" M-113.36927032470703,87.36061096191406 C-145.56455993652344,71.83230590820312 -159.5282440185547,46.07524108886719 -159.587158203125,18.258119583129883 C-159.84193420410156,-93.20227813720703 -75.76905059814453,-112.53144836425781 -15.41382122039795,-109.89664459228516 C-12.851083755493164,-109.78521728515625 5.3499884605407715,-107.56096649169922 8.79114818572998,-107.93067932128906 C18.94266128540039,-109.02203369140625 32.84525680541992,-110.51571655273438 47.75993728637695,-110.49613189697266 C80.67399597167969,-110.45292663574219 106.06436157226562,-103.19414520263672 125.37976837158203,-88.30464172363281 C151.50466918945312,-68.1669692993164 164.7120819091797,-34.66801452636719 164.6366729736328,11.262168884277344 C164.58828735351562,40.72825241088867 146.70620727539062,66.85501861572266 114.33847045898438,84.84649658203125 C84.71320343017578,101.30075073242188 -82.33012390136719,102.42374420166016 -113.36927032470703,87.36061096191406z"></path></g></g><g style="display: block;" transform="matrix(1.06185781955719,-0.0032936600036919117,0.003219987265765667,1.038106083869934,375.9769592285156,379.02655029296875)" opacity="1"><g opacity="1" transform="matrix(1,0,0,1,35.05500030517578,45.316001892089844)"><path stroke-linecap="round" stroke-linejoin="round" fill-opacity="0" stroke="rgb(254,212,41)" stroke-opacity="1" stroke-width="10" d=" M5.775000095367432,-4.9629998207092285 C3.3559999465942383,7.517000198364258 -3.742000102996826,18.687999725341797 -14.322999954223633,27.066999435424805"></path></g></g><g style="display: block;" transform="matrix(0.2741512656211853,0,0,0.2741512656211853,76.1148681640625,116.60786437988281)" opacity="1"><g opacity="1" transform="matrix(1,0,0,1,19.71299934387207,29.714000701904297)"><path fill="rgb(255,244,0)" fill-opacity="1" d=" M26.33300018310547,2.8459999561309814 C27.98900032043457,3.003999948501587 29.461999893188477,1.6959999799728394 29.464000701904297,0.032999999821186066 C29.464000701904297,0.02199999988079071 29.464000701904297,0.010999999940395355 29.464000701904297,0 C29.464000701904297,-0.010999999940395355 29.464000701904297,-0.02199999988079071 29.464000701904297,-0.032999999821186066 C29.461999893188477,-1.6970000267028809 27.988000869750977,-3.003999948501587 26.332000732421875,-2.8459999561309814 C10.055999755859375,-1.2940000295639038 1.284000039100647,-9.975000381469727 2.8459999561309814,-26.332000732421875 C3.003999948501587,-27.988000869750977 1.6970000267028809,-29.461000442504883 0.03400000184774399,-29.464000701904297 C0.023000000044703484,-29.464000701904297 0.012000000104308128,-29.464000701904297 0.0010000000474974513,-29.464000701904297 C-0.009999999776482582,-29.464000701904297 -0.023000000044703484,-29.464000701904297 -0.03400000184774399,-29.464000701904297 C-1.6970000267028809,-29.461000442504883 -3.003000020980835,-27.98699951171875 -2.8450000286102295,-26.33099937438965 C-1.2940000295639038,-10.055000305175781 -9.975000381469727,-1.284000039100647 -26.332000732421875,-2.8459999561309814 C-27.98699951171875,-3.003999948501587 -29.461999893188477,-1.6959999799728394 -29.464000701904297,-0.032999999821186066 C-29.464000701904297,-0.02199999988079071 -29.464000701904297,-0.010999999940395355 -29.464000701904297,0 C-29.464000701904297,0.010999999940395355 -29.464000701904297,0.02199999988079071 -29.464000701904297,0.032999999821186066 C-29.461999893188477,1.6970000267028809 -27.98699951171875,3.003999948501587 -26.33099937438965,2.8459999561309814 C-10.050999641418457,1.2940000295639038 -1.284000039100647,9.979999542236328 -2.8450000286102295,26.33300018310547 C-3.003000020980835,27.988000869750977 -1.6959999799728394,29.461000442504883 -0.032999999821186066,29.464000701904297 C-0.02199999988079071,29.464000701904297 -0.009999999776482582,29.464000701904297 0.0010000000474974513,29.464000701904297 C0.012000000104308128,29.464000701904297 0.023000000044703484,29.464000701904297 0.03400000184774399,29.464000701904297 C1.6970000267028809,29.461000442504883 3.003000020980835,27.988000869750977 2.8459999561309814,26.332000732421875 C1.2940000295639038,10.052000045776367 9.979999542236328,1.284999966621399 26.33300018310547,2.8459999561309814z"></path><g opacity="1" transform="matrix(1,0,0,1,0,0)"></g></g></g><g style="display: block;" transform="matrix(0.2741512656211853,0,0,0.2741512656211853,416.1148681640625,36.607872009277344)" opacity="1"><g opacity="1" transform="matrix(1,0,0,1,19.71299934387207,29.714000701904297)"><path fill="rgb(255,255,255)" fill-opacity="1" d=" M26.33300018310547,2.8459999561309814 C27.98900032043457,3.003999948501587 29.461999893188477,1.6959999799728394 29.464000701904297,0.032999999821186066 C29.464000701904297,0.02199999988079071 29.464000701904297,0.010999999940395355 29.464000701904297,0 C29.464000701904297,-0.010999999940395355 29.464000701904297,-0.02199999988079071 29.464000701904297,-0.032999999821186066 C29.461999893188477,-1.6970000267028809 27.988000869750977,-3.003999948501587 26.332000732421875,-2.8459999561309814 C10.055999755859375,-1.2940000295639038 1.284000039100647,-9.975000381469727 2.8459999561309814,-26.332000732421875 C3.003999948501587,-27.988000869750977 1.6970000267028809,-29.461000442504883 0.03400000184774399,-29.464000701904297 C0.023000000044703484,-29.464000701904297 0.012000000104308128,-29.464000701904297 0.0010000000474974513,-29.464000701904297 C-0.009999999776482582,-29.464000701904297 -0.023000000044703484,-29.464000701904297 -0.03400000184774399,-29.464000701904297 C-1.6970000267028809,-29.461000442504883 -3.003000020980835,-27.98699951171875 -2.8450000286102295,-26.33099937438965 C-1.2940000295639038,-10.055000305175781 -9.975000381469727,-1.284000039100647 -26.332000732421875,-2.8459999561309814 C-27.98699951171875,-3.003999948501587 -29.461999893188477,-1.6959999799728394 -29.464000701904297,-0.032999999821186066 C-29.464000701904297,-0.02199999988079071 -29.464000701904297,-0.010999999940395355 -29.464000701904297,0 C-29.464000701904297,0.010999999940395355 -29.464000701904297,0.02199999988079071 -29.464000701904297,0.032999999821186066 C-29.461999893188477,1.6970000267028809 -27.98699951171875,3.003999948501587 -26.33099937438965,2.8459999561309814 C-10.050999641418457,1.2940000295639038 -1.284000039100647,9.979999542236328 -2.8450000286102295,26.33300018310547 C-3.003000020980835,27.988000869750977 -1.6959999799728394,29.461000442504883 -0.032999999821186066,29.464000701904297 C-0.02199999988079071,29.464000701904297 -0.009999999776482582,29.464000701904297 0.0010000000474974513,29.464000701904297 C0.012000000104308128,29.464000701904297 0.023000000044703484,29.464000701904297 0.03400000184774399,29.464000701904297 C1.6970000267028809,29.461000442504883 3.003000020980835,27.988000869750977 2.8459999561309814,26.332000732421875 C1.2940000295639038,10.052000045776367 9.979999542236328,1.284999966621399 26.33300018310547,2.8459999561309814z"></path><g opacity="1" transform="matrix(1,0,0,1,0,0)"></g></g></g><g style="display: block;" transform="matrix(0.2741512656211853,0,0,0.2741512656211853,476.1148681640625,176.6078643798828)" opacity="1"><g opacity="1" transform="matrix(1,0,0,1,19.71299934387207,29.714000701904297)"><path fill="rgb(255,244,0)" fill-opacity="1" d=" M26.33300018310547,2.8459999561309814 C27.98900032043457,3.003999948501587 29.461999893188477,1.6959999799728394 29.464000701904297,0.032999999821186066 C29.464000701904297,0.02199999988079071 29.464000701904297,0.010999999940395355 29.464000701904297,0 C29.464000701904297,-0.010999999940395355 29.464000701904297,-0.02199999988079071 29.464000701904297,-0.032999999821186066 C29.461999893188477,-1.6970000267028809 27.988000869750977,-3.003999948501587 26.332000732421875,-2.8459999561309814 C10.055999755859375,-1.2940000295639038 1.284000039100647,-9.975000381469727 2.8459999561309814,-26.332000732421875 C3.003999948501587,-27.988000869750977 1.6970000267028809,-29.461000442504883 0.03400000184774399,-29.464000701904297 C0.023000000044703484,-29.464000701904297 0.012000000104308128,-29.464000701904297 0.0010000000474974513,-29.464000701904297 C-0.009999999776482582,-29.464000701904297 -0.023000000044703484,-29.464000701904297 -0.03400000184774399,-29.464000701904297 C-1.6970000267028809,-29.461000442504883 -3.003000020980835,-27.98699951171875 -2.8450000286102295,-26.33099937438965 C-1.2940000295639038,-10.055000305175781 -9.975000381469727,-1.284000039100647 -26.332000732421875,-2.8459999561309814 C-27.98699951171875,-3.003999948501587 -29.461999893188477,-1.6959999799728394 -29.464000701904297,-0.032999999821186066 C-29.464000701904297,-0.02199999988079071 -29.464000701904297,-0.010999999940395355 -29.464000701904297,0 C-29.464000701904297,0.010999999940395355 -29.464000701904297,0.02199999988079071 -29.464000701904297,0.032999999821186066 C-29.461999893188477,1.6970000267028809 -27.98699951171875,3.003999948501587 -26.33099937438965,2.8459999561309814 C-10.050999641418457,1.2940000295639038 -1.284000039100647,9.979999542236328 -2.8450000286102295,26.33300018310547 C-3.003000020980835,27.988000869750977 -1.6959999799728394,29.461000442504883 -0.032999999821186066,29.464000701904297 C-0.02199999988079071,29.464000701904297 -0.009999999776482582,29.464000701904297 0.0010000000474974513,29.464000701904297 C0.012000000104308128,29.464000701904297 0.023000000044703484,29.464000701904297 0.03400000184774399,29.464000701904297 C1.6970000267028809,29.461000442504883 3.003000020980835,27.988000869750977 2.8459999561309814,26.332000732421875 C1.2940000295639038,10.052000045776367 9.979999542236328,1.284999966621399 26.33300018310547,2.8459999561309814z"></path><g opacity="1" transform="matrix(1,0,0,1,0,0)"></g></g></g><g style="display: none;" transform="matrix(-1.0488108396530151,0.05603504553437233,0.05114156752824783,1.0487395524978638,508.8480529785156,186.34841918945312)" opacity="1"><g opacity="1" transform="matrix(1,0,0,1,56.23500061035156,75.00700378417969)"><path fill="rgb(253,184,183)" fill-opacity="1" d=" M55.15473175048828,44.02378845214844 C30.628541946411133,47.650146484375 7.559420585632324,32.05178451538086 -9.01002311706543,16.27109146118164 C-23.18538475036621,3.299028158187866 -29.179861068725586,-18.092416763305664 -24.19403839111328,-30.81744956970215 C-20.250179290771484,-41.189788818359375 -11.673192024230957,-49.04970932006836 4.4187846183776855,-36.73992919921875 C29.81886100769043,-17.006710052490234 53.24787139892578,-20.898761749267578 82.85376739501953,-26.321544647216797"></path><path stroke-linecap="round" stroke-linejoin="round" fill-opacity="0" stroke="rgb(237,80,182)" stroke-opacity="1" stroke-width="10" d=" M55.15473175048828,44.02378845214844 C30.628541946411133,47.650146484375 7.559420585632324,32.05178451538086 -9.01002311706543,16.27109146118164 C-23.18538475036621,3.299028158187866 -29.179861068725586,-18.092416763305664 -24.19403839111328,-30.81744956970215 C-20.250179290771484,-41.189788818359375 -11.673192024230957,-49.04970932006836 4.4187846183776855,-36.73992919921875 C29.81886100769043,-17.006710052490234 53.24787139892578,-20.898761749267578 82.85376739501953,-26.321544647216797"></path></g></g><g style="display: none;" transform="matrix(1.0001287460327148,-0.30979692935943604,0.3157183527946472,1.0047367811203003,-59.081504821777344,294.3854675292969)" opacity="1"><g opacity="1" transform="matrix(1,0,0,1,74.9219970703125,76.87799835205078)"><path fill="rgb(253,184,183)" fill-opacity="1" d=" M55.15473175048828,44.02378845214844 C30.628541946411133,47.650146484375 7.559420585632324,32.05178451538086 -9.01002311706543,16.27109146118164 C-23.18538475036621,3.299028158187866 -29.179861068725586,-18.092416763305664 -24.19403839111328,-30.81744956970215 C-20.250179290771484,-41.189788818359375 -11.673192024230957,-49.04970932006836 4.4187846183776855,-36.73992919921875 C29.81886100769043,-17.006710052490234 53.24787139892578,-20.898761749267578 82.85376739501953,-26.321544647216797"></path><path stroke-linecap="round" stroke-linejoin="round" fill-opacity="0" stroke="rgb(237,80,182)" stroke-opacity="1" stroke-width="10" d=" M55.15473175048828,44.02378845214844 C30.628541946411133,47.650146484375 7.559420585632324,32.05178451538086 -9.01002311706543,16.27109146118164 C-23.18538475036621,3.299028158187866 -29.179861068725586,-18.092416763305664 -24.19403839111328,-30.81744956970215 C-20.250179290771484,-41.189788818359375 -11.673192024230957,-49.04970932006836 4.4187846183776855,-36.73992919921875 C29.81886100769043,-17.006710052490234 53.24787139892578,-20.898761749267578 82.85376739501953,-26.321544647216797"></path></g></g><g style="display: block;" transform="matrix(1.1149550676345825,-0.003458356251940131,0.0033809863962233067,1.0900113582611084,66.84362030029297,39.3614387512207)" opacity="1"><g opacity="1" transform="matrix(1,0,0,1,182.52499389648438,148.4149932861328)"><path fill="rgb(254,212,41)" fill-opacity="1" d=" M-106.72100067138672,134.6999969482422 C-135.10699462890625,112.68800354003906 -157.197998046875,69.05000305175781 -157.197998046875,30.881999969482422 C-157.197998046875,-46.729000091552734 -86.81800079345703,-123.13099670410156 0,-123.13099670410156 C86.81800079345703,-123.13099670410156 157.197998046875,-46.729000091552734 157.197998046875,30.881999969482422 C157.197998046875,63.5989990234375 140.36900329589844,96.26200103759766 119.38899993896484,117.37899780273438"></path><path stroke-linecap="round" stroke-linejoin="miter" fill-opacity="0" stroke-miterlimit="10" stroke="rgb(249,142,25)" stroke-opacity="1" stroke-width="10" d=" M-106.72100067138672,134.6999969482422 C-135.10699462890625,112.68800354003906 -157.197998046875,69.05000305175781 -157.197998046875,30.881999969482422 C-157.197998046875,-46.729000091552734 -86.81800079345703,-123.13099670410156 0,-123.13099670410156 C86.81800079345703,-123.13099670410156 157.197998046875,-46.729000091552734 157.197998046875,30.881999969482422 C157.197998046875,63.5989990234375 140.36900329589844,96.26200103759766 119.38899993896484,117.37899780273438"></path></g></g><g style="display: block;" transform="matrix(1.1149550676345825,-0.003458356251940131,0.0033809863962233067,1.0900113582611084,87.81013488769531,200.62290954589844)" opacity="1"><g opacity="1" transform="matrix(1,0,0,1,26.16699981689453,35.709999084472656)"><path stroke-linecap="round" stroke-linejoin="round" fill-opacity="0" stroke="rgb(255,255,255)" stroke-opacity="1" stroke-width="10" d=" M4.250999927520752,-32.65800094604492 C5.2220001220703125,-38.18299865722656 6.706999778747559,-43.74399948120117 8.734999656677246,-49.314998626708984"></path></g></g><g style="display: block;" transform="matrix(1.1149550676345825,-0.003458356251940131,0.0033809863962233067,1.0900113582611084,99.97936248779297,63.47023010253906)" opacity="1"><g opacity="1" transform="matrix(1,0,0,1,88.77300262451172,67.36000061035156)"><path stroke-linecap="round" stroke-linejoin="round" fill-opacity="0" stroke="rgb(255,255,255)" stroke-opacity="1" stroke-width="10" d=" M-47.58000183105469,14.404999732971191 C-36.69200134277344,-0.10999999940395355 -22.78499984741211,-12.79800033569336 -6.736999988555908,-22.47599983215332 C13.861000061035156,-34.89799880981445 37.98500061035156,-42.36000061035156 63.77299880981445,-42.36000061035156"></path></g></g><g style="display: block;" transform="matrix(1.1149550676345825,-0.003458356251940131,0.0033809863962233067,1.0900113582611084,345.8970031738281,102.5455551147461)" opacity="1"><g opacity="1" transform="matrix(1,0,0,1,47.042999267578125,105.77100372314453)"><path stroke-linecap="round" stroke-linejoin="round" fill-opacity="0" stroke="rgb(251,237,36)" stroke-opacity="1" stroke-width="10" d=" M-6.3420000076293945,-64.09500122070312 C11.458000183105469,-41.86899948120117 22.042999267578125,-14.9350004196167 22.042999267578125,12.173999786376953 C22.042999267578125,15.147000312805176 21.916000366210938,18.06999969482422 21.666000366210938,20.94300079345703"></path></g></g><g style="display: none;"><g><path></path><path stroke-linecap="butt" stroke-linejoin="miter" fill-opacity="0" stroke-miterlimit="4"></path></g></g><g style="display: none;"><path stroke-linecap="butt" stroke-linejoin="miter" fill-opacity="0" stroke-miterlimit="4"></path><g><path></path><path stroke-linecap="butt" stroke-linejoin="miter" fill-opacity="0" stroke-miterlimit="4"></path></g></g><g style="display: none;"><path stroke-linecap="butt" stroke-linejoin="miter" fill-opacity="0" stroke-miterlimit="4"></path><g><path></path><path stroke-linecap="butt" stroke-linejoin="miter" fill-opacity="0" stroke-miterlimit="4"></path></g></g><g style="display: none;" transform="matrix(0.6991097927093506,-0.2194795310497284,0.19467298686504364,0.6109119653701782,167.1806182861328,310.41815185546875)" opacity="1"><path stroke-linecap="butt" stroke-linejoin="miter" fill-opacity="0" stroke-miterlimit="4" stroke="rgb(235,70,207)" stroke-opacity="1" stroke-width="2" d=" M-57.85,-71.83 C-44.75,-68.16 -37.93,-51.6 -42.62,-34.86 C-47.31,-18.13 -61.75,-7.53 -74.85,-11.2 C-87.95,-14.87 -94.78,-31.44 -90.09,-48.17 C-85.4,-64.9 -70.95,-75.5 -57.85,-71.83z"></path><g opacity="1" transform="matrix(0.9628898501396179,0.26989468932151794,-0.26989468932151794,0.9628898501396179,-66.35099792480469,-41.516998291015625)"><path fill="rgb(235,70,207)" fill-opacity="1" d=" M0,-31.48349952697754 C13.604059219360352,-31.48349952697754 24.649499893188477,-17.375743865966797 24.649499893188477,0 C24.649499893188477,17.375743865966797 13.604059219360352,31.48349952697754 0,31.48349952697754 C-13.604059219360352,31.48349952697754 -24.649499893188477,17.375743865966797 -24.649499893188477,0 C-24.649499893188477,-17.375743865966797 -13.604059219360352,-31.48349952697754 0,-31.48349952697754z"></path><path stroke-linecap="butt" stroke-linejoin="miter" fill-opacity="0" stroke-miterlimit="4" stroke="rgb(41,171,226)" stroke-opacity="1" stroke-width="20" d="M0 0"></path></g></g><g style="display: none;"><g><path></path><path stroke-linecap="butt" stroke-linejoin="miter" fill-opacity="0" stroke-miterlimit="4"></path></g></g><g style="display: block;" transform="matrix(1.1282445192337036,-0.07134260982275009,0.07022948563098907,1.0638025999069214,231.59329223632812,298.756103515625)" opacity="1"><g opacity="1" transform="matrix(1,0,0,1,0,0)"><path fill="rgb(255,0,0)" fill-opacity="1" d="M0 0"></path><path stroke-linecap="round" stroke-linejoin="round" fill-opacity="0" stroke="rgb(0,0,0)" stroke-opacity="1" stroke-width="10" d=" M132.36993408203125,-69.84664916992188 C132.36993408203125,-69.84664916992188 86,-54 86,-54 C86,-54 130.879638671875,-40.521217346191406 130.879638671875,-40.521217346191406"></path></g></g><g style="display: block;" transform="matrix(1.0930485725402832,-0.2826196551322937,0.2786671817302704,1.030588150024414,269.2207946777344,276.0843200683594)" opacity="1"><g opacity="1" transform="matrix(1,0,0,1,0,0)"><path fill="rgb(255,0,0)" fill-opacity="1" d="M0 0"></path><path stroke-linecap="round" stroke-linejoin="round" fill-opacity="0" stroke="rgb(0,0,0)" stroke-opacity="1" stroke-width="10" d=" M-70.15243530273438,-70.3491439819336 C-70.15243530273438,-70.3491439819336 -34.57099914550781,-42.23099899291992 -34.57099914550781,-42.23099899291992 C-34.57099914550781,-42.23099899291992 -82.7137451171875,-47.75080871582031 -82.7137451171875,-47.75080871582031"></path></g></g><g style="display: none;"><path stroke-linecap="butt" stroke-linejoin="miter" fill-opacity="0" stroke-miterlimit="4"></path><g><path></path><path stroke-linecap="butt" stroke-linejoin="miter" fill-opacity="0" stroke-miterlimit="4"></path></g></g><g style="display: none;"><path stroke-linecap="butt" stroke-linejoin="miter" fill-opacity="0" stroke-miterlimit="4"></path><g><path></path><path stroke-linecap="butt" stroke-linejoin="miter" fill-opacity="0" stroke-miterlimit="4"></path></g></g><g style="display: none;" transform="matrix(0.6991058588027954,-0.21949152648448944,0.19468380510807037,0.610908567905426,431.3717956542969,270.1915588378906)" opacity="1"><path stroke-linecap="butt" stroke-linejoin="miter" fill-opacity="0" stroke-miterlimit="4" stroke="rgb(235,70,207)" stroke-opacity="1" stroke-width="2" d=" M-57.85,-62.75 C-44.75,-59.08 -38.06,-42.66 -42.76,-25.92 C-47.45,-9.18 -61.74,1.55 -74.85,-2.12 C-87.96,-5.8 -94.78,-22.35 -90.09,-39.09 C-85.39,-55.83 -70.96,-66.43 -57.85,-62.75z"></path><g opacity="1" transform="matrix(0.9628898501396179,0.26989468932151794,-0.26989468932151794,0.9628898501396179,-66.35099792480469,-32.43899917602539)"><path fill="rgb(235,70,207)" fill-opacity="1" d=" M0,-31.482999801635742 C13.61299991607666,-31.482999801635742 24.479000091552734,-17.479000091552734 24.479000091552734,-0.09099999815225601 C24.479000091552734,17.297000885009766 13.61299991607666,31.482999801635742 0,31.482999801635742 C-13.61299991607666,31.482999801635742 -24.64900016784668,17.38800048828125 -24.64900016784668,0 C-24.64900016784668,-17.38800048828125 -13.61299991607666,-31.482999801635742 0,-31.482999801635742z"></path><path stroke-linecap="butt" stroke-linejoin="miter" fill-opacity="0" stroke-miterlimit="4" stroke="rgb(41,171,226)" stroke-opacity="1" stroke-width="20" d="M0 0"></path></g></g><g style="display: block;" transform="matrix(0.9302135109901428,0.14015811681747437,-0.1378537267446518,0.8736643195152283,201.59890747070312,230.43592834472656)" opacity="1"><g opacity="1" transform="matrix(1,0,0,1,89.18399810791016,58.939998626708984)"><path fill="rgb(255,93,31)" fill-opacity="1" d=" M72.56995391845703,-6.666785717010498 C64.96324157714844,22.766803741455078 54.41444778442383,6.196484565734863 13.869993209838867,12.588327407836914 C-51.31797790527344,22.864355087280273 -53.6501350402832,54.0523567199707 -69.93861389160156,13.906521797180176 C-74.848388671875,1.8097071647644043 -77.35218811035156,-4.303637981414795 -52.2670783996582,-13.2592191696167 C-27.642940521240234,-22.064706802368164 -29.15211296081543,-49.236846923828125 -8.647848129272461,-53.67860794067383 C14.781150817871094,-58.75309753417969 18.78107452392578,-32.12820816040039 41.88984298706055,-29.92326545715332 C69.20890045166016,-27.316768646240234 77.201416015625,-24.59455680847168 72.56995391845703,-6.666785717010498z"></path><path stroke-linecap="butt" stroke-linejoin="miter" fill-opacity="0" stroke-miterlimit="4" stroke="rgb(207,53,2)" stroke-opacity="1" stroke-width="7.407" d=" M72.56995391845703,-6.666785717010498 C64.96324157714844,22.766803741455078 54.41444778442383,6.196484565734863 13.869993209838867,12.588327407836914 C-51.31797790527344,22.864355087280273 -53.6501350402832,54.0523567199707 -69.93861389160156,13.906521797180176 C-74.848388671875,1.8097071647644043 -77.35218811035156,-4.303637981414795 -52.2670783996582,-13.2592191696167 C-27.642940521240234,-22.064706802368164 -29.15211296081543,-49.236846923828125 -8.647848129272461,-53.67860794067383 C14.781150817871094,-58.75309753417969 18.78107452392578,-32.12820816040039 41.88984298706055,-29.92326545715332 C69.20890045166016,-27.316768646240234 77.201416015625,-24.59455680847168 72.56995391845703,-6.666785717010498z"></path></g></g><g style="display: block;" transform="matrix(0.7975049614906311,0.019698385149240494,-0.01234325673431158,0.8116275668144226,251.3511962890625,245.57431030273438)" opacity="1"><g opacity="1" transform="matrix(1,0,0,1,0,0)"><path fill="rgb(125,9,9)" fill-opacity="1" d=" M-29.797592163085938,62.356292724609375 C-11.250136375427246,57.26371765136719 3.2224338054656982,52.26266098022461 34.82069396972656,51.01136779785156 C80.02113342285156,49.21818542480469 89.29383087158203,53.2503547668457 108.77001953125,57.83359146118164 C109.87245178222656,61.404972076416016 111.34413146972656,58.14382553100586 108.31403350830078,57.49651336669922 C42.1884765625,41.13671875 -12.595434188842773,57.76044845581055 -29.142248153686523,62.99189758300781 C-42.90557861328125,67.40528106689453 -36.7034797668457,66.27317810058594 -29.797592163085938,62.356292724609375z"></path><path stroke-linecap="round" stroke-linejoin="round" fill-opacity="0" stroke="rgb(125,9,9)" stroke-opacity="1" stroke-width="8" d=" M-29.797592163085938,62.356292724609375 C-11.250136375427246,57.26371765136719 3.2224338054656982,52.26266098022461 34.82069396972656,51.01136779785156 C80.02113342285156,49.21818542480469 89.29383087158203,53.2503547668457 108.77001953125,57.83359146118164 C109.87245178222656,61.404972076416016 111.34413146972656,58.14382553100586 108.31403350830078,57.49651336669922 C42.1884765625,41.13671875 -12.595434188842773,57.76044845581055 -29.142248153686523,62.99189758300781 C-42.90557861328125,67.40528106689453 -36.7034797668457,66.27317810058594 -29.797592163085938,62.356292724609375z"></path></g></g><g style="display: block;" transform="matrix(1.0848239660263062,-0.3564201891422272,0.29507336020469666,0.8981045484542847,241.1318359375,263.5868835449219)" opacity="1"><g opacity="1" transform="matrix(1,0,0,1,0,0)"><path stroke-linecap="round" stroke-linejoin="round" fill-opacity="0" stroke-dasharray=" 110 50" stroke-dashoffset="-300" stroke="rgb(219,50,50)" stroke-opacity="1" stroke-width="30" d="M0 0"></path></g></g><g style="display: block;" transform="matrix(1.0848239660263062,-0.3564201891422272,0.29507336020469666,0.8981045484542847,262.82830810546875,256.4584655761719)" opacity="1"><g opacity="1" transform="matrix(1,0,0,1,0,0)"><path stroke-linecap="round" stroke-linejoin="round" fill-opacity="0" stroke-dasharray=" 90 45" stroke-dashoffset="-350" stroke="rgb(255,156,0)" stroke-opacity="1" stroke-width="30" d="M0 0"></path></g></g><g style="display: block;" transform="matrix(1.0848239660263062,-0.3564201891422272,0.29507336020469666,0.8981045484542847,284.5247802734375,249.330078125)" opacity="1"><g opacity="1" transform="matrix(1,0,0,1,0,0)"><path stroke-linecap="round" stroke-linejoin="round" fill-opacity="0" stroke-dasharray=" 200 40" stroke-dashoffset="-450" stroke="rgb(255,244,0)" stroke-opacity="1" stroke-width="30" d="M0 0"></path></g></g><g style="display: block;" transform="matrix(1.0848239660263062,-0.3564201891422272,0.29507336020469666,0.8981045484542847,306.2212829589844,242.20167541503906)" opacity="1"><g opacity="1" transform="matrix(1,0,0,1,0,0)"><path fill="rgb(255,0,0)" fill-opacity="1" d="M0 0"></path><path stroke-linecap="round" stroke-linejoin="round" fill-opacity="0" stroke-dasharray=" 120 40" stroke-dashoffset="-387" stroke="rgb(92,255,0)" stroke-opacity="1" stroke-width="30" d="M0 0"></path></g></g><g style="display: block;" transform="matrix(1.0848239660263062,-0.3564201891422272,0.29507336020469666,0.8981045484542847,327.9177551269531,235.07327270507812)" opacity="1"><g opacity="1" transform="matrix(1,0,0,1,0,0)"><path fill="rgb(255,0,0)" fill-opacity="1" d="M0 0"></path><path stroke-linecap="round" stroke-linejoin="round" fill-opacity="0" stroke-dasharray=" 120 40" stroke-dashoffset="-250" stroke="rgb(0,217,255)" stroke-opacity="1" stroke-width="30" d="M0 0"></path></g></g><g style="display: block;" transform="matrix(1.0848239660263062,-0.3564201891422272,0.29507336020469666,0.8981045484542847,349.6142272949219,227.9448699951172)" opacity="1"><g opacity="1" transform="matrix(1,0,0,1,0,0)"><path stroke-linecap="round" stroke-linejoin="round" fill-opacity="0" stroke-dasharray=" 100 50" stroke-dashoffset="-400" stroke="rgb(175,0,255)" stroke-opacity="1" stroke-width="30" d="M0 0"></path></g></g><g style="display: block;" transform="matrix(1.0848239660263062,-0.3564201891422272,0.29507336020469666,0.8981045484542847,241.1318359375,263.5868835449219)" opacity="1"><g opacity="1" transform="matrix(1,0,0,1,0,0)"><path stroke-linecap="round" stroke-linejoin="round" fill-opacity="0" stroke-dasharray=" 110 50" stroke-dashoffset="-300" stroke="rgb(176,0,255)" stroke-opacity="1" stroke-width="30" d="M0 0"></path></g></g><g style="display: block;" transform="matrix(1.0848239660263062,-0.3564201891422272,0.29507336020469666,0.8981045484542847,262.82830810546875,256.4584655761719)" opacity="1"><g opacity="1" transform="matrix(1,0,0,1,0,0)"><path stroke-linecap="round" stroke-linejoin="round" fill-opacity="0" stroke-dasharray=" 90 45" stroke-dashoffset="-350" stroke="rgb(93,255,0)" stroke-opacity="1" stroke-width="30" d="M0 0"></path></g></g><g style="display: block;" transform="matrix(1.0848239660263062,-0.3564201891422272,0.29507336020469666,0.8981045484542847,284.5247802734375,249.330078125)" opacity="1"><g opacity="1" transform="matrix(1,0,0,1,0,0)"><path stroke-linecap="round" stroke-linejoin="round" fill-opacity="0" stroke-dasharray=" 200 40" stroke-dashoffset="-450" stroke="rgb(219,51,51)" stroke-opacity="1" stroke-width="30" d="M0 0"></path></g></g><g style="display: block;" transform="matrix(1.0848239660263062,-0.3564201891422272,0.29507336020469666,0.8981045484542847,306.2212829589844,242.20167541503906)" opacity="1"><g opacity="1" transform="matrix(1,0,0,1,0,0)"><path fill="rgb(255,0,0)" fill-opacity="1" d="M0 0"></path><path stroke-linecap="round" stroke-linejoin="round" fill-opacity="0" stroke-dasharray=" 120 40" stroke-dashoffset="-387" stroke="rgb(255,156,0)" stroke-opacity="1" stroke-width="30" d="M0 0"></path></g></g><g style="display: block;" transform="matrix(1.0848239660263062,-0.3564201891422272,0.29507336020469666,0.8981045484542847,327.9177551269531,235.07327270507812)" opacity="1"><g opacity="1" transform="matrix(1,0,0,1,0,0)"><path fill="rgb(255,0,0)" fill-opacity="1" d="M0 0"></path><path stroke-linecap="round" stroke-linejoin="round" fill-opacity="0" stroke-dasharray=" 120 40" stroke-dashoffset="-250" stroke="rgb(255,244,0)" stroke-opacity="1" stroke-width="30" d="M0 0"></path></g></g><g style="display: block;" transform="matrix(1.0848239660263062,-0.3564201891422272,0.29507336020469666,0.8981045484542847,349.6142272949219,227.9448699951172)" opacity="1"><g opacity="1" transform="matrix(1,0,0,1,0,0)"><path stroke-linecap="round" stroke-linejoin="round" fill-opacity="0" stroke-dasharray=" 100 50" stroke-dashoffset="-400" stroke="rgb(0,217,255)" stroke-opacity="1" stroke-width="30" d="M0 0"></path></g></g><g style="display: block;" transform="matrix(1.0848239660263062,-0.3564201891422272,0.29507336020469666,0.8981045484542847,241.1318359375,263.5868835449219)" opacity="1"><g opacity="1" transform="matrix(1,0,0,1,0,0)"><path stroke-linecap="round" stroke-linejoin="round" fill-opacity="0" stroke="rgb(176,0,255)" stroke-opacity="1" stroke-width="15" d="M0 0"></path></g></g><g style="display: block;" transform="matrix(1.0848239660263062,-0.3564201891422272,0.29507336020469666,0.8981045484542847,262.82830810546875,256.4584655761719)" opacity="1"><g opacity="1" transform="matrix(1,0,0,1,0,0)"><path stroke-linecap="round" stroke-linejoin="round" fill-opacity="0" stroke="rgb(93,255,0)" stroke-opacity="1" stroke-width="15" d="M0 0"></path></g></g><g style="display: block;" transform="matrix(1.0848239660263062,-0.3564201891422272,0.29507336020469666,0.8981045484542847,327.9177551269531,235.07327270507812)" opacity="1"><g opacity="1" transform="matrix(1,0,0,1,0,0)"><path fill="rgb(255,0,0)" fill-opacity="1" d="M0 0"></path><path stroke-linecap="round" stroke-linejoin="round" fill-opacity="0" stroke="rgb(255,244,0)" stroke-opacity="1" stroke-width="15" d="M0 0"></path></g></g><g style="display: block;" transform="matrix(1.0848239660263062,-0.3564201891422272,0.29507336020469666,0.8981045484542847,284.5247802734375,249.330078125)" opacity="1"><g opacity="1" transform="matrix(1,0,0,1,0,0)"><path stroke-linecap="round" stroke-linejoin="round" fill-opacity="0" stroke="rgb(219,51,51)" stroke-opacity="1" stroke-width="15" d="M0 0"></path></g></g><g style="display: block;" transform="matrix(1.0848239660263062,-0.3564201891422272,0.29507336020469666,0.8981045484542847,306.2212829589844,242.20167541503906)" opacity="1"><g opacity="1" transform="matrix(1,0,0,1,0,0)"><path fill="rgb(255,0,0)" fill-opacity="1" d="M0 0"></path><path stroke-linecap="round" stroke-linejoin="round" fill-opacity="0" stroke="rgb(255,156,0)" stroke-opacity="1" stroke-width="15" d="M0 0"></path></g></g><g style="display: block;" transform="matrix(1.0848239660263062,-0.3564201891422272,0.29507336020469666,0.8981045484542847,349.6142272949219,227.9448699951172)" opacity="1"><g opacity="1" transform="matrix(1,0,0,1,0,0)"><path stroke-linecap="round" stroke-linejoin="round" fill-opacity="0" stroke="rgb(0,217,255)" stroke-opacity="1" stroke-width="15" d="M0 0"></path></g></g><g style="display: none;" transform="matrix(1.0848239660263062,-0.3564201891422272,0.2925476133823395,0.8904170393943787,383.97930908203125,228.0601806640625)" opacity="1"><g opacity="1" transform="matrix(1,0,0,1,0,0)"><path stroke-linecap="round" stroke-linejoin="round" fill-opacity="0" stroke-dasharray=" 0.1 200" stroke-dashoffset="50" stroke="rgb(175,0,255)" stroke-opacity="1" stroke-width="10" d=" M-5.9679999351501465,35.60100173950195 C-5.9679999351501465,35.60100173950195 52.44599914550781,282.97900390625 52.44599914550781,282.97900390625"></path></g></g><g style="display: none;" transform="matrix(1.0848239660263062,-0.3564201891422272,0.2938331365585327,0.8943297863006592,366.488037109375,228.00149536132812)" opacity="1"><g opacity="1" transform="matrix(1,0,0,1,0,0)"><path stroke-linecap="round" stroke-linejoin="round" fill-opacity="0" stroke-dasharray=" 0.1 200" stroke-dashoffset="150" stroke="rgb(175,0,255)" stroke-opacity="1" stroke-width="10" d=" M-5.9679999351501465,35.60100173950195 C-5.9679999351501465,35.60100173950195 52.44599914550781,282.97900390625 52.44599914550781,282.97900390625"></path></g></g><g style="display: none;" transform="matrix(1.0848239660263062,-0.3564201891422272,0.2949337065219879,0.8976795673370361,351.5139465332031,227.95123291015625)" opacity="1"><g opacity="1" transform="matrix(1,0,0,1,0,0)"><path stroke-linecap="round" stroke-linejoin="round" fill-opacity="0" stroke-dasharray=" 0.1 200" stroke-dashoffset="75" stroke="rgb(175,0,255)" stroke-opacity="1" stroke-width="10" d=" M-5.9679999351501465,35.60100173950195 C-5.9679999351501465,35.60100173950195 52.44599914550781,282.97900390625 52.44599914550781,282.97900390625"></path></g></g><g style="display: none;" transform="matrix(1.0848239660263062,-0.3564201891422272,0.29507336020469666,0.8981045484542847,349.6142272949219,227.9448699951172)" opacity="1"><g opacity="1" transform="matrix(1,0,0,1,0,0)"><path stroke-linecap="round" stroke-linejoin="round" fill-opacity="0" stroke-dasharray=" 0.1 200" stroke-dashoffset="50" stroke="rgb(175,0,255)" stroke-opacity="1" stroke-width="10" d=" M-5.9679999351501465,35.60100173950195 C-5.9679999351501465,35.60100173950195 52.44599914550781,282.97900390625 52.44599914550781,282.97900390625"></path></g></g><g style="display: none;"><g><path stroke-linecap="round" stroke-linejoin="round" fill-opacity="0"></path></g></g><g style="display: none;" transform="matrix(1.0848239660263062,-0.3564201891422272,0.2944759428501129,0.8962862491607666,357.7423095703125,227.97215270996094)" opacity="1"><g opacity="1" transform="matrix(1,0,0,1,0,0)"><path stroke-linecap="round" stroke-linejoin="round" fill-opacity="0" stroke-dasharray=" 0.1 200" stroke-dashoffset="75" stroke="rgb(219,51,51)" stroke-opacity="1" stroke-width="10" d=" M-154.78799438476562,3.9170000553131104 C-154.78799438476562,3.9170000553131104 -223.67999267578125,192.44200134277344 -223.67999267578125,192.44200134277344"></path></g></g><g style="display: none;" transform="matrix(1.0848239660263062,-0.3564201891422272,0.29507336020469666,0.8981045484542847,349.6142272949219,227.9448699951172)" opacity="1"><g opacity="1" transform="matrix(1,0,0,1,0,0)"><path stroke-linecap="round" stroke-linejoin="round" fill-opacity="0" stroke-dasharray=" 0.1 200" stroke-dashoffset="50" stroke="rgb(219,51,51)" stroke-opacity="1" stroke-width="10" d=" M-154.78799438476562,3.9170000553131104 C-154.78799438476562,3.9170000553131104 -223.67999267578125,192.44200134277344 -223.67999267578125,192.44200134277344"></path></g></g><g style="display: block;" transform="matrix(0.7975049614906311,0.019698385149240494,-0.01234325673431158,0.8116275668144226,251.3511962890625,245.57431030273438)" opacity="1"><path fill="rgb(255,93,31)" fill-opacity="1" d=" M-16.78849983215332,33.038753509521484 C-16.78849983215332,33.038753509521484 -45.982826232910156,47.13823318481445 -45.982826232910156,47.13823318481445 C-45.982826232910156,47.13823318481445 -56.016239166259766,73.55264282226562 -38.75030517578125,67.76339721679688 C-21.484373092651367,61.97415542602539 -10.155067443847656,49.987327575683594 31.474634170532227,49.36698913574219 C65.88716125488281,48.853790283203125 85.4567642211914,48.97604751586914 101.64480590820312,55.753971099853516 C112.88168334960938,60.45863342285156 112.60997009277344,56.433475494384766 112.59293365478516,56.257991790771484 C112.59293365478516,56.25392150878906 112.59193420410156,56.25188446044922 112.59193420410156,56.25188446044922 C112.59193420410156,56.25188446044922 111.84000396728516,39.42173767089844 111.84000396728516,39.42173767089844 C111.84000396728516,39.42173767089844 61.483001708984375,20.961650848388672 61.483001708984375,20.961650848388672 C61.483001708984375,20.961650848388672 31.141748428344727,15.07789421081543 31.141748428344727,15.07789421081543 C31.141748428344727,15.07789421081543 -16.78849983215332,33.038753509521484 -16.78849983215332,33.038753509521484z"></path><g opacity="1" transform="matrix(1,0,0,1,0,0)"></g></g><g style="display: block;" transform="matrix(0.7975049614906311,0.019698385149240494,-0.01234325673431158,0.8116275668144226,251.3511962890625,245.57431030273438)" opacity="1"><g opacity="1" transform="matrix(1,0,0,1,0,0)"><path stroke-linecap="round" stroke-linejoin="round" fill-opacity="0" stroke="rgb(125,9,9)" stroke-opacity="1" stroke-width="8" d=" M-29.125999450683594,62.861000061035156 C-42.85900115966797,67.4010009765625 -36.65299987792969,66.3270034790039 -29.74799919128418,62.42100143432617 C-11.15999984741211,57.36000061035156 3.2739999294281006,52.23400115966797 34.76499938964844,50.983001708984375 C80.00399780273438,49.185001373291016 89.177001953125,53.39400100708008 108.677001953125,57.89400100708008 C109.73999786376953,61.43899917602539 111.23100280761719,58.0890007019043 108.27400207519531,57.347999572753906 C41.88199996948242,40.71200180053711 -12.682000160217285,57.42499923706055 -29.125999450683594,62.861000061035156z"></path></g></g><g style="display: block;" transform="matrix(0.8278620839118958,0.12473652511835098,-0.1329047828912735,0.8422996997833252,239.46444702148438,266.4617004394531)" opacity="1"><g opacity="1" transform="matrix(1,0,0,1,0,0)"><path fill="rgb(255,255,255)" fill-opacity="1" d="M0 0"></path><path stroke-linecap="round" stroke-linejoin="round" fill-opacity="0" stroke="rgb(255,180,132)" stroke-opacity="1" stroke-width="8" d=" M-27.06100082397461,27.423999786376953 C-22.75200080871582,23.94099998474121 -16.33300018310547,21.069000244140625 -8.001999855041504,18.923999786376953 C11.503874778747559,13.898669242858887 29.482666015625,3.921647310256958 32.06207275390625,-15.056693077087402"></path></g></g><g style="display: block;" transform="matrix(0.9279898405075073,0.1606447547674179,-0.15923018753528595,0.8690123558044434,203.05714416503906,228.8830108642578)" opacity="1"><g opacity="1" transform="matrix(1,0,0,1,89.18399810791016,58.939998626708984)"><path stroke-linecap="round" stroke-linejoin="round" fill-opacity="0" stroke="rgb(207,53,2)" stroke-opacity="1" stroke-width="7.407" d=" M-72.80599975585938,6.438000202178955 C-74.68499755859375,-1.1460000276565552 -71.697998046875,-6.464000225067139 -52.38999938964844,-13.380999565124512 C-27.468326568603516,-22.348217010498047 -29.157440185546875,-49.35121536254883 -8.652721405029297,-53.79085922241211 C14.767721176147461,-58.861053466796875 18.616954803466797,-32.3167610168457 41.98196792602539,-30.111921310424805 C56.16299819946289,-28.773000717163086 65.125,-27.319000244140625 69.86399841308594,-23.78700065612793"></path></g></g><g style="display: block;" transform="matrix(0.7977644205093384,-0.002606783527880907,0.013298260979354382,0.811627984046936,256.55401611328125,281.9014892578125)" opacity="1"><g opacity="1" transform="matrix(1,0,0,1,0,0)"><path fill="rgb(254,212,41)" fill-opacity="1" d=" M-98.8740005493164,-11.968999862670898 C-69.00900268554688,-13.711999893188477 -29.32200050354004,8.552000045776367 -49.060001373291016,62.08300018310547"></path><path stroke-linecap="round" stroke-linejoin="round" fill-opacity="0" stroke="rgb(249,142,25)" stroke-opacity="1" stroke-width="10" d=" M-98.8740005493164,-11.968999862670898 C-69.00900268554688,-13.711999893188477 -29.32200050354004,8.552000045776367 -49.060001373291016,62.08300018310547"></path></g></g><g style="display: block;" transform="matrix(0.8002492189407349,-0.001222321530804038,0.011503100395202637,0.7823436856269836,149.54693603515625,302.0548095703125)" opacity="1"><g opacity="1" transform="matrix(1,0,0,1,26.16699981689453,35.709999084472656)"><path stroke-linecap="round" stroke-linejoin="round" fill-opacity="0" stroke="rgb(255,255,255)" stroke-opacity="1" stroke-width="10" d=" M6.86299991607666,-44.499000549316406 C6.938000202178955,-43.805999755859375 7.298999786376953,-43.27199935913086 7.9679999351501465,-42.74599838256836 C9.057000160217285,-41.88999938964844 11.387999534606934,-43.02299880981445 12.210000038146973,-46.50899887084961 C13.031999588012695,-49.994998931884766 9.444000244140625,-51.5629997253418 7.984000205993652,-48.393001556396484"></path></g></g><g style="display: block;" transform="matrix(-0.7977644205093384,0.002606783527880907,0.013298260979354382,0.811627984046936,308.6397399902344,282.2353515625)" opacity="1"><g opacity="1" transform="matrix(1,0,0,1,0,0)"><path fill="rgb(254,212,41)" fill-opacity="1" d=" M-98.96600341796875,-11.685999870300293 C-69.54000091552734,-12.819999694824219 -30.49799919128418,9.244999885559082 -49.87099838256836,61.869998931884766"></path><path stroke-linecap="round" stroke-linejoin="round" fill-opacity="0" stroke="rgb(249,142,25)" stroke-opacity="1" stroke-width="10" d=" M-98.96600341796875,-11.685999870300293 C-69.54000091552734,-12.819999694824219 -30.49799919128418,9.244999885559082 -49.87099838256836,61.869998931884766"></path></g></g><g style="display: block;" transform="matrix(0.8002492189407349,-0.001222321530804038,0.011503100395202637,0.7823436856269836,361.3892822265625,324.333740234375)" opacity="1"><g opacity="1" transform="matrix(1,0,0,1,26.16699981689453,35.709999084472656)"><path stroke-linecap="round" stroke-linejoin="round" fill-opacity="0" stroke="rgb(254,212,41)" stroke-opacity="1" stroke-width="10" d=" M6.86299991607666,-44.499000549316406 C6.938000202178955,-43.805999755859375 7.298999786376953,-43.27199935913086 7.9679999351501465,-42.74599838256836 C9.057000160217285,-41.88999938964844 11.387999534606934,-43.02299880981445 12.210000038146973,-46.50899887084961 C13.031999588012695,-49.994998931884766 9.444000244140625,-51.5629997253418 7.984000205993652,-48.393001556396484"></path></g></g><g style="display: none;"><g><path></path><path stroke-linecap="round" stroke-linejoin="round" fill-opacity="0"></path></g></g><g style="display: block;" transform="matrix(-0.9399604797363281,0.4683055281639099,-0.49842700362205505,-0.9244092702865601,371.3418273925781,386.3961486816406)" opacity="1"><g opacity="1" transform="matrix(1,0,0,1,74.9219970703125,76.87799835205078)"><path fill="rgb(254,212,41)" fill-opacity="1" d=" M55.68436813354492,40.71955871582031 C26.122940063476562,27.523962020874023 9.42698860168457,37.598201751708984 -3.864982843399048,45.78586959838867 C-20.60271453857422,56.33926010131836 -28.465682983398438,59.001060485839844 -33.59554672241211,52.63443374633789 C-39.15192794799805,45.84867477416992 -35.88237762451172,24.26895523071289 -18.027097702026367,3.7772607803344727 C7.665478229522705,-25.61007308959961 34.62201690673828,-37.9006462097168 76.57194519042969,-20.66716766357422"></path><path stroke-linecap="round" stroke-linejoin="round" fill-opacity="0" stroke="rgb(249,142,25)" stroke-opacity="1" stroke-width="10" d=" M55.68436813354492,40.71955871582031 C26.122940063476562,27.523962020874023 9.42698860168457,37.598201751708984 -3.864982843399048,45.78586959838867 C-20.60271453857422,56.33926010131836 -28.465682983398438,59.001060485839844 -33.59554672241211,52.63443374633789 C-39.15192794799805,45.84867477416992 -35.88237762451172,24.26895523071289 -18.027097702026367,3.7772607803344727 C7.665478229522705,-25.61007308959961 34.62201690673828,-37.9006462097168 76.57194519042969,-20.66716766357422"></path></g></g><g style="display: none;"><g><path></path><path stroke-linecap="round" stroke-linejoin="round" fill-opacity="0"></path></g></g><g style="display: block;" transform="matrix(0.9481577277183533,0.45914989709854126,0.48639991879463196,-0.9270532727241516,188.7629852294922,384.8436279296875)" opacity="1"><g opacity="1" transform="matrix(1,0,0,1,74.9219970703125,76.87799835205078)"><path fill="rgb(254,212,41)" fill-opacity="1" d=" M55.68436813354492,40.71955871582031 C26.122940063476562,27.523962020874023 9.42698860168457,37.598201751708984 -3.864982843399048,45.78586959838867 C-20.60271453857422,56.33926010131836 -28.465682983398438,59.001060485839844 -33.59554672241211,52.63443374633789 C-39.15192794799805,45.84867477416992 -35.88237762451172,24.26895523071289 -18.027097702026367,3.7772607803344727 C7.665478229522705,-25.61007308959961 34.62201690673828,-37.9006462097168 76.57194519042969,-20.66716766357422"></path><path stroke-linecap="round" stroke-linejoin="round" fill-opacity="0" stroke="rgb(249,142,25)" stroke-opacity="1" stroke-width="10" d=" M55.68436813354492,40.71955871582031 C26.122940063476562,27.523962020874023 9.42698860168457,37.598201751708984 -3.864982843399048,45.78586959838867 C-20.60271453857422,56.33926010131836 -28.465682983398438,59.001060485839844 -33.59554672241211,52.63443374633789 C-39.15192794799805,45.84867477416992 -35.88237762451172,24.26895523071289 -18.027097702026367,3.7772607803344727 C7.665478229522705,-25.61007308959961 34.62201690673828,-37.9006462097168 76.57194519042969,-20.66716766357422"></path></g></g><g style="display: block;" transform="matrix(-0.8752251863479614,0.6021156907081604,-0.6079217791557312,-0.8412508964538574,345.38232421875,358.5724182128906)" opacity="1"><g opacity="1" transform="matrix(1,0,0,1,51.28499984741211,53.14099884033203)"><path stroke-linecap="round" stroke-linejoin="round" fill-opacity="0" stroke="rgb(254,212,41)" stroke-opacity="1" stroke-width="10" d=" M-44.07400131225586,2.8269999027252197 C-42.73699951171875,-14.538000106811523 -46.92300033569336,-38.26900100708008 -62.90700149536133,-53.78900146484375"></path></g></g><g style="display: block;" transform="matrix(-0.9452911615371704,0.4650229513645172,-0.4921415448188782,-0.9240180253982544,342.47027587890625,371.17041015625)" opacity="1"><g opacity="1" transform="matrix(1,0,0,1,51.28499984741211,53.14099884033203)"><path stroke-linecap="round" stroke-linejoin="round" fill-opacity="0" stroke="rgb(255,255,255)" stroke-opacity="1" stroke-width="10" d=" M-4.361000061035156,30.27199935913086 C2.1589999198913574,24.364999771118164 9.467000007629395,19.9689998626709 15.178000450134277,18.006999969482422 C21.783000946044922,15.737000465393066 30.172000885009766,11.902999877929688 48.53099822998047,17.534000396728516"></path></g></g><g style="display: block;" transform="matrix(1,0,0,1,256,256)" opacity="1"></g><g style="display: block;" transform="matrix(-0.8627780675888062,0.6059246063232422,-0.6211155652999878,-0.8414321541786194,345.445068359375,358.3866882324219)" opacity="1"><g opacity="1" transform="matrix(1,0,0,1,51.28499984741211,53.14099884033203)"><path stroke-linecap="round" stroke-linejoin="round" fill-opacity="0" stroke="rgb(251,237,36)" stroke-opacity="1" stroke-width="10" d=" M-44.07400131225586,2.8269999027252197 C-42.73699951171875,-14.538000106811523 -46.92300033569336,-38.26900100708008 -62.90700149536133,-53.78900146484375"></path></g></g></g><g clip-path="url(#__lottie_element_204)" style="display: block;" transform="matrix(1,0,0,1,0,0)" opacity="1"><g style="display: block;" transform="matrix(1.0709999799728394,0,0,1.028999924659729,64.53450775146484,259.5826110839844)" opacity="1"><g opacity="1" transform="matrix(1,0,0,1,191.86199951171875,135.32400512695312)"><path fill="rgb(253,173,239)" fill-opacity="1" d=" M-113.28500366210938,87.5989990234375 C-145.5449981689453,72.14099884033203 -159.5570068359375,46.417999267578125 -159.64100646972656,18.62299919128418 C-159.97999572753906,-92.84700012207031 -75.49099731445312,-112.25599670410156 -15.105999946594238,-109.7020034790039 C-12.541999816894531,-109.59400177001953 5.158999919891357,-107.33499908447266 8.60099983215332,-107.70899963378906 C18.7549991607666,-108.81300354003906 32.6609992980957,-110.3239974975586 47.582000732421875,-110.3239974975586 C80.51000213623047,-110.3239974975586 105.9229965209961,-103.10299682617188 125.27100372314453,-88.24800109863281 C151.44000244140625,-68.15699768066406 164.70799255371094,-34.69599914550781 164.70799255371094,11.206000328063965 C164.70799255371094,40.65399932861328 146.88099670410156,66.79399871826172 114.51200103759766,84.81199645996094 C84.95800018310547,101.26300048828125 -82.25900268554688,102.46499633789062 -113.28500366210938,87.5989990234375z"></path><path stroke-linecap="round" stroke-linejoin="miter" fill-opacity="0" stroke-miterlimit="10" stroke="rgb(235,70,206)" stroke-opacity="1" stroke-width="10" d=" M-113.28500366210938,87.5989990234375 C-145.5449981689453,72.14099884033203 -159.5570068359375,46.417999267578125 -159.64100646972656,18.62299919128418 C-159.97999572753906,-92.84700012207031 -75.49099731445312,-112.25599670410156 -15.105999946594238,-109.7020034790039 C-12.541999816894531,-109.59400177001953 5.158999919891357,-107.33499908447266 8.60099983215332,-107.70899963378906 C18.7549991607666,-108.81300354003906 32.6609992980957,-110.3239974975586 47.582000732421875,-110.3239974975586 C80.51000213623047,-110.3239974975586 105.9229965209961,-103.10299682617188 125.27100372314453,-88.24800109863281 C151.44000244140625,-68.15699768066406 164.70799255371094,-34.69599914550781 164.70799255371094,11.206000328063965 C164.70799255371094,40.65399932861328 146.88099670410156,66.79399871826172 114.51200103759766,84.81199645996094 C84.95800018310547,101.26300048828125 -82.25900268554688,102.46499633789062 -113.28500366210938,87.5989990234375z"></path></g></g><g style="display: block;" transform="matrix(1.0619179010391235,0,0,1.038055181503296,376.3949890136719,379.4891357421875)" opacity="1"><g opacity="1" transform="matrix(1,0,0,1,35.05500030517578,45.316001892089844)"><path stroke-linecap="round" stroke-linejoin="round" fill-opacity="0" stroke="rgb(253,173,239)" stroke-opacity="1" stroke-width="10" d=" M6.635000228881836,-9.090999603271484 C5.617000102996826,2.11299991607666 0.9459999799728394,12.02400016784668 -6.513000011444092,20.360000610351562"></path></g></g><g style="display: block;" transform="matrix(0.7036246657371521,0,0,0.7036246657371521,63.35350036621094,103.84649658203125)" opacity="1"><g opacity="1" transform="matrix(1,0,0,1,19.71299934387207,29.714000701904297)"><path fill="rgb(255,244,0)" fill-opacity="1" d=" M26.33300018310547,2.8459999561309814 C27.98900032043457,3.003999948501587 29.461999893188477,1.6959999799728394 29.464000701904297,0.032999999821186066 C29.464000701904297,0.02199999988079071 29.464000701904297,0.010999999940395355 29.464000701904297,0 C29.464000701904297,-0.010999999940395355 29.464000701904297,-0.02199999988079071 29.464000701904297,-0.032999999821186066 C29.461999893188477,-1.6970000267028809 27.988000869750977,-3.003999948501587 26.332000732421875,-2.8459999561309814 C10.055999755859375,-1.2940000295639038 1.284000039100647,-9.975000381469727 2.8459999561309814,-26.332000732421875 C3.003999948501587,-27.988000869750977 1.6970000267028809,-29.461000442504883 0.03400000184774399,-29.464000701904297 C0.023000000044703484,-29.464000701904297 0.012000000104308128,-29.464000701904297 0.0010000000474974513,-29.464000701904297 C-0.009999999776482582,-29.464000701904297 -0.023000000044703484,-29.464000701904297 -0.03400000184774399,-29.464000701904297 C-1.6970000267028809,-29.461000442504883 -3.003000020980835,-27.98699951171875 -2.8450000286102295,-26.33099937438965 C-1.2940000295639038,-10.055000305175781 -9.975000381469727,-1.284000039100647 -26.332000732421875,-2.8459999561309814 C-27.98699951171875,-3.003999948501587 -29.461999893188477,-1.6959999799728394 -29.464000701904297,-0.032999999821186066 C-29.464000701904297,-0.02199999988079071 -29.464000701904297,-0.010999999940395355 -29.464000701904297,0 C-29.464000701904297,0.010999999940395355 -29.464000701904297,0.02199999988079071 -29.464000701904297,0.032999999821186066 C-29.461999893188477,1.6970000267028809 -27.98699951171875,3.003999948501587 -26.33099937438965,2.8459999561309814 C-10.050999641418457,1.2940000295639038 -1.284000039100647,9.979999542236328 -2.8450000286102295,26.33300018310547 C-3.003000020980835,27.988000869750977 -1.6959999799728394,29.461000442504883 -0.032999999821186066,29.464000701904297 C-0.02199999988079071,29.464000701904297 -0.009999999776482582,29.464000701904297 0.0010000000474974513,29.464000701904297 C0.012000000104308128,29.464000701904297 0.023000000044703484,29.464000701904297 0.03400000184774399,29.464000701904297 C1.6970000267028809,29.461000442504883 3.003000020980835,27.988000869750977 2.8459999561309814,26.332000732421875 C1.2940000295639038,10.052000045776367 9.979999542236328,1.284999966621399 26.33300018310547,2.8459999561309814z"></path><g opacity="1" transform="matrix(1,0,0,1,0,0)"></g></g></g><g style="display: block;" transform="matrix(0.7036246657371521,0,0,0.7036246657371521,403.3534851074219,23.846498489379883)" opacity="1"><g opacity="1" transform="matrix(1,0,0,1,19.71299934387207,29.714000701904297)"><path fill="rgb(255,255,255)" fill-opacity="1" d=" M26.33300018310547,2.8459999561309814 C27.98900032043457,3.003999948501587 29.461999893188477,1.6959999799728394 29.464000701904297,0.032999999821186066 C29.464000701904297,0.02199999988079071 29.464000701904297,0.010999999940395355 29.464000701904297,0 C29.464000701904297,-0.010999999940395355 29.464000701904297,-0.02199999988079071 29.464000701904297,-0.032999999821186066 C29.461999893188477,-1.6970000267028809 27.988000869750977,-3.003999948501587 26.332000732421875,-2.8459999561309814 C10.055999755859375,-1.2940000295639038 1.284000039100647,-9.975000381469727 2.8459999561309814,-26.332000732421875 C3.003999948501587,-27.988000869750977 1.6970000267028809,-29.461000442504883 0.03400000184774399,-29.464000701904297 C0.023000000044703484,-29.464000701904297 0.012000000104308128,-29.464000701904297 0.0010000000474974513,-29.464000701904297 C-0.009999999776482582,-29.464000701904297 -0.023000000044703484,-29.464000701904297 -0.03400000184774399,-29.464000701904297 C-1.6970000267028809,-29.461000442504883 -3.003000020980835,-27.98699951171875 -2.8450000286102295,-26.33099937438965 C-1.2940000295639038,-10.055000305175781 -9.975000381469727,-1.284000039100647 -26.332000732421875,-2.8459999561309814 C-27.98699951171875,-3.003999948501587 -29.461999893188477,-1.6959999799728394 -29.464000701904297,-0.032999999821186066 C-29.464000701904297,-0.02199999988079071 -29.464000701904297,-0.010999999940395355 -29.464000701904297,0 C-29.464000701904297,0.010999999940395355 -29.464000701904297,0.02199999988079071 -29.464000701904297,0.032999999821186066 C-29.461999893188477,1.6970000267028809 -27.98699951171875,3.003999948501587 -26.33099937438965,2.8459999561309814 C-10.050999641418457,1.2940000295639038 -1.284000039100647,9.979999542236328 -2.8450000286102295,26.33300018310547 C-3.003000020980835,27.988000869750977 -1.6959999799728394,29.461000442504883 -0.032999999821186066,29.464000701904297 C-0.02199999988079071,29.464000701904297 -0.009999999776482582,29.464000701904297 0.0010000000474974513,29.464000701904297 C0.012000000104308128,29.464000701904297 0.023000000044703484,29.464000701904297 0.03400000184774399,29.464000701904297 C1.6970000267028809,29.461000442504883 3.003000020980835,27.988000869750977 2.8459999561309814,26.332000732421875 C1.2940000295639038,10.052000045776367 9.979999542236328,1.284999966621399 26.33300018310547,2.8459999561309814z"></path><g opacity="1" transform="matrix(1,0,0,1,0,0)"></g></g></g><g style="display: block;" transform="matrix(0.7036246657371521,0,0,0.7036246657371521,463.3534851074219,163.84649658203125)" opacity="1"><g opacity="1" transform="matrix(1,0,0,1,19.71299934387207,29.714000701904297)"><path fill="rgb(255,244,0)" fill-opacity="1" d=" M26.33300018310547,2.8459999561309814 C27.98900032043457,3.003999948501587 29.461999893188477,1.6959999799728394 29.464000701904297,0.032999999821186066 C29.464000701904297,0.02199999988079071 29.464000701904297,0.010999999940395355 29.464000701904297,0 C29.464000701904297,-0.010999999940395355 29.464000701904297,-0.02199999988079071 29.464000701904297,-0.032999999821186066 C29.461999893188477,-1.6970000267028809 27.988000869750977,-3.003999948501587 26.332000732421875,-2.8459999561309814 C10.055999755859375,-1.2940000295639038 1.284000039100647,-9.975000381469727 2.8459999561309814,-26.332000732421875 C3.003999948501587,-27.988000869750977 1.6970000267028809,-29.461000442504883 0.03400000184774399,-29.464000701904297 C0.023000000044703484,-29.464000701904297 0.012000000104308128,-29.464000701904297 0.0010000000474974513,-29.464000701904297 C-0.009999999776482582,-29.464000701904297 -0.023000000044703484,-29.464000701904297 -0.03400000184774399,-29.464000701904297 C-1.6970000267028809,-29.461000442504883 -3.003000020980835,-27.98699951171875 -2.8450000286102295,-26.33099937438965 C-1.2940000295639038,-10.055000305175781 -9.975000381469727,-1.284000039100647 -26.332000732421875,-2.8459999561309814 C-27.98699951171875,-3.003999948501587 -29.461999893188477,-1.6959999799728394 -29.464000701904297,-0.032999999821186066 C-29.464000701904297,-0.02199999988079071 -29.464000701904297,-0.010999999940395355 -29.464000701904297,0 C-29.464000701904297,0.010999999940395355 -29.464000701904297,0.02199999988079071 -29.464000701904297,0.032999999821186066 C-29.461999893188477,1.6970000267028809 -27.98699951171875,3.003999948501587 -26.33099937438965,2.8459999561309814 C-10.050999641418457,1.2940000295639038 -1.284000039100647,9.979999542236328 -2.8450000286102295,26.33300018310547 C-3.003000020980835,27.988000869750977 -1.6959999799728394,29.461000442504883 -0.032999999821186066,29.464000701904297 C-0.02199999988079071,29.464000701904297 -0.009999999776482582,29.464000701904297 0.0010000000474974513,29.464000701904297 C0.012000000104308128,29.464000701904297 0.023000000044703484,29.464000701904297 0.03400000184774399,29.464000701904297 C1.6970000267028809,29.461000442504883 3.003000020980835,27.988000869750977 2.8459999561309814,26.332000732421875 C1.2940000295639038,10.052000045776367 9.979999542236328,1.284999966621399 26.33300018310547,2.8459999561309814z"></path><g opacity="1" transform="matrix(1,0,0,1,0,0)"></g></g></g><g style="display: none;"><g><path></path><path stroke-linecap="round" stroke-linejoin="round" fill-opacity="0"></path></g></g><g style="display: none;"><g><path></path><path stroke-linecap="round" stroke-linejoin="round" fill-opacity="0"></path></g></g><g style="display: block;" transform="matrix(1.1150180101394653,0,0,1.0899578332901,68.29549407958984,38.883155822753906)" opacity="1"><g opacity="1" transform="matrix(1,0,0,1,182.52499389648438,148.4149932861328)"><path fill="rgb(253,173,239)" fill-opacity="1" d=" M-106.72100067138672,134.6999969482422 C-135.10699462890625,112.68800354003906 -157.197998046875,69.05000305175781 -157.197998046875,30.881999969482422 C-157.197998046875,-46.729000091552734 -86.81800079345703,-123.13099670410156 0,-123.13099670410156 C86.81800079345703,-123.13099670410156 157.197998046875,-46.729000091552734 157.197998046875,30.881999969482422 C157.197998046875,63.625 140.34300231933594,96.31300354003906 119.33999633789062,117.42900085449219"></path><path stroke-linecap="round" stroke-linejoin="miter" fill-opacity="0" stroke-miterlimit="10" stroke="rgb(235,70,206)" stroke-opacity="1" stroke-width="10" d=" M-106.72100067138672,134.6999969482422 C-135.10699462890625,112.68800354003906 -157.197998046875,69.05000305175781 -157.197998046875,30.881999969482422 C-157.197998046875,-46.729000091552734 -86.81800079345703,-123.13099670410156 0,-123.13099670410156 C86.81800079345703,-123.13099670410156 157.197998046875,-46.729000091552734 157.197998046875,30.881999969482422 C157.197998046875,63.625 140.34300231933594,96.31300354003906 119.33999633789062,117.42900085449219"></path></g></g><g style="display: block;" transform="matrix(1.1150180101394653,0,0,1.0899578332901,88.76276397705078,200.20021057128906)" opacity="1"><g opacity="1" transform="matrix(1,0,0,1,26.16699981689453,35.709999084472656)"><path stroke-linecap="round" stroke-linejoin="round" fill-opacity="0" stroke="rgb(255,255,255)" stroke-opacity="1" stroke-width="10" d=" M3.9019999504089355,-30.527999877929688 C4.644000053405762,-35.40299987792969 5.783999919891357,-40.308998107910156 7.3429999351501465,-45.22800064086914"></path></g></g><g style="display: block;" transform="matrix(1.1150180101394653,0,0,1.0899578332901,101.35800170898438,63.093299865722656)" opacity="1"><g opacity="1" transform="matrix(1,0,0,1,88.77300262451172,67.36000061035156)"><path stroke-linecap="round" stroke-linejoin="round" fill-opacity="0" stroke="rgb(255,255,255)" stroke-opacity="1" stroke-width="10" d=" M-56.51900100708008,27.895000457763672 C-44.82500076293945,7.754000186920166 -27.586999893188477,-9.902000427246094 -6.736999988555908,-22.47599983215332 C5.039999961853027,-29.577999114990234 17.969999313354492,-35.058998107910156 31.704999923706055,-38.45100021362305"></path></g></g><g style="display: block;" transform="matrix(1.1150180101394653,0,0,1.0899578332901,347.16595458984375,102.92908477783203)" opacity="1"><g opacity="1" transform="matrix(1,0,0,1,47.042999267578125,105.77100372314453)"><path stroke-linecap="round" stroke-linejoin="round" fill-opacity="0" stroke="rgb(250,201,242)" stroke-opacity="1" stroke-width="10" d=" M-13.281000137329102,-72.1259994506836 C5.683000087738037,-51.750999450683594 18.240999221801758,-26.40999984741211 21.31100082397461,-0.24899999797344208"></path></g></g><g style="display: block;" transform="matrix(1.5193126201629639,-0.24025921523571014,0.20846733450889587,1.3188601732254028,278.8753662109375,255.95309448242188)" opacity="1"><g opacity="1" transform="matrix(0.9628898501396179,0.26989468932151794,-0.26989468932151794,0.9628898501396179,-66.35099792480469,-41.516998291015625)"><path fill="rgb(0,0,0)" fill-opacity="1" d=" M0,-31.48349952697754 C13.604059219360352,-31.48349952697754 24.649499893188477,-17.375743865966797 24.649499893188477,0 C24.649499893188477,17.375743865966797 13.604059219360352,31.48349952697754 0,31.48349952697754 C-13.604059219360352,31.48349952697754 -24.649499893188477,17.375743865966797 -24.649499893188477,0 C-24.649499893188477,-17.375743865966797 -13.604059219360352,-31.48349952697754 0,-31.48349952697754z"></path><path stroke-linecap="butt" stroke-linejoin="miter" fill-opacity="0" stroke-miterlimit="4" stroke="rgb(41,171,226)" stroke-opacity="1" stroke-width="20" d="M0 0"></path></g></g><g style="display: block;" transform="matrix(0.7010484933853149,-0.10436033457517624,0.08874773979187012,0.6088399291038513,210.7473907470703,224.1666259765625)" opacity="1"><path stroke-linecap="butt" stroke-linejoin="miter" fill-opacity="0" stroke-miterlimit="4" stroke="rgb(255,255,255)" stroke-opacity="1" stroke-width="4" d=" M-57.85,-71.83 C-44.75,-68.16 -37.93,-51.6 -42.62,-34.86 C-47.31,-18.13 -61.75,-7.53 -74.85,-11.2 C-87.95,-14.87 -94.78,-31.44 -90.09,-48.17 C-85.4,-64.9 -70.95,-75.5 -57.85,-71.83z"></path><g opacity="1" transform="matrix(0.9628898501396179,0.26989468932151794,-0.26989468932151794,0.9628898501396179,-66.35099792480469,-41.516998291015625)"><path fill="rgb(255,255,255)" fill-opacity="1" d=" M0,-31.48349952697754 C13.604059219360352,-31.48349952697754 24.649499893188477,-17.375743865966797 24.649499893188477,0 C24.649499893188477,17.375743865966797 13.604059219360352,31.48349952697754 0,31.48349952697754 C-13.604059219360352,31.48349952697754 -24.649499893188477,17.375743865966797 -24.649499893188477,0 C-24.649499893188477,-17.375743865966797 -13.604059219360352,-31.48349952697754 0,-31.48349952697754z"></path><path stroke-linecap="butt" stroke-linejoin="miter" fill-opacity="0" stroke-miterlimit="4" stroke="rgb(41,171,226)" stroke-opacity="1" stroke-width="20" d="M0 0"></path></g></g><g style="display: block;" transform="matrix(0.4016587436199188,-0.059792209416627884,0.050847128033638,0.3488287627696991,205.45082092285156,247.34567260742188)" opacity="1"><path stroke-linecap="butt" stroke-linejoin="miter" fill-opacity="0" stroke-miterlimit="4" stroke="rgb(235,70,207)" stroke-opacity="1" stroke-width="2" d=" M-57.85,-71.83 C-44.75,-68.16 -37.93,-51.6 -42.62,-34.86 C-47.31,-18.13 -61.75,-7.53 -74.85,-11.2 C-87.95,-14.87 -94.78,-31.44 -90.09,-48.17 C-85.4,-64.9 -70.95,-75.5 -57.85,-71.83z"></path><g opacity="1" transform="matrix(0.9628898501396179,0.26989468932151794,-0.26989468932151794,0.9628898501396179,-66.35099792480469,-41.516998291015625)"><path fill="rgb(235,70,207)" fill-opacity="1" d=" M0,-31.48349952697754 C13.604059219360352,-31.48349952697754 24.649499893188477,-17.375743865966797 24.649499893188477,0 C24.649499893188477,17.375743865966797 13.604059219360352,31.48349952697754 0,31.48349952697754 C-13.604059219360352,31.48349952697754 -24.649499893188477,17.375743865966797 -24.649499893188477,0 C-24.649499893188477,-17.375743865966797 -13.604059219360352,-31.48349952697754 0,-31.48349952697754z"></path><path stroke-linecap="butt" stroke-linejoin="miter" fill-opacity="0" stroke-miterlimit="4" stroke="rgb(41,171,226)" stroke-opacity="1" stroke-width="20" d="M0 0"></path></g></g><g style="display: block;" transform="matrix(0.727601170539856,-0.10831545293331146,0.09830119460821152,0.6309825778007507,197.49964904785156,307.70574951171875)" opacity="1"><path stroke-linecap="butt" stroke-linejoin="miter" fill-opacity="0" stroke-miterlimit="4" stroke="rgb(235,70,207)" stroke-opacity="1" stroke-width="2" d=" M-57.85,-71.83 C-44.75,-68.16 -37.93,-51.6 -42.62,-34.86 C-47.31,-18.13 -61.75,-7.53 -74.85,-11.2 C-87.95,-14.87 -94.78,-31.44 -90.09,-48.17 C-85.4,-64.9 -70.95,-75.5 -57.85,-71.83z"></path><g opacity="1" transform="matrix(0.9628898501396179,0.26989468932151794,-0.26989468932151794,0.9628898501396179,-66.35099792480469,-41.516998291015625)"><path fill="rgb(235,70,207)" fill-opacity="1" d=" M0,-31.48349952697754 C13.604059219360352,-31.48349952697754 24.649499893188477,-17.375743865966797 24.649499893188477,0 C24.649499893188477,17.375743865966797 13.604059219360352,31.48349952697754 0,31.48349952697754 C-13.604059219360352,31.48349952697754 -24.649499893188477,17.375743865966797 -24.649499893188477,0 C-24.649499893188477,-17.375743865966797 -13.604059219360352,-31.48349952697754 0,-31.48349952697754z"></path><path stroke-linecap="butt" stroke-linejoin="miter" fill-opacity="0" stroke-miterlimit="4" stroke="rgb(41,171,226)" stroke-opacity="1" stroke-width="20" d="M0 0"></path></g></g><g style="display: block;" transform="matrix(-1.543876051902771,-0.22564654052257538,-0.22048740088939667,1.3052217960357666,269.3550720214844,255.40699768066406)" opacity="1"><g opacity="1" transform="matrix(0.9628898501396179,0.26989468932151794,-0.26989468932151794,0.9628898501396179,-66.35099792480469,-41.516998291015625)"><path fill="rgb(0,0,0)" fill-opacity="1" d=" M0,-31.48349952697754 C13.604059219360352,-31.48349952697754 24.649499893188477,-17.375743865966797 24.649499893188477,0 C24.649499893188477,17.375743865966797 13.604059219360352,31.48349952697754 0,31.48349952697754 C-13.604059219360352,31.48349952697754 -24.649499893188477,17.375743865966797 -24.649499893188477,0 C-24.649499893188477,-17.375743865966797 -13.604059219360352,-31.48349952697754 0,-31.48349952697754z"></path><path stroke-linecap="butt" stroke-linejoin="miter" fill-opacity="0" stroke-miterlimit="4" stroke="rgb(41,171,226)" stroke-opacity="1" stroke-width="20" d="M0 0"></path></g></g><g style="display: none;"><g><path></path><path stroke-linecap="round" stroke-linejoin="round" fill-opacity="0"></path></g></g><g style="display: none;"><g><path></path><path stroke-linecap="round" stroke-linejoin="round" fill-opacity="0"></path></g></g><g style="display: block;" transform="matrix(0.7016218900680542,-0.10446161031723022,0.1438433676958084,0.6001254916191101,425.8386535644531,223.79945373535156)" opacity="1"><path stroke-linecap="butt" stroke-linejoin="miter" fill-opacity="0" stroke-miterlimit="4" stroke="rgb(255,255,255)" stroke-opacity="1" stroke-width="4" d=" M-57.85,-71.83 C-44.75,-68.16 -37.93,-51.6 -42.62,-34.86 C-47.31,-18.13 -61.75,-7.53 -74.85,-11.2 C-87.95,-14.87 -94.78,-31.44 -90.09,-48.17 C-85.4,-64.9 -70.95,-75.5 -57.85,-71.83z"></path><g opacity="1" transform="matrix(0.9628898501396179,0.26989468932151794,-0.26989468932151794,0.9628898501396179,-66.35099792480469,-41.516998291015625)"><path fill="rgb(255,255,255)" fill-opacity="1" d=" M0,-31.48349952697754 C13.604059219360352,-31.48349952697754 24.649499893188477,-17.375743865966797 24.649499893188477,0 C24.649499893188477,17.375743865966797 13.604059219360352,31.48349952697754 0,31.48349952697754 C-13.604059219360352,31.48349952697754 -24.649499893188477,17.375743865966797 -24.649499893188477,0 C-24.649499893188477,-17.375743865966797 -13.604059219360352,-31.48349952697754 0,-31.48349952697754z"></path><path stroke-linecap="butt" stroke-linejoin="miter" fill-opacity="0" stroke-miterlimit="4" stroke="rgb(41,171,226)" stroke-opacity="1" stroke-width="20" d="M0 0"></path></g></g><g style="display: block;" transform="matrix(0.401987224817276,-0.05985021963715553,0.08241361379623413,0.34383586049079895,422.5182800292969,246.66603088378906)" opacity="1"><path stroke-linecap="butt" stroke-linejoin="miter" fill-opacity="0" stroke-miterlimit="4" stroke="rgb(235,70,207)" stroke-opacity="1" stroke-width="2" d=" M-57.85,-71.83 C-44.75,-68.16 -37.93,-51.6 -42.62,-34.86 C-47.31,-18.13 -61.75,-7.53 -74.85,-11.2 C-87.95,-14.87 -94.78,-31.44 -90.09,-48.17 C-85.4,-64.9 -70.95,-75.5 -57.85,-71.83z"></path><g opacity="1" transform="matrix(0.9628898501396179,0.26989468932151794,-0.26989468932151794,0.9628898501396179,-66.35099792480469,-41.516998291015625)"><path fill="rgb(235,70,207)" fill-opacity="1" d=" M0,-31.48349952697754 C13.604059219360352,-31.48349952697754 24.649499893188477,-17.375743865966797 24.649499893188477,0 C24.649499893188477,17.375743865966797 13.604059219360352,31.48349952697754 0,31.48349952697754 C-13.604059219360352,31.48349952697754 -24.649499893188477,17.375743865966797 -24.649499893188477,0 C-24.649499893188477,-17.375743865966797 -13.604059219360352,-31.48349952697754 0,-31.48349952697754z"></path><path stroke-linecap="butt" stroke-linejoin="miter" fill-opacity="0" stroke-miterlimit="4" stroke="rgb(41,171,226)" stroke-opacity="1" stroke-width="20" d="M0 0"></path></g></g><g style="display: block;" transform="matrix(0.7275991439819336,-0.10832785815000534,0.09831245243549347,0.630980908870697,465.8279724121094,308.7958984375)" opacity="1"><path stroke-linecap="butt" stroke-linejoin="miter" fill-opacity="0" stroke-miterlimit="4" stroke="rgb(235,70,207)" stroke-opacity="1" stroke-width="2" d=" M-57.85,-62.75 C-44.75,-59.08 -38.06,-42.66 -42.76,-25.92 C-47.45,-9.18 -61.74,1.55 -74.85,-2.12 C-87.96,-5.8 -94.78,-22.35 -90.09,-39.09 C-85.39,-55.83 -70.96,-66.43 -57.85,-62.75z"></path><g opacity="1" transform="matrix(0.9628898501396179,0.26989468932151794,-0.26989468932151794,0.9628898501396179,-66.35099792480469,-32.43899917602539)"><path fill="rgb(235,70,207)" fill-opacity="1" d=" M0,-31.482999801635742 C13.61299991607666,-31.482999801635742 24.479000091552734,-17.479000091552734 24.479000091552734,-0.09099999815225601 C24.479000091552734,17.297000885009766 13.61299991607666,31.482999801635742 0,31.482999801635742 C-13.61299991607666,31.482999801635742 -24.64900016784668,17.38800048828125 -24.64900016784668,0 C-24.64900016784668,-17.38800048828125 -13.61299991607666,-31.482999801635742 0,-31.482999801635742z"></path><path stroke-linecap="butt" stroke-linejoin="miter" fill-opacity="0" stroke-miterlimit="4" stroke="rgb(41,171,226)" stroke-opacity="1" stroke-width="20" d="M0 0"></path></g></g><g style="display: block;" transform="matrix(0.9287364482879639,0.13380908966064453,-0.13150328397750854,0.8721659779548645,201.95858764648438,231.08363342285156)" opacity="1"><g opacity="1" transform="matrix(1,0,0,1,89.18399810791016,58.939998626708984)"><path fill="rgb(255,93,31)" fill-opacity="1" d=" M72.42500305175781,-6.677999973297119 C64.79499816894531,22.750999450683594 54.3489990234375,5.949999809265137 13.803000450134277,12.333000183105469 C-51.42499923706055,22.601999282836914 -53.5260009765625,54.08700180053711 -69.84600067138672,13.845999717712402 C-74.75299835205078,1.7480000257492065 -77.25900268554688,-4.257999897003174 -52.19499969482422,-13.187999725341797 C-27.7450008392334,-21.89900016784668 -29.14900016784668,-49.16999816894531 -8.645000457763672,-53.612998962402344 C14.788999557495117,-58.689998626708984 18.87700080871582,-32.018001556396484 41.83599853515625,-29.812999725341797 C68.98699951171875,-27.20599937438965 77.06900024414062,-24.590999603271484 72.42500305175781,-6.677999973297119z"></path><path stroke-linecap="butt" stroke-linejoin="miter" fill-opacity="0" stroke-miterlimit="4" stroke="rgb(207,53,2)" stroke-opacity="1" stroke-width="7.407" d=" M72.42500305175781,-6.677999973297119 C64.79499816894531,22.750999450683594 54.3489990234375,5.949999809265137 13.803000450134277,12.333000183105469 C-51.42499923706055,22.601999282836914 -53.5260009765625,54.08700180053711 -69.84600067138672,13.845999717712402 C-74.75299835205078,1.7480000257492065 -77.25900268554688,-4.257999897003174 -52.19499969482422,-13.187999725341797 C-27.7450008392334,-21.89900016784668 -29.14900016784668,-49.16999816894531 -8.645000457763672,-53.612998962402344 C14.788999557495117,-58.689998626708984 18.87700080871582,-32.018001556396484 41.83599853515625,-29.812999725341797 C68.98699951171875,-27.20599937438965 77.06900024414062,-24.590999603271484 72.42500305175781,-6.677999973297119z"></path></g></g><g style="display: block;" transform="matrix(0.7955498695373535,0.014529124833643436,-0.006747036706656218,0.8094931840896606,251.68426513671875,245.86158752441406)" opacity="1"><g opacity="1" transform="matrix(1,0,0,1,0,0)"><path fill="rgb(125,9,9)" fill-opacity="1" d=" M-29.74799919128418,62.42100143432617 C-11.15999984741211,57.36000061035156 3.2739999294281006,52.23400115966797 34.76499938964844,50.983001708984375 C80.00399780273438,49.185001373291016 89.177001953125,53.39400100708008 108.677001953125,57.89400100708008 C109.73999786376953,61.43899917602539 111.23100280761719,58.0890007019043 108.27400207519531,57.347999572753906 C41.88199996948242,40.71200180053711 -12.682000160217285,57.42499923706055 -29.125999450683594,62.861000061035156 C-42.85900115966797,67.4010009765625 -36.65299987792969,66.3270034790039 -29.74799919128418,62.42100143432617z"></path><path stroke-linecap="round" stroke-linejoin="round" fill-opacity="0" stroke="rgb(125,9,9)" stroke-opacity="1" stroke-width="8" d=" M-29.74799919128418,62.42100143432617 C-11.15999984741211,57.36000061035156 3.2739999294281006,52.23400115966797 34.76499938964844,50.983001708984375 C80.00399780273438,49.185001373291016 89.177001953125,53.39400100708008 108.677001953125,57.89400100708008 C109.73999786376953,61.43899917602539 111.23100280761719,58.0890007019043 108.27400207519531,57.347999572753906 C41.88199996948242,40.71200180053711 -12.682000160217285,57.42499923706055 -29.125999450683594,62.861000061035156 C-42.85900115966797,67.4010009765625 -36.65299987792969,66.3270034790039 -29.74799919128418,62.42100143432617z"></path></g></g><g style="display: none;"><g><path stroke-linecap="round" stroke-linejoin="round" fill-opacity="0"></path></g></g><g style="display: none;"><g><path stroke-linecap="round" stroke-linejoin="round" fill-opacity="0"></path></g></g><g style="display: none;"><g><path stroke-linecap="round" stroke-linejoin="round" fill-opacity="0"></path></g></g><g style="display: none;"><g><path></path><path stroke-linecap="round" stroke-linejoin="round" fill-opacity="0"></path></g></g><g style="display: none;"><g><path></path><path stroke-linecap="round" stroke-linejoin="round" fill-opacity="0"></path></g></g><g style="display: none;"><g><path stroke-linecap="round" stroke-linejoin="round" fill-opacity="0"></path></g></g><g style="display: none;"><g><path stroke-linecap="round" stroke-linejoin="round" fill-opacity="0"></path></g></g><g style="display: none;"><g><path stroke-linecap="round" stroke-linejoin="round" fill-opacity="0"></path></g></g><g style="display: none;"><g><path stroke-linecap="round" stroke-linejoin="round" fill-opacity="0"></path></g></g><g style="display: none;"><g><path></path><path stroke-linecap="round" stroke-linejoin="round" fill-opacity="0"></path></g></g><g style="display: none;"><g><path></path><path stroke-linecap="round" stroke-linejoin="round" fill-opacity="0"></path></g></g><g style="display: none;"><g><path stroke-linecap="round" stroke-linejoin="round" fill-opacity="0"></path></g></g><g style="display: none;"><g><path stroke-linecap="round" stroke-linejoin="round" fill-opacity="0"></path></g></g><g style="display: none;"><g><path stroke-linecap="round" stroke-linejoin="round" fill-opacity="0"></path></g></g><g style="display: none;"><g><path></path><path stroke-linecap="round" stroke-linejoin="round" fill-opacity="0"></path></g></g><g style="display: none;"><g><path stroke-linecap="round" stroke-linejoin="round" fill-opacity="0"></path></g></g><g style="display: none;"><g><path></path><path stroke-linecap="round" stroke-linejoin="round" fill-opacity="0"></path></g></g><g style="display: none;"><g><path stroke-linecap="round" stroke-linejoin="round" fill-opacity="0"></path></g></g><g style="display: none;"><g><path stroke-linecap="round" stroke-linejoin="round" fill-opacity="0"></path></g></g><g style="display: none;"><g><path stroke-linecap="round" stroke-linejoin="round" fill-opacity="0"></path></g></g><g style="display: none;"><g><path stroke-linecap="round" stroke-linejoin="round" fill-opacity="0"></path></g></g><g style="display: none;"><g><path stroke-linecap="round" stroke-linejoin="round" fill-opacity="0"></path></g></g><g style="display: none;"><g><path stroke-linecap="round" stroke-linejoin="round" fill-opacity="0"></path></g></g><g style="display: none;"><g><path stroke-linecap="round" stroke-linejoin="round" fill-opacity="0"></path></g></g><g style="display: none;"><g><path stroke-linecap="round" stroke-linejoin="round" fill-opacity="0"></path></g></g><g style="display: none;"><path></path><g></g></g><g style="display: none;"><g><path stroke-linecap="round" stroke-linejoin="round" fill-opacity="0"></path></g></g><g style="display: block;" transform="matrix(0.8265475034713745,0.11908608675003052,-0.12678232789039612,0.8408551812171936,239.9718780517578,266.76824951171875)" opacity="1"><g opacity="1" transform="matrix(1,0,0,1,0,0)"><path fill="rgb(255,255,255)" fill-opacity="1" d="M0 0"></path><path stroke-linecap="round" stroke-linejoin="round" fill-opacity="0" stroke="rgb(255,180,132)" stroke-opacity="1" stroke-width="8" d=" M-32.73099899291992,35.07500076293945 C-30.326000213623047,28.06999969482422 -21.78700065612793,22.53499984741211 -8,19 C4.513999938964844,15.791000366210938 16.409000396728516,10.52400016784668 23.988000869750977,2.140000104904175"></path></g></g><g style="display: block;" transform="matrix(0.9281094670295715,0.145763099193573,-0.1438359171152115,0.8691228628158569,202.7413787841797,230.19688415527344)" opacity="1"><g opacity="1" transform="matrix(1,0,0,1,89.18399810791016,58.939998626708984)"><path stroke-linecap="round" stroke-linejoin="round" fill-opacity="0" stroke="rgb(207,53,2)" stroke-opacity="1" stroke-width="7.407" d=" M-72.52899932861328,6.418000221252441 C-74.46299743652344,-1.1410000324249268 -71.5479965209961,-6.293000221252441 -52.19499969482422,-13.187999725341797 C-27.7450008392334,-21.89900016784668 -29.14900016784668,-49.16999816894531 -8.645000457763672,-53.612998962402344 C14.788999557495117,-58.689998626708984 18.87700080871582,-32.018001556396484 41.83599853515625,-29.812999725341797 C55.69200134277344,-28.482999801635742 64.58200073242188,-27.149999618530273 69.3479995727539,-23.783000946044922"></path></g></g><g style="display: block;" transform="matrix(0.7956557869911194,-0.00771687924861908,0.018827281892299652,0.8093292713165283,259.8258972167969,282.0793762207031)" opacity="1"><g opacity="1" transform="matrix(1,0,0,1,0,0)"><path fill="rgb(253,173,239)" fill-opacity="1" d=" M-101.30799865722656,-11.770999908447266 C-70.81800079345703,-14.95300006866455 -27.613000869750977,7.691999912261963 -49.93000030517578,64.36499786376953"></path><path stroke-linecap="round" stroke-linejoin="round" fill-opacity="0" stroke="rgb(235,70,206)" stroke-opacity="1" stroke-width="10" d=" M-101.30799865722656,-11.770999908447266 C-70.81800079345703,-14.95300006866455 -27.613000869750977,7.691999912261963 -49.93000030517578,64.36499786376953"></path></g></g><g style="display: block;" transform="matrix(1.0641913414001465,-0.008469493128359318,0.022448105737566948,1.0401816368103027,144.70802307128906,303.7627258300781)" opacity="1"><g opacity="1" transform="matrix(1,0,0,1,26.16699981689453,35.709999084472656)"><path stroke-linecap="round" stroke-linejoin="round" fill-opacity="0" stroke="rgb(255,255,255)" stroke-opacity="1" stroke-width="10" d=" M7.201000213623047,-46.50199890136719 C6.561999797821045,-44.6510009765625 6.7729997634887695,-43.685001373291016 7.9679999351501465,-42.74599838256836 C9.057000160217285,-41.88999938964844 11.387999534606934,-43.02299880981445 12.210000038146973,-46.50899887084961 C12.576000213623047,-48.06100082397461 12.067999839782715,-49.233001708984375 11.26200008392334,-49.7760009765625"></path></g></g><g style="display: block;" transform="matrix(-0.7956557869911194,0.00771687924861908,0.018827281892299652,0.8093292713165283,292.8448791503906,281.75848388671875)" opacity="1"><g opacity="1" transform="matrix(1,0,0,1,0,0)"><path fill="rgb(253,173,239)" fill-opacity="1" d=" M-101.30799865722656,-11.770999908447266 C-70.81800079345703,-14.95300006866455 -27.613000869750977,7.691999912261963 -49.93000030517578,64.36499786376953"></path><path stroke-linecap="round" stroke-linejoin="round" fill-opacity="0" stroke="rgb(235,70,206)" stroke-opacity="1" stroke-width="10" d=" M-101.30799865722656,-11.770999908447266 C-70.81800079345703,-14.95300006866455 -27.613000869750977,7.691999912261963 -49.93000030517578,64.36499786376953"></path></g></g><g style="display: block;" transform="matrix(1.0641913414001465,-0.008469493128359318,0.022448105737566948,1.0401816368103027,337.2154235839844,324.3022766113281)" opacity="1"><g opacity="1" transform="matrix(1,0,0,1,26.16699981689453,35.709999084472656)"><path stroke-linecap="round" stroke-linejoin="round" fill-opacity="0" stroke="rgb(253,173,239)" stroke-opacity="1" stroke-width="10" d=" M7.201000213623047,-46.50199890136719 C6.561999797821045,-44.6510009765625 6.7729997634887695,-43.685001373291016 7.9679999351501465,-42.74599838256836 C9.057000160217285,-41.88999938964844 11.387999534606934,-43.02299880981445 12.210000038146973,-46.50899887084961 C12.576000213623047,-48.06100082397461 12.067999839782715,-49.233001708984375 11.26200008392334,-49.7760009765625"></path></g></g><g style="display: block;" transform="matrix(-0.910530149936676,0.5250235199928284,-0.5559691190719604,-0.8900574445724487,373.2830810546875,375.1221923828125)" opacity="1"><g opacity="1" transform="matrix(1,0,0,1,74.9219970703125,76.87799835205078)"><path fill="rgb(253,173,239)" fill-opacity="1" d=" M58.845001220703125,31.770000457763672 C29.17300033569336,18.204999923706055 9.468000411987305,37.720001220703125 -3.752000093460083,46.433998107910156 C-20.54599952697754,57.50400161743164 -28.450000762939453,60.694000244140625 -33.801998138427734,54.46699905395508 C-39.56700134277344,47.7599983215332 -40.7140007019043,29.277999877929688 -24.76799964904785,2.015000104904175 C-12.708000183105469,-18.604000091552734 13.543000221252441,-35.08100128173828 45.40999984741211,-41.42900085449219"></path><path stroke-linecap="round" stroke-linejoin="round" fill-opacity="0" stroke="rgb(235,70,206)" stroke-opacity="1" stroke-width="10" d=" M58.845001220703125,31.770000457763672 C29.17300033569336,18.204999923706055 9.468000411987305,37.720001220703125 -3.752000093460083,46.433998107910156 C-20.54599952697754,57.50400161743164 -28.450000762939453,60.694000244140625 -33.801998138427734,54.46699905395508 C-39.56700134277344,47.7599983215332 -40.7140007019043,29.277999877929688 -24.76799964904785,2.015000104904175 C-12.708000183105469,-18.604000091552734 13.543000221252441,-35.08100128173828 45.40999984741211,-41.42900085449219"></path></g></g><g style="display: none;"><g><path></path><path stroke-linecap="round" stroke-linejoin="round" fill-opacity="0"></path></g></g><g style="display: block;" transform="matrix(0.910530149936676,0.5250235199928284,0.5559691190719604,-0.8900574445724487,186.12506103515625,375.1221923828125)" opacity="1"><g opacity="1" transform="matrix(1,0,0,1,74.9219970703125,76.87799835205078)"><path fill="rgb(253,173,239)" fill-opacity="1" d=" M58.845001220703125,31.770000457763672 C29.17300033569336,18.204999923706055 9.468000411987305,37.720001220703125 -3.752000093460083,46.433998107910156 C-20.54599952697754,57.50400161743164 -28.450000762939453,60.694000244140625 -33.801998138427734,54.46699905395508 C-39.56700134277344,47.7599983215332 -40.7140007019043,29.277999877929688 -24.76799964904785,2.015000104904175 C-12.708000183105469,-18.604000091552734 13.543000221252441,-35.08100128173828 45.40999984741211,-41.42900085449219"></path><path stroke-linecap="round" stroke-linejoin="round" fill-opacity="0" stroke="rgb(235,70,206)" stroke-opacity="1" stroke-width="10" d=" M58.845001220703125,31.770000457763672 C29.17300033569336,18.204999923706055 9.468000411987305,37.720001220703125 -3.752000093460083,46.433998107910156 C-20.54599952697754,57.50400161743164 -28.450000762939453,60.694000244140625 -33.801998138427734,54.46699905395508 C-39.56700134277344,47.7599983215332 -40.7140007019043,29.277999877929688 -24.76799964904785,2.015000104904175 C-12.708000183105469,-18.604000091552734 13.543000221252441,-35.08100128173828 45.40999984741211,-41.42900085449219"></path></g></g><g style="display: none;"><g><path></path><path stroke-linecap="round" stroke-linejoin="round" fill-opacity="0"></path></g></g><g style="display: block;" transform="matrix(-0.9189181923866272,0.5384824872016907,-0.541992723941803,-0.8819798231124878,317.5386962890625,355.52105712890625)" opacity="1"><g opacity="1" transform="matrix(1,0,0,1,51.28499984741211,53.14099884033203)"><path stroke-linecap="round" stroke-linejoin="round" fill-opacity="0" stroke="rgb(253,163,237)" stroke-opacity="1" stroke-width="10" d=" M-65.72100067138672,-0.7250000238418579 C-61.21200180053711,-13.666999816894531 -56.74800109863281,-32.125999450683594 -63.165000915527344,-50.59700012207031"></path></g></g><g style="display: block;" transform="matrix(-0.910530149936676,0.5250235199928284,-0.5559691190719604,-0.8900574445724487,343.14117431640625,361.3527526855469)" opacity="1"><g opacity="1" transform="matrix(1,0,0,1,51.28499984741211,53.14099884033203)"><path stroke-linecap="round" stroke-linejoin="round" fill-opacity="0" stroke="rgb(255,255,255)" stroke-opacity="1" stroke-width="10" d=" M-8.831999778747559,31.270000457763672 C-2.509999990463257,26.93899917602539 4.086999893188477,22.086000442504883 11.180999755859375,18.100000381469727 C21.19499969482422,12.473999977111816 32.20100021362305,8.574999809265137 44.827999114990234,10.312999725341797"></path></g></g><g style="display: block;" transform="matrix(1,0,0,1,256,256)" opacity="1"></g><g style="display: block;" transform="matrix(-0.9067954421043396,0.5431622862815857,-0.5551374554634094,-0.8830949068069458,317.6155090332031,355.3403015136719)" opacity="1"><g opacity="1" transform="matrix(1,0,0,1,51.28499984741211,53.14099884033203)"><path stroke-linecap="round" stroke-linejoin="round" fill-opacity="0" stroke="rgb(250,201,242)" stroke-opacity="1" stroke-width="10" d=" M-65.72100067138672,-0.7250000238418579 C-61.21200180053711,-13.666999816894531 -56.74800109863281,-32.125999450683594 -63.165000915527344,-50.59700012207031"></path></g></g></g></g></svg>