<svg xmlns="http://www.w3.org/2000/svg" xmlns:xlink="http://www.w3.org/1999/xlink" viewBox="0 0 512 512" width="512" height="512" style="width: 100%; height: 100%; transform: translate3d(0,0,0); content-visibility: visible;" preserveAspectRatio="xMidYMid meet"><defs><clipPath id="__lottie_element_2"><rect width="512" height="512" x="0" y="0"></rect></clipPath><clipPath id="__lottie_element_4"><path d="M0,0 L512,0 L512,512 L0,512z"></path></clipPath><clipPath id="__lottie_element_8"><path d="M0,0 L512,0 L512,512 L0,512z"></path></clipPath><clipPath id="__lottie_element_24"><path d="M0,0 L512,0 L512,512 L0,512z"></path></clipPath><clipPath id="__lottie_element_40"><path d="M0,0 L512,0 L512,512 L0,512z"></path></clipPath><clipPath id="__lottie_element_56"><path d="M0,0 L512,0 L512,512 L0,512z"></path></clipPath><clipPath id="__lottie_element_97"><path d="M0,0 L512,0 L512,512 L0,512z"></path></clipPath><clipPath id="__lottie_element_113"><path d="M0,0 L512,0 L512,512 L0,512z"></path></clipPath><clipPath id="__lottie_element_129"><path d="M0,0 L512,0 L512,512 L0,512z"></path></clipPath><clipPath id="__lottie_element_145"><path d="M0,0 L512,0 L512,512 L0,512z"></path></clipPath><radialGradient id="__lottie_element_213" spreadMethod="pad" gradientUnits="userSpaceOnUse" cx="0" cy="0" r="100" fx="0" fy="0"><stop offset="15%" stop-color="rgb(255,146,39)"></stop><stop offset="22%" stop-color="rgb(255,179,39)"></stop><stop offset="29%" stop-color="rgb(255,213,39)"></stop></radialGradient><radialGradient id="__lottie_element_217" spreadMethod="pad" gradientUnits="userSpaceOnUse" cx="0" cy="0" r="100" fx="0" fy="0"><stop offset="15%" stop-color="rgb(255,146,39)"></stop><stop offset="22%" stop-color="rgb(255,179,39)"></stop><stop offset="29%" stop-color="rgb(255,213,39)"></stop></radialGradient></defs><g clip-path="url(#__lottie_element_2)"><g clip-path="url(#__lottie_element_4)" style="display: block;" transform="matrix(1,0,0,1,0,0)" opacity="1"><g style="display: block;" transform="matrix(1.049178957939148,0.04151579365134239,-0.04151579365134239,1.049178957939148,63.54978942871094,165.37359619140625)" opacity="1"><path fill="rgb(255,213,39)" fill-opacity="1" d=" M94.17,270.48 C63.54,263.28 59.85,217.54 59.85,192.67 C59.85,168.19 63.61,132.96 91.26,111.01 C116.21,91.22 157.84,79.67 195.08,79.2 C253.94,78.47 290.11,104.35 297.85,113.43 C312.31,130.39 326.46,155.88 327.64,192.73 C328.51,219.76 313.79,263.08 271.42,269.74 C210.68,279.3 146.81,282.85 94.17,270.48z"></path><g opacity="1" transform="matrix(1,0,0,1,205.83900451660156,156.75)"><path stroke-linecap="round" stroke-linejoin="miter" fill-opacity="0" stroke-miterlimit="10" stroke="rgb(249,143,22)" stroke-opacity="1" stroke-width="10" d=" M-111.66571044921875,113.73097229003906 C-142.29971313476562,106.53296661376953 -145.99400329589844,60.78799819946289 -145.99400329589844,35.91899871826172 C-145.99400329589844,11.439000129699707 -142.23399353027344,-23.788999557495117 -114.57499694824219,-45.73500061035156 C-89.62899780273438,-65.52799987792969 -48,-77.08100128173828 -10.760000228881836,-77.5459976196289 C48.10100173950195,-78.28199768066406 84.26988983154297,-52.402000427246094 92.00788879394531,-43.32400131225586 C106.46988677978516,-26.357999801635742 120.62100219726562,-0.8730000257492065 121.802001953125,35.97800064086914 C122.66799926757812,63.007999420166016 107.95339965820312,106.32797241210938 65.58540344238281,112.99297332763672 C4.839400291442871,122.5489730834961 -59.03171157836914,126.09896850585938 -111.66571044921875,113.73097229003906z"></path></g></g><g style="display: block;" transform="matrix(1.0472136735916138,-0.07644317299127579,0.07644317299127579,1.0472136735916138,203.6952362060547,270.43634033203125)" opacity="1"><g opacity="1" transform="matrix(1,0,0,1,38.819000244140625,73.84600067138672)"><path stroke-linecap="round" stroke-linejoin="round" fill-opacity="0" stroke="rgb(250,144,22)" stroke-opacity="1" stroke-width="10" d=" M59.37300109863281,22.016000747680664 C17.756999969482422,8.114999771118164 -7.817999839782715,8.307999610900879 -46.895999908447266,25.586000442504883"></path></g></g><g style="display: block;" transform="matrix(1.049178957939148,0.04151579365134239,-0.04151579365134239,1.049178957939148,285.6078796386719,318.05780029296875)" opacity="1"><g opacity="1" transform="matrix(1,0,0,1,35.6879997253418,48.13999938964844)"><path stroke-linecap="round" stroke-linejoin="round" fill-opacity="0" stroke="rgb(251,237,32)" stroke-opacity="1" stroke-width="10" d=" M-94.58300018310547,73.84300231933594 C-69.56300354003906,75.12999725341797 -39.13100051879883,73.81400299072266 -10.407999992370605,70.37000274658203"></path></g></g><g style="display: block;" transform="matrix(1.049178957939148,0.04151579365134239,-0.04151579365134239,1.049178957939148,285.6078796386719,318.05780029296875)" opacity="1"><g opacity="1" transform="matrix(1,0,0,1,35.6879997253418,48.13999938964844)"><path stroke-linecap="round" stroke-linejoin="round" fill-opacity="0" stroke="rgb(255,255,255)" stroke-opacity="1" stroke-width="10" d=" M-84.6969985961914,13.017000198364258 C-73.62100219726562,9.425000190734863 -63.992000579833984,7.7769999504089355 -50.80400085449219,8.074000358581543"></path></g></g><g style="display: block;" transform="matrix(0.9186283946037292,0.05020138993859291,-0.054566726088523865,0.9985091090202332,29.35331153869629,262.8558349609375)" opacity="1"><g opacity="1" transform="matrix(1,0,0,1,68.78900146484375,79.20099639892578)"><path fill="rgb(255,212,39)" fill-opacity="1" d=" M79.49199676513672,10.133000373840332 C58.75600051879883,36.0989990234375 -12.616000175476074,54.20100021362305 -25.250999450683594,44.111000061035156 C-37.88600158691406,34.020999908447266 -43.78900146484375,-16.642000198364258 26.6299991607666,-47.64400100708008 C32.29800033569336,-50.138999938964844 38.02399826049805,-52.321998596191406 43.790000915527344,-54.20100021362305"></path><g opacity="1" transform="matrix(1,0,0,1,0,0)"></g></g><g opacity="1" transform="matrix(1,0,0,1,68.78900146484375,79.20099639892578)"><path stroke-linecap="round" stroke-linejoin="miter" fill-opacity="0" stroke-miterlimit="10" stroke="rgb(249,143,22)" stroke-opacity="1" stroke-width="10" d=" M58.558998107910156,26.510000228881836 C29.113000869750977,42.91899871826172 -15.512999534606934,51.887001037597656 -25.250999450683594,44.111000061035156 C-37.88600158691406,34.020999908447266 -43.78900146484375,-16.642000198364258 26.6299991607666,-47.64400100708008 C32.29800033569336,-50.138999938964844 38.02399826049805,-52.321998596191406 43.790000915527344,-54.20100021362305"></path></g></g><g style="display: block;" transform="matrix(0.9186283946037292,0.05020138993859291,-0.054566726088523865,0.9985091090202332,49.18220138549805,291.0788269042969)" opacity="1"><g opacity="1" transform="matrix(1,0,0,1,45.1870002746582,52.143001556396484)"><path stroke-linecap="round" stroke-linejoin="round" fill-opacity="0" stroke="rgb(255,255,255)" stroke-opacity="1" stroke-width="8" d=" M-3.5929999351501465,-9.996999740600586 C2.1410000324249268,-16.045000076293945 9.803999900817871,-21.834999084472656 19.70599937438965,-26.898000717163086"></path></g></g><g style="display: block;" transform="matrix(0.9186283946037292,0.05020138993859291,-0.054566726088523865,0.9985091090202332,350.236328125,263.0244445800781)" opacity="1"><g opacity="1" transform="matrix(1,0,0,1,80.42400360107422,69.677001953125)"><path fill="rgb(255,212,39)" fill-opacity="1" d=" M-81.00199890136719,14.847000122070312 C7.13100004196167,59.25600051879883 38.141998291015625,39.23899841308594 44.29199981689453,27.506999969482422 C55.42399978637695,6.269999980926514 2.8980000019073486,-29.888999938964844 -28.698999404907227,-40.17599868774414 C-37.56800079345703,-43.0629997253418 -46.560001373291016,-44.520999908447266 -55.42399978637695,-44.67599868774414"></path><g opacity="1" transform="matrix(1,0,0,1,0,0)"></g></g><g opacity="1" transform="matrix(1,0,0,1,80.42400360107422,69.677001953125)"><path stroke-linecap="round" stroke-linejoin="miter" fill-opacity="0" stroke-miterlimit="10" stroke="rgb(249,143,22)" stroke-opacity="1" stroke-width="10" d=" M-57.86399841308594,26.013999938964844 C15.194000244140625,55.595001220703125 38.694000244140625,38.18600082397461 44.29199981689453,27.506999969482422 C55.42399978637695,6.269999980926514 2.8980000019073486,-29.888999938964844 -28.698999404907227,-40.17599868774414 C-37.56800079345703,-43.0629997253418 -46.560001373291016,-44.520999908447266 -55.42399978637695,-44.67599868774414"></path></g></g><g style="display: block;" transform="matrix(0.9186283946037292,0.05020138993859291,-0.054566726088523865,0.9985091090202332,373.2846984863281,279.6098327636719)" opacity="1"><g opacity="1" transform="matrix(1,0,0,1,52.790000915527344,46.880001068115234)"><path stroke-linecap="round" stroke-linejoin="round" fill-opacity="0" stroke="rgb(251,237,32)" stroke-opacity="1" stroke-width="8" d=" M19.68899917602539,10.704999923706055 C11.321999549865723,1.2960000038146973 -2.878999948501587,-10.234000205993652 -26.826000213623047,-21.43199920654297"></path></g></g><g style="display: block;" transform="matrix(1.1332342624664307,0.1624738723039627,-0.1624738723039627,1.1332342624664307,57.51936340332031,-41.609535217285156)" opacity="1"><g opacity="1" transform="matrix(1,0,0,1,196.52099609375,174.67799377441406)"><path fill="rgb(255,213,39)" fill-opacity="1" d=" M128.5189971923828,110.28700256347656 C164.01300048828125,71.38099670410156 171.52099609375,30.104999542236328 164.11500549316406,-7.175000190734863 C148.4239959716797,-86.15599822998047 61.35599899291992,-149.67799377441406 -26.993999481201172,-132.12600708007812 C-115.34500122070312,-114.5739974975586 -171.52099609375,-22.594999313354492 -155.8300018310547,56.38600158691406 C-149.42100524902344,88.6500015258789 -130.51300048828125,127.18000030517578 -95.17500305175781,147.05599975585938"></path><path stroke-linecap="round" stroke-linejoin="miter" fill-opacity="0" stroke-miterlimit="10" stroke="rgb(249,143,22)" stroke-opacity="1" stroke-width="9.5" d=" M128.5189971923828,110.28700256347656 C164.01300048828125,71.38099670410156 171.52099609375,30.104999542236328 164.11500549316406,-7.175000190734863 C148.4239959716797,-86.15599822998047 61.35599899291992,-149.67799377441406 -26.993999481201172,-132.12600708007812 C-115.34500122070312,-114.5739974975586 -171.52099609375,-22.594999313354492 -155.8300018310547,56.38600158691406 C-149.42100524902344,88.6500015258789 -130.51300048828125,127.18000030517578 -95.17500305175781,147.05599975585938"></path></g></g><g style="display: block;" transform="matrix(1.0334409475326538,0.10123872756958008,-0.10123872756958008,1.0334409475326538,270.62347412109375,283.1124267578125)" opacity="1"><g opacity="1" transform="matrix(1,0,0,1,88.44499969482422,-36.10200119018555)"><path fill="url(#__lottie_element_217)" fill-opacity="1" d=" M0,-32.88650131225586 C18.150060653686523,-32.88650131225586 32.88650131225586,-18.150060653686523 32.88650131225586,0 C32.88650131225586,18.150060653686523 18.150060653686523,32.88650131225586 0,32.88650131225586 C-18.150060653686523,32.88650131225586 -32.88650131225586,18.150060653686523 -32.88650131225586,0 C-32.88650131225586,-18.150060653686523 -18.150060653686523,-32.88650131225586 0,-32.88650131225586z"></path></g></g><g style="display: block;" transform="matrix(1.0334409475326538,0.10123872756958008,-0.10123872756958008,1.0334409475326538,46.87260437011719,278.9693908691406)" opacity="1"><g opacity="1" transform="matrix(1,0,0,1,88.44499969482422,-36.10200119018555)"><path fill="url(#__lottie_element_213)" fill-opacity="1" d=" M0,-32.88650131225586 C18.150060653686523,-32.88650131225586 32.88650131225586,-18.150060653686523 32.88650131225586,0 C32.88650131225586,18.150060653686523 18.150060653686523,32.88650131225586 0,32.88650131225586 C-18.150060653686523,32.88650131225586 -32.88650131225586,18.150060653686523 -32.88650131225586,0 C-32.88650131225586,-18.150060653686523 -18.150060653686523,-32.88650131225586 0,-32.88650131225586z"></path></g></g><g style="display: block;" transform="matrix(0.6416001915931702,0.948138415813446,-0.948138415813446,0.6416001915931702,236.22279357910156,-5.6833086013793945)" opacity="1"><g opacity="1" transform="matrix(1,0,0,1,49.17599868774414,105.06700134277344)"><path stroke-linecap="round" stroke-linejoin="round" fill-opacity="0" stroke="rgb(255,255,255)" stroke-opacity="1" stroke-width="10" d=" M19.926000595092773,89.20099639892578 C27.2189998626709,97.18900299072266 35.92900085449219,104.63700103759766 46.25699996948242,111.30999755859375"></path></g></g><g style="display: block;" transform="matrix(0.6416001915931702,0.948138415813446,-0.948138415813446,0.6416001915931702,236.22279357910156,-5.6833086013793945)" opacity="1"><g opacity="1" transform="matrix(1,0,0,1,49.17599868774414,105.06700134277344)"><path stroke-linecap="round" stroke-linejoin="round" fill-opacity="0" stroke="rgb(255,255,255)" stroke-opacity="1" stroke-width="10" d=" M7.406000137329102,-80.06800079345703 C-9.116000175476074,-57.80799865722656 -27.48699951171875,10.6899995803833 3.3459999561309814,66.16899871826172"></path></g></g><g style="display: block;" transform="matrix(1.1332342624664307,0.1624738723039627,-0.1624738723039627,1.1332342624664307,302.4656982421875,53.4274787902832)" opacity="1"><g opacity="1" transform="matrix(1,0,0,1,71.9540023803711,84.74400329589844)"><path stroke-linecap="round" stroke-linejoin="round" fill-opacity="0" stroke="rgb(251,237,32)" stroke-opacity="1" stroke-width="10" d=" M42.71699905395508,36.03300094604492 C37.2859992980957,16.19499969482422 27.257999420166016,-2.881999969482422 13.333000183105469,-19.091999053955078 C-0.9309999942779541,-35.69599914550781 -19.285999298095703,-49.29100036621094 -40.974998474121094,-57.61199951171875"></path></g></g><g style="display: block;" transform="matrix(1.2585703134536743,-0.04621567577123642,0.04621567577123642,1.2585703134536743,163.96754455566406,358.2439270019531)" opacity="1"><g opacity="1" transform="matrix(1,0,0,1,145.42599487304688,-113.83100128173828)"><path fill="rgb(0,0,0)" fill-opacity="1" d=" M0.5019999742507935,-5.607999801635742 C10.914999961853027,-5.835999965667725 17.582000732421875,-2.3410000801086426 20.214000701904297,1.1579999923706055 C21.888999938964844,3.384999990463257 21.6560001373291,5.0929999351501465 20.534000396728516,6.436999797821045 C19.38800048828125,7.809999942779541 17.513999938964844,7.519999980926514 15.718999862670898,6.5289998054504395 C12.656000137329102,4.8379998207092285 8.229000091552734,1.5759999752044678 -0.3569999933242798,1.7020000219345093 C-9.418000221252441,1.8350000381469727 -13.678999900817871,5.616000175476074 -16.785999298095703,7.089000225067139 C-18.73900032043457,8.015000343322754 -20.70599937438965,8.470999717712402 -21.934999465942383,6.5289998054504395 C-23.219999313354492,4.499000072479248 -22.593000411987305,2.437000036239624 -20.361000061035156,0.44999998807907104 C-17.06599998474121,-2.4839999675750732 -10.182000160217285,-5.375 0.5019999742507935,-5.607999801635742z"></path><path stroke-linecap="butt" stroke-linejoin="miter" fill-opacity="0" stroke-miterlimit="4" stroke="rgb(0,0,0)" stroke-opacity="1" stroke-width="3" d=" M0.5019999742507935,-5.607999801635742 C10.914999961853027,-5.835999965667725 17.582000732421875,-2.3410000801086426 20.214000701904297,1.1579999923706055 C21.888999938964844,3.384999990463257 21.6560001373291,5.0929999351501465 20.534000396728516,6.436999797821045 C19.38800048828125,7.809999942779541 17.513999938964844,7.519999980926514 15.718999862670898,6.5289998054504395 C12.656000137329102,4.8379998207092285 8.229000091552734,1.5759999752044678 -0.3569999933242798,1.7020000219345093 C-9.418000221252441,1.8350000381469727 -13.678999900817871,5.616000175476074 -16.785999298095703,7.089000225067139 C-18.73900032043457,8.015000343322754 -20.70599937438965,8.470999717712402 -21.934999465942383,6.5289998054504395 C-23.219999313354492,4.499000072479248 -22.593000411987305,2.437000036239624 -20.361000061035156,0.44999998807907104 C-17.06599998474121,-2.4839999675750732 -10.182000160217285,-5.375 0.5019999742507935,-5.607999801635742z"></path></g></g><g style="display: none;" transform="matrix(0.250324547290802,0.011452019214630127,-0.011452019214630127,0.250324547290802,300.7089538574219,235.86903381347656)" opacity="1"><g opacity="1" transform="matrix(1,0,0,1,105.927001953125,-161.32000732421875)"><path fill="rgb(255,255,255)" fill-opacity="1" d=" M0,-24.16900062561035 C11.273109436035156,-24.16900062561035 20.426000595092773,-13.338871002197266 20.426000595092773,0 C20.426000595092773,13.338871002197266 11.273109436035156,24.16900062561035 0,24.16900062561035 C-11.273109436035156,24.16900062561035 -20.426000595092773,13.338871002197266 -20.426000595092773,0 C-20.426000595092773,-13.338871002197266 -11.273109436035156,-24.16900062561035 0,-24.16900062561035z"></path></g></g><g style="display: none;"><g><path></path></g></g><g style="display: none;"><g><path></path></g></g><g style="display: block;" transform="matrix(1.2561718225479126,0.0887654572725296,-0.08877353370189667,1.2562860250473022,-20.26548194885254,338.8522644042969)" opacity="1"><g opacity="1" transform="matrix(1,0,0,1,145.42599487304688,-113.83100128173828)"><path fill="rgb(0,0,0)" fill-opacity="1" d=" M0.5019999742507935,-5.607999801635742 C10.914999961853027,-5.835999965667725 17.582000732421875,-2.3410000801086426 20.214000701904297,1.1579999923706055 C21.888999938964844,3.384999990463257 21.656801223754883,5.0929999351501465 20.534801483154297,6.436999797821045 C19.38880157470703,7.809999942779541 17.513999938964844,7.519999980926514 15.718999862670898,6.5289998054504395 C12.656000137329102,4.8379998207092285 8.229000091552734,1.5759999752044678 -0.3569999933242798,1.7020000219345093 C-9.418000221252441,1.8350000381469727 -13.678999900817871,5.616000175476074 -16.785999298095703,7.089000225067139 C-18.73900032043457,8.015000343322754 -20.70599937438965,8.470999717712402 -21.934999465942383,6.5289998054504395 C-23.219999313354492,4.499000072479248 -22.593000411987305,2.437000036239624 -20.361000061035156,0.44999998807907104 C-17.06599998474121,-2.4839999675750732 -10.182000160217285,-5.375 0.5019999742507935,-5.607999801635742z"></path><path stroke-linecap="butt" stroke-linejoin="miter" fill-opacity="0" stroke-miterlimit="4" stroke="rgb(0,0,0)" stroke-opacity="1" stroke-width="3" d=" M0.5019999742507935,-5.607999801635742 C10.914999961853027,-5.835999965667725 17.582000732421875,-2.3410000801086426 20.214000701904297,1.1579999923706055 C21.888999938964844,3.384999990463257 21.656801223754883,5.0929999351501465 20.534801483154297,6.436999797821045 C19.38880157470703,7.809999942779541 17.513999938964844,7.519999980926514 15.718999862670898,6.5289998054504395 C12.656000137329102,4.8379998207092285 8.229000091552734,1.5759999752044678 -0.3569999933242798,1.7020000219345093 C-9.418000221252441,1.8350000381469727 -13.678999900817871,5.616000175476074 -16.785999298095703,7.089000225067139 C-18.73900032043457,8.015000343322754 -20.70599937438965,8.470999717712402 -21.934999465942383,6.5289998054504395 C-23.219999313354492,4.499000072479248 -22.593000411987305,2.437000036239624 -20.361000061035156,0.44999998807907104 C-17.06599998474121,-2.4839999675750732 -10.182000160217285,-5.375 0.5019999742507935,-5.607999801635742z"></path></g></g><g style="display: none;" transform="matrix(0.2348952293395996,-0.014711456373333931,0.014712251722812653,0.23491661250591278,147.8835906982422,238.38526916503906)" opacity="1"><g opacity="1" transform="matrix(1,0,0,1,106.50800323486328,-164.6269989013672)"><path fill="rgb(255,255,255)" fill-opacity="1" d=" M0,-24.16900062561035 C11.273109436035156,-24.16900062561035 20.426000595092773,-13.338871002197266 20.426000595092773,0 C20.426000595092773,13.338871002197266 11.273109436035156,24.16900062561035 0,24.16900062561035 C-11.273109436035156,24.16900062561035 -20.426000595092773,13.338871002197266 -20.426000595092773,0 C-20.426000595092773,-13.338871002197266 -11.273109436035156,-24.16900062561035 0,-24.16900062561035z"></path></g></g><g style="display: none;"><g><path></path></g></g><g style="display: none;"><g><path></path></g></g><g style="display: block;" transform="matrix(1.1160038709640503,0.2552505433559418,-0.2552505433559418,1.1160038709640503,174.12786865234375,182.0961456298828)" opacity="1"><g opacity="1" transform="matrix(1,0,0,1,98.04100036621094,61.84400177001953)"><path fill="rgb(255,93,31)" fill-opacity="1" d=" M-80.87654113769531,22.772905349731445 C-83.4098129272461,38.759437561035156 -49.65999984741211,47.18199920654297 -8.732000350952148,38.72100067138672 C35.09600067138672,29.624000549316406 82.35718536376953,-2.6713640689849854 63.348350524902344,-15.019463539123535 C63.653564453125,-26.435749053955078 58.0756950378418,-30.6957950592041 27.01300048828125,-22.77400016784668 C9.189000129699707,-18.91900062561035 1.225000023841858,-44.04999923706055 -20.125,-39.808998107910156 C-43.95600128173828,-35.07500076293945 -39.89899826049805,-6.199999809265137 -60.066001892089844,-2.6649999618530273 C-82.46597290039062,-0.25810596346855164 -89.37838745117188,11.155835151672363 -80.87654113769531,22.772905349731445z"></path><path stroke-linecap="round" stroke-linejoin="round" fill-opacity="0" stroke="rgb(207,53,2)" stroke-opacity="1" stroke-width="8" d=" M-80.87654113769531,22.772905349731445 C-83.4098129272461,38.759437561035156 -49.65999984741211,47.18199920654297 -8.732000350952148,38.72100067138672 C35.09600067138672,29.624000549316406 82.35718536376953,-2.6713640689849854 63.348350524902344,-15.019463539123535 C63.653564453125,-26.435749053955078 58.0756950378418,-30.6957950592041 27.01300048828125,-22.77400016784668 C9.189000129699707,-18.91900062561035 1.225000023841858,-44.04999923706055 -20.125,-39.808998107910156 C-43.95600128173828,-35.07500076293945 -39.89899826049805,-6.199999809265137 -60.066001892089844,-2.6649999618530273 C-82.46597290039062,-0.25810596346855164 -89.37838745117188,11.155835151672363 -80.87654113769531,22.772905349731445z"></path></g></g><g style="display: block;" transform="matrix(1.1160038709640503,0.2552505433559418,-0.2552505433559418,1.1160038709640503,180.97080993652344,219.88278198242188)" opacity="1"><g opacity="1" transform="matrix(1,0,0,1,81.50399780273438,36.75899887084961)"><path stroke-linecap="round" stroke-linejoin="round" fill-opacity="0" stroke="rgb(125,9,9)" stroke-opacity="1" stroke-width="7.2" d=" M65.7803726196289,-20.610631942749023 C28.976659774780273,18.529037475585938 -46.951148986816406,28.537029266357422 -76.44947052001953,17.09577178955078"></path></g></g><g style="display: block;" transform="matrix(1.1160038709640503,0.2552505433559418,-0.2552505433559418,1.1160038709640503,200.76919555664062,224.6142120361328)" opacity="1"><g opacity="1" transform="matrix(1,0,0,1,24.70599937438965,22.10700035095215)"><path stroke-linecap="round" stroke-linejoin="round" fill-opacity="0" stroke="rgb(255,180,132)" stroke-opacity="1" stroke-width="8" d=" M-19.70599937438965,16.01099967956543 C-1.9670000076293945,17.06999969482422 7.320000171661377,7.373000144958496 18.56100082397461,-14.815999984741211"></path></g></g><g clip-path="url(#__lottie_element_145)" style="display: block;" transform="matrix(1,0,0,1,340,0)" opacity="1"><g style="display: block;" transform="matrix(0.9996734857559204,0,0,0.9996734857559204,-0.8999099731445312,-10.550918579101562)" opacity="1"><g opacity="1" transform="matrix(1,0,0,1,0,0)"></g><g opacity="1" transform="matrix(1,0,0,1,76.7699966430664,73.08000183105469)"><path fill="rgb(255,0,0)" fill-opacity="1" d=" M-2.51206636428833,34.72480392456055 C-4.329489707946777,34.75111389160156 -5.0897979736328125,34.50791549682617 -6.337822437286377,33.189701080322266 C-21.118633270263672,17.574108123779297 -39.68455123901367,6.256929874420166 -39.62157440185547,-7.883996963500977 C-39.53486633300781,-27.12136459350586 -13.459038734436035,-37.00563049316406 -0.28105124831199646,-10.043699264526367 C15.297539710998535,-37.26475524902344 39.69005584716797,-23.951698303222656 39.69005584716797,-7.541868686676025 C39.69005584716797,4.664961338043213 22.42579460144043,16.497920989990234 2.3184144496917725,33.06156539916992 C0.6668407320976257,34.42169189453125 -0.3392699658870697,34.69239807128906 -2.51206636428833,34.72480392456055z"></path><path stroke-linecap="butt" stroke-linejoin="round" fill-opacity="0" stroke="rgb(174,11,11)" stroke-opacity="1" stroke-width="14" d=" M-2.51206636428833,34.72480392456055 C-4.329489707946777,34.75111389160156 -5.0897979736328125,34.50791549682617 -6.337822437286377,33.189701080322266 C-21.118633270263672,17.574108123779297 -39.68455123901367,6.256929874420166 -39.62157440185547,-7.883996963500977 C-39.53486633300781,-27.12136459350586 -13.459038734436035,-37.00563049316406 -0.28105124831199646,-10.043699264526367 C15.297539710998535,-37.26475524902344 39.69005584716797,-23.951698303222656 39.69005584716797,-7.541868686676025 C39.69005584716797,4.664961338043213 22.42579460144043,16.497920989990234 2.3184144496917725,33.06156539916992 C0.6668407320976257,34.42169189453125 -0.3392699658870697,34.69239807128906 -2.51206636428833,34.72480392456055z"></path></g></g><g style="display: block;" transform="matrix(0.9996734857559204,0,0,0.9996734857559204,-0.8999099731445312,-10.550918579101562)" opacity="1"><g opacity="1" transform="matrix(1,0,0,1,76.7699966430664,73.08000183105469)"><path fill="rgb(255,0,0)" fill-opacity="1" d=" M-2.5166070461273193,34.79173278808594 C-4.337978839874268,34.818336486816406 -5.100064277648926,34.574546813964844 -6.3508524894714355,33.25347137451172 C-21.15910530090332,17.609249114990234 -39.75897979736328,6.271045684814453 -39.69590377807617,-7.896039962768555 C-39.60909652709961,-27.169538497924805 -13.484309196472168,-37.072261810302734 -0.2815448045730591,-10.059789657592773 C15.326265335083008,-37.331878662109375 39.76458740234375,-23.993751525878906 39.76458740234375,-7.553220748901367 C39.76458740234375,4.6758198738098145 22.469524383544922,16.530298233032227 2.325817823410034,33.123756408691406 C0.6701970100402832,34.487239837646484 -0.3383815288543701,34.75893020629883 -2.5166070461273193,34.79173278808594z"></path></g></g><g style="display: block;" transform="matrix(0.9996734857559204,0,0,0.9996734857559204,-1.8995834589004517,-7.551898002624512)" opacity="1"><g opacity="1" transform="matrix(1,0,0,1,76.7699966430664,73.08000183105469)"><path stroke-linecap="round" stroke-linejoin="round" fill-opacity="0" stroke="rgb(255,255,255)" stroke-opacity="1" stroke-width="11.894912551381225" d=" M-30.493000030517578,-9.78499984741211 C-29.981000900268555,-16.225000381469727 -25.018999099731445,-20.860000610351562 -19.20800018310547,-21.145000457763672"></path></g></g><g style="display: block;" transform="matrix(0.9996734857559204,0,0,0.9996734857559204,-0.8999099731445312,-10.550918579101562)" opacity="1"><g opacity="1" transform="matrix(1,0,0,1,76.2699966430664,68.08000183105469)"><path stroke-linecap="round" stroke-linejoin="round" fill-opacity="0" stroke="rgb(255,108,75)" stroke-opacity="1" stroke-width="9.934322807754288" d=" M32.25699996948242,-3.128999948501587 C31.621999740600586,6.999000072479248 16.48200035095215,16.905000686645508 -0.4399999976158142,31.093000411987305"></path></g></g></g><g clip-path="url(#__lottie_element_129)" style="display: none;"><g style="display: none;"><g></g><g><path></path><path stroke-linecap="butt" stroke-linejoin="round" fill-opacity="0"></path></g></g><g style="display: none;"><g><path></path></g></g><g style="display: none;"><g><path stroke-linecap="round" stroke-linejoin="round" fill-opacity="0"></path></g></g><g style="display: none;"><g><path stroke-linecap="round" stroke-linejoin="round" fill-opacity="0"></path></g></g></g><g clip-path="url(#__lottie_element_113)" style="display: block;" transform="matrix(1,0,0,1,0,0)" opacity="1"><g style="display: block;" transform="matrix(0.9623783826828003,0,0,0.9623783826828003,1.9651718139648438,244.22357177734375)" opacity="1"><g opacity="1" transform="matrix(1,0,0,1,0,0)"></g><g opacity="1" transform="matrix(1,0,0,1,76.7699966430664,73.08000183105469)"><path fill="rgb(255,0,0)" fill-opacity="1" d=" M-3.819000005722046,52.6619987487793 C-6.538000106811523,52.68600082397461 -7.659999847412109,52.32400131225586 -9.526000022888184,50.35100173950195 C-31.92099952697754,26.666000366210938 -60.095001220703125,9.515000343322754 -59.999000549316406,-11.920999526977539 C-59.86800003051758,-41.051998138427734 -20.381999969482422,-56.02000045776367 -0.4259999990463257,-15.190999984741211 C23.165000915527344,-56.4119987487793 60.10300064086914,-36.25199890136719 60.10300064086914,-11.402999877929688 C60.10300064086914,7.119999885559082 33.85300064086914,25.073999404907227 3.322000026702881,50.23699951171875 C0.8820000290870667,52.24800109863281 -0.609000027179718,52.63399887084961 -3.819000005722046,52.6619987487793z"></path><path stroke-linecap="butt" stroke-linejoin="round" fill-opacity="0" stroke="rgb(174,11,11)" stroke-opacity="1" stroke-width="14" d=" M-3.819000005722046,52.6619987487793 C-6.538000106811523,52.68600082397461 -7.659999847412109,52.32400131225586 -9.526000022888184,50.35100173950195 C-31.92099952697754,26.666000366210938 -60.095001220703125,9.515000343322754 -59.999000549316406,-11.920999526977539 C-59.86800003051758,-41.051998138427734 -20.381999969482422,-56.02000045776367 -0.4259999990463257,-15.190999984741211 C23.165000915527344,-56.4119987487793 60.10300064086914,-36.25199890136719 60.10300064086914,-11.402999877929688 C60.10300064086914,7.119999885559082 33.85300064086914,25.073999404907227 3.322000026702881,50.23699951171875 C0.8820000290870667,52.24800109863281 -0.609000027179718,52.63399887084961 -3.819000005722046,52.6619987487793z"></path></g></g><g style="display: block;" transform="matrix(0.9623783826828003,0,0,0.9623783826828003,1.9651718139648438,244.22357177734375)" opacity="1"><g opacity="1" transform="matrix(1,0,0,1,76.7699966430664,73.08000183105469)"><path fill="rgb(255,0,0)" fill-opacity="1" d=" M-3.819000005722046,52.6619987487793 C-6.538000106811523,52.68600082397461 -7.659999847412109,52.32400131225586 -9.526000022888184,50.35100173950195 C-31.92099952697754,26.666000366210938 -60.095001220703125,9.515000343322754 -59.999000549316406,-11.920999526977539 C-59.86800003051758,-41.051998138427734 -20.381999969482422,-56.02000045776367 -0.4259999990463257,-15.190999984741211 C23.165000915527344,-56.4119987487793 60.10300064086914,-36.25199890136719 60.10300064086914,-11.402999877929688 C60.10300064086914,7.119999885559082 33.85300064086914,25.073999404907227 3.322000026702881,50.23699951171875 C0.8820000290870667,52.24800109863281 -0.609000027179718,52.63399887084961 -3.819000005722046,52.6619987487793z"></path></g></g><g style="display: block;" transform="matrix(0.9623783826828003,0,0,0.9623783826828003,1.0027934312820435,247.11070251464844)" opacity="1"><g opacity="1" transform="matrix(1,0,0,1,76.7699966430664,73.08000183105469)"><path stroke-linecap="round" stroke-linejoin="round" fill-opacity="0" stroke="rgb(255,255,255)" stroke-opacity="1" stroke-width="12" d=" M-46.632999420166016,-14.395000457763672 C-45.16899871826172,-24.427000045776367 -36.6349983215332,-31.283000946044922 -27.159000396728516,-30.632999420166016"></path></g></g><g style="display: block;" transform="matrix(0.9623783826828003,0,0,0.9623783826828003,1.9651718139648438,244.22357177734375)" opacity="1"><g opacity="1" transform="matrix(1,0,0,1,76.2699966430664,68.08000183105469)"><path stroke-linecap="round" stroke-linejoin="round" fill-opacity="0" stroke="rgb(255,108,75)" stroke-opacity="1" stroke-width="10" d=" M48.93000030517578,-5.760000228881836 C45.64400100708008,9.376999855041504 22.320999145507812,24.552000045776367 -3.118000030517578,46.108001708984375"></path></g></g></g><g clip-path="url(#__lottie_element_97)" style="display: none;"><g style="display: none;"><g></g><g><path></path><path stroke-linecap="butt" stroke-linejoin="round" fill-opacity="0"></path></g></g><g style="display: none;"><g><path></path></g></g><g style="display: none;"><g><path stroke-linecap="round" stroke-linejoin="round" fill-opacity="0"></path></g></g><g style="display: none;"><g><path stroke-linecap="round" stroke-linejoin="round" fill-opacity="0"></path></g></g></g><g style="display: block;" transform="matrix(-0.8117673993110657,0.3815641403198242,0.4012703597545624,0.7719019055366516,175.70506286621094,241.0246124267578)" opacity="1"><g opacity="1" transform="matrix(1,0,0,1,0,0)"><path fill="rgb(255,213,39)" fill-opacity="1" d=" M131.572998046875,86.94300079345703 C112.79299926757812,86.5199966430664 114.2030029296875,59.86199951171875 98.25900268554688,68.2959976196289 C85.01300048828125,75.3030014038086 80.93599700927734,101.66000366210938 83.91300201416016,144.0540008544922 C87.06800079345703,188.98899841308594 94.49199676513672,231.43800354003906 121.64800262451172,235.72500610351562 C153.01600646972656,240.677001953125 177.7530059814453,210.21800231933594 195.78500366210938,179.23399353027344 C219.01699829101562,139.31399536132812 227.4080047607422,110.52799987792969 218.18499755859375,100.4219970703125 C209.48199462890625,90.88600158691406 201.88099670410156,104.97599792480469 190.69400024414062,102.00199890136719 C176.75100708007812,98.2959976196289 177.96499633789062,74.2770004272461 168.89999389648438,71.23100280761719 C156.53199768066406,67.07499694824219 142.58200073242188,87.19100189208984 131.572998046875,86.94300079345703z"></path><path stroke-linecap="butt" stroke-linejoin="miter" fill-opacity="0" stroke-miterlimit="4" stroke="rgb(250,144,22)" stroke-opacity="1" stroke-width="12" d=" M131.572998046875,86.94300079345703 C112.79299926757812,86.5199966430664 114.2030029296875,59.86199951171875 98.25900268554688,68.2959976196289 C85.01300048828125,75.3030014038086 80.93599700927734,101.66000366210938 83.91300201416016,144.0540008544922 C87.06800079345703,188.98899841308594 94.49199676513672,231.43800354003906 121.64800262451172,235.72500610351562 C153.01600646972656,240.677001953125 177.7530059814453,210.21800231933594 195.78500366210938,179.23399353027344 C219.01699829101562,139.31399536132812 227.4080047607422,110.52799987792969 218.18499755859375,100.4219970703125 C209.48199462890625,90.88600158691406 201.88099670410156,104.97599792480469 190.69400024414062,102.00199890136719 C176.75100708007812,98.2959976196289 177.96499633789062,74.2770004272461 168.89999389648438,71.23100280761719 C156.53199768066406,67.07499694824219 142.58200073242188,87.19100189208984 131.572998046875,86.94300079345703z"></path></g></g><g style="display: block;" transform="matrix(0.40640878677368164,0.5784955620765686,-0.6083724498748779,0.38645026087760925,446.53350830078125,156.30409240722656)" opacity="1"><g opacity="1" transform="matrix(1,0,0,1,49.17599868774414,105.06700134277344)"><path stroke-linecap="round" stroke-linejoin="round" fill-opacity="0" stroke="rgb(255,255,255)" stroke-opacity="1" stroke-width="12" d=" M-69.8270034790039,412.7139892578125 C-35.21200180053711,435.1289978027344 -46.915000915527344,458.3280029296875 -75.5530014038086,480.3389892578125"></path></g></g><g style="display: block;" transform="matrix(0.40640878677368164,0.5784955620765686,-0.6083724498748779,0.38645026087760925,446.53350830078125,156.30409240722656)" opacity="1"><g opacity="1" transform="matrix(1,0,0,1,49.17599868774414,105.06700134277344)"><path stroke-linecap="round" stroke-linejoin="round" fill-opacity="0" stroke="rgb(255,255,255)" stroke-opacity="1" stroke-width="12" d=" M-51.70500183105469,545.0150146484375 C-20.913999557495117,525.5919799804688 -37.345001220703125,511.90399169921875 -53.60300064086914,500.35400390625"></path></g></g><g style="display: block;" transform="matrix(0.40640878677368164,0.5784955620765686,-0.6083724498748779,0.38645026087760925,446.53350830078125,156.30409240722656)" opacity="1"><g opacity="1" transform="matrix(1,0,0,1,49.17599868774414,105.06700134277344)"><path stroke-linecap="round" stroke-linejoin="round" fill-opacity="0" stroke="rgb(252,238,33)" stroke-opacity="1" stroke-width="10" d=" M84.79100036621094,443.7699890136719 C112.3759994506836,455.8909912109375 86.79299926757812,501.73699951171875 16.5049991607666,526.9219970703125"></path></g></g><g style="display: block;" transform="matrix(0.8215141296386719,0.36221152544021606,-0.3809182345867157,0.7811700105667114,338.0252380371094,240.30479431152344)" opacity="1"><g opacity="1" transform="matrix(1,0,0,1,0,0)"><path fill="rgb(255,213,39)" fill-opacity="1" d=" M131.572998046875,86.94300079345703 C112.79299926757812,86.5199966430664 114.2030029296875,59.86199951171875 98.25900268554688,68.2959976196289 C85.01300048828125,75.3030014038086 80.93599700927734,101.66000366210938 83.91300201416016,144.0540008544922 C87.06800079345703,188.98899841308594 94.49199676513672,231.43800354003906 121.64800262451172,235.72500610351562 C153.01600646972656,240.677001953125 177.7530059814453,210.21800231933594 195.78500366210938,179.23399353027344 C219.01699829101562,139.31399536132812 227.4080047607422,110.52799987792969 218.18499755859375,100.4219970703125 C209.48199462890625,90.88600158691406 201.88099670410156,104.97599792480469 190.69400024414062,102.00199890136719 C176.75100708007812,98.2959976196289 177.96499633789062,74.2770004272461 168.89999389648438,71.23100280761719 C156.53199768066406,67.07499694824219 142.58200073242188,87.19100189208984 131.572998046875,86.94300079345703z"></path><path stroke-linecap="butt" stroke-linejoin="miter" fill-opacity="0" stroke-miterlimit="4" stroke="rgb(250,144,22)" stroke-opacity="1" stroke-width="12" d=" M131.572998046875,86.94300079345703 C112.79299926757812,86.5199966430664 114.2030029296875,59.86199951171875 98.25900268554688,68.2959976196289 C85.01300048828125,75.3030014038086 80.93599700927734,101.66000366210938 83.91300201416016,144.0540008544922 C87.06800079345703,188.98899841308594 94.49199676513672,231.43800354003906 121.64800262451172,235.72500610351562 C153.01600646972656,240.677001953125 177.7530059814453,210.21800231933594 195.78500366210938,179.23399353027344 C219.01699829101562,139.31399536132812 227.4080047607422,110.52799987792969 218.18499755859375,100.4219970703125 C209.48199462890625,90.88600158691406 201.88099670410156,104.97599792480469 190.69400024414062,102.00199890136719 C176.75100708007812,98.2959976196289 177.96499633789062,74.2770004272461 168.89999389648438,71.23100280761719 C156.53199768066406,67.07499694824219 142.58200073242188,87.19100189208984 131.572998046875,86.94300079345703z"></path></g></g><g style="display: block;" transform="matrix(0.4701848328113556,0.5330175161361694,-0.5605456233024597,0.44709429144859314,417.813232421875,137.9470672607422)" opacity="1"><g opacity="1" transform="matrix(1,0,0,1,49.17599868774414,105.06700134277344)"><path stroke-linecap="round" stroke-linejoin="round" fill-opacity="0" stroke="rgb(252,238,33)" stroke-opacity="1" stroke-width="10" d=" M287.9230041503906,97.07099914550781 C293.7829895019531,98.62899780273438 296.7650146484375,204.67599487304688 264.3500061035156,246.8000030517578"></path></g></g><g style="display: block;" transform="matrix(0.4701848328113556,0.5330175161361694,-0.5605456233024597,0.44709429144859314,417.8118896484375,137.94772338867188)" opacity="1"><g opacity="1" transform="matrix(1,0,0,1,49.17599868774414,105.06700134277344)"><path stroke-linecap="round" stroke-linejoin="round" fill-opacity="0" stroke="rgb(255,255,255)" stroke-opacity="1" stroke-width="12" d=" M153.9669952392578,116.05400085449219 C153.5709991455078,126.16799926757812 161.9239959716797,148.99200439453125 174.19700622558594,173.15699768066406"></path></g></g><g style="display: block;" transform="matrix(0.4701848328113556,0.5330175161361694,-0.5605456233024597,0.44709429144859314,417.8118896484375,137.94772338867188)" opacity="1"><g opacity="1" transform="matrix(1,0,0,1,49.17599868774414,105.06700134277344)"><path stroke-linecap="round" stroke-linejoin="round" fill-opacity="0" stroke="rgb(255,255,255)" stroke-opacity="1" stroke-width="12" d=" M218.80499267578125,81.73799896240234 C213.906005859375,103.01599884033203 210.56399536132812,123.96800231933594 186.427001953125,120.43499755859375"></path></g></g><g clip-path="url(#__lottie_element_56)" style="display: none;" transform="matrix(1,0,0,1,80,0)" opacity="1"><g style="display: block;" transform="matrix(0.9671745896339417,0,0,0.9671745896339417,1.5967178344726562,-50.763458251953125)" opacity="1"><g opacity="1" transform="matrix(1,0,0,1,0,0)"></g><g opacity="1" transform="matrix(1,0,0,1,76.7699966430664,73.08000183105469)"><path fill="rgb(255,0,0)" fill-opacity="1" d=" M-0.4942660927772522,7.0874857902526855 C-0.9301944375038147,7.120473384857178 -1.1353731155395508,7.060085773468018 -1.4373797178268433,6.745956897735596 C-4.477217674255371,3.5786261558532715 -8.219573020935059,1.259591817855835 -8.206467628479004,-1.6302062273025513 C-8.188324928283691,-5.6144795417785645 -2.788578510284424,-7.662058353424072 -0.05847310647368431,-2.0778279304504395 C3.1686577796936035,-7.716490745544434 8.2205810546875,-4.958160877227783 8.2205810546875,-1.559631109237671 C8.2205810546875,0.900981605052948 4.8342366218566895,3.2879621982574463 0.8132179379463196,6.577030181884766 C0.3636607229709625,6.945138931274414 0.09809457510709763,7.042510032653809 -0.4942660927772522,7.0874857902526855z"></path><path stroke-linecap="butt" stroke-linejoin="round" fill-opacity="0" stroke="rgb(174,11,11)" stroke-opacity="1" stroke-width="14" d=" M-0.4942660927772522,7.0874857902526855 C-0.9301944375038147,7.120473384857178 -1.1353731155395508,7.060085773468018 -1.4373797178268433,6.745956897735596 C-4.477217674255371,3.5786261558532715 -8.219573020935059,1.259591817855835 -8.206467628479004,-1.6302062273025513 C-8.188324928283691,-5.6144795417785645 -2.788578510284424,-7.662058353424072 -0.05847310647368431,-2.0778279304504395 C3.1686577796936035,-7.716490745544434 8.2205810546875,-4.958160877227783 8.2205810546875,-1.559631109237671 C8.2205810546875,0.900981605052948 4.8342366218566895,3.2879621982574463 0.8132179379463196,6.577030181884766 C0.3636607229709625,6.945138931274414 0.09809457510709763,7.042510032653809 -0.4942660927772522,7.0874857902526855z"></path></g></g><g style="display: block;" transform="matrix(0.9671745896339417,0,0,0.9671745896339417,1.5967178344726562,-50.763458251953125)" opacity="1"><g opacity="1" transform="matrix(1,0,0,1,76.7699966430664,73.08000183105469)"><path fill="rgb(255,0,0)" fill-opacity="1" d=" M-0.4942660927772522,7.0874857902526855 C-0.9301944375038147,7.120473384857178 -1.1353731155395508,7.060085773468018 -1.4373797178268433,6.745956897735596 C-4.477217674255371,3.5786261558532715 -8.219573020935059,1.259591817855835 -8.206467628479004,-1.6302062273025513 C-8.188324928283691,-5.6144795417785645 -2.788578510284424,-7.662058353424072 -0.05847310647368431,-2.0778279304504395 C3.1686577796936035,-7.716490745544434 8.2205810546875,-4.958160877227783 8.2205810546875,-1.559631109237671 C8.2205810546875,0.900981605052948 4.8342366218566895,3.2879621982574463 0.8132179379463196,6.577030181884766 C0.3636607229709625,6.945138931274414 0.09809457510709763,7.042510032653809 -0.4942660927772522,7.0874857902526855z"></path></g></g><g style="display: block;" transform="matrix(0.9671745896339417,0,0,0.9671745896339417,0.6295432448387146,-47.861934661865234)" opacity="1"><g opacity="1" transform="matrix(1,0,0,1,76.7699966430664,73.08000183105469)"><path stroke-linecap="round" stroke-linejoin="round" fill-opacity="0" stroke="rgb(255,255,255)" stroke-opacity="1" stroke-width="6.694051307805848" d=" M-4.88100004196167,-4.723999977111816 C-4.775000095367432,-5.578000068664551 -4.050000190734863,-6.163000106811523 -3.249000072479248,-6.093999862670898"></path></g></g><g style="display: block;" transform="matrix(0.9671745896339417,0,0,0.9671745896339417,1.5967178344726562,-50.763458251953125)" opacity="1"><g opacity="1" transform="matrix(1,0,0,1,76.2699966430664,68.08000183105469)"><path stroke-linecap="round" stroke-linejoin="round" fill-opacity="0" stroke="rgb(255,108,75)" stroke-opacity="1" stroke-width="6.683906433323999" d=" M5.690999984741211,5.074999809265137 C5.454999923706055,6.668000221252441 3.0329999923706055,8.246999740600586 0.3630000054836273,10.49899959564209"></path></g></g></g><g clip-path="url(#__lottie_element_40)" style="display: block;" transform="matrix(1,0,0,1,80,0)" opacity="1"><g style="display: block;" transform="matrix(1,0,0,1,-0.9249954223632812,401.8593444824219)" opacity="1"><g opacity="1" transform="matrix(1,0,0,1,0,0)"></g><g opacity="1" transform="matrix(1,0,0,1,76.7699966430664,73.08000183105469)"><path fill="rgb(255,0,0)" fill-opacity="1" d=" M-0.49560365080833435,7.105822563171387 C-0.9324501156806946,7.138806343078613 -1.137998342514038,7.0782976150512695 -1.4406341314315796,6.763501167297363 C-4.488259315490723,3.5879147052764893 -8.240446090698242,1.262912631034851 -8.227306365966797,-1.634346604347229 C-8.209118843078613,-5.6287384033203125 -2.7956576347351074,-7.681515216827393 -0.05862143635749817,-2.083103895187378 C3.1767022609710693,-7.736083030700684 8.241456031799316,-4.970752239227295 8.241456031799316,-1.5635912418365479 C8.241456031799316,0.903484046459198 4.845911502838135,3.29672908782959 0.8142268657684326,6.594597339630127 C0.3638678789138794,6.963366985321045 0.09781070053577423,7.060854434967041 -0.49560365080833435,7.105822563171387z"></path><path stroke-linecap="butt" stroke-linejoin="round" fill-opacity="0" stroke="rgb(174,11,11)" stroke-opacity="1" stroke-width="14" d=" M-0.49560365080833435,7.105822563171387 C-0.9324501156806946,7.138806343078613 -1.137998342514038,7.0782976150512695 -1.4406341314315796,6.763501167297363 C-4.488259315490723,3.5879147052764893 -8.240446090698242,1.262912631034851 -8.227306365966797,-1.634346604347229 C-8.209118843078613,-5.6287384033203125 -2.7956576347351074,-7.681515216827393 -0.05862143635749817,-2.083103895187378 C3.1767022609710693,-7.736083030700684 8.241456031799316,-4.970752239227295 8.241456031799316,-1.5635912418365479 C8.241456031799316,0.903484046459198 4.845911502838135,3.29672908782959 0.8142268657684326,6.594597339630127 C0.3638678789138794,6.963366985321045 0.09781070053577423,7.060854434967041 -0.49560365080833435,7.105822563171387z"></path></g></g><g style="display: block;" transform="matrix(1,0,0,1,-0.9249954223632812,401.8593444824219)" opacity="1"><g opacity="1" transform="matrix(1,0,0,1,76.7699966430664,73.08000183105469)"><path fill="rgb(255,0,0)" fill-opacity="1" d=" M-0.49560365080833435,7.105822563171387 C-0.9324501156806946,7.138806343078613 -1.137998342514038,7.0782976150512695 -1.4406341314315796,6.763501167297363 C-4.488259315490723,3.5879147052764893 -8.240446090698242,1.262912631034851 -8.227306365966797,-1.634346604347229 C-8.209118843078613,-5.6287384033203125 -2.7956576347351074,-7.681515216827393 -0.05862143635749817,-2.083103895187378 C3.1767022609710693,-7.736083030700684 8.241456031799316,-4.970752239227295 8.241456031799316,-1.5635912418365479 C8.241456031799316,0.903484046459198 4.845911502838135,3.29672908782959 0.8142268657684326,6.594597339630127 C0.3638678789138794,6.963366985321045 0.09781070053577423,7.060854434967041 -0.49560365080833435,7.105822563171387z"></path></g></g><g style="display: block;" transform="matrix(1,0,0,1,-1.9249954223632812,404.8593444824219)" opacity="1"><g opacity="1" transform="matrix(1,0,0,1,76.7699966430664,73.08000183105469)"><path stroke-linecap="round" stroke-linejoin="round" fill-opacity="0" stroke="rgb(255,255,255)" stroke-opacity="1" stroke-width="6.7017580729733695" d=" M-4.890999794006348,-4.775000095367432 C-4.763999938964844,-5.60699987411499 -4.046999931335449,-6.171999931335449 -3.257999897003174,-6.104000091552734"></path></g></g><g style="display: block;" transform="matrix(1,0,0,1,-0.9249954223632812,401.8593444824219)" opacity="1"><g opacity="1" transform="matrix(1,0,0,1,76.2699966430664,68.08000183105469)"><path stroke-linecap="round" stroke-linejoin="round" fill-opacity="0" stroke="rgb(255,108,75)" stroke-opacity="1" stroke-width="6.688722980915102" d=" M5.728000164031982,4.816999912261963 C5.728000164031982,6.464000225067139 3.2990000247955322,8.057999610900879 0.5569999814033508,10.350000381469727"></path></g></g></g><g clip-path="url(#__lottie_element_24)" style="display: block;" transform="matrix(1,0,0,1,280,0)" opacity="1"><g style="display: block;" transform="matrix(0.9104092121124268,0,0,0.9104092121124268,5.957550048828125,82.39608001708984)" opacity="1"><g opacity="1" transform="matrix(1,0,0,1,0,0)"></g><g opacity="1" transform="matrix(1,0,0,1,76.7699966430664,73.08000183105469)"><path fill="rgb(255,0,0)" fill-opacity="1" d=" M-1.5360000133514404,21.368999481201172 C-2.687000036239624,21.39900016784668 -3.180000066757202,21.243999481201172 -3.9719998836517334,20.40999984741211 C-13.07699966430664,10.812999725341797 -24.47599983215332,3.8459999561309814 -24.437000274658203,-4.855000019073486 C-24.384000778198242,-16.719999313354492 -8.302000045776367,-22.81599998474121 -0.17399999499320984,-6.186999797821045 C9.434000015258789,-22.97599983215332 24.479000091552734,-14.765000343322754 24.479000091552734,-4.644000053405762 C24.479000091552734,2.8499999046325684 13.927000045776367,10.116000175476074 1.5989999771118164,20.259000778198242 C0.5249999761581421,21.142000198364258 -0.12300000339746475,21.329999923706055 -1.5360000133514404,21.368999481201172z"></path><path stroke-linecap="butt" stroke-linejoin="round" fill-opacity="0" stroke="rgb(174,11,11)" stroke-opacity="1" stroke-width="14" d=" M-1.5360000133514404,21.368999481201172 C-2.687000036239624,21.39900016784668 -3.180000066757202,21.243999481201172 -3.9719998836517334,20.40999984741211 C-13.07699966430664,10.812999725341797 -24.47599983215332,3.8459999561309814 -24.437000274658203,-4.855000019073486 C-24.384000778198242,-16.719999313354492 -8.302000045776367,-22.81599998474121 -0.17399999499320984,-6.186999797821045 C9.434000015258789,-22.97599983215332 24.479000091552734,-14.765000343322754 24.479000091552734,-4.644000053405762 C24.479000091552734,2.8499999046325684 13.927000045776367,10.116000175476074 1.5989999771118164,20.259000778198242 C0.5249999761581421,21.142000198364258 -0.12300000339746475,21.329999923706055 -1.5360000133514404,21.368999481201172z"></path></g></g><g style="display: block;" transform="matrix(0.9104092121124268,0,0,0.9104092121124268,5.957550048828125,82.39608001708984)" opacity="1"><g opacity="1" transform="matrix(1,0,0,1,76.7699966430664,73.08000183105469)"><path fill="rgb(255,0,0)" fill-opacity="1" d=" M-1.5360000133514404,21.368999481201172 C-2.687000036239624,21.39900016784668 -3.180000066757202,21.243999481201172 -3.9719998836517334,20.40999984741211 C-13.07699966430664,10.812999725341797 -24.47599983215332,3.8459999561309814 -24.437000274658203,-4.855000019073486 C-24.384000778198242,-16.719999313354492 -8.302000045776367,-22.81599998474121 -0.17399999499320984,-6.186999797821045 C9.434000015258789,-22.97599983215332 24.479000091552734,-14.765000343322754 24.479000091552734,-4.644000053405762 C24.479000091552734,2.8499999046325684 13.927000045776367,10.116000175476074 1.5989999771118164,20.259000778198242 C0.5249999761581421,21.142000198364258 -0.12300000339746475,21.329999923706055 -1.5360000133514404,21.368999481201172z"></path></g></g><g style="display: block;" transform="matrix(0.9104092121124268,0,0,0.9104092121124268,5.047141075134277,85.12730407714844)" opacity="1"><g opacity="1" transform="matrix(1,0,0,1,76.7699966430664,73.08000183105469)"><path stroke-linecap="round" stroke-linejoin="round" fill-opacity="0" stroke="rgb(255,255,255)" stroke-opacity="1" stroke-width="12" d=" M-17.99799919128418,-7.484000205993652 C-17.611000061035156,-11.102999687194824 -14.76200008392334,-13.680000305175781 -11.45300006866455,-13.79699993133545"></path></g></g><g style="display: block;" transform="matrix(0.9104092121124268,0,0,0.9104092121124268,5.957550048828125,82.39608001708984)" opacity="1"><g opacity="1" transform="matrix(1,0,0,1,76.2699966430664,68.08000183105469)"><path stroke-linecap="round" stroke-linejoin="round" fill-opacity="0" stroke="rgb(255,108,75)" stroke-opacity="1" stroke-width="10" d=" M19.378000259399414,0.3790000081062317 C19.378000259399414,6.4629998207092285 10.404999732971191,12.35200023651123 0.2750000059604645,20.81399917602539"></path></g></g></g><g clip-path="url(#__lottie_element_8)" style="display: none;"><g style="display: none;"><g></g><g><path></path><path stroke-linecap="butt" stroke-linejoin="round" fill-opacity="0"></path></g></g><g style="display: none;"><g><path></path></g></g><g style="display: none;"><g><path stroke-linecap="round" stroke-linejoin="round" fill-opacity="0"></path></g></g><g style="display: none;"><g><path stroke-linecap="round" stroke-linejoin="round" fill-opacity="0"></path></g></g></g></g></g></svg>