<svg xmlns="http://www.w3.org/2000/svg" xmlns:xlink="http://www.w3.org/1999/xlink" viewBox="0 0 512 512" width="512" height="512" style="width: 100%; height: 100%; transform: translate3d(0,0,0); content-visibility: visible;" preserveAspectRatio="xMidYMid meet"><defs><clipPath id="__lottie_element_2"><rect width="512" height="512" x="0" y="0"></rect></clipPath><linearGradient id="__lottie_element_142" spreadMethod="pad" gradientUnits="userSpaceOnUse" x1="42.279945373535156" y1="-32.682220458984375" x2="294.06439208984375" y2="25.726238250732422"><stop offset="20%" stop-color="rgb(43,170,226)"></stop><stop offset="20%" stop-color="rgb(149,212,240)"></stop><stop offset="20%" stop-color="rgb(255,255,255)"></stop><stop offset="35%" stop-color="rgb(255,255,255)"></stop><stop offset="50%" stop-color="rgb(255,255,255)"></stop><stop offset="50%" stop-color="rgb(149,212,240)"></stop><stop offset="50%" stop-color="rgb(43,170,226)"></stop><stop offset="55%" stop-color="rgb(43,170,226)"></stop><stop offset="60%" stop-color="rgb(43,170,226)"></stop><stop offset="60%" stop-color="rgb(149,212,240)"></stop><stop offset="60%" stop-color="rgb(255,255,255)"></stop><stop offset="70%" stop-color="rgb(255,255,255)"></stop><stop offset="80%" stop-color="rgb(255,255,255)"></stop><stop offset="80%" stop-color="rgb(149,212,240)"></stop><stop offset="80%" stop-color="rgb(43,170,226)"></stop></linearGradient></defs><g clip-path="url(#__lottie_element_2)"><g style="display: block;" transform="matrix(1,0,0,1,256,256)" opacity="1"><g opacity="1" transform="matrix(1,0,0,1,-47.86199951171875,248.38999938964844)"><path fill="rgb(255,255,255)" fill-opacity="1" d=" M199.13800048828125,-7.139999866485596 C199.13800048828125,-7.139999866485596 221.91900634765625,1.4500000476837158 221.91900634765625,1.4500000476837158 C221.91900634765625,1.4500000476837158 297.63800048828125,6.5289998054504395 297.63800048828125,6.5289998054504395 C297.63800048828125,6.5289998054504395 -199.13800048828125,6.639999866485596 -199.13800048828125,6.639999866485596 C-199.13800048828125,6.639999866485596 -199.13800048828125,-7.139999866485596 -199.13800048828125,-7.139999866485596 C-199.13800048828125,-7.139999866485596 199.13800048828125,-7.139999866485596 199.13800048828125,-7.139999866485596z"></path></g></g><g style="display: block;" transform="matrix(1,0,0,1,256,258)" opacity="1"><g opacity="1" transform="matrix(1,0,0,1,0,0)"><path fill="rgb(189,234,255)" fill-opacity="1" d=" M-249,249 C-249,249 -249,230 -249,230 C-249,230 -225.47300720214844,214.17599487304688 -225.47300720214844,214.17599487304688 C-225.47300720214844,214.17599487304688 -163,213 -163,213 C-163,213 -163,195.5 -163,195.5 C-163,195.5 -137,173.5 -137,173.5 C-137,173.5 136.9040069580078,174.29200744628906 136.9040069580078,174.29200744628906 C136.9040069580078,174.29200744628906 166,195.5 166,195.5 C166,195.5 166,227 166,227 C166,227 219.46800231933594,226.04100036621094 219.46800231933594,226.04100036621094 C219.46800231933594,226.04100036621094 250,248.5 250,248.5"></path><path stroke-linecap="round" stroke-linejoin="round" fill-opacity="0" stroke="rgb(189,234,255)" stroke-opacity="1" stroke-width="8" d=" M-249,249 C-249,249 -249,230 -249,230 C-249,230 -225.47300720214844,214.17599487304688 -225.47300720214844,214.17599487304688 C-225.47300720214844,214.17599487304688 -163,213 -163,213 C-163,213 -163,195.5 -163,195.5 C-163,195.5 -137,173.5 -137,173.5 C-137,173.5 136.9040069580078,174.29200744628906 136.9040069580078,174.29200744628906 C136.9040069580078,174.29200744628906 166,195.5 166,195.5 C166,195.5 166,227 166,227 C166,227 219.46800231933594,226.04100036621094 219.46800231933594,226.04100036621094 C219.46800231933594,226.04100036621094 250,248.5 250,248.5"></path></g></g><g style="display: block;" transform="matrix(1,0,0,1,256,258)" opacity="1"><g opacity="1" transform="matrix(1,0,0,1,0,0)"><path fill="rgb(255,255,255)" fill-opacity="1" d=" M-249,249.25 C-249,249.25 -249,230 -249,230 C-249,230 -163,230 -163,230 C-163,230 -163,195.5 -163,195.5 C-163,195.5 166,195.5 166,195.5 C166,195.5 166,249 166,249 C166,249 222,249 250,249"></path><path stroke-linecap="round" stroke-linejoin="round" fill-opacity="0" stroke="rgb(155,222,255)" stroke-opacity="1" stroke-width="8" d=" M-249,249.25 C-249,249.25 -249,230 -249,230 C-249,230 -163,230 -163,230 C-163,230 -163,195.5 -163,195.5 C-163,195.5 166,195.5 166,195.5 C166,195.5 166,249 166,249 C166,249 222,249 250,249"></path></g></g><g style="display: none;" transform="matrix(-1.038916826248169,-0.08509080111980438,-0.07574512809515,0.9554020166397095,252.42889404296875,227.59771728515625)" opacity="1"><g opacity="1" transform="matrix(1,0,0,1,0,0)"><path stroke-linecap="round" stroke-linejoin="round" fill-opacity="0" stroke="rgb(255,123,23)" stroke-opacity="1" stroke-width="20" d=" M-200.16932678222656,-86.8910903930664 C-200.16932678222656,-86.8910903930664 -182.076904296875,-64 -182.076904296875,-64 C-182.076904296875,-64 -185.12550354003906,-43 -185.12550354003906,-43 C-185.12550354003906,-43 -167.5772247314453,-36.81584167480469 -167.5772247314453,-36.81584167480469 C-167.5772247314453,-36.81584167480469 -175.36026000976562,-45 -175.36026000976562,-45 C-175.36026000976562,-45 -167.33836364746094,-81.48014068603516 -167.33836364746094,-81.48014068603516 C-167.33836364746094,-81.48014068603516 -200.16932678222656,-86.8910903930664 -200.16932678222656,-86.8910903930664z"></path><path fill="rgb(254,216,33)" fill-opacity="1" d=" M-200.16932678222656,-86.8910903930664 C-200.16932678222656,-86.8910903930664 -182.076904296875,-64 -182.076904296875,-64 C-182.076904296875,-64 -185.12550354003906,-43 -185.12550354003906,-43 C-185.12550354003906,-43 -167.5772247314453,-36.81584167480469 -167.5772247314453,-36.81584167480469 C-167.5772247314453,-36.81584167480469 -175.36026000976562,-45 -175.36026000976562,-45 C-175.36026000976562,-45 -167.33836364746094,-81.48014068603516 -167.33836364746094,-81.48014068603516 C-167.33836364746094,-81.48014068603516 -200.16932678222656,-86.8910903930664 -200.16932678222656,-86.8910903930664z"></path></g></g><g style="display: block;" transform="matrix(0.4479241371154785,-0.43144717812538147,0.8172772526741028,0.8484890460968018,601.6145629882812,229.65878295898438)" opacity="1"><g opacity="1" transform="matrix(1,0,0,1,-205.572998046875,-199.572998046875)"><path fill="rgb(255,0,225)" fill-opacity="1" d=" M0,-12.927000045776367 C7.138999938964844,-12.927000045776367 12.927000045776367,-7.138999938964844 12.927000045776367,0 C12.927000045776367,7.138999938964844 7.138999938964844,12.927000045776367 0,12.927000045776367 C-7.138999938964844,12.927000045776367 -12.927000045776367,7.138999938964844 -12.927000045776367,0 C-12.927000045776367,-7.138999938964844 -7.138999938964844,-12.927000045776367 0,-12.927000045776367z"></path></g></g><g style="display: block;" transform="matrix(-1.0704076290130615,0.18785525858402252,0.12328733503818512,0.7024967670440674,264.04608154296875,462.6336364746094)" opacity="1"><g opacity="1" transform="matrix(1,0,0,1,-205.572998046875,-199.572998046875)"><path fill="rgb(253,255,0)" fill-opacity="1" d=" M0,-12.927000045776367 C7.138999938964844,-12.927000045776367 12.927000045776367,-7.138999938964844 12.927000045776367,0 C12.927000045776367,7.138999938964844 7.138999938964844,12.927000045776367 0,12.927000045776367 C-7.138999938964844,12.927000045776367 -12.927000045776367,7.138999938964844 -12.927000045776367,0 C-12.927000045776367,-7.138999938964844 -7.138999938964844,-12.927000045776367 0,-12.927000045776367z"></path></g></g><g style="display: block;" transform="matrix(-0.9292066097259521,0.484100878238678,0.3475690484046936,0.6671408414840698,295.7726135253906,446.328857421875)" opacity="1"><g opacity="1" transform="matrix(1,0,0,1,-205.572998046875,-199.572998046875)"><path fill="rgb(253,255,0)" fill-opacity="1" d=" M0,-12.927000045776367 C7.138999938964844,-12.927000045776367 12.927000045776367,-7.138999938964844 12.927000045776367,0 C12.927000045776367,7.138999938964844 7.138999938964844,12.927000045776367 0,12.927000045776367 C-7.138999938964844,12.927000045776367 -12.927000045776367,7.138999938964844 -12.927000045776367,0 C-12.927000045776367,-7.138999938964844 -7.138999938964844,-12.927000045776367 0,-12.927000045776367z"></path></g></g><g style="display: block;" transform="matrix(-0.6903461217880249,-0.02045358344912529,-0.032853446900844574,1.1088643074035645,-50.046173095703125,613.7857666015625)" opacity="1"><g opacity="1" transform="matrix(1,0,0,1,-205.572998046875,-199.572998046875)"><path fill="rgb(0,198,255)" fill-opacity="1" d=" M0,-12.927000045776367 C7.138999938964844,-12.927000045776367 12.927000045776367,-7.138999938964844 12.927000045776367,0 C12.927000045776367,7.138999938964844 7.138999938964844,12.927000045776367 0,12.927000045776367 C-7.138999938964844,12.927000045776367 -12.927000045776367,7.138999938964844 -12.927000045776367,0 C-12.927000045776367,-7.138999938964844 -7.138999938964844,-12.927000045776367 0,-12.927000045776367z"></path></g></g><g style="display: block;" transform="matrix(0.9799907207489014,0.004440936725586653,-0.004266782198101282,1.01999032497406,306.22247314453125,215.48654174804688)" opacity="1"><path stroke-linecap="butt" stroke-linejoin="miter" fill-opacity="0" stroke-miterlimit="4" stroke="rgb(250,144,22)" stroke-opacity="1" stroke-width="20" d=" M-171.42799377441406,107.70500183105469 C-184.52499389648438,123.0530014038086 -201.625,105.40599822998047 -208.6199951171875,113.64600372314453 C-217.5,124.10700225830078 -227.99099731445312,173.6909942626953 -197.49099731445312,205.5679931640625 C-170.35899353027344,233.9250030517578 -159.22500610351562,93.40499877929688 -171.42799377441406,107.70500183105469z"></path><g opacity="1" transform="matrix(1,0,0,1,0,0)"><path fill="rgb(250,144,22)" fill-opacity="1" d=" M-171.42799377441406,107.70500183105469 C-184.52499389648438,123.0530014038086 -201.625,105.40599822998047 -208.6199951171875,113.64600372314453 C-217.5,124.10700225830078 -227.99099731445312,173.6909942626953 -197.49099731445312,205.5679931640625 C-170.35899353027344,233.9250030517578 -159.22500610351562,93.40499877929688 -171.42799377441406,107.70500183105469z"></path><path stroke-linecap="butt" stroke-linejoin="miter" fill-opacity="0" stroke-miterlimit="4" stroke="rgb(250,144,22)" stroke-opacity="1" stroke-width="20" d=" M-171.42799377441406,107.70500183105469 C-184.52499389648438,123.0530014038086 -201.625,105.40599822998047 -208.6199951171875,113.64600372314453 C-217.5,124.10700225830078 -227.99099731445312,173.6909942626953 -197.49099731445312,205.5679931640625 C-170.35899353027344,233.9250030517578 -159.22500610351562,93.40499877929688 -171.42799377441406,107.70500183105469z"></path></g></g><g style="display: block;" transform="matrix(0.9798384308815002,-0.018523072823882103,-0.017796678468585014,-1.0198317766189575,394.90264892578125,307.6985778808594)" opacity="1"><g opacity="1" transform="matrix(1,0,0,1,0,0)"><path fill="rgb(254,216,32)" fill-opacity="1" d=" M-22.822622299194336,-22.152231216430664 C28.6851863861084,-29.156824111938477 49.78892517089844,21.331586837768555 48.292144775390625,46.298397064208984 C46.9275016784668,72.19055938720703 32.904239654541016,74.88873291015625 23.44156837463379,56.5185432434082 C17.219253540039062,45.34065628051758 4.836999893188477,15.842000007629395 -17.43899917602539,39.680999755859375"></path><path stroke-linecap="round" stroke-linejoin="round" fill-opacity="0" stroke="rgb(250,144,22)" stroke-opacity="1" stroke-width="10.204" d=" M-22.822622299194336,-22.152231216430664 C28.6851863861084,-29.156824111938477 49.78892517089844,21.331586837768555 48.292144775390625,46.298397064208984 C46.9275016784668,72.19055938720703 32.904239654541016,74.88873291015625 23.44156837463379,56.5185432434082 C17.219253540039062,45.34065628051758 4.836999893188477,15.842000007629395 -17.43899917602539,39.680999755859375"></path></g></g><g style="display: block;" transform="matrix(0.9799907207489014,0.004440936725586653,-0.004266782198101282,1.01999032497406,246.3924102783203,344.4567565917969)" opacity="1"><g opacity="1" transform="matrix(1,0,0,1,0,0)"><path stroke-linecap="butt" stroke-linejoin="miter" fill-opacity="0" stroke-miterlimit="10" stroke="rgb(250,144,22)" stroke-opacity="1" stroke-width="20" d=" M0.11795266717672348,99.48709869384766 C-79.45571899414062,100.9736328125 -176.97805786132812,107.26136016845703 -174.77191162109375,42.109947204589844 C-174.64190673828125,-76.89065551757812 -65.1760025024414,-104.29399871826172 -3.944999933242798,-104.29399871826172 C78.06999969482422,-104.29399871826172 163.52877807617188,-81.89156341552734 173.66700744628906,34.441951751708984 C179.54478454589844,94.96870422363281 90.78199005126953,98.11482238769531 0.11795266717672348,99.48709869384766z"></path></g></g><g style="display: block;" transform="matrix(0.9799907207489014,0.004440936725586653,-0.004266782198101282,1.01999032497406,306.22247314453125,215.48654174804688)" opacity="1"><g opacity="1" transform="matrix(1,0,0,1,0,0)"><path fill="rgb(254,216,33)" fill-opacity="1" d=" M-171.42799377441406,107.70500183105469 C-184.52499389648438,123.0530014038086 -201.625,105.40599822998047 -208.6199951171875,113.64600372314453 C-217.5,124.10700225830078 -227.99099731445312,173.6909942626953 -197.49099731445312,205.5679931640625 C-170.35899353027344,233.9250030517578 -159.22500610351562,93.40499877929688 -171.42799377441406,107.70500183105469z"></path></g></g><g style="display: block;" transform="matrix(0.9799907207489014,0.004440936725586653,-0.004266782198101282,1.01999032497406,246.3924102783203,344.4567565917969)" opacity="1"><g opacity="1" transform="matrix(1,0,0,1,0,0)"><path fill="rgb(254,216,32)" fill-opacity="1" d=" M0.11795266717672348,99.48709869384766 C-79.45571899414062,100.9736328125 -176.97805786132812,107.26136016845703 -174.77191162109375,42.109947204589844 C-174.64190673828125,-76.89065551757812 -65.1760025024414,-104.29399871826172 -3.944999933242798,-104.29399871826172 C78.06999969482422,-104.29399871826172 163.52877807617188,-81.89156341552734 173.66700744628906,34.441951751708984 C179.54478454589844,94.96870422363281 90.78199005126953,98.11482238769531 0.11795266717672348,99.48709869384766z"></path></g></g><g style="display: block;" transform="matrix(1.0338380336761475,0.23137864470481873,-0.20464709401130676,0.9905650019645691,426.9764404296875,406.0504455566406)" opacity="1"><g opacity="1" transform="matrix(1,0,0,1,35.6879997253418,48.13999938964844)"><path stroke-linecap="round" stroke-linejoin="round" fill-opacity="0" stroke="rgb(255,255,255)" stroke-opacity="1" stroke-width="8" d=" M-65.21800231933594,-52.02000045776367 C-59.53499984741211,-66.27799987792969 -67.30400085449219,-102.76599884033203 -92.61599731445312,-130.61300659179688"></path></g></g><g style="display: block;" transform="matrix(0.9799907207489014,0.004440936725586653,-0.004266782198101282,1.01999032497406,251.83338928222656,377.02685546875)" opacity="1"><g opacity="1" transform="matrix(1,0,0,1,0,0)"><path fill="rgb(255,255,255)" fill-opacity="1" d=" M49.308998107910156,0 C49.308998107910156,27.232999801635742 27.232999801635742,49.308998107910156 0,49.308998107910156 C-27.232999801635742,49.308998107910156 -49.308998107910156,27.232999801635742 -49.308998107910156,0 C-49.308998107910156,-27.232999801635742 -27.232999801635742,-49.308998107910156 0,-49.308998107910156 C27.232999801635742,-49.308998107910156 49.308998107910156,-27.232999801635742 49.308998107910156,0z"></path></g></g><g style="display: block;" transform="matrix(0.9799907207489014,0.004440936725586653,-0.004266782198101282,1.01999032497406,251.83338928222656,377.02685546875)" opacity="1"><g opacity="1" transform="matrix(1,0,0,1,0,0)"><path fill="rgb(0,0,0)" fill-opacity="1" d=" M8.069000244140625,19.597000122070312 C8.069000244140625,19.597000122070312 17.785999298095703,19.600000381469727 17.785999298095703,19.600000381469727 C23.80299949645996,19.601999282836914 23.798999786376953,32.37699890136719 17.781999588012695,32.375 C17.781999588012695,32.375 -17.604999542236328,32.36399841308594 -17.604999542236328,32.36399841308594 C-23.863000869750977,32.36199951171875 -23.858999252319336,19.586999893188477 -17.60099983215332,19.589000701904297 C-17.60099983215332,19.589000701904297 -6.445000171661377,19.591999053955078 -6.445000171661377,19.591999053955078 C-6.445000171661377,19.591999053955078 -6.439000129699707,1.0820000171661377 -6.439000129699707,1.0820000171661377 C-6.439000129699707,1.0820000171661377 -6.433000087738037,-18.040000915527344 -6.433000087738037,-18.040000915527344 C-6.433000087738037,-18.040000915527344 -13.151000022888184,-16.30299949645996 -13.151000022888184,-16.30299949645996 C-20.444000244140625,-14.461999893188477 -22.604999542236328,-25.503000259399414 -16.266000747680664,-27.34000015258789 C-1.2139999866485596,-31.461000442504883 -0.492000013589859,-31.698999404907227 1.6679999828338623,-32.132999420166016 C6.486000061035156,-33.08700180053711 8.085000038146973,-31.216999053955078 8.083999633789062,-26.61199951171875 C8.083999633789062,-26.61199951171875 8.074999809265137,2.9630000591278076 8.074999809265137,2.9630000591278076 C8.074999809265137,2.9630000591278076 8.069000244140625,19.597000122070312 8.069000244140625,19.597000122070312z"></path></g></g><g style="display: block;" transform="matrix(1.0338380336761475,0.23137864470481873,-0.20464709401130676,0.9905650019645691,426.9764404296875,406.0504455566406)" opacity="1"><g opacity="1" transform="matrix(1,0,0,1,35.6879997253418,48.13999938964844)"><path stroke-linecap="round" stroke-linejoin="round" fill-opacity="0" stroke="rgb(252,238,33)" stroke-opacity="1" stroke-width="8" d=" M-361.8940124511719,-21.17300033569336 C-363.3680114746094,-44.823001861572266 -357.010009765625,-69.09300231933594 -350.8909912109375,-79.83499908447266"></path></g></g><g style="display: block;" transform="matrix(0.9661459922790527,-0.17090345919132233,0.16420136392116547,1.0055804252624512,243.21676635742188,169.82554626464844)" opacity="1"><g opacity="1" transform="matrix(1,0,0,1,0,0)"><path fill="rgb(254,216,32)" fill-opacity="1" d=" M-132.5919952392578,102.30699920654297 C-155.75,75.9739990234375 -166.2949981689453,42.691001892089844 -160.468994140625,6.583000183105469 C-148.0919952392578,-70.12300109863281 -66.35099792480469,-134.4080047607422 19.45400047302246,-120.56300354003906 C105.25800323486328,-106.71800231933594 162.6320037841797,-19.986000061035156 150.2550048828125,56.720001220703125 C144.41299438476562,92.92500305175781 123.87899780273438,121.0530014038086 93.97599792480469,138.64700317382812"></path><path stroke-linecap="round" stroke-linejoin="round" fill-opacity="0" stroke="rgb(250,144,22)" stroke-opacity="1" stroke-width="10" d=" M-132.5919952392578,102.30699920654297 C-155.75,75.9739990234375 -166.2949981689453,42.691001892089844 -160.468994140625,6.583000183105469 C-148.0919952392578,-70.12300109863281 -66.35099792480469,-134.4080047607422 19.45400047302246,-120.56300354003906 C105.25800323486328,-106.71800231933594 162.6320037841797,-19.986000061035156 150.2550048828125,56.720001220703125 C144.41299438476562,92.92500305175781 123.87899780273438,121.0530014038086 93.97599792480469,138.64700317382812"></path></g></g><g style="display: block;" transform="matrix(1.1602041721343994,0.005257595330476761,-0.005119420122355223,1.2238150835037231,-1.2116910219192505,349.2217102050781)" opacity="1"><path stroke-linecap="butt" stroke-linejoin="miter" fill-opacity="0" stroke-miterlimit="4" stroke="rgb(0,0,0)" stroke-opacity="1" stroke-width="5" d=" M145.92799377441406,-119.43900299072266 C156.34100341796875,-119.66699981689453 163.00799560546875,-116.1719970703125 165.63999938964844,-112.6729965209961 C167.31500244140625,-110.44599914550781 167.08200073242188,-108.73899841308594 165.9600067138672,-107.3949966430664 C164.81399536132812,-106.02200317382812 162.93899536132812,-106.31099700927734 161.1439971923828,-107.302001953125 C158.08099365234375,-108.99299621582031 153.65499877929688,-112.25599670410156 145.06900024414062,-112.12999725341797 C136.00799560546875,-111.99700164794922 131.7469940185547,-108.21499633789062 128.63999938964844,-106.74199676513672 C126.68699645996094,-105.81600189208984 124.72000122070312,-105.36000061035156 123.49099731445312,-107.302001953125 C122.20600128173828,-109.33200073242188 122.83300018310547,-111.39399719238281 125.06500244140625,-113.38099670410156 C128.36000061035156,-116.31500244140625 135.24400329589844,-119.20600128173828 145.92799377441406,-119.43900299072266z"></path><g opacity="1" transform="matrix(1,0,0,1,0,0)"><path fill="rgb(0,0,0)" fill-opacity="1" d=" M145.92799377441406,-119.43900299072266 C156.34100341796875,-119.66699981689453 163.00799560546875,-116.1719970703125 165.63999938964844,-112.6729965209961 C167.31500244140625,-110.44599914550781 167.08200073242188,-108.73899841308594 165.9600067138672,-107.3949966430664 C164.81399536132812,-106.02200317382812 162.93899536132812,-106.31099700927734 161.1439971923828,-107.302001953125 C158.08099365234375,-108.99299621582031 153.65499877929688,-112.25599670410156 145.06900024414062,-112.12999725341797 C136.00799560546875,-111.99700164794922 131.7469940185547,-108.21499633789062 128.63999938964844,-106.74199676513672 C126.68699645996094,-105.81600189208984 124.72000122070312,-105.36000061035156 123.49099731445312,-107.302001953125 C122.20600128173828,-109.33200073242188 122.83300018310547,-111.39399719238281 125.06500244140625,-113.38099670410156 C128.36000061035156,-116.31500244140625 135.24400329589844,-119.20600128173828 145.92799377441406,-119.43900299072266z"></path></g></g><g style="display: block;" transform="matrix(0.9281632304191589,0.0042060790583491325,-0.004095533862709999,0.9790521264076233,174.08447265625,197.5185089111328)" opacity="1"><g opacity="1" transform="matrix(1,0,0,1,0,0)"><path fill="rgb(0,0,0)" fill-opacity="1" d=" M-8.324999809265137,13.142000198364258 C-6.165999889373779,16 -1.5479999780654907,17.31800079345703 1.9900000095367432,16.086000442504883 C5.5279998779296875,14.854000091552734 6.645999908447266,11.538000106811523 4.486999988555908,8.680000305175781 C2.328000068664551,5.822000026702881 -2.2899999618530273,4.504000186920166 -5.828000068664551,5.736000061035156 C-9.366000175476074,6.9679999351501465 -10.484000205993652,10.284000396728516 -8.324999809265137,13.142000198364258z"></path></g></g><g style="display: block;" transform="matrix(1.175849437713623,0.005328481085598469,-0.005119420122355223,1.2238150835037231,146.51141357421875,349.8911437988281)" opacity="1"><path stroke-linecap="butt" stroke-linejoin="miter" fill-opacity="0" stroke-miterlimit="4" stroke="rgb(0,0,0)" stroke-opacity="1" stroke-width="5" d=" M145.92799377441406,-119.43900299072266 C156.34100341796875,-119.66699981689453 163.00799560546875,-116.1719970703125 165.63999938964844,-112.6729965209961 C167.31500244140625,-110.44599914550781 167.08200073242188,-108.73899841308594 165.9600067138672,-107.3949966430664 C164.81399536132812,-106.02200317382812 162.93899536132812,-106.31099700927734 161.1439971923828,-107.302001953125 C158.08099365234375,-108.99299621582031 153.65499877929688,-112.25599670410156 145.06900024414062,-112.12999725341797 C136.00799560546875,-111.99700164794922 131.7469940185547,-108.21499633789062 128.63999938964844,-106.74199676513672 C126.68699645996094,-105.81600189208984 124.72000122070312,-105.36000061035156 123.49099731445312,-107.302001953125 C122.20600128173828,-109.33200073242188 122.83300018310547,-111.39399719238281 125.06500244140625,-113.38099670410156 C128.36000061035156,-116.31500244140625 135.24400329589844,-119.20600128173828 145.92799377441406,-119.43900299072266z"></path><g opacity="1" transform="matrix(1,0,0,1,0,0)"><path fill="rgb(0,0,0)" fill-opacity="1" d=" M145.92799377441406,-119.43900299072266 C156.34100341796875,-119.66699981689453 163.00799560546875,-116.1719970703125 165.63999938964844,-112.6729965209961 C167.31500244140625,-110.44599914550781 167.08200073242188,-108.73899841308594 165.9600067138672,-107.3949966430664 C164.81399536132812,-106.02200317382812 162.93899536132812,-106.31099700927734 161.1439971923828,-107.302001953125 C158.08099365234375,-108.99299621582031 153.65499877929688,-112.25599670410156 145.06900024414062,-112.12999725341797 C136.00799560546875,-111.99700164794922 131.7469940185547,-108.21499633789062 128.63999938964844,-106.74199676513672 C126.68699645996094,-105.81600189208984 124.72000122070312,-105.36000061035156 123.49099731445312,-107.302001953125 C122.20600128173828,-109.33200073242188 122.83300018310547,-111.39399719238281 125.06500244140625,-113.38099670410156 C128.36000061035156,-116.31500244140625 135.24400329589844,-119.20600128173828 145.92799377441406,-119.43900299072266z"></path></g></g><g style="display: block;" transform="matrix(0.9406794309616089,0.004262791480869055,-0.004095533862709999,0.9790521264076233,324.1628723144531,198.19859313964844)" opacity="1"><g opacity="1" transform="matrix(1,0,0,1,0,0)"><path fill="rgb(0,0,0)" fill-opacity="1" d=" M-8.324999809265137,13.142000198364258 C-6.165999889373779,16 -1.5479999780654907,17.31800079345703 1.9900000095367432,16.086000442504883 C5.5279998779296875,14.854000091552734 6.645999908447266,11.538000106811523 4.486999988555908,8.680000305175781 C2.328000068664551,5.822000026702881 -2.2899999618530273,4.504000186920166 -5.828000068664551,5.736000061035156 C-9.366000175476074,6.9679999351501465 -10.484000205993652,10.284000396728516 -8.324999809265137,13.142000198364258z"></path></g></g><g style="display: block;" transform="matrix(0.999992311000824,0.004531571175903082,-0.004183115437626839,0.9999883770942688,250.15408325195312,180.9880828857422)" opacity="0.75"><g opacity="1" transform="matrix(1,0,0,1,0,0)"><path fill="url(#__lottie_element_142)" fill-opacity="1" d=" M-134.5019989013672,-66.34200286865234 C-151.1909942626953,-52.659000396728516 -160.91099548339844,-31.12700080871582 -158.5330047607422,-8.053000450134277 C-153.82699584960938,37.61600112915039 -123.67872619628906,72.29318237304688 -74.73794555664062,67.25518035888672 C-29.57321548461914,62.60618591308594 -29.334095001220703,30.37944793701172 -2.2864954471588135,30.482210159301758 C25.51835823059082,30.617008209228516 23.82095718383789,62.60618591308594 69.60476684570312,67.25518035888672 C119.21634674072266,72.29318237304688 154.5050048828125,37.61600112915039 159.21099853515625,-8.053000450134277 C161.58900451660156,-31.12700080871582 151.86900329589844,-52.659000396728516 135.17999267578125,-66.34200286865234 C135.17999267578125,-66.34200286865234 -134.5019989013672,-66.34200286865234 -134.5019989013672,-66.34200286865234z"></path></g></g><g style="display: block;" transform="matrix(0.9799907207489014,0.004440936725586653,-0.004266782198101282,1.01999032497406,246.77108764648438,179.5845184326172)" opacity="1"><g opacity="1" transform="matrix(1,0,0,1,0.33899998664855957,0.10999999940395355)"><path stroke-linecap="round" stroke-linejoin="round" fill-opacity="0" stroke="rgb(255,255,255)" stroke-opacity="1" stroke-width="10" d=" M-134.84100341796875,-66.4520034790039 C-151.52999877929688,-52.76900100708008 -161.25,-31.23699951171875 -158.8719940185547,-8.163000106811523 C-154.16600036621094,37.50600051879883 -124.01862335205078,72.18318176269531 -75.07784271240234,67.14518737792969 C-29.913118362426758,62.496185302734375 -29.67319107055664,30.27035140991211 -2.625591993331909,30.37311363220215 C25.17926025390625,30.507911682128906 23.481956481933594,62.496185302734375 69.26576232910156,67.14518737792969 C118.8773422241211,72.18318176269531 154.16600036621094,37.50600051879883 158.8719940185547,-8.163000106811523 C161.25,-31.23699951171875 151.52999877929688,-52.76900100708008 134.84100341796875,-66.4520034790039 C134.84100341796875,-66.4520034790039 -134.84100341796875,-66.4520034790039 -134.84100341796875,-66.4520034790039z"></path></g></g><g style="display: block;" transform="matrix(0.9799907207489014,0.004440936725586653,-0.004266782198101282,1.01999032497406,247.11492919921875,139.32322692871094)" opacity="1"><g opacity="1" transform="matrix(1,0,0,1,0,0)"><path fill="rgb(174,6,6)" fill-opacity="1" d=" M-126.8443374633789,110.52994537353516 C-141.51564025878906,81.1419448852539 -139.1337127685547,47.5478515625 -135.54400634765625,27.647851943969727 C-131.84027099609375,7.116850852966309 -107.5709228515625,-1.708052396774292 -71.35231018066406,4.033947467803955 C-40.141536712646484,8.981947898864746 -20.67357063293457,11.38094711303711 -1.2672187089920044,11.309947967529297 C17.789125442504883,11.240947723388672 36.7868537902832,8.788947105407715 66.78485870361328,4.033947467803955 C103.00346374511719,-1.708052396774292 127.27281188964844,7.116850852966309 130.97654724121094,27.647851943969727 C134.56625366210938,47.546852111816406 134.84983825683594,81.06794738769531 119.0967025756836,110.41494750976562 C107.78813171386719,131.48194885253906 143.9010009765625,144.85800170898438 155.3990020751953,128.18099975585938 C169.2530059814453,108.08599853515625 177.13800048828125,82.86299896240234 177.13800048828125,52.02899932861328 C177.13800048828125,-45.80099868774414 97.83000183105469,-125.10900115966797 0,-125.10900115966797 C-97.83000183105469,-125.10900115966797 -177.13800048828125,-45.80099868774414 -177.13800048828125,52.02899932861328 C-177.13800048828125,82.86299896240234 -169.2530059814453,108.08599853515625 -155.3990020751953,128.18099975585938 C-143.64300537109375,145.23199462890625 -117.12135314941406,130.00595092773438 -126.8443374633789,110.52994537353516z"></path></g></g><g style="display: block;" transform="matrix(0.9799926280975342,0.004440946038812399,-0.0042667752131819725,1.0199881792068481,225.6263427734375,83.21148681640625)" opacity="1"><g opacity="1" transform="matrix(1,0,0,1,0,0)"><path fill="rgb(254,216,33)" fill-opacity="1" d=" M42.21790313720703,64.57853698730469 C35.443355560302734,10.542826652526855 32.7290153503418,-54.18370056152344 29.32349967956543,-69.55097198486328 C20.442848205566406,-69.86697387695312 0.2519029676914215,-68.69429779052734 -10.06896686553955,-67.89730072021484 C-12.398210525512695,-46.96916198730469 -7.381973743438721,20.547327041625977 -5.424562454223633,65.22843933105469 C-5.424562454223633,65.22843933105469 42.21790313720703,64.57853698730469 42.21790313720703,64.57853698730469z"></path></g></g><g style="display: block;" transform="matrix(0.9799926280975342,0.004440946038812399,-0.0042667752131819725,1.0199881792068481,272.97998046875,83.42607879638672)" opacity="1"><g opacity="1" transform="matrix(1,0,0,1,0,0)"><path fill="rgb(255,123,23)" fill-opacity="1" d=" M24.707895278930664,59.84308624267578 C19.21941566467285,4.179881572723389 16.147003173828125,-48.52806091308594 13.86358642578125,-65.76236724853516 C6.121585845947266,-65.76236724853516 6.943055629730225,-67.74557495117188 -2.0469443798065186,-66.94857788085938 C-2.9467341899871826,-40.84139633178711 0.8001347780227661,8.290955543518066 5.1168951988220215,62.29408645629883 C5.1168951988220215,62.29408645629883 24.707895278930664,59.84308624267578 24.707895278930664,59.84308624267578z"></path></g></g><g style="display: block;" transform="matrix(0.9799926280975342,0.004440946038812399,-0.0042667752131819725,1.0199881792068481,180.06069946289062,83.0049819946289)" opacity="1"><g opacity="1" transform="matrix(1,0,0,1,0,0)"><path fill="rgb(255,123,23)" fill-opacity="1" d=" M27.8964900970459,62.054237365722656 C22.36554527282715,4.104250431060791 21.8773250579834,-46.74364471435547 23.176984786987305,-63.87077331542969 C15.43498420715332,-63.87077331542969 16.25745391845703,-59.98207473754883 7.267453670501709,-59.18507385253906 C3.1787445545196533,-37.18093490600586 4.108935832977295,8.335927963256836 7.690463542938232,61.6163444519043 C7.690463542938232,61.6163444519043 27.8964900970459,62.054237365722656 27.8964900970459,62.054237365722656z"></path></g></g><g style="display: block;" transform="matrix(0.9799907207489014,0.004440936725586653,-0.004266782198101282,1.01999032497406,247.11492919921875,139.32322692871094)" opacity="1"><g opacity="1" transform="matrix(1,0,0,1,0,0)"><path stroke-linecap="round" stroke-linejoin="round" fill-opacity="0" stroke="rgb(122,3,3)" stroke-opacity="1" stroke-width="10" d=" M-126.8443374633789,110.52994537353516 C-141.51564025878906,81.1419448852539 -139.1337127685547,47.5478515625 -135.54400634765625,27.647851943969727 C-131.84027099609375,7.116850852966309 -107.5709228515625,-1.708052396774292 -71.35231018066406,4.033947467803955 C-40.141536712646484,8.981947898864746 -20.67357063293457,11.38094711303711 -1.2672187089920044,11.309947967529297 C17.789125442504883,11.240947723388672 36.7868537902832,8.788947105407715 66.78485870361328,4.033947467803955 C103.00346374511719,-1.708052396774292 127.27281188964844,7.116850852966309 130.97654724121094,27.647851943969727 C134.56625366210938,47.546852111816406 134.84983825683594,81.06794738769531 119.0967025756836,110.41494750976562 C107.78813171386719,131.48194885253906 143.9010009765625,144.85800170898438 155.3990020751953,128.18099975585938 C169.2530059814453,108.08599853515625 177.13800048828125,82.86299896240234 177.13800048828125,52.02899932861328 C177.13800048828125,-45.80099868774414 97.83000183105469,-125.10900115966797 0,-125.10900115966797 C-97.83000183105469,-125.10900115966797 -177.13800048828125,-45.80099868774414 -177.13800048828125,52.02899932861328 C-177.13800048828125,82.86299896240234 -169.2530059814453,108.08599853515625 -155.3990020751953,128.18099975585938 C-143.64300537109375,145.23199462890625 -117.12135314941406,130.00595092773438 -126.8443374633789,110.52994537353516z"></path></g></g><g style="display: block;" transform="matrix(0.9799907207489014,0.004440936725586653,-0.004266782198101282,1.01999032497406,247.11492919921875,139.32322692871094)" opacity="1"><g opacity="1" transform="matrix(1,0,0,1,0,0)"><path stroke-linecap="round" stroke-linejoin="round" fill-opacity="0" stroke-dasharray=" 370 20" stroke-dashoffset="0" stroke="rgb(95,2,2)" stroke-opacity="1" stroke-width="11" d=" M-131.81500244140625,98.66899871826172 C-140.86300659179688,72.4800033569336 -138.6580047607422,44.9109992980957 -135.54400634765625,27.648000717163086 C-131.84027099609375,7.116850852966309 -107.5709228515625,-1.708052396774292 -71.35231018066406,4.033947467803955 C-40.141536712646484,8.981947898864746 -20.67357063293457,11.38094711303711 -1.2672187089920044,11.309947967529297 C17.789125442504883,11.240947723388672 36.7868537902832,8.788947105407715 66.78485870361328,4.033947467803955 C103.00346374511719,-1.708052396774292 127.27281188964844,7.116850852966309 130.97654724121094,27.647851943969727 C133.23399353027344,40.15999984741211 134.1840057373047,58.05799865722656 130.66200256347656,76.91799926757812"></path></g></g><g style="display: block;" transform="matrix(0.31376948952674866,0.9971256852149963,-0.9702417254447937,0.33074167370796204,241.78314208984375,324.220947265625)" opacity="1"><g opacity="1" transform="matrix(0.9268304109573364,-0.3754802644252777,0.3754802644252777,0.9268304109573364,35.6879997253418,48.13999938964844)"><path stroke-linecap="round" stroke-linejoin="round" fill-opacity="0" stroke-dasharray=" 65 16" stroke-dashoffset="0" stroke="rgb(255,0,0)" stroke-opacity="1" stroke-width="10" d=" M-153.91200256347656,4.298999786376953 C-192.00900268554688,-5.519999980926514 -219.40499877929688,-32.513999938964844 -233.51400756835938,-52.207000732421875"></path></g></g><g style="display: block;" transform="matrix(1.0102529525756836,0.004578066058456898,-0.004136781208217144,0.9889112114906311,257.0084228515625,221.47885131835938)" opacity="1"><g opacity="1" transform="matrix(1,0,0,1,0,0)"><path stroke-linecap="round" stroke-linejoin="round" fill-opacity="0" stroke="rgb(255,123,23)" stroke-opacity="1" stroke-width="20" d=" M-223.68035888671875,-93.06201934814453 C-223.68035888671875,-93.06201934814453 -180.33099365234375,-64 -180.33099365234375,-64 C-180.33099365234375,-64 -182.4934844970703,-43 -182.4934844970703,-43 C-182.4934844970703,-43 -162.13906860351562,-35.814369201660156 -162.13906860351562,-35.814369201660156 C-162.13906860351562,-35.814369201660156 -173.4010009765625,-45 -173.4010009765625,-45 C-173.4010009765625,-45 -160.34364318847656,-80.19529724121094 -160.34364318847656,-80.19529724121094 C-160.34364318847656,-80.19529724121094 -223.68035888671875,-93.06201934814453 -223.68035888671875,-93.06201934814453z"></path><path fill="rgb(254,216,33)" fill-opacity="1" d=" M-223.68035888671875,-93.06201934814453 C-223.68035888671875,-93.06201934814453 -180.33099365234375,-64 -180.33099365234375,-64 C-180.33099365234375,-64 -182.4934844970703,-43 -182.4934844970703,-43 C-182.4934844970703,-43 -162.13906860351562,-35.814369201660156 -162.13906860351562,-35.814369201660156 C-162.13906860351562,-35.814369201660156 -173.4010009765625,-45 -173.4010009765625,-45 C-173.4010009765625,-45 -160.34364318847656,-80.19529724121094 -160.34364318847656,-80.19529724121094 C-160.34364318847656,-80.19529724121094 -223.68035888671875,-93.06201934814453 -223.68035888671875,-93.06201934814453z"></path></g></g><g style="display: block;" transform="matrix(-0.5235068798065186,0.8966735601425171,-0.8724980354309082,-0.5518239736557007,370.0821228027344,265.62139892578125)" opacity="1"><g opacity="1" transform="matrix(0.9875377416610718,-0.15738250315189362,0.15738250315189362,0.9875377416610718,45.893001556396484,48.13999938964844)"><path stroke-linecap="round" stroke-linejoin="round" fill-opacity="0" stroke-dasharray=" 55 16" stroke-dashoffset="0" stroke="rgb(255,255,255)" stroke-opacity="1" stroke-width="10" d=" M-210.14599609375,63.891998291015625 C-206.63600158691406,32.742000579833984 -192.16299438476562,6.363999843597412 -179.97900390625,-9.539999961853027"></path></g></g><g style="display: none;" transform="matrix(-1.0540268421173096,0,0,0.938102126121521,235.6728515625,232.21588134765625)" opacity="1"><g opacity="1" transform="matrix(1,0,0,1,0,0)"><path stroke-linecap="round" stroke-linejoin="round" fill-opacity="0" stroke="rgb(255,123,23)" stroke-opacity="1" stroke-width="20" d=" M-208.95285034179688,-86.15049743652344 C-208.95285034179688,-86.15049743652344 -190.06434631347656,-64 -190.06434631347656,-64 C-190.06434631347656,-64 -190.9335479736328,-43 -190.9335479736328,-43 C-190.9335479736328,-43 -176.96450805664062,-39.72978591918945 -176.96450805664062,-39.72978591918945 C-176.96450805664062,-39.72978591918945 -183.1343536376953,-45 -183.1343536376953,-45 C-183.1343536376953,-45 -177.11862182617188,-81.63433837890625 -177.11862182617188,-81.63433837890625 C-177.11862182617188,-81.63433837890625 -208.95285034179688,-86.15049743652344 -208.95285034179688,-86.15049743652344z"></path><path fill="rgb(254,216,33)" fill-opacity="1" d=" M-208.95285034179688,-86.15049743652344 C-208.95285034179688,-86.15049743652344 -190.06434631347656,-64 -190.06434631347656,-64 C-190.06434631347656,-64 -190.9335479736328,-43 -190.9335479736328,-43 C-190.9335479736328,-43 -176.96450805664062,-39.72978591918945 -176.96450805664062,-39.72978591918945 C-176.96450805664062,-39.72978591918945 -183.1343536376953,-45 -183.1343536376953,-45 C-183.1343536376953,-45 -177.11862182617188,-81.63433837890625 -177.11862182617188,-81.63433837890625 C-177.11862182617188,-81.63433837890625 -208.95285034179688,-86.15049743652344 -208.95285034179688,-86.15049743652344z"></path></g></g><g style="display: block;" transform="matrix(-1.0102529525756836,-0.004578066058456898,-0.004136781208217144,0.9889112114906311,237.00877380371094,221.38821411132812)" opacity="1"><g opacity="1" transform="matrix(1,0,0,1,0,0)"><path stroke-linecap="round" stroke-linejoin="round" fill-opacity="0" stroke="rgb(255,123,23)" stroke-opacity="1" stroke-width="20" d=" M-226.09521484375,-94 C-226.09521484375,-94 -179.21432495117188,-64 -179.21432495117188,-64 C-179.21432495117188,-64 -182.64862060546875,-43 -182.64862060546875,-43 C-182.64862060546875,-43 -159.14755249023438,-34.43443298339844 -159.14755249023438,-34.43443298339844 C-159.14755249023438,-34.43443298339844 -172.1083526611328,-45 -172.1083526611328,-45 C-172.1083526611328,-45 -156.9137725830078,-80 -156.9137725830078,-80 C-156.9137725830078,-80 -226.09521484375,-94 -226.09521484375,-94z"></path><path fill="rgb(254,216,33)" fill-opacity="1" d=" M-226.09521484375,-94 C-226.09521484375,-94 -179.21432495117188,-64 -179.21432495117188,-64 C-179.21432495117188,-64 -182.64862060546875,-43 -182.64862060546875,-43 C-182.64862060546875,-43 -159.14755249023438,-34.43443298339844 -159.14755249023438,-34.43443298339844 C-159.14755249023438,-34.43443298339844 -172.1083526611328,-45 -172.1083526611328,-45 C-172.1083526611328,-45 -156.9137725830078,-80 -156.9137725830078,-80 C-156.9137725830078,-80 -226.09521484375,-94 -226.09521484375,-94z"></path></g></g><g style="display: block;" transform="matrix(0.9799907207489014,0.004440936725586653,-0.004266782198101282,1.01999032497406,243.541259765625,259.1176452636719)" opacity="1"><g opacity="1" transform="matrix(1,0,0,1,0,0)"><path fill="rgb(255,93,31)" fill-opacity="1" d=" M72.55027770996094,24.996379852294922 C81.94039154052734,19.1210994720459 83.8897933959961,11.491390228271484 81.16836547851562,5.702510356903076 C79.35868072509766,0.6448782682418823 73.90706634521484,-3.412006378173828 66.66845703125,-4.240619659423828 C24.53162384033203,-9.26348876953125 25.266035079956055,-40.942596435546875 0.3293098211288452,-40.942596435546875 C-24.6074161529541,-40.942596435546875 -25.664052963256836,-9.134577751159668 -67.3716049194336,-4.6372904777526855 C-75.43704223632812,-3.7441859245300293 -80.96504211425781,0.9852504730224609 -81.96283721923828,6.75986385345459 C-84.15872955322266,12.277322769165039 -81.74675750732422,19.209007263183594 -73.36280059814453,24.698997497558594 C-40.45780563354492,46.24599838256836 40.23623275756836,45.195457458496094 72.55027770996094,24.996379852294922z"></path><path stroke-linecap="butt" stroke-linejoin="miter" fill-opacity="0" stroke-miterlimit="10" stroke="rgb(207,53,2)" stroke-opacity="1" stroke-width="8" d=" M72.55027770996094,24.996379852294922 C81.94039154052734,19.1210994720459 83.8897933959961,11.491390228271484 81.16836547851562,5.702510356903076 C79.35868072509766,0.6448782682418823 73.90706634521484,-3.412006378173828 66.66845703125,-4.240619659423828 C24.53162384033203,-9.26348876953125 25.266035079956055,-40.942596435546875 0.3293098211288452,-40.942596435546875 C-24.6074161529541,-40.942596435546875 -25.664052963256836,-9.134577751159668 -67.3716049194336,-4.6372904777526855 C-75.43704223632812,-3.7441859245300293 -80.96504211425781,0.9852504730224609 -81.96283721923828,6.75986385345459 C-84.15872955322266,12.277322769165039 -81.74675750732422,19.209007263183594 -73.36280059814453,24.698997497558594 C-40.45780563354492,46.24599838256836 40.23623275756836,45.195457458496094 72.55027770996094,24.996379852294922z"></path></g></g><g style="display: block;" transform="matrix(1.0411843061447144,0.23318108916282654,-0.22403675317764282,1.0836814641952515,238.650390625,232.26373291015625)" opacity="1"><g opacity="1" transform="matrix(1,0,0,1,24.70599937438965,22.10700035095215)"><path stroke-linecap="round" stroke-linejoin="round" fill-opacity="0" stroke="rgb(255,180,132)" stroke-opacity="1" stroke-width="8" d=" M19.604999542236328,-7.059000015258789 C9.147000312805176,-6.492000102996826 -8.810999870300293,-14.159000396728516 -14.777999877929688,-27.281999588012695"></path></g></g><g style="display: block;" transform="matrix(0.9799907207489014,0.004440936725586653,-0.004266782198101282,1.01999032497406,243.47886657714844,274.0309143066406)" opacity="1"><g opacity="1" transform="matrix(1,0,0,1,0,0)"><path stroke-linecap="round" stroke-linejoin="round" fill-opacity="0" stroke="rgb(125,9,9)" stroke-opacity="1" stroke-width="7.2" d=" M-69.02484893798828,-5.125248432159424 C-31.19166374206543,10.176750183105469 43.38249206542969,6.9133076667785645 68.47794342041016,-5.461341381072998"></path></g></g><g style="display: block;" transform="matrix(0.5680452585220337,-0.158082976937294,0.15188364684581757,0.5912307500839233,138.46368408203125,318.2899475097656)" opacity="1"><g opacity="1" transform="matrix(1,0,0,1,0,0)"><path fill="rgb(0,146,68)" fill-opacity="1" d=" M5.261000156402588,-173.3560028076172 C13.012999534606934,-173.3560028076172 19.29800033569336,-166.6580047607422 19.29800033569336,-158.3939971923828 C19.29800033569336,-158.3939971923828 19.29800033569336,-65.71499633789062 19.29800033569336,-65.71499633789062 C19.29800033569336,-13.586999893188477 75.8219985961914,12.137999534606934 75.8219985961914,102.85399627685547 C75.8219985961914,102.85399627685547 75.8219985961914,139.38400268554688 75.8219985961914,139.38400268554688 C75.8219985961914,185.1840057373047 -75.8219985961914,184.1719970703125 -75.8219985961914,139.38400268554688 C-75.8219985961914,139.38400268554688 -75.8219985961914,102.85399627685547 -75.8219985961914,102.85399627685547 C-75.8219985961914,12.137999534606934 -19.29800033569336,-13.586999893188477 -19.29800033569336,-65.71499633789062 C-19.29800033569336,-65.71499633789062 -19.29800033569336,-158.3939971923828 -19.29800033569336,-158.3939971923828 C-19.29800033569336,-166.6580047607422 -13.012999534606934,-173.3560028076172 -5.261000156402588,-173.3560028076172 C-5.261000156402588,-173.3560028076172 5.261000156402588,-173.3560028076172 5.261000156402588,-173.3560028076172z"></path><path stroke-linecap="round" stroke-linejoin="round" fill-opacity="0" stroke="rgb(2,105,55)" stroke-opacity="1" stroke-width="16" d=" M5.261000156402588,-173.3560028076172 C13.012999534606934,-173.3560028076172 19.29800033569336,-166.6580047607422 19.29800033569336,-158.3939971923828 C19.29800033569336,-158.3939971923828 19.29800033569336,-65.71499633789062 19.29800033569336,-65.71499633789062 C19.29800033569336,-13.586999893188477 75.8219985961914,12.137999534606934 75.8219985961914,102.85399627685547 C75.8219985961914,102.85399627685547 75.8219985961914,139.38400268554688 75.8219985961914,139.38400268554688 C75.8219985961914,185.1840057373047 -75.8219985961914,184.1719970703125 -75.8219985961914,139.38400268554688 C-75.8219985961914,139.38400268554688 -75.8219985961914,102.85399627685547 -75.8219985961914,102.85399627685547 C-75.8219985961914,12.137999534606934 -19.29800033569336,-13.586999893188477 -19.29800033569336,-65.71499633789062 C-19.29800033569336,-65.71499633789062 -19.29800033569336,-158.3939971923828 -19.29800033569336,-158.3939971923828 C-19.29800033569336,-166.6580047607422 -13.012999534606934,-173.3560028076172 -5.261000156402588,-173.3560028076172 C-5.261000156402588,-173.3560028076172 5.261000156402588,-173.3560028076172 5.261000156402588,-173.3560028076172z"></path></g></g><g style="display: block;" transform="matrix(0.5680452585220337,-0.158082976937294,0.15188364684581757,0.5912307500839233,123.99675750732422,261.9752197265625)" opacity="1"><g opacity="1" transform="matrix(1,0,0,1,0,0)"><path fill="rgb(148,142,121)" fill-opacity="1" d=" M7.63100004196167,-78.10600280761719 C7.63100004196167,-78.10600280761719 -7.63100004196167,-78.10600280761719 -7.63100004196167,-78.10600280761719 C-18.875,-78.10600280761719 -27.98900032043457,-71.40699768066406 -27.98900032043457,-63.143001556396484 C-27.98900032043457,-63.143001556396484 -27.98900032043457,-38.72800064086914 -27.98900032043457,-38.72800064086914 C-27.98900032043457,-38.72800064086914 -21.863000869750977,-30.55900001525879 -21.863000869750977,-30.55900001525879 C-21.863000869750977,-30.55900001525879 -21.863000869750977,29.53499984741211 -21.863000869750977,29.53499984741211 C-21.863000869750977,42.10900115966797 -23.323999404907227,54.527000427246094 -28.97800064086914,65.31099700927734 C-28.97800064086914,65.31099700927734 -28.97800064086914,65.31099700927734 -28.97800064086914,65.31099700927734 C-13.64799976348877,84.21199798583984 15.244000434875488,84.14199829101562 30.573999404907227,65.24099731445312 C30.573999404907227,65.24099731445312 30.573999404907227,65.24099731445312 30.573999404907227,65.24099731445312 C24.920000076293945,54.457000732421875 21.863000869750977,42.10900115966797 21.863000869750977,29.53499984741211 C21.863000869750977,29.53499984741211 21.863000869750977,-28.583999633789062 21.863000869750977,-28.583999633789062 C21.863000869750977,-28.583999633789062 27.98900032043457,-38.96099853515625 27.98900032043457,-38.96099853515625 C27.98900032043457,-38.96099853515625 27.98900032043457,-63.143001556396484 27.98900032043457,-63.143001556396484 C27.98900032043457,-71.40699768066406 18.875,-78.10600280761719 7.63100004196167,-78.10600280761719z"></path><path stroke-linecap="round" stroke-linejoin="round" fill-opacity="0" stroke="rgb(147,142,121)" stroke-opacity="1" stroke-width="16" d=" M7.63100004196167,-78.10600280761719 C7.63100004196167,-78.10600280761719 -7.63100004196167,-78.10600280761719 -7.63100004196167,-78.10600280761719 C-18.875,-78.10600280761719 -27.98900032043457,-71.40699768066406 -27.98900032043457,-63.143001556396484 C-27.98900032043457,-63.143001556396484 -27.98900032043457,-38.72800064086914 -27.98900032043457,-38.72800064086914 C-27.98900032043457,-38.72800064086914 -21.863000869750977,-30.55900001525879 -21.863000869750977,-30.55900001525879 C-21.863000869750977,-30.55900001525879 -21.863000869750977,29.53499984741211 -21.863000869750977,29.53499984741211 C-21.863000869750977,42.10900115966797 -23.323999404907227,54.527000427246094 -28.97800064086914,65.31099700927734 C-28.97800064086914,65.31099700927734 -28.97800064086914,65.31099700927734 -28.97800064086914,65.31099700927734 C-13.64799976348877,84.21199798583984 15.244000434875488,84.14199829101562 30.573999404907227,65.24099731445312 C30.573999404907227,65.24099731445312 30.573999404907227,65.24099731445312 30.573999404907227,65.24099731445312 C24.920000076293945,54.457000732421875 21.863000869750977,42.10900115966797 21.863000869750977,29.53499984741211 C21.863000869750977,29.53499984741211 21.863000869750977,-28.583999633789062 21.863000869750977,-28.583999633789062 C21.863000869750977,-28.583999633789062 27.98900032043457,-38.96099853515625 27.98900032043457,-38.96099853515625 C27.98900032043457,-38.96099853515625 27.98900032043457,-63.143001556396484 27.98900032043457,-63.143001556396484 C27.98900032043457,-71.40699768066406 18.875,-78.10600280761719 7.63100004196167,-78.10600280761719z"></path></g></g><g style="display: block;" transform="matrix(0.8313976526260376,-0.541655421257019,0.5195217728614807,0.8638486266136169,-30.30835723876953,379.9118957519531)" opacity="1"><g opacity="1" transform="matrix(1,0,0,1,0,0)"><path stroke-linecap="round" stroke-linejoin="round" fill-opacity="0" stroke-dasharray=" 10 40" stroke-dashoffset="0" stroke="rgb(255,248,164)" stroke-opacity="1" stroke-width="0" d="M0 0"></path></g></g><g style="display: block;" transform="matrix(0.8313976526260376,-0.541655421257019,0.5195217728614807,0.8638486266136169,-30.30835723876953,379.9118957519531)" opacity="1"><g opacity="1" transform="matrix(1,0,0,1,0,0)"><path stroke-linecap="round" stroke-linejoin="round" fill-opacity="0" stroke-dasharray=" 30 40" stroke-dashoffset="0" stroke="rgb(255,248,164)" stroke-opacity="1" stroke-width="0" d="M0 0"></path></g></g><g style="display: block;" transform="matrix(0.8313976526260376,-0.541655421257019,0.5195217728614807,0.8638486266136169,-30.30835723876953,379.9118957519531)" opacity="1"><g opacity="1" transform="matrix(1,0,0,1,0,0)"><path stroke-linecap="round" stroke-linejoin="round" fill-opacity="0" stroke-dasharray=" 10 30" stroke-dashoffset="0" stroke="rgb(255,248,164)" stroke-opacity="1" stroke-width="0" d="M0 0"></path></g></g><g style="display: block;" transform="matrix(0.8313976526260376,-0.541655421257019,0.5195217728614807,0.8638486266136169,-30.30835723876953,379.9118957519531)" opacity="1"><g opacity="1" transform="matrix(1,0,0,1,0,0)"><path stroke-linecap="round" stroke-linejoin="round" fill-opacity="0" stroke-dasharray=" 10 40" stroke-dashoffset="0" stroke="rgb(255,248,164)" stroke-opacity="1" stroke-width="0" d="M0 0"></path></g></g><g style="display: block;" transform="matrix(0.8313976526260376,-0.541655421257019,0.5195217728614807,0.8638486266136169,-30.30835723876953,379.9118957519531)" opacity="1"><g opacity="1" transform="matrix(1,0,0,1,0,0)"><path stroke-linecap="round" stroke-linejoin="round" fill-opacity="0" stroke-dasharray=" 30 40" stroke-dashoffset="0" stroke="rgb(255,248,164)" stroke-opacity="1" stroke-width="0" d="M0 0"></path></g></g><g style="display: block;" transform="matrix(0.8313976526260376,-0.541655421257019,0.5195217728614807,0.8638486266136169,-30.30835723876953,379.9118957519531)" opacity="1"><g opacity="1" transform="matrix(1,0,0,1,0,0)"><path stroke-linecap="round" stroke-linejoin="round" fill-opacity="0" stroke-dasharray=" 10 30" stroke-dashoffset="0" stroke="rgb(255,248,164)" stroke-opacity="1" stroke-width="0" d="M0 0"></path></g></g><g style="display: block;" transform="matrix(0.8313976526260376,-0.541655421257019,0.5195217728614807,0.8638486266136169,-30.30826759338379,379.91156005859375)" opacity="1"><g opacity="1" transform="matrix(1,0,0,1,0,0)"><path stroke-linecap="round" stroke-linejoin="round" fill-opacity="0" stroke-dasharray=" 10 40" stroke-dashoffset="0" stroke="rgb(255,248,164)" stroke-opacity="1" stroke-width="9.639544142207075" d=" M230.83599853515625,-175.74000549316406 C234.1719970703125,-195.33700561523438 237.01600646972656,-214.66799926757812 239.01800537109375,-232.15199279785156 M246.7050018310547,-190.08599853515625 C253.95199584960938,-211.9340057373047 261.58599853515625,-233.08999633789062 269.2659912109375,-251.1840057373047"></path></g></g><g style="display: block;" transform="matrix(0.8313976526260376,-0.541655421257019,0.5195217728614807,0.8638486266136169,-30.30835723876953,379.9118957519531)" opacity="1"><g opacity="1" transform="matrix(1,0,0,1,0,0)"><path stroke-linecap="round" stroke-linejoin="round" fill-opacity="0" stroke-dasharray=" 11.50824718781303 59.812592298771754" stroke-dashoffset="0" stroke="rgb(255,248,164)" stroke-opacity="1" stroke-width="22.455448327437768" d=" M218.218994140625,-106.87100219726562 C229.35699462890625,-150.48500061035156 239.4949951171875,-200.78799438476562 248.36099243164062,-247.343994140625 M189.46499633789062,1.2569999694824219 C194.3820037841797,-18.55900001525879 231.72999572753906,-157.1790008544922 256.2959899902344,-188.93600463867188"></path></g></g><g style="display: block;" transform="matrix(0.8313976526260376,-0.541655421257019,0.5195217728614807,0.8638486266136169,-30.30835723876953,379.9118957519531)" opacity="1"><g opacity="1" transform="matrix(1,0,0,1,0,0)"><path stroke-linecap="round" stroke-linejoin="round" fill-opacity="0" stroke-dasharray=" 7.953380155885283 40.233099220573585" stroke-dashoffset="0" stroke="rgb(255,248,164)" stroke-opacity="1" stroke-width="14.825308496978565" d=" M232.3679962158203,-149.47999572753906 C238.77000427246094,-178.91000366210938 245.0959930419922,-209.47799682617188 252.2570037841797,-238.90899658203125 M243.47799682617188,-152.33599853515625 C256.35400390625,-184.44700622558594 270.90399169921875,-216.2570037841797 285.2669982910156,-239.6199951171875"></path></g></g><g style="display: block;" transform="matrix(0.8313976526260376,-0.541655421257019,0.5195217728614807,0.8638486266136169,-30.30835723876953,379.9118957519531)" opacity="1"><g opacity="1" transform="matrix(1,0,0,1,0,0)"><path stroke-linecap="round" stroke-linejoin="round" fill-opacity="0" stroke-dasharray=" 3 40" stroke-dashoffset="0" stroke="rgb(254,216,33)" stroke-opacity="1" stroke-width="2.412841295155821" d=" M244.20700073242188,-203.718994140625 C247.6699981689453,-219.5850067138672 251.10800170898438,-235.2100067138672 254.48500061035156,-250.02000427246094 M263.3169860839844,-193.58399963378906 C270.5639953613281,-208.54299926757812 278.0090026855469,-222.51199340820312 285.4219970703125,-234.56900024414062"></path></g></g><g style="display: block;" transform="matrix(0.5680452585220337,-0.158082976937294,0.15188364684581757,0.5912307500839233,123.99675750732422,261.9752197265625)" opacity="1"><g opacity="1" transform="matrix(1,0,0,1,0,0)"><path fill="rgb(224,219,199)" fill-opacity="1" d=" M7.4079999923706055,-69.38999938964844 C7.4079999923706055,-69.38999938964844 -7.853000164031982,-69.38999938964844 -7.853000164031982,-69.38999938964844 C-19.097000122070312,-69.38999938964844 -28.31999969482422,-76.65899658203125 -28.31999969482422,-68.3949966430664 C-28.31999969482422,-68.3949966430664 -27.98900032043457,-38.72800064086914 -27.98900032043457,-38.72800064086914 C-27.98900032043457,-38.72800064086914 -21.863000869750977,-30.55900001525879 -21.863000869750977,-30.55900001525879 C-21.863000869750977,-30.55900001525879 -21.863000869750977,29.53499984741211 -21.863000869750977,29.53499984741211 C-21.863000869750977,42.10900115966797 -23.323999404907227,54.527000427246094 -28.97800064086914,65.31099700927734 C-28.97800064086914,65.31099700927734 -28.97800064086914,65.31099700927734 -28.97800064086914,65.31099700927734 C-13.64799976348877,84.21199798583984 15.244000434875488,84.14199829101562 30.573999404907227,65.24099731445312 C30.573999404907227,65.24099731445312 30.573999404907227,65.24099731445312 30.573999404907227,65.24099731445312 C24.920000076293945,54.457000732421875 21.863000869750977,42.10900115966797 21.863000869750977,29.53499984741211 C21.863000869750977,29.53499984741211 21.863000869750977,-28.583999633789062 21.863000869750977,-28.583999633789062 C21.863000869750977,-28.583999633789062 27.98900032043457,-38.96099853515625 27.98900032043457,-38.96099853515625 C27.98900032043457,-38.96099853515625 27.658000946044922,-68.3949966430664 27.658000946044922,-68.3949966430664 C27.658000946044922,-76.65899658203125 18.652000427246094,-69.38999938964844 7.4079999923706055,-69.38999938964844z"></path><path stroke-linecap="round" stroke-linejoin="round" fill-opacity="0" stroke="rgb(147,142,121)" stroke-opacity="1" stroke-width="10" d=" M7.4079999923706055,-69.38999938964844 C7.4079999923706055,-69.38999938964844 -7.853000164031982,-69.38999938964844 -7.853000164031982,-69.38999938964844 C-19.097000122070312,-69.38999938964844 -28.31999969482422,-76.65899658203125 -28.31999969482422,-68.3949966430664 C-28.31999969482422,-68.3949966430664 -27.98900032043457,-38.72800064086914 -27.98900032043457,-38.72800064086914 C-27.98900032043457,-38.72800064086914 -21.863000869750977,-30.55900001525879 -21.863000869750977,-30.55900001525879 C-21.863000869750977,-30.55900001525879 -21.863000869750977,29.53499984741211 -21.863000869750977,29.53499984741211 C-21.863000869750977,42.10900115966797 -23.323999404907227,54.527000427246094 -28.97800064086914,65.31099700927734 C-28.97800064086914,65.31099700927734 -28.97800064086914,65.31099700927734 -28.97800064086914,65.31099700927734 C-13.64799976348877,84.21199798583984 15.244000434875488,84.14199829101562 30.573999404907227,65.24099731445312 C30.573999404907227,65.24099731445312 30.573999404907227,65.24099731445312 30.573999404907227,65.24099731445312 C24.920000076293945,54.457000732421875 21.863000869750977,42.10900115966797 21.863000869750977,29.53499984741211 C21.863000869750977,29.53499984741211 21.863000869750977,-28.583999633789062 21.863000869750977,-28.583999633789062 C21.863000869750977,-28.583999633789062 27.98900032043457,-38.96099853515625 27.98900032043457,-38.96099853515625 C27.98900032043457,-38.96099853515625 27.658000946044922,-68.3949966430664 27.658000946044922,-68.3949966430664 C27.658000946044922,-76.65899658203125 18.652000427246094,-69.38999938964844 7.4079999923706055,-69.38999938964844z"></path></g></g><g style="display: block;" transform="matrix(0.477987140417099,0.8933652639389038,-0.9157800674438477,0.5307947397232056,24.187410354614258,356.3807067871094)" opacity="1"><g opacity="1" transform="matrix(1,0,0,1,35.6879997253418,48.13999938964844)"><path stroke-linecap="round" stroke-linejoin="round" fill-opacity="0" stroke-dasharray=" 65 16" stroke-dashoffset="0" stroke="rgb(26,213,113)" stroke-opacity="1" stroke-width="10" d=" M75.71900177001953,-169.02099609375 C37.729000091552734,-183.66200256347656 7.61299991607666,-177.21400451660156 -8.515999794006348,-174.0800018310547"></path></g></g><g style="display: block;" transform="matrix(0.477987140417099,0.8933652639389038,-0.9157800674438477,0.5307947397232056,24.187410354614258,356.3807067871094)" opacity="1"><g opacity="1" transform="matrix(1,0,0,1,35.6879997253418,48.13999938964844)"><path stroke-linecap="round" stroke-linejoin="round" fill-opacity="0" stroke-dasharray=" 45 16" stroke-dashoffset="0" stroke="rgb(255,255,255)" stroke-opacity="1" stroke-width="10" d=" M-29.07200050354004,-167.41700744628906 C-55.608001708984375,-174.18899536132812 -79.36599731445312,-178.72900390625 -96.15799713134766,-183.20599365234375"></path></g></g><g style="display: block;" transform="matrix(0.5680452585220337,-0.158082976937294,0.15188364684581757,0.5912307500839233,152.92831420898438,374.5957946777344)" opacity="1"><g opacity="1" transform="matrix(1,0,0,1,0,0)"><path fill="rgb(255,255,255)" fill-opacity="1" d=" M63.637001037597656,0 C63.637001037597656,21.75 35.145999908447266,39.38100051879883 0,39.38100051879883 C-35.145999908447266,39.38100051879883 -63.637001037597656,21.75 -63.637001037597656,0 C-63.637001037597656,-21.75 -35.145999908447266,-39.38100051879883 0,-39.38100051879883 C35.145999908447266,-39.38100051879883 63.637001037597656,-21.75 63.637001037597656,0z"></path></g></g><g style="display: block;" transform="matrix(0.6492966413497925,-0.7640001773834229,-0.7340394258499146,-0.6757985353469849,123.09132385253906,350.838134765625)" opacity="1"><g opacity="1" transform="matrix(1,0,0,1,0,0)"><path fill="rgb(254,216,32)" fill-opacity="1" d=" M-39.051998138427734,-2.4000000953674316 C-24.638999938964844,-12.616000175476074 -10.706000328063965,-31.382999420166016 -5.440000057220459,-40.98699951171875 C7.53000020980835,-64.64099884033203 18.222000122070312,-44.72100067138672 23.63599967956543,-28.7549991607666 C28.71500015258789,-13.774999618530273 23.610000610351562,11.008000373840332 -1.777999997138977,25.850000381469727"></path><path stroke-linecap="round" stroke-linejoin="round" fill-opacity="0" stroke="rgb(250,144,22)" stroke-opacity="1" stroke-width="10" d=" M-39.051998138427734,-2.4000000953674316 C-24.638999938964844,-12.616000175476074 -10.706000328063965,-31.382999420166016 -5.440000057220459,-40.98699951171875 C7.53000020980835,-64.64099884033203 18.222000122070312,-44.72100067138672 23.63599967956543,-28.7549991607666 C28.71500015258789,-13.774999618530273 23.610000610351562,11.008000373840332 -1.777999997138977,25.850000381469727"></path></g></g><g style="display: block;" transform="matrix(-0.07580127567052841,0.8591930866241455,-0.8588651418685913,-0.082084059715271,203.81497192382812,629.5338134765625)" opacity="1"><g opacity="1" transform="matrix(1,0,0,1,35.6879997253418,48.13999938964844)"><path stroke-linecap="round" stroke-linejoin="round" fill-opacity="0" stroke="rgb(255,255,255)" stroke-opacity="1" stroke-width="10" d=" M-349.6159973144531,100.35399627685547 C-357.7070007324219,79.47100067138672 -357.864013671875,60.986000061035156 -345.510986328125,47.76499938964844"></path></g></g><g style="display: block;" transform="matrix(0.47692638635635376,0.703869640827179,-0.7862744331359863,0.5327620506286621,33.44017028808594,575.2285766601562)" opacity="1"><g opacity="1" transform="matrix(1,0,0,1,-205.572998046875,-199.572998046875)"><path fill="rgb(255,0,225)" fill-opacity="1" d=" M0,-12.927000045776367 C7.138999938964844,-12.927000045776367 12.927000045776367,-7.138999938964844 12.927000045776367,0 C12.927000045776367,7.138999938964844 7.138999938964844,12.927000045776367 0,12.927000045776367 C-7.138999938964844,12.927000045776367 -12.927000045776367,7.138999938964844 -12.927000045776367,0 C-12.927000045776367,-7.138999938964844 -7.138999938964844,-12.927000045776367 0,-12.927000045776367z"></path></g></g><g style="display: block;" transform="matrix(0.4911265969276428,0.6826238036155701,-0.7785058617591858,0.5601107478141785,385.1959228515625,572.741455078125)" opacity="1"><g opacity="1" transform="matrix(1,0,0,1,-205.572998046875,-199.572998046875)"><path fill="rgb(255,0,225)" fill-opacity="1" d=" M0,-12.927000045776367 C7.138999938964844,-12.927000045776367 12.927000045776367,-7.138999938964844 12.927000045776367,0 C12.927000045776367,7.138999938964844 7.138999938964844,12.927000045776367 0,12.927000045776367 C-7.138999938964844,12.927000045776367 -12.927000045776367,7.138999938964844 -12.927000045776367,0 C-12.927000045776367,-7.138999938964844 -7.138999938964844,-12.927000045776367 0,-12.927000045776367z"></path></g></g><g style="display: block;" transform="matrix(1.0690782070159912,0.1924310177564621,-0.12643948197364807,0.7024527192115784,330.9667053222656,464.04962158203125)" opacity="1"><g opacity="1" transform="matrix(1,0,0,1,-205.572998046875,-199.572998046875)"><path fill="rgb(255,0,225)" fill-opacity="1" d=" M0,-12.927000045776367 C7.138999938964844,-12.927000045776367 12.927000045776367,-7.138999938964844 12.927000045776367,0 C12.927000045776367,7.138999938964844 7.138999938964844,12.927000045776367 0,12.927000045776367 C-7.138999938964844,12.927000045776367 -12.927000045776367,7.138999938964844 -12.927000045776367,0 C-12.927000045776367,-7.138999938964844 -7.138999938964844,-12.927000045776367 0,-12.927000045776367z"></path></g></g><g style="display: block;" transform="matrix(-0.5216864347457886,-0.3626805245876312,-0.6647930145263672,0.9562506675720215,24.27215576171875,530.0421142578125)" opacity="1"><g opacity="1" transform="matrix(1,0,0,1,-205.572998046875,-199.572998046875)"><path fill="rgb(253,255,0)" fill-opacity="1" d=" M0,-12.927000045776367 C7.138999938964844,-12.927000045776367 12.927000045776367,-7.138999938964844 12.927000045776367,0 C12.927000045776367,7.138999938964844 7.138999938964844,12.927000045776367 0,12.927000045776367 C-7.138999938964844,12.927000045776367 -12.927000045776367,7.138999938964844 -12.927000045776367,0 C-12.927000045776367,-7.138999938964844 -7.138999938964844,-12.927000045776367 0,-12.927000045776367z"></path></g></g><g style="display: block;" transform="matrix(-0.6437523365020752,-0.17404627799987793,-0.2957388162612915,1.0938615798950195,17.06744384765625,342.33038330078125)" opacity="1"><g opacity="1" transform="matrix(1,0,0,1,-205.572998046875,-199.572998046875)"><path fill="rgb(253,255,0)" fill-opacity="1" d=" M0,-12.927000045776367 C7.138999938964844,-12.927000045776367 12.927000045776367,-7.138999938964844 12.927000045776367,0 C12.927000045776367,7.138999938964844 7.138999938964844,12.927000045776367 0,12.927000045776367 C-7.138999938964844,12.927000045776367 -12.927000045776367,7.138999938964844 -12.927000045776367,0 C-12.927000045776367,-7.138999938964844 -7.138999938964844,-12.927000045776367 0,-12.927000045776367z"></path></g></g><g style="display: block;" transform="matrix(-0.47692638635635376,0.703869640827179,0.7862744331359863,0.5327620506286621,517.2652587890625,564.89892578125)" opacity="1"><g opacity="1" transform="matrix(1,0,0,1,-205.572998046875,-199.572998046875)"><path fill="rgb(253,255,0)" fill-opacity="1" d=" M0,-12.927000045776367 C7.138999938964844,-12.927000045776367 12.927000045776367,-7.138999938964844 12.927000045776367,0 C12.927000045776367,7.138999938964844 7.138999938964844,12.927000045776367 0,12.927000045776367 C-7.138999938964844,12.927000045776367 -12.927000045776367,7.138999938964844 -12.927000045776367,0 C-12.927000045776367,-7.138999938964844 -7.138999938964844,-12.927000045776367 0,-12.927000045776367z"></path></g></g><g style="display: block;" transform="matrix(-0.4500950574874878,0.7537366151809692,0.7916892766952515,0.47275856137275696,306.8994140625,698.8067626953125)" opacity="1"><g opacity="1" transform="matrix(1,0,0,1,-205.572998046875,-199.572998046875)"><path fill="rgb(0,198,255)" fill-opacity="1" d=" M0,-12.927000045776367 C7.138999938964844,-12.927000045776367 12.927000045776367,-7.138999938964844 12.927000045776367,0 C12.927000045776367,7.138999938964844 7.138999938964844,12.927000045776367 0,12.927000045776367 C-7.138999938964844,12.927000045776367 -12.927000045776367,7.138999938964844 -12.927000045776367,0 C-12.927000045776367,-7.138999938964844 -7.138999938964844,-12.927000045776367 0,-12.927000045776367z"></path></g></g><g style="display: block;" transform="matrix(-0.7240676283836365,-0.9445263743400574,-0.48401564359664917,0.3710431754589081,53.981781005859375,122.97895812988281)" opacity="1"><g opacity="1" transform="matrix(1,0,0,1,-205.572998046875,-199.572998046875)"><path fill="rgb(0,198,255)" fill-opacity="1" d=" M0,-12.927000045776367 C7.138999938964844,-12.927000045776367 12.927000045776367,-7.138999938964844 12.927000045776367,0 C12.927000045776367,7.138999938964844 7.138999938964844,12.927000045776367 0,12.927000045776367 C-7.138999938964844,12.927000045776367 -12.927000045776367,7.138999938964844 -12.927000045776367,0 C-12.927000045776367,-7.138999938964844 -7.138999938964844,-12.927000045776367 0,-12.927000045776367z"></path></g></g><g style="display: block;" transform="matrix(1,0,0,1,256,256)" opacity="1"></g></g></svg>