<svg xmlns="http://www.w3.org/2000/svg" xmlns:xlink="http://www.w3.org/1999/xlink" viewBox="0 0 512 512" width="512" height="512" style="width: 100%; height: 100%; transform: translate3d(0,0,0); content-visibility: visible;" preserveAspectRatio="xMidYMid meet"><defs><clipPath id="__lottie_element_2"><rect width="512" height="512" x="0" y="0"></rect></clipPath><clipPath id="__lottie_element_4"><path d="M0,0 L512,0 L512,512 L0,512z"></path></clipPath><clipPath id="__lottie_element_8"><path d="M0,0 L512,0 L512,512 L0,512z"></path></clipPath><clipPath id="__lottie_element_12"><path d="M0,0 L512,0 L512,512 L0,512z"></path></clipPath><clipPath id="__lottie_element_22"><path d="M0,0 L512,0 L512,512 L0,512z"></path></clipPath><clipPath id="__lottie_element_32"><path d="M0,0 L512,0 L512,512 L0,512z"></path></clipPath><clipPath id="__lottie_element_42"><path d="M0,0 L512,0 L512,512 L0,512z"></path></clipPath><clipPath id="__lottie_element_52"><path d="M0,0 L512,0 L512,512 L0,512z"></path></clipPath><clipPath id="__lottie_element_62"><path d="M0,0 L512,0 L512,512 L0,512z"></path></clipPath><clipPath id="__lottie_element_72"><path d="M0,0 L512,0 L512,512 L0,512z"></path></clipPath><clipPath id="__lottie_element_82"><path d="M0,0 L512,0 L512,512 L0,512z"></path></clipPath><clipPath id="__lottie_element_92"><path d="M0,0 L512,0 L512,512 L0,512z"></path></clipPath><clipPath id="__lottie_element_102"><path d="M0,0 L512,0 L512,512 L0,512z"></path></clipPath><clipPath id="__lottie_element_112"><path d="M0,0 L512,0 L512,512 L0,512z"></path></clipPath><clipPath id="__lottie_element_122"><path d="M0,0 L512,0 L512,512 L0,512z"></path></clipPath><clipPath id="__lottie_element_132"><path d="M0,0 L512,0 L512,512 L0,512z"></path></clipPath><clipPath id="__lottie_element_142"><path d="M0,0 L512,0 L512,512 L0,512z"></path></clipPath><clipPath id="__lottie_element_152"><path d="M0,0 L512,0 L512,512 L0,512z"></path></clipPath><clipPath id="__lottie_element_162"><path d="M0,0 L512,0 L512,512 L0,512z"></path></clipPath><clipPath id="__lottie_element_172"><path d="M0,0 L512,0 L512,512 L0,512z"></path></clipPath><clipPath id="__lottie_element_176"><path d="M0,0 L512,0 L512,512 L0,512z"></path></clipPath><clipPath id="__lottie_element_186"><path d="M0,0 L512,0 L512,512 L0,512z"></path></clipPath><clipPath id="__lottie_element_196"><path d="M0,0 L512,0 L512,512 L0,512z"></path></clipPath><clipPath id="__lottie_element_206"><path d="M0,0 L512,0 L512,512 L0,512z"></path></clipPath><clipPath id="__lottie_element_216"><path d="M0,0 L512,0 L512,512 L0,512z"></path></clipPath><clipPath id="__lottie_element_226"><path d="M0,0 L512,0 L512,512 L0,512z"></path></clipPath><clipPath id="__lottie_element_236"><path d="M0,0 L512,0 L512,512 L0,512z"></path></clipPath><clipPath id="__lottie_element_246"><path d="M0,0 L512,0 L512,512 L0,512z"></path></clipPath><clipPath id="__lottie_element_256"><path d="M0,0 L512,0 L512,512 L0,512z"></path></clipPath><clipPath id="__lottie_element_266"><path d="M0,0 L512,0 L512,512 L0,512z"></path></clipPath><clipPath id="__lottie_element_276"><path d="M0,0 L512,0 L512,512 L0,512z"></path></clipPath><clipPath id="__lottie_element_286"><path d="M0,0 L512,0 L512,512 L0,512z"></path></clipPath><clipPath id="__lottie_element_296"><path d="M0,0 L512,0 L512,512 L0,512z"></path></clipPath><clipPath id="__lottie_element_306"><path d="M0,0 L512,0 L512,512 L0,512z"></path></clipPath><clipPath id="__lottie_element_316"><path d="M0,0 L512,0 L512,512 L0,512z"></path></clipPath><clipPath id="__lottie_element_326"><path d="M0,0 L512,0 L512,512 L0,512z"></path></clipPath><clipPath id="__lottie_element_390"><path d="M0,0 L512,0 L512,512 L0,512z"></path></clipPath><clipPath id="__lottie_element_397"><path d="M0,0 L512,0 L512,512 L0,512z"></path></clipPath><clipPath id="__lottie_element_404"><path d="M0,0 L512,0 L512,512 L0,512z"></path></clipPath><clipPath id="__lottie_element_411"><path d="M0,0 L512,0 L512,512 L0,512z"></path></clipPath><clipPath id="__lottie_element_418"><path d="M0,0 L512,0 L512,512 L0,512z"></path></clipPath><clipPath id="__lottie_element_425"><path d="M0,0 L512,0 L512,512 L0,512z"></path></clipPath><clipPath id="__lottie_element_432"><path d="M0,0 L512,0 L512,512 L0,512z"></path></clipPath><clipPath id="__lottie_element_439"><path d="M0,0 L512,0 L512,512 L0,512z"></path></clipPath><clipPath id="__lottie_element_446"><path d="M0,0 L512,0 L512,512 L0,512z"></path></clipPath><clipPath id="__lottie_element_453"><path d="M0,0 L512,0 L512,512 L0,512z"></path></clipPath><clipPath id="__lottie_element_460"><path d="M0,0 L512,0 L512,512 L0,512z"></path></clipPath><clipPath id="__lottie_element_464"><path d="M0,0 L512,0 L512,512 L0,512z"></path></clipPath><clipPath id="__lottie_element_468"><path d="M0,0 L512,0 L512,512 L0,512z"></path></clipPath><clipPath id="__lottie_element_478"><path d="M0,0 L512,0 L512,512 L0,512z"></path></clipPath><clipPath id="__lottie_element_488"><path d="M0,0 L512,0 L512,512 L0,512z"></path></clipPath><clipPath id="__lottie_element_498"><path d="M0,0 L512,0 L512,512 L0,512z"></path></clipPath><clipPath id="__lottie_element_508"><path d="M0,0 L512,0 L512,512 L0,512z"></path></clipPath><clipPath id="__lottie_element_518"><path d="M0,0 L512,0 L512,512 L0,512z"></path></clipPath><clipPath id="__lottie_element_528"><path d="M0,0 L512,0 L512,512 L0,512z"></path></clipPath><clipPath id="__lottie_element_538"><path d="M0,0 L512,0 L512,512 L0,512z"></path></clipPath><clipPath id="__lottie_element_548"><path d="M0,0 L512,0 L512,512 L0,512z"></path></clipPath><clipPath id="__lottie_element_558"><path d="M0,0 L512,0 L512,512 L0,512z"></path></clipPath><clipPath id="__lottie_element_568"><path d="M0,0 L512,0 L512,512 L0,512z"></path></clipPath><clipPath id="__lottie_element_578"><path d="M0,0 L512,0 L512,512 L0,512z"></path></clipPath><clipPath id="__lottie_element_588"><path d="M0,0 L512,0 L512,512 L0,512z"></path></clipPath><clipPath id="__lottie_element_598"><path d="M0,0 L512,0 L512,512 L0,512z"></path></clipPath><clipPath id="__lottie_element_608"><path d="M0,0 L512,0 L512,512 L0,512z"></path></clipPath><clipPath id="__lottie_element_618"><path d="M0,0 L512,0 L512,512 L0,512z"></path></clipPath><clipPath id="__lottie_element_628"><path d="M0,0 L512,0 L512,512 L0,512z"></path></clipPath><clipPath id="__lottie_element_632"><path d="M0,0 L512,0 L512,512 L0,512z"></path></clipPath><clipPath id="__lottie_element_642"><path d="M0,0 L512,0 L512,512 L0,512z"></path></clipPath><clipPath id="__lottie_element_652"><path d="M0,0 L512,0 L512,512 L0,512z"></path></clipPath><clipPath id="__lottie_element_662"><path d="M0,0 L512,0 L512,512 L0,512z"></path></clipPath><clipPath id="__lottie_element_672"><path d="M0,0 L512,0 L512,512 L0,512z"></path></clipPath><clipPath id="__lottie_element_682"><path d="M0,0 L512,0 L512,512 L0,512z"></path></clipPath><clipPath id="__lottie_element_692"><path d="M0,0 L512,0 L512,512 L0,512z"></path></clipPath><clipPath id="__lottie_element_702"><path d="M0,0 L512,0 L512,512 L0,512z"></path></clipPath><clipPath id="__lottie_element_712"><path d="M0,0 L512,0 L512,512 L0,512z"></path></clipPath><clipPath id="__lottie_element_722"><path d="M0,0 L512,0 L512,512 L0,512z"></path></clipPath><clipPath id="__lottie_element_732"><path d="M0,0 L512,0 L512,512 L0,512z"></path></clipPath><clipPath id="__lottie_element_742"><path d="M0,0 L512,0 L512,512 L0,512z"></path></clipPath><clipPath id="__lottie_element_752"><path d="M0,0 L512,0 L512,512 L0,512z"></path></clipPath><clipPath id="__lottie_element_762"><path d="M0,0 L512,0 L512,512 L0,512z"></path></clipPath><clipPath id="__lottie_element_772"><path d="M0,0 L512,0 L512,512 L0,512z"></path></clipPath><clipPath id="__lottie_element_782"><path d="M0,0 L512,0 L512,512 L0,512z"></path></clipPath><clipPath id="__lottie_element_846"><path d="M0,0 L512,0 L512,512 L0,512z"></path></clipPath><clipPath id="__lottie_element_853"><path d="M0,0 L512,0 L512,512 L0,512z"></path></clipPath><clipPath id="__lottie_element_860"><path d="M0,0 L512,0 L512,512 L0,512z"></path></clipPath><clipPath id="__lottie_element_867"><path d="M0,0 L512,0 L512,512 L0,512z"></path></clipPath><clipPath id="__lottie_element_874"><path d="M0,0 L512,0 L512,512 L0,512z"></path></clipPath><clipPath id="__lottie_element_881"><path d="M0,0 L512,0 L512,512 L0,512z"></path></clipPath><clipPath id="__lottie_element_888"><path d="M0,0 L512,0 L512,512 L0,512z"></path></clipPath><clipPath id="__lottie_element_895"><path d="M0,0 L512,0 L512,512 L0,512z"></path></clipPath><clipPath id="__lottie_element_902"><path d="M0,0 L512,0 L512,512 L0,512z"></path></clipPath><clipPath id="__lottie_element_909"><path d="M0,0 L512,0 L512,512 L0,512z"></path></clipPath></defs><g clip-path="url(#__lottie_element_2)"><g clip-path="url(#__lottie_element_460)" style="display: block;" transform="matrix(1,0,0,1,0,0)" opacity="1"><g clip-path="url(#__lottie_element_909)" style="display: none;"><g style="display: none;"><g><path stroke-linecap="round" stroke-linejoin="round" fill-opacity="0"></path></g></g></g><g clip-path="url(#__lottie_element_902)" style="display: none;"><g style="display: none;"><g><path stroke-linecap="round" stroke-linejoin="round" fill-opacity="0"></path></g></g></g><g clip-path="url(#__lottie_element_895)" style="display: none;"><g style="display: none;"><g><path stroke-linecap="round" stroke-linejoin="round" fill-opacity="0"></path></g></g></g><g clip-path="url(#__lottie_element_888)" style="display: none;"><g style="display: none;"><g><path stroke-linecap="round" stroke-linejoin="round" fill-opacity="0"></path></g></g></g><g clip-path="url(#__lottie_element_881)" style="display: block;" transform="matrix(1,0,0,1,0,1)" opacity="1"><g style="display: block;" transform="matrix(0.9000712633132935,0,0,0.9000712633132935,98.77592468261719,373.3853759765625)" opacity="1"><g opacity="1" transform="matrix(1,0,0,1,176.4949951171875,64.81999969482422)"><path stroke-linecap="round" stroke-linejoin="round" fill-opacity="0" stroke="rgb(3,180,255)" stroke-opacity="1" stroke-width="7.105787623941626" d=" M151.4949951171875,0 C151.4949951171875,21.992000579833984 83.66899871826172,39.81999969482422 0.0010000000474974513,39.81999969482422 C-83.66699981689453,39.81999969482422 -151.49400329589844,21.992000579833984 -151.49400329589844,0 C-151.49400329589844,-21.992000579833984 -83.66699981689453,-39.81999969482422 0.0010000000474974513,-39.81999969482422 C83.66899871826172,-39.81999969482422 151.4949951171875,-21.992000579833984 151.4949951171875,0z"></path></g></g></g><g clip-path="url(#__lottie_element_874)" style="display: block;" transform="matrix(1,0,0,1,0,1)" opacity="1"><g style="display: block;" transform="matrix(1.2032673358917236,0,0,1.2032673358917236,45.263336181640625,353.7322082519531)" opacity="1"><g opacity="1" transform="matrix(1,0,0,1,176.4949951171875,64.81999969482422)"><path stroke-linecap="round" stroke-linejoin="round" fill-opacity="0" stroke="rgb(3,180,255)" stroke-opacity="1" stroke-width="2.475542619596559" d=" M151.4949951171875,0 C151.4949951171875,21.992000579833984 83.66899871826172,39.81999969482422 0.0010000000474974513,39.81999969482422 C-83.66699981689453,39.81999969482422 -151.49400329589844,21.992000579833984 -151.49400329589844,0 C-151.49400329589844,-21.992000579833984 -83.66699981689453,-39.81999969482422 0.0010000000474974513,-39.81999969482422 C83.66899871826172,-39.81999969482422 151.4949951171875,-21.992000579833984 151.4949951171875,0z"></path></g></g></g><g clip-path="url(#__lottie_element_867)" style="display: block;" transform="matrix(1,0,0,1,0,1)" opacity="1"><g style="display: block;" transform="matrix(1.5022599697113037,0,0,1.5022599697113037,-7.507354736328125,334.35150146484375)" opacity="1"><g opacity="1" transform="matrix(1,0,0,1,176.4949951171875,64.81999969482422)"><path stroke-linecap="round" stroke-linejoin="round" fill-opacity="0" stroke="rgb(3,180,255)" stroke-opacity="1" stroke-width="0" d=" M151.4949951171875,0 C151.4949951171875,21.992000579833984 83.66899871826172,39.81999969482422 0.0010000000474974513,39.81999969482422 C-83.66699981689453,39.81999969482422 -151.49400329589844,21.992000579833984 -151.49400329589844,0 C-151.49400329589844,-21.992000579833984 -83.66699981689453,-39.81999969482422 0.0010000000474974513,-39.81999969482422 C83.66899871826172,-39.81999969482422 151.4949951171875,-21.992000579833984 151.4949951171875,0z"></path></g></g></g><g clip-path="url(#__lottie_element_860)" style="display: block;" transform="matrix(1,0,0,1,0,1)" opacity="1"><g style="display: block;" transform="matrix(1.5022599697113037,0,0,1.5022599697113037,-7.507354736328125,334.35150146484375)" opacity="1"><g opacity="1" transform="matrix(1,0,0,1,176.4949951171875,64.81999969482422)"><path stroke-linecap="round" stroke-linejoin="round" fill-opacity="0" stroke="rgb(3,180,255)" stroke-opacity="1" stroke-width="0" d=" M151.4949951171875,0 C151.4949951171875,21.992000579833984 83.66899871826172,39.81999969482422 0.0010000000474974513,39.81999969482422 C-83.66699981689453,39.81999969482422 -151.49400329589844,21.992000579833984 -151.49400329589844,0 C-151.49400329589844,-21.992000579833984 -83.66699981689453,-39.81999969482422 0.0010000000474974513,-39.81999969482422 C83.66899871826172,-39.81999969482422 151.4949951171875,-21.992000579833984 151.4949951171875,0z"></path></g></g></g><g clip-path="url(#__lottie_element_853)" style="display: none;"><g style="display: none;"><g><path stroke-linecap="round" stroke-linejoin="round" fill-opacity="0"></path></g></g></g><g clip-path="url(#__lottie_element_846)" style="display: none;"><g style="display: none;"><g><path stroke-linecap="round" stroke-linejoin="round" fill-opacity="0"></path></g></g></g><g style="display: block;" transform="matrix(0.9186235666275024,0,0,1.0014960765838623,63.383567810058594,191.29635620117188)" opacity="1"><g opacity="1" transform="matrix(1,0,0,1,222.61300659179688,150.41299438476562)"><path fill="rgb(255,213,39)" fill-opacity="1" d=" M-18.118999481201172,125.41300201416016 C-99.86499786376953,125.41300201416016 -194.77200317382812,118.05400085449219 -196.67300415039062,35.98400115966797 C-197.61300659179688,-4.640999794006348 -185.00599670410156,-38.33848571777344 -159.1999969482422,-64.74848937988281 C-113.6969985961914,-111.31748962402344 -35.95100021362305,-125.1214828491211 28.888999938964844,-125.1214828491211 C118.37699890136719,-125.1214828491211 181.31500244140625,-65.56448364257812 185.27000427246094,1.1915138959884644 C185.7969970703125,10.084513664245605 185.27699279785156,19.10651397705078 183.63400268554688,28.131513595581055 C168.41099548339844,111.7235107421875 66.44100189208984,125.41300201416016 -18.118999481201172,125.41300201416016z"></path><path stroke-linecap="butt" stroke-linejoin="miter" fill-opacity="0" stroke-miterlimit="10" stroke="rgb(249,143,22)" stroke-opacity="1" stroke-width="10" d=" M-18.118999481201172,125.41300201416016 C-99.86499786376953,125.41300201416016 -194.77200317382812,118.05400085449219 -196.67300415039062,35.98400115966797 C-197.61300659179688,-4.640999794006348 -185.00599670410156,-38.33848571777344 -159.1999969482422,-64.74848937988281 C-113.6969985961914,-111.31748962402344 -35.95100021362305,-125.1214828491211 28.888999938964844,-125.1214828491211 C118.37699890136719,-125.1214828491211 181.31500244140625,-65.56448364257812 185.27000427246094,1.1915138959884644 C185.7969970703125,10.084513664245605 185.27699279785156,19.10651397705078 183.63400268554688,28.131513595581055 C168.41099548339844,111.7235107421875 66.44100189208984,125.41300201416016 -18.118999481201172,125.41300201416016z"></path></g></g><g style="display: block;" transform="matrix(0.9186235666275024,0,0,1.0014960765838623,333.87322998046875,317.96258544921875)" opacity="1"><g opacity="1" transform="matrix(1,0,0,1,58.38199996948242,66.60199737548828)"><path stroke-linecap="round" stroke-linejoin="round" fill-opacity="0" stroke="rgb(251,237,32)" stroke-opacity="1" stroke-width="10" d=" M28.680999755859375,-32.99800109863281 C29.48699951171875,-0.1889999955892563 12.673999786376953,22.79199981689453 -11.572999954223633,34.48400115966797"></path></g></g><g style="display: block;" transform="matrix(0.9117979407310486,0.12185949832201004,-0.11177577823400497,0.9940546154975891,31.780550003051758,243.2361297607422)" opacity="1"><g opacity="1" transform="matrix(1,0,0,1,68.78900146484375,79.20099639892578)"><path fill="rgb(255,212,39)" fill-opacity="1" d=" M35.172000885009766,15.366000175476074 C14.435999870300293,41.332000732421875 -12.616000175476074,54.20100021362305 -25.250999450683594,44.111000061035156 C-37.88600158691406,34.020999908447266 -43.78900146484375,-16.642000198364258 26.6299991607666,-47.64400100708008 C32.29800033569336,-50.138999938964844 38.02399826049805,-52.321998596191406 43.790000915527344,-54.20100021362305"></path><g opacity="1" transform="matrix(1,0,0,1,0,0)"></g></g><g opacity="1" transform="matrix(1,0,0,1,68.78900146484375,79.20099639892578)"><path stroke-linecap="round" stroke-linejoin="miter" fill-opacity="0" stroke-miterlimit="10" stroke="rgb(249,143,22)" stroke-opacity="1" stroke-width="10" d=" M35.172000885009766,15.366000175476074 C14.435999870300293,41.332000732421875 -12.616000175476074,54.20100021362305 -25.250999450683594,44.111000061035156 C-37.88600158691406,34.020999908447266 -43.78900146484375,-16.642000198364258 26.6299991607666,-47.64400100708008 C32.29800033569336,-50.138999938964844 38.02399826049805,-52.321998596191406 43.790000915527344,-54.20100021362305"></path></g></g><g style="display: block;" transform="matrix(0.9117979407310486,0.12185949832201004,-0.11177577823400497,0.9940546154975891,49.900699615478516,273.00054931640625)" opacity="1"><g opacity="1" transform="matrix(1,0,0,1,45.1870002746582,52.143001556396484)"><path stroke-linecap="round" stroke-linejoin="round" fill-opacity="0" stroke="rgb(255,255,255)" stroke-opacity="1" stroke-width="10" d=" M-17.60700035095215,21.895000457763672 C-17.905000686645508,9.081999778747559 -10.652000427246094,-6.86299991607666 8.07800006866455,-19.951000213623047"></path></g></g><g style="display: block;" transform="matrix(0.9131107926368713,-0.10955461859703064,0.10048910975456238,0.9954859018325806,345.4627990722656,224.49302673339844)" opacity="1"><g opacity="1" transform="matrix(1,0,0,1,80.42400360107422,69.677001953125)"><path fill="rgb(255,212,39)" fill-opacity="1" d=" M-19.1560001373291,29.763999938964844 C13.218999862670898,44.67599868774414 38.141998291015625,39.23899841308594 44.29199981689453,27.506999969482422 C55.42399978637695,6.269999980926514 2.8980000019073486,-29.888999938964844 -28.698999404907227,-40.17599868774414 C-37.56800079345703,-43.0629997253418 -46.560001373291016,-44.520999908447266 -55.42399978637695,-44.67599868774414"></path><g opacity="1" transform="matrix(1,0,0,1,0,0)"></g></g><g opacity="1" transform="matrix(1,0,0,1,80.42400360107422,69.677001953125)"><path stroke-linecap="round" stroke-linejoin="miter" fill-opacity="0" stroke-miterlimit="10" stroke="rgb(249,143,22)" stroke-opacity="1" stroke-width="10" d=" M-19.1560001373291,29.763999938964844 C13.218999862670898,44.67599868774414 38.141998291015625,39.23899841308594 44.29199981689453,27.506999969482422 C55.42399978637695,6.269999980926514 2.8980000019073486,-29.888999938964844 -28.698999404907227,-40.17599868774414 C-37.56800079345703,-43.0629997253418 -46.560001373291016,-44.520999908447266 -55.42399978637695,-44.67599868774414"></path></g></g><g style="display: block;" transform="matrix(0.9131107926368713,-0.10955461859703064,0.10048910975456238,0.9954859018325806,375.9498291015625,240.68479919433594)" opacity="1"><g opacity="1" transform="matrix(1,0,0,1,52.790000915527344,46.880001068115234)"><path stroke-linecap="round" stroke-linejoin="round" fill-opacity="0" stroke="rgb(251,237,32)" stroke-opacity="1" stroke-width="10" d=" M24.929000854492188,17.320999145507812 C18.82200050354004,8.53499984741211 7.133999824523926,-3.3940000534057617 -14.956000328063965,-15.442000389099121"></path></g></g><g style="display: block;" transform="matrix(1.0014944076538086,0.0017925921129062772,-0.0017872363096103072,0.998502254486084,38.8566780090332,-2.6205153465270996)" opacity="1"><g opacity="1" transform="matrix(1,0,0,1,204.69900512695312,171.17100524902344)"><path fill="rgb(255,212,39)" fill-opacity="1" d=" M-114.9530029296875,146.17100524902344 C-141.0709991455078,127.2959976196289 -159.38299560546875,99.91300201416016 -165.3679962158203,64.96399688720703 C-179.69900512695312,-18.726999282836914 -117.91500091552734,-114.10800170898438 -24.29599952697754,-130.13999938964844 C69.3219985961914,-146.17100524902344 159.32200622558594,-76.78099822998047 173.6529998779297,6.908999919891357 C179.69900512695312,42.21699905395508 171.31100463867188,74.43000030517578 152.56199645996094,101.0780029296875"></path><g opacity="1" transform="matrix(1,0,0,1,0,0)"></g></g><g opacity="1" transform="matrix(1,0,0,1,204.69900512695312,171.17100524902344)"><path stroke-linecap="round" stroke-linejoin="round" fill-opacity="0" stroke="rgb(249,143,22)" stroke-opacity="1" stroke-width="10" d=" M-114.9530029296875,146.17100524902344 C-141.0709991455078,127.2959976196289 -159.38299560546875,99.91300201416016 -165.3679962158203,64.96399688720703 C-179.69900512695312,-18.726999282836914 -117.91500091552734,-114.10800170898438 -24.29599952697754,-130.13999938964844 C69.3219985961914,-146.17100524902344 159.32200622558594,-76.78099822998047 173.6529998779297,6.908999919891357 C179.69900512695312,42.21699905395508 171.31100463867188,74.43000030517578 152.56199645996094,101.0780029296875"></path></g></g><g style="display: block;" transform="matrix(1.0014944076538086,0.0017925921129062772,-0.0017872363096103072,0.998502254486084,301.7213134765625,63.65749740600586)" opacity="1"><g opacity="1" transform="matrix(1,0,0,1,58.37900161743164,107.00599670410156)"><path stroke-linecap="round" stroke-linejoin="round" fill-opacity="0" stroke="rgb(251,237,32)" stroke-opacity="1" stroke-width="10" d=" M-29.389999389648438,-79.37999725341797 C0.8529999852180481,-58.777000427246094 22.70400047302246,-27.85700035095215 28.516000747680664,6.083000183105469 C33.0880012512207,32.78200149536133 27.04800033569336,57.34000015258789 13.225000381469727,78.08999633789062"></path></g></g><g style="display: block;" transform="matrix(1.0014944076538086,0.0017925921129062772,-0.0017872363096103072,0.998502254486084,80.41551208496094,199.5433807373047)" opacity="1"><g opacity="1" transform="matrix(1,0,0,1,28.094999313354492,35.840999603271484)"><path stroke-linecap="round" stroke-linejoin="round" fill-opacity="0" stroke="rgb(255,255,255)" stroke-opacity="1" stroke-width="10" d=" M2.4630000591278076,9.269000053405762 C0.5139999985694885,4.294000148773193 -1.0640000104904175,-0.9319999814033508 -2.239000082015991,-6.4039998054504395"></path></g></g><g style="display: block;" transform="matrix(1.0014944076538086,0.0017925921129062772,-0.0017872363096103072,0.998502254486084,82.5372314453125,42.00798797607422)" opacity="1"><g opacity="1" transform="matrix(1,0,0,1,83.3010025024414,79.96099853515625)"><path stroke-linecap="round" stroke-linejoin="round" fill-opacity="0" stroke="rgb(255,255,255)" stroke-opacity="1" stroke-width="10" d=" M-57.25899887084961,50.85499954223633 C-49.847999572753906,23.48200035095215 -33.57400131225586,-2.431999921798706 -10.918999671936035,-21.993999481201172 C7.133999824523926,-37.582000732421875 29.238000869750977,-49.13800048828125 54.137001037597656,-54.18299865722656"></path></g></g><g style="display: block;" transform="matrix(1.0014944076538086,0.0017925921129062772,-0.0017872363096103072,0.998502254486084,172.7312469482422,98.0284652709961)" opacity="1"><g opacity="1" transform="matrix(1,0,0,1,97.43000030517578,89.50900268554688)"><path fill="rgb(255,93,31)" fill-opacity="1" d=" M76.68287658691406,-30.671741485595703 C79.28387451171875,-15.480741500854492 80.57315826416016,40.63431930541992 32.38996505737305,50.66470718383789 C-40.24897003173828,65.77655792236328 -76.10413360595703,13.052258491516113 -80.40113830566406,-12.043741226196289 C-82.24113464355469,-22.786741256713867 -72.13813781738281,-26.07674217224121 -54.442134857177734,-28.7607421875 C-23.57413673400879,-33.44274139404297 -25.894302368164062,-56.26493835449219 -3.2713024616241455,-60.138938903808594 C21.980697631835938,-64.46293640136719 27.49117088317871,-40.15763473510742 49.34187698364258,-42.829742431640625 C71.15989685058594,-45.494239807128906 75.57087707519531,-37.16374206542969 76.68287658691406,-30.671741485595703z"></path><path stroke-linecap="round" stroke-linejoin="round" fill-opacity="0" stroke="rgb(207,53,2)" stroke-opacity="1" stroke-width="8" d=" M76.68287658691406,-30.671741485595703 C79.28387451171875,-15.480741500854492 80.57315826416016,40.63431930541992 32.38996505737305,50.66470718383789 C-40.24897003173828,65.77655792236328 -76.10413360595703,13.052258491516113 -80.40113830566406,-12.043741226196289 C-82.24113464355469,-22.786741256713867 -72.13813781738281,-26.07674217224121 -54.442134857177734,-28.7607421875 C-23.57413673400879,-33.44274139404297 -25.894302368164062,-56.26493835449219 -3.2713024616241455,-60.138938903808594 C21.980697631835938,-64.46293640136719 27.49117088317871,-40.15763473510742 49.34187698364258,-42.829742431640625 C71.15989685058594,-45.494239807128906 75.57087707519531,-37.16374206542969 76.68287658691406,-30.671741485595703z"></path></g></g><g style="display: block;" transform="matrix(1.050930142402649,0.0018810777692124248,-0.0017872363096103072,0.998502254486084,213.43751525878906,164.947265625)" opacity="1"><g opacity="1" transform="matrix(1,0,0,1,58.465999603271484,35.75299835205078)"><path fill="rgb(255,255,255)" fill-opacity="1" d=" M56.887001037597656,-35.50299835205078 C27.549535751342773,-41.9360237121582 -48.96602249145508,-32.36449432373047 -58.215999603271484,-22.42099952697754 C-46.948020935058594,15.630550384521484 -7.4316911697387695,19.07952117919922 22.870826721191406,12.802175521850586 C57.42701721191406,5.622809886932373 58.215999603271484,-19.83300018310547 56.887001037597656,-35.50299835205078z"></path><g opacity="1" transform="matrix(1,0,0,1,0,0)"></g></g></g><g style="display: block;" transform="matrix(1.050930142402649,0.0018810777692124248,-0.0017872363096103072,0.998502254486084,213.43751525878906,164.947265625)" opacity="1"><path stroke-linecap="round" stroke-linejoin="round" fill-opacity="0" stroke="rgb(193,49,1)" stroke-opacity="1" stroke-width="8" d=" M115.35,0.25 C85.86,-6.04 9.23,3.39 0.25,13.33"></path><g opacity="1" transform="matrix(1,0,0,1,58.465999603271484,35.75299835205078)"><g opacity="1" transform="matrix(1,0,0,1,0,0)"></g></g></g><g style="display: block;" transform="matrix(1.050930142402649,0.0018810777692124248,-0.0017872363096103072,0.998502254486084,213.4010467529297,185.32470703125)" opacity="1"><g opacity="1" transform="matrix(1,0,0,1,58.465999603271484,35.75299835205078)"><path fill="rgb(125,9,9)" fill-opacity="1" d=" M55.9075813293457,-34.52554702758789 C26.54867935180664,-40.795631408691406 -36.619869232177734,-31.847251892089844 -45.7772331237793,-21.92601203918457 C-42.78451919555664,-18.091190338134766 -40.586795806884766,-13.772628784179688 -23.188289642333984,-7.767422676086426 C5.876993179321289,-13.729164123535156 23.637805938720703,-15.310202598571777 41.93603515625,-14.623869895935059 C50.99221420288086,-22.507699966430664 52.946495056152344,-26.073068618774414 55.9075813293457,-34.52554702758789z"></path><g opacity="1" transform="matrix(1,0,0,1,0,0)"></g></g></g><g style="display: block;" transform="matrix(1.0014944076538086,0.0017925921129062772,-0.0017872363096103072,0.998502254486084,199.80819702148438,126.30467987060547)" opacity="1"><g opacity="1" transform="matrix(1,0,0,1,33.59000015258789,24.059999465942383)"><path stroke-linecap="round" stroke-linejoin="round" fill-opacity="0" stroke="rgb(255,180,132)" stroke-opacity="1" stroke-width="8" d=" M-23.652000427246094,18.270000457763672 C-3.0409998893737793,14.571999549865723 7.693999767303467,7.236000061035156 18.90999984741211,-2.986999988555908"></path></g></g><g style="display: block;" transform="matrix(1.0014944076538086,0.0017925921129062772,-0.0017872363096103072,0.998502254486084,139.0594482421875,89.8764877319336)" opacity="1"><g opacity="1" transform="matrix(1,0,0,1,48.52000045776367,42.66899871826172)"><path stroke-linecap="round" stroke-linejoin="round" fill-opacity="0" stroke="rgb(0,0,0)" stroke-opacity="1" stroke-width="10" d=" M-21.06800079345703,10.87600040435791 C-15.871999740600586,-0.34599998593330383 -5.2820000648498535,-6.5370001792907715 5.795000076293945,-4.958000183105469 C12.243000030517578,-4.0329999923706055 18.64299964904785,0.30399999022483826 20.009000778198242,7.771999835968018"></path></g></g><g style="display: block;" transform="matrix(1.0014944076538086,0.0017925921129062772,-0.0017872363096103072,0.998502254486084,281.6358642578125,71.84972381591797)" opacity="1"><g opacity="1" transform="matrix(1,0,0,1,47.340999603271484,45.65399932861328)"><path stroke-linecap="round" stroke-linejoin="round" fill-opacity="0" stroke="rgb(0,0,0)" stroke-opacity="1" stroke-width="10" d=" M-18.257999420166016,4.132999897003174 C-17.236000061035156,-1.5470000505447388 -13.699000358581543,-6.676000118255615 -8.484999656677246,-10.444999694824219 C0.0729999989271164,-16.631000518798828 13.309000015258789,-13.687000274658203 20.316999435424805,-1.7380000352859497"></path></g></g><g clip-path="url(#__lottie_element_628)" style="display: block;" transform="matrix(1,0,0,1,0,0)" opacity="1"><g clip-path="url(#__lottie_element_782)" style="display: none;"><g style="display: none;"><g><path></path><path stroke-linecap="round" stroke-linejoin="round" fill-opacity="0"></path><g></g></g></g><g style="display: none;"><g><path></path><g></g></g></g></g><g clip-path="url(#__lottie_element_772)" style="display: none;"><g style="display: none;"><g><path></path><path stroke-linecap="round" stroke-linejoin="round" fill-opacity="0"></path><g></g></g></g><g style="display: none;"><g><path></path><g></g></g></g></g><g clip-path="url(#__lottie_element_762)" style="display: none;"><g style="display: none;"><g><path></path><path stroke-linecap="round" stroke-linejoin="round" fill-opacity="0"></path><g></g></g></g><g style="display: none;"><g><path></path><g></g></g></g></g><g clip-path="url(#__lottie_element_752)" style="display: none;"><g style="display: none;"><g><path></path><path stroke-linecap="round" stroke-linejoin="round" fill-opacity="0"></path><g></g></g></g><g style="display: none;"><g><path></path><g></g></g></g></g><g clip-path="url(#__lottie_element_742)" style="display: none;"><g style="display: none;"><g><path></path><path stroke-linecap="round" stroke-linejoin="round" fill-opacity="0"></path><g></g></g></g><g style="display: none;"><g><path></path><g></g></g></g></g><g clip-path="url(#__lottie_element_732)" style="display: none;"><g style="display: none;"><g><path></path><path stroke-linecap="round" stroke-linejoin="round" fill-opacity="0"></path><g></g></g></g><g style="display: none;"><g><path></path><g></g></g></g></g><g clip-path="url(#__lottie_element_722)" style="display: block;" transform="matrix(1,0,0,1,0,40)" opacity="1"><g style="display: block;" transform="matrix(-0.14352664351463318,0.2160247266292572,-0.2160247266292572,-0.14352664351463318,500.2752990722656,321.3243103027344)" opacity="1"><g opacity="1" transform="matrix(1,0,0,1,23.902999877929688,21.909000396728516)"><path fill="rgb(41,171,225)" fill-opacity="1" d=" M-23.652999877929688,12.47599983215332 C5.817999839782715,21.658000946044922 23.65399932861328,8.520000457763672 19.233999252319336,-5.054999828338623 C13.82800006866455,-21.658000946044922 -11.479999542236328,-13.902000427246094 -23.652999877929688,12.47599983215332z"></path><path stroke-linecap="round" stroke-linejoin="round" fill-opacity="0" stroke="rgb(18,106,197)" stroke-opacity="1" stroke-width="5" d=" M-23.652999877929688,12.47599983215332 C5.817999839782715,21.658000946044922 23.65399932861328,8.520000457763672 19.233999252319336,-5.054999828338623 C13.82800006866455,-21.658000946044922 -11.479999542236328,-13.902000427246094 -23.652999877929688,12.47599983215332z"></path><g opacity="1" transform="matrix(1,0,0,1,0,0)"></g></g></g><g style="display: block;" transform="matrix(-0.05324605852365494,0.25383347272872925,-0.25383347272872925,-0.05324605852365494,493.88140869140625,319.5938720703125)" opacity="1"><g opacity="1" transform="matrix(1,0,0,1,6.160999774932861,6.160999774932861)"><path fill="rgb(96,213,255)" fill-opacity="1" d=" M5.910999774932861,0 C5.910999774932861,3.265000104904175 3.265000104904175,5.910999774932861 0,5.910999774932861 C-3.2639999389648438,5.910999774932861 -5.910999774932861,3.265000104904175 -5.910999774932861,0 C-5.910999774932861,-3.2639999389648438 -3.2639999389648438,-5.910999774932861 0,-5.910999774932861 C3.265000104904175,-5.910999774932861 5.910999774932861,-3.2639999389648438 5.910999774932861,0z"></path><g opacity="1" transform="matrix(1,0,0,1,0,0)"></g></g></g></g><g clip-path="url(#__lottie_element_712)" style="display: block;" transform="matrix(1,0,0,1,0,-20)" opacity="1"><g style="display: block;" transform="matrix(-0.2906832695007324,0.7574136853218079,-0.7574136853218079,-0.2906832695007324,506.280029296875,223.47018432617188)" opacity="1"><g opacity="1" transform="matrix(1,0,0,1,23.902999877929688,21.909000396728516)"><path fill="rgb(41,171,225)" fill-opacity="1" d=" M-23.652999877929688,12.47599983215332 C5.817999839782715,21.658000946044922 23.65399932861328,8.520000457763672 19.233999252319336,-5.054999828338623 C13.82800006866455,-21.658000946044922 -11.479999542236328,-13.902000427246094 -23.652999877929688,12.47599983215332z"></path><path stroke-linecap="round" stroke-linejoin="round" fill-opacity="0" stroke="rgb(18,106,197)" stroke-opacity="1" stroke-width="5" d=" M-23.652999877929688,12.47599983215332 C5.817999839782715,21.658000946044922 23.65399932861328,8.520000457763672 19.233999252319336,-5.054999828338623 C13.82800006866455,-21.658000946044922 -11.479999542236328,-13.902000427246094 -23.652999877929688,12.47599983215332z"></path><g opacity="1" transform="matrix(1,0,0,1,0,0)"></g></g></g><g style="display: block;" transform="matrix(0.010718347504734993,0.8112073540687561,-0.8112073540687561,0.010718347504734993,485.5805969238281,222.55209350585938)" opacity="1"><g opacity="1" transform="matrix(1,0,0,1,6.160999774932861,6.160999774932861)"><path fill="rgb(96,213,255)" fill-opacity="1" d=" M5.910999774932861,0 C5.910999774932861,3.265000104904175 3.265000104904175,5.910999774932861 0,5.910999774932861 C-3.2639999389648438,5.910999774932861 -5.910999774932861,3.265000104904175 -5.910999774932861,0 C-5.910999774932861,-3.2639999389648438 -3.2639999389648438,-5.910999774932861 0,-5.910999774932861 C3.265000104904175,-5.910999774932861 5.910999774932861,-3.2639999389648438 5.910999774932861,0z"></path><g opacity="1" transform="matrix(1,0,0,1,0,0)"></g></g></g></g><g clip-path="url(#__lottie_element_702)" style="display: block;" transform="matrix(1,0,0,1,0,-40)" opacity="1"><g style="display: block;" transform="matrix(0.3974866569042206,0.7141579389572144,-0.7141579389572144,0.3974866569042206,405.5062561035156,126.36611938476562)" opacity="1"><g opacity="1" transform="matrix(1,0,0,1,23.902999877929688,21.909000396728516)"><path fill="rgb(41,171,225)" fill-opacity="1" d=" M-23.652999877929688,12.47599983215332 C5.817999839782715,21.658000946044922 23.65399932861328,8.520000457763672 19.233999252319336,-5.054999828338623 C13.82800006866455,-21.658000946044922 -11.479999542236328,-13.902000427246094 -23.652999877929688,12.47599983215332z"></path><path stroke-linecap="round" stroke-linejoin="round" fill-opacity="0" stroke="rgb(18,106,197)" stroke-opacity="1" stroke-width="5" d=" M-23.652999877929688,12.47599983215332 C5.817999839782715,21.658000946044922 23.65399932861328,8.520000457763672 19.233999252319336,-5.054999828338623 C13.82800006866455,-21.658000946044922 -11.479999542236328,-13.902000427246094 -23.652999877929688,12.47599983215332z"></path><g opacity="1" transform="matrix(1,0,0,1,0,0)"></g></g></g><g style="display: block;" transform="matrix(0.6338529586791992,0.5159918665885925,-0.5159918665885925,0.6338529586791992,391.41888427734375,141.76991271972656)" opacity="1"><g opacity="1" transform="matrix(1,0,0,1,6.160999774932861,6.160999774932861)"><path fill="rgb(96,213,255)" fill-opacity="1" d=" M5.910999774932861,0 C5.910999774932861,3.265000104904175 3.265000104904175,5.910999774932861 0,5.910999774932861 C-3.2639999389648438,5.910999774932861 -5.910999774932861,3.265000104904175 -5.910999774932861,0 C-5.910999774932861,-3.2639999389648438 -3.2639999389648438,-5.910999774932861 0,-5.910999774932861 C3.265000104904175,-5.910999774932861 5.910999774932861,-3.2639999389648438 5.910999774932861,0z"></path><g opacity="1" transform="matrix(1,0,0,1,0,0)"></g></g></g></g><g clip-path="url(#__lottie_element_692)" style="display: block;" transform="matrix(1,0,0,1,0,-40)" opacity="1"><g style="display: block;" transform="matrix(0.02330426312983036,-0.000966962892562151,0.000966962892562151,0.02330426312983036,322.8769836425781,164.0015106201172)" opacity="1"><g opacity="1" transform="matrix(1,0,0,1,23.902999877929688,21.909000396728516)"><path fill="rgb(41,171,225)" fill-opacity="1" d=" M-23.652999877929688,12.47599983215332 C5.817999839782715,21.658000946044922 23.65399932861328,8.520000457763672 19.233999252319336,-5.054999828338623 C13.82800006866455,-21.658000946044922 -11.479999542236328,-13.902000427246094 -23.652999877929688,12.47599983215332z"></path><path stroke-linecap="round" stroke-linejoin="round" fill-opacity="0" stroke="rgb(18,106,197)" stroke-opacity="1" stroke-width="5" d=" M-23.652999877929688,12.47599983215332 C5.817999839782715,21.658000946044922 23.65399932861328,8.520000457763672 19.233999252319336,-5.054999828338623 C13.82800006866455,-21.658000946044922 -11.479999542236328,-13.902000427246094 -23.652999877929688,12.47599983215332z"></path><g opacity="1" transform="matrix(1,0,0,1,0,0)"></g></g></g><g style="display: block;" transform="matrix(0.021286407485604286,-0.009534806944429874,0.009534806944429874,0.021286407485604286,323.0888366699219,164.55825805664062)" opacity="1"><g opacity="1" transform="matrix(1,0,0,1,6.160999774932861,6.160999774932861)"><path fill="rgb(96,213,255)" fill-opacity="1" d=" M5.910999774932861,0 C5.910999774932861,3.265000104904175 3.265000104904175,5.910999774932861 0,5.910999774932861 C-3.2639999389648438,5.910999774932861 -5.910999774932861,3.265000104904175 -5.910999774932861,0 C-5.910999774932861,-3.2639999389648438 -3.2639999389648438,-5.910999774932861 0,-5.910999774932861 C3.265000104904175,-5.910999774932861 5.910999774932861,-3.2639999389648438 5.910999774932861,0z"></path><g opacity="1" transform="matrix(1,0,0,1,0,0)"></g></g></g></g><g clip-path="url(#__lottie_element_682)" style="display: none;"><g style="display: none;"><g><path></path><path stroke-linecap="round" stroke-linejoin="round" fill-opacity="0"></path><g></g></g></g><g style="display: none;"><g><path></path><g></g></g></g></g><g clip-path="url(#__lottie_element_672)" style="display: none;"><g style="display: none;"><g><path></path><path stroke-linecap="round" stroke-linejoin="round" fill-opacity="0"></path><g></g></g></g><g style="display: none;"><g><path></path><g></g></g></g></g><g clip-path="url(#__lottie_element_662)" style="display: none;"><g style="display: none;"><g><path></path><path stroke-linecap="round" stroke-linejoin="round" fill-opacity="0"></path><g></g></g></g><g style="display: none;"><g><path></path><g></g></g></g></g><g clip-path="url(#__lottie_element_652)" style="display: none;"><g style="display: none;"><g><path></path><path stroke-linecap="round" stroke-linejoin="round" fill-opacity="0"></path><g></g></g></g><g style="display: none;"><g><path></path><g></g></g></g></g><g clip-path="url(#__lottie_element_642)" style="display: none;"><g style="display: none;"><g><path></path><path stroke-linecap="round" stroke-linejoin="round" fill-opacity="0"></path><g></g></g></g><g style="display: none;"><g><path></path><g></g></g></g></g><g clip-path="url(#__lottie_element_632)" style="display: none;"><g style="display: none;"><g><path></path><path stroke-linecap="round" stroke-linejoin="round" fill-opacity="0"></path><g></g></g></g><g style="display: none;"><g><path></path><g></g></g></g></g></g><g clip-path="url(#__lottie_element_464)" style="display: block;" transform="matrix(-1,0,0,1,512,0)" opacity="1"><g clip-path="url(#__lottie_element_618)" style="display: none;"><g style="display: none;"><g><path></path><path stroke-linecap="round" stroke-linejoin="round" fill-opacity="0"></path><g></g></g></g><g style="display: none;"><g><path></path><g></g></g></g></g><g clip-path="url(#__lottie_element_608)" style="display: none;"><g style="display: none;"><g><path></path><path stroke-linecap="round" stroke-linejoin="round" fill-opacity="0"></path><g></g></g></g><g style="display: none;"><g><path></path><g></g></g></g></g><g clip-path="url(#__lottie_element_598)" style="display: none;"><g style="display: none;"><g><path></path><path stroke-linecap="round" stroke-linejoin="round" fill-opacity="0"></path><g></g></g></g><g style="display: none;"><g><path></path><g></g></g></g></g><g clip-path="url(#__lottie_element_588)" style="display: none;"><g style="display: none;"><g><path></path><path stroke-linecap="round" stroke-linejoin="round" fill-opacity="0"></path><g></g></g></g><g style="display: none;"><g><path></path><g></g></g></g></g><g clip-path="url(#__lottie_element_578)" style="display: none;"><g style="display: none;"><g><path></path><path stroke-linecap="round" stroke-linejoin="round" fill-opacity="0"></path><g></g></g></g><g style="display: none;"><g><path></path><g></g></g></g></g><g clip-path="url(#__lottie_element_568)" style="display: none;"><g style="display: none;"><g><path></path><path stroke-linecap="round" stroke-linejoin="round" fill-opacity="0"></path><g></g></g></g><g style="display: none;"><g><path></path><g></g></g></g></g><g clip-path="url(#__lottie_element_558)" style="display: block;" transform="matrix(1,0,0,1,0,40)" opacity="1"><g style="display: block;" transform="matrix(-0.14352664351463318,0.2160247266292572,-0.2160247266292572,-0.14352664351463318,500.2752990722656,321.3243103027344)" opacity="1"><g opacity="1" transform="matrix(1,0,0,1,23.902999877929688,21.909000396728516)"><path fill="rgb(41,171,225)" fill-opacity="1" d=" M-23.652999877929688,12.47599983215332 C5.817999839782715,21.658000946044922 23.65399932861328,8.520000457763672 19.233999252319336,-5.054999828338623 C13.82800006866455,-21.658000946044922 -11.479999542236328,-13.902000427246094 -23.652999877929688,12.47599983215332z"></path><path stroke-linecap="round" stroke-linejoin="round" fill-opacity="0" stroke="rgb(18,106,197)" stroke-opacity="1" stroke-width="5" d=" M-23.652999877929688,12.47599983215332 C5.817999839782715,21.658000946044922 23.65399932861328,8.520000457763672 19.233999252319336,-5.054999828338623 C13.82800006866455,-21.658000946044922 -11.479999542236328,-13.902000427246094 -23.652999877929688,12.47599983215332z"></path><g opacity="1" transform="matrix(1,0,0,1,0,0)"></g></g></g><g style="display: block;" transform="matrix(-0.05324605852365494,0.25383347272872925,-0.25383347272872925,-0.05324605852365494,493.88140869140625,319.5938720703125)" opacity="1"><g opacity="1" transform="matrix(1,0,0,1,6.160999774932861,6.160999774932861)"><path fill="rgb(96,213,255)" fill-opacity="1" d=" M5.910999774932861,0 C5.910999774932861,3.265000104904175 3.265000104904175,5.910999774932861 0,5.910999774932861 C-3.2639999389648438,5.910999774932861 -5.910999774932861,3.265000104904175 -5.910999774932861,0 C-5.910999774932861,-3.2639999389648438 -3.2639999389648438,-5.910999774932861 0,-5.910999774932861 C3.265000104904175,-5.910999774932861 5.910999774932861,-3.2639999389648438 5.910999774932861,0z"></path><g opacity="1" transform="matrix(1,0,0,1,0,0)"></g></g></g></g><g clip-path="url(#__lottie_element_548)" style="display: block;" transform="matrix(1,0,0,1,0,-20)" opacity="1"><g style="display: block;" transform="matrix(-0.2906832695007324,0.7574136853218079,-0.7574136853218079,-0.2906832695007324,506.280029296875,223.47018432617188)" opacity="1"><g opacity="1" transform="matrix(1,0,0,1,23.902999877929688,21.909000396728516)"><path fill="rgb(41,171,225)" fill-opacity="1" d=" M-23.652999877929688,12.47599983215332 C5.817999839782715,21.658000946044922 23.65399932861328,8.520000457763672 19.233999252319336,-5.054999828338623 C13.82800006866455,-21.658000946044922 -11.479999542236328,-13.902000427246094 -23.652999877929688,12.47599983215332z"></path><path stroke-linecap="round" stroke-linejoin="round" fill-opacity="0" stroke="rgb(18,106,197)" stroke-opacity="1" stroke-width="5" d=" M-23.652999877929688,12.47599983215332 C5.817999839782715,21.658000946044922 23.65399932861328,8.520000457763672 19.233999252319336,-5.054999828338623 C13.82800006866455,-21.658000946044922 -11.479999542236328,-13.902000427246094 -23.652999877929688,12.47599983215332z"></path><g opacity="1" transform="matrix(1,0,0,1,0,0)"></g></g></g><g style="display: block;" transform="matrix(0.010718347504734993,0.8112073540687561,-0.8112073540687561,0.010718347504734993,485.5805969238281,222.55209350585938)" opacity="1"><g opacity="1" transform="matrix(1,0,0,1,6.160999774932861,6.160999774932861)"><path fill="rgb(96,213,255)" fill-opacity="1" d=" M5.910999774932861,0 C5.910999774932861,3.265000104904175 3.265000104904175,5.910999774932861 0,5.910999774932861 C-3.2639999389648438,5.910999774932861 -5.910999774932861,3.265000104904175 -5.910999774932861,0 C-5.910999774932861,-3.2639999389648438 -3.2639999389648438,-5.910999774932861 0,-5.910999774932861 C3.265000104904175,-5.910999774932861 5.910999774932861,-3.2639999389648438 5.910999774932861,0z"></path><g opacity="1" transform="matrix(1,0,0,1,0,0)"></g></g></g></g><g clip-path="url(#__lottie_element_538)" style="display: block;" transform="matrix(1,0,0,1,0,-40)" opacity="1"><g style="display: block;" transform="matrix(0.3974866569042206,0.7141579389572144,-0.7141579389572144,0.3974866569042206,405.5062561035156,126.36611938476562)" opacity="1"><g opacity="1" transform="matrix(1,0,0,1,23.902999877929688,21.909000396728516)"><path fill="rgb(41,171,225)" fill-opacity="1" d=" M-23.652999877929688,12.47599983215332 C5.817999839782715,21.658000946044922 23.65399932861328,8.520000457763672 19.233999252319336,-5.054999828338623 C13.82800006866455,-21.658000946044922 -11.479999542236328,-13.902000427246094 -23.652999877929688,12.47599983215332z"></path><path stroke-linecap="round" stroke-linejoin="round" fill-opacity="0" stroke="rgb(18,106,197)" stroke-opacity="1" stroke-width="5" d=" M-23.652999877929688,12.47599983215332 C5.817999839782715,21.658000946044922 23.65399932861328,8.520000457763672 19.233999252319336,-5.054999828338623 C13.82800006866455,-21.658000946044922 -11.479999542236328,-13.902000427246094 -23.652999877929688,12.47599983215332z"></path><g opacity="1" transform="matrix(1,0,0,1,0,0)"></g></g></g><g style="display: block;" transform="matrix(0.6338529586791992,0.5159918665885925,-0.5159918665885925,0.6338529586791992,391.41888427734375,141.76991271972656)" opacity="1"><g opacity="1" transform="matrix(1,0,0,1,6.160999774932861,6.160999774932861)"><path fill="rgb(96,213,255)" fill-opacity="1" d=" M5.910999774932861,0 C5.910999774932861,3.265000104904175 3.265000104904175,5.910999774932861 0,5.910999774932861 C-3.2639999389648438,5.910999774932861 -5.910999774932861,3.265000104904175 -5.910999774932861,0 C-5.910999774932861,-3.2639999389648438 -3.2639999389648438,-5.910999774932861 0,-5.910999774932861 C3.265000104904175,-5.910999774932861 5.910999774932861,-3.2639999389648438 5.910999774932861,0z"></path><g opacity="1" transform="matrix(1,0,0,1,0,0)"></g></g></g></g><g clip-path="url(#__lottie_element_528)" style="display: block;" transform="matrix(1,0,0,1,0,-40)" opacity="1"><g style="display: block;" transform="matrix(0.02330426312983036,-0.000966962892562151,0.000966962892562151,0.02330426312983036,322.8769836425781,164.0015106201172)" opacity="1"><g opacity="1" transform="matrix(1,0,0,1,23.902999877929688,21.909000396728516)"><path fill="rgb(41,171,225)" fill-opacity="1" d=" M-23.652999877929688,12.47599983215332 C5.817999839782715,21.658000946044922 23.65399932861328,8.520000457763672 19.233999252319336,-5.054999828338623 C13.82800006866455,-21.658000946044922 -11.479999542236328,-13.902000427246094 -23.652999877929688,12.47599983215332z"></path><path stroke-linecap="round" stroke-linejoin="round" fill-opacity="0" stroke="rgb(18,106,197)" stroke-opacity="1" stroke-width="5" d=" M-23.652999877929688,12.47599983215332 C5.817999839782715,21.658000946044922 23.65399932861328,8.520000457763672 19.233999252319336,-5.054999828338623 C13.82800006866455,-21.658000946044922 -11.479999542236328,-13.902000427246094 -23.652999877929688,12.47599983215332z"></path><g opacity="1" transform="matrix(1,0,0,1,0,0)"></g></g></g><g style="display: block;" transform="matrix(0.021286407485604286,-0.009534806944429874,0.009534806944429874,0.021286407485604286,323.0888366699219,164.55825805664062)" opacity="1"><g opacity="1" transform="matrix(1,0,0,1,6.160999774932861,6.160999774932861)"><path fill="rgb(96,213,255)" fill-opacity="1" d=" M5.910999774932861,0 C5.910999774932861,3.265000104904175 3.265000104904175,5.910999774932861 0,5.910999774932861 C-3.2639999389648438,5.910999774932861 -5.910999774932861,3.265000104904175 -5.910999774932861,0 C-5.910999774932861,-3.2639999389648438 -3.2639999389648438,-5.910999774932861 0,-5.910999774932861 C3.265000104904175,-5.910999774932861 5.910999774932861,-3.2639999389648438 5.910999774932861,0z"></path><g opacity="1" transform="matrix(1,0,0,1,0,0)"></g></g></g></g><g clip-path="url(#__lottie_element_518)" style="display: none;"><g style="display: none;"><g><path></path><path stroke-linecap="round" stroke-linejoin="round" fill-opacity="0"></path><g></g></g></g><g style="display: none;"><g><path></path><g></g></g></g></g><g clip-path="url(#__lottie_element_508)" style="display: none;"><g style="display: none;"><g><path></path><path stroke-linecap="round" stroke-linejoin="round" fill-opacity="0"></path><g></g></g></g><g style="display: none;"><g><path></path><g></g></g></g></g><g clip-path="url(#__lottie_element_498)" style="display: none;"><g style="display: none;"><g><path></path><path stroke-linecap="round" stroke-linejoin="round" fill-opacity="0"></path><g></g></g></g><g style="display: none;"><g><path></path><g></g></g></g></g><g clip-path="url(#__lottie_element_488)" style="display: none;"><g style="display: none;"><g><path></path><path stroke-linecap="round" stroke-linejoin="round" fill-opacity="0"></path><g></g></g></g><g style="display: none;"><g><path></path><g></g></g></g></g><g clip-path="url(#__lottie_element_478)" style="display: none;"><g style="display: none;"><g><path></path><path stroke-linecap="round" stroke-linejoin="round" fill-opacity="0"></path><g></g></g></g><g style="display: none;"><g><path></path><g></g></g></g></g><g clip-path="url(#__lottie_element_468)" style="display: none;"><g style="display: none;"><g><path></path><path stroke-linecap="round" stroke-linejoin="round" fill-opacity="0"></path><g></g></g></g><g style="display: none;"><g><path></path><g></g></g></g></g></g></g><g clip-path="url(#__lottie_element_4)" style="display: none;"><g clip-path="url(#__lottie_element_453)" style="display: none;"><g style="display: none;"><g><path stroke-linecap="round" stroke-linejoin="round" fill-opacity="0"></path></g></g></g><g clip-path="url(#__lottie_element_446)" style="display: none;"><g style="display: none;"><g><path stroke-linecap="round" stroke-linejoin="round" fill-opacity="0"></path></g></g></g><g clip-path="url(#__lottie_element_439)" style="display: none;"><g style="display: none;"><g><path stroke-linecap="round" stroke-linejoin="round" fill-opacity="0"></path></g></g></g><g clip-path="url(#__lottie_element_432)" style="display: none;"><g style="display: none;"><g><path stroke-linecap="round" stroke-linejoin="round" fill-opacity="0"></path></g></g></g><g clip-path="url(#__lottie_element_425)" style="display: none;"><g style="display: none;"><g><path stroke-linecap="round" stroke-linejoin="round" fill-opacity="0"></path></g></g></g><g clip-path="url(#__lottie_element_418)" style="display: none;"><g style="display: none;"><g><path stroke-linecap="round" stroke-linejoin="round" fill-opacity="0"></path></g></g></g><g clip-path="url(#__lottie_element_411)" style="display: none;"><g style="display: none;"><g><path stroke-linecap="round" stroke-linejoin="round" fill-opacity="0"></path></g></g></g><g clip-path="url(#__lottie_element_404)" style="display: none;"><g style="display: none;"><g><path stroke-linecap="round" stroke-linejoin="round" fill-opacity="0"></path></g></g></g><g clip-path="url(#__lottie_element_397)" style="display: none;"><g style="display: none;"><g><path stroke-linecap="round" stroke-linejoin="round" fill-opacity="0"></path></g></g></g><g clip-path="url(#__lottie_element_390)" style="display: none;"><g style="display: none;"><g><path stroke-linecap="round" stroke-linejoin="round" fill-opacity="0"></path></g></g></g><g style="display: none;"><g><path></path><path stroke-linecap="butt" stroke-linejoin="miter" fill-opacity="0" stroke-miterlimit="10"></path></g></g><g style="display: none;"><g><path stroke-linecap="round" stroke-linejoin="round" fill-opacity="0"></path></g></g><g style="display: none;"><g><path></path><g></g></g><g><path stroke-linecap="round" stroke-linejoin="miter" fill-opacity="0" stroke-miterlimit="10"></path></g></g><g style="display: none;"><g><path stroke-linecap="round" stroke-linejoin="round" fill-opacity="0"></path></g></g><g style="display: none;"><g><path></path><g></g></g><g><path stroke-linecap="round" stroke-linejoin="miter" fill-opacity="0" stroke-miterlimit="10"></path></g></g><g style="display: none;"><g><path stroke-linecap="round" stroke-linejoin="round" fill-opacity="0"></path></g></g><g style="display: none;"><g><path></path><g></g></g><g><path stroke-linecap="round" stroke-linejoin="round" fill-opacity="0"></path></g></g><g style="display: none;"><g><path stroke-linecap="round" stroke-linejoin="round" fill-opacity="0"></path></g></g><g style="display: none;"><g><path stroke-linecap="round" stroke-linejoin="round" fill-opacity="0"></path></g></g><g style="display: none;"><g><path stroke-linecap="round" stroke-linejoin="round" fill-opacity="0"></path></g></g><g style="display: none;"><g><path></path><path stroke-linecap="round" stroke-linejoin="round" fill-opacity="0"></path></g></g><g style="display: none;"><g><path></path><g></g></g></g><g style="display: none;"><path stroke-linecap="round" stroke-linejoin="round" fill-opacity="0"></path><g><g></g></g></g><g style="display: none;"><g><path></path><g></g></g></g><g style="display: none;"><g><path stroke-linecap="round" stroke-linejoin="round" fill-opacity="0"></path></g></g><g style="display: none;"><g><path stroke-linecap="round" stroke-linejoin="round" fill-opacity="0"></path></g></g><g style="display: none;"><g><path stroke-linecap="round" stroke-linejoin="round" fill-opacity="0"></path></g></g><g clip-path="url(#__lottie_element_172)" style="display: none;"><g clip-path="url(#__lottie_element_326)" style="display: none;"><g style="display: none;"><g><path></path><path stroke-linecap="round" stroke-linejoin="round" fill-opacity="0"></path><g></g></g></g><g style="display: none;"><g><path></path><g></g></g></g></g><g clip-path="url(#__lottie_element_316)" style="display: none;"><g style="display: none;"><g><path></path><path stroke-linecap="round" stroke-linejoin="round" fill-opacity="0"></path><g></g></g></g><g style="display: none;"><g><path></path><g></g></g></g></g><g clip-path="url(#__lottie_element_306)" style="display: none;"><g style="display: none;"><g><path></path><path stroke-linecap="round" stroke-linejoin="round" fill-opacity="0"></path><g></g></g></g><g style="display: none;"><g><path></path><g></g></g></g></g><g clip-path="url(#__lottie_element_296)" style="display: none;"><g style="display: none;"><g><path></path><path stroke-linecap="round" stroke-linejoin="round" fill-opacity="0"></path><g></g></g></g><g style="display: none;"><g><path></path><g></g></g></g></g><g clip-path="url(#__lottie_element_286)" style="display: none;"><g style="display: none;"><g><path></path><path stroke-linecap="round" stroke-linejoin="round" fill-opacity="0"></path><g></g></g></g><g style="display: none;"><g><path></path><g></g></g></g></g><g clip-path="url(#__lottie_element_276)" style="display: none;"><g style="display: none;"><g><path></path><path stroke-linecap="round" stroke-linejoin="round" fill-opacity="0"></path><g></g></g></g><g style="display: none;"><g><path></path><g></g></g></g></g><g clip-path="url(#__lottie_element_266)" style="display: none;"><g style="display: none;"><g><path></path><path stroke-linecap="round" stroke-linejoin="round" fill-opacity="0"></path><g></g></g></g><g style="display: none;"><g><path></path><g></g></g></g></g><g clip-path="url(#__lottie_element_256)" style="display: none;"><g style="display: none;"><g><path></path><path stroke-linecap="round" stroke-linejoin="round" fill-opacity="0"></path><g></g></g></g><g style="display: none;"><g><path></path><g></g></g></g></g><g clip-path="url(#__lottie_element_246)" style="display: none;"><g style="display: none;"><g><path></path><path stroke-linecap="round" stroke-linejoin="round" fill-opacity="0"></path><g></g></g></g><g style="display: none;"><g><path></path><g></g></g></g></g><g clip-path="url(#__lottie_element_236)" style="display: none;"><g style="display: none;"><g><path></path><path stroke-linecap="round" stroke-linejoin="round" fill-opacity="0"></path><g></g></g></g><g style="display: none;"><g><path></path><g></g></g></g></g><g clip-path="url(#__lottie_element_226)" style="display: none;"><g style="display: none;"><g><path></path><path stroke-linecap="round" stroke-linejoin="round" fill-opacity="0"></path><g></g></g></g><g style="display: none;"><g><path></path><g></g></g></g></g><g clip-path="url(#__lottie_element_216)" style="display: none;"><g style="display: none;"><g><path></path><path stroke-linecap="round" stroke-linejoin="round" fill-opacity="0"></path><g></g></g></g><g style="display: none;"><g><path></path><g></g></g></g></g><g clip-path="url(#__lottie_element_206)" style="display: none;"><g style="display: none;"><g><path></path><path stroke-linecap="round" stroke-linejoin="round" fill-opacity="0"></path><g></g></g></g><g style="display: none;"><g><path></path><g></g></g></g></g><g clip-path="url(#__lottie_element_196)" style="display: none;"><g style="display: none;"><g><path></path><path stroke-linecap="round" stroke-linejoin="round" fill-opacity="0"></path><g></g></g></g><g style="display: none;"><g><path></path><g></g></g></g></g><g clip-path="url(#__lottie_element_186)" style="display: none;"><g style="display: none;"><g><path></path><path stroke-linecap="round" stroke-linejoin="round" fill-opacity="0"></path><g></g></g></g><g style="display: none;"><g><path></path><g></g></g></g></g><g clip-path="url(#__lottie_element_176)" style="display: none;"><g style="display: none;"><g><path></path><path stroke-linecap="round" stroke-linejoin="round" fill-opacity="0"></path><g></g></g></g><g style="display: none;"><g><path></path><g></g></g></g></g></g><g clip-path="url(#__lottie_element_8)" style="display: none;"><g clip-path="url(#__lottie_element_162)" style="display: none;"><g style="display: none;"><g><path></path><path stroke-linecap="round" stroke-linejoin="round" fill-opacity="0"></path><g></g></g></g><g style="display: none;"><g><path></path><g></g></g></g></g><g clip-path="url(#__lottie_element_152)" style="display: none;"><g style="display: none;"><g><path></path><path stroke-linecap="round" stroke-linejoin="round" fill-opacity="0"></path><g></g></g></g><g style="display: none;"><g><path></path><g></g></g></g></g><g clip-path="url(#__lottie_element_142)" style="display: none;"><g style="display: none;"><g><path></path><path stroke-linecap="round" stroke-linejoin="round" fill-opacity="0"></path><g></g></g></g><g style="display: none;"><g><path></path><g></g></g></g></g><g clip-path="url(#__lottie_element_132)" style="display: none;"><g style="display: none;"><g><path></path><path stroke-linecap="round" stroke-linejoin="round" fill-opacity="0"></path><g></g></g></g><g style="display: none;"><g><path></path><g></g></g></g></g><g clip-path="url(#__lottie_element_122)" style="display: none;"><g style="display: none;"><g><path></path><path stroke-linecap="round" stroke-linejoin="round" fill-opacity="0"></path><g></g></g></g><g style="display: none;"><g><path></path><g></g></g></g></g><g clip-path="url(#__lottie_element_112)" style="display: none;"><g style="display: none;"><g><path></path><path stroke-linecap="round" stroke-linejoin="round" fill-opacity="0"></path><g></g></g></g><g style="display: none;"><g><path></path><g></g></g></g></g><g clip-path="url(#__lottie_element_102)" style="display: none;"><g style="display: none;"><g><path></path><path stroke-linecap="round" stroke-linejoin="round" fill-opacity="0"></path><g></g></g></g><g style="display: none;"><g><path></path><g></g></g></g></g><g clip-path="url(#__lottie_element_92)" style="display: none;"><g style="display: none;"><g><path></path><path stroke-linecap="round" stroke-linejoin="round" fill-opacity="0"></path><g></g></g></g><g style="display: none;"><g><path></path><g></g></g></g></g><g clip-path="url(#__lottie_element_82)" style="display: none;"><g style="display: none;"><g><path></path><path stroke-linecap="round" stroke-linejoin="round" fill-opacity="0"></path><g></g></g></g><g style="display: none;"><g><path></path><g></g></g></g></g><g clip-path="url(#__lottie_element_72)" style="display: none;"><g style="display: none;"><g><path></path><path stroke-linecap="round" stroke-linejoin="round" fill-opacity="0"></path><g></g></g></g><g style="display: none;"><g><path></path><g></g></g></g></g><g clip-path="url(#__lottie_element_62)" style="display: none;"><g style="display: none;"><g><path></path><path stroke-linecap="round" stroke-linejoin="round" fill-opacity="0"></path><g></g></g></g><g style="display: none;"><g><path></path><g></g></g></g></g><g clip-path="url(#__lottie_element_52)" style="display: none;"><g style="display: none;"><g><path></path><path stroke-linecap="round" stroke-linejoin="round" fill-opacity="0"></path><g></g></g></g><g style="display: none;"><g><path></path><g></g></g></g></g><g clip-path="url(#__lottie_element_42)" style="display: none;"><g style="display: none;"><g><path></path><path stroke-linecap="round" stroke-linejoin="round" fill-opacity="0"></path><g></g></g></g><g style="display: none;"><g><path></path><g></g></g></g></g><g clip-path="url(#__lottie_element_32)" style="display: none;"><g style="display: none;"><g><path></path><path stroke-linecap="round" stroke-linejoin="round" fill-opacity="0"></path><g></g></g></g><g style="display: none;"><g><path></path><g></g></g></g></g><g clip-path="url(#__lottie_element_22)" style="display: none;"><g style="display: none;"><g><path></path><path stroke-linecap="round" stroke-linejoin="round" fill-opacity="0"></path><g></g></g></g><g style="display: none;"><g><path></path><g></g></g></g></g><g clip-path="url(#__lottie_element_12)" style="display: none;"><g style="display: none;"><g><path></path><path stroke-linecap="round" stroke-linejoin="round" fill-opacity="0"></path><g></g></g></g><g style="display: none;"><g><path></path><g></g></g></g></g></g></g></g></svg>