<svg xmlns="http://www.w3.org/2000/svg" xmlns:xlink="http://www.w3.org/1999/xlink" viewBox="0 0 512 512" width="512" height="512" style="width: 100%; height: 100%; transform: translate3d(0,0,0); content-visibility: visible;" preserveAspectRatio="xMidYMid meet"><defs><clipPath id="__lottie_element_2"><rect width="512" height="512" x="0" y="0"></rect></clipPath><clipPath id="__lottie_element_4"><path d="M0,0 L512,0 L512,512 L0,512z"></path></clipPath><clipPath id="__lottie_element_95"><path d="M0,0 L512,0 L512,512 L0,512z"></path></clipPath><clipPath id="__lottie_element_102"><path d="M0,0 L512,0 L512,512 L0,512z"></path></clipPath><clipPath id="__lottie_element_109"><path d="M0,0 L512,0 L512,512 L0,512z"></path></clipPath><clipPath id="__lottie_element_116"><path d="M0,0 L512,0 L512,512 L0,512z"></path></clipPath><clipPath id="__lottie_element_123"><path d="M0,0 L512,0 L512,512 L0,512z"></path></clipPath><clipPath id="__lottie_element_130"><path d="M0,0 L512,0 L512,512 L0,512z"></path></clipPath><clipPath id="__lottie_element_221"><path d="M0,0 L512,0 L512,512 L0,512z"></path></clipPath><clipPath id="__lottie_element_228"><path d="M0,0 L512,0 L512,512 L0,512z"></path></clipPath><clipPath id="__lottie_element_235"><path d="M0,0 L512,0 L512,512 L0,512z"></path></clipPath><clipPath id="__lottie_element_242"><path d="M0,0 L512,0 L512,512 L0,512z"></path></clipPath><clipPath id="__lottie_element_249"><path d="M0,0 L512,0 L512,512 L0,512z"></path></clipPath></defs><g clip-path="url(#__lottie_element_2)"><g clip-path="url(#__lottie_element_130)" style="display: none;"><g clip-path="url(#__lottie_element_249)" style="display: none;"><g style="display: none;"><g><path stroke-linecap="round" stroke-linejoin="round" fill-opacity="0"></path></g></g></g><g clip-path="url(#__lottie_element_242)" style="display: none;"><g style="display: none;"><g><path stroke-linecap="round" stroke-linejoin="round" fill-opacity="0"></path></g></g></g><g clip-path="url(#__lottie_element_235)" style="display: none;"><g style="display: none;"><g><path stroke-linecap="round" stroke-linejoin="round" fill-opacity="0"></path></g></g></g><g clip-path="url(#__lottie_element_228)" style="display: none;"><g style="display: none;"><g><path stroke-linecap="round" stroke-linejoin="round" fill-opacity="0"></path></g></g></g><g clip-path="url(#__lottie_element_221)" style="display: none;"><g style="display: none;"><g><path stroke-linecap="round" stroke-linejoin="round" fill-opacity="0"></path></g></g></g><g style="display: none;"><g><path></path><path stroke-linecap="round" stroke-linejoin="round" fill-opacity="0"></path></g></g><g style="display: none;"><g><path stroke-linecap="round" stroke-linejoin="round" fill-opacity="0"></path></g></g><g style="display: none;"><g><path></path><path stroke-linecap="round" stroke-linejoin="round" fill-opacity="0"></path></g></g><g style="display: none;"><g><path stroke-linecap="round" stroke-linejoin="round" fill-opacity="0"></path></g></g><g style="display: none;"><g><path stroke-linecap="round" stroke-linejoin="round" fill-opacity="0"></path></g></g><g style="display: none;"><g><path></path><path stroke-linecap="round" stroke-linejoin="round" fill-opacity="0"></path></g></g><g style="display: none;"><g><path stroke-linecap="round" stroke-linejoin="round" fill-opacity="0"></path></g></g><g style="display: none;"><g><path stroke-linecap="round" stroke-linejoin="round" fill-opacity="0"></path></g></g><g style="display: none;"><path stroke-linecap="butt" stroke-linejoin="miter" fill-opacity="0" stroke-miterlimit="4"></path><g><path></path></g></g><g style="display: none;"><g><path></path></g></g><g style="display: none;"><path stroke-linecap="butt" stroke-linejoin="miter" fill-opacity="0" stroke-miterlimit="4"></path><g><path></path></g></g><g style="display: none;"><g><path></path></g></g><g style="display: none;"><g><path></path><path stroke-linecap="butt" stroke-linejoin="miter" fill-opacity="0" stroke-miterlimit="10"></path></g></g><g style="display: none;"><g><path stroke-linecap="round" stroke-linejoin="round" fill-opacity="0"></path></g></g><g style="display: none;"><g><path stroke-linecap="round" stroke-linejoin="round" fill-opacity="0"></path></g></g><g style="display: none;"></g><g style="display: none;"><g><path></path><path stroke-linecap="round" stroke-linejoin="round" fill-opacity="0"></path></g></g><g style="display: none;"><g><path></path><path stroke-linecap="round" stroke-linejoin="round" fill-opacity="0"></path></g></g><g style="display: none;"><g><path stroke-linecap="round" stroke-linejoin="round" fill-opacity="0"></path></g></g><g style="display: none;"><g><path></path><path stroke-linecap="round" stroke-linejoin="round" fill-opacity="0"></path></g></g><g style="display: none;"><g><path></path><path stroke-linecap="round" stroke-linejoin="round" fill-opacity="0"></path></g></g><g style="display: none;"><g><path></path><path stroke-linecap="round" stroke-linejoin="round" fill-opacity="0"></path></g></g><g style="display: none;"><g><path stroke-linecap="round" stroke-linejoin="round" fill-opacity="0"></path></g></g><g style="display: none;"><g><path stroke-linecap="round" stroke-linejoin="round" fill-opacity="0"></path></g></g><g style="display: none;"><g><path stroke-linecap="round" stroke-linejoin="round" fill-opacity="0"></path></g></g><g style="display: none;"><g><path stroke-linecap="round" stroke-linejoin="round" fill-opacity="0"></path></g></g><g style="display: none;"><g><path stroke-linecap="round" stroke-linejoin="round" fill-opacity="0"></path></g></g><g style="display: none;"><g><path stroke-linecap="round" stroke-linejoin="round" fill-opacity="0"></path></g></g></g><g clip-path="url(#__lottie_element_4)" style="display: block;" transform="matrix(1,0,0,1,0,0)" opacity="1"><g clip-path="url(#__lottie_element_123)" style="display: block;" transform="matrix(1.0499999523162842,0,0,0.8500000238418579,-32.79998779296875,83.39999389648438)" opacity="1"><g style="display: block;" transform="matrix(1.5022599697113037,0,0,1.5022599697113037,-7.507354736328125,337.35150146484375)" opacity="1"><g opacity="1" transform="matrix(1,0,0,1,176.4949951171875,64.81999969482422)"><path stroke-linecap="round" stroke-linejoin="round" fill-opacity="0" stroke="rgb(3,180,255)" stroke-opacity="1" stroke-width="0" d=" M151.4949951171875,0 C151.4949951171875,21.992000579833984 83.66899871826172,39.81999969482422 0.0010000000474974513,39.81999969482422 C-83.66699981689453,39.81999969482422 -151.49400329589844,21.992000579833984 -151.49400329589844,0 C-151.49400329589844,-21.992000579833984 -83.66699981689453,-39.81999969482422 0.0010000000474974513,-39.81999969482422 C83.66899871826172,-39.81999969482422 151.4949951171875,-21.992000579833984 151.4949951171875,0z"></path></g></g></g><g clip-path="url(#__lottie_element_116)" style="display: block;" transform="matrix(1.0499999523162842,0,0,0.8500000238418579,2.20001220703125,83.39999389648438)" opacity="1"><g style="display: block;" transform="matrix(1.0316393375396729,0,0,1.0316393375396729,75.55482482910156,366.0999755859375)" opacity="1"><g opacity="1" transform="matrix(1,0,0,1,176.4949951171875,64.81999969482422)"><path stroke-linecap="round" stroke-linejoin="round" fill-opacity="0" stroke="rgb(3,180,255)" stroke-opacity="1" stroke-width="5.100208909096722" d=" M151.4949951171875,0 C151.4949951171875,21.992000579833984 83.66899871826172,39.81999969482422 0.0010000000474974513,39.81999969482422 C-83.66699981689453,39.81999969482422 -151.49400329589844,21.992000579833984 -151.49400329589844,0 C-151.49400329589844,-21.992000579833984 -83.66699981689453,-39.81999969482422 0.0010000000474974513,-39.81999969482422 C83.66899871826172,-39.81999969482422 151.4949951171875,-21.992000579833984 151.4949951171875,0z"></path></g></g></g><g clip-path="url(#__lottie_element_109)" style="display: none;"><g style="display: none;"><g><path stroke-linecap="round" stroke-linejoin="round" fill-opacity="0"></path></g></g></g><g clip-path="url(#__lottie_element_102)" style="display: none;"><g style="display: none;"><g><path stroke-linecap="round" stroke-linejoin="round" fill-opacity="0"></path></g></g></g><g clip-path="url(#__lottie_element_95)" style="display: none;"><g style="display: none;"><g><path stroke-linecap="round" stroke-linejoin="round" fill-opacity="0"></path></g></g></g><g style="display: block;" transform="matrix(1.0366873741149902,-0.1666707843542099,0.1666707843542099,1.0366873741149902,258.78643798828125,360.76409912109375)" opacity="1"><g opacity="1" transform="matrix(1,0,0,1,0,0)"><path fill="rgb(254,216,32)" fill-opacity="1" d=" M24.438501358032227,114.39457702636719 C-65.38434600830078,104.28880310058594 -137.5437469482422,86.01212310791016 -144.50241088867188,33.28119659423828 C-157.47817993164062,-50.45859909057617 -106.63200378417969,-106.88500213623047 -3.944999933242798,-104.29399871826172 C78.04399871826172,-102.2249984741211 163.23141479492188,-64.83695220947266 170.30921936035156,37.61143112182617 C173.22756958007812,93.43023681640625 154.42080688476562,132.19337463378906 24.438501358032227,114.39457702636719z"></path><path stroke-linecap="round" stroke-linejoin="round" fill-opacity="0" stroke="rgb(250,144,22)" stroke-opacity="1" stroke-width="10" d=" M24.438501358032227,114.39457702636719 C-65.38434600830078,104.28880310058594 -137.5437469482422,86.01212310791016 -144.50241088867188,33.28119659423828 C-157.47817993164062,-50.45859909057617 -106.63200378417969,-106.88500213623047 -3.944999933242798,-104.29399871826172 C78.04399871826172,-102.2249984741211 163.23141479492188,-64.83695220947266 170.30921936035156,37.61143112182617 C173.22756958007812,93.43023681640625 154.42080688476562,132.19337463378906 24.438501358032227,114.39457702636719z"></path></g></g><g style="display: block;" transform="matrix(1.1316951513290405,0.054410189390182495,-0.05008833855390549,1.0418035984039307,460.0177307128906,391.77734375)" opacity="1"><g opacity="1" transform="matrix(1,0,0,1,35.6879997253418,48.13999938964844)"><path stroke-linecap="round" stroke-linejoin="round" fill-opacity="0" stroke="rgb(255,255,255)" stroke-opacity="1" stroke-width="8" d=" M-63.1879997253418,-43.69599914550781 C-61.88399887084961,-48.92599868774414 -62.606998443603516,-62.70800018310547 -69.91999816894531,-83.29900360107422"></path></g></g><g style="display: block;" transform="matrix(0.8895016312599182,0.5579308867454529,0.5579308867454529,-0.8895016312599182,424.1501770019531,297.09906005859375)" opacity="1"><g opacity="1" transform="matrix(1,0,0,1,0,0)"><path fill="rgb(254,216,32)" fill-opacity="1" d=" M-64.4650650024414,-13.369124412536621 C-39.91004180908203,12.88703441619873 -1.4251625537872314,7.074408531188965 24.077836990356445,-1.7025914192199707 C49.58083724975586,-10.479591369628906 36.93983840942383,-17.57838249206543 21.851837158203125,-20.191381454467773 C9.39683723449707,-22.3483829498291 -7.369401931762695,-31.155235290527344 -16.99327850341797,-38.61625289916992"></path><path stroke-linecap="round" stroke-linejoin="round" fill-opacity="0" stroke="rgb(250,144,22)" stroke-opacity="1" stroke-width="10.204" d=" M-64.4650650024414,-13.369124412536621 C-39.91004180908203,12.88703441619873 -1.4251625537872314,7.074408531188965 24.077836990356445,-1.7025914192199707 C49.58083724975586,-10.479591369628906 36.93983840942383,-17.57838249206543 21.851837158203125,-20.191381454467773 C9.39683723449707,-22.3483829498291 -7.369401931762695,-31.155235290527344 -16.99327850341797,-38.61625289916992"></path></g></g><g style="display: block;" transform="matrix(1.1316951513290405,0.054410189390182495,-0.05008833855390549,1.0418035984039307,460.0177307128906,391.77734375)" opacity="1"><g opacity="1" transform="matrix(1,0,0,1,35.6879997253418,48.13999938964844)"><path stroke-linecap="round" stroke-linejoin="round" fill-opacity="0" stroke="rgb(255,255,255)" stroke-opacity="1" stroke-width="8" d=" M-69.09300231933594,-126.5979995727539 C-75.84700012207031,-132.95199584960938 -86.77400207519531,-140.83700561523438 -97.64600372314453,-144.9669952392578"></path></g></g><g style="display: block;" transform="matrix(1.1316951513290405,0.054410189390182495,-0.05008833855390549,1.0418035984039307,442.72198486328125,397.59637451171875)" opacity="1"><g opacity="1" transform="matrix(1,0,0,1,35.6879997253418,48.13999938964844)"><path stroke-linecap="round" stroke-linejoin="round" fill-opacity="0" stroke="rgb(252,238,33)" stroke-opacity="1" stroke-width="8" d=" M-286.4010009765625,9.121999740600586 C-312.531005859375,-6.113999843597412 -315.67498779296875,-40.45600128173828 -316.0069885253906,-54.867000579833984"></path></g></g><g style="display: block;" transform="matrix(1.0515756607055664,-0.33120179176330566,0.33120179176330566,1.0515756607055664,228.49253845214844,176.5235137939453)" opacity="1"><g opacity="1" transform="matrix(0.9999999403953552,-0.0002617993741296232,0.0002617993741296232,0.9999999403953552,0,0)"><path fill="rgb(254,216,32)" fill-opacity="1" d=" M-132.5919952392578,102.30699920654297 C-155.75,75.9739990234375 -166.2949981689453,42.689998626708984 -160.468994140625,6.583000183105469 C-148.0919952392578,-70.12300109863281 -66.35099792480469,-134.4080047607422 19.45400047302246,-120.56300354003906 C105.25800323486328,-106.71800231933594 162.6320037841797,-19.986000061035156 150.2550048828125,56.720001220703125 C145.7220001220703,84.81500244140625 127.92400360107422,113.48100280761719 106.2040023803711,133.13600158691406"></path><path stroke-linecap="round" stroke-linejoin="round" fill-opacity="0" stroke="rgb(250,144,22)" stroke-opacity="1" stroke-width="10" d=" M-132.5919952392578,102.30699920654297 C-155.75,75.9739990234375 -166.2949981689453,42.689998626708984 -160.468994140625,6.583000183105469 C-148.0919952392578,-70.12300109863281 -66.35099792480469,-134.4080047607422 19.45400047302246,-120.56300354003906 C105.25800323486328,-106.71800231933594 162.6320037841797,-19.986000061035156 150.2550048828125,56.720001220703125 C145.7220001220703,84.81500244140625 127.92400360107422,113.48100280761719 106.2040023803711,133.13600158691406"></path></g></g><g style="display: block;" transform="matrix(1.1863055229187012,0.08917342871427536,-0.08209029585123062,1.092076301574707,457.81024169921875,230.2625732421875)" opacity="1"><g opacity="1" transform="matrix(1,0,0,1,35.6879997253418,48.13999938964844)"><path stroke-linecap="round" stroke-linejoin="round" fill-opacity="0" stroke="rgb(252,238,33)" stroke-opacity="1" stroke-width="8" d=" M-335.843994140625,15.276000022888184 C-366.36199951171875,-27.69499969482422 -350.1570129394531,-70.35299682617188 -341.39801025390625,-89.5979995727539"></path></g></g><g style="display: block;" transform="matrix(-0.607632577419281,1.0227687358856201,-0.9415292143821716,-0.5593677759170532,119.93517303466797,414.9975280761719)" opacity="1"><g opacity="1" transform="matrix(1,0,0,1,35.6879997253418,48.13999938964844)"><path stroke-linecap="round" stroke-linejoin="round" fill-opacity="0" stroke="rgb(255,255,255)" stroke-opacity="1" stroke-width="8" d=" M-339.91900634765625,17.965999603271484 C-358.0610046386719,-13.36400032043457 -351.2309875488281,-74.0530014038086 -343.2359924316406,-94.43800354003906"></path></g></g><g style="display: block;" transform="matrix(1.442351222038269,-0.19212324917316437,0.1746579110622406,1.3112313747406006,-32.08656311035156,381.15576171875)" opacity="1"><path stroke-linecap="butt" stroke-linejoin="miter" fill-opacity="0" stroke-miterlimit="4" stroke="rgb(0,0,0)" stroke-opacity="1" stroke-width="0" d=" M145.42599487304688,-138 C154.11500549316406,-138 161.53599548339844,-131.5800018310547 164.48800659179688,-122.53099822998047 C165.36900329589844,-119.83200073242188 165.8520050048828,-116.89800262451172 165.8520050048828,-113.83100128173828 C165.8520050048828,-110.85800170898438 165.3979949951172,-108.01000213623047 164.5679931640625,-105.37899780273438 C161.6719970703125,-96.1989974975586 154.19400024414062,-89.66200256347656 145.42599487304688,-89.66200256347656 C137.08999633789062,-89.66200256347656 129.9199981689453,-95.56999969482422 126.74500274658203,-104.04100036621094 C125.62300109863281,-107.03399658203125 125,-110.34600067138672 125,-113.83100128173828 C125,-116.7040023803711 125.42400360107422,-119.45899963378906 126.20099639892578,-122.01499938964844 C129.03500366210938,-131.3350067138672 136.572998046875,-138 145.42599487304688,-138z"></path><g opacity="1" transform="matrix(1,0,0,1,0,0)"><path fill="rgb(0,0,0)" fill-opacity="1" d=" M145.42599487304688,-138 C154.11500549316406,-138 161.53599548339844,-131.5800018310547 164.48800659179688,-122.53099822998047 C165.36900329589844,-119.83200073242188 165.8520050048828,-116.89800262451172 165.8520050048828,-113.83100128173828 C165.8520050048828,-110.85800170898438 165.3979949951172,-108.01000213623047 164.5679931640625,-105.37899780273438 C161.6719970703125,-96.1989974975586 154.19400024414062,-89.66200256347656 145.42599487304688,-89.66200256347656 C137.08999633789062,-89.66200256347656 129.9199981689453,-95.56999969482422 126.74500274658203,-104.04100036621094 C125.62300109863281,-107.03399658203125 125,-110.34600067138672 125,-113.83100128173828 C125,-116.7040023803711 125.42400360107422,-119.45899963378906 126.20099639892578,-122.01499938964844 C129.03500366210938,-131.3350067138672 136.572998046875,-138 145.42599487304688,-138z"></path></g></g><g style="display: block;" transform="matrix(1.1538809537887573,-0.1536986231803894,0.13972632586956024,1.0489851236343384,163.28298950195312,188.8460235595703)" opacity="1"><g opacity="1" transform="matrix(1,0,0,1,0,0)"><path fill="rgb(255,255,255)" fill-opacity="1" d=" M-6.406000137329102,3.2860000133514404 C-4.247000217437744,7.494999885559082 0.3709999918937683,9.435999870300293 3.9089999198913574,7.620999813079834 C7.447000026702881,5.806000232696533 8.5649995803833,0.9229999780654907 6.406000137329102,-3.2860000133514404 C4.247000217437744,-7.494999885559082 -0.3709999918937683,-9.435999870300293 -3.9089999198913574,-7.620999813079834 C-7.447000026702881,-5.806000232696533 -8.5649995803833,-0.9229999780654907 -6.406000137329102,3.2860000133514404z"></path></g></g><g style="display: block;" transform="matrix(1.275365948677063,-0.16988058388233185,0.1746579110622406,1.3112313747406006,157.84829711914062,358.3215637207031)" opacity="1"><path stroke-linecap="butt" stroke-linejoin="miter" fill-opacity="0" stroke-miterlimit="4" stroke="rgb(0,0,0)" stroke-opacity="1" stroke-width="0" d=" M145.43,-138 C154.12,-138 161.54,-131.58 164.49,-122.53 C165.37,-119.83 165.85,-116.9 165.85,-113.83 C165.85,-110.86 165.4,-108.01 164.57,-105.38 C161.67,-96.2 154.2,-89.66 145.43,-89.66 C137.09,-89.66 129.92,-95.57 126.75,-104.04 C125.62,-107.03 125,-110.34 125,-113.83 C125,-116.7 125.43,-119.46 126.2,-122.01 C129.04,-131.33 136.58,-138 145.43,-138z"></path><g opacity="1" transform="matrix(1,0.000017453292457503267,-0.000017453292457503267,1,0,0)"><path fill="rgb(0,0,0)" fill-opacity="1" d=" M145.42599487304688,-138 C154.11500549316406,-138 161.53599548339844,-131.5800018310547 164.48800659179688,-122.53099822998047 C165.36900329589844,-119.83200073242188 165.8520050048828,-116.89800262451172 165.8520050048828,-113.83100128173828 C165.8520050048828,-110.85800170898438 165.3979949951172,-108.01000213623047 164.5679931640625,-105.37899780273438 C161.6719970703125,-96.1989974975586 154.19400024414062,-89.66200256347656 145.42599487304688,-89.66200256347656 C137.08999633789062,-89.66200256347656 129.9199981689453,-95.56999969482422 126.74500274658203,-104.04100036621094 C125.62300109863281,-107.03399658203125 125,-110.34600067138672 125,-113.83100128173828 C125,-116.7040023803711 125.42400360107422,-119.45899963378906 126.20099639892578,-122.01499938964844 C129.03500366210938,-131.3350067138672 136.572998046875,-138 145.42599487304688,-138z"></path></g></g><g style="display: block;" transform="matrix(1.0202927589416504,-0.1359044760465622,0.13972632586956024,1.0489851236343384,328.0797424316406,169.36029052734375)" opacity="1"><g opacity="1" transform="matrix(1,0,0,1,0,0)"><path fill="rgb(255,255,255)" fill-opacity="1" d=" M-6.406000137329102,3.2860000133514404 C-4.247000217437744,7.494999885559082 0.3709999918937683,9.435999870300293 3.9089999198913574,7.620999813079834 C7.447000026702881,5.806000232696533 8.5649995803833,0.9229999780654907 6.406000137329102,-3.2860000133514404 C4.247000217437744,-7.494999885559082 -0.3709999918937683,-9.435999870300293 -3.9089999198913574,-7.620999813079834 C-7.447000026702881,-5.806000232696533 -8.5649995803833,-0.9229999780654907 -6.406000137329102,3.2860000133514404z"></path></g></g><g style="display: block;" transform="matrix(1.0928475856781006,-0.1455688625574112,0.1455688625574112,1.0928475856781006,244.63697814941406,244.83522033691406)" opacity="1"><g opacity="1" transform="matrix(1,0,0,1,0,0)"><path fill="rgb(255,93,31)" fill-opacity="1" d=" M69.59471893310547,14.308755874633789 C76.08963775634766,9.702853202819824 83.9344711303711,3.636927843093872 79.81298065185547,-3.951725482940674 C79.80166625976562,-14.562074661254883 71.43900299072266,-14.038999557495117 65.49299621582031,-14.479999542236328 C29.636999130249023,-17.141000747680664 31.277999877929688,-42.893001556396484 5.821000099182129,-42.893001556396484 C-19.63599967956543,-42.893001556396484 -24.478429794311523,-8.945914268493652 -44.51436996459961,-3.518676519393921 C-52.45051956176758,-1.4231234788894653 -57.29354476928711,-1.182835578918457 -58.99557876586914,4.661069869995117 C-60.700477600097656,10.513975143432617 -58.56909942626953,17.09394073486328 -50.68574142456055,22.80519676208496 C-19.851032257080078,45.14472198486328 45.413238525390625,31.512161254882812 69.59471893310547,14.308755874633789z"></path><path stroke-linecap="butt" stroke-linejoin="miter" fill-opacity="0" stroke-miterlimit="10" stroke="rgb(207,53,2)" stroke-opacity="1" stroke-width="8" d=" M69.59471893310547,14.308755874633789 C76.08963775634766,9.702853202819824 83.9344711303711,3.636927843093872 79.81298065185547,-3.951725482940674 C79.80166625976562,-14.562074661254883 71.43900299072266,-14.038999557495117 65.49299621582031,-14.479999542236328 C29.636999130249023,-17.141000747680664 31.277999877929688,-42.893001556396484 5.821000099182129,-42.893001556396484 C-19.63599967956543,-42.893001556396484 -24.478429794311523,-8.945914268493652 -44.51436996459961,-3.518676519393921 C-52.45051956176758,-1.4231234788894653 -57.29354476928711,-1.182835578918457 -58.99557876586914,4.661069869995117 C-60.700477600097656,10.513975143432617 -58.56909942626953,17.09394073486328 -50.68574142456055,22.80519676208496 C-19.851032257080078,45.14472198486328 45.413238525390625,31.512161254882812 69.59471893310547,14.308755874633789z"></path></g></g><g style="display: block;" transform="matrix(1.194758653640747,0.08997657150030136,-0.08997657150030136,1.194758653640747,235.22845458984375,216.8306121826172)" opacity="1"><g opacity="1" transform="matrix(1,0,0,1,24.70599937438965,22.10700035095215)"><path stroke-linecap="round" stroke-linejoin="round" fill-opacity="0" stroke="rgb(255,180,132)" stroke-opacity="1" stroke-width="8" d=" M29.569000244140625,-14.980999946594238 C18.500999450683594,-14.335000038146973 -0.26600000262260437,-19.31399917602539 -9.151000022888184,-31.29800033569336"></path></g></g><g style="display: block;" transform="matrix(1.0928475856781006,-0.1455688625574112,0.1455688625574112,1.0928475856781006,246.7653350830078,260.813720703125)" opacity="1"><g opacity="1" transform="matrix(1,0,0,1,0,0)"><path stroke-linecap="round" stroke-linejoin="round" fill-opacity="0" stroke="rgb(125,9,9)" stroke-opacity="1" stroke-width="7.2" d=" M-40.029998779296875,-3.1070001125335693 C-3.799999952316284,9.737000465393066 48.696998596191406,-2.263000011444092 67.48500061035156,-15.880000114440918"></path></g></g><g style="display: block;" transform="matrix(1,0,0,1,256,256)" opacity="1"></g><g style="display: block;" transform="matrix(1.3664016723632812,0.44463664293289185,-0.4241160750389099,1.3033404350280762,187.6774444580078,243.52439880371094)" opacity="1"><g opacity="1" transform="matrix(1,0,0,1,0,0)"><path fill="rgb(255,255,255)" fill-opacity="1" d=" M-43.66899871826172,20.232999801635742 C-43.66899871826172,20.232999801635742 19.052257537841797,-25.94485855102539 19.052257537841797,-25.94485855102539 C19.052257537841797,-25.94485855102539 -15.062000274658203,46.178001403808594 -15.062000274658203,46.178001403808594 C-15.062000274658203,46.178001403808594 -43.66899871826172,20.232999801635742 -43.66899871826172,20.232999801635742z"></path><path stroke-linecap="round" stroke-linejoin="round" fill-opacity="0" stroke="rgb(134,177,196)" stroke-opacity="1" stroke-width="7" d=" M-43.66899871826172,20.232999801635742 C-43.66899871826172,20.232999801635742 19.052257537841797,-25.94485855102539 19.052257537841797,-25.94485855102539 C19.052257537841797,-25.94485855102539 -15.062000274658203,46.178001403808594 -15.062000274658203,46.178001403808594 C-15.062000274658203,46.178001403808594 -43.66899871826172,20.232999801635742 -43.66899871826172,20.232999801635742z"></path></g></g><g style="display: block;" transform="matrix(0.13493965566158295,-1.411062479019165,-1.411062479019165,-0.13493965566158295,182.43438720703125,328.8997497558594)" opacity="1"><g opacity="1" transform="matrix(1,0,0,1,0,0)"><path fill="rgb(254,216,32)" fill-opacity="1" d=" M-4.110385417938232,-2.85805606842041 C35.771583557128906,6.504994869232178 44.57370376586914,32.531314849853516 42.17094421386719,44.62480926513672 C38.614498138427734,62.526527404785156 30.151777267456055,54.05807876586914 25.28455352783203,43.74264144897461 C22.249732971191406,37.31108093261719 6.425663471221924,36.77044677734375 -9.952984809875488,33.34820556640625"></path><path stroke-linecap="round" stroke-linejoin="round" fill-opacity="0" stroke="rgb(250,144,22)" stroke-opacity="1" stroke-width="7.407" d=" M-4.110385417938232,-2.85805606842041 C35.771583557128906,6.504994869232178 44.57370376586914,32.531314849853516 42.17094421386719,44.62480926513672 C38.614498138427734,62.526527404785156 30.151777267456055,54.05807876586914 25.28455352783203,43.74264144897461 C22.249732971191406,37.31108093261719 6.425663471221924,36.77044677734375 -9.952984809875488,33.34820556640625"></path></g></g><g style="display: block;" transform="matrix(0.6137024760246277,1.0300911664962769,-1.0717264413833618,0.6385077238082886,504.684326171875,573.4263916015625)" opacity="1"><g opacity="1" transform="matrix(1,0,0,1,35.6879997253418,48.13999938964844)"><path stroke-linecap="round" stroke-linejoin="round" fill-opacity="0" stroke="rgb(255,255,255)" stroke-opacity="1" stroke-width="8.333" d=" M-367.38299560546875,76.70899963378906 C-373.34600830078125,74.47000122070312 -383.72698974609375,74.10600280761719 -395.07501220703125,77.55599975585938"></path></g></g><g style="display: block;" transform="matrix(1.3664016723632812,0.44463664293289185,-0.4241160750389099,1.3033404350280762,172.530029296875,237.61376953125)" opacity="1"><g opacity="1" transform="matrix(1,0,0,1,0,0)"><path fill="rgb(255,255,255)" fill-opacity="1" d=" M39.12861251831055,-34.17515563964844 C39.12861251831055,-34.17515563964844 -24.33721351623535,-12.647903442382812 -24.33721351623535,-12.647903442382812 C-24.33721351623535,-12.647903442382812 -30.62469482421875,11.1780424118042 -30.62469482421875,11.1780424118042 C-30.62469482421875,11.1780424118042 -51.90771484375,51.78334426879883 -51.90771484375,51.78334426879883 C-51.90771484375,51.78334426879883 39.12861251831055,-34.17515563964844 39.12861251831055,-34.17515563964844z"></path><path stroke-linecap="round" stroke-linejoin="round" fill-opacity="0" stroke="rgb(134,177,196)" stroke-opacity="1" stroke-width="7" d=" M39.12861251831055,-34.17515563964844 C39.12861251831055,-34.17515563964844 -24.33721351623535,-12.647903442382812 -24.33721351623535,-12.647903442382812 C-24.33721351623535,-12.647903442382812 -30.62469482421875,11.1780424118042 -30.62469482421875,11.1780424118042 C-30.62469482421875,11.1780424118042 -51.90771484375,51.78334426879883 -51.90771484375,51.78334426879883 C-51.90771484375,51.78334426879883 39.12861251831055,-34.17515563964844 39.12861251831055,-34.17515563964844z"></path></g></g><g style="display: none;"><g><path></path><path stroke-linecap="round" stroke-linejoin="round" fill-opacity="0"></path></g></g><g style="display: none;"><g><path></path><path stroke-linecap="round" stroke-linejoin="round" fill-opacity="0"></path></g></g><g style="display: block;" transform="matrix(1.3664016723632812,0.44463664293289185,-0.4241160750389099,1.3033404350280762,188.06724548339844,223.23162841796875)" opacity="0.33"><g opacity="1" transform="matrix(1,0,0,1,0,0)"><path stroke-linecap="round" stroke-linejoin="round" fill-opacity="0" stroke="rgb(134,177,196)" stroke-opacity="1" stroke-width="7" d=" M-39.754234313964844,27.627399444580078 C-39.754234313964844,27.627399444580078 28.70755958557129,-19.58414077758789 28.70755958557129,-19.58414077758789"></path></g></g><g style="display: block;" transform="matrix(1,0,0,1,256,256)" opacity="1"><g opacity="1" transform="matrix(1,0,0,1,0,0)"><path stroke-linecap="round" stroke-linejoin="round" fill-opacity="0" stroke="rgb(151,190,229)" stroke-opacity="1" stroke-width="12" d="M0 0"></path></g></g><g style="display: block;" transform="matrix(1,0,0,1,256,256)" opacity="1"><g opacity="1" transform="matrix(1,0,0,1,0,0)"><path stroke-linecap="round" stroke-linejoin="round" fill-opacity="0" stroke="rgb(151,190,229)" stroke-opacity="1" stroke-width="20" d="M0 0"></path></g></g><g style="display: block;" transform="matrix(1,0,0,1,256,256)" opacity="1"><g opacity="1" transform="matrix(1,0,0,1,0,0)"><path stroke-linecap="round" stroke-linejoin="round" fill-opacity="0" stroke="rgb(151,190,229)" stroke-opacity="1" stroke-width="15" d="M0 0"></path></g></g><g style="display: block;" transform="matrix(1,0,0,1,238.96299743652344,274.9840087890625)" opacity="1"><g opacity="1" transform="matrix(1,0,0,1,0,0)"><path stroke-linecap="round" stroke-linejoin="round" fill-opacity="0" stroke="rgb(255,255,255)" stroke-opacity="1" stroke-width="20" d="M0 0"></path></g></g><g style="display: block;" transform="matrix(1,0,0,1,286.07598876953125,262.6099853515625)" opacity="1"><g opacity="1" transform="matrix(1,0,0,1,0,0)"><path stroke-linecap="round" stroke-linejoin="round" fill-opacity="0" stroke="rgb(255,255,255)" stroke-opacity="1" stroke-width="20" d="M0 0"></path></g></g></g></g></svg>