<svg xmlns="http://www.w3.org/2000/svg" xmlns:xlink="http://www.w3.org/1999/xlink" viewBox="0 0 512 512" width="512" height="512" style="width: 100%; height: 100%; transform: translate3d(0,0,0); content-visibility: visible;" preserveAspectRatio="xMidYMid meet"><defs><clipPath id="__lottie_element_2"><rect width="512" height="512" x="0" y="0"></rect></clipPath><clipPath id="__lottie_element_4"><path d="M0,0 L512,0 L512,512 L0,512z"></path></clipPath><clipPath id="__lottie_element_148"><path d="M0,0 L512,0 L512,512 L0,512z"></path></clipPath><clipPath id="__lottie_element_155"><path d="M0,0 L512,0 L512,512 L0,512z"></path></clipPath><clipPath id="__lottie_element_162"><path d="M0,0 L512,0 L512,512 L0,512z"></path></clipPath><clipPath id="__lottie_element_169"><path d="M0,0 L512,0 L512,512 L0,512z"></path></clipPath><clipPath id="__lottie_element_176"><path d="M0,0 L512,0 L512,512 L0,512z"></path></clipPath><clipPath id="__lottie_element_183"><path d="M0,0 L512,0 L512,512 L0,512z"></path></clipPath></defs><g clip-path="url(#__lottie_element_2)"><g clip-path="url(#__lottie_element_4)" style="display: block;" transform="matrix(1,0,0,1,0,0)" opacity="1"><g clip-path="url(#__lottie_element_183)" style="display: block;" transform="matrix(0.25,0,0,0.25,372.9249267578125,7.8419952392578125)" opacity="1"><g style="display: block;" transform="matrix(1.030934453010559,0.008924856781959534,-0.008924856781959534,1.030934453010559,261.10845947265625,260.70489501953125)" opacity="1"><g opacity="1" transform="matrix(1,0,0,1,0,0)"><path fill="rgb(34,162,7)" fill-opacity="1" d=" M135,0 C135,70.6500015258789 74.55799865722656,127.9229965209961 0,127.9229965209961 C-74.55799865722656,127.9229965209961 -135,70.6500015258789 -135,0 C-135,-70.6500015258789 -74.55799865722656,-127.9229965209961 0,-127.9229965209961 C74.55799865722656,-127.9229965209961 135,-70.6500015258789 135,0z"></path><path stroke-linecap="round" stroke-linejoin="round" fill-opacity="0" stroke="rgb(28,100,5)" stroke-opacity="1" stroke-width="30" d=" M135,0 C135,70.6500015258789 74.55799865722656,127.9229965209961 0,127.9229965209961 C-74.55799865722656,127.9229965209961 -135,70.6500015258789 -135,0 C-135,-70.6500015258789 -74.55799865722656,-127.9229965209961 0,-127.9229965209961 C74.55799865722656,-127.9229965209961 135,-70.6500015258789 135,0z"></path></g></g><g style="display: block;" transform="matrix(0.6174777746200562,-0.7719247937202454,0.7719247937202454,0.6174777746200562,258.822509765625,255.0114288330078)" opacity="1"><path stroke-linecap="butt" stroke-linejoin="miter" fill-opacity="0" stroke-miterlimit="4" stroke="rgb(28,100,5)" stroke-opacity="1" stroke-width="30" d=" M63.57,-116.8 C72.43,-116.8 79.63,-109.6 79.63,-100.74 C79.63,-91.87 72.43,-84.68 63.57,-84.68 C54.7,-84.68 47.51,-91.87 47.51,-100.74 C47.51,-109.6 54.7,-116.8 63.57,-116.8z M123.84,26.06 C132.03,26.06 138.68,32.7 138.68,40.89 C138.68,49.08 132.03,55.73 123.84,55.73 C115.65,55.73 109,49.08 109,40.89 C109,32.7 115.65,26.06 123.84,26.06z M56.4,106.55 C64.59,106.55 71.24,113.2 71.24,121.39 C71.24,129.58 64.59,136.23 56.4,136.23 C48.21,136.23 41.56,129.58 41.56,121.39 C41.56,113.2 48.21,106.55 56.4,106.55z M128.05,9.17 C136.4,9.17 143.18,15.95 143.18,24.3 C143.18,32.66 136.4,39.44 128.05,39.44 C119.7,39.44 112.91,32.66 112.91,24.3 C112.91,15.95 119.7,9.17 128.05,9.17z M-119.69,37.61 C-111.13,37.61 -104.19,44.55 -104.19,53.11 C-104.19,61.66 -111.13,68.61 -119.69,68.61 C-128.24,68.61 -135.19,61.66 -135.19,53.11 C-135.19,44.55 -128.24,37.61 -119.69,37.61z M-106.87,-90.45 C-98.12,-90.45 -91.02,-83.35 -91.02,-74.6 C-91.02,-65.85 -98.12,-58.74 -106.87,-58.74 C-115.62,-58.74 -122.72,-65.85 -122.72,-74.6 C-122.72,-83.35 -115.62,-90.45 -106.87,-90.45z M-17.51,113.26 C-7.31,113.26 0.97,121.54 0.97,131.74 C0.97,141.94 -7.31,150.22 -17.51,150.22 C-27.71,150.22 -35.99,141.94 -35.99,131.74 C-35.99,121.54 -27.71,113.26 -17.51,113.26z M45.85,108.09 C56.05,108.09 64.33,116.37 64.33,126.57 C64.33,136.77 56.05,145.05 45.85,145.05 C35.65,145.05 27.37,136.77 27.37,126.57 C27.37,116.37 35.65,108.09 45.85,108.09z"></path><g opacity="1" transform="matrix(0.6713700294494629,0,0,0.6713700294494629,63.569000244140625,-100.73899841308594)"><path fill="rgb(34,162,7)" fill-opacity="1" d=" M0,-23.924999237060547 C13.204207420349121,-23.924999237060547 23.924999237060547,-13.204207420349121 23.924999237060547,0 C23.924999237060547,13.204207420349121 13.204207420349121,23.924999237060547 0,23.924999237060547 C-13.204207420349121,23.924999237060547 -23.924999237060547,13.204207420349121 -23.924999237060547,0 C-23.924999237060547,-13.204207420349121 -13.204207420349121,-23.924999237060547 0,-23.924999237060547z"></path></g><g opacity="1" transform="matrix(0.6202200055122375,0,0,0.6202200055122375,123.84100341796875,40.89400100708008)"><path fill="rgb(34,162,7)" fill-opacity="1" d=" M0,-23.924999237060547 C13.204207420349121,-23.924999237060547 23.924999237060547,-13.204207420349121 23.924999237060547,0 C23.924999237060547,13.204207420349121 13.204207420349121,23.924999237060547 0,23.924999237060547 C-13.204207420349121,23.924999237060547 -23.924999237060547,13.204207420349121 -23.924999237060547,0 C-23.924999237060547,-13.204207420349121 -13.204207420349121,-23.924999237060547 0,-23.924999237060547z"></path></g><g opacity="1" transform="matrix(0.6202200055122375,0,0,0.6202200055122375,56.402000427246094,121.38999938964844)"><path fill="rgb(34,162,7)" fill-opacity="1" d=" M0,-23.924999237060547 C13.204207420349121,-23.924999237060547 23.924999237060547,-13.204207420349121 23.924999237060547,0 C23.924999237060547,13.204207420349121 13.204207420349121,23.924999237060547 0,23.924999237060547 C-13.204207420349121,23.924999237060547 -23.924999237060547,13.204207420349121 -23.924999237060547,0 C-23.924999237060547,-13.204207420349121 -13.204207420349121,-23.924999237060547 0,-23.924999237060547z"></path></g><g opacity="1" transform="matrix(0.6325700283050537,0,0,0.6325700283050537,128.04800415039062,24.304000854492188)"><path fill="rgb(34,162,7)" fill-opacity="1" d=" M0,-23.924999237060547 C13.204207420349121,-23.924999237060547 23.924999237060547,-13.204207420349121 23.924999237060547,0 C23.924999237060547,13.204207420349121 13.204207420349121,23.924999237060547 0,23.924999237060547 C-13.204207420349121,23.924999237060547 -23.924999237060547,13.204207420349121 -23.924999237060547,0 C-23.924999237060547,-13.204207420349121 -13.204207420349121,-23.924999237060547 0,-23.924999237060547z"></path></g><g opacity="1" transform="matrix(0.6479200124740601,0,0,0.6479200124740601,-119.68900299072266,53.106998443603516)"><path fill="rgb(34,162,7)" fill-opacity="1" d=" M0,-23.924999237060547 C13.204207420349121,-23.924999237060547 23.924999237060547,-13.204207420349121 23.924999237060547,0 C23.924999237060547,13.204207420349121 13.204207420349121,23.924999237060547 0,23.924999237060547 C-13.204207420349121,23.924999237060547 -23.924999237060547,13.204207420349121 -23.924999237060547,0 C-23.924999237060547,-13.204207420349121 -13.204207420349121,-23.924999237060547 0,-23.924999237060547z"></path></g><g opacity="1" transform="matrix(0.6626499891281128,0,0,0.6626499891281128,-106.86900329589844,-74.59600067138672)"><path fill="rgb(34,162,7)" fill-opacity="1" d=" M0,-23.924999237060547 C13.204207420349121,-23.924999237060547 23.924999237060547,-13.204207420349121 23.924999237060547,0 C23.924999237060547,13.204207420349121 13.204207420349121,23.924999237060547 0,23.924999237060547 C-13.204207420349121,23.924999237060547 -23.924999237060547,13.204207420349121 -23.924999237060547,0 C-23.924999237060547,-13.204207420349121 -13.204207420349121,-23.924999237060547 0,-23.924999237060547z"></path></g><g opacity="1" transform="matrix(0.7724400162696838,0,0,0.7724400162696838,-17.51099967956543,131.74200439453125)"><path fill="rgb(34,162,7)" fill-opacity="1" d=" M0,-23.924999237060547 C13.204207420349121,-23.924999237060547 23.924999237060547,-13.204207420349121 23.924999237060547,0 C23.924999237060547,13.204207420349121 13.204207420349121,23.924999237060547 0,23.924999237060547 C-13.204207420349121,23.924999237060547 -23.924999237060547,13.204207420349121 -23.924999237060547,0 C-23.924999237060547,-13.204207420349121 -13.204207420349121,-23.924999237060547 0,-23.924999237060547z"></path></g><g opacity="1" transform="matrix(0.7724400162696838,0,0,0.7724400162696838,45.854000091552734,126.56999969482422)"><path fill="rgb(34,162,7)" fill-opacity="1" d=" M0,-23.924999237060547 C13.204207420349121,-23.924999237060547 23.924999237060547,-13.204207420349121 23.924999237060547,0 C23.924999237060547,13.204207420349121 13.204207420349121,23.924999237060547 0,23.924999237060547 C-13.204207420349121,23.924999237060547 -23.924999237060547,13.204207420349121 -23.924999237060547,0 C-23.924999237060547,-13.204207420349121 -13.204207420349121,-23.924999237060547 0,-23.924999237060547z"></path></g></g><g style="display: block;" transform="matrix(-0.2694131135940552,0.8632168769836426,-0.8632168769836426,-0.2694131135940552,400.7777099609375,393.7943115234375)" opacity="1"><g opacity="1" transform="matrix(1,0,0,1,0,0)"><path stroke-linecap="round" stroke-linejoin="round" fill-opacity="0" stroke="rgb(34,162,7)" stroke-opacity="1" stroke-width="25" d=" M-90.22000122070312,191.1179962158203 C-90.22000122070312,191.1179962158203 -9.961999893188477,11.83899974822998 -9.961999893188477,11.83899974822998"></path></g><g opacity="1" transform="matrix(1,0,0,1,0,0)"><path stroke-linecap="round" stroke-linejoin="round" fill-opacity="0" stroke="rgb(34,162,7)" stroke-opacity="1" stroke-width="50" d=" M-9.961999893188477,11.83899974822998 C-9.961999893188477,11.83899974822998 -10.239999771118164,12.460000038146973 -10.762999534606934,13.628000259399414"></path></g></g><g style="display: block;" transform="matrix(-0.8822742700576782,0.19828984141349792,-0.19828984141349792,-0.8822742700576782,218.40586853027344,450.9333801269531)" opacity="1"><g opacity="1" transform="matrix(1,0,0,1,0,0)"><path stroke-linecap="round" stroke-linejoin="round" fill-opacity="0" stroke="rgb(34,162,7)" stroke-opacity="1" stroke-width="25" d=" M-90.22000122070312,191.1179962158203 C-90.22000122070312,191.1179962158203 -9.961999893188477,11.83899974822998 -9.961999893188477,11.83899974822998"></path></g><g opacity="1" transform="matrix(1,0,0,1,0,0)"><path stroke-linecap="round" stroke-linejoin="round" fill-opacity="0" stroke="rgb(34,162,7)" stroke-opacity="1" stroke-width="50" d=" M-9.961999893188477,11.83899974822998 C-9.961999893188477,11.83899974822998 -10.239999771118164,12.460000038146973 -10.762999534606934,13.628000259399414"></path></g></g><g style="display: block;" transform="matrix(-0.612861156463623,-0.664927065372467,0.664927065372467,-0.612861156463623,77.73603057861328,321.5642395019531)" opacity="1"><g opacity="1" transform="matrix(1,0,0,1,0,0)"><path stroke-linecap="round" stroke-linejoin="round" fill-opacity="0" stroke="rgb(34,162,7)" stroke-opacity="1" stroke-width="25" d=" M-90.22000122070312,191.1179962158203 C-90.22000122070312,191.1179962158203 -9.961999893188477,11.83899974822998 -9.961999893188477,11.83899974822998"></path></g><g opacity="1" transform="matrix(1,0,0,1,0,0)"><path stroke-linecap="round" stroke-linejoin="round" fill-opacity="0" stroke="rgb(34,162,7)" stroke-opacity="1" stroke-width="50" d=" M-9.961999893188477,11.83899974822998 C-9.961999893188477,11.83899974822998 -10.239999771118164,12.460000038146973 -10.762999534606934,13.628000259399414"></path></g></g><g style="display: block;" transform="matrix(0.2694131135940552,-0.8632168769836426,0.8632168769836426,0.2694131135940552,119.43805694580078,135.05604553222656)" opacity="1"><g opacity="1" transform="matrix(1,0,0,1,0,0)"><path stroke-linecap="round" stroke-linejoin="round" fill-opacity="0" stroke="rgb(34,162,7)" stroke-opacity="1" stroke-width="25" d=" M-90.22000122070312,191.1179962158203 C-90.22000122070312,191.1179962158203 -9.961999893188477,11.83899974822998 -9.961999893188477,11.83899974822998"></path></g><g opacity="1" transform="matrix(1,0,0,1,0,0)"><path stroke-linecap="round" stroke-linejoin="round" fill-opacity="0" stroke="rgb(34,162,7)" stroke-opacity="1" stroke-width="50" d=" M-9.961999893188477,11.83899974822998 C-9.961999893188477,11.83899974822998 -10.239999771118164,12.460000038146973 -10.762999534606934,13.628000259399414"></path></g></g><g style="display: block;" transform="matrix(0.8822742700576782,-0.19828984141349792,0.19828984141349792,0.8822742700576782,301.8099365234375,77.9169692993164)" opacity="1"><g opacity="1" transform="matrix(1,0,0,1,0,0)"><path stroke-linecap="round" stroke-linejoin="round" fill-opacity="0" stroke="rgb(34,162,7)" stroke-opacity="1" stroke-width="25" d=" M-90.22000122070312,191.1179962158203 C-90.22000122070312,191.1179962158203 -9.961999893188477,11.83899974822998 -9.961999893188477,11.83899974822998"></path></g><g opacity="1" transform="matrix(1,0,0,1,0,0)"><path stroke-linecap="round" stroke-linejoin="round" fill-opacity="0" stroke="rgb(34,162,7)" stroke-opacity="1" stroke-width="50" d=" M-9.961999893188477,11.83899974822998 C-9.961999893188477,11.83899974822998 -10.239999771118164,12.460000038146973 -10.762999534606934,13.628000259399414"></path></g></g><g style="display: block;" transform="matrix(0.612861156463623,0.664927065372467,-0.664927065372467,0.612861156463623,442.4797668457031,207.2860870361328)" opacity="1"><g opacity="1" transform="matrix(1,0,0,1,0,0)"><path stroke-linecap="round" stroke-linejoin="round" fill-opacity="0" stroke="rgb(34,162,7)" stroke-opacity="1" stroke-width="25" d=" M-90.22000122070312,191.1179962158203 C-90.22000122070312,191.1179962158203 -9.961999893188477,11.83899974822998 -9.961999893188477,11.83899974822998"></path></g><g opacity="1" transform="matrix(1,0,0,1,0,0)"><path stroke-linecap="round" stroke-linejoin="round" fill-opacity="0" stroke="rgb(34,162,7)" stroke-opacity="1" stroke-width="50" d=" M-9.961999893188477,11.83899974822998 C-9.961999893188477,11.83899974822998 -10.239999771118164,12.460000038146973 -10.762999534606934,13.628000259399414"></path></g></g><g style="display: block;" transform="matrix(0.19570615887641907,0.8707785606384277,-0.8707785606384277,0.19570615887641907,444.1859436035156,305.5838317871094)" opacity="1"><g opacity="1" transform="matrix(1,0,0,1,0,0)"><path stroke-linecap="round" stroke-linejoin="round" fill-opacity="0" stroke="rgb(34,117,7)" stroke-opacity="1" stroke-width="25" d=" M-90.22000122070312,191.1179962158203 C-90.22000122070312,191.1179962158203 -9.961999893188477,11.83899974822998 -9.961999893188477,11.83899974822998"></path></g><g opacity="1" transform="matrix(1,0,0,1,0,0)"><path stroke-linecap="round" stroke-linejoin="round" fill-opacity="0" stroke="rgb(34,117,7)" stroke-opacity="1" stroke-width="50" d=" M-9.961999893188477,11.83899974822998 C-9.961999893188477,11.83899974822998 -10.239999771118164,12.460000038146973 -10.762999534606934,13.628000259399414"></path></g></g><g style="display: block;" transform="matrix(-0.6562632918357849,0.6048758029937744,-0.6048758029937744,-0.6562632918357849,316.5024719238281,444.4208068847656)" opacity="1"><g opacity="1" transform="matrix(1,0,0,1,0,0)"><path stroke-linecap="round" stroke-linejoin="round" fill-opacity="0" stroke="rgb(34,117,7)" stroke-opacity="1" stroke-width="25" d=" M-90.22000122070312,191.1179962158203 C-90.22000122070312,191.1179962158203 -9.961999893188477,11.83899974822998 -9.961999893188477,11.83899974822998"></path></g><g opacity="1" transform="matrix(1,0,0,1,0,0)"><path stroke-linecap="round" stroke-linejoin="round" fill-opacity="0" stroke="rgb(34,117,7)" stroke-opacity="1" stroke-width="50" d=" M-9.961999893188477,11.83899974822998 C-9.961999893188477,11.83899974822998 -10.239999771118164,12.460000038146973 -10.762999534606934,13.628000259399414"></path></g></g><g style="display: block;" transform="matrix(-0.8519694805145264,-0.2659027874469757,0.2659027874469757,-0.8519694805145264,132.42440795898438,403.2621154785156)" opacity="1"><g opacity="1" transform="matrix(1,0,0,1,0,0)"><path stroke-linecap="round" stroke-linejoin="round" fill-opacity="0" stroke="rgb(34,117,7)" stroke-opacity="1" stroke-width="25" d=" M-90.22000122070312,191.1179962158203 C-90.22000122070312,191.1179962158203 -9.961999893188477,11.83899974822998 -9.961999893188477,11.83899974822998"></path></g><g opacity="1" transform="matrix(1,0,0,1,0,0)"><path stroke-linecap="round" stroke-linejoin="round" fill-opacity="0" stroke="rgb(34,117,7)" stroke-opacity="1" stroke-width="50" d=" M-9.961999893188477,11.83899974822998 C-9.961999893188477,11.83899974822998 -10.239999771118164,12.460000038146973 -10.762999534606934,13.628000259399414"></path></g></g><g style="display: block;" transform="matrix(-0.19570615887641907,-0.8707785606384277,0.8707785606384277,-0.19570615887641907,76.0298080444336,223.26649475097656)" opacity="1"><g opacity="1" transform="matrix(1,0,0,1,0,0)"><path stroke-linecap="round" stroke-linejoin="round" fill-opacity="0" stroke="rgb(34,117,7)" stroke-opacity="1" stroke-width="25" d=" M-90.22000122070312,191.1179962158203 C-90.22000122070312,191.1179962158203 -9.961999893188477,11.83899974822998 -9.961999893188477,11.83899974822998"></path></g><g opacity="1" transform="matrix(1,0,0,1,0,0)"><path stroke-linecap="round" stroke-linejoin="round" fill-opacity="0" stroke="rgb(34,117,7)" stroke-opacity="1" stroke-width="50" d=" M-9.961999893188477,11.83899974822998 C-9.961999893188477,11.83899974822998 -10.239999771118164,12.460000038146973 -10.762999534606934,13.628000259399414"></path></g></g><g style="display: block;" transform="matrix(0.6562632918357849,-0.6048758029937744,0.6048758029937744,0.6562632918357849,203.71331787109375,84.42955017089844)" opacity="1"><g opacity="1" transform="matrix(1,0,0,1,0,0)"><path stroke-linecap="round" stroke-linejoin="round" fill-opacity="0" stroke="rgb(34,117,7)" stroke-opacity="1" stroke-width="25" d=" M-90.22000122070312,191.1179962158203 C-90.22000122070312,191.1179962158203 -9.961999893188477,11.83899974822998 -9.961999893188477,11.83899974822998"></path></g><g opacity="1" transform="matrix(1,0,0,1,0,0)"><path stroke-linecap="round" stroke-linejoin="round" fill-opacity="0" stroke="rgb(34,117,7)" stroke-opacity="1" stroke-width="50" d=" M-9.961999893188477,11.83899974822998 C-9.961999893188477,11.83899974822998 -10.239999771118164,12.460000038146973 -10.762999534606934,13.628000259399414"></path></g></g><g style="display: block;" transform="matrix(0.8519694805145264,0.2659027874469757,-0.2659027874469757,0.8519694805145264,387.7913818359375,125.58821868896484)" opacity="1"><g opacity="1" transform="matrix(1,0,0,1,0,0)"><path stroke-linecap="round" stroke-linejoin="round" fill-opacity="0" stroke="rgb(34,117,7)" stroke-opacity="1" stroke-width="25" d=" M-90.22000122070312,191.1179962158203 C-90.22000122070312,191.1179962158203 -9.961999893188477,11.83899974822998 -9.961999893188477,11.83899974822998"></path></g><g opacity="1" transform="matrix(1,0,0,1,0,0)"><path stroke-linecap="round" stroke-linejoin="round" fill-opacity="0" stroke="rgb(34,117,7)" stroke-opacity="1" stroke-width="50" d=" M-9.961999893188477,11.83899974822998 C-9.961999893188477,11.83899974822998 -10.239999771118164,12.460000038146973 -10.762999534606934,13.628000259399414"></path></g></g><g style="display: block;" transform="matrix(1.030934453010559,0.008924856781959534,-0.008924856781959534,1.030934453010559,261.10845947265625,260.70489501953125)" opacity="1"><g opacity="1" transform="matrix(1,0,0,1,0,0)"><path fill="rgb(34,162,7)" fill-opacity="1" d=" M135,0 C135,70.6500015258789 74.55799865722656,127.9229965209961 0,127.9229965209961 C-74.55799865722656,127.9229965209961 -135,70.6500015258789 -135,0 C-135,-70.6500015258789 -74.55799865722656,-127.9229965209961 0,-127.9229965209961 C74.55799865722656,-127.9229965209961 135,-70.6500015258789 135,0z"></path></g></g><g style="display: block;" transform="matrix(0.9565938115119934,0.00828128308057785,-0.0070656281895935535,0.8161701560020447,261.4847717285156,235.21954345703125)" opacity="1"><g opacity="1" transform="matrix(1,0,0,1,0,0)"><path fill="rgb(44,188,13)" fill-opacity="1" d=" M135,0 C135,70.6500015258789 74.55799865722656,127.9229965209961 0,127.9229965209961 C-74.55799865722656,127.9229965209961 -135,70.6500015258789 -135,0 C-135,-70.6500015258789 -74.55799865722656,-127.9229965209961 0,-127.9229965209961 C74.55799865722656,-127.9229965209961 135,-70.6500015258789 135,0z"></path></g><g opacity="1" transform="matrix(1,0,0,1,122.71800231933594,26.990999221801758)"><path fill="rgb(44,188,13)" fill-opacity="1" d=" M0,-21.243499755859375 C10.074934005737305,-21.243499755859375 18.2549991607666,-11.724287986755371 18.2549991607666,0 C18.2549991607666,11.724287986755371 10.074934005737305,21.243499755859375 0,21.243499755859375 C-10.074934005737305,21.243499755859375 -18.2549991607666,11.724287986755371 -18.2549991607666,0 C-18.2549991607666,-11.724287986755371 -10.074934005737305,-21.243499755859375 0,-21.243499755859375z"></path></g><g opacity="1" transform="matrix(1,0,0,1,27.93199920654297,118.6259994506836)"><path fill="rgb(44,188,13)" fill-opacity="1" d=" M0,-17.772499084472656 C9.666804313659668,-17.772499084472656 17.515499114990234,-9.808642387390137 17.515499114990234,0 C17.515499114990234,9.808642387390137 9.666804313659668,17.772499084472656 0,17.772499084472656 C-9.666804313659668,17.772499084472656 -17.515499114990234,9.808642387390137 -17.515499114990234,0 C-17.515499114990234,-9.808642387390137 -9.666804313659668,-17.772499084472656 0,-17.772499084472656z"></path></g><g opacity="1" transform="matrix(1,0,0,1,46.972999572753906,109.06400299072266)"><path fill="rgb(44,188,13)" fill-opacity="1" d=" M0,-15.682499885559082 C7.7017645835876465,-15.682499885559082 13.954999923706055,-8.655171394348145 13.954999923706055,0 C13.954999923706055,8.655171394348145 7.7017645835876465,15.682499885559082 0,15.682499885559082 C-7.7017645835876465,15.682499885559082 -13.954999923706055,8.655171394348145 -13.954999923706055,0 C-13.954999923706055,-8.655171394348145 -7.7017645835876465,-15.682499885559082 0,-15.682499885559082z"></path></g></g><g style="display: block;" transform="matrix(0.9802088141441345,0.14579366147518158,-0.14579366147518158,0.9802088141441345,277.1526794433594,154.38589477539062)" opacity="1"><g opacity="1" transform="matrix(1,0,0,1,0,0)"><path stroke-linecap="round" stroke-linejoin="round" fill-opacity="0" stroke-dasharray=" 75 25" stroke-dashoffset="0" stroke="rgb(54,220,18)" stroke-opacity="1" stroke-width="20" d=" M-32.59000015258789,-4.855000019073486 C-22.301000595092773,-7.9120001792907715 -11.352999687194824,-9.5600004196167 0,-9.5600004196167 C20.847000122070312,-9.5600004196167 40.32500076293945,-4.002999782562256 56.874000549316406,5.63100004196167"></path></g></g><g style="display: block;" transform="matrix(0.8479294776916504,-0.059293001890182495,0.059293001890182495,0.8479294776916504,243.10633850097656,296.9168701171875)" opacity="1"><g opacity="1" transform="matrix(1,0,0,1,0,0)"><path fill="rgb(255,255,255)" fill-opacity="1" d=" M22.04400062561035,22.981000900268555 C15.890999794006348,28.39299964904785 -6.835000038146973,33.31999969482422 -19.975000381469727,21.43400001525879 C-27.55699920654297,14.576000213623047 -27.010000228881836,17.51099967956543 -20.4689998626709,21.604000091552734 C-6.473999977111816,30.361000061035156 9.038999557495117,32.36899948120117 22.482999801635742,23.822999954223633 C29.344999313354492,19.461000442504883 26.704999923706055,18.881999969482422 22.04400062561035,22.981000900268555z"></path><path stroke-linecap="round" stroke-linejoin="round" fill-opacity="0" stroke="rgb(5,45,8)" stroke-opacity="1" stroke-width="15" d=" M22.04400062561035,22.981000900268555 C15.890999794006348,28.39299964904785 -6.835000038146973,33.31999969482422 -19.975000381469727,21.43400001525879 C-27.55699920654297,14.576000213623047 -27.010000228881836,17.51099967956543 -20.4689998626709,21.604000091552734 C-6.473999977111816,30.361000061035156 9.038999557495117,32.36899948120117 22.482999801635742,23.822999954223633 C29.344999313354492,19.461000442504883 26.704999923706055,18.881999969482422 22.04400062561035,22.981000900268555z"></path></g></g><g style="display: block;" transform="matrix(-0.06663160771131516,0.19163064658641815,-0.16828572750091553,-0.05851438641548157,193.37232971191406,324.1955871582031)" opacity="0.4"><g opacity="1" transform="matrix(1,0,0,1,0,0)"><path fill="rgb(28,100,5)" fill-opacity="1" d=" M32.308998107910156,0.5139999985694885 C32.29600143432617,22.990999221801758 17.820999145507812,40.981998443603516 -0.023000000044703484,40.698001861572266 C-17.867000579833984,40.41400146484375 -32.321998596191406,21.96299934387207 -32.308998107910156,-0.5139999985694885 C-32.29600143432617,-22.990999221801758 -17.820999145507812,-40.981998443603516 0.023000000044703484,-40.698001861572266 C17.867000579833984,-40.41400146484375 32.321998596191406,-21.96299934387207 32.308998107910156,0.5139999985694885z"></path></g></g><g style="display: block;" transform="matrix(-0.09156115353107452,0.2633272707462311,-0.2296135574579239,-0.0798385888338089,187.75689697265625,343.74188232421875)" opacity="0.4"><g opacity="1" transform="matrix(1,0,0,1,0,0)"><path fill="rgb(28,100,5)" fill-opacity="1" d=" M32.308998107910156,0.5139999985694885 C32.29600143432617,22.990999221801758 17.820999145507812,40.981998443603516 -0.023000000044703484,40.698001861572266 C-17.867000579833984,40.41400146484375 -32.321998596191406,21.96299934387207 -32.308998107910156,-0.5139999985694885 C-32.29600143432617,-22.990999221801758 -17.820999145507812,-40.981998443603516 0.023000000044703484,-40.698001861572266 C17.867000579833984,-40.41400146484375 32.321998596191406,-21.96299934387207 32.308998107910156,0.5139999985694885z"></path></g></g><g style="display: block;" transform="matrix(-0.10784585028886795,0.31016162037849426,-0.28036782145500183,-0.09748628735542297,164.3781280517578,327.8785400390625)" opacity="0.4"><g opacity="1" transform="matrix(1,0,0,1,0,0)"><path fill="rgb(28,100,5)" fill-opacity="1" d=" M32.308998107910156,0.5139999985694885 C32.29600143432617,22.990999221801758 17.820999145507812,40.981998443603516 -0.023000000044703484,40.698001861572266 C-17.867000579833984,40.41400146484375 -32.321998596191406,21.96299934387207 -32.308998107910156,-0.5139999985694885 C-32.29600143432617,-22.990999221801758 -17.820999145507812,-40.981998443603516 0.023000000044703484,-40.698001861572266 C17.867000579833984,-40.41400146484375 32.321998596191406,-21.96299934387207 32.308998107910156,0.5139999985694885z"></path></g></g><g style="display: block;" transform="matrix(0.6375000476837158,0.000011129144695587456,-0.000011129144695587456,0.6375000476837158,182.18496704101562,171.2126007080078)" opacity="1"><g opacity="1" transform="matrix(1,0,0,1,0,0)"><path stroke-linecap="round" stroke-linejoin="round" fill-opacity="0" stroke="rgb(5,45,8)" stroke-opacity="1" stroke-width="30" d=" M-20.801000595092773,72.36100006103516 C-6.932000160217285,72.60700225830078 10.322999954223633,79.66600036621094 28.576000213623047,86.5770034790039"></path></g></g><g style="display: block;" transform="matrix(0.6375000476837158,0.000011129144695587456,-0.000011129144695587456,0.6375000476837158,176.05677795410156,275.1944885253906)" opacity="1"><path stroke-linecap="butt" stroke-linejoin="miter" fill-opacity="0" stroke-miterlimit="4" stroke="rgb(5,45,8)" stroke-opacity="1" stroke-width="28.406484418083295" d=" M46.60791015625,-2.3519937992095947 C48.63861846923828,25.42206382751465 30.44568634033203,51.02952575683594 3.564845323562622,52.59381866455078 C-23.334402084350586,54.16041946411133 -44.995182037353516,30.563154220581055 -46.40099334716797,2.6189873218536377 C-47.81031036376953,-25.32191276550293 -29.175256729125977,-47.3115348815918 -2.9577157497406006,-48.73041915893555 C23.312570571899414,-50.15447998046875 44.167667388916016,-30.35886573791504 46.60791015625,-2.3519937992095947z"></path><g opacity="1" transform="matrix(1,0,0,1,0,0)"><path fill="rgb(5,45,8)" fill-opacity="1" d=" M46.60791015625,-2.3519937992095947 C48.63861846923828,25.42206382751465 30.44568634033203,51.02952575683594 3.564845323562622,52.59381866455078 C-23.334402084350586,54.16041946411133 -44.995182037353516,30.563154220581055 -46.40099334716797,2.6189873218536377 C-47.81031036376953,-25.32191276550293 -29.175256729125977,-47.3115348815918 -2.9577157497406006,-48.73041915893555 C23.312570571899414,-50.15447998046875 44.167667388916016,-30.35886573791504 46.60791015625,-2.3519937992095947z"></path></g></g><g style="display: block;" transform="matrix(0.624750018119812,0.000010912795005424414,-0.000010912795005424414,0.624750018119812,164.06109619140625,255.7194366455078)" opacity="1"><g opacity="1" transform="matrix(0.9289840459823608,-0.37011969089508057,0.37011969089508057,0.9289840459823608,0,0)"><path fill="rgb(255,255,255)" fill-opacity="1" d=" M33.86145782470703,9.004055976867676 C32.33852767944336,16.38518714904785 21.253461837768555,20.802988052368164 9.185311317443848,18.44317626953125 C-2.8828394412994385,16.083364486694336 -11.365683555603027,7.839854717254639 -9.842751502990723,0.4587235152721405 C-8.319820404052734,-6.922407627105713 2.63309907913208,-10.645036697387695 14.701250076293945,-8.285225868225098 C26.769399642944336,-5.925414085388184 35.38439178466797,1.6229251623153687 33.86145782470703,9.004055976867676z"></path></g></g><g style="display: block;" transform="matrix(0.3409542143344879,0.2465377151966095,-0.2465377151966095,0.3409542143344879,179.94357299804688,278.03143310546875)" opacity="1"><path stroke-linecap="round" stroke-linejoin="miter" fill-opacity="0" stroke-miterlimit="4" stroke="rgb(28,100,5)" stroke-opacity="1" stroke-width="27.609726627124942" d=" M40.41206741333008,26.82976531982422 C33.243621826171875,41.24864959716797 19.910154342651367,51.48151779174805 3.9289391040802,52.87721633911133"></path><g opacity="1" transform="matrix(1,0,0,1,0,0)"></g></g><g style="display: block;" transform="matrix(0.03372908756136894,0.24432523548603058,-0.20371907949447632,0.028123408555984497,310.17523193359375,332.26763916015625)" opacity="0.4"><g opacity="1" transform="matrix(1,0,0,1,0,0)"><path fill="rgb(28,100,5)" fill-opacity="1" d=" M32.308998107910156,0.5139999985694885 C32.29600143432617,22.990999221801758 17.820999145507812,40.981998443603516 -0.023000000044703484,40.698001861572266 C-17.867000579833984,40.41400146484375 -32.321998596191406,21.96299934387207 -32.308998107910156,-0.5139999985694885 C-32.29600143432617,-22.990999221801758 -17.820999145507812,-40.981998443603516 0.023000000044703484,-40.698001861572266 C17.867000579833984,-40.41400146484375 32.321998596191406,-21.96299934387207 32.308998107910156,0.5139999985694885z"></path></g></g><g style="display: block;" transform="matrix(0.10020968317985535,0.26015904545783997,-0.22685092687606812,0.08737985789775848,329.2253723144531,346.740478515625)" opacity="0.4"><g opacity="1" transform="matrix(1,0,0,1,0,0)"><path fill="rgb(28,100,5)" fill-opacity="1" d=" M32.308998107910156,0.5139999985694885 C32.29600143432617,22.990999221801758 17.820999145507812,40.981998443603516 -0.023000000044703484,40.698001861572266 C-17.867000579833984,40.41400146484375 -32.321998596191406,21.96299934387207 -32.308998107910156,-0.5139999985694885 C-32.29600143432617,-22.990999221801758 -17.820999145507812,-40.981998443603516 0.023000000044703484,-40.698001861572266 C17.867000579833984,-40.41400146484375 32.321998596191406,-21.96299934387207 32.308998107910156,0.5139999985694885z"></path></g></g><g style="display: block;" transform="matrix(0.06986558437347412,0.30551469326019287,-0.2617640793323517,0.05986062437295914,344.19744873046875,325.44378662109375)" opacity="0.4"><g opacity="1" transform="matrix(1,0,0,1,0,0)"><path fill="rgb(28,100,5)" fill-opacity="1" d=" M32.308998107910156,0.5139999985694885 C32.29600143432617,22.990999221801758 17.820999145507812,40.981998443603516 -0.023000000044703484,40.698001861572266 C-17.867000579833984,40.41400146484375 -32.321998596191406,21.96299934387207 -32.308998107910156,-0.5139999985694885 C-32.29600143432617,-22.990999221801758 -17.820999145507812,-40.981998443603516 0.023000000044703484,-40.698001861572266 C17.867000579833984,-40.41400146484375 32.321998596191406,-21.96299934387207 32.308998107910156,0.5139999985694885z"></path></g></g><g style="display: block;" transform="matrix(0.9705818891525269,-0.05016962066292763,0.05016962066292763,0.9705818891525269,263.4507141113281,373.7256774902344)" opacity="1"><g opacity="1" transform="matrix(1,0,0,1,0,0)"><path stroke-linecap="round" stroke-linejoin="round" fill-opacity="0" stroke-dasharray=" 40 20" stroke-dashoffset="0" stroke="rgb(46,198,13)" stroke-opacity="1" stroke-width="15" d=" M41.599998474121094,0.7739999890327454 C30.354999542236328,4.2230000495910645 18.45599937438965,6.072000026702881 6.144999980926514,6.072000026702881 C-4.61299991607666,6.072000026702881 -15.055000305175781,4.659999847412109 -25.020999908447266,2.003000020980835"></path></g></g><g style="display: block;" transform="matrix(0.6375000476837158,0.000011129144695587456,-0.000011129144695587456,0.6375000476837158,323.6535339355469,170.21090698242188)" opacity="1"><g opacity="1" transform="matrix(1,0,0,1,0,0)"><path stroke-linecap="round" stroke-linejoin="round" fill-opacity="0" stroke="rgb(5,45,8)" stroke-opacity="1" stroke-width="30" d=" M-44.33000183105469,91.18499755859375 C-26.489999771118164,85.15899658203125 -10.803999900817871,77.31600189208984 4.26200008392334,69.3219985961914"></path></g></g><g style="display: block;" transform="matrix(0.6375000476837158,0.000011129144695587456,-0.000011129144695587456,0.6375000476837158,317.5252685546875,278.1930847167969)" opacity="1"><path stroke-linecap="butt" stroke-linejoin="miter" fill-opacity="0" stroke-miterlimit="4" stroke="rgb(5,45,8)" stroke-opacity="1" stroke-width="28.406484418083295" d=" M46.60791015625,-2.3519937992095947 C48.63861846923828,25.42206382751465 30.44568634033203,51.02952575683594 3.564845323562622,52.59381866455078 C-23.334402084350586,54.16041946411133 -44.995182037353516,30.563154220581055 -46.40099334716797,2.6189873218536377 C-47.81031036376953,-25.32191276550293 -29.175256729125977,-47.3115348815918 -2.9577157497406006,-48.73041915893555 C23.312570571899414,-50.15447998046875 44.167667388916016,-30.35886573791504 46.60791015625,-2.3519937992095947z"></path><g opacity="1" transform="matrix(1,0,0,1,0,0)"><path fill="rgb(5,45,8)" fill-opacity="1" d=" M46.60791015625,-2.3519937992095947 C48.63861846923828,25.42206382751465 30.44568634033203,51.02952575683594 3.564845323562622,52.59381866455078 C-23.334402084350586,54.16041946411133 -44.995182037353516,30.563154220581055 -46.40099334716797,2.6189873218536377 C-47.81031036376953,-25.32191276550293 -29.175256729125977,-47.3115348815918 -2.9577157497406006,-48.73041915893555 C23.312570571899414,-50.15447998046875 44.167667388916016,-30.35886573791504 46.60791015625,-2.3519937992095947z"></path></g></g><g style="display: block;" transform="matrix(0.624750018119812,0.000010912795005424414,-0.000010912795005424414,0.624750018119812,305.52960205078125,258.7180480957031)" opacity="1"><g opacity="1" transform="matrix(1,0,0,1,0,0)"><path fill="rgb(255,255,255)" fill-opacity="1" d=" M38.8492431640625,-3.122840642929077 C39.432823181152344,4.403622627258301 30.051191329956055,11.807466506958008 17.801591873168945,12.986085891723633 C5.5519938468933105,14.164705276489258 -4.9272332191467285,8.672342300415039 -5.510813236236572,1.1458786725997925 C-6.094393730163574,-6.380584716796875 3.4379875659942627,-13.092241287231445 15.687585830688477,-14.27086067199707 C27.937183380126953,-15.449480056762695 38.265663146972656,-10.649303436279297 38.8492431640625,-3.122840642929077z"></path><path fill="rgb(255,255,255)" fill-opacity="1" d=" M38.8492431640625,-3.122840642929077 C39.432823181152344,4.403622627258301 30.051191329956055,11.807466506958008 17.801591873168945,12.986085891723633 C5.5519938468933105,14.164705276489258 -4.9272332191467285,8.672342300415039 -5.510813236236572,1.1458786725997925 C-6.094393730163574,-6.380584716796875 3.4379875659942627,-13.092241287231445 15.687585830688477,-14.27086067199707 C27.937183380126953,-15.449480056762695 38.265663146972656,-10.649303436279297 38.8492431640625,-3.122840642929077z"></path></g></g><g style="display: block;" transform="matrix(0.385797381401062,0.16790162026882172,-0.16790162026882172,0.385797381401062,317.5252685546875,278.1930847167969)" opacity="1"><path stroke-linecap="round" stroke-linejoin="miter" fill-opacity="0" stroke-miterlimit="4" stroke="rgb(28,100,5)" stroke-opacity="1" stroke-width="27.609726627124942" d=" M40.78989028930664,27.891206741333008 C33.39349365234375,42.17806625366211 19.826017379760742,52.10529708862305 3.688796281814575,53.095367431640625"></path><g opacity="1" transform="matrix(1,0,0,1,0,0)"></g></g></g><g clip-path="url(#__lottie_element_176)" style="display: none;" transform="matrix(1,0,0,1,0.016510009765625,1)" opacity="1"><g style="display: none;" transform="matrix(1.5022599697113037,0,0,1.5022599697113037,-7.507354736328125,337.35150146484375)" opacity="1"><g opacity="1" transform="matrix(1,0,0,1,176.4949951171875,64.81999969482422)"><path stroke-linecap="round" stroke-linejoin="round" fill-opacity="0" stroke="rgb(3,180,255)" stroke-opacity="1" stroke-width="0" d=" M151.4949951171875,0 C151.4949951171875,21.992000579833984 83.66899871826172,39.81999969482422 0.0010000000474974513,39.81999969482422 C-83.66699981689453,39.81999969482422 -151.49400329589844,21.992000579833984 -151.49400329589844,0 C-151.49400329589844,-21.992000579833984 -83.66699981689453,-39.81999969482422 0.0010000000474974513,-39.81999969482422 C83.66899871826172,-39.81999969482422 151.4949951171875,-21.992000579833984 151.4949951171875,0z"></path></g></g></g><g clip-path="url(#__lottie_element_169)" style="display: block;" transform="matrix(1,0,0,1,0,1)" opacity="1"><g style="display: block;" transform="matrix(1.5022599697113037,0,0,1.5022599697113037,-7.507354736328125,337.35150146484375)" opacity="1"><g opacity="1" transform="matrix(1,0,0,1,176.4949951171875,64.81999969482422)"><path stroke-linecap="round" stroke-linejoin="round" fill-opacity="0" stroke="rgb(3,180,255)" stroke-opacity="1" stroke-width="0" d=" M151.4949951171875,0 C151.4949951171875,21.992000579833984 83.66899871826172,39.81999969482422 0.0010000000474974513,39.81999969482422 C-83.66699981689453,39.81999969482422 -151.49400329589844,21.992000579833984 -151.49400329589844,0 C-151.49400329589844,-21.992000579833984 -83.66699981689453,-39.81999969482422 0.0010000000474974513,-39.81999969482422 C83.66899871826172,-39.81999969482422 151.4949951171875,-21.992000579833984 151.4949951171875,0z"></path></g></g></g><g clip-path="url(#__lottie_element_162)" style="display: block;" transform="matrix(1,0,0,1,0,1)" opacity="1"><g style="display: block;" transform="matrix(0.8467320799827576,0,0,0.8467320799827576,108.19003295898438,377.4856872558594)" opacity="1"><g opacity="1" transform="matrix(1,0,0,1,176.4949951171875,64.81999969482422)"><path stroke-linecap="round" stroke-linejoin="round" fill-opacity="0" stroke="rgb(3,180,255)" stroke-opacity="1" stroke-width="7.734837287039021" d=" M151.4949951171875,0 C151.4949951171875,21.992000579833984 83.66899871826172,39.81999969482422 0.0010000000474974513,39.81999969482422 C-83.66699981689453,39.81999969482422 -151.49400329589844,21.992000579833984 -151.49400329589844,0 C-151.49400329589844,-21.992000579833984 -83.66699981689453,-39.81999969482422 0.0010000000474974513,-39.81999969482422 C83.66899871826172,-39.81999969482422 151.4949951171875,-21.992000579833984 151.4949951171875,0z"></path></g></g></g><g clip-path="url(#__lottie_element_155)" style="display: none;" transform="matrix(1,0,0,1,20,1)" opacity="1"><g style="display: none;" transform="matrix(1.5022599697113037,0,0,1.5022599697113037,-7.507354736328125,337.35150146484375)" opacity="1"><g opacity="1" transform="matrix(1,0,0,1,176.4949951171875,64.81999969482422)"><path stroke-linecap="round" stroke-linejoin="round" fill-opacity="0" stroke="rgb(3,180,255)" stroke-opacity="1" stroke-width="0" d=" M151.4949951171875,0 C151.4949951171875,21.992000579833984 83.66899871826172,39.81999969482422 0.0010000000474974513,39.81999969482422 C-83.66699981689453,39.81999969482422 -151.49400329589844,21.992000579833984 -151.49400329589844,0 C-151.49400329589844,-21.992000579833984 -83.66699981689453,-39.81999969482422 0.0010000000474974513,-39.81999969482422 C83.66899871826172,-39.81999969482422 151.4949951171875,-21.992000579833984 151.4949951171875,0z"></path></g></g></g><g clip-path="url(#__lottie_element_148)" style="display: none;" transform="matrix(1,0,0,1,10.49957275390625,1)" opacity="1"><g style="display: none;" transform="matrix(1.5022599697113037,0,0,1.5022599697113037,-7.507354736328125,337.35150146484375)" opacity="1"><g opacity="1" transform="matrix(1,0,0,1,176.4949951171875,64.81999969482422)"><path stroke-linecap="round" stroke-linejoin="round" fill-opacity="0" stroke="rgb(3,180,255)" stroke-opacity="1" stroke-width="0" d=" M151.4949951171875,0 C151.4949951171875,21.992000579833984 83.66899871826172,39.81999969482422 0.0010000000474974513,39.81999969482422 C-83.66699981689453,39.81999969482422 -151.49400329589844,21.992000579833984 -151.49400329589844,0 C-151.49400329589844,-21.992000579833984 -83.66699981689453,-39.81999969482422 0.0010000000474974513,-39.81999969482422 C83.66899871826172,-39.81999969482422 151.4949951171875,-21.992000579833984 151.4949951171875,0z"></path></g></g></g><g style="display: block;" transform="matrix(1,0,0,1,226,246)" opacity="1"><g opacity="1" transform="matrix(1,0,0,1,-148.82000732421875,170.67999267578125)"><path fill="rgb(255,255,255)" fill-opacity="0.3" d=" M0,-29.676124572753906 C16.389619827270508,-29.676124572753906 29.676124572753906,-16.389619827270508 29.676124572753906,0 C29.676124572753906,16.389619827270508 16.389619827270508,29.676124572753906 0,29.676124572753906 C-16.389619827270508,29.676124572753906 -29.676124572753906,16.389619827270508 -29.676124572753906,0 C-29.676124572753906,-16.389619827270508 -16.389619827270508,-29.676124572753906 0,-29.676124572753906z"></path><path stroke-linecap="butt" stroke-linejoin="miter" fill-opacity="0" stroke-miterlimit="4" stroke="rgb(215,240,255)" stroke-opacity="1" stroke-width="8" d=" M0,-29.676124572753906 C16.389619827270508,-29.676124572753906 29.676124572753906,-16.389619827270508 29.676124572753906,0 C29.676124572753906,16.389619827270508 16.389619827270508,29.676124572753906 0,29.676124572753906 C-16.389619827270508,29.676124572753906 -29.676124572753906,16.389619827270508 -29.676124572753906,0 C-29.676124572753906,-16.389619827270508 -16.389619827270508,-29.676124572753906 0,-29.676124572753906z"></path></g><g opacity="1" transform="matrix(1,0,0,1,-148.82000732421875,170.67999267578125)"><path stroke-linecap="round" stroke-linejoin="round" fill-opacity="0" stroke="rgb(255,255,255)" stroke-opacity="1" stroke-width="10" d=" M2.697068452835083,-12.968317031860352 C8.369454383850098,-12.968317031860352 12.968317031860352,-8.369454383850098 12.968317031860352,-2.697068452835083"></path></g></g><g style="display: block;" transform="matrix(1.0002800226211548,0,0,1.0002800226211548,30.202850341796875,227.9153594970703)" opacity="1"><g opacity="1" transform="matrix(1,0,0,1,218.93600463867188,134.5850067138672)"><path fill="rgb(255,212,39)" fill-opacity="1" d=" M-2.125999927520752,106.89800262451172 C-81.4530029296875,106.89800262451172 -178.47300720214844,101.91400146484375 -178.47300720214844,22.454999923706055 C-178.47300720214844,13.97599983215332 -177.91400146484375,6.004000186920166 -176.83099365234375,-1.4859999418258667 C-164.47300720214844,-86.9800033569336 -99.31400299072266,-109.58399963378906 -2.125999927520752,-109.58399963378906 C96.3759994506836,-109.58399963378906 171.05599975585938,-80.18099975585938 177.9810028076172,29.836000442504883 C183.00999450683594,109.73400115966797 77.6050033569336,106.89800262451172 -2.125999927520752,106.89800262451172z"></path><path stroke-linecap="butt" stroke-linejoin="miter" fill-opacity="0" stroke-miterlimit="10" stroke="rgb(249,143,22)" stroke-opacity="1" stroke-width="10" d=" M-2.125999927520752,106.89800262451172 C-81.4530029296875,106.89800262451172 -178.47300720214844,101.91400146484375 -178.47300720214844,22.454999923706055 C-178.47300720214844,13.97599983215332 -177.91400146484375,6.004000186920166 -176.83099365234375,-1.4859999418258667 C-164.47300720214844,-86.9800033569336 -99.31400299072266,-109.58399963378906 -2.125999927520752,-109.58399963378906 C96.3759994506836,-109.58399963378906 171.05599975585938,-80.18099975585938 177.9810028076172,29.836000442504883 C183.00999450683594,109.73400115966797 77.6050033569336,106.89800262451172 -2.125999927520752,106.89800262451172z"></path></g></g><g style="display: block;" transform="matrix(1.0002800226211548,0,0,1.0002800226211548,54.62868881225586,355.85516357421875)" opacity="1"><g opacity="1" transform="matrix(1,0,0,1,37.50400161743164,47.99700164794922)"><path stroke-linecap="round" stroke-linejoin="round" fill-opacity="0" stroke="rgb(251,237,32)" stroke-opacity="1" stroke-width="10" d=" M-8.895000457763672,-21.541000366210938 C-8.817999839782715,-3.9609999656677246 -3.9649999141693115,12.888999938964844 10.190999984741211,24.65999984741211"></path></g></g><g style="display: block;" transform="matrix(-0.39175763726234436,-0.9203764200210571,-0.9203764200210571,0.39175763726234436,213.50645446777344,422.44012451171875)" opacity="1"><g opacity="1" transform="matrix(1,0,0,1,74.0270004272461,81.75499725341797)"><path fill="rgb(255,212,39)" fill-opacity="1" d=" M14.467000007629395,-54.16400146484375 C13.020999908447266,-43.75199890136719 14.855999946594238,-38.36600112915039 27.915000915527344,-13.48799991607666 C40.70500183105469,10.876999855041504 52.2859992980957,23.1299991607666 46.06800079345703,30.81999969482422 C34.35599899291992,45.30500030517578 -19.586000442504883,41.104000091552734 -36.32400131225586,0.47699999809265137"></path><path stroke-linecap="round" stroke-linejoin="round" fill-opacity="0" stroke="rgb(249,143,22)" stroke-opacity="1" stroke-width="10" d=" M14.467000007629395,-54.16400146484375 C13.020999908447266,-43.75199890136719 14.855999946594238,-38.36600112915039 27.915000915527344,-13.48799991607666 C40.70500183105469,10.876999855041504 52.2859992980957,23.1299991607666 46.06800079345703,30.81999969482422 C34.35599899291992,45.30500030517578 -19.586000442504883,41.104000091552734 -36.32400131225586,0.47699999809265137"></path></g></g><g style="display: block;" transform="matrix(0.43307894468307495,0.8921286463737488,0.9147061109542847,-0.4440390169620514,37.37824249267578,364.57086181640625)" opacity="1"><g opacity="1" transform="matrix(1,0,0,1,35.98099899291992,31.988000869750977)"><path stroke-linecap="round" stroke-linejoin="round" fill-opacity="0" stroke="rgb(252,238,33)" stroke-opacity="1" stroke-width="10" d=" M-21.558000564575195,-0.23899999260902405 C-15.32699966430664,-3.3320000171661377 4.815999984741211,-3.562999963760376 21.291000366210938,2.7249999046325684"></path></g></g><g style="display: block;" transform="matrix(0.970271646976471,0,0,0.970271646976471,39.120582580566406,19.643218994140625)" opacity="1"><g opacity="1" transform="matrix(1,0,0,1,214.0070037841797,171.6719970703125)"><path fill="rgb(255,212,39)" fill-opacity="1" d=" M-137.64100646972656,146.6719970703125 C-170.13699340820312,119.87999725341797 -189.0070037841797,82.43299865722656 -189.0070037841797,38.50600051879883 C-189.0070037841797,-54.81100082397461 -104.38700103759766,-146.6719970703125 0,-146.6719970703125 C104.38600158691406,-146.6719970703125 189.0070037841797,-54.81100082397461 189.0070037841797,38.50600051879883 C189.0070037841797,82.552001953125 170.04100036621094,119.83100128173828 137.9510040283203,146.41299438476562"></path><path stroke-linecap="round" stroke-linejoin="round" fill-opacity="0" stroke="rgb(249,143,22)" stroke-opacity="1" stroke-width="10" d=" M-137.64100646972656,146.6719970703125 C-170.13699340820312,119.87999725341797 -189.0070037841797,82.43299865722656 -189.0070037841797,38.50600051879883 C-189.0070037841797,-54.81100082397461 -104.38700103759766,-146.6719970703125 0,-146.6719970703125 C104.38600158691406,-146.6719970703125 189.0070037841797,-54.81100082397461 189.0070037841797,38.50600051879883 C189.0070037841797,82.552001953125 170.04100036621094,119.83100128173828 137.9510040283203,146.41299438476562"></path></g></g><g style="display: block;" transform="matrix(0.970271646976471,0,0,0.970271646976471,382.9673767089844,197.38340759277344)" opacity="1"><g opacity="1" transform="matrix(1,0,0,1,26.43199920654297,38.152000427246094)"><path stroke-linecap="round" stroke-linejoin="round" fill-opacity="0" stroke="rgb(255,255,255)" stroke-opacity="1" stroke-width="10" d=" M-1.3869999647140503,12.949999809265137 C0.38999998569488525,4.986000061035156 1.3509999513626099,-3.3510000705718994 1.4270000457763672,-12.032999992370605"></path></g></g><g style="display: block;" transform="matrix(0.970271646976471,0,0,0.970271646976471,222.50869750976562,43.082061767578125)" opacity="1"><g opacity="1" transform="matrix(1,0,0,1,103.31900024414062,77.02200317382812)"><path stroke-linecap="round" stroke-linejoin="round" fill-opacity="0" stroke="rgb(255,255,255)" stroke-opacity="1" stroke-width="10" d=" M77.83200073242188,50.89099884033203 C64.09600067138672,19.305999755859375 39.47999954223633,-8.781999588012695 8.27400016784668,-27.601999282836914 C-3.9860000610351562,-34.99599838256836 -17.26300048828125,-40.95800018310547 -31.297000885009766,-45.13999938964844"></path></g></g><g style="display: block;" transform="matrix(0.970271646976471,0,0,0.970271646976471,59.271183013916016,86.63174438476562)" opacity="1"><g opacity="1" transform="matrix(1,0,0,1,52.07099914550781,124.19400024414062)"><path stroke-linecap="round" stroke-linejoin="round" fill-opacity="0" stroke="rgb(251,237,32)" stroke-opacity="1" stroke-width="10" d=" M25.7810001373291,-98.01399993896484 C-6.758999824523926,-67.94400024414062 -27.070999145507812,-26.666000366210938 -27.070999145507812,14.949999809265137 C-27.070999145507812,45.3380012512207 -16.242000579833984,71.54199981689453 2.2709999084472656,92.36499786376953"></path></g></g><g style="display: block;" transform="matrix(1.022740364074707,-0.22529448568820953,0.21512752771377563,0.9765867590904236,110.39323425292969,227.5393829345703)" opacity="1"><g opacity="1" transform="matrix(1,0,0,1,23.878000259399414,29.617000579833984)"><path fill="rgb(0,0,0)" fill-opacity="1" d=" M-13.906999588012695,21.261999130249023 C-1.1150000095367432,29.222999572753906 11.925999641418457,22.615999221801758 19.14699935913086,10.781999588012695 C30.339000701904297,-7.559999942779541 25.461999893188477,-23.139999389648438 14.23799991607666,-28.02400016784668 C1.3940000534057617,-33.612998962402344 -12.36400032043457,-24.888999938964844 -18.865999221801758,-12.378999710083008 C-25.402000427246094,0.19699999690055847 -24.315000534057617,14.784000396728516 -13.906999588012695,21.261999130249023z"></path></g></g><g style="display: block;" transform="matrix(0.2969321608543396,-0.06540974974632263,0.06245797872543335,0.28353241086006165,140.3225555419922,232.22886657714844)" opacity="1"><g opacity="1" transform="matrix(1,0,0,1,23.878000259399414,29.617000579833984)"><path fill="rgb(255,255,255)" fill-opacity="1" d=" M16.479000091552734,8.682000160217285 C9.329000473022461,22.253000259399414 -3.8459999561309814,29.367000579833984 -12.946999549865723,24.572999954223633 C-22.047000885009766,19.777999877929688 -23.628999710083008,4.888999938964844 -16.479000091552734,-8.680999755859375 C-9.329999923706055,-22.25200080871582 3.8440001010894775,-29.367000579833984 12.944999694824219,-24.57200050354004 C22.04599952697754,-19.777000427246094 23.628999710083008,-4.888999938964844 16.479000091552734,8.682000160217285z"></path></g></g><g style="display: block;" transform="matrix(1.0000007152557373,0,0,1.0000007152557373,271.0848083496094,217.47410583496094)" opacity="1"><g opacity="1" transform="matrix(1,0,0,1,29.347999572753906,31.697999954223633)"><path fill="rgb(0,0,0)" fill-opacity="1" d=" M-21.792999267578125,11.482000350952148 C-14.48799991607666,25.347999572753906 1.190999984741211,31.447999954223633 13.22700023651123,25.10700035095215 C21.944000244140625,20.513999938964844 27.288999557495117,10.522000312805176 25.356000900268555,0.29899999499320984 C20.06599998474121,-27.67300033569336 -0.9330000281333923,-32.17399978637695 -13.22700023651123,-25.10700035095215 C-20.82699966430664,-20.738000869750977 -25.33300018310547,-12.765999794006348 -25.492000579833984,-3.7009999752044678 C-25.579999923706055,1.3009999990463257 -24.391000747680664,6.551000118255615 -21.792999267578125,11.482000350952148z"></path></g></g><g style="display: block;" transform="matrix(0.2548001706600189,0,0,0.2548001706600189,297.9549255371094,226.09547424316406)" opacity="1"><g opacity="1" transform="matrix(1,0,0,1,29.347999572753906,31.697999954223633)"><path fill="rgb(255,255,255)" fill-opacity="1" d=" M-21.792999267578125,11.482000350952148 C-14.48799991607666,25.347999572753906 1.190999984741211,31.447999954223633 13.22700023651123,25.10700035095215 C25.26300048828125,18.766000747680664 29.097999572753906,2.384000062942505 21.792999267578125,-11.482000350952148 C14.48799991607666,-25.347999572753906 -1.190999984741211,-31.447999954223633 -13.22700023651123,-25.10700035095215 C-25.26300048828125,-18.766000747680664 -29.097999572753906,-2.384000062942505 -21.792999267578125,11.482000350952148z"></path></g></g><g style="display: block;" transform="matrix(1.0000007152557373,0,0,1.0000007152557373,266.7467956542969,176.298095703125)" opacity="1"><g opacity="1" transform="matrix(1,0,0,1,49.90399932861328,43.321998596191406)"></g></g><g style="display: block;" transform="matrix(1.0000007152557373,0,0,1.0000007152557373,100.81865692138672,234.9081268310547)" opacity="1"><g opacity="1" transform="matrix(1,0,0,1,108.7969970703125,60.395999908447266)"><path fill="rgb(255,93,31)" fill-opacity="1" d=" M-65.75,28.121000289916992 C-52.37799835205078,28.795000076293945 -11.663000106811523,25.051000595092773 13.5,25.051000595092773 C38.02899932861328,25.051000595092773 48.59400177001953,28.37700080871582 64.87999725341797,33.387001037597656 C85.38300323486328,39.694000244140625 101.38300323486328,9.694000244140625 68.90799713134766,0.4519999921321869 C23.875,-12.36400032043457 33.803001403808594,-48.652000427246094 8.583999633789062,-49.229000091552734 C-16.617000579833984,-49.805999755859375 -22.617000579833984,-3.805000066757202 -64.5989990234375,-2.446000099182129 C-80.64900207519531,-1.9259999990463257 -84.11599731445312,27.19499969482422 -65.75,28.121000289916992z"></path><path stroke-linecap="butt" stroke-linejoin="miter" fill-opacity="0" stroke-miterlimit="10" stroke="rgb(207,53,2)" stroke-opacity="1" stroke-width="8" d=" M-65.75,28.121000289916992 C-52.37799835205078,28.795000076293945 -11.663000106811523,25.051000595092773 13.5,25.051000595092773 C38.02899932861328,25.051000595092773 48.59400177001953,28.37700080871582 64.87999725341797,33.387001037597656 C85.38300323486328,39.694000244140625 101.38300323486328,9.694000244140625 68.90799713134766,0.4519999921321869 C23.875,-12.36400032043457 33.803001403808594,-48.652000427246094 8.583999633789062,-49.229000091552734 C-16.617000579833984,-49.805999755859375 -22.617000579833984,-3.805000066757202 -64.5989990234375,-2.446000099182129 C-80.64900207519531,-1.9259999990463257 -84.11599731445312,27.19499969482422 -65.75,28.121000289916992z"></path></g></g><g style="display: block;" transform="matrix(1.0000007152557373,0,0,1.0000007152557373,138.36968994140625,236.99713134765625)" opacity="1"><g opacity="1" transform="matrix(1,0,0,1,51.09600067138672,42.229000091552734)"><path stroke-linecap="round" stroke-linejoin="round" fill-opacity="0" stroke="rgb(255,180,132)" stroke-opacity="1" stroke-width="8" d=" M58.303001403808594,14.02299976348877 C49.21799850463867,8.875 44.9379997253418,1.434999942779541 32.01499938964844,-21.6299991607666"></path></g></g><g style="display: block;" transform="matrix(0.8017424941062927,0,0,0.8017424941062927,212.68197631835938,244.20071411132812)" opacity="1"><g opacity="1" transform="matrix(1,0,0,1,-148.82000732421875,170.67999267578125)"><path fill="rgb(255,255,255)" fill-opacity="0.3" d=" M0,-29.348739624023438 C16.208850860595703,-29.348739624023438 29.348739624023438,-16.208850860595703 29.348739624023438,0 C29.348739624023438,16.208850860595703 16.208850860595703,29.348739624023438 0,29.348739624023438 C-16.208850860595703,29.348739624023438 -29.348739624023438,16.208850860595703 -29.348739624023438,0 C-29.348739624023438,-16.208850860595703 -16.208850860595703,-29.348739624023438 0,-29.348739624023438z"></path><path stroke-linecap="butt" stroke-linejoin="miter" fill-opacity="0" stroke-miterlimit="4" stroke="rgb(215,240,255)" stroke-opacity="1" stroke-width="13.333" d=" M0,-29.348739624023438 C16.208850860595703,-29.348739624023438 29.348739624023438,-16.208850860595703 29.348739624023438,0 C29.348739624023438,16.208850860595703 16.208850860595703,29.348739624023438 0,29.348739624023438 C-16.208850860595703,29.348739624023438 -29.348739624023438,16.208850860595703 -29.348739624023438,0 C-29.348739624023438,-16.208850860595703 -16.208850860595703,-29.348739624023438 0,-29.348739624023438z"></path></g><g opacity="1" transform="matrix(1,0,0,1,-148.82000732421875,170.67999267578125)"><path stroke-linecap="round" stroke-linejoin="round" fill-opacity="0" stroke="rgb(255,255,255)" stroke-opacity="1" stroke-width="16.667" d=" M2.7939603328704834,-12.63227653503418 C8.22719669342041,-12.63227653503418 12.63227653503418,-8.22719669342041 12.63227653503418,-2.7939603328704834"></path></g></g><g style="display: block;" transform="matrix(1.0000007152557373,0,0,1.0000007152557373,111.05267333984375,276.2351379394531)" opacity="1"><g opacity="1" transform="matrix(1,0,0,1,91.12799835205078,30.975000381469727)"><path stroke-linecap="round" stroke-linejoin="round" fill-opacity="0" stroke="rgb(125,9,9)" stroke-opacity="1" stroke-width="7.2" d=" M74.62899780273438,6.127999782562256 C16.319000244140625,-18.709999084472656 -13.682000160217285,9.289999961853027 -55.12900161743164,0.17100000381469727"></path></g></g><g style="display: block;" transform="matrix(0.8000039458274841,0,0,0.8000039458274841,275.8578796386719,313.8129577636719)" opacity="1"><g opacity="1" transform="matrix(1,0,0,1,-148.82000732421875,170.67999267578125)"><path fill="rgb(255,255,255)" fill-opacity="0.3" d=" M0,-30.991390228271484 C17.11585807800293,-30.991390228271484 30.991390228271484,-17.11585807800293 30.991390228271484,0 C30.991390228271484,17.11585807800293 17.11585807800293,30.991390228271484 0,30.991390228271484 C-17.11585807800293,30.991390228271484 -30.991390228271484,17.11585807800293 -30.991390228271484,0 C-30.991390228271484,-17.11585807800293 -17.11585807800293,-30.991390228271484 0,-30.991390228271484z"></path><path stroke-linecap="butt" stroke-linejoin="miter" fill-opacity="0" stroke-miterlimit="4" stroke="rgb(215,240,255)" stroke-opacity="1" stroke-width="10" d=" M0,-30.991390228271484 C17.11585807800293,-30.991390228271484 30.991390228271484,-17.11585807800293 30.991390228271484,0 C30.991390228271484,17.11585807800293 17.11585807800293,30.991390228271484 0,30.991390228271484 C-17.11585807800293,30.991390228271484 -30.991390228271484,17.11585807800293 -30.991390228271484,0 C-30.991390228271484,-17.11585807800293 -17.11585807800293,-30.991390228271484 0,-30.991390228271484z"></path></g><g opacity="1" transform="matrix(1,0,0,1,-148.82000732421875,170.67999267578125)"><path stroke-linecap="round" stroke-linejoin="round" fill-opacity="0" stroke="rgb(255,255,255)" stroke-opacity="1" stroke-width="12.5" d=" M2.109039783477783,-15.007723808288574 C9.232803344726562,-15.007723808288574 15.007723808288574,-9.232803344726562 15.007723808288574,-2.109039783477783"></path></g></g><g style="display: block;" transform="matrix(0.5358800292015076,0,0,0.5358800292015076,201.607177734375,369.3015441894531)" opacity="1"><g opacity="1" transform="matrix(1,0,0,1,-148.82000732421875,170.67999267578125)"><path fill="rgb(255,255,255)" fill-opacity="0.3" d=" M0,-28.72599983215332 C15.864999771118164,-28.72599983215332 28.72599983215332,-15.864999771118164 28.72599983215332,0 C28.72599983215332,15.864999771118164 15.864999771118164,28.72599983215332 0,28.72599983215332 C-15.864999771118164,28.72599983215332 -28.72599983215332,15.864999771118164 -28.72599983215332,0 C-28.72599983215332,-15.864999771118164 -15.864999771118164,-28.72599983215332 0,-28.72599983215332z"></path><path stroke-linecap="butt" stroke-linejoin="miter" fill-opacity="0" stroke-miterlimit="4" stroke="rgb(215,240,255)" stroke-opacity="1" stroke-width="10" d=" M0,-28.72599983215332 C15.864999771118164,-28.72599983215332 28.72599983215332,-15.864999771118164 28.72599983215332,0 C28.72599983215332,15.864999771118164 15.864999771118164,28.72599983215332 0,28.72599983215332 C-15.864999771118164,28.72599983215332 -28.72599983215332,15.864999771118164 -28.72599983215332,0 C-28.72599983215332,-15.864999771118164 -15.864999771118164,-28.72599983215332 0,-28.72599983215332z"></path></g><g opacity="1" transform="matrix(1,0,0,1,-148.82000732421875,170.67999267578125)"><path stroke-linecap="round" stroke-linejoin="round" fill-opacity="0" stroke="rgb(255,255,255)" stroke-opacity="1" stroke-width="12.5" d=" M2.884000062942505,-12.319999694824219 C8.095000267028809,-12.319999694824219 12.319999694824219,-8.095000267028809 12.319999694824219,-2.884000062942505"></path></g></g><g style="display: block;" transform="matrix(1.0312199592590332,0,0,1.0312199592590332,254.25965881347656,261.83721923828125)" opacity="1"><g opacity="1" transform="matrix(1,0,0,1,0,0)"><path fill="rgb(179,98,121)" fill-opacity="1" d=" M-116.25,58.5 C-156.0709991455078,60.32400131225586 -160.25,80 -150.5,114.25 C-144.49899291992188,135.33200073242188 -160.4239959716797,150.22500610351562 -154.79600524902344,161.54100036621094 C-151.281005859375,168.60899353027344 -143.72300720214844,171.375 -126.25,172.5 C-78.05699920654297,175.60400390625 -83.1709976196289,144.59300231933594 -81.25,123.75 C-79.06999969482422,100.08699798583984 -83.50199890136719,85.60399627685547 -88.71099853515625,73.87200164794922 C-91.66300201416016,67.2239990234375 -104.40399932861328,57.957000732421875 -116.25,58.5z"></path><path stroke-linecap="butt" stroke-linejoin="miter" fill-opacity="0" stroke-miterlimit="4" stroke="rgb(179,97,121)" stroke-opacity="1" stroke-width="10" d=" M-116.25,58.5 C-156.0709991455078,60.32400131225586 -160.25,80 -150.5,114.25 C-144.49899291992188,135.33200073242188 -160.4239959716797,150.22500610351562 -154.79600524902344,161.54100036621094 C-151.281005859375,168.60899353027344 -143.72300720214844,171.375 -126.25,172.5 C-78.05699920654297,175.60400390625 -83.1709976196289,144.59300231933594 -81.25,123.75 C-79.06999969482422,100.08699798583984 -83.50199890136719,85.60399627685547 -88.71099853515625,73.87200164794922 C-91.66300201416016,67.2239990234375 -104.40399932861328,57.957000732421875 -116.25,58.5z"></path></g></g><g style="display: block;" transform="matrix(0.4233054518699646,0,0,0.4233054518699646,152.1184844970703,354.59088134765625)" opacity="1"><g opacity="1" transform="matrix(1,0,0,1,-148.82000732421875,170.67999267578125)"><path fill="rgb(255,255,255)" fill-opacity="0.3" d=" M0,-29.348739624023438 C16.208850860595703,-29.348739624023438 29.348739624023438,-16.208850860595703 29.348739624023438,0 C29.348739624023438,16.208850860595703 16.208850860595703,29.348739624023438 0,29.348739624023438 C-16.208850860595703,29.348739624023438 -29.348739624023438,16.208850860595703 -29.348739624023438,0 C-29.348739624023438,-16.208850860595703 -16.208850860595703,-29.348739624023438 0,-29.348739624023438z"></path><path stroke-linecap="butt" stroke-linejoin="miter" fill-opacity="0" stroke-miterlimit="4" stroke="rgb(215,240,255)" stroke-opacity="1" stroke-width="13.333" d=" M0,-29.348739624023438 C16.208850860595703,-29.348739624023438 29.348739624023438,-16.208850860595703 29.348739624023438,0 C29.348739624023438,16.208850860595703 16.208850860595703,29.348739624023438 0,29.348739624023438 C-16.208850860595703,29.348739624023438 -29.348739624023438,16.208850860595703 -29.348739624023438,0 C-29.348739624023438,-16.208850860595703 -16.208850860595703,-29.348739624023438 0,-29.348739624023438z"></path></g><g opacity="1" transform="matrix(1,0,0,1,-148.82000732421875,170.67999267578125)"><path stroke-linecap="round" stroke-linejoin="round" fill-opacity="0" stroke="rgb(255,255,255)" stroke-opacity="1" stroke-width="16.667" d=" M2.7939603328704834,-12.63227653503418 C8.22719669342041,-12.63227653503418 12.63227653503418,-8.22719669342041 12.63227653503418,-2.7939603328704834"></path></g></g><g style="display: block;" transform="matrix(1.0312199592590332,0,0,1.0312199592590332,242.2634735107422,252.54696655273438)" opacity="1"><g opacity="1" transform="matrix(1,0,0,1,0,0)"><path fill="rgb(246,169,192)" fill-opacity="1" d=" M-109.5,63.5 C-149.3209991455078,65.3239974975586 -157.8990020751953,92.44000244140625 -156,128 C-153.82000732421875,168.83700561523438 -144.07000732421875,182.33700561523438 -116.75,181.75 C-87.99500274658203,181.1320037841797 -78.86499786376953,140.67799377441406 -78.5,119.75 C-78.06999969482422,95.08699798583984 -76.75,62 -109.5,63.5z"></path><path stroke-linecap="butt" stroke-linejoin="miter" fill-opacity="0" stroke-miterlimit="4" stroke="rgb(179,97,121)" stroke-opacity="1" stroke-width="10" d=" M-109.5,63.5 C-149.3209991455078,65.3239974975586 -157.8990020751953,92.44000244140625 -156,128 C-153.82000732421875,168.83700561523438 -144.07000732421875,182.33700561523438 -116.75,181.75 C-87.99500274658203,181.1320037841797 -78.86499786376953,140.67799377441406 -78.5,119.75 C-78.06999969482422,95.08699798583984 -76.75,62 -109.5,63.5z"></path></g></g><g style="display: block;" transform="matrix(1.0312199592590332,0,0,1.0312199592590332,242.2634735107422,252.54696655273438)" opacity="1"><g opacity="1" transform="matrix(1,0,0,1,0,0)"><path stroke-linecap="round" stroke-linejoin="round" fill-opacity="0" stroke="rgb(255,218,228)" stroke-opacity="1" stroke-width="10" d=" M-125.51000213623047,76.82099914550781 C-144.92599487304688,84.81500244140625 -149.40699768066406,102.4260025024414 -148.07699584960938,126.88800048828125 C-147.0330047607422,146.08099365234375 -144.02999877929688,158.322998046875 -137.6649932861328,165.43600463867188"></path></g></g><g style="display: block;" transform="matrix(0.6187319159507751,0,0,0.6187319159507751,183.9005584716797,254.90536499023438)" opacity="1"><g opacity="1" transform="matrix(1,0,0,1,-148.82000732421875,170.67999267578125)"><path fill="rgb(255,255,255)" fill-opacity="0.3" d=" M0,-29.348739624023438 C16.208850860595703,-29.348739624023438 29.348739624023438,-16.208850860595703 29.348739624023438,0 C29.348739624023438,16.208850860595703 16.208850860595703,29.348739624023438 0,29.348739624023438 C-16.208850860595703,29.348739624023438 -29.348739624023438,16.208850860595703 -29.348739624023438,0 C-29.348739624023438,-16.208850860595703 -16.208850860595703,-29.348739624023438 0,-29.348739624023438z"></path><path stroke-linecap="butt" stroke-linejoin="miter" fill-opacity="0" stroke-miterlimit="4" stroke="rgb(215,240,255)" stroke-opacity="1" stroke-width="13.333" d=" M0,-29.348739624023438 C16.208850860595703,-29.348739624023438 29.348739624023438,-16.208850860595703 29.348739624023438,0 C29.348739624023438,16.208850860595703 16.208850860595703,29.348739624023438 0,29.348739624023438 C-16.208850860595703,29.348739624023438 -29.348739624023438,16.208850860595703 -29.348739624023438,0 C-29.348739624023438,-16.208850860595703 -16.208850860595703,-29.348739624023438 0,-29.348739624023438z"></path></g><g opacity="1" transform="matrix(1,0,0,1,-148.82000732421875,170.67999267578125)"><path stroke-linecap="round" stroke-linejoin="round" fill-opacity="0" stroke="rgb(255,255,255)" stroke-opacity="1" stroke-width="16.667" d=" M2.7939603328704834,-12.63227653503418 C8.22719669342041,-12.63227653503418 12.63227653503418,-8.22719669342041 12.63227653503418,-2.7939603328704834"></path></g></g><g style="display: block;" transform="matrix(0.4233054518699646,0,0,0.4233054518699646,165.23765563964844,260.7498779296875)" opacity="1"><g opacity="1" transform="matrix(1,0,0,1,-148.82000732421875,170.67999267578125)"><path fill="rgb(255,255,255)" fill-opacity="0.3" d=" M0,-29.348739624023438 C16.208850860595703,-29.348739624023438 29.348739624023438,-16.208850860595703 29.348739624023438,0 C29.348739624023438,16.208850860595703 16.208850860595703,29.348739624023438 0,29.348739624023438 C-16.208850860595703,29.348739624023438 -29.348739624023438,16.208850860595703 -29.348739624023438,0 C-29.348739624023438,-16.208850860595703 -16.208850860595703,-29.348739624023438 0,-29.348739624023438z"></path><path stroke-linecap="butt" stroke-linejoin="miter" fill-opacity="0" stroke-miterlimit="4" stroke="rgb(215,240,255)" stroke-opacity="1" stroke-width="13.333" d=" M0,-29.348739624023438 C16.208850860595703,-29.348739624023438 29.348739624023438,-16.208850860595703 29.348739624023438,0 C29.348739624023438,16.208850860595703 16.208850860595703,29.348739624023438 0,29.348739624023438 C-16.208850860595703,29.348739624023438 -29.348739624023438,16.208850860595703 -29.348739624023438,0 C-29.348739624023438,-16.208850860595703 -16.208850860595703,-29.348739624023438 0,-29.348739624023438z"></path></g><g opacity="1" transform="matrix(1,0,0,1,-148.82000732421875,170.67999267578125)"><path stroke-linecap="round" stroke-linejoin="round" fill-opacity="0" stroke="rgb(255,255,255)" stroke-opacity="1" stroke-width="16.667" d=" M2.7939603328704834,-12.63227653503418 C8.22719669342041,-12.63227653503418 12.63227653503418,-8.22719669342041 12.63227653503418,-2.7939603328704834"></path></g></g><g style="display: block;" transform="matrix(0.6000000238418579,0,0,0.6000000238418579,144.9600067138672,345.3310241699219)" opacity="1"><g opacity="1" transform="matrix(1,0,0,1,-148.82000732421875,170.67999267578125)"><path fill="rgb(255,255,255)" fill-opacity="0.3" d=" M0,-30.28891944885254 C16.727981567382812,-30.28891944885254 30.28891944885254,-16.727981567382812 30.28891944885254,0 C30.28891944885254,16.727981567382812 16.727981567382812,30.28891944885254 0,30.28891944885254 C-16.727981567382812,30.28891944885254 -30.28891944885254,16.727981567382812 -30.28891944885254,0 C-30.28891944885254,-16.727981567382812 -16.727981567382812,-30.28891944885254 0,-30.28891944885254z"></path><path stroke-linecap="butt" stroke-linejoin="miter" fill-opacity="0" stroke-miterlimit="4" stroke="rgb(215,240,255)" stroke-opacity="1" stroke-width="13.333" d=" M0,-30.28891944885254 C16.727981567382812,-30.28891944885254 30.28891944885254,-16.727981567382812 30.28891944885254,0 C30.28891944885254,16.727981567382812 16.727981567382812,30.28891944885254 0,30.28891944885254 C-16.727981567382812,30.28891944885254 -30.28891944885254,16.727981567382812 -30.28891944885254,0 C-30.28891944885254,-16.727981567382812 -16.727981567382812,-30.28891944885254 0,-30.28891944885254z"></path></g><g opacity="1" transform="matrix(1,0,0,1,-148.82000732421875,170.67999267578125)"><path stroke-linecap="round" stroke-linejoin="round" fill-opacity="0" stroke="rgb(255,255,255)" stroke-opacity="1" stroke-width="16.667" d=" M2.4514999389648438,-13.819999694824219 C8.729999542236328,-13.819999694824219 13.819999694824219,-8.729999542236328 13.819999694824219,-2.4514999389648438"></path></g></g><g style="display: block;" transform="matrix(0.3999499976634979,0,0,0.3999499976634979,114.68856048583984,352.45654296875)" opacity="1"><g opacity="1" transform="matrix(1,0,0,1,-148.82000732421875,170.67999267578125)"><path fill="rgb(255,255,255)" fill-opacity="0.3" d=" M0,-30.28891944885254 C16.727981567382812,-30.28891944885254 30.28891944885254,-16.727981567382812 30.28891944885254,0 C30.28891944885254,16.727981567382812 16.727981567382812,30.28891944885254 0,30.28891944885254 C-16.727981567382812,30.28891944885254 -30.28891944885254,16.727981567382812 -30.28891944885254,0 C-30.28891944885254,-16.727981567382812 -16.727981567382812,-30.28891944885254 0,-30.28891944885254z"></path><path stroke-linecap="butt" stroke-linejoin="miter" fill-opacity="0" stroke-miterlimit="4" stroke="rgb(215,240,255)" stroke-opacity="1" stroke-width="13.333" d=" M0,-30.28891944885254 C16.727981567382812,-30.28891944885254 30.28891944885254,-16.727981567382812 30.28891944885254,0 C30.28891944885254,16.727981567382812 16.727981567382812,30.28891944885254 0,30.28891944885254 C-16.727981567382812,30.28891944885254 -30.28891944885254,16.727981567382812 -30.28891944885254,0 C-30.28891944885254,-16.727981567382812 -16.727981567382812,-30.28891944885254 0,-30.28891944885254z"></path></g><g opacity="1" transform="matrix(1,0,0,1,-148.82000732421875,170.67999267578125)"><path stroke-linecap="round" stroke-linejoin="round" fill-opacity="0" stroke="rgb(255,255,255)" stroke-opacity="1" stroke-width="16.667" d=" M2.4514999389648438,-13.819999694824219 C8.729999542236328,-13.819999694824219 13.819999694824219,-8.729999542236328 13.819999694824219,-2.4514999389648438"></path></g></g><g style="display: block;" transform="matrix(0.3999499976634979,0,0,0.3999499976634979,152.68856811523438,381.446533203125)" opacity="1"><g opacity="1" transform="matrix(1,0,0,1,-148.82000732421875,170.67999267578125)"><path fill="rgb(255,255,255)" fill-opacity="0.3" d=" M0,-30.28891944885254 C16.727981567382812,-30.28891944885254 30.28891944885254,-16.727981567382812 30.28891944885254,0 C30.28891944885254,16.727981567382812 16.727981567382812,30.28891944885254 0,30.28891944885254 C-16.727981567382812,30.28891944885254 -30.28891944885254,16.727981567382812 -30.28891944885254,0 C-30.28891944885254,-16.727981567382812 -16.727981567382812,-30.28891944885254 0,-30.28891944885254z"></path><path stroke-linecap="butt" stroke-linejoin="miter" fill-opacity="0" stroke-miterlimit="4" stroke="rgb(215,240,255)" stroke-opacity="1" stroke-width="13.333" d=" M0,-30.28891944885254 C16.727981567382812,-30.28891944885254 30.28891944885254,-16.727981567382812 30.28891944885254,0 C30.28891944885254,16.727981567382812 16.727981567382812,30.28891944885254 0,30.28891944885254 C-16.727981567382812,30.28891944885254 -30.28891944885254,16.727981567382812 -30.28891944885254,0 C-30.28891944885254,-16.727981567382812 -16.727981567382812,-30.28891944885254 0,-30.28891944885254z"></path></g><g opacity="1" transform="matrix(1,0,0,1,-148.82000732421875,170.67999267578125)"><path stroke-linecap="round" stroke-linejoin="round" fill-opacity="0" stroke="rgb(255,255,255)" stroke-opacity="1" stroke-width="16.667" d=" M2.4514999389648438,-13.819999694824219 C8.729999542236328,-13.819999694824219 13.819999694824219,-8.729999542236328 13.819999694824219,-2.4514999389648438"></path></g></g><g style="display: block;" transform="matrix(0.3999519646167755,0,0,0.3999519646167755,332.6877136230469,359.3624572753906)" opacity="1"><g opacity="1" transform="matrix(1,0,0,1,-148.82000732421875,170.67999267578125)"><path fill="rgb(255,255,255)" fill-opacity="0.3" d=" M0,-30.28891944885254 C16.727981567382812,-30.28891944885254 30.28891944885254,-16.727981567382812 30.28891944885254,0 C30.28891944885254,16.727981567382812 16.727981567382812,30.28891944885254 0,30.28891944885254 C-16.727981567382812,30.28891944885254 -30.28891944885254,16.727981567382812 -30.28891944885254,0 C-30.28891944885254,-16.727981567382812 -16.727981567382812,-30.28891944885254 0,-30.28891944885254z"></path><path stroke-linecap="butt" stroke-linejoin="miter" fill-opacity="0" stroke-miterlimit="4" stroke="rgb(215,240,255)" stroke-opacity="1" stroke-width="13.333" d=" M0,-30.28891944885254 C16.727981567382812,-30.28891944885254 30.28891944885254,-16.727981567382812 30.28891944885254,0 C30.28891944885254,16.727981567382812 16.727981567382812,30.28891944885254 0,30.28891944885254 C-16.727981567382812,30.28891944885254 -30.28891944885254,16.727981567382812 -30.28891944885254,0 C-30.28891944885254,-16.727981567382812 -16.727981567382812,-30.28891944885254 0,-30.28891944885254z"></path></g><g opacity="1" transform="matrix(1,0,0,1,-148.82000732421875,170.67999267578125)"><path stroke-linecap="round" stroke-linejoin="round" fill-opacity="0" stroke="rgb(255,255,255)" stroke-opacity="1" stroke-width="16.667" d=" M2.4514999389648438,-13.819999694824219 C8.729999542236328,-13.819999694824219 13.819999694824219,-8.729999542236328 13.819999694824219,-2.4514999389648438"></path></g></g><g style="display: block;" transform="matrix(0.6000000238418579,0,0,0.6000000238418579,119.96000671386719,363.926025390625)" opacity="1"><g opacity="1" transform="matrix(1,0,0,1,-148.82000732421875,170.67999267578125)"><path fill="rgb(255,255,255)" fill-opacity="0.3" d=" M0,-29.348739624023438 C16.208850860595703,-29.348739624023438 29.348739624023438,-16.208850860595703 29.348739624023438,0 C29.348739624023438,16.208850860595703 16.208850860595703,29.348739624023438 0,29.348739624023438 C-16.208850860595703,29.348739624023438 -29.348739624023438,16.208850860595703 -29.348739624023438,0 C-29.348739624023438,-16.208850860595703 -16.208850860595703,-29.348739624023438 0,-29.348739624023438z"></path><path stroke-linecap="butt" stroke-linejoin="miter" fill-opacity="0" stroke-miterlimit="4" stroke="rgb(215,240,255)" stroke-opacity="1" stroke-width="13.333" d=" M0,-29.348739624023438 C16.208850860595703,-29.348739624023438 29.348739624023438,-16.208850860595703 29.348739624023438,0 C29.348739624023438,16.208850860595703 16.208850860595703,29.348739624023438 0,29.348739624023438 C-16.208850860595703,29.348739624023438 -29.348739624023438,16.208850860595703 -29.348739624023438,0 C-29.348739624023438,-16.208850860595703 -16.208850860595703,-29.348739624023438 0,-29.348739624023438z"></path></g><g opacity="1" transform="matrix(1,0,0,1,-148.82000732421875,170.67999267578125)"><path stroke-linecap="round" stroke-linejoin="round" fill-opacity="0" stroke="rgb(255,255,255)" stroke-opacity="1" stroke-width="16.667" d=" M2.7939603328704834,-12.63227653503418 C8.22719669342041,-12.63227653503418 12.63227653503418,-8.22719669342041 12.63227653503418,-2.7939603328704834"></path></g></g><g style="display: block;" transform="matrix(0.6000000238418579,0,0,0.6000000238418579,472.08099365234375,354.5090026855469)" opacity="1"><g opacity="1" transform="matrix(1,0,0,1,-148.82000732421875,170.67999267578125)"><path fill="rgb(255,255,255)" fill-opacity="0.3" d=" M0,-30.991390228271484 C17.11585807800293,-30.991390228271484 30.991390228271484,-17.11585807800293 30.991390228271484,0 C30.991390228271484,17.11585807800293 17.11585807800293,30.991390228271484 0,30.991390228271484 C-17.11585807800293,30.991390228271484 -30.991390228271484,17.11585807800293 -30.991390228271484,0 C-30.991390228271484,-17.11585807800293 -17.11585807800293,-30.991390228271484 0,-30.991390228271484z"></path><path stroke-linecap="butt" stroke-linejoin="miter" fill-opacity="0" stroke-miterlimit="4" stroke="rgb(215,240,255)" stroke-opacity="1" stroke-width="13.333" d=" M0,-30.991390228271484 C17.11585807800293,-30.991390228271484 30.991390228271484,-17.11585807800293 30.991390228271484,0 C30.991390228271484,17.11585807800293 17.11585807800293,30.991390228271484 0,30.991390228271484 C-17.11585807800293,30.991390228271484 -30.991390228271484,17.11585807800293 -30.991390228271484,0 C-30.991390228271484,-17.11585807800293 -17.11585807800293,-30.991390228271484 0,-30.991390228271484z"></path></g><g opacity="1" transform="matrix(1,0,0,1,-148.82000732421875,170.67999267578125)"><path stroke-linecap="round" stroke-linejoin="round" fill-opacity="0" stroke="rgb(255,255,255)" stroke-opacity="1" stroke-width="16.667" d=" M2.109039783477783,-15.007723808288574 C9.232803344726562,-15.007723808288574 15.007723808288574,-9.232803344726562 15.007723808288574,-2.109039783477783"></path></g></g><g style="display: block;" transform="matrix(0.5999979376792908,0,0,0.5999979376792908,408.080322265625,359.71026611328125)" opacity="1"><g opacity="1" transform="matrix(1,0,0,1,-148.82000732421875,170.67999267578125)"><path fill="rgb(255,255,255)" fill-opacity="0.3" d=" M0,-29.348739624023438 C16.208850860595703,-29.348739624023438 29.348739624023438,-16.208850860595703 29.348739624023438,0 C29.348739624023438,16.208850860595703 16.208850860595703,29.348739624023438 0,29.348739624023438 C-16.208850860595703,29.348739624023438 -29.348739624023438,16.208850860595703 -29.348739624023438,0 C-29.348739624023438,-16.208850860595703 -16.208850860595703,-29.348739624023438 0,-29.348739624023438z"></path><path stroke-linecap="butt" stroke-linejoin="miter" fill-opacity="0" stroke-miterlimit="4" stroke="rgb(215,240,255)" stroke-opacity="1" stroke-width="13.333" d=" M0,-29.348739624023438 C16.208850860595703,-29.348739624023438 29.348739624023438,-16.208850860595703 29.348739624023438,0 C29.348739624023438,16.208850860595703 16.208850860595703,29.348739624023438 0,29.348739624023438 C-16.208850860595703,29.348739624023438 -29.348739624023438,16.208850860595703 -29.348739624023438,0 C-29.348739624023438,-16.208850860595703 -16.208850860595703,-29.348739624023438 0,-29.348739624023438z"></path></g><g opacity="1" transform="matrix(1,0,0,1,-148.82000732421875,170.67999267578125)"><path stroke-linecap="round" stroke-linejoin="round" fill-opacity="0" stroke="rgb(255,255,255)" stroke-opacity="1" stroke-width="16.667" d=" M2.7939603328704834,-12.63227653503418 C8.22719669342041,-12.63227653503418 12.63227653503418,-8.22719669342041 12.63227653503418,-2.7939603328704834"></path></g></g><g style="display: block;" transform="matrix(1.0312199592590332,0,0,1.0312199592590332,242.2634735107422,252.54696655273438)" opacity="0.5"><g opacity="1" transform="matrix(1,0,0,1,0,0)"><path stroke-linecap="round" stroke-linejoin="round" fill-opacity="0" stroke="rgb(247,170,192)" stroke-opacity="1" stroke-width="10" d=" M-95.55400085449219,178.36900329589844 C-76.13800048828125,170.375 -74.93299865722656,152.7209930419922 -72.98699951171875,128.30099487304688 C-71.40699768066406,108.46900177001953 -72.40699768066406,99.47000122070312 -76.39900207519531,88.25399780273438"></path></g></g><g style="display: block;" transform="matrix(0.9916826486587524,-0.004586345516145229,0.004702379461377859,1.0167720317840576,95.51891326904297,291.2811279296875)" opacity="1"><g opacity="1" transform="matrix(0.8578765988349915,-0.5138556957244873,0.5138556957244873,0.8578765988349915,90.81400299072266,112.93000030517578)"><path fill="rgb(255,212,39)" fill-opacity="1" d=" M27.871000289916992,34.51100158691406 C-29.545000076293945,20.94099998474121 -33.28499984741211,-14.946999549865723 -44.564998626708984,-37.20500183105469 C-59.17499923706055,-66.03199768066406 -60.435001373291016,-70.08999633789062 -55.808998107910156,-76.44999694824219 C-52.30400085449219,-81.26799774169922 -30.841999053955078,-86.86299896240234 -12.560999870300293,-67.47799682617188 C6.811999797821045,-46.935001373291016 18.415000915527344,-35.053001403808594 41.334999084472656,-30.94300079345703"></path><path stroke-linecap="round" stroke-linejoin="round" fill-opacity="0" stroke="rgb(249,143,22)" stroke-opacity="1" stroke-width="10" d=" M27.871000289916992,34.51100158691406 C-29.545000076293945,20.94099998474121 -33.28499984741211,-14.946999549865723 -44.564998626708984,-37.20500183105469 C-59.17499923706055,-66.03199768066406 -60.435001373291016,-70.08999633789062 -55.808998107910156,-76.44999694824219 C-52.30400085449219,-81.26799774169922 -30.841999053955078,-86.86299896240234 -12.560999870300293,-67.47799682617188 C6.811999797821045,-46.935001373291016 18.415000915527344,-35.053001403808594 41.334999084472656,-30.94300079345703"></path></g></g><g style="display: block;" transform="matrix(0.9916826486587524,-0.004586345516145229,0.004702379461377859,1.0167720317840576,133.22984313964844,352.4793701171875)" opacity="1"><g opacity="1" transform="matrix(1,0,0,1,48.60200119018555,56.79600143432617)"><path stroke-linecap="round" stroke-linejoin="round" fill-opacity="0" stroke="rgb(251,237,32)" stroke-opacity="1" stroke-width="10" d=" M-49.6879997253418,-27.167999267578125 C-19.666000366210938,-16.59600067138672 -20.167999267578125,4.546000003814697 26.30900001525879,2.61899995803833"></path></g></g><g style="display: block;" transform="matrix(0.9916826486587524,-0.004586345516145229,0.004702379461377859,1.0167720317840576,123.29114532470703,311.9837341308594)" opacity="1"><g opacity="1" transform="matrix(1,0,0,1,35.98099899291992,31.988000869750977)"><path stroke-linecap="round" stroke-linejoin="round" fill-opacity="0" stroke="rgb(255,255,255)" stroke-opacity="1" stroke-width="10" d=" M-36.17499923706055,19.579999923706055 C-23.714000701904297,15.864999771118164 -0.5830000042915344,26.805999755859375 19.77400016784668,26.881999969482422"></path></g></g><g style="display: block;" transform="matrix(0.8000039458274841,0,0,0.8000039458274841,409.92138671875,325.7213134765625)" opacity="1"><g opacity="1" transform="matrix(1,0,0,1,-148.82000732421875,170.67999267578125)"><path fill="rgb(255,255,255)" fill-opacity="0.3" d=" M0,-29.348739624023438 C16.208850860595703,-29.348739624023438 29.348739624023438,-16.208850860595703 29.348739624023438,0 C29.348739624023438,16.208850860595703 16.208850860595703,29.348739624023438 0,29.348739624023438 C-16.208850860595703,29.348739624023438 -29.348739624023438,16.208850860595703 -29.348739624023438,0 C-29.348739624023438,-16.208850860595703 -16.208850860595703,-29.348739624023438 0,-29.348739624023438z"></path><path stroke-linecap="butt" stroke-linejoin="miter" fill-opacity="0" stroke-miterlimit="4" stroke="rgb(215,240,255)" stroke-opacity="1" stroke-width="10" d=" M0,-29.348739624023438 C16.208850860595703,-29.348739624023438 29.348739624023438,-16.208850860595703 29.348739624023438,0 C29.348739624023438,16.208850860595703 16.208850860595703,29.348739624023438 0,29.348739624023438 C-16.208850860595703,29.348739624023438 -29.348739624023438,16.208850860595703 -29.348739624023438,0 C-29.348739624023438,-16.208850860595703 -16.208850860595703,-29.348739624023438 0,-29.348739624023438z"></path></g><g opacity="1" transform="matrix(1,0,0,1,-148.82000732421875,170.67999267578125)"><path stroke-linecap="round" stroke-linejoin="round" fill-opacity="0" stroke="rgb(255,255,255)" stroke-opacity="1" stroke-width="12.5" d=" M2.7939603328704834,-12.63227653503418 C8.22719669342041,-12.63227653503418 12.63227653503418,-8.22719669342041 12.63227653503418,-2.7939603328704834"></path></g></g><g style="display: block;" transform="matrix(0.4233054518699646,0,0,0.4233054518699646,218.72601318359375,280.3430480957031)" opacity="1"><g opacity="1" transform="matrix(1,0,0,1,-148.82000732421875,170.67999267578125)"><path fill="rgb(255,255,255)" fill-opacity="0.3" d=" M0,-29.348739624023438 C16.208850860595703,-29.348739624023438 29.348739624023438,-16.208850860595703 29.348739624023438,0 C29.348739624023438,16.208850860595703 16.208850860595703,29.348739624023438 0,29.348739624023438 C-16.208850860595703,29.348739624023438 -29.348739624023438,16.208850860595703 -29.348739624023438,0 C-29.348739624023438,-16.208850860595703 -16.208850860595703,-29.348739624023438 0,-29.348739624023438z"></path><path stroke-linecap="butt" stroke-linejoin="miter" fill-opacity="0" stroke-miterlimit="4" stroke="rgb(215,240,255)" stroke-opacity="1" stroke-width="13.333" d=" M0,-29.348739624023438 C16.208850860595703,-29.348739624023438 29.348739624023438,-16.208850860595703 29.348739624023438,0 C29.348739624023438,16.208850860595703 16.208850860595703,29.348739624023438 0,29.348739624023438 C-16.208850860595703,29.348739624023438 -29.348739624023438,16.208850860595703 -29.348739624023438,0 C-29.348739624023438,-16.208850860595703 -16.208850860595703,-29.348739624023438 0,-29.348739624023438z"></path></g><g opacity="1" transform="matrix(1,0,0,1,-148.82000732421875,170.67999267578125)"><path stroke-linecap="round" stroke-linejoin="round" fill-opacity="0" stroke="rgb(255,255,255)" stroke-opacity="1" stroke-width="16.667" d=" M2.7939603328704834,-12.63227653503418 C8.22719669342041,-12.63227653503418 12.63227653503418,-8.22719669342041 12.63227653503418,-2.7939603328704834"></path></g></g><g style="display: none;" transform="matrix(0.01682334579527378,0,0,0.01682334579527378,33.17164993286133,215.9070281982422)" opacity="1"><g opacity="1" transform="matrix(1,0,0,1,-148.82000732421875,170.67999267578125)"><path fill="rgb(255,255,255)" fill-opacity="0.3" d=" M0,-28.72599983215332 C15.864999771118164,-28.72599983215332 28.72599983215332,-15.864999771118164 28.72599983215332,0 C28.72599983215332,15.864999771118164 15.864999771118164,28.72599983215332 0,28.72599983215332 C-15.864999771118164,28.72599983215332 -28.72599983215332,15.864999771118164 -28.72599983215332,0 C-28.72599983215332,-15.864999771118164 -15.864999771118164,-28.72599983215332 0,-28.72599983215332z"></path><path stroke-linecap="butt" stroke-linejoin="miter" fill-opacity="0" stroke-miterlimit="4" stroke="rgb(215,240,255)" stroke-opacity="1" stroke-width="13.333" d=" M0,-28.72599983215332 C15.864999771118164,-28.72599983215332 28.72599983215332,-15.864999771118164 28.72599983215332,0 C28.72599983215332,15.864999771118164 15.864999771118164,28.72599983215332 0,28.72599983215332 C-15.864999771118164,28.72599983215332 -28.72599983215332,15.864999771118164 -28.72599983215332,0 C-28.72599983215332,-15.864999771118164 -15.864999771118164,-28.72599983215332 0,-28.72599983215332z"></path></g><g opacity="1" transform="matrix(1,0,0,1,-148.82000732421875,170.67999267578125)"><path stroke-linecap="round" stroke-linejoin="round" fill-opacity="0" stroke="rgb(255,255,255)" stroke-opacity="1" stroke-width="16.667" d=" M2.884000062942505,-12.319999694824219 C8.095000267028809,-12.319999694824219 12.319999694824219,-8.095000267028809 12.319999694824219,-2.884000062942505"></path></g></g><g style="display: none;" transform="matrix(0.014019454829394817,0,0,0.014019454829394817,71.7543716430664,103.92349243164062)" opacity="1"><g opacity="1" transform="matrix(1,0,0,1,-148.82000732421875,170.67999267578125)"><path fill="rgb(255,255,255)" fill-opacity="0.3" d=" M0,-28.72599983215332 C15.864999771118164,-28.72599983215332 28.72599983215332,-15.864999771118164 28.72599983215332,0 C28.72599983215332,15.864999771118164 15.864999771118164,28.72599983215332 0,28.72599983215332 C-15.864999771118164,28.72599983215332 -28.72599983215332,15.864999771118164 -28.72599983215332,0 C-28.72599983215332,-15.864999771118164 -15.864999771118164,-28.72599983215332 0,-28.72599983215332z"></path><path stroke-linecap="butt" stroke-linejoin="miter" fill-opacity="0" stroke-miterlimit="4" stroke="rgb(215,240,255)" stroke-opacity="1" stroke-width="13.333" d=" M0,-28.72599983215332 C15.864999771118164,-28.72599983215332 28.72599983215332,-15.864999771118164 28.72599983215332,0 C28.72599983215332,15.864999771118164 15.864999771118164,28.72599983215332 0,28.72599983215332 C-15.864999771118164,28.72599983215332 -28.72599983215332,15.864999771118164 -28.72599983215332,0 C-28.72599983215332,-15.864999771118164 -15.864999771118164,-28.72599983215332 0,-28.72599983215332z"></path></g><g opacity="1" transform="matrix(1,0,0,1,-148.82000732421875,170.67999267578125)"><path stroke-linecap="round" stroke-linejoin="round" fill-opacity="0" stroke="rgb(255,255,255)" stroke-opacity="1" stroke-width="16.667" d=" M2.884000062942505,-12.319999694824219 C8.095000267028809,-12.319999694824219 12.319999694824219,-8.095000267028809 12.319999694824219,-2.884000062942505"></path></g></g><g style="display: none;" transform="matrix(0.01682334579527378,0,0,0.01682334579527378,329.1716613769531,327.6514892578125)" opacity="1"><g opacity="1" transform="matrix(1,0,0,1,-148.82000732421875,170.67999267578125)"><path fill="rgb(255,255,255)" fill-opacity="0.3" d=" M0,-28.765762329101562 C15.886955261230469,-28.765762329101562 28.765762329101562,-15.886955261230469 28.765762329101562,0 C28.765762329101562,15.886955261230469 15.886955261230469,28.765762329101562 0,28.765762329101562 C-15.886955261230469,28.765762329101562 -28.765762329101562,15.886955261230469 -28.765762329101562,0 C-28.765762329101562,-15.886955261230469 -15.886955261230469,-28.765762329101562 0,-28.765762329101562z"></path><path stroke-linecap="butt" stroke-linejoin="miter" fill-opacity="0" stroke-miterlimit="4" stroke="rgb(215,240,255)" stroke-opacity="1" stroke-width="13.333" d=" M0,-28.765762329101562 C15.886955261230469,-28.765762329101562 28.765762329101562,-15.886955261230469 28.765762329101562,0 C28.765762329101562,15.886955261230469 15.886955261230469,28.765762329101562 0,28.765762329101562 C-15.886955261230469,28.765762329101562 -28.765762329101562,15.886955261230469 -28.765762329101562,0 C-28.765762329101562,-15.886955261230469 -15.886955261230469,-28.765762329101562 0,-28.765762329101562z"></path></g><g opacity="1" transform="matrix(1,0,0,1,-148.82000732421875,170.67999267578125)"><path stroke-linecap="round" stroke-linejoin="round" fill-opacity="0" stroke="rgb(255,255,255)" stroke-opacity="1" stroke-width="16.667" d=" M2.8833909034729004,-12.322112083435059 C8.095893859863281,-12.322112083435059 12.322112083435059,-8.095893859863281 12.322112083435059,-2.8833909034729004"></path></g></g><g style="display: block;" transform="matrix(0.4000000059604645,0,0,0.4000000059604645,90.19599914550781,184.72866821289062)" opacity="1"><g opacity="1" transform="matrix(1,0,0,1,-148.82000732421875,170.67999267578125)"><path fill="rgb(255,255,255)" fill-opacity="0.3" d=" M0,-30.991390228271484 C17.11585807800293,-30.991390228271484 30.991390228271484,-17.11585807800293 30.991390228271484,0 C30.991390228271484,17.11585807800293 17.11585807800293,30.991390228271484 0,30.991390228271484 C-17.11585807800293,30.991390228271484 -30.991390228271484,17.11585807800293 -30.991390228271484,0 C-30.991390228271484,-17.11585807800293 -17.11585807800293,-30.991390228271484 0,-30.991390228271484z"></path><path stroke-linecap="butt" stroke-linejoin="miter" fill-opacity="0" stroke-miterlimit="4" stroke="rgb(215,240,255)" stroke-opacity="1" stroke-width="13.333" d=" M0,-30.991390228271484 C17.11585807800293,-30.991390228271484 30.991390228271484,-17.11585807800293 30.991390228271484,0 C30.991390228271484,17.11585807800293 17.11585807800293,30.991390228271484 0,30.991390228271484 C-17.11585807800293,30.991390228271484 -30.991390228271484,17.11585807800293 -30.991390228271484,0 C-30.991390228271484,-17.11585807800293 -17.11585807800293,-30.991390228271484 0,-30.991390228271484z"></path></g><g opacity="1" transform="matrix(1,0,0,1,-148.82000732421875,170.67999267578125)"><path stroke-linecap="round" stroke-linejoin="round" fill-opacity="0" stroke="rgb(255,255,255)" stroke-opacity="1" stroke-width="16.667" d=" M2.109039783477783,-15.007723808288574 C9.232803344726562,-15.007723808288574 15.007723808288574,-9.232803344726562 15.007723808288574,-2.109039783477783"></path></g></g><g style="display: none;" transform="matrix(0.01682334579527378,0,0,0.01682334579527378,72.17164611816406,185.44491577148438)" opacity="1"><g opacity="1" transform="matrix(1,0,0,1,-148.82000732421875,170.67999267578125)"><path fill="rgb(255,255,255)" fill-opacity="0.3" d=" M0,-28.72599983215332 C15.864999771118164,-28.72599983215332 28.72599983215332,-15.864999771118164 28.72599983215332,0 C28.72599983215332,15.864999771118164 15.864999771118164,28.72599983215332 0,28.72599983215332 C-15.864999771118164,28.72599983215332 -28.72599983215332,15.864999771118164 -28.72599983215332,0 C-28.72599983215332,-15.864999771118164 -15.864999771118164,-28.72599983215332 0,-28.72599983215332z"></path><path stroke-linecap="butt" stroke-linejoin="miter" fill-opacity="0" stroke-miterlimit="4" stroke="rgb(215,240,255)" stroke-opacity="1" stroke-width="13.333" d=" M0,-28.72599983215332 C15.864999771118164,-28.72599983215332 28.72599983215332,-15.864999771118164 28.72599983215332,0 C28.72599983215332,15.864999771118164 15.864999771118164,28.72599983215332 0,28.72599983215332 C-15.864999771118164,28.72599983215332 -28.72599983215332,15.864999771118164 -28.72599983215332,0 C-28.72599983215332,-15.864999771118164 -15.864999771118164,-28.72599983215332 0,-28.72599983215332z"></path></g><g opacity="1" transform="matrix(1,0,0,1,-148.82000732421875,170.67999267578125)"><path stroke-linecap="round" stroke-linejoin="round" fill-opacity="0" stroke="rgb(255,255,255)" stroke-opacity="1" stroke-width="16.667" d=" M2.884000062942505,-12.319999694824219 C8.095000267028809,-12.319999694824219 12.319999694824219,-8.095000267028809 12.319999694824219,-2.884000062942505"></path></g></g><g style="display: block;" transform="matrix(0.5831766724586487,0,0,0.5831766724586487,475.45635986328125,256.9753112792969)" opacity="1"><g opacity="1" transform="matrix(1,0,0,1,-148.82000732421875,170.67999267578125)"><path fill="rgb(255,255,255)" fill-opacity="0.3" d=" M0,-31.18000030517578 C17.219999313354492,-31.18000030517578 31.18000030517578,-17.219999313354492 31.18000030517578,0 C31.18000030517578,17.219999313354492 17.219999313354492,31.18000030517578 0,31.18000030517578 C-17.219999313354492,31.18000030517578 -31.18000030517578,17.219999313354492 -31.18000030517578,0 C-31.18000030517578,-17.219999313354492 -17.219999313354492,-31.18000030517578 0,-31.18000030517578z"></path><path stroke-linecap="butt" stroke-linejoin="miter" fill-opacity="0" stroke-miterlimit="4" stroke="rgb(215,240,255)" stroke-opacity="1" stroke-width="13.333" d=" M0,-31.18000030517578 C17.219999313354492,-31.18000030517578 31.18000030517578,-17.219999313354492 31.18000030517578,0 C31.18000030517578,17.219999313354492 17.219999313354492,31.18000030517578 0,31.18000030517578 C-17.219999313354492,31.18000030517578 -31.18000030517578,17.219999313354492 -31.18000030517578,0 C-31.18000030517578,-17.219999313354492 -17.219999313354492,-31.18000030517578 0,-31.18000030517578z"></path></g><g opacity="1" transform="matrix(1,0,0,1,-148.82000732421875,170.67999267578125)"><path stroke-linecap="round" stroke-linejoin="round" fill-opacity="0" stroke="rgb(255,255,255)" stroke-opacity="1" stroke-width="16.667" d=" M2.0190000534057617,-15.319999694824219 C9.364999771118164,-15.319999694824219 15.319999694824219,-9.364999771118164 15.319999694824219,-2.0190000534057617"></path></g></g></g></g></svg>